<svg id="fd59ce54-f850-4dfc-bc34-dd7d379d600e" xmlns="http://www.w3.org/2000/svg" viewBox="0 0 1074.39 441.98"><defs><style>.cls-1{fill:#f2f2f2;}.cls-2{fill:#2f2e41;}.cls-3,.cls-9{fill:#f9a826;}.cls-4{fill:none;stroke:#3f3d56;stroke-miterlimit:10;}.cls-5{fill:#3f3d56;}.cls-6{opacity:0.1;}.cls-6,.cls-9{isolation:isolate;}.cls-7{fill:#57b894;}.cls-8{fill:#fff;}.cls-9{opacity:0.3;}</style></defs><ellipse class="cls-1" cx="540.64" cy="407.06" rx="527.5" ry="34.92"/><path class="cls-2" d="M520.43,24.76c-85.95,0-147.66,55.14-147.66,183.8C372.77,354.37,434.48,393,520.43,393S671.75,350.7,671.75,208.56C671.75,56.62,606.37,24.76,520.43,24.76ZM521,344.57c-59.53,0-90.63-34.92-90.63-135.92,0-89.11,32.38-136.1,91.9-136.1s91.9,30.87,91.9,136.1C614.16,307.1,580.52,344.57,521,344.57Z"/><path class="cls-3" d="M321.31,291.27H285.78V186.63a21,21,0,0,0-21-21h-8.33a21,21,0,0,0-21,21h0V291.27H135.31a12,12,0,0,1-10.58-17.55L230.81,72.94a21,21,0,0,0-8.74-28.32q-.4-.23-.84-.42l-6.26-3a21,21,0,0,0-27.43,9.07l-129.38,242a28.51,28.51,0,0,0-3.36,13.4h0a28.43,28.43,0,0,0,28.42,28.42H235.54v66.16a25.12,25.12,0,0,0,25.12,25.12h0a25.12,25.12,0,0,0,25.12-25.12h0V334.16h35.53a21.44,21.44,0,0,0,21.44-21.45h0a21.44,21.44,0,0,0-21.44-21.44Z"/><path class="cls-3" d="M979.31,291.27H943.77V186.63a21,21,0,0,0-20.95-21h-8.33a21,21,0,0,0-21,21h0V291.27H793.31a12,12,0,0,1-10.58-17.55L888.81,72.94a21,21,0,0,0-8.74-28.32l-.84-.42-6.26-3a21,21,0,0,0-27.43,9.07l-129.38,242a28.39,28.39,0,0,0-3.36,13.4h0a28.42,28.42,0,0,0,28.42,28.42H893.54v66.16a25.11,25.11,0,0,0,25.11,25.12h0a25.11,25.11,0,0,0,25.12-25.12h0V334.16h35.54a21.44,21.44,0,0,0,21.44-21.45h0a21.44,21.44,0,0,0-21.44-21.44Z"/><path class="cls-4" d="M331.11,279H295.58V174.38a21,21,0,0,0-21-21H266.3a21,21,0,0,0-21,21h0V279H145.11a12,12,0,0,1-10.58-17.56L240.62,60.68a21,21,0,0,0-8.74-28.31L231,32l-6.27-3a21,21,0,0,0-27.43,9.07L68,280.09a28.44,28.44,0,0,0-3.35,13.4h0A28.41,28.41,0,0,0,93,321.9H245.34v66.17a25.12,25.12,0,0,0,25.12,25.12h0a25.12,25.12,0,0,0,25.12-25.12h0V321.9h35.53a21.44,21.44,0,0,0,21.45-21.44h0A21.44,21.44,0,0,0,331.11,279Z"/><path class="cls-4" d="M997.69,279H962.15V174.38a21,21,0,0,0-20.95-21h-8.33a21,21,0,0,0-21,21h0V279H811.69a12,12,0,0,1-10.58-17.56L907.19,60.68a21,21,0,0,0-8.74-28.31l-.84-.42-6.26-3a21,21,0,0,0-27.43,9.07l-129.38,242a28.33,28.33,0,0,0-3.36,13.4h0A28.41,28.41,0,0,0,759.6,321.9H911.92v66.17A25.12,25.12,0,0,0,937,413.19h0a25.12,25.12,0,0,0,25.12-25.12h0V321.9h35.54a21.44,21.44,0,0,0,21.44-21.44h0A21.44,21.44,0,0,0,997.69,279Z"/><path class="cls-4" d="M540,13.73c-85.94,0-147.65,55.14-147.65,183.8,0,145.82,61.71,184.41,147.65,184.41s151.33-42.27,151.33-184.41C691.36,45.59,626,13.73,540,13.73Zm.57,319.81c-59.53,0-90.63-34.92-90.63-135.91,0-89.11,32.37-136.11,91.9-136.11s91.9,30.87,91.9,136.11c0,98.44-33.65,135.91-93.17,135.91Z"/><path class="cls-5" d="M576.24,41.94c-.77,3.2-4.13,5.75-7.84,7.54-7.8,3.76-17.42,4.88-26.76,5.25a44.79,44.79,0,0,1-7.14-.13A20.51,20.51,0,0,1,522.25,49a1.68,1.68,0,0,1-.49-2.33,1.72,1.72,0,0,1,.53-.51c5-5.46,13.26-8.81,21.62-11.22,6.33-1.83,17.38-6.56,24.29-5.92C574.89,29.61,577.22,37.91,576.24,41.94Z"/><path class="cls-6" d="M576.24,41.94c-.77,3.2-4.13,5.75-7.84,7.54-7.8,3.76-17.42,4.88-26.76,5.25a44.79,44.79,0,0,1-7.14-.13A20.51,20.51,0,0,1,522.25,49a1.68,1.68,0,0,1-.49-2.33,1.72,1.72,0,0,1,.53-.51c5-5.46,13.26-8.81,21.62-11.22,6.33-1.83,17.38-6.56,24.29-5.92C574.89,29.61,577.22,37.91,576.24,41.94Z"/><path class="cls-7" d="M1006.86,277.3a20.81,20.81,0,1,0,2.78-39.91l.52,10.71-5.07-9.18a20.74,20.74,0,0,0-10.69,11.72,20.49,20.49,0,0,0-1.19,5.63A20.79,20.79,0,0,0,1006.86,277.3Z"/><path class="cls-4" d="M1031.94,401.55c-1.79-9.11,6-17.19,13.62-22.44s16.61-10.41,19.22-19.32c3.75-12.8-7.43-24.53-16.14-34.64a125.64,125.64,0,0,1-16.52-24.56c-1.81-3.53-3.48-7.22-3.95-11.16-.69-5.68,1.14-11.33,3-16.74q9.18-27,19.63-53.65"/><path class="cls-4" d="M1007.72,274.54a20.81,20.81,0,1,0,2.77-39.91l.52,10.71-5.06-9.18a20.8,20.8,0,0,0,1.77,38.38Z"/><path class="cls-7" d="M1029.4,215.34a20.79,20.79,0,0,1,15-13.2l1.71,10.19,3.18-10.7a20.83,20.83,0,1,1-19.87,13.71Z"/><path class="cls-4" d="M1030.54,211.66a20.78,20.78,0,0,1,15-13.19l1.71,10.18,3.18-10.7a20.83,20.83,0,1,1-19.87,13.71Z"/><path class="cls-7" d="M1045,325.36a20.81,20.81,0,0,0,18.42-37l-2.44,8.22-1.73-10.3-.06,0a20.81,20.81,0,0,0-14.2,39.12Z"/><path class="cls-4" d="M1046,321.63a20.81,20.81,0,0,0,18.42-37l-2.44,8.22-1.73-10.3-.06,0a20.81,20.81,0,1,0-14.2,39.12Z"/><path class="cls-7" d="M1023.32,359.92a20.8,20.8,0,1,0,4-16.3l9.28,14-12.67-7.41A20.52,20.52,0,0,0,1023.32,359.92Z"/><path class="cls-4" d="M1024.18,357.16a20.8,20.8,0,1,0,4-16.3l9.27,14-12.67-7.41A20.65,20.65,0,0,0,1024.18,357.16Z"/><path class="cls-7" d="M9,328a13.67,13.67,0,1,0,1.82-26.22l.34,7-3.33-6A13.67,13.67,0,0,0,9,328Z"/><path class="cls-4" d="M25.48,409.63c-1.17-6,3.92-11.29,9-14.74s10.91-6.84,12.63-12.69c2.47-8.41-4.88-16.12-10.6-22.76A82.09,82.09,0,0,1,25.6,343.3,22.23,22.23,0,0,1,23,336c-.45-3.73.75-7.44,2-11q6-17.78,12.9-35.25"/><path class="cls-4" d="M9.57,326.19A13.67,13.67,0,1,0,11.39,300l.34,7L8.4,301a13.69,13.69,0,0,0-7,7.7,13.42,13.42,0,0,0-.78,3.7A13.67,13.67,0,0,0,9.57,326.19Z"/><path class="cls-7" d="M23.81,287.29a13.66,13.66,0,0,1,9.84-8.67l1.13,6.69,2.09-7A13.68,13.68,0,1,1,23,291.75,13.85,13.85,0,0,1,23.81,287.29Z"/><path class="cls-4" d="M24.56,284.88a13.69,13.69,0,0,1,9.85-8.68l1.12,6.7,2.09-7a13.68,13.68,0,1,1-13.06,9Z"/><path class="cls-7" d="M34.06,359.57a13.67,13.67,0,0,0,12.1-24.32l-1.6,5.4-1.14-6.77h0A13.67,13.67,0,1,0,34,359.56Z"/><path class="cls-4" d="M34.71,357.13a13.68,13.68,0,0,0,12.1-24.33l-1.6,5.4-1.14-6.77h0a13.67,13.67,0,0,0-9.32,25.71Z"/><path class="cls-7" d="M19.82,382.28a13.68,13.68,0,1,0,2.64-10.7l6.09,9.17-8.33-4.87A13.61,13.61,0,0,0,19.82,382.28Z"/><path class="cls-4" d="M20.39,380.47A13.66,13.66,0,1,0,23,369.76l6.09,9.17-8.32-4.86A13.35,13.35,0,0,0,20.39,380.47Z"/><ellipse class="cls-2" cx="480.95" cy="176.87" rx="17" ry="22"/><ellipse class="cls-2" cx="573.45" cy="177.37" rx="17" ry="22"/><path class="cls-2" d="M560.45,242.37c0,9.94-13.88,18-31,18s-31-8.06-31-18c0-8.61,10.41-15.81,24.32-17.57a49.63,49.63,0,0,1,6.68-.43,50.86,50.86,0,0,1,11.13,1.2C552.2,228.16,560.45,234.71,560.45,242.37Z"/><ellipse class="cls-4" cx="484.95" cy="171.87" rx="17" ry="22"/><ellipse class="cls-4" cx="577.45" cy="172.37" rx="17" ry="22"/><ellipse class="cls-4" cx="533.45" cy="237.37" rx="31" ry="18"/><path class="cls-8" d="M541,227.07a5,5,0,0,1-1.32,3.39,4.37,4.37,0,0,1-3.18,1.41h-10a4.66,4.66,0,0,1-4.5-4.8,4.84,4.84,0,0,1,.82-2.74,46.57,46.57,0,0,1,6.68-.46,48,48,0,0,1,11.13,1.28A5.25,5.25,0,0,1,541,227.07Z"/><circle class="cls-8" cx="484.95" cy="165.87" r="5"/><circle class="cls-8" cx="577.95" cy="165.87" r="5"/><circle class="cls-9" cx="582.95" cy="212.87" r="5"/><circle class="cls-9" cx="460.95" cy="212.87" r="5"/></svg>