<svg id="圖層_1" data-name="圖層 1" xmlns="http://www.w3.org/2000/svg" viewBox="0 0 183.08 59"><defs><style>.cls-1{fill:#fff;}</style></defs><path class="cls-1" d="M104.37,27.47a1.14,1.14,0,0,1-1.84.12c-.92-.76-2.25-1.76-3.41-2.59a.61.61,0,0,1-.22-.88.57.57,0,0,1,.37-.28H96.53a1.34,1.34,0,0,1,.37.25,1,1,0,0,1-.2,1.67A13,13,0,0,1,92,28c-.38.08-.62,0-.73-.33a.6.6,0,0,1,.3-.79,15.64,15.64,0,0,0,3.56-2.6,1.76,1.76,0,0,1,.61-.42H93.93a1,1,0,0,1-1.07-1.05v-7.7A1,1,0,0,1,93.93,14H102a1,1,0,0,1,1.07,1.05v7.7A1,1,0,0,1,102,23.84H99.63a.42.42,0,0,0,.12,0,20.78,20.78,0,0,1,4.17,1.88A1.09,1.09,0,0,1,104.37,27.47ZM95.06,16.9h5.82V15.49a.17.17,0,0,0-.18-.18H95.24a.17.17,0,0,0-.18.18Zm0,2.79h5.82V18.13H95.06Zm.18,2.88h5.46a.17.17,0,0,0,.18-.18V20.91H95.06v1.48A.18.18,0,0,0,95.24,22.57Z"/><path class="cls-1" d="M118.4,21a10.5,10.5,0,0,1-1.16-.7,1,1,0,0,1,.25.71v2a.85.85,0,0,1-.94,1h-.08c.45.34.46.79.06,1.32a11.88,11.88,0,0,1-.91,1.08h3.67a.62.62,0,1,1,0,1.24H107.05a.62.62,0,1,1,0-1.24h3.64a12.44,12.44,0,0,0-1-1.69.53.53,0,0,1,0-.71.85.85,0,0,1-.85-1V21a.55.55,0,0,1,0-.18,11.18,11.18,0,0,1-2,.86.46.46,0,0,1-.66-.29c-.11-.28,0-.48.31-.65a9.51,9.51,0,0,0,2.91-2.22,15.36,15.36,0,0,0-1.58-1.89.47.47,0,0,1-.05-.65.5.5,0,0,1,.64-.12,9.13,9.13,0,0,1,2,1.24,9.41,9.41,0,0,0,.62-1.46c0-.14,0-.22-.15-.22H108a.58.58,0,1,1,0-1.16h3.14a1.38,1.38,0,0,1,1.49-.26,1.17,1.17,0,0,1,.6,1.58,8.57,8.57,0,0,1-1,2.18h2.58a11.51,11.51,0,0,1-1.67-3.82.47.47,0,0,1,.37-.61.49.49,0,0,1,.62.33,12.5,12.5,0,0,0,.62,1.27,8.85,8.85,0,0,0,.56-.9.83.83,0,0,1,1.36-.29.79.79,0,0,1,.1,1.39,10.87,10.87,0,0,1-1.24,1,7.67,7.67,0,0,0,.82.9,14.79,14.79,0,0,0,.88-1.24.84.84,0,0,1,1.36-.29.8.8,0,0,1,.07,1.39,9.77,9.77,0,0,1-1.29,1,11.12,11.12,0,0,0,2.09,1.09,1.07,1.07,0,0,1,.68,1.62C119.75,21.22,119.15,21.35,118.4,21Zm-1.33-.82a9.88,9.88,0,0,1-1.36-1.23h-4.45A10.29,10.29,0,0,1,110,20.05h6.54A1.05,1.05,0,0,1,117.07,20.16Zm-2,3.76h-4.31a9,9,0,0,1,1.43,1.24c.41.42.51.8.28,1.16H114a15,15,0,0,0,.89-2A1,1,0,0,1,115.06,23.92Zm.21-2.51a.18.18,0,0,0-.18-.19h-3.87a.18.18,0,0,0-.19.19v1.15a.18.18,0,0,0,.19.18h3.87a.17.17,0,0,0,.18-.18Z"/><path class="cls-1" d="M121.86,20a.51.51,0,0,1,0-.7,14.2,14.2,0,0,0,2.33-4.92,1,1,0,0,1,1.33-.79c.68.17.91.71.59,1.48a12.36,12.36,0,0,1-.73,1.57v5.5c0,.65-.36,1-1,1s-1-.31-1-1V19.29a8.42,8.42,0,0,1-.83.69A.43.43,0,0,1,121.86,20Zm13.58,7a.55.55,0,0,1-.58.63H122.62a.56.56,0,0,1-.59-.63c0-.42.22-.66.59-.66h4.85v-1h-3.55a.56.56,0,0,1-.59-.63.53.53,0,0,1,.59-.59h3.55v-.42c0-.73.4-1.05,1.14-1.05s1.13.32,1.13,1.05v.42h3.75a.53.53,0,0,1,.59.59.56.56,0,0,1-.59.63h-3.75v1h5.12C135.23,26.27,135.44,26.51,135.44,26.93Zm-6.08-8.68V17.6h-1.75a.86.86,0,0,1-1-1V15.06a.86.86,0,0,1,1-1H133c.69,0,1,.34,1,1v1.59a.85.85,0,0,1-1,1h-1.64v.65h3a.52.52,0,0,1,.59.57.54.54,0,0,1-.59.61H132a8.23,8.23,0,0,0,2.37,1.19c.65.22.88.7.62,1.24a1,1,0,0,1-1.43.45,6.94,6.94,0,0,1-2.12-1.75v1.19c0,.67-.37,1-1,1s-1-.31-1-1V20.6a8.57,8.57,0,0,1-3,1.94.45.45,0,0,1-.64-.22.49.49,0,0,1,.2-.66,8.36,8.36,0,0,0,2.47-2.23h-2a.55.55,0,0,1-.59-.61.53.53,0,0,1,.59-.57Zm2.46-1.8a.18.18,0,0,0,.19-.18v-.84a.18.18,0,0,0-.19-.19h-3a.18.18,0,0,0-.19.19v.84a.18.18,0,0,0,.19.18Z"/><path class="cls-1" d="M92.66,42.63a4.23,4.23,0,0,0,2.74,1.09c1.19,0,1.92-.54,1.93-1.46S97,40.78,95,39.72c-2.56-1.37-3.7-2.4-3.69-4.17,0-2,1.76-3.23,4.45-3.23a5.53,5.53,0,0,1,3.53,1,1.08,1.08,0,0,1,.23,1.43.92.92,0,0,1-1.43.17,3.45,3.45,0,0,0-2.36-.76c-1,0-1.67.47-1.67,1.16s.33,1.39,2.36,2.44c2.66,1.4,3.72,2.46,3.72,4.17,0,2.28-1.73,3.65-4.59,3.65a5.7,5.7,0,0,1-4-1.34,1.09,1.09,0,0,1-.16-1.46A.91.91,0,0,1,92.66,42.63Z"/><path class="cls-1" d="M111.32,33.48a.8.8,0,0,1-.88.91h-2.9v9.92a1.18,1.18,0,0,1-1.34,1.29,1.17,1.17,0,0,1-1.32-1.29V34.39H102a.81.81,0,0,1-.88-.91.8.8,0,0,1,.88-.9h8.47A.8.8,0,0,1,111.32,33.48Z"/><path class="cls-1" d="M120.28,45.34h-5.77A1.24,1.24,0,0,1,113.15,44v-10a1.22,1.22,0,0,1,1.36-1.36h5.66a.9.9,0,0,1,0,1.79H116a.18.18,0,0,0-.17.17v3.31h3.84a.79.79,0,0,1,.87.88.81.81,0,0,1-.87.91h-3.84v3.72a.18.18,0,0,0,.17.19h4.3a.78.78,0,0,1,.86.88A.8.8,0,0,1,120.28,45.34Z"/><path class="cls-1" d="M132.86,45.49a1.19,1.19,0,0,1-1.7-.85l-.94-3.21H126l-1,3.26a1.08,1.08,0,0,1-1.5.82,1.09,1.09,0,0,1-.76-1.55l3.46-10.09a1.91,1.91,0,0,1,2-1.55,2.15,2.15,0,0,1,2.16,1.55c1,2.72,2.33,6.62,3.37,10C133.92,44.68,133.66,45.27,132.86,45.49Zm-3.16-5.82c-.49-1.63-1-3.27-1.46-4.85h-.14l-1.53,4.85Z"/><path class="cls-1" d="M146.52,44.33V38.47a24.46,24.46,0,0,1,.26-2.48l-.12,0a63,63,0,0,1-2.88,7.6c-.33.78-.7,1.11-1.41,1.11a1.57,1.57,0,0,1-1.53-1.11c-.87-2-2.09-5-3-7.62l-.12,0a20.86,20.86,0,0,1,.21,2.49v5.89a1.22,1.22,0,1,1-2.43,0V34.2a1.64,1.64,0,0,1,1.73-1.86c.94,0,1.4.41,1.86,1.56,1,2.35,2.44,6.08,3.22,8.07h.05c.75-2,2.07-5.64,3-8.1.4-1.13.94-1.57,2-1.55s1.63.62,1.63,1.82V44.33a1.25,1.25,0,1,1-2.5,0Z"/><path class="cls-1" d="M157,42.66v1.59c0,1.68-1.61,2.31-4,1.27a.52.52,0,0,1-.32-.63c.06-.28.29-.4.63-.37,1.46.14,1.7-.05,1.7-.61V43.2c-.65.14-1.33.28-2,.39a.86.86,0,0,1-1.15-.75c-.09-.57.17-1,.89-1s1.52-.16,2.27-.27V40.8c0-.56.36-.88,1-.88h.26a4,4,0,0,0,.56-.82c.08-.12,0-.22-.12-.22h-.76a13.32,13.32,0,0,1-3.41,2.2.53.53,0,0,1-.74-.18.51.51,0,0,1,.21-.75,19.28,19.28,0,0,0,1.76-1.27h-.56a.57.57,0,1,1,0-1.14H155a9.6,9.6,0,0,0,.79-.9h-3.36a.59.59,0,1,1,0-1.18h2V34.42H153a.52.52,0,0,1-.57-.58.51.51,0,0,1,.57-.57h1.3v-.84c0-.6.35-.9,1-.9s1,.3,1,.9v.84h1.05a.64.64,0,0,1,.36.09l.23-.62a.92.92,0,0,1,1.3-.63c.61.21.76.71.5,1.33a16.15,16.15,0,0,1-1.15,2.23h.6a.59.59,0,1,1,0,1.18h-1.4l-.75.9h.7c1.08,0,1.24.86.66,1.55A6.76,6.76,0,0,1,157,40.63a.62.62,0,0,1,0,.2v.4c.65-.12,1.27-.25,1.83-.38a.48.48,0,0,1,.68.26.54.54,0,0,1-.31.71A15.36,15.36,0,0,1,157,42.66Zm-.65-7h.26c.25-.4.48-.82.7-1.25h-1Zm9.15,9.76a1.1,1.1,0,0,1-1.81.12,8.2,8.2,0,0,1-1.59-2.06,8.87,8.87,0,0,1-3.69,2.45c-.36.14-.59.06-.73-.22a.51.51,0,0,1,.26-.72,9.1,9.1,0,0,0,3.4-3.24,14.92,14.92,0,0,1-.73-3.41,7.76,7.76,0,0,1-.79,1,.51.51,0,0,1-.71.13.53.53,0,0,1-.16-.73,17.32,17.32,0,0,0,1.55-6.37c.08-.69.51-1,1.22-.9s1,.49.89,1.2a14.13,14.13,0,0,1-.36,1.81H165a.55.55,0,0,1,.62.62.54.54,0,0,1-.62.6h-.34a13.37,13.37,0,0,1-1.45,6.08,8.93,8.93,0,0,0,1.93,1.9A1.1,1.1,0,0,1,165.47,45.43Zm-3.34-5.62a15.7,15.7,0,0,0,.54-4.05h-.84a8.54,8.54,0,0,1-.42,1A12.74,12.74,0,0,0,162.13,39.81Z"/><path class="cls-1" d="M180,34.39h-3.16a12.42,12.42,0,0,1,3,1.81.88.88,0,0,1,.16,1.45.91.91,0,0,1-1.49-.09,12.64,12.64,0,0,0-.85-.94,53,53,0,0,1-8.66,1,.9.9,0,0,1-1-.9.8.8,0,0,1,.93-.88h1.68a11.52,11.52,0,0,0,.83-1.48h-3.58a.64.64,0,1,1,0-1.28h4.9v-.65c0-.66.42-1,1.19-1s1.19.32,1.19,1v.65H180a.64.64,0,1,1,0,1.28Zm-1.19,4.52v5.3c0,1.76-1.69,2.3-4.09,1.31a.52.52,0,0,1-.34-.65c.06-.29.23-.42.61-.38,1.5.14,1.7,0,1.7-.7v-.64h-5.33v1.92c0,.64-.37,1-1.07,1s-1.07-.32-1.07-1V38.91a.85.85,0,0,1,.95-.95h7.68A.86.86,0,0,1,178.81,38.91Zm-7.45.43V40h5.33v-.65a.18.18,0,0,0-.19-.18h-4.95A.18.18,0,0,0,171.36,39.34ZM176.69,42v-.85h-5.33V42Zm-.57-7.48a.4.4,0,0,1,.1-.12H174a15.8,15.8,0,0,1-1.58,1.45c1.47,0,3-.09,4.34-.18l-.48-.47A.47.47,0,0,1,176.12,34.51Z"/><path class="cls-1" d="M34,23.3l-21.83-8a1.85,1.85,0,1,0-1.28,3.47l8,3H11.57a1.85,1.85,0,1,0,0,3.7H23.82v4.25a1.88,1.88,0,0,0,3.75,0V24.86l5.19,1.91a1.81,1.81,0,0,0,.64.12A1.85,1.85,0,0,0,34,23.3Z"/><path class="cls-1" d="M27.55,35.5a1.85,1.85,0,0,0-1.85-1.85H13.44V29.4a1.88,1.88,0,0,0-3.75,0v4.78L4.5,32.27a1.85,1.85,0,0,0-1.28,3.47l21.84,8a1.81,1.81,0,0,0,.64.12,1.85,1.85,0,0,0,.64-3.59l-8-3H25.7A1.85,1.85,0,0,0,27.55,35.5Z"/><path class="cls-1" d="M87.49,15.8A2.49,2.49,0,1,1,85,13.32,2.48,2.48,0,0,1,87.49,15.8Zm-.49,0a2,2,0,1,0-2,2A2,2,0,0,0,87,15.8Zm-.87-.6a.72.72,0,0,1-.52.78l.44.82a.27.27,0,0,1-.14.41.28.28,0,0,1-.42-.16l-.44-1h-.32v.86a.34.34,0,1,1-.67,0V14.64a.27.27,0,0,1,.28-.3h.48C85.69,14.33,86.13,14.6,86.13,15.2Zm-1.21.44c.39,0,.55-.14.55-.42s-.18-.43-.48-.44H84.8a.07.07,0,0,0-.07.08v.79Z"/><path class="cls-1" d="M57.49,37.18a.75.75,0,0,0-.55.22.79.79,0,0,0-.23.56v2.78a.78.78,0,0,0,.23.55.75.75,0,0,0,.55.22.73.73,0,0,0,.55-.23.74.74,0,0,0,.23-.54V38a.76.76,0,0,0-.23-.55A.71.71,0,0,0,57.49,37.18Z"/><path class="cls-1" d="M39.83,13.32V45.73H80.54V13.32Zm10.93,4a.8.8,0,0,1,.81-.8.82.82,0,0,1,.81.8v1.6a.07.07,0,0,0,0,.06h0l0,0,2.07-2.18a.81.81,0,0,1,.57-.25h0a.8.8,0,0,1,.56.23.78.78,0,0,1,.24.56.75.75,0,0,1-.22.58l-2,2.11a.07.07,0,0,0,0,.1l2.09,2.2a.81.81,0,1,1-1.17,1.12l-2-2.14,0,0,0,0-.12.13s0,0,0,.05v1.4a.82.82,0,0,1-.81.81.8.8,0,0,1-.58-.24.81.81,0,0,1-.23-.57Zm-2,25a2.2,2.2,0,0,1-3.12,0A2.1,2.1,0,0,1,45,40.73a.78.78,0,0,1,.24-.58.8.8,0,0,1,.57-.24c.51,0,.57.41.57.82a.82.82,0,1,0,.82-.82c-.31,0-.55,0-.69-.15a.72.72,0,0,1-.05-.77l.7-1.51a.09.09,0,0,0,0-.07.09.09,0,0,0-.07,0H45.79a.76.76,0,0,1-.58-.25.79.79,0,0,1-.23-.57.8.8,0,0,1,.81-.81h2.67a.76.76,0,0,1,.68.37.78.78,0,0,1,.06.78l-.86,1.87a.07.07,0,0,0,0,.09,2.27,2.27,0,0,1,.66.65,2.17,2.17,0,0,1,.37,1.22A2.11,2.11,0,0,1,48.74,42.28Zm.4-9.61a2.43,2.43,0,0,1-1.69.65A3.06,3.06,0,0,1,46,33a2.12,2.12,0,0,1-.89-.89.77.77,0,0,1,0-.83.76.76,0,0,1,.68-.37h.11a.72.72,0,0,1,.52.3l0,.05a.82.82,0,0,0,.35.34,1.73,1.73,0,0,0,.64.12c.26,0,.8-.14.81-.58s-.31-.56-.83-.57h-.16a2.41,2.41,0,0,1-1.83-.73,1.93,1.93,0,0,1-.54-1.43,2.24,2.24,0,0,1,.75-1.59,2.43,2.43,0,0,1,1.69-.65,3.06,3.06,0,0,1,1.48.36,2,2,0,0,1,.9.92.81.81,0,0,1-.22,1,.85.85,0,0,1-.5.16.83.83,0,0,1-.34-.07.86.86,0,0,1-.38-.36l0,0a.58.58,0,0,0-.27-.23,1.44,1.44,0,0,0-.64-.13c-.34,0-.81.18-.81.58s.56.57.89.57a2.5,2.5,0,0,1,1.93.75,1.9,1.9,0,0,1,.54,1.42A2.22,2.22,0,0,1,49.14,32.67Zm.32-9a.74.74,0,0,1-.44-.13l0,0a.52.52,0,0,1-.11-.1l-2-2.14-.05,0-.06,0-.12.13a0,0,0,0,0,0,0v1.43a.94.94,0,0,1-.05.3.81.81,0,0,1-.39.42.74.74,0,0,1-.36.09.78.78,0,0,1-.58-.24l0-.05,0,0a.76.76,0,0,1-.17-.5V17.29a.76.76,0,0,1,.13-.44l.1-.12a.74.74,0,0,1,.57-.24.84.84,0,0,1,.27,0,.79.79,0,0,1,.31.2.76.76,0,0,1,.18.26,1,1,0,0,1,.05.3v1.6a.06.06,0,0,0,0,.06h0l0,0,2.07-2.18a.79.79,0,0,1,.56-.25h0a.78.78,0,0,1,.48.17h0s0,0,0,0a.12.12,0,0,1,0,.05l0,0a.8.8,0,0,1,.18.49.86.86,0,0,1,0,.16.77.77,0,0,1-.21.42L48,20a.09.09,0,0,0,0,.1l2.1,2.2a.84.84,0,0,1,.22.58.79.79,0,0,1-.25.57A.78.78,0,0,1,49.46,23.66ZM54,42.28a2.11,2.11,0,0,1-1.55.65,2.13,2.13,0,0,1-1.56-.65,2.11,2.11,0,0,1-.65-1.55,2.16,2.16,0,0,1,.12-.71V40l.05-.14s0,0,0,0l1.24-3.52a.76.76,0,0,1,.42-.46.78.78,0,0,1,.62,0,.78.78,0,0,1,.46.41.75.75,0,0,1,0,.62l-.57,1.62a.13.13,0,0,0,0,.06.06.06,0,0,0,.06,0,2.18,2.18,0,0,1,1.3.64,2.2,2.2,0,0,1,0,3.11Zm-.13-14.53a.07.07,0,0,0-.07.07V32.5a.82.82,0,1,1-1.63,0V27.82a.07.07,0,0,0-.07-.07H51a.78.78,0,0,1-.58-.24.83.83,0,0,1,0-1.15.78.78,0,0,1,.58-.24h3.86a.82.82,0,0,1,0,1.63Zm5.86,13a2.15,2.15,0,0,1-.64,1.55,2.12,2.12,0,0,1-1.56.64,2.1,2.1,0,0,1-1.55-.64,2.12,2.12,0,0,1-.65-1.55V38a2.13,2.13,0,0,1,.65-1.56,2.1,2.1,0,0,1,1.55-.64,2.14,2.14,0,0,1,1.56.64A2.16,2.16,0,0,1,59.69,38ZM58,28.91h2a.77.77,0,0,1,.57.23.76.76,0,0,1,.25.58.78.78,0,0,1-.24.58.81.81,0,0,1-.58.23H58a.08.08,0,0,0-.07.08v1a.08.08,0,0,0,.07.08h2.47a.8.8,0,0,1,.58.24.79.79,0,0,1,.23.57.77.77,0,0,1-.24.58.8.8,0,0,1-.57.24H57.09a.76.76,0,0,1-.58-.25.78.78,0,0,1-.24-.57V26.94a.84.84,0,0,1,.82-.82h3.36a.78.78,0,0,1,.58.24.78.78,0,0,1,.23.58.82.82,0,0,1-.81.81H58a.05.05,0,0,0,0,0s0,0,0,0v1A.08.08,0,0,0,58,28.91Zm9.83,3.9a.78.78,0,0,1-.44.45.81.81,0,0,1-.31.06.77.77,0,0,1-.75-.51L66,32a.08.08,0,0,0-.07-.05H63.65a.08.08,0,0,0-.07.05l-.36.86a.84.84,0,0,1-.75.51.85.85,0,0,1-.31-.06.82.82,0,0,1-.44-.44.79.79,0,0,1,0-.62l.57-1.39,0,0L64,26.65a.82.82,0,0,1,1.49,0l1.74,4.19.56,1.35A.75.75,0,0,1,67.81,32.81Zm7.66-.31a.8.8,0,0,1-.24.57.78.78,0,0,1-.58.25.82.82,0,0,1-.81-.82V30.11a.09.09,0,0,0-.06-.07h0a.07.07,0,0,0-.06,0l-1,1.75a.82.82,0,0,1-.75.47.81.81,0,0,1-.75-.47L70.1,30.08A.08.08,0,0,0,70,30h0a.08.08,0,0,0-.05.07V32.5a.81.81,0,0,1-1.4.57.78.78,0,0,1-.23-.57V26.92a.8.8,0,0,1,.16-.49.85.85,0,0,1,.43-.29l.22,0a.8.8,0,0,1,.3.06.86.86,0,0,1,.4.33l2,3.3a.09.09,0,0,0,.07,0,.07.07,0,0,0,.06,0l2-3.3a.8.8,0,0,1,.7-.39.78.78,0,0,1,.22,0,.82.82,0,0,1,.6.78Z"/><path class="cls-1" d="M52.41,39.89a.82.82,0,0,0-.84.84.84.84,0,0,0,.84.84.84.84,0,0,0,.84-.84.8.8,0,0,0-.25-.6A.78.78,0,0,0,52.41,39.89Z"/><path class="cls-1" d="M64.9,29.08a.15.15,0,0,0-.14-.09.14.14,0,0,0-.13.09l-.55,1.32a.17.17,0,0,0,0,.14.16.16,0,0,0,.12.06h1.11a.14.14,0,0,0,.12-.06.17.17,0,0,0,0-.14Z"/></svg>