<svg width="65" height="65" viewBox="0 0 65 65" fill="none" xmlns="http://www.w3.org/2000/svg">
<circle cx="31.5" cy="32.5" r="30.5" fill="#C4C4C4"/>
<path fill-rule="evenodd" clip-rule="evenodd" d="M24.6667 27.3758C24.6667 25.5634 25.3866 23.8252 26.6681 22.5436C27.9496 21.2621 29.6877 20.5421 31.5 20.5421C33.3123 20.5421 35.0504 21.2621 36.3319 22.5436C37.6134 23.8252 38.3333 25.5634 38.3333 27.3758C38.3333 29.1882 37.6134 30.9263 36.3319 32.2079C35.0504 33.4895 33.3123 34.2094 31.5 34.2094C29.6877 34.2094 27.9496 33.4895 26.6681 32.2079C25.3866 30.9263 24.6667 29.1882 24.6667 27.3758V27.3758ZM38.0327 35.2738C39.6582 33.929 40.8292 32.1154 41.3858 30.0805C41.9425 28.0455 41.8578 25.8884 41.1432 23.9034C40.4286 21.9184 39.1189 20.2022 37.393 18.9891C35.667 17.776 33.6088 17.1251 31.4991 17.1251C29.3895 17.1251 27.3313 17.776 25.6053 18.9891C23.8793 20.2022 22.5697 21.9184 21.8551 23.9034C21.1405 25.8884 21.0558 28.0455 21.6125 30.0805C22.1691 32.1154 23.3401 33.929 24.9656 35.2738C19.5178 37.1923 16.125 41.4651 16.125 46.1683C16.125 46.6214 16.305 47.056 16.6254 47.3764C16.9457 47.6968 17.3803 47.8768 17.8333 47.8768C18.2864 47.8768 18.7209 47.6968 19.0413 47.3764C19.3617 47.056 19.5417 46.6214 19.5417 46.1683C19.5417 42.2902 23.5648 37.6263 31.5 37.6263C39.4352 37.6263 43.4583 42.2902 43.4583 46.1683C43.4583 46.6214 43.6383 47.056 43.9587 47.3764C44.2791 47.6968 44.7136 47.8768 45.1667 47.8768C45.6197 47.8768 46.0543 47.6968 46.3746 47.3764C46.695 47.056 46.875 46.6214 46.875 46.1683C46.875 41.4651 43.4857 37.1923 38.0327 35.2738Z" fill="black"/>
</svg>
