<svg width="80" height="80" viewBox="0 0 80 80" fill="none" xmlns="http://www.w3.org/2000/svg">
<path d="M43.3332 23.3334C43.3332 21.4925 41.8408 20.0001 39.9998 20.0001C38.1589 20.0001 36.6665 21.4925 36.6665 23.3334V40.0001C36.6665 41.841 38.1589 43.3334 39.9998 43.3334H53.3332C55.1741 43.3334 56.6665 41.841 56.6665 40.0001C56.6665 38.1591 55.1741 36.6668 53.3332 36.6668H43.3332V23.3334Z" fill="#252930"/>
<path fill-rule="evenodd" clip-rule="evenodd" d="M73.3332 40.0001C73.3332 58.4096 58.4093 73.3334 39.9998 73.3334C21.5903 73.3334 6.6665 58.4096 6.6665 40.0001C6.6665 21.5906 21.5903 6.66675 39.9998 6.66675C58.4093 6.66675 73.3332 21.5906 73.3332 40.0001ZM66.6665 40.0001C66.6665 54.7277 54.7274 66.6668 39.9998 66.6668C25.2722 66.6668 13.3332 54.7277 13.3332 40.0001C13.3332 25.2725 25.2722 13.3334 39.9998 13.3334C54.7274 13.3334 66.6665 25.2725 66.6665 40.0001Z" fill="#252930"/>
</svg>
