<svg width="80" height="80" viewBox="0 0 80 80" fill="none" xmlns="http://www.w3.org/2000/svg">
<path d="M48.7355 33.3333C51.9555 33.3333 54.5688 35.9467 54.5688 39.1667V54.9967C54.5688 58.9758 52.9881 62.792 50.1745 65.6056C47.3608 68.4193 43.5446 70 39.5655 70C35.5864 70 31.7702 68.4193 28.9565 65.6056C26.1429 62.792 24.5622 58.9758 24.5622 54.9967V39.1667C24.5622 35.9467 27.1722 33.3333 30.3955 33.3333H48.7355V33.3333ZM48.7355 38.3333H30.3955C30.1745 38.3333 29.9625 38.4211 29.8062 38.5774C29.65 38.7337 29.5622 38.9457 29.5622 39.1667V54.9967C29.5622 57.6497 30.6161 60.1941 32.4921 62.0701C34.3681 63.9461 36.9125 65 39.5655 65C42.2186 65 44.7629 63.9461 46.6389 62.0701C48.5149 60.1941 49.5688 57.6497 49.5688 54.9967V39.1667C49.5688 38.9457 49.481 38.7337 49.3248 38.5774C49.1685 38.4211 48.9565 38.3333 48.7355 38.3333V38.3333ZM12.0555 33.3333H23.3255C22.1495 34.7536 21.4313 36.4968 21.2655 38.3333H12.0555C11.8345 38.3333 11.6225 38.4211 11.4662 38.5774C11.31 38.7337 11.2222 38.9457 11.2222 39.1667V49.9967C11.222 51.2563 11.5072 52.4996 12.0564 53.6331C12.6056 54.7667 13.4046 55.7611 14.3933 56.5415C15.3819 57.322 16.5346 57.8683 17.7647 58.1394C18.9948 58.4105 20.2703 58.3993 21.4955 58.1067C21.7788 59.7867 22.2955 61.39 23.0055 62.88C21.0298 63.4086 18.9589 63.4756 16.9532 63.076C14.9474 62.6765 13.0603 61.8209 11.438 60.5756C9.81565 59.3302 8.50146 57.7284 7.59705 55.894C6.69263 54.0597 6.22221 52.0419 6.22217 49.9967V39.1667C6.22217 35.9467 8.8355 33.3333 12.0555 33.3333ZM55.8055 33.3333H67.0555C70.2755 33.3333 72.8888 35.9467 72.8888 39.1667V50C72.8893 52.0439 72.4199 54.0605 71.5168 55.8941C70.6137 57.7276 69.3012 59.329 67.6807 60.5746C66.0602 61.8201 64.175 62.6764 62.1708 63.0773C60.1666 63.4782 58.0971 63.413 56.1222 62.8867C56.8355 61.3933 57.3522 59.79 57.6388 58.11C58.8625 58.3992 60.1357 58.4077 61.363 58.135C62.5904 57.8623 63.7402 57.3154 64.7262 56.5352C65.7122 55.7551 66.5089 54.7619 67.0566 53.6301C67.6043 52.4984 67.8888 51.2573 67.8888 50V39.1667C67.8888 38.9457 67.801 38.7337 67.6448 38.5774C67.4885 38.4211 67.2765 38.3333 67.0555 38.3333H57.8655C57.6997 36.4968 56.9815 34.7536 55.8055 33.3333ZM39.5555 10C42.2077 10 44.7512 11.0536 46.6266 12.9289C48.5019 14.8043 49.5555 17.3478 49.5555 20C49.5555 22.6522 48.5019 25.1957 46.6266 27.0711C44.7512 28.9464 42.2077 30 39.5555 30C36.9033 30 34.3598 28.9464 32.4844 27.0711C30.6091 25.1957 29.5555 22.6522 29.5555 20C29.5555 17.3478 30.6091 14.8043 32.4844 12.9289C34.3598 11.0536 36.9033 10 39.5555 10V10ZM61.2222 13.3333C63.4323 13.3333 65.5519 14.2113 67.1147 15.7741C68.6775 17.3369 69.5555 19.4565 69.5555 21.6667C69.5555 23.8768 68.6775 25.9964 67.1147 27.5592C65.5519 29.122 63.4323 30 61.2222 30C59.012 30 56.8924 29.122 55.3296 27.5592C53.7668 25.9964 52.8888 23.8768 52.8888 21.6667C52.8888 19.4565 53.7668 17.3369 55.3296 15.7741C56.8924 14.2113 59.012 13.3333 61.2222 13.3333ZM17.8888 13.3333C20.099 13.3333 22.2186 14.2113 23.7814 15.7741C25.3442 17.3369 26.2222 19.4565 26.2222 21.6667C26.2222 23.8768 25.3442 25.9964 23.7814 27.5592C22.2186 29.122 20.099 30 17.8888 30C15.6787 30 13.5591 29.122 11.9963 27.5592C10.4335 25.9964 9.5555 23.8768 9.5555 21.6667C9.5555 19.4565 10.4335 17.3369 11.9963 15.7741C13.5591 14.2113 15.6787 13.3333 17.8888 13.3333V13.3333ZM39.5555 15C38.2294 15 36.9577 15.5268 36.02 16.4645C35.0823 17.4021 34.5555 18.6739 34.5555 20C34.5555 21.3261 35.0823 22.5979 36.02 23.5355C36.9577 24.4732 38.2294 25 39.5555 25C40.8816 25 42.1534 24.4732 43.091 23.5355C44.0287 22.5979 44.5555 21.3261 44.5555 20C44.5555 18.6739 44.0287 17.4021 43.091 16.4645C42.1534 15.5268 40.8816 15 39.5555 15ZM61.2222 18.3333C60.3381 18.3333 59.4903 18.6845 58.8651 19.3096C58.24 19.9348 57.8888 20.7826 57.8888 21.6667C57.8888 22.5507 58.24 23.3986 58.8651 24.0237C59.4903 24.6488 60.3381 25 61.2222 25C62.1062 25 62.9541 24.6488 63.5792 24.0237C64.2043 23.3986 64.5555 22.5507 64.5555 21.6667C64.5555 20.7826 64.2043 19.9348 63.5792 19.3096C62.9541 18.6845 62.1062 18.3333 61.2222 18.3333ZM17.8888 18.3333C17.0048 18.3333 16.1569 18.6845 15.5318 19.3096C14.9067 19.9348 14.5555 20.7826 14.5555 21.6667C14.5555 22.5507 14.9067 23.3986 15.5318 24.0237C16.1569 24.6488 17.0048 25 17.8888 25C18.7729 25 19.6207 24.6488 20.2459 24.0237C20.871 23.3986 21.2222 22.5507 21.2222 21.6667C21.2222 20.7826 20.871 19.9348 20.2459 19.3096C19.6207 18.6845 18.7729 18.3333 17.8888 18.3333Z" fill="#252930"/>
</svg>
