<svg width="40" height="40" viewBox="0 0 40 40" fill="none" xmlns="http://www.w3.org/2000/svg">
<circle cx="19.5" cy="19.5" r="17.5" fill="#403B31"/>
<path d="M19.5003 14.4527C16.7071 14.4527 14.4529 16.7069 14.4529 19.5001C14.4529 22.2932 16.7071 24.5474 19.5003 24.5474C22.2935 24.5474 24.5477 22.2932 24.5477 19.5001C24.5477 16.7069 22.2935 14.4527 19.5003 14.4527ZM19.5003 22.7805C17.694 22.7805 16.2199 21.3064 16.2199 19.5001C16.2199 17.6937 17.694 16.2196 19.5003 16.2196C21.3066 16.2196 22.7807 17.6937 22.7807 19.5001C22.7807 21.3064 21.3066 22.7805 19.5003 22.7805ZM24.7544 13.0696C24.1022 13.0696 23.5756 13.5963 23.5756 14.2484C23.5756 14.9006 24.1022 15.4272 24.7544 15.4272C25.4065 15.4272 25.9332 14.903 25.9332 14.2484C25.9334 14.0936 25.903 13.9402 25.8438 13.7971C25.7847 13.654 25.6979 13.524 25.5884 13.4145C25.4789 13.305 25.3488 13.2181 25.2057 13.159C25.0626 13.0998 24.9092 13.0694 24.7544 13.0696V13.0696ZM29.3391 19.5001C29.3391 18.1416 29.3514 16.7955 29.2751 15.4395C29.1988 13.8645 28.8395 12.4667 27.6878 11.315C26.5336 10.1608 25.1383 9.80397 23.5633 9.72768C22.2049 9.65139 20.8587 9.6637 19.5027 9.6637C18.1443 9.6637 16.7982 9.65139 15.4422 9.72768C13.8672 9.80397 12.4694 10.1633 11.3177 11.315C10.1635 12.4692 9.80665 13.8645 9.73037 15.4395C9.65408 16.798 9.66638 18.1441 9.66638 19.5001C9.66638 20.856 9.65408 22.2046 9.73037 23.5606C9.80665 25.1356 10.166 26.5334 11.3177 27.6851C12.4719 28.8393 13.8672 29.1962 15.4422 29.2724C16.8006 29.3487 18.1468 29.3364 19.5027 29.3364C20.8612 29.3364 22.2073 29.3487 23.5633 29.2724C25.1383 29.1962 26.5361 28.8369 27.6878 27.6851C28.842 26.531 29.1988 25.1356 29.2751 23.5606C29.3539 22.2046 29.3391 20.8585 29.3391 19.5001V19.5001ZM27.1735 25.303C26.9938 25.7508 26.7773 26.0855 26.4303 26.4301C26.0833 26.7771 25.7511 26.9936 25.3032 27.1733C24.0087 27.6876 20.935 27.5719 19.5003 27.5719C18.0656 27.5719 14.9894 27.6876 13.6949 27.1757C13.247 26.9961 12.9124 26.7795 12.5678 26.4325C12.2208 26.0855 12.0043 25.7533 11.8246 25.3054C11.3127 24.0085 11.4284 20.9348 11.4284 19.5001C11.4284 18.0653 11.3127 14.9892 11.8246 13.6947C12.0043 13.2468 12.2208 12.9121 12.5678 12.5676C12.9148 12.2231 13.247 12.004 13.6949 11.8244C14.9894 11.3125 18.0656 11.4282 19.5003 11.4282C20.935 11.4282 24.0112 11.3125 25.3056 11.8244C25.7535 12.004 26.0882 12.2206 26.4327 12.5676C26.7797 12.9146 26.9963 13.2468 27.176 13.6947C27.6878 14.9892 27.5722 18.0653 27.5722 19.5001C27.5722 20.9348 27.6878 24.0085 27.1735 25.303Z" fill="white"/>
</svg>
