<svg id="圖層_1" data-name="圖層 1" xmlns="http://www.w3.org/2000/svg" viewBox="0 0 2443 2500"><circle cx="1221.5" cy="1259.41" r="1221.5" style="fill:#fff"/><path d="M2254,1282.82c0-86.63-7-149.84-22.24-215.39H1242.57v391h580.62c-11.7,97.16-74.91,243.49-215.39,341.82l-2,13.09,312.76,242.29,21.67,2.16c199-183.79,313.72-454.2,313.72-774.95" style="fill:#4285f4"/><path d="M1242.57,2313c284.46,0,523.26-93.65,697.69-255.19L1607.8,1800.23c-89,62-208.37,105.35-365.23,105.35-278.6,0-515.07-183.78-599.36-437.8l-12.35,1L305.65,1720.51l-4.26,11.82C474.64,2076.49,830.51,2313,1242.57,2313" style="fill:#34a853"/><path d="M643.21,1467.78C621,1402.22,608.1,1332,608.1,1259.41S621,1116.59,642,1051l-.59-14L312.17,781.35l-10.78,5.12C230,929.29,189,1089.67,189,1259.41s41,330.11,112.37,472.92l341.82-264.55" style="fill:#fbbc05"/><path d="M1242.57,613.22c197.83,0,331.28,85.46,407.37,156.87l297.34-290.31C1764.67,310,1527,205.85,1242.57,205.85c-412.06,0-767.93,236.46-941.18,580.62L642,1051C727.5,797,964,613.22,1242.57,613.22" style="fill:#eb4335"/></svg>