<svg width="39" height="39" viewBox="0 0 39 39" fill="none" xmlns="http://www.w3.org/2000/svg">
<g clip-path="url(#clip0)">
<circle cx="19.5" cy="19.5" r="16.5" fill="white"/>
<path d="M36.3333 19.6667C36.3333 10.4667 28.8667 3 19.6667 3C10.4667 3 3 10.4667 3 19.6667C3 27.7333 8.73333 34.45 16.3333 36V24.6667H13V19.6667H16.3333V15.5C16.3333 12.2833 18.95 9.66667 22.1667 9.66667H26.3333V14.6667H23C22.0833 14.6667 21.3333 15.4167 21.3333 16.3333V19.6667H26.3333V24.6667H21.3333V36.25C29.75 35.4167 36.3333 28.3167 36.3333 19.6667Z" fill="#403B31"/>
</g>
<defs>
<clipPath id="clip0">
<rect width="40" height="40" fill="white" transform="translate(-1 -1)"/>
</clipPath>
</defs>
</svg>
