<svg width="40" height="40" viewBox="0 0 40 40" fill="none" xmlns="http://www.w3.org/2000/svg">
<circle cx="20.5" cy="20.5" r="17.5" fill="#403B31"/>
<g clip-path="url(#clip0)">
<path d="M26.0452 19.8796C26.1077 19.8774 26.17 19.8884 26.2284 19.9119C26.2869 19.9355 26.3402 19.9712 26.3852 20.0168C26.4302 20.0625 26.466 20.1172 26.4904 20.1776C26.5148 20.2381 26.5274 20.3031 26.5274 20.3688C26.5274 20.4346 26.5148 20.4996 26.4904 20.5601C26.466 20.6205 26.4302 20.6752 26.3852 20.7209C26.3402 20.7665 26.2869 20.8022 26.2284 20.8258C26.17 20.8493 26.1077 20.8603 26.0452 20.8581H24.75V21.7301H26.0452C26.1081 21.7269 26.171 21.7371 26.23 21.7601C26.289 21.7832 26.343 21.8186 26.3886 21.8642C26.4342 21.9098 26.4705 21.9647 26.4954 22.0255C26.5202 22.0863 26.533 22.1517 26.533 22.2178C26.533 22.284 26.5202 22.3494 26.4954 22.4102C26.4705 22.471 26.4342 22.5258 26.3886 22.5715C26.343 22.6171 26.289 22.6525 26.23 22.6755C26.171 22.6986 26.1081 22.7088 26.0452 22.7056H24.286C24.163 22.7051 24.0452 22.6535 23.9584 22.5621C23.8715 22.4707 23.8227 22.3469 23.8226 22.2178V18.5205C23.8226 18.2513 24.0302 18.0304 24.286 18.0304H26.0485C26.168 18.0369 26.2806 18.0914 26.363 18.1827C26.4453 18.2739 26.491 18.395 26.4906 18.5207C26.4903 18.6464 26.4439 18.7671 26.3611 18.8579C26.2782 18.9486 26.1653 19.0025 26.0457 19.0082H24.7506V19.8802L26.0452 19.8796ZM23.2024 22.2172C23.2014 22.3467 23.1517 22.4705 23.0642 22.5618C22.9767 22.653 22.8584 22.7043 22.7351 22.7044C22.6621 22.7052 22.5899 22.6881 22.5242 22.6545C22.4586 22.6209 22.4013 22.5717 22.3569 22.5108L20.5546 19.9372V22.2167C20.5546 22.346 20.5056 22.4701 20.4185 22.5616C20.3314 22.653 20.2132 22.7044 20.09 22.7044C19.9668 22.7044 19.8486 22.653 19.7615 22.5616C19.6744 22.4701 19.6254 22.346 19.6254 22.2167V18.5193C19.6254 18.3106 19.7556 18.1234 19.9427 18.0565C19.9889 18.0394 20.0377 18.0309 20.0867 18.0315C20.2306 18.0315 20.3635 18.1135 20.4527 18.2286L22.2694 20.8081V18.5193C22.2694 18.2501 22.477 18.0292 22.734 18.0292C22.9909 18.0292 23.2013 18.2501 23.2013 18.5193L23.2024 22.2172ZM18.9632 22.2172C18.9626 22.3469 18.9131 22.4711 18.8255 22.5625C18.7379 22.6539 18.6194 22.7052 18.4959 22.705C18.3733 22.7039 18.256 22.6521 18.1697 22.5607C18.0833 22.4694 18.0348 22.346 18.0346 22.2172V18.5199C18.0346 18.2507 18.2423 18.0298 18.4992 18.0298C18.7556 18.0298 18.9637 18.2507 18.9637 18.5199L18.9632 22.2172ZM17.1431 22.705H15.3807C15.2573 22.7047 15.139 22.6533 15.0515 22.562C14.964 22.4707 14.9144 22.3468 14.9134 22.2172V18.5199C14.9134 18.2507 15.1238 18.0298 15.3807 18.0298C15.6376 18.0298 15.8452 18.2507 15.8452 18.5199V21.7295H17.1431C17.2664 21.7295 17.3845 21.7809 17.4716 21.8724C17.5588 21.9638 17.6077 22.0879 17.6077 22.2172C17.6077 22.3466 17.5588 22.4707 17.4716 22.5621C17.3845 22.6536 17.2664 22.705 17.1431 22.705V22.705ZM29.4688 20.2273C29.4688 16.0642 25.4914 12.6761 20.6094 12.6761C15.7273 12.6761 11.75 16.0642 11.75 20.2273C11.75 23.9578 14.9023 27.0826 19.1587 27.6761C19.4471 27.7395 19.8392 27.8761 19.9405 28.1336C20.0296 28.3662 19.9981 28.7266 19.9693 28.9725L19.848 29.7626C19.8131 29.9957 19.6692 30.6805 20.621 30.2625C21.5756 29.8445 25.7284 27.1017 27.5883 24.8542C28.8602 23.3922 29.4688 21.8899 29.4688 20.2273Z" fill="white"/>
</g>
<defs>
<clipPath id="clip0">
<rect width="19.6875" height="19.6875" fill="white" transform="translate(11.75 12.4792)"/>
</clipPath>
</defs>
</svg>
