<svg width="35" height="35" viewBox="0 0 35 35" fill="none" xmlns="http://www.w3.org/2000/svg">
<g clip-path="url(#clip0)">
<circle cx="17.5" cy="17.5" r="13.5" fill="white"/>
<path d="M20.3053 17.2078L16.3748 15.3738C16.0318 15.2146 15.7501 15.3931 15.7501 15.7728V19.2273C15.7501 19.6071 16.0318 19.7856 16.3748 19.6263L20.3036 17.7923C20.6483 17.6313 20.6483 17.3688 20.3053 17.2078ZM17.5001 0.700073C8.22157 0.700073 0.700073 8.22157 0.700073 17.5001C0.700073 26.7786 8.22157 34.3001 17.5001 34.3001C26.7786 34.3001 34.3001 26.7786 34.3001 17.5001C34.3001 8.22157 26.7786 0.700073 17.5001 0.700073ZM17.5001 24.3251C8.90057 24.3251 8.75007 23.5498 8.75007 17.5001C8.75007 11.4503 8.90057 10.6751 17.5001 10.6751C26.0996 10.6751 26.2501 11.4503 26.2501 17.5001C26.2501 23.5498 26.0996 24.3251 17.5001 24.3251Z" fill="#403B31"/>
</g>
<defs>
<clipPath id="clip0">
<rect width="35" height="35" fill="white"/>
</clipPath>
</defs>
</svg>
