<svg width="40" height="40" viewBox="0 0 40 40" fill="none" xmlns="http://www.w3.org/2000/svg">
<path d="M16.3681 20.5906H14.2517V16.7482C14.2517 16.6296 14.154 16.532 14.0355 16.532H13.2579C13.1394 16.532 13.0417 16.6296 13.0417 16.7482V21.5843C13.0417 21.6436 13.0662 21.6959 13.101 21.7342C13.101 21.7342 13.101 21.7377 13.1045 21.7377L13.108 21.7412C13.1464 21.7795 13.1987 21.8005 13.2579 21.8005H16.3681C16.4867 21.8005 16.5843 21.7028 16.5843 21.5843V20.8067C16.5843 20.6847 16.4867 20.5906 16.3681 20.5906Z" fill="white"/>
<path d="M23.6068 16.532H22.8292C22.7107 16.532 22.6131 16.6296 22.6131 16.7482V19.6212L20.3955 16.6261C20.392 16.6192 20.385 16.6122 20.3781 16.6052C20.3746 16.6017 20.3711 16.5947 20.3641 16.5913L20.3606 16.5878C20.3571 16.5843 20.3537 16.5808 20.3502 16.5773C20.3467 16.5773 20.3467 16.5738 20.3432 16.5738C20.3397 16.5703 20.3362 16.5668 20.3327 16.5668C20.3292 16.5668 20.3292 16.5634 20.3258 16.5634C20.3223 16.5599 20.3188 16.5599 20.3153 16.5564C20.3118 16.5564 20.3118 16.5529 20.3083 16.5529C20.3048 16.5494 20.3014 16.5494 20.2944 16.5459C20.2909 16.5459 20.2909 16.5424 20.2874 16.5424C20.2839 16.5424 20.2804 16.539 20.2735 16.539C20.27 16.539 20.27 16.539 20.2665 16.5355C20.263 16.5355 20.2595 16.532 20.2525 16.532C20.2491 16.532 20.2456 16.532 20.2421 16.532C20.2386 16.532 20.2351 16.532 20.2316 16.532C20.2281 16.532 20.2246 16.532 20.2212 16.532C20.2177 16.532 20.2177 16.532 20.2142 16.532H19.4366C19.3181 16.532 19.2205 16.6296 19.2205 16.7482V21.5843C19.2205 21.7028 19.3181 21.8005 19.4366 21.8005H20.2142C20.3327 21.8005 20.4304 21.7028 20.4304 21.5843V18.7112L22.6514 21.7098C22.6654 21.7307 22.6863 21.7482 22.7072 21.7621C22.7072 21.7621 22.7072 21.7621 22.7107 21.7656C22.7142 21.7691 22.7212 21.7726 22.7246 21.7726C22.7281 21.7726 22.7281 21.7761 22.7316 21.7761C22.7351 21.7795 22.7386 21.7795 22.7421 21.7795C22.7456 21.7795 22.7491 21.783 22.7525 21.783C22.756 21.783 22.756 21.7865 22.7595 21.7865C22.763 21.79 22.77 21.79 22.7735 21.79H22.7769C22.7944 21.7935 22.8118 21.797 22.8327 21.797H23.6103C23.7288 21.797 23.8265 21.6993 23.8265 21.5808V16.7482C23.823 16.6261 23.7253 16.532 23.6068 16.532Z" fill="white"/>
<path d="M18.2441 16.532H17.4665C17.348 16.532 17.2504 16.6296 17.2504 16.7482V21.5843C17.2504 21.7028 17.348 21.8005 17.4665 21.8005H18.2441C18.3626 21.8005 18.4603 21.7028 18.4603 21.5843V16.7482C18.4603 16.6261 18.3626 16.532 18.2441 16.532Z" fill="white"/>
<path d="M27.9094 16.532H24.7992C24.7399 16.532 24.6876 16.5564 24.6493 16.5913C24.6493 16.5913 24.6458 16.5913 24.6458 16.5947L24.6423 16.5982C24.6039 16.6366 24.583 16.6889 24.583 16.7482V21.5843C24.583 21.6436 24.6074 21.6959 24.6423 21.7342L24.6458 21.7377L24.6493 21.7412C24.6876 21.7795 24.7399 21.8005 24.7992 21.8005H27.9094C28.0279 21.8005 28.1255 21.7028 28.1255 21.5843V20.8067C28.1255 20.6882 28.0279 20.5906 27.9094 20.5906H25.7929V19.7712H27.9094C28.0279 19.7712 28.1255 19.6735 28.1255 19.555V18.7774C28.1255 18.6589 28.0279 18.5613 27.9094 18.5613H25.7929V17.7419H27.9094C28.0279 17.7419 28.1255 17.6443 28.1255 17.5257V16.7482C28.1221 16.6261 28.0279 16.532 27.9094 16.532Z" fill="white"/>
<path d="M20.5 3C10.8347 3 3 10.8347 3 20.5C3 30.1653 10.8347 38 20.5 38C30.1653 38 38 30.1653 38 20.5C38.0035 10.8347 30.1653 3 20.5 3ZM29.2273 24.4749C26.8982 27.1562 21.689 30.4233 20.5035 30.9219C19.318 31.4205 19.4923 30.6046 19.5411 30.3222C19.569 30.1548 19.698 29.3703 19.698 29.3703C19.7364 29.0879 19.7748 28.6485 19.6632 28.3661C19.5377 28.0558 19.046 27.8954 18.6834 27.8187C13.3452 27.1144 9.3947 23.3835 9.3947 18.9275C9.3947 13.9589 14.3773 9.91423 20.5 9.91423C26.6227 9.91423 31.6053 13.9554 31.6053 18.9275C31.6053 20.9219 30.8347 22.7106 29.2273 24.4749Z" fill="white"/>
</svg>
