<svg id="圖層_1" data-name="圖層 1" xmlns="http://www.w3.org/2000/svg" viewBox="0 0 183.08 59"><defs><style>.cls-1{fill:#ff5722;}.cls-2{fill:#fff;}</style></defs><rect class="cls-1" x="39.48" y="13.32" width="40.71" height="32.41"/><path class="cls-2" d="M54.9,23.57a.71.71,0,0,1-.52-.22l-2-2.14a.18.18,0,0,0-.13-.06h0a.16.16,0,0,0-.12.06l-.12.12a.17.17,0,0,0,0,.12v1.4a.73.73,0,0,1-.72.72.68.68,0,0,1-.51-.22.66.66,0,0,1-.2-.5V17.29a.68.68,0,0,1,.2-.5.71.71,0,0,1,.51-.21.72.72,0,0,1,.72.71v1.6A.16.16,0,0,0,52,19h.06a.21.21,0,0,0,.13-.05l2.06-2.17a.69.69,0,0,1,.5-.23h0a.74.74,0,0,1,.5.2.69.69,0,0,1,.21.5.68.68,0,0,1-.19.51l-2,2.11a.17.17,0,0,0,0,.23l2.1,2.21a.68.68,0,0,1,.19.51.65.65,0,0,1-.22.5A.7.7,0,0,1,54.9,23.57Z"/><path class="cls-2" d="M49.11,23.57a.7.7,0,0,1-.51-.22l-2-2.14a.14.14,0,0,0-.12-.06h0a.16.16,0,0,0-.12.06l-.12.12a.18.18,0,0,0-.05.12v1.4a.66.66,0,0,1-.2.5.68.68,0,0,1-.51.22.73.73,0,0,1-.72-.72V17.29a.72.72,0,0,1,.72-.71.71.71,0,0,1,.51.21.68.68,0,0,1,.2.5v1.6a.17.17,0,0,0,.11.15h.06a.17.17,0,0,0,.12-.05l2.07-2.17a.69.69,0,0,1,.5-.23h0a.72.72,0,0,1,.71.7.65.65,0,0,1-.2.51l-2,2.11a.17.17,0,0,0,0,.23l2.09,2.21a.71.71,0,0,1,0,1A.7.7,0,0,1,49.11,23.57Z"/><path class="cls-2" d="M47.11,33.22a3,3,0,0,1-1.44-.34,2,2,0,0,1-.85-.85A.72.72,0,0,1,45.45,31h.09a.62.62,0,0,1,.46.26l0,.06a1,1,0,0,0,.4.37,1.91,1.91,0,0,0,.68.13c.29,0,.89-.17.89-.68s-.33-.65-.91-.67h-.16a2.37,2.37,0,0,1-1.77-.7,1.84,1.84,0,0,1-.51-1.36,2.15,2.15,0,0,1,.72-1.53A2.33,2.33,0,0,1,47,26.23a3,3,0,0,1,1.44.34,2,2,0,0,1,.86.88.72.72,0,0,1-.63,1,.85.85,0,0,1-.31-.06A1,1,0,0,1,48,28.1l0,0a.7.7,0,0,0-.31-.26,1.59,1.59,0,0,0-.68-.14c-.37,0-.9.21-.9.68s.36.67,1,.67a2.44,2.44,0,0,1,1.87.71,1.81,1.81,0,0,1,.51,1.36,2.13,2.13,0,0,1-.72,1.52A2.34,2.34,0,0,1,47.11,33.22Z"/><path class="cls-2" d="M52.6,33.22a.69.69,0,0,1-.51-.2.72.72,0,0,1-.21-.52V27.82a.18.18,0,0,0-.17-.17h-1a.69.69,0,0,1-.51-.21.71.71,0,0,1,0-1,.67.67,0,0,1,.51-.22h3.86a.68.68,0,0,1,.51.22.71.71,0,0,1,0,1,.71.71,0,0,1-.51.21h-1a.17.17,0,0,0-.17.17V32.5a.73.73,0,0,1-.21.52A.69.69,0,0,1,52.6,33.22Z"/><path class="cls-2" d="M56.74,33.22a.69.69,0,0,1-.51-.21A.72.72,0,0,1,56,32.5V26.94a.65.65,0,0,1,.22-.51.68.68,0,0,1,.5-.22H60.1a.67.67,0,0,1,.51.22.69.69,0,0,1,.21.51.71.71,0,0,1-.21.51.74.74,0,0,1-.51.21H57.63a.16.16,0,0,0-.11.05.13.13,0,0,0-.05.12v1a.17.17,0,0,0,.16.17h2a.73.73,0,0,1,.51.2.74.74,0,0,1,.22.52.67.67,0,0,1-.22.51.69.69,0,0,1-.51.21h-2a.16.16,0,0,0-.16.17v1a.17.17,0,0,0,.16.17H60.1a.69.69,0,0,1,.51.21.71.71,0,0,1,.21.51.68.68,0,0,1-.21.51.69.69,0,0,1-.51.21Z"/><path class="cls-2" d="M66.71,33.22a.67.67,0,0,1-.66-.44l-.36-.87a.18.18,0,0,0-.15-.1H63.3a.15.15,0,0,0-.15.1l-.36.87a.75.75,0,0,1-.67.44.86.86,0,0,1-.27,0,.68.68,0,0,1-.39-.39.7.7,0,0,1,0-.55L62,30.85l0,0,1.71-4.12a.73.73,0,0,1,1.32,0l1.73,4.18v0l.56,1.35a.72.72,0,0,1-.39.94A.66.66,0,0,1,66.71,33.22ZM64.42,29a.17.17,0,0,0-.16.11l-.55,1.32a.18.18,0,0,0,0,.16.16.16,0,0,0,.14.08H65a.16.16,0,0,0,.14-.08.18.18,0,0,0,0-.16l-.56-1.32a.15.15,0,0,0-.15-.11Z"/><path class="cls-2" d="M74.31,33.22A.69.69,0,0,1,73.8,33a.69.69,0,0,1-.22-.51V30.11a.17.17,0,0,0-.12-.16h0a.18.18,0,0,0-.15.08l-1,1.74v0a.72.72,0,0,1-.66.41.73.73,0,0,1-.66-.41v0l-1-1.74a.17.17,0,0,0-.14-.08h0a.17.17,0,0,0-.12.16V32.5a.69.69,0,0,1-.22.51.69.69,0,0,1-.51.21.72.72,0,0,1-.72-.72V26.92a.68.68,0,0,1,.15-.43.71.71,0,0,1,.38-.26.69.69,0,0,1,.2,0,.85.85,0,0,1,.26.05.69.69,0,0,1,.35.3l2,3.29a.15.15,0,0,0,.28,0l2-3.29a.67.67,0,0,1,.36-.3.75.75,0,0,1,.26-.05l.19,0a.67.67,0,0,1,.38.26.68.68,0,0,1,.15.43V32.5a.72.72,0,0,1-.72.72Z"/><path class="cls-2" d="M46.84,42.84a2.12,2.12,0,0,1-2.12-2.11.65.65,0,0,1,.22-.51.67.67,0,0,1,.5-.21c.34,0,.48.2.48.72a.92.92,0,1,0,.92-.91c-.29,0-.52,0-.63-.12s-.07-.57,0-.67l.7-1.51a.18.18,0,0,0,0-.16.17.17,0,0,0-.14-.08H45.44a.69.69,0,0,1-.51-.21.74.74,0,0,1-.21-.51.73.73,0,0,1,.72-.72h2.67a.7.7,0,0,1,.61.33.71.71,0,0,1,.05.69l-.86,1.87a.16.16,0,0,0,.06.21,2.12,2.12,0,0,1-1.13,3.9Z"/><path class="cls-2" d="M52.06,42.84A2.12,2.12,0,0,1,50,40.73a2.2,2.2,0,0,1,.11-.68v0h0l0-.14,0,0,1.24-3.52a.69.69,0,0,1,.37-.4.62.62,0,0,1,.55,0,.66.66,0,0,1,.41.36.75.75,0,0,1,0,.55l-.57,1.61a.16.16,0,0,0,0,.15.17.17,0,0,0,.12.08,2,2,0,0,1,1.24.61,2.11,2.11,0,0,1-1.49,3.6Zm0-3a.89.89,0,0,0-.65.27.92.92,0,0,0,.65,1.56.89.89,0,0,0,.65-.27.86.86,0,0,0,.26-.64.9.9,0,0,0-.91-.92Z"/><path class="cls-2" d="M57.14,42.84a2,2,0,0,1-1.48-.62A2,2,0,0,1,55,40.74V38a2,2,0,0,1,.62-1.49,2,2,0,0,1,1.48-.62A2.12,2.12,0,0,1,59.25,38v2.78a2.12,2.12,0,0,1-2.11,2.1Zm0-5.8a.92.92,0,0,0-.92.92v2.78a.85.85,0,0,0,.27.64.89.89,0,0,0,.65.27.93.93,0,0,0,.66-.27.89.89,0,0,0,.27-.64V38a1,1,0,0,0-.27-.66A1,1,0,0,0,57.14,37Z"/><path class="cls-1" d="M33.7,23.3l-21.84-8a1.85,1.85,0,0,0-1.28,3.47l8,3H11.22a1.85,1.85,0,1,0,0,3.7H23.48v4.25a1.88,1.88,0,0,0,3.75,0V24.86l5.19,1.91a1.77,1.77,0,0,0,.64.12,1.85,1.85,0,0,0,.64-3.59Z"/><path class="cls-1" d="M27.2,35.5a1.85,1.85,0,0,0-1.85-1.85H13.1V29.4a1.88,1.88,0,0,0-3.75,0v4.78L4.16,32.27a1.85,1.85,0,1,0-1.28,3.47l21.83,8a1.81,1.81,0,0,0,.64.12A1.85,1.85,0,0,0,26,40.31l-8-3h7.39A1.85,1.85,0,0,0,27.2,35.5Z"/><path class="cls-1" d="M87.14,15.8a2.49,2.49,0,1,1-2.48-2.48A2.48,2.48,0,0,1,87.14,15.8Zm-.49,0a2,2,0,1,0-2,2A2,2,0,0,0,86.65,15.8Zm-.87-.6a.72.72,0,0,1-.52.78l.44.82a.28.28,0,0,1-.14.42.29.29,0,0,1-.42-.17l-.44-1h-.32v.86a.34.34,0,1,1-.67,0V14.64a.27.27,0,0,1,.28-.3h.49C85.34,14.33,85.79,14.6,85.78,15.2Zm-1.21.44c.39,0,.55-.14.55-.42s-.18-.43-.48-.44h-.19a.07.07,0,0,0-.07.08v.79Z"/><path class="cls-1" d="M104,27.47c-.48.66-1.14.69-1.84.12-.92-.76-2.25-1.76-3.41-2.59a.61.61,0,0,1-.22-.88.59.59,0,0,1,.38-.28H96.18a1.38,1.38,0,0,1,.38.25,1,1,0,0,1-.21,1.67A13,13,0,0,1,91.68,28c-.39.08-.62,0-.73-.33a.59.59,0,0,1,.29-.79,15.64,15.64,0,0,0,3.56-2.6,2,2,0,0,1,.61-.42H93.58a1,1,0,0,1-1.07-1.05v-7.7A1,1,0,0,1,93.58,14h8.09a1,1,0,0,1,1.07,1.05v7.7a1,1,0,0,1-1.07,1.05H99.28a.42.42,0,0,0,.13,0,21,21,0,0,1,4.16,1.88A1.09,1.09,0,0,1,104,27.47ZM94.71,16.9h5.83V15.49a.18.18,0,0,0-.19-.18H94.9a.18.18,0,0,0-.19.18Zm0,2.79h5.83V18.13H94.71Zm.19,2.88h5.45a.18.18,0,0,0,.19-.18V20.91H94.71v1.48A.18.18,0,0,0,94.9,22.57Z"/><path class="cls-1" d="M118.06,21a9.65,9.65,0,0,1-1.16-.7.94.94,0,0,1,.24.71v2a.85.85,0,0,1-.94,1h-.08c.45.34.47.79.06,1.32a11.88,11.88,0,0,1-.91,1.08h3.67a.62.62,0,1,1,0,1.24H106.7a.62.62,0,0,1,0-1.24h3.64a12.44,12.44,0,0,0-1-1.69.55.55,0,0,1,0-.71.85.85,0,0,1-.86-1V21a.55.55,0,0,1,0-.18,11.41,11.41,0,0,1-2,.86.47.47,0,0,1-.67-.29c-.11-.28,0-.48.31-.65a9.28,9.28,0,0,0,2.91-2.22,14.52,14.52,0,0,0-1.58-1.89.46.46,0,0,1,0-.65.48.48,0,0,1,.63-.12,9.13,9.13,0,0,1,2,1.24,9.41,9.41,0,0,0,.62-1.46c0-.14,0-.22-.15-.22h-2.9a.58.58,0,1,1,0-1.16h3.15a1.36,1.36,0,0,1,1.48-.26,1.16,1.16,0,0,1,.61,1.58,8.94,8.94,0,0,1-1,2.18h2.59a11.33,11.33,0,0,1-1.68-3.82.48.48,0,0,1,.38-.61.5.5,0,0,1,.62.33,12.48,12.48,0,0,0,.61,1.27,7.37,7.37,0,0,0,.56-.9.83.83,0,0,1,1.37-.29.79.79,0,0,1,.09,1.39,10.06,10.06,0,0,1-1.24,1,9.94,9.94,0,0,0,.82.9,14.79,14.79,0,0,0,.88-1.24.85.85,0,0,1,1.37-.29.8.8,0,0,1,.06,1.39,9.77,9.77,0,0,1-1.29,1,10.54,10.54,0,0,0,2.09,1.08,1.09,1.09,0,0,1,.69,1.63A1.11,1.11,0,0,1,118.06,21Zm-1.33-.82a9.41,9.41,0,0,1-1.37-1.23h-4.44a11.2,11.2,0,0,1-1.26,1.12h6.54A1.09,1.09,0,0,1,116.73,20.16Zm-2,3.76H110.4a9,9,0,0,1,1.43,1.24c.42.42.51.8.28,1.16h1.52a14.93,14.93,0,0,0,.88-2A1.13,1.13,0,0,1,114.71,23.92Zm.22-2.51a.18.18,0,0,0-.19-.19h-3.87a.18.18,0,0,0-.19.19v1.15a.18.18,0,0,0,.19.18h3.87a.18.18,0,0,0,.19-.18Z"/><path class="cls-1" d="M121.51,20a.51.51,0,0,1,0-.7,14.36,14.36,0,0,0,2.32-4.92,1,1,0,0,1,1.33-.79c.68.17.92.71.59,1.48a12.36,12.36,0,0,1-.73,1.57v5.5c0,.65-.35,1-1,1s-1-.31-1-1V19.29a8.34,8.34,0,0,1-.82.69A.44.44,0,0,1,121.51,20Zm13.59,7a.56.56,0,0,1-.59.64H122.27a.56.56,0,0,1-.59-.64.57.57,0,0,1,.59-.65h4.85v-1h-3.55a.56.56,0,0,1-.59-.63.53.53,0,0,1,.59-.59h3.55v-.42c0-.73.4-1.05,1.15-1.05s1.13.32,1.13,1.05v.42h3.75a.53.53,0,0,1,.58.59.55.55,0,0,1-.58.63H129.4v1h5.11A.57.57,0,0,1,135.1,26.92ZM129,18.25V17.6h-1.75a.86.86,0,0,1-1-1V15.06a.86.86,0,0,1,1-1h5.39c.7,0,1,.34,1,1v1.59a.85.85,0,0,1-.94,1h-1.64v.65h3a.53.53,0,0,1,.59.57.55.55,0,0,1-.59.61h-2.5A8.23,8.23,0,0,0,134,20.62c.65.22.89.7.62,1.24a1,1,0,0,1-1.42.45,6.83,6.83,0,0,1-2.12-1.75v1.19c0,.67-.38,1-1,1s-1-.31-1-1V20.6a8.48,8.48,0,0,1-3,1.94.45.45,0,0,1-.64-.22.49.49,0,0,1,.21-.66,8.31,8.31,0,0,0,2.46-2.23h-2a.55.55,0,0,1-.59-.61.53.53,0,0,1,.59-.57Zm2.46-1.8a.18.18,0,0,0,.19-.18v-.84a.18.18,0,0,0-.19-.19h-3a.18.18,0,0,0-.18.19v.84a.17.17,0,0,0,.18.18Z"/><path class="cls-1" d="M92.31,42.63a4.24,4.24,0,0,0,2.75,1.09c1.18,0,1.91-.54,1.93-1.46s-.35-1.48-2.37-2.54c-2.55-1.37-3.7-2.4-3.68-4.17,0-2,1.75-3.23,4.45-3.23a5.49,5.49,0,0,1,3.52,1,1.08,1.08,0,0,1,.23,1.43.91.91,0,0,1-1.42.17,3.49,3.49,0,0,0-2.37-.76c-1,0-1.67.47-1.67,1.16s.33,1.39,2.37,2.44c2.66,1.4,3.72,2.46,3.72,4.17,0,2.28-1.74,3.65-4.59,3.65a5.72,5.72,0,0,1-4-1.34A1.09,1.09,0,0,1,91,42.8.9.9,0,0,1,92.31,42.63Z"/><path class="cls-1" d="M111,33.48a.8.8,0,0,1-.89.91h-2.9v9.92a1.18,1.18,0,0,1-1.34,1.29,1.17,1.17,0,0,1-1.32-1.29V34.39h-2.9a.91.91,0,0,1,0-1.81h8.46A.8.8,0,0,1,111,33.48Z"/><path class="cls-1" d="M119.93,45.34h-5.77A1.24,1.24,0,0,1,112.8,44v-10a1.22,1.22,0,0,1,1.36-1.36h5.66a.9.9,0,0,1,0,1.79h-4.18a.18.18,0,0,0-.18.17v3.31h3.84a.79.79,0,0,1,.87.88.81.81,0,0,1-.87.91h-3.84v3.72a.18.18,0,0,0,.18.19h4.29a.78.78,0,0,1,.87.88A.8.8,0,0,1,119.93,45.34Z"/><path class="cls-1" d="M132.51,45.49a1.19,1.19,0,0,1-1.7-.85l-.94-3.21h-4.21l-1,3.26a1.07,1.07,0,0,1-1.49.82,1.09,1.09,0,0,1-.77-1.55l3.46-10.09a1.92,1.92,0,0,1,2-1.55,2.14,2.14,0,0,1,2.15,1.55c1,2.72,2.33,6.62,3.37,10C133.57,44.68,133.31,45.27,132.51,45.49Zm-3.16-5.82c-.49-1.63-1-3.27-1.46-4.85h-.14l-1.53,4.85Z"/><path class="cls-1" d="M146.18,44.33V38.47a21.9,21.9,0,0,1,.26-2.48l-.13,0a61.32,61.32,0,0,1-2.88,7.6c-.33.78-.7,1.11-1.41,1.11a1.58,1.58,0,0,1-1.53-1.11c-.87-2-2.08-5-3-7.62l-.13,0a20.86,20.86,0,0,1,.21,2.49v5.89a1.22,1.22,0,1,1-2.43,0V34.2a1.64,1.64,0,0,1,1.74-1.86c.94,0,1.39.41,1.86,1.56,1,2.35,2.43,6.08,3.21,8.07h.06c.74-2,2.06-5.64,2.95-8.1.4-1.13.94-1.57,2-1.55s1.64.62,1.64,1.82V44.33a1.25,1.25,0,1,1-2.5,0Z"/><path class="cls-1" d="M156.62,42.66v1.59c0,1.68-1.61,2.31-4,1.27a.52.52,0,0,1-.32-.63c.06-.28.29-.4.63-.37,1.46.14,1.71-.05,1.71-.61V43.2c-.65.14-1.33.28-2,.39s-1.05-.14-1.14-.75.17-1,.88-1,1.52-.16,2.28-.27V40.8c0-.56.35-.88,1-.88h.27a4.43,4.43,0,0,0,.56-.82c.07-.12,0-.22-.13-.22h-.76a13.32,13.32,0,0,1-3.41,2.2.53.53,0,0,1-.74-.18.52.52,0,0,1,.22-.75,17.83,17.83,0,0,0,1.75-1.27h-.56a.57.57,0,1,1,0-1.14h1.8a11.3,11.3,0,0,0,.79-.9H152a.59.59,0,1,1,0-1.18h2V34.42h-1.3a.53.53,0,0,1-.58-.58.52.52,0,0,1,.58-.57H154v-.84c0-.6.34-.9,1-.9s1,.3,1,.9v.84H157a.62.62,0,0,1,.36.09l.23-.62a.92.92,0,0,1,1.3-.63c.61.21.76.71.5,1.33a15.12,15.12,0,0,1-1.15,2.23h.61a.59.59,0,1,1,0,1.18h-1.41l-.75.9h.7c1.09,0,1.24.86.67,1.55a7,7,0,0,1-1.47,1.33,1.21,1.21,0,0,1,0,.2v.4c.65-.12,1.27-.25,1.83-.38a.48.48,0,0,1,.68.26.52.52,0,0,1-.31.71A14.91,14.91,0,0,1,156.62,42.66Zm-.65-7h.26c.25-.4.48-.82.7-1.25h-1Zm9.16,9.76a1.11,1.11,0,0,1-1.82.12,8.44,8.44,0,0,1-1.59-2.06A8.8,8.8,0,0,1,158,45.94c-.35.14-.59.06-.73-.22s0-.54.27-.72A9.07,9.07,0,0,0,161,41.76a15.48,15.48,0,0,1-.73-3.41,7.76,7.76,0,0,1-.79,1,.51.51,0,0,1-.71.13.54.54,0,0,1-.16-.73,17.32,17.32,0,0,0,1.55-6.37c.08-.69.51-1,1.23-.9s1,.49.88,1.2a14.13,14.13,0,0,1-.36,1.81h2.81a.56.56,0,0,1,.62.62.55.55,0,0,1-.62.6h-.34a13.5,13.5,0,0,1-1.46,6.08,9,9,0,0,0,1.94,1.9A1.1,1.1,0,0,1,165.13,45.43Zm-3.35-5.62a15.7,15.7,0,0,0,.54-4.05h-.83c-.13.36-.27.7-.42,1A12.75,12.75,0,0,0,161.78,39.81Z"/><path class="cls-1" d="M179.66,34.39H176.5a12.61,12.61,0,0,1,3,1.81.88.88,0,0,1,.15,1.45.9.9,0,0,1-1.48-.09c-.27-.32-.56-.65-.86-.94a53,53,0,0,1-8.66,1c-.57,0-1-.25-1-.9a.8.8,0,0,1,.93-.88h1.67a13,13,0,0,0,.84-1.48H167.5a.64.64,0,1,1,0-1.28h4.89v-.65c0-.66.42-1,1.19-1s1.2.32,1.2,1v.65h4.88a.64.64,0,0,1,0,1.28Zm-1.2,4.52v5.3c0,1.76-1.68,2.3-4.09,1.31a.53.53,0,0,1-.34-.65c.07-.29.24-.42.61-.38,1.5.14,1.7,0,1.7-.7v-.64H171v1.92c0,.64-.37,1-1.07,1s-1.06-.32-1.06-1V38.91a.85.85,0,0,1,.94-.95h7.68A.86.86,0,0,1,178.46,38.91Zm-7.45.43V40h5.33v-.65a.17.17,0,0,0-.18-.18h-5A.18.18,0,0,0,171,39.34ZM176.34,42v-.85H171V42Zm-.57-7.48a.32.32,0,0,1,.11-.12h-2.26A18.36,18.36,0,0,1,172,35.84c1.47,0,3-.09,4.33-.18-.17-.17-.32-.33-.48-.47A.47.47,0,0,1,175.77,34.51Z"/></svg>