<svg id="icon-fb" xmlns="http://www.w3.org/2000/svg" width="33.459" height="33.584" viewBox="0 0 33.459 33.584">
  <rect id="Rectangle_2310" data-name="Rectangle 2310" width="33.459" height="33.459" transform="translate(0 0)" fill="#6c6f73"/>
  <g id="icon-fb-2" data-name="icon-fb" transform="matrix(1, 0.017, -0.017, 1, 10.261, 6.754)">
    <path id="Path_3046" data-name="Path 3046" d="M8.906,14.295h4.329l.68-4.4H8.905v-2.4c0-1.827.6-3.447,2.306-3.447h2.746V.208A23.328,23.328,0,0,0,10.526,0C6.5,0,4.139,2.126,4.139,6.971V9.9H0v4.4H4.139V26.383a16.763,16.763,0,0,0,2.5.207,16.839,16.839,0,0,0,2.265-.171Z" transform="translate(0 0)" fill="#fff"/>
  </g>
</svg>
