<svg id="icon-line" xmlns="http://www.w3.org/2000/svg" xmlns:xlink="http://www.w3.org/1999/xlink" width="33.459" height="33.459" viewBox="0 0 33.459 33.459">
  <defs>
    <clipPath id="clip-path">
      <rect id="Rectangle_1974" data-name="Rectangle 1974" width="32.715" height="32.715" fill="none"/>
    </clipPath>
  </defs>
  <rect id="icon-line-2" data-name="icon-line" width="33.459" height="33.459" transform="translate(0)" fill="#6c6f73"/>
  <g id="Group_1489" data-name="Group 1489" transform="translate(0.744 0.744)" clip-path="url(#clip-path)">
    <path id="Path_3047" data-name="Path 3047" d="M32.715,16.358A16.358,16.358,0,1,1,16.358,0,16.358,16.358,0,0,1,32.715,16.358" fill="#6c6f73"/>
    <path id="Path_3048" data-name="Path 3048" d="M21.84,8.862C21.84,3.976,16.942,0,10.92,0S0,3.976,0,8.862c0,4.381,3.885,8.049,9.133,8.743.356.077.84.235.962.539a2.244,2.244,0,0,1,.035.987s-.128.771-.156.935c-.048.276-.22,1.08.946.589a35.259,35.259,0,0,0,8.58-6.34h0A7.885,7.885,0,0,0,21.84,8.862" transform="translate(5.426 6.543)" fill="#fff"/>
    <path id="Path_3049" data-name="Path 3049" d="M3.277,5.183a.209.209,0,0,0,.208-.208V4.2a.209.209,0,0,0-.208-.208H1.191v-.8H3.277a.209.209,0,0,0,.208-.209V2.2A.209.209,0,0,0,3.277,2H1.191v-.8H3.277A.209.209,0,0,0,3.485.983V.209A.209.209,0,0,0,3.277,0H.208A.208.208,0,0,0,0,.209v0H0V4.971H0v0a.208.208,0,0,0,.208.208H3.277Z" transform="translate(20.357 13.044)" fill="#6c6f73"/>
    <path id="Path_3050" data-name="Path 3050" d="M3.277,5.183a.208.208,0,0,0,.208-.208V4.2a.209.209,0,0,0-.208-.208H1.191V.209A.209.209,0,0,0,.983,0H.209A.209.209,0,0,0,0,.209V4.971H0v0a.208.208,0,0,0,.209.208H3.277Z" transform="translate(9.009 13.044)" fill="#6c6f73"/>
    <path id="Path_3051" data-name="Path 3051" d="M.983,0H.209A.209.209,0,0,0,0,.208V4.974a.209.209,0,0,0,.209.208H.983a.208.208,0,0,0,.208-.208V.208A.208.208,0,0,0,.983,0" transform="translate(13.149 13.044)" fill="#6c6f73"/>
    <path id="Path_3052" data-name="Path 3052" d="M4.319,0H3.545a.209.209,0,0,0-.209.208V3.039L1.156.094A.2.2,0,0,0,1.139.073v0L1.125.058l0,0L1.11.045,1.1.041,1.093.033l-.006,0L1.075.023l-.007,0L1.056.015l-.007,0-.013,0-.007,0L1.017,0H.208A.208.208,0,0,0,0,.208V4.974a.208.208,0,0,0,.208.208H.983a.208.208,0,0,0,.208-.208V2.145L3.375,5.093a.212.212,0,0,0,.054.053l0,0,.013.008.006,0,.01,0,.01,0,.007,0,.014,0h0a.218.218,0,0,0,.054.007h.77a.208.208,0,0,0,.208-.208V.208A.208.208,0,0,0,4.319,0" transform="translate(15.085 13.044)" fill="#6c6f73"/>
  </g>
</svg>
