<svg id="icon-phone" xmlns="http://www.w3.org/2000/svg" width="70" height="70" viewBox="0 0 70 70">
  <path id="Path_4433" data-name="Path 4433" d="M0,0H70V70H0Z" fill="none"/>
  <path id="Path_4434" data-name="Path 4434" d="M39.222,30.167h6.037A15.1,15.1,0,0,0,30.167,15.074v6.037A9.043,9.043,0,0,1,39.222,30.167Zm12.074,0h6.037A27.169,27.169,0,0,0,30.167,3V9.037A21.114,21.114,0,0,1,51.3,30.167Zm3.019,10.565a34.291,34.291,0,0,1-10.776-1.721,3.366,3.366,0,0,0-.936-.151,3.092,3.092,0,0,0-2.143.875l-6.641,6.641A45.415,45.415,0,0,1,13.927,26.484l6.641-6.671a2.9,2.9,0,0,0,.755-3.019A34.291,34.291,0,0,1,19.6,6.019,3.027,3.027,0,0,0,16.583,3H6.019A3.027,3.027,0,0,0,3,6.019,51.31,51.31,0,0,0,54.315,57.333a3.027,3.027,0,0,0,3.019-3.019V43.75A3.027,3.027,0,0,0,54.315,40.731ZM9.128,9.037h4.528a41.614,41.614,0,0,0,1.358,7.788l-3.622,3.652A46.327,46.327,0,0,1,9.128,9.037ZM51.3,51.206a44.981,44.981,0,0,1-11.47-2.294l3.622-3.622A38.494,38.494,0,0,0,51.3,46.648Z" transform="translate(4.833 4.833)" fill="#ff7e00"/>
</svg>
