<svg xmlns="http://www.w3.org/2000/svg" xmlns:xlink="http://www.w3.org/1999/xlink" width="80" height="65.924" viewBox="0 0 80 65.924">
  <defs>
    <clipPath id="clip-path">
      <rect id="Rectangle_939" data-name="Rectangle 939" width="80" height="65.924" fill="none"/>
    </clipPath>
  </defs>
  <g id="icon-seo" transform="translate(0 0)">
    <rect id="Rectangle_937" data-name="Rectangle 937" width="7.011" height="9.17" transform="translate(25.499 55.696)" fill="#f9ba48"/>
    <g id="Group_1033" data-name="Group 1033" transform="translate(0 0)">
      <g id="Group_1032" data-name="Group 1032" clip-path="url(#clip-path)">
        <path id="Path_1860" data-name="Path 1860" d="M38.589,76.908H30.577a.39.39,0,0,1-.39-.39V66.038a.39.39,0,0,1,.39-.39h8.012a.39.39,0,0,1,.39.39V76.517a.39.39,0,0,1-.39.39m-7.622-.78H38.2v-9.7H30.967Z" transform="translate(-5.428 -11.804)"/>
        <path id="Path_1861" data-name="Path 1861" d="M38.589,76.908H30.577a.39.39,0,0,1-.39-.39V66.038a.39.39,0,0,1,.39-.39h8.012a.39.39,0,0,1,.39.39V76.517A.39.39,0,0,1,38.589,76.908Zm-7.622-.78H38.2v-9.7H30.967Z" transform="translate(-5.428 -11.804)" fill="none" stroke="#333" stroke-miterlimit="10" stroke-width="2"/>
        <path id="Path_1862" data-name="Path 1862" d="M44.727,79.205H20.992a.39.39,0,1,1,0-.78H44.727a.39.39,0,1,1,0,.78" transform="translate(-3.704 -14.102)" fill="#333"/>
        <path id="Path_1863" data-name="Path 1863" d="M44.727,79.205H20.992a.39.39,0,1,1,0-.78H44.727a.39.39,0,1,1,0,.78Z" transform="translate(-3.704 -14.102)" fill="none" stroke="#333" stroke-miterlimit="10" stroke-width="2"/>
        <rect id="Rectangle_938" data-name="Rectangle 938" width="55.89" height="5.106" transform="translate(1.211 48.946)" fill="#f9ba48"/>
        <path id="Path_1864" data-name="Path 1864" d="M57.281,65.086H1.39A.39.39,0,0,1,1,64.7v-5.1a.39.39,0,0,1,.39-.39h55.89a.39.39,0,0,1,.39.39v5.1a.39.39,0,0,1-.39.39m-55.5-.78H56.89V59.981H1.78Z" transform="translate(-0.18 -10.645)" fill="#333"/>
        <path id="Path_1865" data-name="Path 1865" d="M57.281,65.086H1.39A.39.39,0,0,1,1,64.7v-5.1a.39.39,0,0,1,.39-.39h55.89a.39.39,0,0,1,.39.39v5.1A.39.39,0,0,1,57.281,65.086Zm-55.5-.78H56.89V59.981H1.78Z" transform="translate(-0.18 -10.645)" fill="none" stroke="#333" stroke-miterlimit="10" stroke-width="2"/>
        <path id="Path_1866" data-name="Path 1866" d="M12.824,48.6a.39.39,0,0,1-.331-.6l6.131-9.809a.389.389,0,0,1,.545-.119l6.355,4.2,5.033-6.2a.39.39,0,0,1,.605.491l-5.255,6.472a.389.389,0,0,1-.518.08l-6.315-4.175-5.919,9.469a.389.389,0,0,1-.331.184" transform="translate(-2.236 -6.461)"/>
        <path id="Path_1867" data-name="Path 1867" d="M12.824,48.6a.39.39,0,0,1-.331-.6l6.131-9.809a.389.389,0,0,1,.545-.119l6.355,4.2,5.033-6.2a.39.39,0,0,1,.605.491l-5.255,6.472a.389.389,0,0,1-.518.08l-6.315-4.175-5.919,9.469A.389.389,0,0,1,12.824,48.6Z" transform="translate(-2.236 -6.461)" fill="none" stroke="#333" stroke-miterlimit="10" stroke-width="2"/>
        <path id="Path_1868" data-name="Path 1868" d="M71.374,38.688,87.613,54.927l4.06-4.06L75.434,34.628ZM90.443,50.8l-2.9,2.9L72.6,38.757l2.9-2.9Z" transform="translate(-12.834 -6.227)" fill="#333"/>
        <path id="Path_1869" data-name="Path 1869" d="M71.374,38.688,87.613,54.927l4.06-4.06L75.434,34.628ZM90.443,50.8l-2.9,2.9L72.6,38.757l2.9-2.9Z" transform="translate(-12.834 -6.227)" fill="none" stroke="#333" stroke-miterlimit="10" stroke-width="2"/>
        <path id="Path_1870" data-name="Path 1870" d="M55.749,35.747A17.374,17.374,0,1,1,73.122,18.373,17.394,17.394,0,0,1,55.749,35.747m0-33.967A16.594,16.594,0,1,0,72.342,18.373,16.612,16.612,0,0,0,55.749,1.78m0,29.883a13.289,13.289,0,1,1,13.289-13.29,13.3,13.3,0,0,1-13.289,13.29M43.24,18.373A12.509,12.509,0,1,0,55.749,5.865,12.524,12.524,0,0,0,43.24,18.373" transform="translate(-6.9 -0.18)" fill="#333"/>
        <path id="Path_1871" data-name="Path 1871" d="M55.749,35.747A17.374,17.374,0,1,1,73.122,18.373,17.394,17.394,0,0,1,55.749,35.747Zm0-33.967A16.594,16.594,0,1,0,72.342,18.373,16.612,16.612,0,0,0,55.749,1.78Zm0,29.883a13.289,13.289,0,1,1,13.289-13.29A13.3,13.3,0,0,1,55.749,31.663ZM43.24,18.373A12.509,12.509,0,1,0,55.749,5.865,12.524,12.524,0,0,0,43.24,18.373Z" transform="translate(-6.9 -0.18)" fill="none" stroke="#333" stroke-miterlimit="10" stroke-width="2"/>
        <path id="Path_1872" data-name="Path 1872" d="M65.834,23.218a.327.327,0,0,1-.24-.1L57.217,14.2l-7.264,8.482a.329.329,0,0,1-.5-.428l7.5-8.76a.331.331,0,0,1,.242-.115.356.356,0,0,1,.247.1l8.628,9.185a.329.329,0,0,1-.239.554" transform="translate(-8.878 -2.405)"/>
        <path id="Path_1873" data-name="Path 1873" d="M65.834,23.218a.327.327,0,0,1-.24-.1L57.217,14.2l-7.264,8.482a.329.329,0,0,1-.5-.428l7.5-8.76a.331.331,0,0,1,.242-.115.356.356,0,0,1,.247.1l8.628,9.185a.329.329,0,0,1-.239.554Z" transform="translate(-8.878 -2.405)" fill="none" stroke="#333" stroke-miterlimit="10" stroke-width="2"/>
        <path id="Path_1874" data-name="Path 1874" d="M56.89,37.51V56.777H1.78V18.864H31.131c.048-.262.1-.522.158-.78H1.39a.39.39,0,0,0-.39.39V57.168a.39.39,0,0,0,.39.39H57.281a.39.39,0,0,0,.39-.39V37.036c-.259.159-.512.328-.78.474" transform="translate(-0.18 -3.252)"/>
        <path id="Path_1875" data-name="Path 1875" d="M56.89,37.51V56.777H1.78V18.864H31.131c.048-.262.1-.522.158-.78H1.39a.39.39,0,0,0-.39.39V57.168a.39.39,0,0,0,.39.39H57.281a.39.39,0,0,0,.39-.39V37.036C57.411,37.2,57.159,37.364,56.89,37.51Z" transform="translate(-0.18 -3.252)" fill="none" stroke="#333" stroke-miterlimit="10" stroke-width="2"/>
        <path id="Path_1876" data-name="Path 1876" d="M54.789,54.265a2.358,2.358,0,1,1,2.358-2.358,2.361,2.361,0,0,1-2.358,2.358m0-3.675a1.317,1.317,0,1,0,1.317,1.317,1.319,1.319,0,0,0-1.317-1.317" transform="translate(-9.427 -8.909)" fill="#333"/>
        <path id="Path_1877" data-name="Path 1877" d="M54.789,54.265a2.358,2.358,0,1,1,2.358-2.358A2.361,2.361,0,0,1,54.789,54.265Zm0-3.675a1.317,1.317,0,1,0,1.317,1.317A1.319,1.319,0,0,0,54.789,50.59Z" transform="translate(-9.427 -8.909)" fill="none" stroke="#333" stroke-miterlimit="10" stroke-width="1"/>
        <path id="Path_1878" data-name="Path 1878" d="M44.823,54.265a2.358,2.358,0,1,1,2.358-2.358,2.361,2.361,0,0,1-2.358,2.358m0-3.675a1.317,1.317,0,1,0,1.317,1.317,1.319,1.319,0,0,0-1.317-1.317" transform="translate(-7.635 -8.909)" fill="#333"/>
        <path id="Path_1879" data-name="Path 1879" d="M44.823,54.265a2.358,2.358,0,1,1,2.358-2.358A2.361,2.361,0,0,1,44.823,54.265Zm0-3.675a1.317,1.317,0,1,0,1.317,1.317A1.319,1.319,0,0,0,44.823,50.59Z" transform="translate(-7.635 -8.909)" fill="none" stroke="#333" stroke-miterlimit="10" stroke-width="1"/>
        <path id="Path_1880" data-name="Path 1880" d="M34.858,54.265a2.358,2.358,0,1,1,2.358-2.358,2.361,2.361,0,0,1-2.358,2.358m0-3.675a1.317,1.317,0,1,0,1.317,1.317,1.319,1.319,0,0,0-1.317-1.317" transform="translate(-5.844 -8.909)" fill="#333"/>
        <path id="Path_1881" data-name="Path 1881" d="M34.858,54.265a2.358,2.358,0,1,1,2.358-2.358A2.361,2.361,0,0,1,34.858,54.265Zm0-3.675a1.317,1.317,0,1,0,1.317,1.317A1.319,1.319,0,0,0,34.858,50.59Z" transform="translate(-5.844 -8.909)" fill="none" stroke="#333" stroke-miterlimit="10" stroke-width="1"/>
      </g>
    </g>
  </g>
</svg>
