<svg id="icon-domain-name" xmlns="http://www.w3.org/2000/svg" xmlns:xlink="http://www.w3.org/1999/xlink" width="80" height="80" viewBox="0 0 80 80">
  <defs>
    <clipPath id="clip-path">
      <rect id="Rectangle_863" data-name="Rectangle 863" width="80" height="80" fill="none"/>
    </clipPath>
  </defs>
  <g id="Group_1000" data-name="Group 1000" clip-path="url(#clip-path)">
    <path id="Path_1706" data-name="Path 1706" d="M16.161,47.806h41.29a5.162,5.162,0,0,0,5.161-5.161V27.161A5.162,5.162,0,0,0,57.452,22H16.161A5.162,5.162,0,0,0,11,27.161V42.645a5.162,5.162,0,0,0,5.161,5.161" transform="translate(3.194 6.387)" fill="#f9ba48"/>
    <path id="Path_1707" data-name="Path 1707" d="M38.839,4A34.838,34.838,0,1,0,73.677,38.839,34.879,34.879,0,0,0,38.839,4m24.9,14.348a30.481,30.481,0,0,1-10.074,4.507A48.258,48.258,0,0,0,42.559,6.8,32.239,32.239,0,0,1,63.734,18.348m7.329,19.2H65.935V31.1a6.461,6.461,0,0,0-6.452-6.452h-2.7a30.189,30.189,0,0,0,8.52-4.223,32.057,32.057,0,0,1,5.764,17.126M65.3,57.257a30.219,30.219,0,0,0-8.52-4.225h2.7a6.46,6.46,0,0,0,6.452-6.452V40.129h5.128A32.061,32.061,0,0,1,65.3,57.257M6.613,40.129h5.129v6.452a6.459,6.459,0,0,0,6.452,6.452h2.7a30.219,30.219,0,0,0-8.52,4.225A32.061,32.061,0,0,1,6.613,40.129m5.764-19.707a30.189,30.189,0,0,0,8.52,4.223h-2.7A6.46,6.46,0,0,0,11.742,31.1v6.452H6.613a32.057,32.057,0,0,1,5.764-17.126m5.817,30.03a3.874,3.874,0,0,1-3.871-3.871V31.1a3.875,3.875,0,0,1,3.871-3.871h41.29A3.876,3.876,0,0,1,63.355,31.1V46.581a3.875,3.875,0,0,1-3.871,3.871ZM40.129,24.615V8.08A46.348,46.348,0,0,1,51.107,23.467a59.242,59.242,0,0,1-10.978,1.148M37.548,8.085v16.53a59.257,59.257,0,0,1-10.979-1.148A46.478,46.478,0,0,1,37.548,8.085m0,44.978V69.6A46.338,46.338,0,0,1,26.569,54.21a59.254,59.254,0,0,1,10.979-1.147m2.581,16.529V53.063A59.264,59.264,0,0,1,51.107,54.21,46.478,46.478,0,0,1,40.129,69.592M35.117,6.8a48.258,48.258,0,0,0-11.1,16.053,30.481,30.481,0,0,1-10.074-4.507A32.239,32.239,0,0,1,35.117,6.8M13.942,59.329a30.486,30.486,0,0,1,10.074-4.506,48.25,48.25,0,0,0,11.1,16.052A32.228,32.228,0,0,1,13.942,59.329M42.559,70.875a48.25,48.25,0,0,0,11.1-16.052,30.486,30.486,0,0,1,10.074,4.506A32.228,32.228,0,0,1,42.559,70.875" transform="translate(1.161 1.161)" fill="#333"/>
    <path id="Path_1708" data-name="Path 1708" d="M40,0A40,40,0,1,0,80,40,40.044,40.044,0,0,0,40,0m0,77.419A37.419,37.419,0,1,1,77.419,40,37.463,37.463,0,0,1,40,77.419" fill="#333"/>
    <path id="Path_1709" data-name="Path 1709" d="M26.033,27.894,24.384,38.606h-.3l-1.774-7.983h-3.2l-1.774,7.983h-.3L15.388,27.894V26.187H13.614v1.774l1.9,12.419h3.248L20.535,32.4h.351l1.774,7.983h3.248L27.8,28.1l.01-1.91H26.033Z" transform="translate(3.952 7.603)" fill="#333"/>
    <path id="Path_1710" data-name="Path 1710" d="M38.408,27.894,36.759,38.606h-.3l-1.774-7.983h-3.2l-1.774,7.983h-.3L27.763,27.894V26.187H25.989v1.774l1.9,12.419h3.248L32.91,32.4h.351l1.774,7.983h3.248L40.172,28.1l.01-1.91H38.408Z" transform="translate(7.545 7.603)" fill="#333"/>
    <path id="Path_1711" data-name="Path 1711" d="M50.783,27.894,49.134,38.606h-.3l-1.774-7.983h-3.2l-1.774,7.983h-.3L40.138,27.894V26.187H38.364v1.774l1.9,12.419h3.248L45.285,32.4h.351l1.774,7.983h3.248L52.547,28.1l.01-1.91H50.783Z" transform="translate(11.138 7.603)" fill="#333"/>
  </g>
</svg>
