<svg xmlns="http://www.w3.org/2000/svg" xmlns:xlink="http://www.w3.org/1999/xlink" width="360" height="270" viewBox="0 0 360 270">
  <defs>
    <clipPath id="clip-img-default-4by3">
      <rect width="360" height="270"/>
    </clipPath>
  </defs>
  <g id="img-default-4by3" clip-path="url(#clip-img-default-4by3)">
    <rect width="360" height="270" fill="#fff"/>
    <rect id="Rectangle_7027" data-name="Rectangle 7027" width="360" height="270" fill="#ebebeb"/>
    <g id="Group_11540" data-name="Group 11540" transform="translate(17 -119)">
      <path id="Path_217" data-name="Path 217" d="M12.235,20.233h3.877v3.075H12.235Zm-7.2-9.248a.822.822,0,0,0-.852.5,30.629,30.629,0,0,1-2.393,4.162,1.509,1.509,0,0,0-.6-.155c-.664,0-1,.317-1,.943a1.049,1.049,0,0,0,.333.71c.494.344.935.688,1.321,1,.437.376,1.018.9,1.7,1.584a.391.391,0,0,0,.216.106,25.35,25.35,0,0,1-2.085,2.422,6.608,6.608,0,0,1-.716.025c-.659.051-.962.37-.962.95,0,.815.3,1.215.962,1.215,1.047-.11,2.116-.237,3.216-.45V34.144c0,.683.358,1.029,1.07,1.029s1.071-.346,1.071-1.029V23.554a8.139,8.139,0,0,0,1.072-.246h.2c.087.326.163.694.243,1.057.165.48.415.712.74.712.772,0,1.187-.263,1.187-.811a4.047,4.047,0,0,0-.112-.734A20.34,20.34,0,0,0,8.573,20.44a1.038,1.038,0,0,0-.74-.312c-.659,0-.963.215-.963.636a1.271,1.271,0,0,0,.112.5,1.608,1.608,0,0,0,.106.315,21.332,21.332,0,0,1-2.607.481,17.836,17.836,0,0,0,1.452-1.794,33.412,33.412,0,0,0,2.534-4.034,1.42,1.42,0,0,0,.218-.734.965.965,0,0,0-.273-.633,1.119,1.119,0,0,0-1.542.03c-.606,1.125-1.265,2.207-1.942,3.26a19.7,19.7,0,0,0-1.494-1.313,23.59,23.59,0,0,0,2.777-4.429,1.8,1.8,0,0,0,.109-.491.924.924,0,0,0-.386-.668,1.87,1.87,0,0,0-.9-.266m-3.106,14.6a.858.858,0,0,0-.963.635C.774,28.662.521,30.955.188,33.121a2.128,2.128,0,0,0-.078.594c0,.527.354.818,1.075.818a1.13,1.13,0,0,0,.959-.489c.3-2.083.549-4.383.744-6.913A3.325,3.325,0,0,0,3,26.425c0-.562-.361-.844-1.075-.844m6.021.218c-.581,0-.857.262-.857.734l.053.361c.223,1.221.412,2.664.588,4.35.023.576.3.842.844.842.637,0,.963-.266.963-.842a6.635,6.635,0,0,0-.079-.794,33.63,33.63,0,0,0-.666-4.127.882.882,0,0,0-.845-.524m4.507-14.206c-1.516,0-2.252.694-2.252,2.051V34.437a.836.836,0,0,0,.96.948c.71,0,1.073-.32,1.073-.948V25.183h1.918v4a1.82,1.82,0,0,0,2.063,2.057h4.508c.627,0,.956-.333.956-1.025a.838.838,0,0,0-.956-.922H17.072c-.581,0-.855-.287-.855-.923v-3.19h6.645v7.2c0,.737-.322,1.126-.956,1.126a9.278,9.278,0,0,1-2.056-.318,3.438,3.438,0,0,0-.634-.071c-.5,0-.742.354-.742,1.121a.856.856,0,0,0,.623.823,13.9,13.9,0,0,0,3.028.391c1.842,0,2.777-.781,2.777-2.335V13.644c0-1.357-.712-2.051-2.142-2.051Zm5.795,8.64h4.614v3.075H18.248Zm-6.013-1.845V14.282c0-.557.218-.85.657-.85h9.232c.494,0,.737.292.737.85v4.107H19.98c.085-.124.172-.256.279-.421.3-.576.6-1.21.879-1.842a1.047,1.047,0,0,0,.215-.631.947.947,0,0,0-.331-.712,1.02,1.02,0,0,0-.738-.318.972.972,0,0,0-.85.427c-.337.894-.664,1.743-1.012,2.554-.172.315-.308.633-.465.943Zm2.693-4c-.713,0-1.077.234-1.077.7a1.968,1.968,0,0,0,.11.614,13.27,13.27,0,0,1,.524,1.661c.192.471.466.714.85.714.858,0,1.294-.263,1.294-.827a5.859,5.859,0,0,0-.112-.915,10.368,10.368,0,0,0-.742-1.554,1.221,1.221,0,0,0-.845-.394" transform="translate(100 224.525)" fill="#bebebe"/>
      <path id="Path_218" data-name="Path 218" d="M38.915,18.28H35.7c-.44,0-.663-.241-.663-.72V14.377a.576.576,0,0,1,.663-.639h3.217a.569.569,0,0,1,.633.639V17.56c0,.479-.227.72-.633.72M34.732,11.8c-1.241,0-1.834.553-1.834,1.635v5.052c0,1.168.594,1.739,1.834,1.739h2.04V31.9c-.415.106-.884.178-1.406.258V23.829c0-.6-.356-.924-1.077-.924a.831.831,0,0,0-.954.924v8.623A1.355,1.355,0,0,1,33,32.48a1.087,1.087,0,0,0-.96,1.232c.03.711.367,1.075.96,1.127a48.246,48.246,0,0,0,4.758-.891,26.134,26.134,0,0,0,4.153-1.259,1.118,1.118,0,0,0,.774-1.134c-.06-.579-.418-.88-1.079-.927a1.818,1.818,0,0,0-.545.112,17.519,17.519,0,0,1-2.254.675v-5.1h2.362a.937.937,0,0,0,1.072-1.032c0-.678-.363-1.022-1.072-1.022H38.8V20.223h1.067c1.214,0,1.841-.571,1.841-1.739V13.432c0-1.082-.626-1.635-1.841-1.635Zm19.957-.109H47.076a1.691,1.691,0,0,0-1.783,1.05,8.425,8.425,0,0,1-1.237,2.295c-.417.459-.911.952-1.486,1.5a1.035,1.035,0,0,0-.44.71A.933.933,0,0,0,43.2,18.28a.876.876,0,0,0,.608-.217,11.314,11.314,0,0,0,1.756-1.975,11.24,11.24,0,0,0,2.061,3.372,6.761,6.761,0,0,0,.63.61,48.626,48.626,0,0,1-5.47,2.631,1.125,1.125,0,0,0-.657.927c0,.628.273.919.85.919a6.058,6.058,0,0,0,1.211-.131,37.817,37.817,0,0,0,5.721-3,8.643,8.643,0,0,0,1.62.943,20.884,20.884,0,0,0,4.234,1.868,2.78,2.78,0,0,0,.987.235c.768,0,1.182-.363,1.182-1.128a1.248,1.248,0,0,0-.554-.949,23.11,23.11,0,0,1-4.391-1.711,8.817,8.817,0,0,1-1.185-.665A14.082,14.082,0,0,0,55.271,16.3a6.519,6.519,0,0,0,1.153-3.157c0-.948-.579-1.455-1.734-1.455m-7.944,2.329a.912.912,0,0,1,.766-.376h6.215c.356,0,.548.073.548.21,0,.74-.733,1.875-2.194,3.392a11.087,11.087,0,0,1-1.927,1.609,5.32,5.32,0,0,1-.664-.607,11.919,11.919,0,0,1-2.414-3.687,2.006,2.006,0,0,0-.33-.543m-.851,10.743q-2.147,0-2.143,2.051v5.879c0,1.363.712,2.049,2.143,2.049h8.38c1.43,0,2.149-.686,2.149-2.049V26.81c0-1.365-.719-2.051-2.149-2.051Zm7.5,7.93h-6.65c-.58,0-.851-.272-.851-.826V27.654a.747.747,0,0,1,.851-.844H53.4a.769.769,0,0,1,.878.844v4.209c0,.555-.306.826-.878.826" transform="translate(95.695 224.43)" fill="#bebebe"/>
      <path id="Path_219" data-name="Path 219" d="M119.266,16.422h12.753a27.628,27.628,0,0,1-2.943,6.016A25.772,25.772,0,0,1,125.7,26.41a17.432,17.432,0,0,1-3.352-3.738,30.9,30.9,0,0,1-3.077-6.249m6.3-5.549c-.8,0-1.189.394-1.189,1.128v2.266H114.069c-.713,0-1.07.339-1.07,1.025,0,.765.357,1.129,1.07,1.129h2.917a27.2,27.2,0,0,0,3.047,6.779,18.868,18.868,0,0,0,3.908,4.657,33.279,33.279,0,0,1-3.274,2.13A39.409,39.409,0,0,1,113.515,33a.847.847,0,0,0-.622.92.914.914,0,0,0,.3.71,1.041,1.041,0,0,0,.768.317,5.711,5.711,0,0,0,.856-.1,41.023,41.023,0,0,0,7.393-3.162,34.054,34.054,0,0,0,3.546-2.375,27.228,27.228,0,0,0,3.739,2.265,51.5,51.5,0,0,0,6.982,3.106,2.969,2.969,0,0,0,.791.165,1.083,1.083,0,0,0,1.185-1.24c0-.474-.305-.818-.882-1.023A33.452,33.452,0,0,1,131.8,30.23a26.114,26.114,0,0,1-4.318-2.421,24.514,24.514,0,0,0,3.414-4.089,29.533,29.533,0,0,0,3.243-6.9c.023-.134.052-.263.072-.4h3.057c.711,0,1.076-.364,1.076-1.129,0-.686-.364-1.025-1.076-1.025H126.741V12a1.035,1.035,0,0,0-1.178-1.128" transform="translate(84.831 224.54)" fill="#bebebe"/>
      <path id="Path_220" data-name="Path 220" d="M93.777,12.629H87.386l-2.123,8.978h6.389a1.158,1.158,0,0,0,.81-.3,1.557,1.557,0,0,0,.437-.7L94.531,13.7a.869.869,0,0,0-.126-.742.72.72,0,0,0-.628-.326m-9.3,0H78.03a1.167,1.167,0,0,0-.832.35,1.4,1.4,0,0,0-.479.718l-1.634,6.914a.785.785,0,0,0,.138.7.911.911,0,0,0,.682.3h6.447ZM94.049,34.9a1.035,1.035,0,0,1,.634,1.069,1.231,1.231,0,0,1-.323.745c-2.856,2.469-8.355,2.621-8.355,2.621A19.439,19.439,0,0,1,66.322,13.572,20.306,20.306,0,0,1,80.878.442a19.687,19.687,0,0,1,16,3.424A18.66,18.66,0,0,1,104.307,19.1a13.776,13.776,0,0,1-5.2,9.91c-6.2,5.537-11.971,4.135-11.971,4.135-7.371-1.714-5.414-8.882-5.414-8.882H74.174a2.238,2.238,0,0,1-1.668-.744,1.937,1.937,0,0,1-.371-1.834l2.146-9.107a3.357,3.357,0,0,1,1.227-1.866A3.261,3.261,0,0,1,77.55,9.97H85.1L85.645,7.7a1.82,1.82,0,0,1,.623-1.041,1.878,1.878,0,0,1,1.157-.4,1.152,1.152,0,0,1,.926.38,1.109,1.109,0,0,1,.2,1.06L88.013,9.97h7.481a1.93,1.93,0,0,1,1.756.79,2.416,2.416,0,0,1,.251,1.82l-2.149,9.107a3.894,3.894,0,0,1-1.184,1.8,3.239,3.239,0,0,1-2.057.781H84.636c-1.959,7.566,6.051,7.221,6.051,7.221,7.2-.708,9.78-5.746,9.78-5.746,2.365-4.417,1.091-9.633,1.091-9.633A16.68,16.68,0,0,0,94.493,5.583a17.057,17.057,0,0,0-18.333-.265,17.623,17.623,0,0,0-8.142,14.408,16.709,16.709,0,0,0,8.636,14.786,18.4,18.4,0,0,0,8.682,2.124c2.738.112,6.94-1.6,6.94-1.6,1.221-.491,1.774-.144,1.774-.144" transform="translate(91.235 226)" fill="#bebebe"/>
      <g id="Group_58" data-name="Group 58" transform="translate(100.335 273.132)">
        <path id="Path_221" data-name="Path 221" d="M2.172,54.6c.1.006.151.087.157.241a.661.661,0,0,1-.028.131,7.249,7.249,0,0,1-.883,1.682c.061.055.117.106.167.149q.26.27.539.6l.01-.018a10.831,10.831,0,0,0,.781-1.674A.249.249,0,0,1,3.1,55.6a.213.213,0,0,1,.223.233A.34.34,0,0,1,3.259,56a9.659,9.659,0,0,1-.65,1.385,12.417,12.417,0,0,1-1.088,1.654,4.637,4.637,0,0,0,1.59-.335c-.081-.217-.158-.4-.233-.557a.53.53,0,0,1-.074-.149.232.232,0,0,1,.214-.233.26.26,0,0,1,.2.112,11.009,11.009,0,0,1,.52,1.468.5.5,0,0,1,.037.158c-.018.118-.1.183-.241.2a.179.179,0,0,1-.167-.121q-.056-.232-.121-.427a3.5,3.5,0,0,1-.883.241V63a.209.209,0,0,1-.223.223A.208.208,0,0,1,1.912,63v-3.56a11.633,11.633,0,0,1-1.19.055q-.326,0-.335-.214.009-.214.3-.223H.973a10.892,10.892,0,0,0,.911-1.237l-.066-.065a7.59,7.59,0,0,0-.567-.641q-.261-.251-.678-.586a.336.336,0,0,1-.112-.2.255.255,0,0,1,.223-.2.308.308,0,0,1,.2.093c.062.05.118.1.168.139a7.847,7.847,0,0,0,.827-1.552.283.283,0,0,1,.288-.2M1.131,59.917a.217.217,0,0,1,.232.233,12.469,12.469,0,0,1-.149,1.5,5.188,5.188,0,0,1-.26.874.267.267,0,0,1-.269.223A.254.254,0,0,1,.471,62.5a.516.516,0,0,1,.037-.168,4.453,4.453,0,0,0,.269-.948A8.154,8.154,0,0,0,.917,60.1c.006-.112.078-.173.215-.186m1.821,0a.22.22,0,0,1,.233.205,7.068,7.068,0,0,1,.325,1.915c-.013.149-.087.222-.223.222-.112-.005-.174-.08-.186-.222a8.309,8.309,0,0,0-.325-1.887.107.107,0,0,1-.01-.047c.012-.124.074-.186.186-.186m1.841-4.982H8.1a.657.657,0,0,1,.744.743V62.26a.789.789,0,0,1-.893.893,4,4,0,0,1-1.134-.186.246.246,0,0,1,.083-.484c.013,0,.041,0,.084.01a3.431,3.431,0,0,0,.929.177.4.4,0,0,0,.446-.446V55.828a.4.4,0,0,0-.446-.447H4.979a.4.4,0,0,0-.446.447v7.157a.214.214,0,0,1-.241.242.213.213,0,0,1-.241-.242V55.679a.657.657,0,0,1,.743-.743m3.1,2.547a.2.2,0,0,1,0,.409H6.726v1.449H7.9a.2.2,0,0,1,0,.409H5.816v1.134a.361.361,0,0,0,.408.408h1.45c.186,0,.279.074.279.223s-.093.223-.279.223H6.113A.657.657,0,0,1,5.369,61V59.75H4.96a.2.2,0,0,1,0-.409H6.243V57.892H4.96a.2.2,0,0,1,0-.409ZM5.3,55.716a.287.287,0,0,1,.214.121,5.152,5.152,0,0,1,.557.985A.594.594,0,0,1,6.113,57c-.018.125-.106.192-.26.205a.215.215,0,0,1-.186-.131,5.032,5.032,0,0,0-.511-.939.494.494,0,0,1-.084-.167.246.246,0,0,1,.233-.251m2.407-.037c.1.006.151.087.158.241A.308.308,0,0,1,7.851,56a4.786,4.786,0,0,1-.557,1.143.316.316,0,0,1-.214.093.243.243,0,0,1-.223-.251.588.588,0,0,1,.074-.139,4.72,4.72,0,0,0,.492-.967.283.283,0,0,1,.288-.2" transform="translate(-0.387 -54.47)" fill="#bebebe"/>
        <path id="Path_222" data-name="Path 222" d="M16.647,61.9a.25.25,0,0,1,.26.251.42.42,0,0,1-.037.149,5.629,5.629,0,0,1-1.208.594,9.786,9.786,0,0,1-1.478.317c-.131.018-.211.028-.242.028q-.26-.029-.269-.26a.285.285,0,0,1,.195-.223,8.816,8.816,0,0,0,1.432-.269,4.469,4.469,0,0,0,1.115-.465.371.371,0,0,1,.232-.121m5.429-6.916a.223.223,0,1,1,0,.446h-3.82l-.344.93h2.807a.69.69,0,0,1,.781.781v3.718a.69.69,0,0,1-.781.781H15.29a.69.69,0,0,1-.781-.781V57.143a.689.689,0,0,1,.781-.781h2.129l.344-.93H13.971a.223.223,0,1,1,0-.446ZM14.993,58h6.023v-.827a.324.324,0,0,0-.371-.363h-5.28a.325.325,0,0,0-.372.363Zm0,1.6h6.023V58.445H14.993Zm5.652,1.6a.329.329,0,0,0,.371-.372v-.781H14.993v.781a.329.329,0,0,0,.372.372Zm-1.172.706a1.061,1.061,0,0,1,.2.028,11.153,11.153,0,0,1,2.585.892.237.237,0,0,1,.112.2c-.006.167-.08.254-.223.26a.684.684,0,0,1-.168-.037,11.784,11.784,0,0,0-2.509-.864.243.243,0,0,1-.223-.251.223.223,0,0,1,.223-.223" transform="translate(-2.177 -54.522)" fill="#bebebe"/>
        <path id="Path_223" data-name="Path 223" d="M30.077,56.134a.223.223,0,0,1,0,.446H27.139a.223.223,0,1,1,0-.446Zm-2.138,3.793h1.339a.657.657,0,0,1,.743.743V62.38a.661.661,0,0,1-.743.753H27.939a.661.661,0,0,1-.743-.753V60.67a.657.657,0,0,1,.743-.743m1.8-2.528a.223.223,0,1,1,0,.446H27.437a.223.223,0,0,1,0-.446Zm0,1.264a.223.223,0,1,1,0,.447H27.437a.223.223,0,0,1,0-.447Zm-.074-3.718a.223.223,0,1,1,0,.446H27.474a.223.223,0,1,1,0-.446Zm-.5,7.734a.329.329,0,0,0,.372-.372V60.754a.333.333,0,0,0-.372-.381H28.05a.333.333,0,0,0-.372.381v1.552a.329.329,0,0,0,.372.372Zm3.179-7.734h1.1a.625.625,0,0,1,.707.707v1.9a.263.263,0,0,0,.3.3h.241a.3.3,0,0,0,.26-.177,1.77,1.77,0,0,0,.093-.446l.037-.511a.237.237,0,0,1,.241-.241.258.258,0,0,1,.251.26,3.988,3.988,0,0,1-.157,1.217c-.087.2-.192.319-.317.344h-.724a.625.625,0,0,1-.707-.706V55.632c0-.161-.1-.241-.3-.241H32.084a.263.263,0,0,0-.3.3,5.831,5.831,0,0,1-.1,1.227,2.761,2.761,0,0,1-.409.938,2.668,2.668,0,0,1-.7.642.079.079,0,0,0-.056.018c-.186-.018-.285-.106-.3-.26a.262.262,0,0,1,.157-.241,1.911,1.911,0,0,0,.5-.474,1.949,1.949,0,0,0,.316-.669,5.111,5.111,0,0,0,.1-1.217.625.625,0,0,1,.706-.707Zm-1.45,3.793H34.5a.525.525,0,0,1,.594.594,1.536,1.536,0,0,1-.13.484,5.191,5.191,0,0,1-.781,1.162,7.933,7.933,0,0,1-.967.9l.13.093a11.306,11.306,0,0,0,2.035.846.27.27,0,0,1,.2.232.262.262,0,0,1-.251.251.975.975,0,0,1-.241-.055,9.866,9.866,0,0,1-2.156-.976c-.05-.031-.093-.059-.131-.084a15.945,15.945,0,0,1-2.045,1.05.666.666,0,0,1-.167.019c-.186-.006-.283-.087-.288-.242a.284.284,0,0,1,.157-.214,15.731,15.731,0,0,0,1.924-.92,4.779,4.779,0,0,1-.641-.586,4.837,4.837,0,0,1-.791-1.2.422.422,0,0,1-.055-.2.232.232,0,0,1,.241-.223.29.29,0,0,1,.233.139,4.866,4.866,0,0,0,.781,1.2,4.814,4.814,0,0,0,.66.6,5.136,5.136,0,0,0,.957-.846,4.771,4.771,0,0,0,.716-1,.919.919,0,0,0,.093-.344.2.2,0,0,0-.223-.222H30.895a.208.208,0,0,1-.223-.223.215.215,0,0,1,.223-.223" transform="translate(-3.953 -54.517)" fill="#bebebe"/>
        <path id="Path_224" data-name="Path 224" d="M43.945,56.067a.223.223,0,0,1,0,.446H40.338a.223.223,0,1,1,0-.446Zm-2.733,3.718h1.859a.657.657,0,0,1,.743.743v1.785a.661.661,0,0,1-.743.753H41.212a.661.661,0,0,1-.744-.753V60.529a.657.657,0,0,1,.744-.743m2.323-2.491a.223.223,0,1,1,0,.446H40.748a.223.223,0,0,1,0-.446Zm0,1.19a.223.223,0,0,1,0,.447H40.748a.223.223,0,0,1,0-.447Zm-.074-3.644a.223.223,0,1,1,0,.446h-2.64a.223.223,0,0,1,0-.446Zm-.5,7.771a.329.329,0,0,0,.372-.372V60.6a.329.329,0,0,0-.372-.371H41.324a.328.328,0,0,0-.372.371V62.24a.329.329,0,0,0,.372.372Zm5.6-5.094a.223.223,0,1,1,0,.447H46.826v5.1a.242.242,0,0,1-.484,0v-5.1H44.428a.223.223,0,0,1,0-.447h1.915V54.691a.242.242,0,0,1,.484,0v2.826Z" transform="translate(-5.727 -54.45)" fill="#bebebe"/>
        <path id="Path_225" data-name="Path 225" d="M71.43,60.526c.112.006.171.087.177.241v.177a5.547,5.547,0,0,1-1.041.986,8.645,8.645,0,0,1-1.422.9.828.828,0,0,1-.205.037.25.25,0,0,1-.222-.223.3.3,0,0,1,.139-.223,9.156,9.156,0,0,0,1.357-.845,5.817,5.817,0,0,0,.986-.948.3.3,0,0,1,.232-.1m5.187-5.819a.271.271,0,0,1,.28.279c-.019.13-.106.2-.26.214q-1.682.186-3.56.306v.205a5.354,5.354,0,0,1-.716.9,5.715,5.715,0,0,1-.819.706,9.754,9.754,0,0,1,1.339.706.7.7,0,0,1,.056.047c.055-.061.108-.124.157-.186a10.242,10.242,0,0,0,1.18-1.645.33.33,0,0,1,.242-.139.266.266,0,0,1,.279.3.424.424,0,0,1-.084.2,8.3,8.3,0,0,1-1,1.339A14.833,14.833,0,0,1,72.1,59.448a15.452,15.452,0,0,0,3.764-.586,6.869,6.869,0,0,0-.594-.594.5.5,0,0,1-.084-.168.247.247,0,0,1,.233-.251.287.287,0,0,1,.214.121A10.236,10.236,0,0,1,77.3,60a.589.589,0,0,1,.037.177c-.018.124-.106.192-.26.2a.215.215,0,0,1-.186-.13,10.646,10.646,0,0,0-.707-1,11.221,11.221,0,0,1-2.919.586V63.11a.241.241,0,1,1-.483,0V59.885q-1.554.139-3.6.139-.353,0-.363-.241c.006-.155.115-.236.325-.242q1.208,0,2.232-.055a13.7,13.7,0,0,0,1.208-1.05,12.162,12.162,0,0,0-2.909-1.264.252.252,0,0,1-.223-.251.224.224,0,0,1,.223-.223.822.822,0,0,1,.2.037q.6.167,1.125.363a.713.713,0,0,1,.074-.065,7,7,0,0,0,.892-.79,3.71,3.71,0,0,0,.53-.7q-1.515.1-3.141.158a.292.292,0,0,1-.28-.27.274.274,0,0,1,.26-.241q3.746-.083,7.269-.484m-1.859,5.856a.333.333,0,0,1,.223.1q.744.466,1.217.818.493.391,1.041.921a.367.367,0,0,1,.065.2.251.251,0,0,1-.465.111,9.587,9.587,0,0,0-1-.883,13.026,13.026,0,0,0-1.2-.827.369.369,0,0,1-.12-.214.3.3,0,0,1,.241-.223" transform="translate(-9.572 -54.485)" fill="#bebebe"/>
        <path id="Path_226" data-name="Path 226" d="M83.7,54.515c.1.006.151.087.157.241a.723.723,0,0,1-.028.131,7.032,7.032,0,0,1-.957,1.8c.08.061.151.117.214.167a8.539,8.539,0,0,1,.632.576,9.475,9.475,0,0,0,.8-1.58.249.249,0,0,1,.186-.112.213.213,0,0,1,.223.233.343.343,0,0,1-.066.157,9.775,9.775,0,0,1-.669,1.311,12.454,12.454,0,0,1-1.153,1.58,4.021,4.021,0,0,0,1.533-.344,3.85,3.85,0,0,0-.279-.465c-.018-.074-.031-.126-.037-.157a.266.266,0,0,1,.223-.233.232.232,0,0,1,.2.093,6.084,6.084,0,0,1,.688,1.385c.019.068.031.118.037.149,0,.155-.087.233-.26.233-.087,0-.154-.06-.2-.177a3.964,3.964,0,0,0-.177-.419,2.994,2.994,0,0,1-.864.279v3.681a.242.242,0,1,1-.484,0V59.433a11.24,11.24,0,0,1-1.171.055q-.326,0-.335-.214c.006-.143.106-.217.3-.223h.279a10.919,10.919,0,0,0,.967-1.227.211.211,0,0,1-.074-.074,6.645,6.645,0,0,0-.632-.576q-.3-.231-.762-.539a.338.338,0,0,1-.112-.2.255.255,0,0,1,.223-.2.308.308,0,0,1,.2.093c.068.05.127.09.177.121a.231.231,0,0,1,.029-.047,8.24,8.24,0,0,0,.9-1.674.283.283,0,0,1,.288-.2M82.616,60.2a.214.214,0,0,1,.223.223.963.963,0,0,1-.009.1,10.455,10.455,0,0,1-.149,1.05,9.41,9.41,0,0,1-.288,1.023.281.281,0,0,1-.214.13.227.227,0,0,1-.233-.223.435.435,0,0,1,.065-.167,7.773,7.773,0,0,0,.242-.911,7.235,7.235,0,0,0,.139-1,.221.221,0,0,1,.222-.223m1.971-.074a.185.185,0,0,1,.186.149,5.869,5.869,0,0,1,.381,1.394,4.163,4.163,0,0,1,.065.54c-.006.161-.08.247-.223.26a.238.238,0,0,1-.222-.26,8.034,8.034,0,0,0-.139-.967,6.521,6.521,0,0,0-.233-.771.3.3,0,0,1-.037-.121.224.224,0,0,1,.223-.223m3.346-5.614a.224.224,0,0,1,.241.241v.911H90.2a.223.223,0,0,1,0,.446h-2.77L86.6,58.521a9.561,9.561,0,0,0,2.946-.437,5.126,5.126,0,0,0-.455-.809.494.494,0,0,1-.084-.167.247.247,0,0,1,.233-.251.287.287,0,0,1,.214.121,10.387,10.387,0,0,1,.967,1.952.612.612,0,0,1,.037.177c-.019.124-.106.191-.26.2a.216.216,0,0,1-.186-.13q-.139-.373-.269-.688a5.722,5.722,0,0,1-.939.269v3.523a.23.23,0,0,0,.26.26h.724c.093,0,.168-.068.223-.2a4.77,4.77,0,0,0,.074-1.115c0-.155.087-.236.26-.241q.223.018.241.325,0,.371-.037.8a1,1,0,0,1-.223.66.7.7,0,0,1-.539.223h-.8a.592.592,0,0,1-.67-.67V58.837q-.493.065-1.088.1a.183.183,0,0,1,.01.056v.688a6.459,6.459,0,0,1-.139,1.431,2.989,2.989,0,0,1-.725,1.311,4.893,4.893,0,0,1-.827.659.325.325,0,0,1-.223.093.291.291,0,0,1-.26-.26.278.278,0,0,1,.1-.214,3.544,3.544,0,0,0,.716-.539,2.569,2.569,0,0,0,.688-1.07,5.529,5.529,0,0,0,.185-1.412V59a.053.053,0,0,1,.01-.037q-.493.018-1.031.018-.326,0-.335-.223c.006-.143.106-.217.3-.222h.418l.827-2.417H85.554a.223.223,0,0,1,0-.446h2.138v-.911a.224.224,0,0,1,.241-.241" transform="translate(-11.34 -54.459)" fill="#bebebe"/>
        <path id="Path_227" data-name="Path 227" d="M95.457,55.268h1.514q.493,0,.493.437a1.094,1.094,0,0,1-.177.5,9.451,9.451,0,0,1-1.274,1.7.192.192,0,0,0-.055.093.083.083,0,0,0,.093.093h.874a.571.571,0,0,1,.651.641,7.046,7.046,0,0,1-.474,2.38,2.193,2.193,0,0,1-.186.4,4.234,4.234,0,0,0,1.106.6,9.45,9.45,0,0,0,2.9.4h2.6c.173.006.266.087.279.241a.248.248,0,0,1-.279.241h-2.3a11,11,0,0,1-3.485-.455,4.2,4.2,0,0,1-1.1-.614,5.891,5.891,0,0,1-1.162,1.153.306.306,0,0,1-.186.084.279.279,0,0,1-.27-.27.376.376,0,0,1,.093-.186,5.846,5.846,0,0,0,1.153-1.1c-.08-.087-.155-.17-.223-.251a3.764,3.764,0,0,1-.7-1.785.253.253,0,0,1,.233-.279.246.246,0,0,1,.251.2,3.541,3.541,0,0,0,.632,1.6.8.8,0,0,1,.074.084,1.318,1.318,0,0,0,.074-.177,6.481,6.481,0,0,0,.474-2.25.23.23,0,0,0-.26-.26H95.717a.365.365,0,0,1-.371-.353.53.53,0,0,1,.13-.279,11.216,11.216,0,0,0,1.431-1.841,1.031,1.031,0,0,0,.074-.2c0-.1-.061-.149-.186-.149H95.457c-.144-.006-.215-.074-.215-.205s.071-.2.215-.2m3.141-.055h1.729v-.521a.225.225,0,0,1,.242-.241.218.218,0,0,1,.241.241v.521h1.413a.657.657,0,0,1,.743.743v.632h.623a.223.223,0,0,1,0,.447h-.623V57.7a.657.657,0,0,1-.743.744h-1.413v.892h2.175a.223.223,0,0,1,0,.447h-2.175v.929h2.584a.223.223,0,1,1,0,.446h-2.584v.781a.218.218,0,0,1-.241.241.225.225,0,0,1-.242-.241v-.781H98a.223.223,0,1,1,0-.446h2.323v-.929H98.413a.223.223,0,1,1,0-.447h1.914v-.892H98.6a.223.223,0,0,1,0-.446h1.729v-.967H97.818a.223.223,0,0,1,0-.447h2.509v-.929H98.6a.223.223,0,0,1,0-.446m2.213.446v.929h1.674V56.03a.329.329,0,0,0-.372-.372Zm0,1.376V58h1.3a.329.329,0,0,0,.372-.372v-.594Z" transform="translate(-13.109 -54.45)" fill="#bebebe"/>
        <path id="Path_228" data-name="Path 228" d="M109.21,54.923h6.8a.526.526,0,0,1,.594.6v.557a.526.526,0,0,1-.594.6h-3.2v.762h3.774a.223.223,0,1,1,0,.446h-3.774v.67h2.342a.624.624,0,0,1,.706.706V62.6h.92a.223.223,0,0,1,0,.446H108.41a.223.223,0,1,1,0-.446h.91V59.255a.625.625,0,0,1,.707-.706h2.305v-.67h-3.7a.223.223,0,1,1,0-.446h3.7v-.762H109.21a.527.527,0,0,1-.6-.6v-.557a.527.527,0,0,1,.6-.6m1.9,1.339v-.929h-1.711a.262.262,0,0,0-.3.3v.334a.262.262,0,0,0,.3.3Zm-1.3,3.346h5.577v-.241a.329.329,0,0,0-.371-.372h-4.834a.329.329,0,0,0-.372.372Zm0,1h5.577v-.594H109.8Zm0,1h5.577v-.594H109.8Zm0,.986h5.577v-.576H109.8Zm3.83-7.269h-2.045v.929h2.045Zm2.194.929a.263.263,0,0,0,.3-.3V55.63a.263.263,0,0,0-.3-.3h-1.711v.929Z" transform="translate(-14.877 -54.514)" fill="#bebebe"/>
        <path id="Path_229" data-name="Path 229" d="M122.712,54.9H124a.592.592,0,0,1,.669.67v6.841a.723.723,0,0,1-.818.818,7.864,7.864,0,0,1-.819-.185.259.259,0,0,1-.2-.223q.009-.252.279-.26c.019,0,.254.061.707.186a.329.329,0,0,0,.371-.372V60H122.5a11.509,11.509,0,0,1-.2,1.6,6.344,6.344,0,0,1-.419,1.515.238.238,0,0,1-.446-.131,1.177,1.177,0,0,1,.065-.269,7.759,7.759,0,0,0,.325-1.2,14.35,14.35,0,0,0,.223-2.37V55.571a.591.591,0,0,1,.669-.67m-.195,4.639h1.663V57.69h-1.654v1.45c0,.149,0,.282-.009.4m.009-2.3h1.654v-1.6a.262.262,0,0,0-.3-.3h-1.06a.263.263,0,0,0-.3.3Zm5.112-1.9h-1.431a.3.3,0,0,0-.335.335v2.528h3.31a.525.525,0,0,1,.594.594,2.428,2.428,0,0,1-.1.549,6.788,6.788,0,0,1-.594,1.3,6.314,6.314,0,0,1-.828,1.1,7.5,7.5,0,0,0,1.655,1.023c.143.056.217.133.222.233a.228.228,0,0,1-.241.251c-.024,0-.087,0-.186-.01a6.371,6.371,0,0,1-1.292-.753c-.186-.136-.353-.267-.5-.39a12.333,12.333,0,0,1-1.45,1.088.706.706,0,0,1-.167.018c-.18-.006-.276-.087-.288-.241a.281.281,0,0,1,.157-.214,11.413,11.413,0,0,0,1.395-1l-.1-.12a6.572,6.572,0,0,1-.856-1.534,7.025,7.025,0,0,1-.408-1.431v-.019h-.317v4.471c0,.155-.08.233-.241.233s-.241-.078-.241-.233v-7.52a.625.625,0,0,1,.706-.707h2.677a.657.657,0,0,1,.743.744l-.018,1.339a.69.69,0,0,1-.251.576,1.4,1.4,0,0,1-.753.167,3.957,3.957,0,0,1-1.115-.223.314.314,0,0,1-.168-.251.251.251,0,0,1,.26-.232.191.191,0,0,1,.1.028,3.716,3.716,0,0,0,.893.2.562.562,0,0,0,.418-.121.391.391,0,0,0,.121-.316l.028-1.088a.329.329,0,0,0-.372-.372Zm.27,6.061a5.006,5.006,0,0,0,.772-.986,6.213,6.213,0,0,0,.539-1.143,1.509,1.509,0,0,0,.074-.4.2.2,0,0,0-.223-.223h-2.417a7.119,7.119,0,0,0,.437,1.45,5.215,5.215,0,0,0,.818,1.3" transform="translate(-16.654 -54.511)" fill="#bebebe"/>
        <path id="Path_230" data-name="Path 230" d="M134.865,57.88h3.123c.322,0,.484.136.484.408a1.565,1.565,0,0,1-.047.27,5.784,5.784,0,0,1-.279.827,6.67,6.67,0,0,1-.493.957.237.237,0,0,1-.186.084.288.288,0,0,1-.251-.223.676.676,0,0,1,.112-.2,3.95,3.95,0,0,0,.307-.558,4.684,4.684,0,0,0,.3-.761c.037-.144.055-.22.055-.233,0-.106-.068-.158-.2-.158h-.819v4.146a.657.657,0,0,1-.743.744,3.812,3.812,0,0,1-1.115-.223.686.686,0,0,1-.121-.177c.006-.173.08-.264.223-.27a.793.793,0,0,1,.093.01,2.328,2.328,0,0,0,.845.214.329.329,0,0,0,.372-.372V59.07a8.208,8.208,0,0,1-.4.873,6.693,6.693,0,0,1-1.078,1.487.293.293,0,0,1-.214.112.24.24,0,0,1-.242-.223.514.514,0,0,1,.047-.149,7.881,7.881,0,0,0,1.041-1.357,8.7,8.7,0,0,0,.688-1.487c0-.024,0-.037.01-.037h-1.506a.2.2,0,1,1,0-.408m.149-3.049h2.6c.372,0,.558.136.558.409a.781.781,0,0,1-.074.232,4.378,4.378,0,0,1-.455.744,6.075,6.075,0,0,1-.809.855q.223.2.437.39a.326.326,0,0,1,.065.186.222.222,0,0,1-.232.214.227.227,0,0,1-.2-.112c-.254-.241-.5-.455-.735-.641-.223-.167-.517-.363-.883-.586a.336.336,0,0,1-.112-.2.255.255,0,0,1,.223-.2.308.308,0,0,1,.2.093q.549.335.874.576l.028-.055a4.282,4.282,0,0,0,.521-.474,2.828,2.828,0,0,0,.483-.66,1.147,1.147,0,0,0,.1-.195c0-.106-.078-.158-.232-.158h-2.37a.2.2,0,1,1,0-.409m3.885,4.741h1.515q.056-.391.083-.8c.013-.155.087-.236.223-.241a.247.247,0,0,1,.223.241c-.018.3-.043.563-.074.8h1.506a.558.558,0,0,1,.633.632,11.521,11.521,0,0,1-.214,2.277.669.669,0,0,1-.372.558,1.179,1.179,0,0,1-.623.139,2.889,2.889,0,0,1-1.041-.26.307.307,0,0,1-.149-.223.246.246,0,0,1,.27-.26h.037a2.309,2.309,0,0,0,.874.26.582.582,0,0,0,.325-.074.338.338,0,0,0,.185-.223,2.65,2.65,0,0,0,.131-.734,9.119,9.119,0,0,0,.093-1.237.361.361,0,0,0-.408-.409H140.8c-.031.125-.059.236-.084.335a4.032,4.032,0,0,1-.594,1.339,3.06,3.06,0,0,1-.809.855,3.593,3.593,0,0,1-1.171.6.256.256,0,0,1-.093.018.27.27,0,0,1-.269-.251.211.211,0,0,1,.177-.2,4.182,4.182,0,0,0,1.19-.614,3.086,3.086,0,0,0,.7-.808,3.835,3.835,0,0,0,.456-1.134,1.251,1.251,0,0,0,.028-.149H138.9a.223.223,0,1,1,0-.446m.781-5.057c.13.006.2.084.223.233l-.01.037q-.056.251-.13.511h3.262a.223.223,0,1,1,0,.446h-.632a.355.355,0,0,1-.028.139,6.154,6.154,0,0,1-.688,1.227,3.082,3.082,0,0,1-.3.372,10.747,10.747,0,0,0,1.905.967.245.245,0,0,1,.149.223.276.276,0,0,1-.251.232,1.434,1.434,0,0,1-.214-.055,10.519,10.519,0,0,1-1.915-1.031,5.075,5.075,0,0,1-.6.465,5.437,5.437,0,0,1-1.571.622.247.247,0,0,1-.241-.222q.009-.187.223-.223a4.539,4.539,0,0,0,1.366-.576,5.019,5.019,0,0,0,.465-.335,4.788,4.788,0,0,1-.716-.7,3.7,3.7,0,0,1-.521-.8,3.337,3.337,0,0,1-.363.586,3.679,3.679,0,0,1-.576.623.217.217,0,0,1-.158.047.245.245,0,0,1-.242-.205.443.443,0,0,1,.084-.2,5.172,5.172,0,0,0,.447-.446,3.767,3.767,0,0,0,.465-.734,6.069,6.069,0,0,0,.344-1,.211.211,0,0,1,.223-.2m.112,1.227a2.506,2.506,0,0,0,.511.818,4.469,4.469,0,0,0,.725.678c.1-.111.186-.216.26-.316a6.669,6.669,0,0,0,.642-1.18Z" transform="translate(-18.426 -54.459)" fill="#bebebe"/>
        <path id="Path_231" data-name="Path 231" d="M60.134,59.316A1.731,1.731,0,1,1,58.4,57.585a1.73,1.73,0,0,1,1.731,1.731" transform="translate(-7.954 -54.872)" fill="#bebebe"/>
      </g>
    </g>
  </g>
</svg>
