<svg id="knowledge-1" xmlns="http://www.w3.org/2000/svg" xmlns:xlink="http://www.w3.org/1999/xlink" width="360" height="217.5" viewBox="0 0 360 217.5">
  <defs>
    <clipPath id="clip-path">
      <rect id="Rectangle_1958" data-name="Rectangle 1958" width="360" height="217.5" fill="none"/>
    </clipPath>
  </defs>
  <rect id="Rectangle_1886" data-name="Rectangle 1886" width="360" height="217.5" fill="#83ddd9"/>
  <rect id="Rectangle_1887" data-name="Rectangle 1887" width="111.813" height="0.536" transform="translate(229.395 195.197)" fill="#b4ede7"/>
  <rect id="Rectangle_1888" data-name="Rectangle 1888" width="0.536" height="67.625" transform="translate(340.404 128.018)" fill="#b4ede7"/>
  <rect id="Rectangle_1889" data-name="Rectangle 1889" width="64.431" height="0.537" transform="translate(264.97 181.957)" fill="#b4ede7"/>
  <g id="Group_1436" data-name="Group 1436">
    <g id="Group_1435" data-name="Group 1435" clip-path="url(#clip-path)">
      <path id="Path_2945" data-name="Path 2945" d="M328.6,182.409c-.178-11.38-.178-23.335,0-34.572l.537.008c-.179,11.232-.179,23.181,0,34.556Z" fill="#b4ede7"/>
      <path id="Path_2946" data-name="Path 2946" d="M342.461,195.643a1.789,1.789,0,1,1-1.789-1.789,1.789,1.789,0,0,1,1.789,1.789" fill="#b4ede7"/>
      <path id="Path_2947" data-name="Path 2947" d="M231.184,195.464a1.789,1.789,0,1,1-1.789-1.789,1.789,1.789,0,0,1,1.789,1.789" fill="#b4ede7"/>
      <path id="Path_2948" data-name="Path 2948" d="M267.143,182.226a1.789,1.789,0,1,1-1.789-1.789,1.789,1.789,0,0,1,1.789,1.789" fill="#b4ede7"/>
      <path id="Path_2949" data-name="Path 2949" d="M330.475,181.868a1.789,1.789,0,1,1-1.789-1.789,1.789,1.789,0,0,1,1.789,1.789" fill="#b4ede7"/>
      <path id="Path_2950" data-name="Path 2950" d="M330.654,147.841a1.789,1.789,0,1,1-1.789-1.789,1.79,1.79,0,0,1,1.789,1.789" fill="#b4ede7"/>
      <path id="Path_2951" data-name="Path 2951" d="M342.64,127.3a1.789,1.789,0,1,1-1.789-1.789,1.789,1.789,0,0,1,1.789,1.789" fill="#b4ede7"/>
      <path id="Path_2952" data-name="Path 2952" d="M230.221,194.158h-1.5a1.412,1.412,0,0,1-.95-.409,11.416,11.416,0,0,0-1.982-5.109,1.472,1.472,0,0,1,.4-.982l.947-.947a1.089,1.089,0,0,0,0-1.535l-.345-.344a1.086,1.086,0,0,0-1.534,0l-.9.9a1.41,1.41,0,0,1-.974.381,11.428,11.428,0,0,0-5.17-2.237,1.465,1.465,0,0,1-.4-.957v-1.177a1.088,1.088,0,0,0-1.086-1.085h-.486a1.088,1.088,0,0,0-1.086,1.085V182.9a1.445,1.445,0,0,1-.4.954,11.424,11.424,0,0,0-5.251,2.187,1.422,1.422,0,0,1-.968-.386l-.825-.824a1.088,1.088,0,0,0-1.534,0l-.346.345a1.088,1.088,0,0,0,0,1.534l.847.846a1.461,1.461,0,0,1,.392.977,11.42,11.42,0,0,0-2.058,5.218,1.416,1.416,0,0,1-.949.407h-1.317a1.089,1.089,0,0,0-1.085,1.086v.486a1.089,1.089,0,0,0,1.085,1.086h1.381a1.5,1.5,0,0,1,.968.4,11.417,11.417,0,0,0,2.2,4.985,1.4,1.4,0,0,1-.38.975l-1.085,1.085a1.088,1.088,0,0,0,0,1.534l.346.345a1.088,1.088,0,0,0,1.534,0l1.128-1.128a1.467,1.467,0,0,1,.984-.4,11.421,11.421,0,0,0,4.927,1.957,1.43,1.43,0,0,1,.408.955v1.7a1.088,1.088,0,0,0,1.086,1.085h.486a1.088,1.088,0,0,0,1.086-1.085v-1.719a1.454,1.454,0,0,1,.4-.959,11.421,11.421,0,0,0,4.856-2.006,1.45,1.45,0,0,1,.979.391l1.208,1.207a1.086,1.086,0,0,0,1.534,0l.345-.344a1.089,1.089,0,0,0,0-1.535l-1.186-1.185a1.422,1.422,0,0,1-.383-.973,11.422,11.422,0,0,0,2.125-4.885,1.489,1.489,0,0,1,.968-.4h1.561a1.089,1.089,0,0,0,1.085-1.086v-.486a1.089,1.089,0,0,0-1.085-1.086M216.3,203.382a8.076,8.076,0,1,1,8.075-8.075,8.076,8.076,0,0,1-8.075,8.075" fill="#b4ede7"/>
      <path id="Path_2953" data-name="Path 2953" d="M216.329,201.092a5.7,5.7,0,1,1,5.7-5.7,5.7,5.7,0,0,1-5.7,5.7m0-10.668A4.973,4.973,0,1,0,221.3,195.4a4.977,4.977,0,0,0-4.972-4.972" fill="#b4ede7"/>
      <path id="Path_2954" data-name="Path 2954" d="M216.329,198.139a2.742,2.742,0,1,1,2.742-2.742,2.746,2.746,0,0,1-2.742,2.742m0-4.761a2.018,2.018,0,1,0,2.019,2.019,2.022,2.022,0,0,0-2.019-2.019" fill="#b4ede7"/>
      <path id="Path_2955" data-name="Path 2955" d="M112.2,52.13h-1.361a1.282,1.282,0,0,1-.864-.372,10.381,10.381,0,0,0-1.8-4.646,1.335,1.335,0,0,1,.361-.892l.861-.862a.99.99,0,0,0,0-1.4l-.313-.314a.99.99,0,0,0-1.4,0l-.822.822a1.281,1.281,0,0,1-.885.347,10.394,10.394,0,0,0-4.7-2.034,1.336,1.336,0,0,1-.363-.87v-1.07a.99.99,0,0,0-.987-.987h-.443a.99.99,0,0,0-.987.987v1.049a1.313,1.313,0,0,1-.366.868,10.387,10.387,0,0,0-4.775,1.988,1.3,1.3,0,0,1-.881-.351l-.749-.749a.989.989,0,0,0-1.4,0l-.314.313a.989.989,0,0,0,0,1.395l.77.77a1.329,1.329,0,0,1,.356.888,10.375,10.375,0,0,0-1.871,4.744,1.29,1.29,0,0,1-.864.371h-1.2a.989.989,0,0,0-.986.987v.442a.989.989,0,0,0,.986.987h1.256a1.364,1.364,0,0,1,.88.367,10.388,10.388,0,0,0,2,4.533,1.268,1.268,0,0,1-.345.886l-.986.987a.989.989,0,0,0,0,1.4l.314.313a.99.99,0,0,0,1.4,0L92.755,62a1.333,1.333,0,0,1,.9-.359,10.381,10.381,0,0,0,4.48,1.779,1.3,1.3,0,0,1,.371.869v1.542a.989.989,0,0,0,.987.986h.443a.989.989,0,0,0,.987-.986V64.27a1.325,1.325,0,0,1,.368-.872,10.388,10.388,0,0,0,4.416-1.824,1.32,1.32,0,0,1,.89.355l1.1,1.1a.99.99,0,0,0,1.4,0l.313-.313a.992.992,0,0,0,0-1.4L108.32,60.24a1.288,1.288,0,0,1-.347-.884,10.38,10.38,0,0,0,1.931-4.442,1.356,1.356,0,0,1,.881-.368H112.2a.99.99,0,0,0,.987-.987v-.442a.99.99,0,0,0-.987-.987M99.546,60.517a7.343,7.343,0,1,1,7.343-7.343,7.344,7.344,0,0,1-7.343,7.343" fill="#b4ede7"/>
      <path id="Path_2956" data-name="Path 2956" d="M99.573,58.435a5.179,5.179,0,1,1,5.179-5.179,5.185,5.185,0,0,1-5.179,5.179m0-9.7a4.521,4.521,0,1,0,4.521,4.521,4.525,4.525,0,0,0-4.521-4.521" fill="#b4ede7"/>
      <path id="Path_2957" data-name="Path 2957" d="M99.573,55.75a2.493,2.493,0,1,1,2.493-2.493,2.5,2.5,0,0,1-2.493,2.493m0-4.329a1.835,1.835,0,1,0,1.836,1.836,1.838,1.838,0,0,0-1.836-1.836" fill="#b4ede7"/>
      <path id="Path_2958" data-name="Path 2958" d="M161.275,159.239h-2.239a2.112,2.112,0,0,1-1.421-.613,17.053,17.053,0,0,0-2.965-7.641,2.205,2.205,0,0,1,.594-1.469l1.416-1.417a1.628,1.628,0,0,0,0-2.295l-.515-.515a1.626,1.626,0,0,0-2.295,0l-1.352,1.352a2.114,2.114,0,0,1-1.457.57,17.087,17.087,0,0,0-7.733-3.345,2.195,2.195,0,0,1-.6-1.433v-1.759a1.628,1.628,0,0,0-1.624-1.623h-.728a1.627,1.627,0,0,0-1.623,1.623V142.4a2.166,2.166,0,0,1-.6,1.428,17.08,17.08,0,0,0-7.853,3.27,2.133,2.133,0,0,1-1.449-.576l-1.233-1.233a1.628,1.628,0,0,0-2.295,0l-.517.515a1.628,1.628,0,0,0,0,2.3l1.267,1.266a2.184,2.184,0,0,1,.586,1.461,17.077,17.077,0,0,0-3.078,7.8,2.121,2.121,0,0,1-1.42.61H120.17a1.627,1.627,0,0,0-1.623,1.623v.728a1.627,1.627,0,0,0,1.623,1.623h2.064a2.235,2.235,0,0,1,1.448.6,17.091,17.091,0,0,0,3.293,7.456,2.09,2.09,0,0,1-.568,1.458l-1.623,1.623a1.628,1.628,0,0,0,0,2.295l.517.515a1.629,1.629,0,0,0,2.295,0l1.687-1.688a2.194,2.194,0,0,1,1.471-.59,17.066,17.066,0,0,0,7.371,2.926,2.149,2.149,0,0,1,.61,1.429v2.537a1.628,1.628,0,0,0,1.623,1.623h.728a1.628,1.628,0,0,0,1.624-1.623v-2.571a2.171,2.171,0,0,1,.606-1.434,17.1,17.1,0,0,0,7.263-3,2.167,2.167,0,0,1,1.465.584l1.806,1.806a1.628,1.628,0,0,0,2.295,0l.515-.516a1.628,1.628,0,0,0,0-2.295l-1.774-1.773a2.123,2.123,0,0,1-.572-1.455,17.076,17.076,0,0,0,3.178-7.307,2.227,2.227,0,0,1,1.448-.6h2.335a1.627,1.627,0,0,0,1.623-1.623v-.728a1.627,1.627,0,0,0-1.623-1.623m-20.822,13.8a12.079,12.079,0,1,1,12.078-12.078,12.08,12.08,0,0,1-12.078,12.078" fill="#b4ede7"/>
      <path id="Path_2959" data-name="Path 2959" d="M140.5,169.609a8.518,8.518,0,1,1,8.519-8.518,8.528,8.528,0,0,1-8.519,8.518m0-15.956a7.438,7.438,0,1,0,7.437,7.438,7.444,7.444,0,0,0-7.437-7.438" fill="#b4ede7"/>
      <path id="Path_2960" data-name="Path 2960" d="M140.5,165.192a4.1,4.1,0,1,1,4.1-4.1,4.107,4.107,0,0,1-4.1,4.1m0-7.121a3.02,3.02,0,1,0,3.019,3.019,3.023,3.023,0,0,0-3.019-3.019" fill="#b4ede7"/>
      <path id="Path_2961" data-name="Path 2961" d="M143.169,47.037H120.994V26.113h22.175Zm-21.721-.455h21.266V26.567H121.448Z" fill="#b4ede7"/>
      <path id="Path_2962" data-name="Path 2962" d="M164.889,47.037H142.714V26.113h22.175Zm-21.72-.455h21.265V26.567H143.169Z" fill="#b4ede7"/>
      <path id="Path_2963" data-name="Path 2963" d="M186.609,47.037H164.434V26.113h22.175Zm-21.72-.455h21.266V26.567H164.889Z" fill="#b4ede7"/>
      <path id="Path_2964" data-name="Path 2964" d="M208.33,47.037H186.155V26.113H208.33Zm-21.721-.455h21.266V26.567H186.609Z" fill="#b4ede7"/>
      <path id="Path_2965" data-name="Path 2965" d="M230.05,47.037H207.875V26.113H230.05Zm-21.72-.455H229.6V26.567H208.33Z" fill="#b4ede7"/>
      <path id="Path_2966" data-name="Path 2966" d="M251.77,47.037H229.6V26.113H251.77Zm-21.72-.455h21.266V26.567H230.05Z" fill="#b4ede7"/>
      <path id="Path_2967" data-name="Path 2967" d="M143.169,67.506H120.994V46.582h22.175Zm-21.721-.455h21.266V47.037H121.448Z" fill="#b4ede7"/>
      <path id="Path_2968" data-name="Path 2968" d="M164.889,67.506H142.714V46.582h22.175Zm-21.72-.455h21.265V47.037H143.169Z" fill="#b4ede7"/>
      <path id="Path_2969" data-name="Path 2969" d="M186.609,67.506H164.434V46.582h22.175Zm-21.72-.455h21.266V47.037H164.889Z" fill="#b4ede7"/>
      <path id="Path_2970" data-name="Path 2970" d="M208.33,67.506H186.155V46.582H208.33Zm-21.721-.455h21.266V47.037H186.609Z" fill="#b4ede7"/>
      <path id="Path_2971" data-name="Path 2971" d="M230.05,67.506H207.875V46.582H230.05Zm-21.72-.455H229.6V47.037H208.33Z" fill="#b4ede7"/>
      <path id="Path_2972" data-name="Path 2972" d="M251.77,67.506H229.6V46.582H251.77Zm-21.72-.455h21.266V47.037H230.05Z" fill="#b4ede7"/>
      <path id="Path_2973" data-name="Path 2973" d="M143.169,87.975H120.994V67.051h22.175Zm-21.721-.455h21.266V67.5H121.448Z" fill="#b4ede7"/>
      <path id="Path_2974" data-name="Path 2974" d="M164.889,87.975H142.714V67.051h22.175Zm-21.72-.455h21.265V67.5H143.169Z" fill="#b4ede7"/>
      <path id="Path_2975" data-name="Path 2975" d="M186.609,87.975H164.434V67.051h22.175Zm-21.72-.455h21.266V67.5H164.889Z" fill="#b4ede7"/>
      <path id="Path_2976" data-name="Path 2976" d="M208.33,87.975H186.155V67.051H208.33Zm-21.721-.455h21.266V67.5H186.609Z" fill="#b4ede7"/>
      <path id="Path_2977" data-name="Path 2977" d="M230.05,87.975H207.875V67.051H230.05Zm-21.72-.455H229.6V67.5H208.33Z" fill="#b4ede7"/>
      <path id="Path_2978" data-name="Path 2978" d="M251.77,87.975H229.6V67.051H251.77Zm-21.72-.455h21.266V67.5H230.05Z" fill="#b4ede7"/>
      <path id="Path_2979" data-name="Path 2979" d="M143.169,108.445H120.994V87.521h22.175Zm-21.721-.455h21.266V87.975H121.448Z" fill="#b4ede7"/>
      <path id="Path_2980" data-name="Path 2980" d="M164.889,108.445H142.714V87.521h22.175Zm-21.72-.455h21.265V87.975H143.169Z" fill="#b4ede7"/>
      <path id="Path_2981" data-name="Path 2981" d="M186.609,108.445H164.434V87.521h22.175Zm-21.72-.455h21.266V87.975H164.889Z" fill="#b4ede7"/>
      <path id="Path_2982" data-name="Path 2982" d="M208.33,108.445H186.155V87.521H208.33Zm-21.721-.455h21.266V87.975H186.609Z" fill="#b4ede7"/>
      <path id="Path_2983" data-name="Path 2983" d="M230.05,108.445H207.875V87.521H230.05Zm-21.72-.455H229.6V87.975H208.33Z" fill="#b4ede7"/>
      <path id="Path_2984" data-name="Path 2984" d="M251.77,108.445H229.6V87.521H251.77Zm-21.72-.455h21.266V87.975H230.05Z" fill="#b4ede7"/>
      <path id="Path_2985" data-name="Path 2985" d="M143.169,128.914H120.994V107.99h22.175Zm-21.721-.455h21.266V108.445H121.448Z" fill="#b4ede7"/>
      <path id="Path_2986" data-name="Path 2986" d="M164.889,128.914H142.714V107.99h22.175Zm-21.72-.455h21.265V108.445H143.169Z" fill="#b4ede7"/>
      <path id="Path_2987" data-name="Path 2987" d="M186.609,128.914H164.434V107.99h22.175Zm-21.72-.455h21.266V108.445H164.889Z" fill="#b4ede7"/>
      <path id="Path_2988" data-name="Path 2988" d="M208.33,128.914H186.155V107.99H208.33Zm-21.721-.455h21.266V108.445H186.609Z" fill="#b4ede7"/>
      <path id="Path_2989" data-name="Path 2989" d="M230.05,128.914H207.875V107.99H230.05Zm-21.72-.455H229.6V108.445H208.33Z" fill="#b4ede7"/>
      <path id="Path_2990" data-name="Path 2990" d="M251.77,128.914H229.6V107.99H251.77Zm-21.72-.455h21.266V108.445H230.05Z" fill="#b4ede7"/>
      <path id="Path_2991" data-name="Path 2991" d="M124.784,160.531H17.988V89.394h92.678v-.365H17.623V160.9H124.784Z" fill="#b4ede7"/>
      <path id="Path_2992" data-name="Path 2992" d="M43,124.08H17.623v.365H43Z" fill="#b4ede7"/>
      <path id="Path_2993" data-name="Path 2993" d="M121.81,160.667a1.217,1.217,0,1,1-1.217-1.217,1.217,1.217,0,0,1,1.217,1.217" fill="#b4ede7"/>
      <path id="Path_2994" data-name="Path 2994" d="M109.815,89.212A1.217,1.217,0,1,1,108.6,88a1.217,1.217,0,0,1,1.217,1.217" fill="#b4ede7"/>
      <path id="Path_2995" data-name="Path 2995" d="M19.2,89.394a1.217,1.217,0,1,1-1.217-1.217A1.217,1.217,0,0,1,19.2,89.394" fill="#b4ede7"/>
      <path id="Path_2996" data-name="Path 2996" d="M19.2,124.171a1.217,1.217,0,1,1-1.217-1.217,1.217,1.217,0,0,1,1.217,1.217" fill="#b4ede7"/>
      <path id="Path_2997" data-name="Path 2997" d="M19.2,160.53a1.217,1.217,0,1,1-1.217-1.217A1.218,1.218,0,0,1,19.2,160.53" fill="#b4ede7"/>
      <path id="Path_2998" data-name="Path 2998" d="M75.068,89.277a1.217,1.217,0,1,1-1.217-1.217,1.217,1.217,0,0,1,1.217,1.217" fill="#b4ede7"/>
      <path id="Path_2999" data-name="Path 2999" d="M225.626,152.03c-13.286,0-27.082,4.32-28.528,4.785v1.849c.961,3.293,13.463,5.962,28.528,5.962,14.2,0,25.97-2.313,28.064-5.333v-2.676c-2.113-3.417-14.6-4.587-28.064-4.587"/>
      <path id="Path_3000" data-name="Path 3000" d="M253.757,156.858c0,3.478-12.713,6.3-28.4,6.3s-28.395-2.82-28.395-6.3,12.713-6.3,28.395-6.3,28.4,2.82,28.4,6.3" fill="#324142"/>
      <rect id="Rectangle_1890" data-name="Rectangle 1890" width="167.956" height="101.906" rx="2.654" transform="translate(140.72 39.367)"/>
      <path id="Path_3001" data-name="Path 3001" d="M236.109,133.311h-21.23v22.823h.031c.1.533,4.793.962,10.579.962s10.478-.429,10.578-.962h.042Z"/>
      <path id="Path_3002" data-name="Path 3002" d="M143.374,39.367a2.661,2.661,0,0,0-2.654,2.654v96.6a2.661,2.661,0,0,0,2.654,2.653h10.552l88.39-101.905Z" fill="#324142"/>
      <rect id="Rectangle_1891" data-name="Rectangle 1891" width="151.266" height="81.498" transform="translate(149.33 47.593)" fill="#ffd8ac"/>
      <rect id="Rectangle_1892" data-name="Rectangle 1892" width="151.001" height="14.065" transform="translate(149.595 114.661)" fill="#fff"/>
      <path id="Path_3003" data-name="Path 3003" d="M185.661,110.652a38.881,38.881,0,0,1-5.1,19.3H198.1a55.036,55.036,0,0,0-48.859-74.241V71.667a39.081,39.081,0,0,1,36.42,38.985" fill="#fff"/>
      <path id="Path_3004" data-name="Path 3004" d="M174.692,110.652a28.008,28.008,0,0,1-7.679,19.3h6.849a33.412,33.412,0,0,0-24.621-52.607v5.321a28.117,28.117,0,0,1,25.451,27.988" fill="#fff"/>
      <rect id="Rectangle_1893" data-name="Rectangle 1893" width="151.266" height="7.342" transform="translate(149.33 47.594)" fill="#88808a"/>
      <path id="Path_3005" data-name="Path 3005" d="M301.658,130.25H149.331V46.125H301.658Zm-151.266-1.061H300.6v-82h-150.2Z"/>
      <path id="Path_3006" data-name="Path 3006" d="M225.317,141.272v15.822h.172c5.785,0,10.478-.428,10.577-.962h.043V141.272Z" fill="#324142"/>
      <path id="Path_3007" data-name="Path 3007" d="M291.44,137.292a2.256,2.256,0,1,1,2.256-2.256,2.259,2.259,0,0,1-2.256,2.256m0-3.981a1.725,1.725,0,1,0,1.725,1.725,1.727,1.727,0,0,0-1.725-1.725" fill="#0068b5"/>
      <rect id="Rectangle_1894" data-name="Rectangle 1894" width="14.156" height="14.156" transform="translate(206.479 104.907)" fill="#9a52c1"/>
      <rect id="Rectangle_1895" data-name="Rectangle 1895" width="14.156" height="14.156" transform="translate(228.101 104.907)" fill="#2ccc71"/>
      <rect id="Rectangle_1896" data-name="Rectangle 1896" width="14.156" height="14.156" transform="translate(250.001 104.907)" fill="#f1c410"/>
      <rect id="Rectangle_1897" data-name="Rectangle 1897" width="14.156" height="14.156" transform="translate(271.623 104.907)" fill="#e84d4d"/>
      <rect id="Rectangle_1898" data-name="Rectangle 1898" width="36.574" height="22.008" transform="translate(253.16 76.301)" fill="#fff"/>
      <rect id="Rectangle_1899" data-name="Rectangle 1899" width="36.574" height="6.15" transform="translate(253.16 70.151)" fill="#00b7ff"/>
      <rect id="Rectangle_1900" data-name="Rectangle 1900" width="27.431" height="0.614" transform="translate(257.69 79.226)" fill="#bfc3c7"/>
      <rect id="Rectangle_1901" data-name="Rectangle 1901" width="27.431" height="0.614" transform="translate(257.69 81.856)" fill="#bfc3c7"/>
      <rect id="Rectangle_1902" data-name="Rectangle 1902" width="27.431" height="0.614" transform="translate(257.69 84.484)" fill="#bfc3c7"/>
      <rect id="Rectangle_1903" data-name="Rectangle 1903" width="27.431" height="0.614" transform="translate(257.69 87.113)" fill="#bfc3c7"/>
      <rect id="Rectangle_1904" data-name="Rectangle 1904" width="27.431" height="0.614" transform="translate(257.69 89.743)" fill="#bfc3c7"/>
      <rect id="Rectangle_1905" data-name="Rectangle 1905" width="27.431" height="0.614" transform="translate(257.69 92.372)" fill="#bfc3c7"/>
      <rect id="Rectangle_1906" data-name="Rectangle 1906" width="40.252" height="24.222" transform="translate(215.495 69.93)" fill="#fff"/>
      <rect id="Rectangle_1907" data-name="Rectangle 1907" width="40.252" height="6.768" transform="translate(215.495 63.162)" fill="#2ccc71"/>
      <rect id="Rectangle_1908" data-name="Rectangle 1908" width="30.19" height="0.676" transform="matrix(1, -0.004, 0.004, 1, 220.452, 73.206)" fill="#bfc3c7"/>
      <rect id="Rectangle_1909" data-name="Rectangle 1909" width="30.19" height="0.675" transform="matrix(1, -0.004, 0.004, 1, 220.462, 76.1)" fill="#bfc3c7"/>
      <rect id="Rectangle_1910" data-name="Rectangle 1910" width="30.19" height="0.675" transform="matrix(1, -0.004, 0.004, 1, 220.473, 78.994)" fill="#bfc3c7"/>
      <rect id="Rectangle_1911" data-name="Rectangle 1911" width="30.19" height="0.676" transform="matrix(1, -0.004, 0.004, 1, 220.484, 81.887)" fill="#bfc3c7"/>
      <rect id="Rectangle_1912" data-name="Rectangle 1912" width="30.19" height="0.675" transform="matrix(1, -0.004, 0.004, 1, 220.495, 84.781)" fill="#bfc3c7"/>
      <rect id="Rectangle_1913" data-name="Rectangle 1913" width="30.19" height="0.675" transform="matrix(1, -0.004, 0.004, 1, 220.506, 87.675)" fill="#bfc3c7"/>
      <path id="Path_3008" data-name="Path 3008" d="M67.476,39.266h-1a.942.942,0,0,1-.634-.274,7.633,7.633,0,0,0-1.324-3.412.983.983,0,0,1,.265-.656l.632-.633a.727.727,0,0,0,0-1.025l-.23-.23a.727.727,0,0,0-1.025,0l-.6.6a.941.941,0,0,1-.65.255A7.626,7.626,0,0,0,59.453,32.4a.977.977,0,0,1-.267-.64v-.786a.727.727,0,0,0-.725-.724h-.325a.727.727,0,0,0-.725.724v.771a.964.964,0,0,1-.27.637,7.628,7.628,0,0,0-3.506,1.461.953.953,0,0,1-.648-.258l-.55-.55a.727.727,0,0,0-1.025,0l-.231.23a.729.729,0,0,0,0,1.025l.566.565a.974.974,0,0,1,.262.652,7.64,7.64,0,0,0-1.375,3.485.943.943,0,0,1-.634.273h-.879a.727.727,0,0,0-.725.724v.325a.727.727,0,0,0,.725.725h.922a1,1,0,0,1,.646.27,7.647,7.647,0,0,0,1.47,3.329.931.931,0,0,1-.253.651l-.725.725a.729.729,0,0,0,0,1.025l.231.23a.727.727,0,0,0,1.025,0l.753-.754a.986.986,0,0,1,.657-.263,7.628,7.628,0,0,0,3.291,1.307.956.956,0,0,1,.273.638V49.33a.727.727,0,0,0,.725.725h.325a.727.727,0,0,0,.725-.725V48.182a.974.974,0,0,1,.27-.64A7.636,7.636,0,0,0,62.7,46.2a.976.976,0,0,1,.654.261l.806.807a.727.727,0,0,0,1.025,0l.23-.231a.725.725,0,0,0,0-1.024l-.792-.792a.946.946,0,0,1-.255-.65,7.627,7.627,0,0,0,1.418-3.263,1,1,0,0,1,.647-.27h1.043a.727.727,0,0,0,.724-.725V39.99a.726.726,0,0,0-.724-.724m-9.3,6.16a5.393,5.393,0,1,1,5.393-5.393,5.394,5.394,0,0,1-5.393,5.393" fill="#b4ede7"/>
      <path id="Path_3009" data-name="Path 3009" d="M58.2,43.9a3.8,3.8,0,1,1,3.8-3.8,3.808,3.808,0,0,1-3.8,3.8m0-7.125a3.321,3.321,0,1,0,3.321,3.321A3.324,3.324,0,0,0,58.2,36.772" fill="#b4ede7"/>
      <path id="Path_3010" data-name="Path 3010" d="M58.2,41.924a1.831,1.831,0,1,1,1.831-1.832A1.834,1.834,0,0,1,58.2,41.924m0-3.18a1.349,1.349,0,1,0,1.348,1.348A1.35,1.35,0,0,0,58.2,38.744" fill="#b4ede7"/>
      <rect id="Rectangle_1914" data-name="Rectangle 1914" width="12.415" height="2.613" transform="translate(123.323 67.596)"/>
      <rect id="Rectangle_1915" data-name="Rectangle 1915" width="10.563" height="2.614" transform="translate(139.44 67.814)"/>
      <path id="Path_3011" data-name="Path 3011" d="M160.793,150.091a2.594,2.594,0,0,1-2.475,2.684H35.84a2.593,2.593,0,0,1-2.474-2.684V72.26a2.592,2.592,0,0,1,2.474-2.684H158.318a2.593,2.593,0,0,1,2.475,2.684Z" fill="#bfc3c7"/>
      <path id="Path_3012" data-name="Path 3012" d="M35.84,151.468a1.3,1.3,0,0,1-1.168-1.377V72.26a1.3,1.3,0,0,1,1.168-1.376H158.318a1.3,1.3,0,0,1,1.168,1.376v77.831a1.3,1.3,0,0,1-1.168,1.377Z"/>
      <path id="Path_3013" data-name="Path 3013" d="M35.84,70.883a1.3,1.3,0,0,0-1.168,1.377v77.831a1.3,1.3,0,0,0,1.168,1.376H46.768l58.976-80.584Z" fill="#324142"/>
      <path id="Path_3014" data-name="Path 3014" d="M98.195,74.53a1.389,1.389,0,1,1-1.389-1.388,1.388,1.388,0,0,1,1.389,1.388"/>
      <path id="Path_3015" data-name="Path 3015" d="M64.082,120.16a21.723,21.723,0,0,1-.559,4.9h1.785a23.513,23.513,0,0,0-23-28.421c-.147,0-.29.008-.436.01v1.743c.146,0,.289-.011.436-.011a21.779,21.779,0,0,1,21.778,21.78" fill="#ffd8ac"/>
      <path id="Path_3016" data-name="Path 3016" d="M76.436,111.2l19.5-26.436H41.868v.121c.147,0,.29-.01.436-.01A35.3,35.3,0,0,1,76.436,111.2" fill="#ffd8ac"/>
      <path id="Path_3017" data-name="Path 3017" d="M51.451,125.059h6.661A16.548,16.548,0,0,0,42.3,103.608c-.147,0-.291.007-.436.011v24.49h9.583Z" fill="#ffd8ac"/>
      <rect id="Rectangle_1916" data-name="Rectangle 1916" width="3.485" height="0.11" transform="translate(65.607 127.998)" fill="#4ec5c2"/>
      <path id="Path_3018" data-name="Path 3018" d="M76.436,111.2a34.906,34.906,0,0,1,.8,13.856h6.016v3.05h3.486v-3.05H100.89v3.05h3.485v-3.05h14.156v3.05H151.2v11.325h.109V84.766H95.935Z" fill="#ffd8ac"/>
      <path id="Path_3019" data-name="Path 3019" d="M100.674,78.342H41.868v6.425H95.935Z" fill="#88808a"/>
      <path id="Path_3020" data-name="Path 3020" d="M100.674,78.342l-4.739,6.425h55.374V78.342Z" fill="#88808a"/>
      <rect id="Rectangle_1917" data-name="Rectangle 1917" width="109.331" height="43.232" transform="translate(41.868 84.766)" fill="#ffd8ac"/>
      <path id="Path_3021" data-name="Path 3021" d="M151.2,138.568v-10.46H118.53v10.46H104.374v-10.46h-3.485v10.46H86.733v-10.46H83.248v10.46H69.092v-10.46H65.607v10.46H55.612l-.368.647H51.451V128.108H41.868v14.266h109.44v-3.806Z" fill="#fff"/>
      <path id="Path_3022" data-name="Path 3022" d="M76.41,110.953l-.031.043A35.292,35.292,0,0,0,42.3,84.871c-.147,0-.29.009-.436.011v11.76c.146,0,.289-.01.436-.01a23.522,23.522,0,0,1,23.522,23.521c0,1.681-.486,7.971-.486,7.971H68.9v-3.006h8.321a35.729,35.729,0,0,0-.814-14.165" fill="#fff"/>
      <path id="Path_3023" data-name="Path 3023" d="M58.855,120.062a16.521,16.521,0,0,1-.743,4.9h5.41A21.773,21.773,0,0,0,42.3,98.282c-.147,0-.291.009-.436.011v5.227c.145,0,.289-.01.436-.01a16.55,16.55,0,0,1,16.551,16.552" fill="#fff"/>
      <path id="Path_3024" data-name="Path 3024" d="M77.232,124.887h-8.14v14.156H83.248V124.887Z" fill="#2ccc71"/>
      <path id="Path_3025" data-name="Path 3025" d="M86.734,124.887v14.156H100.89V124.887Z" fill="#f1c410"/>
      <path id="Path_3026" data-name="Path 3026" d="M104.375,124.887v14.156h14.156V124.887Z" fill="#e84d4d"/>
      <rect id="Rectangle_1918" data-name="Rectangle 1918" width="31.339" height="18.858" transform="translate(114.34 101.47)" fill="#fff"/>
      <rect id="Rectangle_1919" data-name="Rectangle 1919" width="31.339" height="5.27" transform="translate(114.34 96.2)" fill="#00b7ff"/>
      <rect id="Rectangle_1920" data-name="Rectangle 1920" width="23.505" height="0.526" transform="translate(118.221 103.977)" fill="#bfc3c7"/>
      <rect id="Rectangle_1921" data-name="Rectangle 1921" width="23.505" height="0.526" transform="translate(118.221 106.23)" fill="#bfc3c7"/>
      <rect id="Rectangle_1922" data-name="Rectangle 1922" width="23.505" height="0.526" transform="translate(118.221 108.482)" fill="#bfc3c7"/>
      <rect id="Rectangle_1923" data-name="Rectangle 1923" width="23.505" height="0.526" transform="translate(118.221 110.735)" fill="#bfc3c7"/>
      <rect id="Rectangle_1924" data-name="Rectangle 1924" width="23.505" height="0.526" transform="translate(118.221 112.988)" fill="#bfc3c7"/>
      <rect id="Rectangle_1925" data-name="Rectangle 1925" width="23.505" height="0.526" transform="translate(118.221 115.241)" fill="#bfc3c7"/>
      <rect id="Rectangle_1926" data-name="Rectangle 1926" width="34.491" height="20.755" transform="translate(82.065 96.011)" fill="#fff"/>
      <rect id="Rectangle_1927" data-name="Rectangle 1927" width="34.491" height="5.8" transform="translate(82.065 90.211)" fill="#2ccc71"/>
      <rect id="Rectangle_1928" data-name="Rectangle 1928" width="25.869" height="0.579" transform="matrix(1, -0.004, 0.004, 1, 86.312, 98.818)" fill="#bfc3c7"/>
      <rect id="Rectangle_1929" data-name="Rectangle 1929" width="25.869" height="0.579" transform="matrix(1, -0.004, 0.004, 1, 86.321, 101.298)" fill="#bfc3c7"/>
      <rect id="Rectangle_1930" data-name="Rectangle 1930" width="25.869" height="0.579" transform="matrix(1, -0.004, 0.004, 1, 86.331, 103.778)" fill="#bfc3c7"/>
      <rect id="Rectangle_1931" data-name="Rectangle 1931" width="25.869" height="0.579" transform="matrix(1, -0.004, 0.004, 1, 86.34, 106.257)" fill="#bfc3c7"/>
      <rect id="Rectangle_1932" data-name="Rectangle 1932" width="25.869" height="0.579" transform="matrix(1, -0.004, 0.004, 1, 86.349, 108.737)" fill="#bfc3c7"/>
      <rect id="Rectangle_1933" data-name="Rectangle 1933" width="25.869" height="0.579" transform="matrix(1, -0.004, 0.004, 1, 86.359, 111.216)" fill="#bfc3c7"/>
      <path id="Path_3027" data-name="Path 3027" d="M59.591,124.887h-8.14v14.156H65.607V124.887Z" fill="#9a52c1"/>
      <rect id="Rectangle_1934" data-name="Rectangle 1934" width="38.85" height="59.621" rx="2.654" transform="translate(158.656 113.009)"/>
      <path id="Path_3028" data-name="Path 3028" d="M161.31,113.01a2.661,2.661,0,0,0-2.654,2.654v54.313a2.662,2.662,0,0,0,2.654,2.654h.211l27.711-59.621Z" fill="#324142"/>
      <path id="Path_3029" data-name="Path 3029" d="M194.852,173.161H161.31a3.189,3.189,0,0,1-3.185-3.185V115.663a3.189,3.189,0,0,1,3.185-3.185h33.542a3.188,3.188,0,0,1,3.185,3.185v54.313a3.188,3.188,0,0,1-3.185,3.185M161.31,113.54a2.125,2.125,0,0,0-2.123,2.123v54.313a2.125,2.125,0,0,0,2.123,2.123h33.542a2.126,2.126,0,0,0,2.124-2.123V115.663a2.126,2.126,0,0,0-2.124-2.123Z" fill="#bfc3c7"/>
      <rect id="Rectangle_1935" data-name="Rectangle 1935" width="29.192" height="47.326" transform="translate(163.839 118.582)" fill="#ffd8ac"/>
      <rect id="Rectangle_1936" data-name="Rectangle 1936" width="28.727" height="4.998" transform="translate(164.038 160.811)" fill="#fff"/>
      <rect id="Rectangle_1937" data-name="Rectangle 1937" width="29.192" height="5.484" transform="translate(163.839 118.583)" fill="#88808a"/>
      <path id="Path_3030" data-name="Path 3030" d="M193.3,166.173H163.574V118.317H193.3Zm-29.191-.53h28.661v-46.8H164.1Z"/>
      <path id="Path_3031" data-name="Path 3031" d="M179.231,116.172a1.128,1.128,0,1,1-1.128-1.128,1.128,1.128,0,0,1,1.128,1.128"/>
      <rect id="Rectangle_1938" data-name="Rectangle 1938" width="13.711" height="8.25" transform="translate(177.314 139.725)" fill="#fff"/>
      <rect id="Rectangle_1939" data-name="Rectangle 1939" width="13.711" height="2.305" transform="translate(177.314 137.419)" fill="#00b7ff"/>
      <rect id="Rectangle_1940" data-name="Rectangle 1940" width="10.283" height="0.23" transform="translate(179.012 140.822)" fill="#bfc3c7"/>
      <rect id="Rectangle_1941" data-name="Rectangle 1941" width="10.283" height="0.23" transform="translate(179.012 141.807)" fill="#bfc3c7"/>
      <rect id="Rectangle_1942" data-name="Rectangle 1942" width="10.283" height="0.23" transform="translate(179.012 142.793)" fill="#bfc3c7"/>
      <rect id="Rectangle_1943" data-name="Rectangle 1943" width="10.283" height="0.23" transform="translate(179.012 143.778)" fill="#bfc3c7"/>
      <rect id="Rectangle_1944" data-name="Rectangle 1944" width="10.283" height="0.23" transform="translate(179.012 144.764)" fill="#bfc3c7"/>
      <rect id="Rectangle_1945" data-name="Rectangle 1945" width="10.283" height="0.23" transform="translate(179.012 145.75)" fill="#bfc3c7"/>
      <rect id="Rectangle_1946" data-name="Rectangle 1946" width="13.177" height="7.929" transform="translate(177.529 127.83)" fill="#fff"/>
      <rect id="Rectangle_1947" data-name="Rectangle 1947" width="13.177" height="2.216" transform="translate(177.529 125.614)" fill="#2ccc71"/>
      <rect id="Rectangle_1948" data-name="Rectangle 1948" width="9.883" height="0.221" transform="translate(179.152 128.902) rotate(-0.215)" fill="#bfc3c7"/>
      <rect id="Rectangle_1949" data-name="Rectangle 1949" width="9.883" height="0.221" transform="translate(179.155 129.85) rotate(-0.215)" fill="#bfc3c7"/>
      <rect id="Rectangle_1950" data-name="Rectangle 1950" width="9.883" height="0.221" transform="translate(179.159 130.797) rotate(-0.215)" fill="#bfc3c7"/>
      <rect id="Rectangle_1951" data-name="Rectangle 1951" width="9.883" height="0.221" transform="translate(179.163 131.744) rotate(-0.215)" fill="#bfc3c7"/>
      <rect id="Rectangle_1952" data-name="Rectangle 1952" width="9.883" height="0.221" transform="translate(179.166 132.691) rotate(-0.215)" fill="#bfc3c7"/>
      <rect id="Rectangle_1953" data-name="Rectangle 1953" width="9.883" height="0.221" transform="translate(179.169 133.639) rotate(-0.215)" fill="#bfc3c7"/>
      <path id="Path_3032" data-name="Path 3032" d="M164.418,125.207v9.736a18.4,18.4,0,0,1,0,24.03v4.046h6.3a25.841,25.841,0,0,0-6.3-37.812" fill="#fff"/>
      <rect id="Rectangle_1954" data-name="Rectangle 1954" width="5.277" height="5.277" transform="translate(166.15 158.164)" fill="#9a52c1"/>
      <rect id="Rectangle_1955" data-name="Rectangle 1955" width="5.277" height="5.277" transform="translate(172.621 158.164)" fill="#2ccc71"/>
      <rect id="Rectangle_1956" data-name="Rectangle 1956" width="5.277" height="5.277" transform="translate(179.056 158.159)" fill="#f1c410"/>
      <rect id="Rectangle_1957" data-name="Rectangle 1957" width="5.277" height="5.277" transform="translate(185.509 158.172)" fill="#d86741"/>
    </g>
  </g>
</svg>
