<svg id="knowledge-1" xmlns="http://www.w3.org/2000/svg" xmlns:xlink="http://www.w3.org/1999/xlink" viewBox="0 0 800 450.69"><defs><style>.cls-1{fill:none;}.cls-2{fill:#83ddd9;}.cls-3{fill:#b4ede7;}.cls-4{clip-path:url(#clip-path);}.cls-5{fill:#324142;}.cls-6{fill:#ffd8ac;}.cls-7{fill:#fff;}.cls-8{fill:#88808a;}.cls-9{fill:#0068b5;}.cls-10{fill:#9a52c1;}.cls-11{fill:#2ccc71;}.cls-12{fill:#f1c410;}.cls-13{fill:#e84d4d;}.cls-14{fill:#00b7ff;}.cls-15{fill:#bfc3c7;}.cls-16{fill:#4ec5c2;}.cls-17{fill:#d86741;}</style><clipPath id="clip-path"><rect class="cls-1" width="800" height="450"/></clipPath></defs><rect id="Rectangle_1886" data-name="Rectangle 1886" class="cls-2" width="800" height="450"/><rect id="Rectangle_1887" data-name="Rectangle 1887" class="cls-3" x="509.77" y="417.1" width="248.47" height="1.19"/><rect id="Rectangle_1888" data-name="Rectangle 1888" class="cls-3" x="756.45" y="267.82" width="1.19" height="150.28"/><rect id="Rectangle_1889" data-name="Rectangle 1889" class="cls-3" x="588.82" y="387.68" width="143.18" height="1.19"/><g id="Group_1436" data-name="Group 1436"><g class="cls-4"><g id="Group_1435" data-name="Group 1435"><path id="Path_2945" data-name="Path 2945" class="cls-3" d="M730.22,388.69c-.39-25.29-.39-51.86,0-76.83l1.2,0c-.4,25-.4,51.51,0,76.79Z"/><path id="Path_2946" data-name="Path 2946" class="cls-3" d="M761,418.1a4,4,0,1,1-4-4,4,4,0,0,1,4,4h0"/><path id="Path_2947" data-name="Path 2947" class="cls-3" d="M513.74,417.7a4,4,0,1,1-4-4,4,4,0,0,1,4,4h0"/><path id="Path_2948" data-name="Path 2948" class="cls-3" d="M593.65,388.28a4,4,0,1,1-4-4,4,4,0,0,1,4,4h0"/><path id="Path_2949" data-name="Path 2949" class="cls-3" d="M734.39,387.48a4,4,0,1,1-4-4,4,4,0,0,1,4,4h0"/><path id="Path_2950" data-name="Path 2950" class="cls-3" d="M734.79,311.87a4,4,0,1,1-4-4,4,4,0,0,1,4,4"/><path id="Path_2951" data-name="Path 2951" class="cls-3" d="M761.42,266.22a4,4,0,1,1-4-4,4,4,0,0,1,4,4h0"/><path id="Path_2952" data-name="Path 2952" class="cls-3" d="M511.6,414.8h-3.33a3.15,3.15,0,0,1-2.11-.91,25.42,25.42,0,0,0-4.41-11.36,3.33,3.33,0,0,1,.89-2.18l2.11-2.1a2.43,2.43,0,0,0,0-3.41l-.77-.77a2.41,2.41,0,0,0-3.41,0l-2,2a3.16,3.16,0,0,1-2.16.85,25.41,25.41,0,0,0-11.49-5,3.27,3.27,0,0,1-.89-2.13V387.2a2.42,2.42,0,0,0-2.41-2.41h-1.08a2.43,2.43,0,0,0-2.42,2.41v2.58a3.18,3.18,0,0,1-.89,2.12,25.41,25.41,0,0,0-11.67,4.86,3.19,3.19,0,0,1-2.15-.86l-1.83-1.83a2.41,2.41,0,0,0-3.41,0l-.77.77a2.42,2.42,0,0,0,0,3.4l1.88,1.88a3.27,3.27,0,0,1,.88,2.18,25.35,25.35,0,0,0-4.58,11.59,3.13,3.13,0,0,1-2.11.91h-2.92a2.41,2.41,0,0,0-2.41,2.41v1.08a2.41,2.41,0,0,0,2.41,2.41h3.07a3.38,3.38,0,0,1,2.15.89,25.41,25.41,0,0,0,4.89,11.08,3.19,3.19,0,0,1-.85,2.17l-2.41,2.41a2.41,2.41,0,0,0,0,3.41l.77.76a2.41,2.41,0,0,0,3.41,0l2.5-2.5a3.28,3.28,0,0,1,2.19-.89,25.62,25.62,0,0,0,11,4.35,3.16,3.16,0,0,1,.91,2.12v3.78a2.42,2.42,0,0,0,2.41,2.41h1.08a2.42,2.42,0,0,0,2.41-2.41v-3.82a3.28,3.28,0,0,1,.89-2.14,25.29,25.29,0,0,0,10.79-4.45,3.17,3.17,0,0,1,2.18.87l2.68,2.68a2.41,2.41,0,0,0,3.41,0l.77-.77a2.41,2.41,0,0,0,0-3.41l-2.64-2.63a3.21,3.21,0,0,1-.85-2.16A25.31,25.31,0,0,0,506,421.59a3.33,3.33,0,0,1,2.16-.89h3.46a2.43,2.43,0,0,0,2.42-2.41v-1.08a2.43,2.43,0,0,0-2.42-2.41m-30.93,20.49a17.95,17.95,0,1,1,17.94-18h0a17.94,17.94,0,0,1-17.94,17.94"/><path id="Path_2953" data-name="Path 2953" class="cls-3" d="M480.73,430.2a12.67,12.67,0,1,1,12.67-12.66h0a12.66,12.66,0,0,1-12.67,12.66m0-23.7a11.05,11.05,0,1,0,11,11.06,11,11,0,0,0-11-11.06"/><path id="Path_2954" data-name="Path 2954" class="cls-3" d="M480.73,423.64a6.09,6.09,0,1,1,6.09-6.09,6.09,6.09,0,0,1-6.09,6.09m0-10.58a4.49,4.49,0,1,0,4.49,4.49,4.48,4.48,0,0,0-4.49-4.49"/><path id="Path_2955" data-name="Path 2955" class="cls-3" d="M249.33,99.18h-3a2.84,2.84,0,0,1-1.92-.83,23.12,23.12,0,0,0-4-10.32,3,3,0,0,1,.8-2l1.91-1.91a2.2,2.2,0,0,0,0-3.11l-.69-.7a2.2,2.2,0,0,0-3.11,0l-1.83,1.83a2.87,2.87,0,0,1-2,.77,23,23,0,0,0-10.44-4.52,3,3,0,0,1-.81-1.94V74.09a2.2,2.2,0,0,0-2.19-2.2h-1a2.22,2.22,0,0,0-2.2,2.2v2.33a2.91,2.91,0,0,1-.81,1.93,23.08,23.08,0,0,0-10.61,4.41,2.86,2.86,0,0,1-2-.78l-1.66-1.66a2.2,2.2,0,0,0-3.11,0h0L200,81a2.18,2.18,0,0,0,0,3.1l1.71,1.71a2.94,2.94,0,0,1,.79,2,23.1,23.1,0,0,0-4.16,10.54,2.88,2.88,0,0,1-1.92.83h-2.67a2.2,2.2,0,0,0-2.19,2.19v1a2.21,2.21,0,0,0,2.19,2.2h2.8a3,3,0,0,1,1.95.81A23,23,0,0,0,203,115.42a2.81,2.81,0,0,1-.77,2l-2.19,2.2a2.19,2.19,0,0,0,0,3.1h0l.7.69a2.2,2.2,0,0,0,3.11,0l2.29-2.28a3,3,0,0,1,2-.8,23.13,23.13,0,0,0,10,4,2.83,2.83,0,0,1,.82,1.93v3.42a2.22,2.22,0,0,0,2.2,2.2h1a2.2,2.2,0,0,0,2.19-2.2v-3.46a3,3,0,0,1,.82-1.94,23,23,0,0,0,9.81-4.06,2.94,2.94,0,0,1,2,.79l2.45,2.45a2.2,2.2,0,0,0,3.11,0l.69-.7a2.2,2.2,0,0,0,0-3.11l-2.42-2.39a2.86,2.86,0,0,1-.77-2,23,23,0,0,0,4.29-9.88,3,3,0,0,1,2-.81h3.14a2.22,2.22,0,0,0,2.2-2.2v-1a2.2,2.2,0,0,0-2.2-2.19m-28.12,18.64a16.32,16.32,0,1,1,16.32-16.32,16.32,16.32,0,0,1-16.32,16.32"/><path id="Path_2956" data-name="Path 2956" class="cls-3" d="M221.27,113.19a11.51,11.51,0,1,1,11.51-11.51,11.51,11.51,0,0,1-11.51,11.51m0-21.56a10.05,10.05,0,1,0,10,10.05h0a10.06,10.06,0,0,0-10-10.05"/><path id="Path_2957" data-name="Path 2957" class="cls-3" d="M221.27,107.22a5.54,5.54,0,1,1,5.54-5.54h0a5.55,5.55,0,0,1-5.54,5.54m0-9.62a4.08,4.08,0,1,0,4.08,4.08,4.08,4.08,0,0,0-4.08-4.08"/><path id="Path_2958" data-name="Path 2958" class="cls-3" d="M358.39,337.2h-5a4.72,4.72,0,0,1-3.15-1.36,38,38,0,0,0-6.59-17,4.9,4.9,0,0,1,1.32-3.27l3.14-3.15a3.6,3.6,0,0,0,0-5.1L347,306.2a3.6,3.6,0,0,0-5.1,0l-3,3a4.66,4.66,0,0,1-3.23,1.27A38,38,0,0,0,318.46,303a4.88,4.88,0,0,1-1.33-3.19v-3.91a3.61,3.61,0,0,0-3.61-3.6H311.9a3.6,3.6,0,0,0-3.6,3.6v3.84A4.84,4.84,0,0,1,307,303a37.91,37.91,0,0,0-17.45,7.27,4.74,4.74,0,0,1-3.22-1.28l-2.74-2.74a3.62,3.62,0,0,0-5.1,0l-1.15,1.14a3.62,3.62,0,0,0,0,5.11l2.82,2.82a4.88,4.88,0,0,1,1.3,3.24,37.86,37.86,0,0,0-6.84,17.34,4.72,4.72,0,0,1-3.16,1.35H267a3.61,3.61,0,0,0-3.6,3.61v1.62A3.6,3.6,0,0,0,267,346h4.59a5,5,0,0,1,3.22,1.34,38.07,38.07,0,0,0,7.32,16.57,4.66,4.66,0,0,1-1.27,3.24l-3.6,3.6a3.62,3.62,0,0,0,0,5.1l1.15,1.15a3.62,3.62,0,0,0,5.1,0l3.75-3.75a4.88,4.88,0,0,1,3.26-1.32,37.9,37.9,0,0,0,16.38,6.51,4.73,4.73,0,0,1,1.36,3.17v5.64a3.63,3.63,0,0,0,3.61,3.61h1.61a3.62,3.62,0,0,0,3.61-3.61v-5.71a4.81,4.81,0,0,1,1.35-3.19,38,38,0,0,0,16.14-6.67,4.83,4.83,0,0,1,3.26,1.3l4,4a3.6,3.6,0,0,0,5.1,0l1.14-1.14a3.6,3.6,0,0,0,0-5.1l-3.94-3.94a4.75,4.75,0,0,1-1.27-3.24A38,38,0,0,0,350,347.37,5,5,0,0,1,353.2,346h5.19a3.61,3.61,0,0,0,3.61-3.6v-1.62a3.63,3.63,0,0,0-3.61-3.61m-46.27,30.67A26.85,26.85,0,1,1,339,341h0a26.84,26.84,0,0,1-26.84,26.84"/><path id="Path_2959" data-name="Path 2959" class="cls-3" d="M312.22,360.24a18.93,18.93,0,1,1,18.93-18.93,18.91,18.91,0,0,1-18.93,18.93m0-35.46a16.53,16.53,0,1,0,16.53,16.54h0a16.55,16.55,0,0,0-16.53-16.53"/><path id="Path_2960" data-name="Path 2960" class="cls-3" d="M312.22,350.43a9.12,9.12,0,1,1,9.11-9.11,9.11,9.11,0,0,1-9.11,9.11m0-15.83a6.71,6.71,0,1,0,6.71,6.72h0a6.72,6.72,0,0,0-6.71-6.71"/><path id="Path_2961" data-name="Path 2961" class="cls-3" d="M318.15,87.86H268.88V41.36h49.27Zm-48.27-1h47.26V42.37H269.88Z"/><path id="Path_2962" data-name="Path 2962" class="cls-3" d="M366.42,87.86H317.14V41.36h49.28Zm-48.27-1h47.26V42.37H318.15Z"/><path id="Path_2963" data-name="Path 2963" class="cls-3" d="M414.69,87.86H365.41V41.36h49.28Zm-48.27-1h47.26V42.37H366.42Z"/><path id="Path_2964" data-name="Path 2964" class="cls-3" d="M463,87.86H413.68V41.36H463Zm-48.27-1h47.25V42.37H414.69Z"/><path id="Path_2965" data-name="Path 2965" class="cls-3" d="M511.22,87.86H461.94V41.36h49.28Zm-48.26-1h47.26V42.37H463Z"/><path id="Path_2966" data-name="Path 2966" class="cls-3" d="M559.49,87.86H510.22V41.36h49.27Zm-48.27-1h47.26V42.37H511.22Z"/><path id="Path_2967" data-name="Path 2967" class="cls-3" d="M318.15,133.35H268.88V86.85h49.27Zm-48.27-1h47.26V87.86H269.88Z"/><path id="Path_2968" data-name="Path 2968" class="cls-3" d="M366.42,133.35H317.14V86.85h49.28Zm-48.27-1h47.26V87.86H318.15Z"/><path id="Path_2969" data-name="Path 2969" class="cls-3" d="M414.69,133.35H365.41V86.85h49.28Zm-48.27-1h47.26V87.86H366.42Z"/><path id="Path_2970" data-name="Path 2970" class="cls-3" d="M463,133.35H413.68V86.85H463Zm-48.27-1h47.25V87.86H414.69Z"/><path id="Path_2971" data-name="Path 2971" class="cls-3" d="M511.22,133.35H461.94V86.85h49.28Zm-48.26-1h47.26V87.86H463Z"/><path id="Path_2972" data-name="Path 2972" class="cls-3" d="M559.49,133.35H510.22V86.85h49.27Zm-48.27-1h47.26V87.86H511.22Z"/><path id="Path_2973" data-name="Path 2973" class="cls-3" d="M318.15,178.83H268.88V132.34h49.27Zm-48.27-1h47.26V133.33H269.88Z"/><path id="Path_2974" data-name="Path 2974" class="cls-3" d="M366.42,178.83H317.14V132.34h49.28Zm-48.27-1h47.26V133.33H318.15Z"/><path id="Path_2975" data-name="Path 2975" class="cls-3" d="M414.69,178.83H365.41V132.34h49.28Zm-48.27-1h47.26V133.33H366.42Z"/><path id="Path_2976" data-name="Path 2976" class="cls-3" d="M463,178.83H413.68V132.34H463Zm-48.27-1h47.25V133.33H414.69Z"/><path id="Path_2977" data-name="Path 2977" class="cls-3" d="M511.22,178.83H461.94V132.34h49.28Zm-48.26-1h47.26V133.33H463Z"/><path id="Path_2978" data-name="Path 2978" class="cls-3" d="M559.49,178.83H510.22V132.34h49.27Zm-48.27-1h47.26V133.33H511.22Z"/><path id="Path_2979" data-name="Path 2979" class="cls-3" d="M318.15,224.32H268.88v-46.5h49.27Zm-48.27-1h47.26V178.83H269.88Z"/><path id="Path_2980" data-name="Path 2980" class="cls-3" d="M366.42,224.32H317.14v-46.5h49.28Zm-48.27-1h47.26V178.83H318.15Z"/><path id="Path_2981" data-name="Path 2981" class="cls-3" d="M414.69,224.32H365.41v-46.5h49.28Zm-48.27-1h47.26V178.83H366.42Z"/><path id="Path_2982" data-name="Path 2982" class="cls-3" d="M463,224.32H413.68v-46.5H463Zm-48.27-1h47.25V178.83H414.69Z"/><path id="Path_2983" data-name="Path 2983" class="cls-3" d="M511.22,224.32H461.94v-46.5h49.28Zm-48.26-1h47.26V178.83H463Z"/><path id="Path_2984" data-name="Path 2984" class="cls-3" d="M559.49,224.32H510.22v-46.5h49.27Zm-48.27-1h47.26V178.83H511.22Z"/><path id="Path_2985" data-name="Path 2985" class="cls-3" d="M318.15,269.81H268.88v-46.5h49.27Zm-48.27-1h47.26V224.32H269.88Z"/><path id="Path_2986" data-name="Path 2986" class="cls-3" d="M366.42,269.81H317.14v-46.5h49.28Zm-48.27-1h47.26V224.32H318.15Z"/><path id="Path_2987" data-name="Path 2987" class="cls-3" d="M414.69,269.81H365.41v-46.5h49.28Zm-48.27-1h47.26V224.32H366.42Z"/><path id="Path_2988" data-name="Path 2988" class="cls-3" d="M463,269.81H413.68v-46.5H463Zm-48.27-1h47.25V224.32H414.69Z"/><path id="Path_2989" data-name="Path 2989" class="cls-3" d="M511.22,269.81H461.94v-46.5h49.28Zm-48.26-1h47.26V224.32H463Z"/><path id="Path_2990" data-name="Path 2990" class="cls-3" d="M559.49,269.81H510.22v-46.5h49.27Zm-48.27-1h47.26V224.32H511.22Z"/><path id="Path_2991" data-name="Path 2991" class="cls-3" d="M277.3,340.07H40V182h206v-.81H39.16V340.89H277.3Z"/><path id="Path_2992" data-name="Path 2992" class="cls-3" d="M95.56,259.07H39.16v.81h56.4Z"/><path id="Path_2993" data-name="Path 2993" class="cls-3" d="M270.69,340.37a2.71,2.71,0,1,1-2.71-2.7h0a2.7,2.7,0,0,1,2.71,2.7"/><path id="Path_2994" data-name="Path 2994" class="cls-3" d="M244,181.58a2.71,2.71,0,1,1-2.71-2.69h0a2.7,2.7,0,0,1,2.71,2.7h0"/><path id="Path_2995" data-name="Path 2995" class="cls-3" d="M42.67,182A2.71,2.71,0,1,1,40,179.28,2.7,2.7,0,0,1,42.67,182h0"/><path id="Path_2996" data-name="Path 2996" class="cls-3" d="M42.67,259.27A2.71,2.71,0,1,1,40,256.56a2.7,2.7,0,0,1,2.71,2.71h0"/><path id="Path_2997" data-name="Path 2997" class="cls-3" d="M42.67,340.07A2.71,2.71,0,1,1,40,337.36h0a2.71,2.71,0,0,1,2.71,2.71"/><path id="Path_2998" data-name="Path 2998" class="cls-3" d="M166.82,181.73a2.71,2.71,0,1,1-2.71-2.71,2.7,2.7,0,0,1,2.71,2.71h0"/><path id="Path_2999" data-name="Path 2999" d="M501.39,321.18c-29.52,0-60.18,9.6-63.39,10.63v4.11c2.13,7.32,29.91,13.25,63.39,13.25,31.56,0,57.71-5.14,62.37-11.85v-5.95c-4.7-7.59-32.45-10.19-62.37-10.19"/><path id="Path_3000" data-name="Path 3000" class="cls-5" d="M563.9,331.91c0,7.73-28.25,14-63.11,14s-63.1-6.27-63.1-14,28.25-14,63.1-14,63.11,6.26,63.11,14"/><rect id="Rectangle_1890" data-name="Rectangle 1890" x="312.71" y="70.82" width="373.24" height="226.46" rx="5.9"/><path id="Path_3001" data-name="Path 3001" d="M524.69,279.58H477.51V330.3h.07c.22,1.18,10.65,2.14,23.51,2.14s23.28-1,23.5-2.14h.1Z"/><path id="Path_3002" data-name="Path 3002" class="cls-5" d="M318.61,70.82a5.91,5.91,0,0,0-5.9,5.89V291.38a5.92,5.92,0,0,0,5.9,5.9h23.45L538.48,70.82Z"/><rect id="Rectangle_1891" data-name="Rectangle 1891" class="cls-6" x="331.84" y="89.1" width="336.15" height="181.11"/><rect id="Rectangle_1892" data-name="Rectangle 1892" class="cls-7" x="332.43" y="238.14" width="335.56" height="31.26"/><path id="Path_3003" data-name="Path 3003" class="cls-7" d="M412.58,229.23a86.46,86.46,0,0,1-11.33,42.89h39a122.28,122.28,0,0,0-108.57-165v35.45a86.85,86.85,0,0,1,80.93,86.64"/><path id="Path_3004" data-name="Path 3004" class="cls-7" d="M388.2,229.23a62.24,62.24,0,0,1-17.06,42.89h15.22a74.26,74.26,0,0,0-54.71-116.91V167a62.47,62.47,0,0,1,56.55,62.19"/><rect id="Rectangle_1893" data-name="Rectangle 1893" class="cls-8" x="331.84" y="89.1" width="336.15" height="16.32"/><path id="Path_3005" data-name="Path 3005" d="M670.35,272.78H331.85V85.83h338.5ZM334.2,270.42H668V88.2H334.22Z"/><path id="Path_3006" data-name="Path 3006" class="cls-5" d="M500.7,297.27v35.16h.39c12.85,0,23.28-.95,23.5-2.14h.1v-33Z"/><path id="Path_3007" data-name="Path 3007" class="cls-9" d="M647.64,288.43a5,5,0,1,1,5-5,5,5,0,0,1-5,5m0-8.85a3.84,3.84,0,1,0,3.84,3.83,3.84,3.84,0,0,0-3.84-3.83"/><rect id="Rectangle_1894" data-name="Rectangle 1894" class="cls-10" x="458.84" y="216.46" width="31.46" height="31.46"/><rect id="Rectangle_1895" data-name="Rectangle 1895" class="cls-11" x="506.89" y="216.46" width="31.46" height="31.46"/><rect id="Rectangle_1896" data-name="Rectangle 1896" class="cls-12" x="555.56" y="216.46" width="31.46" height="31.46"/><rect id="Rectangle_1897" data-name="Rectangle 1897" class="cls-13" x="603.61" y="216.46" width="31.46" height="31.46"/><rect id="Rectangle_1898" data-name="Rectangle 1898" class="cls-7" x="562.58" y="152.89" width="81.28" height="48.91"/><rect id="Rectangle_1899" data-name="Rectangle 1899" class="cls-14" x="562.58" y="139.22" width="81.28" height="13.67"/><rect id="Rectangle_1900" data-name="Rectangle 1900" class="cls-15" x="572.64" y="159.39" width="60.96" height="1.36"/><rect id="Rectangle_1901" data-name="Rectangle 1901" class="cls-15" x="572.64" y="165.24" width="60.96" height="1.36"/><rect id="Rectangle_1902" data-name="Rectangle 1902" class="cls-15" x="572.64" y="171.08" width="60.96" height="1.36"/><rect id="Rectangle_1903" data-name="Rectangle 1903" class="cls-15" x="572.64" y="176.92" width="60.96" height="1.36"/><rect id="Rectangle_1904" data-name="Rectangle 1904" class="cls-15" x="572.64" y="182.76" width="60.96" height="1.36"/><rect id="Rectangle_1905" data-name="Rectangle 1905" class="cls-15" x="572.64" y="188.6" width="60.96" height="1.36"/><rect id="Rectangle_1906" data-name="Rectangle 1906" class="cls-7" x="478.88" y="138.73" width="89.45" height="53.83"/><rect id="Rectangle_1907" data-name="Rectangle 1907" class="cls-11" x="478.88" y="123.69" width="89.45" height="15.04"/><rect id="Rectangle_1908" data-name="Rectangle 1908" class="cls-15" x="489.9" y="145.88" width="67.09" height="1.5" transform="translate(-0.58 2.09) rotate(-0.23)"/><rect id="Rectangle_1909" data-name="Rectangle 1909" class="cls-15" x="489.92" y="152.31" width="67.09" height="1.5" transform="translate(-0.61 2.1) rotate(-0.23)"/><rect id="Rectangle_1910" data-name="Rectangle 1910" class="cls-15" x="489.94" y="158.74" width="67.09" height="1.5" transform="translate(-0.63 2.1) rotate(-0.23)"/><rect id="Rectangle_1911" data-name="Rectangle 1911" class="cls-15" x="489.97" y="165.17" width="67.09" height="1.5" transform="translate(-0.66 2.1) rotate(-0.23)"/><rect id="Rectangle_1912" data-name="Rectangle 1912" class="cls-15" x="489.99" y="171.6" width="67.09" height="1.5" transform="translate(-0.69 2.1) rotate(-0.23)"/><rect id="Rectangle_1913" data-name="Rectangle 1913" class="cls-15" x="490.02" y="178.03" width="67.09" height="1.5" transform="translate(-0.71 2.1) rotate(-0.23)"/><path id="Path_3008" data-name="Path 3008" class="cls-3" d="M150,70.59h-2.23a2,2,0,0,1-1.4-.61,17.07,17.07,0,0,0-2.95-7.58,2.21,2.21,0,0,1,.59-1.46l1.41-1.4a1.63,1.63,0,0,0,0-2.28l-.51-.51a1.61,1.61,0,0,0-2.28,0l-1.34,1.33a2.08,2.08,0,0,1-1.44.57,17,17,0,0,0-7.68-3.32,2.15,2.15,0,0,1-.6-1.42V52.16a1.61,1.61,0,0,0-1.61-1.6h-.72a1.61,1.61,0,0,0-1.61,1.6v1.72a2.13,2.13,0,0,1-.6,1.41,17,17,0,0,0-7.79,3.25,2.12,2.12,0,0,1-1.44-.57l-1.22-1.23a1.63,1.63,0,0,0-2.28,0l-.51.52a1.6,1.6,0,0,0,0,2.27L115,60.79a2.17,2.17,0,0,1,.59,1.45A17,17,0,0,0,112.52,70a2.09,2.09,0,0,1-1.41.61h-2a1.61,1.61,0,0,0-1.61,1.61v.72a1.61,1.61,0,0,0,1.61,1.61h2a2.2,2.2,0,0,1,1.43.6,17,17,0,0,0,3.27,7.4,2.11,2.11,0,0,1-.56,1.45l-1.61,1.61a1.6,1.6,0,0,0,0,2.27l.51.52a1.63,1.63,0,0,0,2.28,0l1.67-1.68a2.15,2.15,0,0,1,1.46-.58A17.05,17.05,0,0,0,127,89a2.11,2.11,0,0,1,.61,1.42V93a1.62,1.62,0,0,0,1.61,1.61h.72A1.62,1.62,0,0,0,131.52,93V90.4a2.22,2.22,0,0,1,.6-1.42,16.93,16.93,0,0,0,7.21-3,2.2,2.2,0,0,1,1.46.58l1.79,1.79a1.61,1.61,0,0,0,2.28,0l.51-.51a1.63,1.63,0,0,0,0-2.28l-1.76-1.76a2.08,2.08,0,0,1-.57-1.44,16.84,16.84,0,0,0,3.15-7.25,2.2,2.2,0,0,1,1.44-.6H150a1.62,1.62,0,0,0,1.61-1.61V72.2A1.62,1.62,0,0,0,150,70.59M129.28,84.28a12,12,0,1,1,12-12,12,12,0,0,1-12,12"/><path id="Path_3009" data-name="Path 3009" class="cls-3" d="M129.33,80.89a8.45,8.45,0,1,1,8.45-8.45h0a8.47,8.47,0,0,1-8.45,8.45m0-15.83a7.38,7.38,0,1,0,7.38,7.38h0a7.38,7.38,0,0,0-7.38-7.39"/><path id="Path_3010" data-name="Path 3010" class="cls-3" d="M129.33,76.5a4.07,4.07,0,1,1,4.07-4.07,4.07,4.07,0,0,1-4.07,4.07m0-7.07a3,3,0,1,0,3,3h0a3,3,0,0,0-3-3"/><rect id="Rectangle_1914" data-name="Rectangle 1914" x="274.05" y="133.55" width="27.59" height="5.81"/><rect id="Rectangle_1915" data-name="Rectangle 1915" x="309.87" y="134.03" width="23.47" height="5.81"/><path id="Path_3011" data-name="Path 3011" class="cls-15" d="M357.32,316.87a5.76,5.76,0,0,1-5.5,6H79.64a5.75,5.75,0,0,1-5.49-6v-173a5.75,5.75,0,0,1,5.49-6H351.82a5.76,5.76,0,0,1,5.5,6Z"/><path id="Path_3012" data-name="Path 3012" d="M79.64,319.93a2.9,2.9,0,0,1-2.59-3.06v-173a2.9,2.9,0,0,1,2.59-3.06H351.82a2.9,2.9,0,0,1,2.59,3.06v173a2.89,2.89,0,0,1-2.59,3.06Z"/><path id="Path_3013" data-name="Path 3013" class="cls-5" d="M79.64,140.85a2.9,2.9,0,0,0-2.59,3.06v173a2.9,2.9,0,0,0,2.59,3.06h24.29L235,140.85Z"/><path id="Path_3014" data-name="Path 3014" d="M218.21,149a3.09,3.09,0,1,1-3.09-3.09h0a3.08,3.08,0,0,1,3.09,3.08h0"/><path id="Path_3015" data-name="Path 3015" class="cls-6" d="M142.4,250.36a47.47,47.47,0,0,1-1.24,10.88h4A52.24,52.24,0,0,0,94,198.09l-1,0V202l1,0a48.39,48.39,0,0,1,48.39,48.4h0"/><path id="Path_3016" data-name="Path 3016" class="cls-6" d="M169.86,230.44l43.33-58.74H93V172c.33,0,.64,0,1,0a78.46,78.46,0,0,1,75.85,58.5"/><path id="Path_3017" data-name="Path 3017" class="cls-6" d="M114.34,261.24h14.8A36.77,36.77,0,0,0,94,213.57c-.33,0-.65,0-1,0V268h21.3Z"/><rect id="Rectangle_1916" data-name="Rectangle 1916" class="cls-16" x="145.79" y="267.77" width="7.74" height="0.24"/><path id="Path_3018" data-name="Path 3018" class="cls-6" d="M169.86,230.44a77.66,77.66,0,0,1,1.78,30.8H185V268h7.75v-6.77H224.2V268h7.74v-6.77H263.4V268H336v25.17h.24V171.7h-123Z"/><path id="Path_3019" data-name="Path 3019" class="cls-8" d="M223.72,157.43H93V171.7H213.19Z"/><path id="Path_3020" data-name="Path 3020" class="cls-8" d="M223.72,157.43,213.19,171.7H336.24V157.43Z"/><rect id="Rectangle_1917" data-name="Rectangle 1917" class="cls-6" x="93.04" y="171.7" width="242.96" height="96.07"/><path id="Path_3021" data-name="Path 3021" class="cls-7" d="M336,291.26V268H263.4v23.24H231.94V268H224.2v23.24H192.74V268H185v23.24H153.54V268h-7.75v23.24H123.58l-.82,1.44h-8.42V268H93v31.7h243.2v-8.46Z"/><path id="Path_3022" data-name="Path 3022" class="cls-7" d="M169.8,229.9l-.07.09A78.41,78.41,0,0,0,94,171.94l-1,0v26.13l1,0a52.27,52.27,0,0,1,52.27,52.27c0,3.74-1.08,17.71-1.08,17.71h7.92v-6.68H171.6a79.34,79.34,0,0,0-1.81-31.47"/><path id="Path_3023" data-name="Path 3023" class="cls-7" d="M130.79,250.14A36.91,36.91,0,0,1,129.14,261h12A48.37,48.37,0,0,0,94,201.74l-1,0v11.62l1,0a36.77,36.77,0,0,1,36.78,36.77h0"/><path id="Path_3024" data-name="Path 3024" class="cls-11" d="M171.63,260.86H153.54v31.46H185V260.86Z"/><path id="Path_3025" data-name="Path 3025" class="cls-12" d="M192.74,260.86v31.46H224.2V260.86Z"/><path id="Path_3026" data-name="Path 3026" class="cls-13" d="M231.94,260.86v31.46H263.4V260.86Z"/><rect id="Rectangle_1918" data-name="Rectangle 1918" class="cls-7" x="254.09" y="208.82" width="69.64" height="41.91"/><rect id="Rectangle_1919" data-name="Rectangle 1919" class="cls-14" x="254.09" y="197.11" width="69.64" height="11.71"/><rect id="Rectangle_1920" data-name="Rectangle 1920" class="cls-15" x="262.71" y="214.39" width="52.23" height="1.17"/><rect id="Rectangle_1921" data-name="Rectangle 1921" class="cls-15" x="262.71" y="219.4" width="52.23" height="1.17"/><rect id="Rectangle_1922" data-name="Rectangle 1922" class="cls-15" x="262.71" y="224.4" width="52.23" height="1.17"/><rect id="Rectangle_1923" data-name="Rectangle 1923" class="cls-15" x="262.71" y="229.41" width="52.23" height="1.17"/><rect id="Rectangle_1924" data-name="Rectangle 1924" class="cls-15" x="262.71" y="234.42" width="52.23" height="1.17"/><rect id="Rectangle_1925" data-name="Rectangle 1925" class="cls-15" x="262.71" y="239.42" width="52.23" height="1.17"/><rect id="Rectangle_1926" data-name="Rectangle 1926" class="cls-7" x="182.37" y="196.69" width="76.65" height="46.12"/><rect id="Rectangle_1927" data-name="Rectangle 1927" class="cls-11" x="182.37" y="183.8" width="76.65" height="12.89"/><rect id="Rectangle_1928" data-name="Rectangle 1928" class="cls-15" x="191.81" y="202.81" width="57.49" height="1.29" transform="translate(-0.81 0.88) rotate(-0.23)"/><rect id="Rectangle_1929" data-name="Rectangle 1929" class="cls-15" x="191.83" y="208.33" width="57.49" height="1.29" transform="translate(-0.83 0.88) rotate(-0.23)"/><rect id="Rectangle_1930" data-name="Rectangle 1930" class="cls-15" x="191.85" y="213.84" width="57.49" height="1.29" transform="translate(-0.86 0.88) rotate(-0.23)"/><rect id="Rectangle_1931" data-name="Rectangle 1931" class="cls-15" x="191.87" y="219.35" width="57.49" height="1.29" transform="translate(-0.88 0.88) rotate(-0.23)"/><rect id="Rectangle_1932" data-name="Rectangle 1932" class="cls-15" x="191.89" y="224.86" width="57.49" height="1.29" transform="translate(-0.9 0.88) rotate(-0.23)"/><rect id="Rectangle_1933" data-name="Rectangle 1933" class="cls-15" x="191.91" y="230.37" width="57.49" height="1.29" transform="translate(-0.92 0.88) rotate(-0.23)"/><path id="Path_3027" data-name="Path 3027" class="cls-10" d="M132.42,260.86H114.34v31.46h31.45V260.86Z"/><rect id="Rectangle_1934" data-name="Rectangle 1934" x="352.57" y="234.46" width="86.33" height="132.49" rx="5.9"/><path id="Path_3028" data-name="Path 3028" class="cls-5" d="M358.47,234.47a5.91,5.91,0,0,0-5.9,5.89v120.7a5.92,5.92,0,0,0,5.9,5.9h.47l61.58-132.49Z"/><path id="Path_3029" data-name="Path 3029" class="cls-15" d="M433,368.14H358.47a7.09,7.09,0,0,1-7.08-7.08V240.36a7.09,7.09,0,0,1,7.08-7.08H433a7.09,7.09,0,0,1,7.08,7.08v120.7a7.09,7.09,0,0,1-7.08,7.08m-74.53-132.5a4.73,4.73,0,0,0-4.72,4.72v120.7a4.73,4.73,0,0,0,4.72,4.72H433a4.73,4.73,0,0,0,4.72-4.72V240.36a4.73,4.73,0,0,0-4.72-4.72Z"/><rect id="Rectangle_1935" data-name="Rectangle 1935" class="cls-6" x="364.09" y="246.85" width="64.87" height="105.17"/><rect id="Rectangle_1936" data-name="Rectangle 1936" class="cls-7" x="364.53" y="340.69" width="63.84" height="11.11"/><rect id="Rectangle_1937" data-name="Rectangle 1937" class="cls-8" x="364.09" y="246.85" width="64.87" height="12.19"/><path id="Path_3030" data-name="Path 3030" d="M429.56,352.61H363.5V246.26h66.06Zm-64.87-1.18h63.69v-104H364.67Z"/><path id="Path_3031" data-name="Path 3031" d="M398.29,241.49a2.51,2.51,0,1,1-2.51-2.5,2.51,2.51,0,0,1,2.51,2.5h0"/><rect id="Rectangle_1938" data-name="Rectangle 1938" class="cls-7" x="394.03" y="293.83" width="30.47" height="18.33"/><rect id="Rectangle_1939" data-name="Rectangle 1939" class="cls-14" x="394.03" y="288.71" width="30.47" height="5.12"/><rect id="Rectangle_1940" data-name="Rectangle 1940" class="cls-15" x="397.8" y="296.27" width="22.85" height="0.51"/><rect id="Rectangle_1941" data-name="Rectangle 1941" class="cls-15" x="397.8" y="298.46" width="22.85" height="0.51"/><rect id="Rectangle_1942" data-name="Rectangle 1942" class="cls-15" x="397.8" y="300.65" width="22.85" height="0.51"/><rect id="Rectangle_1943" data-name="Rectangle 1943" class="cls-15" x="397.8" y="302.84" width="22.85" height="0.51"/><rect id="Rectangle_1944" data-name="Rectangle 1944" class="cls-15" x="397.8" y="305.03" width="22.85" height="0.51"/><rect id="Rectangle_1945" data-name="Rectangle 1945" class="cls-15" x="397.8" y="307.22" width="22.85" height="0.51"/><rect id="Rectangle_1946" data-name="Rectangle 1946" class="cls-7" x="394.51" y="267.4" width="29.28" height="17.62"/><rect id="Rectangle_1947" data-name="Rectangle 1947" class="cls-11" x="394.51" y="262.48" width="29.28" height="4.92"/><rect id="Rectangle_1948" data-name="Rectangle 1948" class="cls-15" x="398.12" y="269.74" width="21.96" height="0.49" transform="translate(-1.01 1.54) rotate(-0.21)"/><rect id="Rectangle_1949" data-name="Rectangle 1949" class="cls-15" x="398.12" y="271.85" width="21.96" height="0.49" transform="translate(-1.02 1.54) rotate(-0.21)"/><rect id="Rectangle_1950" data-name="Rectangle 1950" class="cls-15" x="398.13" y="273.95" width="21.96" height="0.49" transform="translate(-1.03 1.54) rotate(-0.21)"/><rect id="Rectangle_1951" data-name="Rectangle 1951" class="cls-15" x="398.14" y="276.06" width="21.96" height="0.49" transform="translate(-1.03 1.54) rotate(-0.21)"/><rect id="Rectangle_1952" data-name="Rectangle 1952" class="cls-15" x="398.15" y="278.16" width="21.96" height="0.49" transform="translate(-1.04 1.54) rotate(-0.21)"/><rect id="Rectangle_1953" data-name="Rectangle 1953" class="cls-15" x="398.15" y="280.27" width="21.96" height="0.49" transform="translate(-1.05 1.54) rotate(-0.21)"/><path id="Path_3032" data-name="Path 3032" class="cls-7" d="M365.37,261.57v21.64a40.88,40.88,0,0,1,0,53.4v9h14a57.43,57.43,0,0,0-9.31-80.68c-1.5-1.19-3.07-2.31-4.69-3.35"/><rect id="Rectangle_1954" data-name="Rectangle 1954" class="cls-10" x="369.22" y="334.81" width="11.73" height="11.73"/><rect id="Rectangle_1955" data-name="Rectangle 1955" class="cls-11" x="383.6" y="334.81" width="11.73" height="11.73"/><rect id="Rectangle_1956" data-name="Rectangle 1956" class="cls-12" x="397.9" y="334.8" width="11.73" height="11.73"/><rect id="Rectangle_1957" data-name="Rectangle 1957" class="cls-17" x="412.24" y="334.83" width="11.73" height="11.73"/></g></g></g></svg>