<svg id="icon-web-design" xmlns="http://www.w3.org/2000/svg" xmlns:xlink="http://www.w3.org/1999/xlink" width="70" height="70" viewBox="0 0 70 70">
  <defs>
    <clipPath id="clip-path">
      <rect id="Rectangle_911" data-name="Rectangle 911" width="70" height="70" fill="none"/>
    </clipPath>
  </defs>
  <g id="Group_1008" data-name="Group 1008" clip-path="url(#clip-path)">
    <path id="Path_1720" data-name="Path 1720" d="M39.806,45.9A7.9,7.9,0,1,1,31.9,38a7.9,7.9,0,0,1,7.9,7.9" transform="translate(3.097 4.903)" fill="#f9ba48"/>
    <path id="Path_1721" data-name="Path 1721" d="M70,51.935V0H0V51.935H12.2A25.8,25.8,0,0,0,9.056,63.427a3.383,3.383,0,1,0,2.28.021,23.523,23.523,0,0,1,3.506-11.513h7.793a12.268,12.268,0,0,0,2.806,6.774H23.71v2.258h2.258v2.258H23.71v2.258h2.258V70H44.032V65.484H46.29V63.226H44.032V60.968H46.29V58.71h-1.73a12.276,12.276,0,0,0,2.806-6.774h7.791a23.523,23.523,0,0,1,3.506,11.513,3.392,3.392,0,1,0,2.281-.021A25.782,25.782,0,0,0,57.8,51.935ZM10.161,67.742a1.129,1.129,0,1,1,1.129-1.129,1.129,1.129,0,0,1-1.129,1.129m49.677,0a1.129,1.129,0,1,1,1.129-1.129,1.129,1.129,0,0,1-1.129,1.129m7.9-58.71H2.258V2.258H67.742ZM2.258,49.677V11.29H67.742V49.677H56.406a26.125,26.125,0,0,0-10.835-9.032H58.917a3.387,3.387,0,1,0,0-2.258H11.081a3.387,3.387,0,1,0,0,2.258H24.428a26.125,26.125,0,0,0-10.835,9.032Zm58.71-10.161A1.129,1.129,0,1,1,62.1,40.645a1.129,1.129,0,0,1-1.129-1.129m-51.935,0A1.129,1.129,0,1,1,7.9,38.387a1.13,1.13,0,0,1,1.129,1.129m16.753,2.993a12.363,12.363,0,0,0-3.148,7.168H16.415a23.831,23.831,0,0,1,9.37-7.168M41.774,67.742H28.226V65.484H41.774Zm0-4.516H28.226V60.968H41.774ZM35,53.065a2.258,2.258,0,1,1,2.258-2.258A2.261,2.261,0,0,1,35,53.065m7.112,4.993-.338.332v.321H36.129V55.162a4.516,4.516,0,1,0-2.258,0V58.71H28.226v-.321l-.339-.332a10.162,10.162,0,1,1,14.225,0m5.25-8.38a12.363,12.363,0,0,0-3.148-7.168,23.831,23.831,0,0,1,9.37,7.168Z" fill="#333"/>
    <rect id="Rectangle_907" data-name="Rectangle 907" width="6.774" height="2.258" transform="translate(4.516 4.516)" fill="#333"/>
    <rect id="Rectangle_908" data-name="Rectangle 908" width="2.258" height="2.258" transform="translate(13.548 4.516)" fill="#333"/>
    <path id="Path_1722" data-name="Path 1722" d="M22.065,12H4V32.323H22.065ZM19.806,30.065H6.258V14.258H19.806Z" transform="translate(0.516 1.548)" fill="#333"/>
    <path id="Path_1723" data-name="Path 1723" d="M42.323,12H22V32.323H42.323ZM40.065,30.065H24.258V14.258H40.065Z" transform="translate(2.839 1.548)" fill="#333"/>
    <path id="Path_1724" data-name="Path 1724" d="M60.065,12H42V32.323H60.065ZM57.806,30.065H44.258V14.258H57.806Z" transform="translate(5.419 1.548)" fill="#333"/>
    <path id="Path_1725" data-name="Path 1725" d="M37.29,21.645A5.645,5.645,0,1,1,31.645,16a5.646,5.646,0,0,1,5.645,5.645" transform="translate(3.355 2.065)" fill="#f9ba48"/>
    <rect id="Rectangle_909" data-name="Rectangle 909" width="9.032" height="11.29" transform="translate(9.032 18.065)" fill="#f9ba48"/>
    <rect id="Rectangle_910" data-name="Rectangle 910" width="9.032" height="11.29" transform="translate(51.935 18.065)" fill="#f9ba48"/>
  </g>
</svg>
