<svg xmlns="http://www.w3.org/2000/svg" width="140.828" height="45" viewBox="0 0 140.828 45">
  <g id="logo" transform="translate(-137.693 -272.313)">
    <path id="Path_1" data-name="Path 1" d="M14.476,21.553H18.9v3.514H14.476ZM6.244,10.985a.939.939,0,0,0-.974.573,35,35,0,0,1-2.735,4.756,1.724,1.724,0,0,0-.686-.177C1.09,16.137.71,16.5.71,17.215a1.2,1.2,0,0,0,.381.812c.565.393,1.069.786,1.51,1.146.5.43,1.163,1.023,1.948,1.81A.447.447,0,0,0,4.8,21.1a28.967,28.967,0,0,1-2.382,2.768,7.551,7.551,0,0,1-.819.029c-.753.058-1.1.423-1.1,1.086,0,.931.346,1.388,1.1,1.388,1.2-.126,2.418-.271,3.675-.514V37.448c0,.78.409,1.176,1.223,1.176s1.224-.4,1.224-1.176v-12.1a9.3,9.3,0,0,0,1.225-.281h.226c.1.373.186.793.278,1.208.189.549.475.814.845.814.882,0,1.357-.3,1.357-.926a4.539,4.539,0,0,0-.129-.838,23.243,23.243,0,0,0-1.228-3.535,1.186,1.186,0,0,0-.845-.357c-.753,0-1.1.245-1.1.727a1.448,1.448,0,0,0,.128.567,1.837,1.837,0,0,0,.122.36,24.375,24.375,0,0,1-2.979.55,20.381,20.381,0,0,0,1.659-2.05,38.056,38.056,0,0,0,2.9-4.61,1.623,1.623,0,0,0,.249-.838,1.1,1.1,0,0,0-.312-.724,1.278,1.278,0,0,0-1.761.035c-.693,1.285-1.447,2.521-2.22,3.725a22.515,22.515,0,0,0-1.708-1.5,26.956,26.956,0,0,0,3.173-5.06,2.061,2.061,0,0,0,.125-.562,1.056,1.056,0,0,0-.441-.762,2.136,2.136,0,0,0-1.032-.3M2.695,27.662a.981.981,0,0,0-1.1.727c-.216,2.794-.5,5.415-.885,7.89a2.431,2.431,0,0,0-.089.678c0,.6.4.934,1.228.934a1.291,1.291,0,0,0,1.1-.559c.348-2.38.627-5.008.85-7.9a3.8,3.8,0,0,0,.129-.807c0-.643-.412-.965-1.228-.965m6.88.249c-.663,0-.979.3-.979.839l.061.412c.254,1.4.47,3.044.67,4.97.027.659.342.962.964.962.728,0,1.1-.3,1.1-.962a7.582,7.582,0,0,0-.09-.908,38.233,38.233,0,0,0-.761-4.715,1.009,1.009,0,0,0-.966-.6m5.15-16.231c-1.732,0-2.573.793-2.573,2.343V37.782a.955.955,0,0,0,1.1,1.084c.812,0,1.226-.366,1.226-1.084V27.209h2.192v4.575a2.08,2.08,0,0,0,2.357,2.35h5.151c.717,0,1.093-.381,1.093-1.171a.957.957,0,0,0-1.093-1.054H20c-.664,0-.977-.328-.977-1.055V27.209h7.594v8.228c0,.842-.369,1.286-1.093,1.286a10.6,10.6,0,0,1-2.35-.363,3.928,3.928,0,0,0-.725-.081c-.568,0-.847.4-.847,1.28a.978.978,0,0,0,.712.94,15.885,15.885,0,0,0,3.46.447c2.105,0,3.173-.893,3.173-2.668V14.023c0-1.55-.814-2.343-2.447-2.343Zm6.622,9.873h5.272v3.514H21.347Zm-6.871-2.108V14.752c0-.637.249-.971.751-.971H25.776c.565,0,.843.334.843.971v4.693H23.325c.1-.142.2-.293.318-.482.346-.659.685-1.382,1-2.105a1.2,1.2,0,0,0,.245-.721,1.085,1.085,0,0,0-.378-.814,1.169,1.169,0,0,0-.843-.363,1.111,1.111,0,0,0-.972.487c-.385,1.021-.758,1.991-1.157,2.919-.2.36-.352.724-.531,1.078Zm3.077-4.571c-.815,0-1.231.267-1.231.8a2.249,2.249,0,0,0,.126.7,15.164,15.164,0,0,1,.6,1.9c.22.538.533.816.971.816.981,0,1.478-.3,1.478-.945a6.694,6.694,0,0,0-.129-1.046,11.751,11.751,0,0,0-.848-1.776,1.4,1.4,0,0,0-.966-.45" transform="translate(137.198 272.19)" fill="#e89112"/>
    <path id="Path_2" data-name="Path 2" d="M40.391,19.22H36.714c-.5,0-.757-.275-.757-.823V14.761a.659.659,0,0,1,.757-.73h3.676a.65.65,0,0,1,.724.73V18.4c0,.548-.259.823-.724.823m-4.78-7.408c-1.418,0-2.1.632-2.1,1.868v5.772c0,1.335.678,1.987,2.1,1.987h2.331V34.778c-.475.122-1.011.2-1.607.295V25.561c0-.684-.407-1.056-1.231-1.056a.95.95,0,0,0-1.091,1.056v9.853a1.549,1.549,0,0,1-.385.032,1.243,1.243,0,0,0-1.1,1.408c.035.813.419,1.228,1.1,1.288a55.128,55.128,0,0,0,5.437-1.018,29.863,29.863,0,0,0,4.745-1.439,1.277,1.277,0,0,0,.885-1.3c-.068-.661-.478-1.006-1.233-1.059a2.078,2.078,0,0,0-.623.129,20.064,20.064,0,0,1-2.576.771V28.4h2.7a1.07,1.07,0,0,0,1.225-1.18c0-.775-.414-1.168-1.225-1.168h-2.7V21.44h1.219c1.387,0,2.1-.653,2.1-1.987V13.68c0-1.236-.716-1.868-2.1-1.868Zm22.8-.125h-8.7a1.932,1.932,0,0,0-2.038,1.2,9.627,9.627,0,0,1-1.413,2.622c-.477.524-1.041,1.088-1.7,1.715a1.185,1.185,0,0,0-.5.812,1.067,1.067,0,0,0,1.226,1.185,1,1,0,0,0,.7-.248,12.929,12.929,0,0,0,2.006-2.256,12.862,12.862,0,0,0,2.354,3.853,7.861,7.861,0,0,0,.721.7,55.4,55.4,0,0,1-6.251,3.006,1.29,1.29,0,0,0-.751,1.06c0,.718.312,1.05.972,1.05a6.922,6.922,0,0,0,1.383-.149A43.26,43.26,0,0,0,52.955,22.8a9.877,9.877,0,0,0,1.851,1.078,23.863,23.863,0,0,0,4.838,2.135,3.176,3.176,0,0,0,1.128.269c.878,0,1.351-.414,1.351-1.289a1.426,1.426,0,0,0-.633-1.085,26.407,26.407,0,0,1-5.018-1.955,10.074,10.074,0,0,1-1.355-.759,16.091,16.091,0,0,0,3.962-4.237A7.446,7.446,0,0,0,60.4,13.351c0-1.084-.66-1.663-1.98-1.663m-9.077,2.661a1.043,1.043,0,0,1,.875-.429h7.1c.406,0,.626.083.626.24,0,.845-.837,2.143-2.506,3.876a12.705,12.705,0,0,1-2.2,1.839,6.079,6.079,0,0,1-.758-.693,13.62,13.62,0,0,1-2.759-4.213,2.293,2.293,0,0,0-.377-.62m-.973,12.275q-2.453,0-2.449,2.343v6.718c0,1.557.814,2.341,2.449,2.341h9.575c1.634,0,2.455-.784,2.455-2.341V28.968q0-2.342-2.455-2.343Zm8.572,9.061h-7.6c-.662,0-.973-.31-.973-.944V29.932a.853.853,0,0,1,.973-.964h7.6a.879.879,0,0,1,1,.964v4.809c0,.634-.35.944-1,.944" transform="translate(136.838 272.182)" fill="#e89112"/>
    <path id="Path_3" data-name="Path 3" d="M120.669,17.214h14.572a31.569,31.569,0,0,1-3.363,6.875,29.505,29.505,0,0,1-3.863,4.537,19.918,19.918,0,0,1-3.83-4.271,35.309,35.309,0,0,1-3.516-7.141m7.2-6.341c-.916,0-1.359.45-1.359,1.289v2.59H114.731c-.815,0-1.223.388-1.223,1.172,0,.874.408,1.29,1.223,1.29h3.333a31.079,31.079,0,0,0,3.481,7.746,21.559,21.559,0,0,0,4.465,5.321,38.029,38.029,0,0,1-3.741,2.434,45.032,45.032,0,0,1-8.171,3.439.969.969,0,0,0-.712,1.051,1.046,1.046,0,0,0,.343.812,1.19,1.19,0,0,0,.877.362,6.541,6.541,0,0,0,.978-.118,46.906,46.906,0,0,0,8.448-3.613,38.912,38.912,0,0,0,4.052-2.714,31.112,31.112,0,0,0,4.272,2.589,58.844,58.844,0,0,0,7.978,3.55,3.393,3.393,0,0,0,.9.189,1.237,1.237,0,0,0,1.354-1.417c0-.542-.349-.934-1.008-1.169a38.223,38.223,0,0,1-6.594-2.684,29.839,29.839,0,0,1-4.934-2.767,28.009,28.009,0,0,0,3.9-4.673,33.746,33.746,0,0,0,3.706-7.88c.027-.153.059-.3.082-.458h3.493c.813,0,1.229-.416,1.229-1.29,0-.784-.416-1.172-1.229-1.172H129.211v-2.59a1.183,1.183,0,0,0-1.346-1.289" transform="translate(135.929 272.191)" fill="#e89112"/>
    <path id="Path_4" data-name="Path 4" d="M98.34,14.43h-7.3L88.611,24.689h7.3a1.323,1.323,0,0,0,.925-.339,1.78,1.78,0,0,0,.5-.8l1.867-7.9a.993.993,0,0,0-.144-.847.821.821,0,0,0-.718-.374m-10.623,0h-7.37a1.339,1.339,0,0,0-.951.4,1.6,1.6,0,0,0-.547.821l-1.867,7.9a.9.9,0,0,0,.158.8,1.041,1.041,0,0,0,.779.339h7.366ZM98.651,39.874a1.183,1.183,0,0,1,.725,1.221,1.407,1.407,0,0,1-.369.851c-3.263,2.821-9.546,2.995-9.546,2.995A22.212,22.212,0,0,1,66.968,15.509,23.2,23.2,0,0,1,83.6.505a22.5,22.5,0,0,1,18.284,3.913,21.322,21.322,0,0,1,8.487,17.409,15.742,15.742,0,0,1-5.937,11.323c-7.087,6.327-13.678,4.725-13.678,4.725-8.422-1.959-6.187-10.15-6.187-10.15H75.941a2.557,2.557,0,0,1-1.906-.85,2.213,2.213,0,0,1-.424-2.1l2.452-10.406a3.836,3.836,0,0,1,1.4-2.132,3.726,3.726,0,0,1,2.333-.85h8.631L89.048,8.8a2.079,2.079,0,0,1,.712-1.189,2.146,2.146,0,0,1,1.322-.456,1.316,1.316,0,0,1,1.058.434A1.27,1.27,0,0,1,92.367,8.8l-.613,2.595H100.3a2.205,2.205,0,0,1,2.006.9,2.761,2.761,0,0,1,.287,2.079L100.14,24.78a4.449,4.449,0,0,1-1.353,2.052,3.7,3.7,0,0,1-2.35.894H87.9c-2.239,8.646,6.914,8.251,6.914,8.251,8.223-.809,11.175-6.565,11.175-6.565,2.7-5.047,1.247-11.008,1.247-11.008A19.059,19.059,0,0,0,99.158,6.379a19.491,19.491,0,0,0-20.949-.3,20.138,20.138,0,0,0-9.3,16.464,19.093,19.093,0,0,0,9.867,16.895,21.03,21.03,0,0,0,9.921,2.427c3.128.129,7.93-1.825,7.93-1.825,1.4-.561,2.027-.164,2.027-.164" transform="translate(136.464 272.313)" fill="#0962a8"/>
  </g>
</svg>
