<svg xmlns="http://www.w3.org/2000/svg" width="200.54" height="63.155" viewBox="0 0 200.54 63.155">
  <g id="footer-logo" transform="translate(-375 -20)">
    <g id="Group_178" data-name="Group 178" transform="translate(375 20)">
      <g id="Group_175" data-name="Group 175" transform="translate(0 0.384)">
        <g id="Group_174" data-name="Group 174">
          <path id="Path_503" data-name="Path 503" d="M82.032-96.474h4.755q3.436,0,3.436,2.906a3.978,3.978,0,0,1-1.4,3.072,4.974,4.974,0,0,1-3.451,1.256h-6.32L73.1-74.741q-6.2,15.013-18.345,15.014a14.51,14.51,0,0,1-10.522-4.041,13.582,13.582,0,0,1-4.172-10.186,18.281,18.281,0,0,1,2.47-9.141A23.167,23.167,0,0,1,49.452-90.6a31.353,31.353,0,0,1,8.79-4.177,33.513,33.513,0,0,1,9.894-1.544l4.326-.121,1.35-.031,5.89-14.62.337-.848a4.589,4.589,0,0,1,1.794-2.5,7.891,7.891,0,0,1,3.667-.62h15.738q4.264,0,4.264,2.966a3.9,3.9,0,0,1-1.411,3.012,4.984,4.984,0,0,1-3.436,1.256H86.726Zm-11.2,7.235H69.178q-9.081,0-14.511,4.086-6.074,4.571-6.074,10.322a7.364,7.364,0,0,0,1.917,5.176,6.209,6.209,0,0,0,4.771,2.089q6.626,0,10.89-10.382Z" transform="translate(-40.065 115.059)" fill="#fff"/>
          <path id="Path_504" data-name="Path 504" d="M130.7-75.688h3.467q3.865,0,3.865,2.73a3.458,3.458,0,0,1-1.365,2.915A6.168,6.168,0,0,1,132.85-69h-4.878a7.2,7.2,0,0,1-4.248-1.1,3.5,3.5,0,0,1-1.55-3.007,7.124,7.124,0,0,1,.644-2.577l5.062-12.455.338-.859q1.411-3.466,4.541-3.467a3.18,3.18,0,0,1,2.224.859,2.7,2.7,0,0,1,.936,2.055,9.022,9.022,0,0,1-.829,3.007Zm4.049-26.567a4.116,4.116,0,0,1,3.022,1.242,4.114,4.114,0,0,1,1.242,3.022,4.114,4.114,0,0,1-1.242,3.022,4.116,4.116,0,0,1-3.022,1.242,4.113,4.113,0,0,1-3.022-1.242,4.114,4.114,0,0,1-1.242-3.022,4.114,4.114,0,0,1,1.242-3.022A4.113,4.113,0,0,1,134.752-102.255Z" transform="translate(-67.721 110.593)" fill="#fff"/>
          <path id="Path_505" data-name="Path 505" d="M169.9-71.147h3.681q3.9,0,3.9,2.73a3.443,3.443,0,0,1-1.38,2.915,6.18,6.18,0,0,1-3.8,1.043h-6.412a4.548,4.548,0,0,1-3.144-1.135,3.658,3.658,0,0,1-1.273-2.853,9.258,9.258,0,0,1,.859-3.129l2.7-6.688a5.379,5.379,0,0,0,.461-1.688,1.5,1.5,0,0,0-.6-1.258,2.442,2.442,0,0,0-1.611-.521q-3.16,0-5.093,4.755l-3.619,8.9q-1.627,4.05-4.848,4.05a3.3,3.3,0,0,1-2.239-.8,2.5,2.5,0,0,1-.92-1.963,5.588,5.588,0,0,1,.491-2.055l.337-.828,6.2-15.278a4.172,4.172,0,0,1,4.08-2.976,3.478,3.478,0,0,1,3.374,2.086,10.445,10.445,0,0,1,6.259-2.515,6.907,6.907,0,0,1,4.755,1.656,5.368,5.368,0,0,1,1.872,4.2,8.417,8.417,0,0,1-.675,3.1Z" transform="translate(-76.023 105.911)" fill="#fff"/>
          <path id="Path_506" data-name="Path 506" d="M201.546-73.447q0,2.3,3.467,2.3h9.111q3.866,0,3.865,2.73a3.459,3.459,0,0,1-1.365,2.915,6.168,6.168,0,0,1-3.819,1.043h-8.682q-4.848,0-7.378-2.393t-2.531-6.995a14.475,14.475,0,0,1,4-10.216,12.591,12.591,0,0,1,9.526-4.294,9.547,9.547,0,0,1,6.457,2.1,6.952,6.952,0,0,1,2.439,5.537,6.638,6.638,0,0,1-3.375,6.135,10.947,10.947,0,0,1-5.583,1.136Zm1.473-5.583h3.374q3.282,0,3.191-1.442-.093-1.626-2.117-1.626Q204.644-82.1,203.019-79.031Z" transform="translate(-92.048 105.917)" fill="#fff"/>
          <path id="Path_507" data-name="Path 507" d="M241.162-81.369l-.583,1.411q-1.349,3.037-3.834,3.037a3.328,3.328,0,0,1-2.255-.875,2.613,2.613,0,0,1-1-2.01,6.9,6.9,0,0,1,.889-2.853l4.08-8.283q1.5-2.975,3.743-2.976a2.948,2.948,0,0,1,2.055.782,2.433,2.433,0,0,1,.859,1.856,8.1,8.1,0,0,1-.184,1.2,6.749,6.749,0,0,0-.123,1.2,6.836,6.836,0,0,0,1.441,3.957L248-82.5a12.375,12.375,0,0,1,2.67,7.178,8.329,8.329,0,0,1-2.884,6.458,10.338,10.338,0,0,1-7.178,2.592H234.2q-3.9,0-3.9-2.7a3.485,3.485,0,0,1,1.38-2.929,6.115,6.115,0,0,1,3.8-1.058h3.559q4.264,0,4.264-3.1a5.979,5.979,0,0,0-.8-2.668Z" transform="translate(-104.179 107.777)" fill="#fff"/>
          <path id="Path_508" data-name="Path 508" d="M273.741-81.369l-.583,1.411q-1.35,3.037-3.835,3.037a3.328,3.328,0,0,1-2.255-.875,2.614,2.614,0,0,1-1-2.01,6.9,6.9,0,0,1,.89-2.853l4.08-8.283q1.5-2.975,3.743-2.976a2.95,2.95,0,0,1,2.056.782,2.433,2.433,0,0,1,.859,1.856,8.037,8.037,0,0,1-.184,1.2,6.817,6.817,0,0,0-.123,1.2,6.838,6.838,0,0,0,1.442,3.957l1.748,2.424a12.374,12.374,0,0,1,2.669,7.178,8.329,8.329,0,0,1-2.884,6.458,10.34,10.34,0,0,1-7.179,2.592h-6.411q-3.9,0-3.9-2.7a3.486,3.486,0,0,1,1.381-2.929,6.115,6.115,0,0,1,3.8-1.058h3.559q4.264,0,4.264-3.1a5.986,5.986,0,0,0-.8-2.668Z" transform="translate(-115.557 107.777)" fill="#fff"/>
          <path id="Path_509" data-name="Path 509" d="M303.8-73.447q0,2.3,3.466,2.3h9.112q3.865,0,3.865,2.73a3.459,3.459,0,0,1-1.365,2.915,6.17,6.17,0,0,1-3.819,1.043h-8.682q-4.848,0-7.378-2.393t-2.531-6.995a14.476,14.476,0,0,1,4-10.216,12.59,12.59,0,0,1,9.525-4.294,9.547,9.547,0,0,1,6.458,2.1,6.952,6.952,0,0,1,2.439,5.537,6.639,6.639,0,0,1-3.374,6.135,10.949,10.949,0,0,1-5.583,1.136Zm1.472-5.583h3.374q3.282,0,3.191-1.442-.092-1.626-2.117-1.626Q306.893-82.1,305.268-79.031Z" transform="translate(-126.529 105.917)" fill="#fff"/>
        </g>
      </g>
      <g id="Group_177" data-name="Group 177" transform="translate(193.742)">
        <g id="Group_176" data-name="Group 176">
          <path id="Path_510" data-name="Path 510" d="M331.824-112.22a3.281,3.281,0,0,1,1-2.414,3.281,3.281,0,0,1,2.4-1,3.27,3.27,0,0,1,2.4,1,3.283,3.283,0,0,1,1,2.411,3.282,3.282,0,0,1-1,2.414,3.278,3.278,0,0,1-2.4,1,3.275,3.275,0,0,1-2.4-1A3.284,3.284,0,0,1,331.824-112.22Zm.386,0a2.9,2.9,0,0,0,.885,2.13,2.91,2.91,0,0,0,2.13.881,2.9,2.9,0,0,0,2.131-.883,2.905,2.905,0,0,0,.881-2.128,2.905,2.905,0,0,0-.883-2.13,2.9,2.9,0,0,0-2.128-.885,2.915,2.915,0,0,0-2.126.881A2.89,2.89,0,0,0,332.21-112.22Zm4.66,2.132h-.707l-.479-1.039q-.366-.795-.794-.794h-.4v1.833h-.577v-4.34h1.2a1.873,1.873,0,0,1,1.163.318,1.032,1.032,0,0,1,.414.864,1.09,1.09,0,0,1-.288.761,1.454,1.454,0,0,1-.813.421v.021c.238.05.477.319.714.807Zm-2.384-3.84v1.505h.664q.909,0,.909-.757a.66.66,0,0,0-.24-.578,1.376,1.376,0,0,0-.778-.17Z" transform="translate(-331.824 115.63)" fill="#fff"/>
        </g>
      </g>
    </g>
    <text id="innovation_for_the_future" data-name="innovation for the future" transform="translate(423.42 80.155)" fill="#fff" font-size="13" font-family="ArialMT, Arial" letter-spacing="0.03em"><tspan x="0" y="0">innovation for the future</tspan></text>
  </g>
</svg>
