<svg xmlns="http://www.w3.org/2000/svg" width="183.079" height="59" viewBox="0 0 183.079 59">
  <g id="logo" transform="translate(-375 -20)">
    <g id="Group_178" data-name="Group 178" transform="translate(334.935 135.63)">
      <g id="Group_175" data-name="Group 175" transform="translate(40.065 -115.284)">
        <g id="Group_174" data-name="Group 174">
          <path id="Path_503" data-name="Path 503" d="M77.871-98.091h4.283q3.1,0,3.1,2.653a3.653,3.653,0,0,1-1.257,2.805,4.446,4.446,0,0,1-3.109,1.147H75.19L69.829-78.248Q64.247-64.541,53.3-64.54a12.976,12.976,0,0,1-9.479-3.689,12.485,12.485,0,0,1-3.759-9.3,16.864,16.864,0,0,1,2.225-8.346,21.049,21.049,0,0,1,6.232-6.854,28.082,28.082,0,0,1,7.918-3.814,29.821,29.821,0,0,1,8.913-1.41l3.9-.11,1.216-.028,5.306-13.348.3-.774a4.186,4.186,0,0,1,1.616-2.28,7.026,7.026,0,0,1,3.3-.566H95.171q3.841,0,3.842,2.708a3.578,3.578,0,0,1-1.271,2.75,4.455,4.455,0,0,1-3.1,1.147H82.1ZM67.784-91.485H66.292q-8.181,0-13.072,3.731-5.471,4.173-5.472,9.424a6.776,6.776,0,0,0,1.727,4.725,5.56,5.56,0,0,0,4.3,1.907q5.969,0,9.81-9.479Z" transform="translate(-40.065 115.059)" fill="#dc000c"/>
          <path id="Path_504" data-name="Path 504" d="M129.857-78.322h3.123q3.482,0,3.482,2.459a3.115,3.115,0,0,1-1.23,2.626,5.556,5.556,0,0,1-3.441.939H127.4a6.489,6.489,0,0,1-3.827-.995,3.153,3.153,0,0,1-1.4-2.709,6.418,6.418,0,0,1,.58-2.321l4.56-11.22.3-.774q1.271-3.122,4.09-3.123a2.865,2.865,0,0,1,2,.774,2.43,2.43,0,0,1,.843,1.852,8.128,8.128,0,0,1-.747,2.709Zm3.648-23.933a3.707,3.707,0,0,1,2.723,1.119,3.706,3.706,0,0,1,1.119,2.723,3.706,3.706,0,0,1-1.119,2.722,3.707,3.707,0,0,1-2.723,1.119,3.705,3.705,0,0,1-2.722-1.119,3.706,3.706,0,0,1-1.119-2.722,3.706,3.706,0,0,1,1.119-2.723A3.705,3.705,0,0,1,133.5-102.255Z" transform="translate(-72.374 110.021)" fill="#dc000c"/>
          <path id="Path_505" data-name="Path 505" d="M167.583-72.853H170.9q3.51,0,3.51,2.459a3.1,3.1,0,0,1-1.243,2.626,5.568,5.568,0,0,1-3.427.939h-5.776a4.1,4.1,0,0,1-2.832-1.023,3.3,3.3,0,0,1-1.147-2.57,8.34,8.34,0,0,1,.774-2.819l2.431-6.024a4.846,4.846,0,0,0,.415-1.521,1.348,1.348,0,0,0-.539-1.133,2.2,2.2,0,0,0-1.451-.469q-2.847,0-4.588,4.283l-3.261,8.014q-1.466,3.648-4.367,3.648a2.974,2.974,0,0,1-2.017-.719,2.25,2.25,0,0,1-.829-1.769,5.034,5.034,0,0,1,.442-1.852l.3-.746,5.583-13.763a3.758,3.758,0,0,1,3.675-2.681,3.133,3.133,0,0,1,3.04,1.88,9.409,9.409,0,0,1,5.638-2.266,6.222,6.222,0,0,1,4.283,1.492,4.836,4.836,0,0,1,1.686,3.786,7.582,7.582,0,0,1-.608,2.791Z" transform="translate(-81.966 104.552)" fill="#dc000c"/>
          <path id="Path_506" data-name="Path 506" d="M200.819-74.926q0,2.072,3.123,2.072h8.208q3.483,0,3.482,2.459a3.116,3.116,0,0,1-1.229,2.626,5.556,5.556,0,0,1-3.441.939h-7.821q-4.367,0-6.647-2.156t-2.28-6.3a13.04,13.04,0,0,1,3.606-9.2,11.343,11.343,0,0,1,8.582-3.868,8.6,8.6,0,0,1,5.817,1.893,6.263,6.263,0,0,1,2.2,4.988,5.98,5.98,0,0,1-3.04,5.527,9.862,9.862,0,0,1-5.03,1.023Zm1.327-5.03h3.04q2.957,0,2.874-1.3-.084-1.465-1.907-1.465Q203.61-82.719,202.146-79.956Z" transform="translate(-100.721 104.552)" fill="#dc000c"/>
          <path id="Path_507" data-name="Path 507" d="M240.085-82.613l-.525,1.271q-1.215,2.736-3.454,2.736a3,3,0,0,1-2.032-.788,2.354,2.354,0,0,1-.9-1.81,6.211,6.211,0,0,1,.8-2.57l3.675-7.462q1.355-2.68,3.372-2.681a2.656,2.656,0,0,1,1.852.7,2.191,2.191,0,0,1,.774,1.672,7.292,7.292,0,0,1-.166,1.078,6.081,6.081,0,0,0-.11,1.078,6.158,6.158,0,0,0,1.3,3.565l1.575,2.183a11.148,11.148,0,0,1,2.4,6.467,7.5,7.5,0,0,1-2.6,5.818,9.313,9.313,0,0,1-6.467,2.335h-5.776q-3.51,0-3.51-2.432a3.14,3.14,0,0,1,1.243-2.639,5.508,5.508,0,0,1,3.427-.953h3.206q3.841,0,3.842-2.792a5.386,5.386,0,0,0-.719-2.4Z" transform="translate(-114.921 106.74)" fill="#dc000c"/>
          <path id="Path_508" data-name="Path 508" d="M272.665-82.613l-.525,1.271q-1.216,2.736-3.455,2.736a3,3,0,0,1-2.031-.788,2.355,2.355,0,0,1-.9-1.81,6.214,6.214,0,0,1,.8-2.57l3.676-7.462q1.354-2.68,3.372-2.681a2.657,2.657,0,0,1,1.852.7,2.191,2.191,0,0,1,.774,1.672,7.235,7.235,0,0,1-.166,1.078,6.139,6.139,0,0,0-.11,1.078,6.16,6.16,0,0,0,1.3,3.565l1.575,2.183a11.147,11.147,0,0,1,2.4,6.467,7.5,7.5,0,0,1-2.6,5.818,9.315,9.315,0,0,1-6.467,2.335h-5.775q-3.511,0-3.51-2.432a3.14,3.14,0,0,1,1.244-2.639,5.508,5.508,0,0,1,3.427-.953h3.206q3.841,0,3.841-2.792a5.392,5.392,0,0,0-.718-2.4Z" transform="translate(-127.741 106.74)" fill="#dc000c"/>
          <path id="Path_509" data-name="Path 509" d="M303.069-74.926q0,2.072,3.122,2.072H314.4q3.482,0,3.482,2.459a3.116,3.116,0,0,1-1.229,2.626,5.559,5.559,0,0,1-3.441.939H305.39q-4.367,0-6.646-2.156t-2.28-6.3a13.041,13.041,0,0,1,3.607-9.2,11.342,11.342,0,0,1,8.581-3.868,8.6,8.6,0,0,1,5.818,1.893,6.263,6.263,0,0,1,2.2,4.988,5.981,5.981,0,0,1-3.04,5.527,9.863,9.863,0,0,1-5.03,1.023Zm1.326-5.03h3.04q2.957,0,2.874-1.3-.083-1.465-1.907-1.465Q305.858-82.719,304.395-79.956Z" transform="translate(-140.955 104.552)" fill="#dc000c"/>
        </g>
      </g>
      <g id="Group_177" data-name="Group 177" transform="translate(217.02 -115.63)">
        <g id="Group_176" data-name="Group 176">
          <path id="Path_510" data-name="Path 510" d="M331.824-112.558a2.955,2.955,0,0,1,.9-2.174,2.956,2.956,0,0,1,2.163-.9,2.946,2.946,0,0,1,2.162.9,2.958,2.958,0,0,1,.9,2.172,2.956,2.956,0,0,1-.9,2.174,2.953,2.953,0,0,1-2.16.9,2.951,2.951,0,0,1-2.163-.9A2.959,2.959,0,0,1,331.824-112.558Zm.348,0a2.608,2.608,0,0,0,.8,1.919,2.622,2.622,0,0,0,1.918.793,2.613,2.613,0,0,0,1.92-.8,2.617,2.617,0,0,0,.793-1.917,2.617,2.617,0,0,0-.8-1.918,2.608,2.608,0,0,0-1.917-.8,2.626,2.626,0,0,0-1.915.794A2.6,2.6,0,0,0,332.172-112.558Zm4.2,1.921h-.637l-.432-.936q-.329-.716-.716-.716h-.363v1.652h-.52v-3.91h1.08a1.687,1.687,0,0,1,1.047.286.929.929,0,0,1,.373.778.982.982,0,0,1-.26.686,1.31,1.31,0,0,1-.733.379v.019c.214.045.429.287.643.727Zm-2.148-3.459v1.356h.6q.819,0,.819-.682a.6.6,0,0,0-.217-.521,1.239,1.239,0,0,0-.7-.153Z" transform="translate(-331.824 115.63)" fill="#dc000c"/>
        </g>
      </g>
    </g>
    <text id="innovation_for_the_future" data-name="innovation for the future" transform="translate(407 76)" fill="#a50009" font-size="13" font-family="ArialMT, Arial" letter-spacing="0.03em"><tspan x="0" y="0">innovation for the future</tspan></text>
  </g>
</svg>
