<?xml version="1.0" encoding="utf-8"?>
<!-- Generator: Adobe Illustrator 24.3.0, SVG Export Plug-In . SVG Version: 6.00 Build 0)  -->
<svg version="1.1" xmlns="http://www.w3.org/2000/svg" xmlns:xlink="http://www.w3.org/1999/xlink" x="0px" y="0px"
	 viewBox="0 0 532.42 177.16" style="enable-background:new 0 0 532.42 177.16;" xml:space="preserve">
<style type="text/css">
	.st0{fill:#FFFFFF;}
</style>
<g id="圖層_1">
	<g>
		<g>
			<path d="M113.73,40.19c-12.28,22.06-25.29,43.59-32.6,67.74c0.58,0.59,1.15,1.18,1.73,1.77c3.28-1.65,7.2-2.63,9.71-5.06
				c7.28-7.04,16.08-11.26,25.13-15.3c6.32-2.82,11.88-1.44,13.77,4c0.4,1.16-0.42,2.74-0.67,4.13c-1.28-0.46-3.24-0.55-3.71-1.43
				c-1.83-3.45-4.23-3.38-7.06-1.73c-5.89,3.44-10.88,7.76-14.33,15.07c7.3-1.17,11.22-5.6,15.39-9.77
				c0.94-0.94,2.62-1.14,3.96-1.67c0.45,1.39,0.96,2.76,1.31,4.18c0.12,0.47-0.26,1.03-0.27,1.55c-0.03,2.28-0.01,4.57-0.01,7.31
				c1.25-0.44,2.37-0.53,3.05-1.12c8.24-7.1,18.22-12.37,23.56-22.58c0.67-1.29,3.22-1.6,4.9-2.37c-0.22,1.84,0.03,3.91-0.75,5.46
				c-2.98,5.92-6.29,11.67-9.87,18.2c2.18,0.22,3.18,0.65,3.78,0.34c9.65-5.03,18.63-10.82,22.74-21.65
				c0.24-0.64,0.58-1.43,0.41-2.02c-0.89-3.11,0.42-5.31,3.36-5.08c1.54,0.12,2.9,2.66,4.76,4.54c1.57-0.82,4.36-2.67,7.41-3.76
				c3.24-1.15,7.67-1.65,8.69,2.27c0.91,3.49-0.57,7.63-1.27,11.43c-0.06,0.34-2.42,0.8-3.18,0.33c-0.74-0.45-1.24-2.08-1.09-3.06
				c0.29-1.84,1.14-3.6,1.75-5.39c-0.32-0.39-0.65-0.79-0.97-1.18c-2.64,1.37-6,2.13-7.79,4.22c-5.6,6.55-10.54,13.64-15.87,20.42
				c-1.28,1.62-3.05,2.86-4.6,4.27c-0.68-2.03-1.37-4.05-1.99-5.9c-14,8.74-19.84,8.51-20.55-2.19c-3.18,2.58-5.94,4.91-8.79,7.12
				c-7.29,5.62-11.4,4.23-13.51-4.52c-2.71,1.62-5.3,3.51-8.16,4.81c-8.21,3.73-12.22,0.79-11.32-7.5
				c-4.11,2.43-8.25,5.7-12.95,7.45c-8.1,3.03-13.74-0.57-10.87-9.29c1.54-4.68,2.55-9.62,4.71-14
				c7.73-15.67,15.81-31.17,23.83-46.7C107.27,40.14,109.54,37.55,113.73,40.19z"/>
			<path d="M19.57,94.22c0,5.92,1.09,12.05,3.43,18.3c2.49,6.66,7.74,9.09,14.11,5.99c6.59-3.2,12.94-7.38,18.42-12.22
				c6.6-5.84,12.09-12.9,18.24-19.26c0.98-1.01,2.88-1.15,4.35-1.69c0.06,1.56,0.82,3.69,0.08,4.61
				c-10.15,12.56-20.56,24.89-35.45,32.29c-0.79,0.39-1.6,0.76-2.42,1.09c-26.36,10.52-29.09-28.82-23.99-44.9
				C23.3,56.4,43.23,39.19,65.63,34.29c1.38-0.3,2.8-0.45,4.21-0.55c4.75-0.33,9.52-0.2,12.12,4.61c2.68,4.96,2.29,10.4-1.32,14.44
				c-3.93,4.4-8.59,8.55-13.73,11.37c-6.28,3.45-13.33,5.59-20.18,7.9c-1.55,0.52-3.65-0.6-5.5-0.97c1.4-1.42,2.55-3.4,4.24-4.16
				c7.39-3.34,15.27-5.74,22.3-9.67c3.88-2.17,7.23-6.25,9.4-10.24c2.63-4.85-0.13-8.41-5.72-8.1C61.06,39.5,51.82,43.37,43.7,49.76
				C28.9,61.38,19.57,76.91,19.57,94.22z"/>
			<path d="M211.63,115.44c-9.22,0.05-13.81-6.82-11.62-14.2c0.68-2.29,1.02-4.67,1.52-7.01c0.11-0.51,0.07-1.27,0.39-1.49
				c4.1-2.73,8.08-5.75,12.5-7.85c1.32-0.63,4.86,0.84,5.62,2.28c0.74,1.4-0.13,4.67-1.44,5.89c-2.09,1.95-5,3.53-7.8,4.09
				c-4.59,0.91-5.45,4.28-5.8,7.66c-0.42,4.14,3.14,6.54,7.12,4.53c8.82-4.44,17.38-9.41,26.03-14.18c1.39-0.77,2.66-1.91,4.13-2.32
				c0.9-0.25,2.37,0.3,3.08,1c0.47,0.47,0.44,2.38-0.03,2.72C234.3,104.48,222.82,111.62,211.63,115.44z"/>
			<path d="M161.49,80.96c-1.56-2.24-3.08-3.66-2.82-4.16c1.23-2.36,2.95-4.46,4.49-6.66c1,0.98,3.02,2.36,2.82,2.87
				C165.02,75.43,163.47,77.61,161.49,80.96z"/>
		</g>
		<path d="M451.97,101.39c6.57-3.5,12.17-6.12,17.32-9.45c1.63-1.05,2.25-3.92,2.93-6.09c0.39-1.25-0.01-2.75-0.06-4.14
			c1.49-0.04,3.41-0.65,4.37,0.04c1.19,0.86,2.41,2.98,2.15,4.25c-0.62,3.01-2.11,5.85-2.96,8c4.38-1.17,10.39-4.78,13.58-3.09
			c3.58,1.9,4.61,8.58,7.19,14.13c1.4-0.76,4.02-1.85,6.26-3.46c3.59-2.57,6.78-5.71,10.46-8.11c1.1-0.72,3.29,0.24,4.99,0.43
			c-0.67,1.37-1.01,3.12-2.08,4.03c-4.17,3.54-8.37,7.12-12.93,10.13c-8.56,5.64-12.85,3.61-14.44-6.38
			c-0.32-2.03-0.66-4.06-1.18-7.29c-2.69,1.76-4.91,2.76-6.52,4.36c-4.64,4.62-8.87,9.66-13.6,14.17c-1.68,1.6-4.36,2.14-6.59,3.16
			c0.05-2.58-0.37-5.28,0.29-7.69c0.68-2.46,2.43-4.63,3.82-7.12c-6.62,1.89-14.87,9.12-17.7,14.6
			c-5.09,9.88-10.12,19.83-15.94,29.28c-2.39,3.89-6.4,7.11-10.32,9.66c-4.34,2.82-8.78,0.3-8.1-4.77
			c0.67-5.04,2.12-10.75,5.22-14.55c7.12-8.74,15.39-16.56,23.32-24.63c1.43-1.46,3.52-2.28,5.3-3.39c-0.58-0.65-1.15-1.3-1.73-1.95
			c-2.11,1.34-4.22,2.7-6.35,4.02c-9.21,5.7-11.35,4.92-14.63-5.95c-1.87,1.56-3.48,3.04-5.23,4.34c-2.41,1.79-4.72,4.27-7.45,4.95
			c-3.53,0.87-8.11,1.53-10.99-0.03c-3.89-2.1-1.58-6.58-0.56-10.09c0.33-1.14,0.72-2.26,1.38-4.33
			c-5.29,2.97-11.03,2.81-12.53,10.19c-1.35,6.63-18,12.63-23.95,9.54c-3.65-1.9-2.72-5.08-0.41-6.98
			c5.12-4.22,10.71-7.88,16.17-11.82c-1.5-2.43-1.47-2.37-4.58-0.62c-9.4,5.28-18.58,11.05-28.33,15.61
			c-8.32,3.89-15.79-1.99-14.76-10.85c0.4-3.42,1.31-6.77,2.05-10.14c0.1-0.46,0.46-0.97,0.85-1.26c2.89-2.11,5.57-4.86,8.82-6.03
			c2.5-0.9,6.81-0.88,8.38,0.68c2.93,2.89,0.28,5.85-2.59,7.68c-1.9,1.21-4.05,2.45-6.22,2.77c-4.62,0.68-5.55,4.16-5.9,7.56
			c-0.45,4.36,3.22,6.65,7.58,4.45c9.93-5.01,19.61-10.51,29.12-15.66c-0.93-8.08,6.46-15.58,14.43-15.63
			c2.39-0.01,4.93,1.02,6.05,3.13c1.81,3.39-0.68,7.4-3.07,10.42c-0.99,1.25-2.44,2.64-3.94,2.08c-1.63-0.61-1.63-3.01-0.73-4.5
			s2.39-2.62,2.98-4.25c0.11-0.31,0.19-0.65,0.06-0.95c-0.33-0.8-1.53-0.52-2.29-0.1c-8.45,4.66-6.44,6.7-1.75,14.47
			c6.49-2.26,12.24-3.95,17.68-6.34c1.83-0.8,2.65-3.66,4.34-5.09c1.22-1.03,3.13-1.24,4.73-1.82c-0.06,1.56,0.39,3.38-0.26,4.63
			c-3.21,6.17-6.71,12.19-10.1,18.27c0.59,0.62,1.19,1.25,1.78,1.87c3.2-1.73,6.61-3.17,9.56-5.25c6.07-4.27,11.75-9.1,17.89-13.26
			c3-2.03,6.53-3.59,10.05-4.49c6.21-1.58,9.97,1.88,9.69,8.22C451.9,96.92,451.97,98.91,451.97,101.39z M417.8,149.83
			c7.27-3.3,18.07-18.93,19.67-28.25C429.62,130.3,419.96,137.12,417.8,149.83z M446.5,92.8c-8.45-2.27-17.19,5.67-15.35,13.95
			C439.77,104.05,446.69,97.77,446.5,92.8z M384.07,107.35c-0.36-0.67-0.73-1.33-1.09-2c-4.06,2.23-8.12,4.46-12.17,6.69
			c0.32,0.59,0.64,1.18,0.96,1.76C375.87,111.66,379.97,109.5,384.07,107.35z"/>
		<path d="M304.97,39.82c0.17-0.08-0.34,5.65-0.49,6.16c-0.98,3.44-2.24,4.17-4.25,6.99c-6.97,9.78-10.22,25.47-13.7,36.81
			c-1.08,3.5,0.14,7.66-0.09,11.49c-0.12,1.87-0.94,3.66-2.27,4.7c-2.57,2.01-3.07-8.36-3.08-8.8c-0.1-4.93,0.3-10.07,1.35-14.9
			c3.02-13.95,9.74-26.43,17.23-38.49c0.42-0.68,0.72-1.43,1.51-3.01c-9.32,3.85-15.57,9.99-21.7,16.29
			c-1.11,1.14-1.97,2.63-3.27,3.45c-1.12,0.71-2.7,0.71-4.07,1.03c-0.06-1.4-0.76-3.32-0.09-4.13
			c9.91-11.93,21.21-22.14,37.27-24.54c18.25-2.73,33.39,13.76,29.31,31.98c-4.38,19.55-15.91,34.9-30.71,47.86
			c-5.92,5.18-13.75,2.92-17.08-4.44c-2.99-6.63-2.46-13.46,0.19-20.07c0.44-1.1,2.24-1.67,3.41-2.48c0.57,1.45,1.65,2.92,1.63,4.36
			c-0.08,4.83-1.55,9.84-0.64,14.42c1.21,6.09,5.74,7.32,10.19,3.12c13.07-12.31,23.77-26.25,27.68-44.27
			c1.65-7.58,0.15-14.46-6.12-19.66C321.39,38.94,311.93,36.15,304.97,39.82z"/>
		<path d="M418.61,68.84c1.6,1.84,3.32,3.3,3.11,3.67c-1.37,2.39-3.15,4.55-4.8,6.78c-0.89-0.87-2.69-2.09-2.51-2.54
			C415.38,74.3,416.84,72.03,418.61,68.84z"/>
	</g>
</g>
<g id="圖層_2">
</g>
</svg>
