<svg xmlns="http://www.w3.org/2000/svg" xmlns:xlink="http://www.w3.org/1999/xlink" width="1920" height="600" viewBox="0 0 1920 600">
  <defs>
    <clipPath id="clip-path">
      <rect id="Rectangle_2801" data-name="Rectangle 2801" width="464.794" height="346.152" fill="none"/>
    </clipPath>
    <clipPath id="clip-path-2">
      <rect id="Rectangle_2556" data-name="Rectangle 2556" width="391.589" height="291.633" fill="none"/>
    </clipPath>
    <clipPath id="clip-path-3">
      <rect id="Rectangle_2564" data-name="Rectangle 2564" width="442.179" height="27.453" fill="none"/>
    </clipPath>
    <clipPath id="clip-path-4">
      <rect id="Rectangle_2565" data-name="Rectangle 2565" width="168.748" height="18.059" fill="none"/>
    </clipPath>
    <clipPath id="clip-path-5">
      <rect id="Rectangle_2566" data-name="Rectangle 2566" width="102.717" height="14.04" fill="none"/>
    </clipPath>
    <clipPath id="clip-path-6">
      <rect id="Rectangle_2567" data-name="Rectangle 2567" width="371.469" height="21.329" fill="none"/>
    </clipPath>
    <clipPath id="clip-path-7">
      <rect id="Rectangle_2569" data-name="Rectangle 2569" width="61.446" height="5.932" fill="none"/>
    </clipPath>
    <clipPath id="clip-path-8">
      <rect id="Rectangle_2570" data-name="Rectangle 2570" width="91.39" height="14.04" fill="none"/>
    </clipPath>
    <clipPath id="clip-home-desktop-banner-1">
      <rect width="1920" height="600"/>
    </clipPath>
  </defs>
  <g id="home-desktop-banner-1" clip-path="url(#clip-home-desktop-banner-1)">
    <rect width="1920" height="600" fill="#fff"/>
    <rect id="Rectangle_2379" data-name="Rectangle 2379" width="1920" height="590" fill="#fff4ee"/>
    <g id="Group_3101" data-name="Group 3101" transform="translate(2131 590) rotate(180)" clip-path="url(#clip-path)">
      <path id="Path_6168" data-name="Path 6168" d="M397.351,5.781c-17.8-2.09-35.7-2.914-53.584-4C333.928,1.188,324.1.05,314.235,0a184.41,184.41,0,0,0-21.758,1.284C276.7,3.662,261.07,6.991,245.3,9.416c-9.46,1.455-19.511,3.3-29.166,2.53a84.021,84.021,0,0,1-17.16-2.993c-2.289,1.511-4.707,3.016-7.283,4.51-64.62,37.491-106.16.577-150.452,37.869C.134,85.939-11.888,157.969,12.651,186.88c18.454,21.743,47.815,7.584,64.62,30.521,21.737,29.668-16.547,68.146,2.651,100.015C98.782,348.726,178.757,352.5,221.38,338.1c31.864-10.766,9.945-55.42,60.886-86.544,59.455-36.326,74.665,7.565,102.379-15.143,26.458-21.68-.474-62.123,13.613-95.116,17.562-41.131,48.981-29.479,63.181-65.417,6.945-17.576,2.444-38.422-7.43-58.1-19.038-2.8-37.662-8.933-56.659-12.006" transform="translate(0 0)" fill="#f89a68"/>
    </g>
    <path id="header-shape" d="M1112.963,125.258c176.535,36.6,440.387,50.25,800.037-72.3-.253,48.75-.38,97.5-.633,146.1H-8V48.908a1499.277,1499.277,0,0,1,278.406-42.3c115.159-6.45,219.687,1.5,389.009,27.9,231.836,36.3,373.57,74.1,453.548,90.75Z" transform="translate(8 390.942)" fill="#fff"/>
    <g id="Group_2627" data-name="Group 2627" transform="translate(-142.589 -107.633)" clip-path="url(#clip-path-2)">
      <path id="Path_5734" data-name="Path 5734" d="M334.768,4.87c-14.993-1.761-30.08-2.455-45.145-3.367C281.334,1,273.052.042,264.743,0a155.366,155.366,0,0,0-18.331,1.082c-13.294,2-26.46,4.808-39.75,6.851-7.97,1.225-16.438,2.776-24.572,2.131a70.788,70.788,0,0,1-14.457-2.521c-1.928,1.273-3.966,2.541-6.136,3.8-54.442,31.586-89.44.486-126.756,31.905C.113,72.4-10.015,133.089,10.659,157.446c15.547,18.319,40.284,6.389,54.442,25.714,18.314,25-13.94,57.413,2.233,84.263,15.89,26.378,83.268,29.561,119.179,17.429,26.845-9.07,8.379-46.691,51.3-72.913,50.091-30.6,62.905,6.373,86.254-12.758,22.291-18.265-.4-52.339,11.469-80.135,14.8-34.653,41.267-24.836,53.23-55.114,5.851-14.808,2.059-32.371-6.26-48.947-16.04-2.358-31.73-7.526-47.735-10.115" transform="translate(0 0)" fill="#f89a68"/>
    </g>
    <g id="Group_2665" data-name="Group 2665" transform="translate(8 -6.661)">
      <path id="Path_5780" data-name="Path 5780" d="M73.59,353.528c-1.643,0-3.3-.063-4.934-.186l.093-1.22c1.6.121,3.23.183,4.842.183Zm-9.841-.746c-1.624-.248-3.256-.562-4.849-.934l.277-1.191c1.563.364,3.163.672,4.757.916Zm-9.613-2.239c-1.568-.5-3.134-1.057-4.655-1.67l.457-1.135c1.491.6,3.027,1.153,4.565,1.639Zm-9.165-3.693c-1.471-.73-2.931-1.525-4.34-2.364l.626-1.051c1.383.822,2.816,1.6,4.259,2.319ZM36.483,341.8c-1.339-.943-2.66-1.951-3.928-3l.778-.944c1.244,1.024,2.54,2.014,3.854,2.939Zm-7.617-6.282c-1.183-1.137-2.336-2.334-3.428-3.556l.913-.815c1.071,1.2,2.2,2.374,3.363,3.489Zm-6.574-7.363c-1-1.3-1.955-2.661-2.847-4.033l1.027-.667c.874,1.347,1.814,2.678,2.792,3.958Zm-5.379-8.273c-.786-1.441-1.527-2.928-2.2-4.421l1.116-.5c.659,1.464,1.384,2.923,2.157,4.336Zm-4.049-8.994c-.558-1.546-1.061-3.13-1.5-4.708l1.18-.326c.427,1.549.92,3.1,1.467,4.618Zm-2.622-9.516c-.313-1.61-.566-3.252-.755-4.88l1.216-.141c.185,1.6.434,3.208.74,4.788Zm-1.136-9.8c-.034-.85-.051-1.716-.051-2.575,0-.783.015-1.578.043-2.364l1.223.044c-.028.772-.042,1.552-.042,2.32,0,.843.017,1.693.049,2.527Zm1.572-9.728-1.217-.136c.184-1.629.432-3.271.739-4.884l1.2.229c-.3,1.582-.546,3.194-.725,4.79m1.815-9.51-1.181-.321c.431-1.582.929-3.168,1.481-4.713l1.152.411c-.541,1.516-1.029,3.071-1.452,4.623m3.257-9.123-1.117-.5c.67-1.5,1.407-2.992,2.187-4.432l1.076.583c-.767,1.414-1.489,2.876-2.146,4.349m4.618-8.52-1.027-.664c.89-1.378,1.845-2.74,2.837-4.044l.974.739c-.973,1.281-1.909,2.616-2.784,3.969m5.862-7.712-.916-.813c1.089-1.226,2.24-2.426,3.418-3.566l.851.88c-1.157,1.118-2.285,2.3-3.353,3.5m6.963-6.734-.782-.942c1.263-1.047,2.581-2.059,3.918-3.005l.708,1c-1.312.928-2.6,1.921-3.844,2.949m7.9-5.6-.628-1.049c1.407-.844,2.864-1.643,4.328-2.374l.546,1.094c-1.436.717-2.864,1.5-4.246,2.329m8.658-4.324-.461-1.133c1.517-.618,3.08-1.184,4.644-1.684l.371,1.166c-1.534.49-3.066,1.046-4.555,1.651m9.223-2.945-.281-1.191c1.594-.377,3.225-.7,4.846-.949l.19,1.209c-1.591.249-3.191.562-4.755.932m9.568-1.5-.1-1.22c1.634-.129,3.295-.2,4.935-.2l0,1.224c-1.609,0-3.238.071-4.842.2" transform="translate(791.935 21.602)" fill="#f27634"/>
      <path id="Path_5789" data-name="Path 5789" d="M479.65,136.434c-4.415,0-9.992-1.918-16.655-5.736a96.978,96.978,0,0,1-12.081-8.283.612.612,0,0,1,.78-.943c.21.173,21.03,17.26,31.823,13.076a.612.612,0,1,1,.442,1.141,11.863,11.863,0,0,1-4.31.746" transform="translate(739.995 33.73)" fill="#fff"/>
      <path id="Path_5790" data-name="Path 5790" d="M478.792,144.968c-11.271,0-17.185-5.564-17.491-5.859a.612.612,0,0,1,.85-.881c.088.086,9.089,8.5,25.829,4.332a.612.612,0,0,1,.295,1.188,39.192,39.192,0,0,1-9.483,1.22" transform="translate(738.769 31.763)" fill="#fff"/>
      <path id="Path_5796" data-name="Path 5796" d="M523.926,121.724c-12.753,0-18.43-12.464-18.488-12.6a.611.611,0,0,1,.379-.832c12.958-3.984,20.513,12.3,20.587,12.468a.612.612,0,0,1-.5.862q-1.017.1-1.981.1M506.877,109.27c1.358,2.541,7.072,11.772,18.011,11.205-1.621-3.048-8.073-13.689-18.011-11.205" transform="translate(733.563 35.337)" fill="#fa7e8d"/>
      <path id="Path_5799" data-name="Path 5799" d="M829.45,414.942c-1.509,0-3.033-.038-4.534-.114l.062-1.223c1.481.076,2.983.114,4.468.114l.389,0,.006,1.224Zm5.316-.158-.073-1.221c1.609-.1,3.237-.238,4.84-.424l.141,1.216c-1.626.188-3.277.333-4.908.429M820,414.442c-1.624-.173-3.266-.4-4.882-.658l.2-1.209c1.594.261,3.215.479,4.815.65Zm24.544-.79-.208-1.205c1.586-.274,3.188-.6,4.762-.962l.276,1.193c-1.6.369-3.222.7-4.83.974m-34.264-.8c-1.6-.355-3.206-.76-4.778-1.2l.333-1.179c1.55.438,3.135.837,4.711,1.187Zm43.861-1.42-.343-1.174c1.553-.454,3.11-.955,4.625-1.491l.409,1.153c-1.537.544-3.116,1.053-4.69,1.512M800.8,410.18c-1.554-.535-3.109-1.119-4.621-1.736l.462-1.133c1.491.609,3.024,1.184,4.557,1.712Zm62.62-2.03-.473-1.129c1.486-.622,2.974-1.294,4.42-2l.536,1.1c-1.467.713-2.975,1.394-4.483,2.025m-71.756-1.7c-1.484-.706-2.962-1.46-4.394-2.244l.588-1.073c1.412.772,2.869,1.516,4.333,2.212Zm80.6-2.6-.6-1.068c1.4-.783,2.806-1.617,4.172-2.481l.655,1.033c-1.384.876-2.808,1.723-4.231,2.516m-89.256-2.127c-1.393-.866-2.778-1.782-4.114-2.72l.7-1c1.317.925,2.682,1.827,4.056,2.682Zm97.57-3.137-.711-1c1.311-.936,2.614-1.923,3.871-2.932l.767.955c-1.276,1.024-2.6,2.023-3.927,2.973m-105.637-2.527c-1.284-1.012-2.557-2.075-3.784-3.159l.81-.918c1.21,1.069,2.465,2.117,3.732,3.117Zm113.318-3.633-.817-.911c1.2-1.076,2.383-2.2,3.523-3.345l.867.864c-1.155,1.16-2.358,2.3-3.573,3.392m-120.7-2.89c-1.165-1.151-2.312-2.348-3.408-3.559l.907-.821c1.081,1.193,2.211,2.374,3.361,3.508Zm127.656-4.088-.912-.814c1.072-1.2,2.125-2.453,3.132-3.718l.957.762c-1.02,1.282-2.089,2.55-3.177,3.77m-134.267-3.211c-1.029-1.272-2.035-2.589-2.99-3.913l.993-.716c.942,1.307,1.934,2.6,2.949,3.859Zm140.405-4.5-1-.708c.931-1.313,1.84-2.674,2.7-4.044l1.036.65c-.873,1.39-1.794,2.77-2.738,4.1m-146.163-3.485c-.881-1.378-1.733-2.8-2.534-4.22l1.066-.6c.79,1.4,1.631,2.8,2.5,4.161Zm151.4-4.865-1.07-.593c.779-1.408,1.53-2.863,2.232-4.322l1.1.53c-.712,1.48-1.474,2.955-2.264,4.385m-156.233-3.708c-.721-1.466-1.408-2.971-2.046-4.474l1.128-.477c.627,1.482,1.307,2.967,2.017,4.411Zm160.51-5.182-1.131-.467c.619-1.5,1.2-3.027,1.732-4.55l1.156.4c-.539,1.545-1.13,3.1-1.757,4.614m-164.346-3.871c-.552-1.538-1.067-3.114-1.534-4.683l1.174-.348c.459,1.547.968,3.1,1.512,4.617Zm167.594-5.439-1.176-.336c.445-1.552.851-3.136,1.206-4.707l1.194.271c-.361,1.593-.773,3.2-1.224,4.772m-170.393-4.005c-.375-1.589-.71-3.213-1-4.825l1.2-.214c.282,1.59.613,3.191.984,4.759Zm172.57-5.6-1.206-.2c.267-1.588.493-3.207.671-4.812l1.217.135c-.182,1.628-.411,3.269-.682,4.88m-174.291-4.1c-.2-1.625-.348-3.276-.452-4.906l1.221-.078c.1,1.608.252,3.235.446,4.837Zm175.38-5.692-1.222-.067c.089-1.611.133-3.245.133-4.857q0-.774-.013-1.544l1.224-.021q.013.781.013,1.565c0,1.634-.045,3.29-.135,4.924m-176.009-4.138c0-.261,0-.524,0-.786,0-1.382.033-2.773.1-4.139l1.222.057c-.063,1.346-.094,2.72-.094,4.082,0,.259,0,.518,0,.776Zm174.688-7.185c-.116-1.6-.281-3.23-.488-4.833l1.214-.157c.21,1.627.376,3.276.494,4.9ZM743.049,317.94l-1.218-.124c.167-1.624.381-3.268.638-4.885l1.208.192c-.252,1.594-.464,3.215-.628,4.817m171.771-7.1c-.3-1.584-.641-3.182-1.024-4.748l1.188-.292c.39,1.589.74,3.209,1.04,4.816Zm-170.245-2.489-1.2-.259c.348-1.6.746-3.209,1.182-4.783l1.18.327c-.431,1.552-.822,3.14-1.165,4.716m167.93-6.943c-.472-1.542-.994-3.091-1.553-4.6l1.149-.424c.566,1.534,1.1,3.105,1.574,4.669Zm-165.337-2.418-1.159-.393c.525-1.55,1.1-3.109,1.715-4.63l1.135.458c-.6,1.5-1.174,3.035-1.692,4.565M909.146,292.3c-.641-1.477-1.333-2.955-2.057-4.393l1.093-.55c.733,1.459,1.436,2.958,2.086,4.455ZM750.8,289.964l-1.107-.522c.694-1.477,1.443-2.96,2.224-4.4l1.077.581c-.77,1.425-1.508,2.886-2.193,4.344m153.986-6.328c-.8-1.4-1.656-2.787-2.537-4.138l1.025-.668c.894,1.369,1.759,2.782,2.572,4.2Zm-149.361-2.227-1.042-.641c.857-1.392,1.766-2.78,2.7-4.126l1.005.7c-.922,1.326-1.819,2.7-2.663,4.069m144.06-5.9c-.953-1.3-1.956-2.587-2.983-3.833l.944-.778c1.041,1.264,2.06,2.572,3.026,3.887Zm-138.511-2.078-.964-.754c1.008-1.288,2.065-2.566,3.143-3.8l.92.8c-1.063,1.215-2.105,2.475-3.1,3.747m132.335-5.416c-1.091-1.184-2.232-2.355-3.391-3.479l.852-.879c1.175,1.141,2.332,2.328,3.44,3.529Zm-125.934-1.9-.875-.855c1.141-1.166,2.333-2.317,3.544-3.425l.826.9c-1.194,1.092-2.37,2.227-3.494,3.376m118.962-4.87c-1.219-1.058-2.484-2.095-3.759-3.082l.749-.968c1.294,1,2.577,2.053,3.812,3.126Zm-111.793-1.682-.775-.948c1.264-1.032,2.577-2.044,3.9-3.008l.72.989c-1.305.95-2.6,1.948-3.845,2.967m104.11-4.268c-1.327-.915-2.7-1.8-4.081-2.647l.637-1.044c1.4.853,2.792,1.756,4.138,2.683ZM782.4,253.852l-.663-1.028c1.371-.885,2.787-1.744,4.208-2.554l.605,1.063c-1.4.8-2.8,1.646-4.151,2.518m87.959-3.616c-1.426-.762-2.891-1.494-4.354-2.173l.515-1.11c1.483.689,2.969,1.43,4.416,2.2Zm-79.526-1.183-.545-1.1c1.462-.726,2.964-1.422,4.465-2.066l.483,1.125c-1.48.634-2.961,1.319-4.4,2.037m70.7-2.915c-1.509-.6-3.047-1.162-4.572-1.671l.387-1.16c1.547.515,3.108,1.086,4.637,1.694Zm-61.794-.907-.418-1.15c1.54-.56,3.113-1.083,4.677-1.554l.352,1.171c-1.541.465-3.092.98-4.611,1.533m52.572-2.172c-1.557-.424-3.146-.808-4.723-1.144l.255-1.2c1.6.341,3.21.731,4.789,1.16Zm-43.272-.63-.287-1.19c1.593-.383,3.215-.725,4.821-1.017l.218,1.2c-1.584.289-3.183.626-4.753,1m33.772-1.389c-1.6-.246-3.216-.45-4.821-.607l.12-1.218c1.626.159,3.271.366,4.888.615Zm-24.216-.351-.152-1.214c1.627-.2,3.276-.362,4.9-.472l.083,1.221c-1.6.109-3.23.265-4.835.465m14.549-.594c-1.617-.068-3.251-.094-4.858-.07l-.017-1.223c1.63-.025,3.284,0,4.926.071Z" transform="translate(705.809 19.916)" fill="#f27634"/>
      <path id="Path_5800" data-name="Path 5800" d="M381.831,44.734a3.9,3.9,0,0,1-3.712-2.62l-.706-1.984a1.778,1.778,0,0,0-2.441-1.01l-1.9.9a3.94,3.94,0,0,1-5.252-5.25l.9-1.9a1.78,1.78,0,0,0-1.011-2.441l-1.984-.706a3.94,3.94,0,0,1,0-7.425l1.984-.705a1.782,1.782,0,0,0,1.011-2.442l-.9-1.9A3.941,3.941,0,0,1,373.071,12l1.9.9a1.778,1.778,0,0,0,2.441-1.011l.706-1.983a3.94,3.94,0,0,1,7.425,0l.706,1.983a1.777,1.777,0,0,0,2.44,1.011l1.9-.9a3.942,3.942,0,0,1,5.252,5.252l-.9,1.9a1.781,1.781,0,0,0,1.012,2.441l1.983.705a3.94,3.94,0,0,1,0,7.425l-1.983.706a1.78,1.78,0,0,0-1.012,2.441l.9,1.9a3.94,3.94,0,0,1-5.252,5.249l-1.9-.9a1.778,1.778,0,0,0-2.44,1.01l-.706,1.984a3.9,3.9,0,0,1-3.713,2.62m-6.1-7.372a3.366,3.366,0,0,1,3.17,2.238l.706,1.984a2.355,2.355,0,0,0,4.438,0l.706-1.984a3.364,3.364,0,0,1,4.615-1.912l1.9.9a2.355,2.355,0,0,0,3.138-3.138l-.9-1.9a3.367,3.367,0,0,1,1.912-4.615l1.984-.706a2.355,2.355,0,0,0,0-4.438l-1.984-.705a3.368,3.368,0,0,1-1.912-4.616l.9-1.9a2.355,2.355,0,0,0-3.138-3.138l-1.9.9a3.365,3.365,0,0,1-4.615-1.912l-.706-1.984a2.355,2.355,0,0,0-4.438,0l-.706,1.984a3.366,3.366,0,0,1-4.616,1.912l-1.9-.9a2.355,2.355,0,0,0-3.138,3.138l.9,1.9a3.368,3.368,0,0,1-1.912,4.616l-1.984.705a2.355,2.355,0,0,0,0,4.438l1.984.706a3.367,3.367,0,0,1,1.912,4.615l-.9,1.9a2.355,2.355,0,0,0,3.138,3.14l1.9-.9a3.363,3.363,0,0,1,1.446-.326m6.1-2.868a8.484,8.484,0,1,1,8.485-8.484,8.493,8.493,0,0,1-8.485,8.484m0-15.383a6.9,6.9,0,1,0,6.9,6.9,6.907,6.907,0,0,0-6.9-6.9" transform="translate(794.467 41.883)" fill="#8ec2fe"/>
      <g id="Group_2658" data-name="Group 2658" transform="translate(28.461 -26.621)">
        <path id="Path_5803" data-name="Path 5803" d="M54.638,109.918a.612.612,0,0,1-.457-1.018,7.237,7.237,0,0,1,10.532-.314.612.612,0,0,1-.866.865,6.014,6.014,0,0,0-8.752.262.612.612,0,0,1-.458.206" transform="translate(786.646 35.479)" fill="#f27634"/>
        <path id="Path_5804" data-name="Path 5804" d="M47.2,103.58a.612.612,0,0,1-.442-1.035,16.73,16.73,0,0,1,23.922-.266.612.612,0,1,1-.866.865,15.507,15.507,0,0,0-22.172.248.612.612,0,0,1-.442.189" transform="translate(787.521 36.548)" fill="#f27634"/>
        <path id="Path_5805" data-name="Path 5805" d="M40.525,96.7a.612.612,0,0,1-.44-1.036,25,25,0,0,1,35.693-.337.611.611,0,0,1-.865.865,23.782,23.782,0,0,0-33.947.32.607.607,0,0,1-.44.188" transform="translate(788.306 37.65)" fill="#f27634"/>
        <path id="Path_5806" data-name="Path 5806" d="M59.854,122.641a3.184,3.184,0,1,1,3.184-3.184,3.187,3.187,0,0,1-3.184,3.184m0-5.143a1.96,1.96,0,1,0,1.96,1.96,1.962,1.962,0,0,0-1.96-1.96" transform="translate(786.335 34.325)" fill="#f27634"/>
      </g>
      <g id="Group_2661" data-name="Group 2661" transform="translate(106.428 16.43)">
        <path id="Path_5807" data-name="Path 5807" d="M197.653.295C185.377.969,177.506,1.4,173.2,7.281c-5.632,7.7-2.63,21.281,5.24,28.642,8.5,7.953,20.115,6.231,24.451,5.588,2.869-.425,21.944-3.254,24.8-16.765,1.843-8.724-3.934-17.841-10.828-22.006C211.553-.469,206.486-.191,197.653.295" transform="translate(772.971 48)" fill="#8ec2fe"/>
        <path id="Path_5808" data-name="Path 5808" d="M192.39,23.317a2.652,2.652,0,1,1-2.652-2.652,2.652,2.652,0,0,1,2.652,2.652" transform="translate(770.997 45.57)" fill="#fff"/>
        <path id="Path_5809" data-name="Path 5809" d="M204.178,23.317a2.652,2.652,0,1,1-2.652-2.652,2.652,2.652,0,0,1,2.652,2.652" transform="translate(769.611 45.57)" fill="#fff"/>
        <path id="Path_5810" data-name="Path 5810" d="M215.966,23.317a2.652,2.652,0,1,1-2.652-2.652,2.652,2.652,0,0,1,2.652,2.652" transform="translate(768.224 45.57)" fill="#fff"/>
        <path id="Path_5811" data-name="Path 5811" d="M216.358,40.624s-2.427,7.846,12.176,8.259c0,0-3.553-6.424-.595-15.932Z" transform="translate(767.572 44.125)" fill="#8ec2fe"/>
      </g>
      <g id="Group_2662" data-name="Group 2662" transform="translate(-20.811 27.338)">
        <path id="Path_5812" data-name="Path 5812" d="M888.631,143.182H877.818a.613.613,0,0,1-.607-.536,21.663,21.663,0,0,0-1.292-5.209c-.151-.3-.394-.736-.692-1.268-1.512-2.7-4.328-7.728-4.328-11.62a11.762,11.762,0,0,1,2.622-7.49c2.168-2.574,5.523-3.935,9.7-3.935s7.536,1.361,9.7,3.935a11.762,11.762,0,0,1,2.622,7.49c0,3.892-2.816,8.919-4.328,11.62-.3.532-.541.965-.693,1.268a21.639,21.639,0,0,0-1.292,5.209.612.612,0,0,1-.607.536m-10.281-1.224h9.75a20.075,20.075,0,0,1,1.336-5.068c.157-.315.409-.766.719-1.318,1.458-2.6,4.172-7.45,4.172-11.023,0-4.706-2.907-10.2-11.1-10.2s-11.1,5.5-11.1,10.2c0,3.573,2.713,8.419,4.172,11.023.31.552.561,1,.719,1.318a20.153,20.153,0,0,1,1.336,5.068" transform="translate(690.575 34.696)" fill="#f27634"/>
        <path id="Path_5813" data-name="Path 5813" d="M889.242,150.181H878.89a.831.831,0,0,1,0-1.662h10.352a.831.831,0,1,1,0,1.662" transform="translate(689.733 30.533)" fill="#f27634"/>
        <path id="Path_5814" data-name="Path 5814" d="M889.242,154.09H878.89a.831.831,0,1,1,0-1.662h10.352a.831.831,0,1,1,0,1.662" transform="translate(689.733 30.073)" fill="#f27634"/>
        <path id="Path_5815" data-name="Path 5815" d="M879.875,156.336a5.267,5.267,0,0,0,4.505,2.991,4.332,4.332,0,0,0,4.055-2.991Z" transform="translate(689.52 29.614)" fill="#f27634"/>
        <path id="Path_5816" data-name="Path 5816" d="M884.9,104.2a.611.611,0,0,1-.612-.611V93.226a.611.611,0,1,1,1.223,0v10.363a.611.611,0,0,1-.611.611" transform="translate(689 37.108)" fill="#f27634"/>
        <path id="Path_5817" data-name="Path 5817" d="M869.408,109.437a.61.61,0,0,1-.469-.219l-6.66-7.938a.612.612,0,0,1,.937-.786l6.661,7.938a.612.612,0,0,1-.469,1.005" transform="translate(691.606 36.207)" fill="#f27634"/>
        <path id="Path_5818" data-name="Path 5818" d="M861.362,123.618a.735.735,0,0,1-.107-.008l-10.2-1.8a.612.612,0,1,1,.213-1.205l10.2,1.8a.611.611,0,0,1-.106,1.213" transform="translate(692.969 33.817)" fill="#f27634"/>
        <path id="Path_5819" data-name="Path 5819" d="M906.654,124.121a.612.612,0,0,1-.106-1.214l10.2-1.8a.612.612,0,0,1,.213,1.205l-10.2,1.8a.63.63,0,0,1-.107.009" transform="translate(686.442 33.758)" fill="#f27634"/>
        <path id="Path_5820" data-name="Path 5820" d="M899.384,109.765a.612.612,0,0,1-.469-1.005l6.661-7.938a.612.612,0,1,1,.937.786l-6.661,7.938a.608.608,0,0,1-.469.219" transform="translate(687.297 36.168)" fill="#f27634"/>
        <path id="Path_5821" data-name="Path 5821" d="M883.107,144.291l-1.214-.146a56.149,56.149,0,0,0,.21-11.111,6.171,6.171,0,0,1-2.849-1.549,4.9,4.9,0,0,1-1.557-3.32c0-1.145.644-1.916,1.6-1.916a2.839,2.839,0,0,1,2.19,1.031,9.413,9.413,0,0,1,1.71,4.708,7.927,7.927,0,0,0,1.819-.017c.269-2.167.764-4.029,1.625-4.972a2.111,2.111,0,0,1,1.6-.75,1.979,1.979,0,0,1,1.986,2.182,4.511,4.511,0,0,1-1.552,3.2,6.032,6.032,0,0,1-2.532,1.361,71.53,71.53,0,0,0,.122,11.169l-1.219.111a72.636,72.636,0,0,1-.156-11.055,9.034,9.034,0,0,1-1.538.014,59.1,59.1,0,0,1-.245,11.059M879.3,127.473c-.33,0-.379.433-.379.692a3.609,3.609,0,0,0,1.186,2.442,4.839,4.839,0,0,0,1.817,1.1,7.558,7.558,0,0,0-1.349-3.614,1.645,1.645,0,0,0-1.274-.618m8.941,0a.894.894,0,0,0-.694.351,7.745,7.745,0,0,0-1.256,3.838,4.693,4.693,0,0,0,1.557-.932,3.3,3.3,0,0,0,1.154-2.3c0-.357-.1-.958-.762-.958" transform="translate(689.775 33.152)" fill="#f27634"/>
      </g>
      <rect id="Rectangle_2561" data-name="Rectangle 2561" width="8.566" height="8.566" transform="translate(793 393.901) rotate(-56.176)" fill="#fa7e8d"/>
      <rect id="Rectangle_2562" data-name="Rectangle 2562" width="8.566" height="8.566" transform="translate(1072.458 523.2) rotate(-52.172)" fill="#f27634"/>
      <rect id="Rectangle_2563" data-name="Rectangle 2563" width="8.566" height="8.565" transform="matrix(0.613, -0.79, 0.79, 0.613, 1408.969, 137.854)" fill="#f27634"/>
      <path id="Path_5822" data-name="Path 5822" d="M265.278,444.313l-.023-1.224c1.647-.03,3.281-.1,4.858-.207l.083,1.221c-1.6.109-3.252.18-4.918.21m-4.921-.026c-1.6-.045-3.256-.125-4.915-.24l.085-1.221c1.643.114,3.279.194,4.864.237Zm14.741-.657-.152-1.214c1.629-.2,3.243-.456,4.794-.749l.228,1.2c-1.577.3-3.215.554-4.87.762m-24.554-.018c-1.594-.171-3.236-.376-4.878-.609l.172-1.212c1.628.231,3.255.435,4.835.6Zm-9.732-1.377-.553-.1.215-1.2.55.1Zm43.969-.446-.31-1.184c1.584-.414,3.144-.885,4.636-1.4l.4,1.157c-1.521.524-3.11,1-4.724,1.426m9.325-3.225-.493-1.12c1.488-.657,2.945-1.378,4.33-2.147l.594,1.07c-1.418.786-2.908,1.526-4.431,2.2m8.637-4.8-.694-1.007a47.447,47.447,0,0,0,3.828-2.937l.794.931a48.433,48.433,0,0,1-3.927,3.013m7.523-6.422-.889-.841a45.683,45.683,0,0,0,3.128-3.672l.972.743a46.778,46.778,0,0,1-3.212,3.77m6.006-7.859-1.045-.637a47.777,47.777,0,0,0,2.3-4.245l1.1.527a48.528,48.528,0,0,1-2.358,4.355m4.271-8.921-1.15-.418c.543-1.492,1.028-3.046,1.442-4.617l1.183.312c-.424,1.606-.919,3.2-1.475,4.723m2.527-9.554-1.205-.21c.273-1.567.487-3.184.636-4.8l1.219.112c-.153,1.652-.371,3.3-.649,4.9m.919-9.831-1.224-.022q.011-.6.011-1.194c0-1.2-.033-2.434-.1-3.657l1.222-.064c.065,1.244.1,2.5.1,3.721q0,.609-.011,1.216m-1.727-9.709c-.189-1.584-.433-3.2-.727-4.8l1.2-.221c.3,1.626.547,3.268.739,4.877Zm-1.75-9.55c-.385-1.557-.822-3.132-1.3-4.681l1.169-.362c.486,1.572.93,3.17,1.32,4.751Zm-2.87-9.282c-.56-1.5-1.174-3.019-1.825-4.505l1.122-.491c.659,1.507,1.282,3.045,1.85,4.57Zm-3.895-8.9c-.73-1.444-1.507-2.884-2.309-4.279l1.06-.611c.814,1.414,1.6,2.874,2.341,4.338Zm-4.85-8.423c-.88-1.353-1.81-2.7-2.764-4l.987-.724c.967,1.32,1.91,2.685,2.8,4.055Zm-5.744-7.84c-1.031-1.251-2.106-2.484-3.194-3.663l.9-.83c1.1,1.2,2.194,2.446,3.239,3.716Zm-6.594-7.133c-1.159-1.118-2.37-2.217-3.6-3.265l.794-.931c1.246,1.064,2.474,2.18,3.652,3.315Zm-7.385-6.3c-1.294-.974-2.63-1.916-3.969-2.8l.673-1.022c1.361.9,2.717,1.852,4.032,2.842Z" transform="translate(764.744 10.341)" fill="#f27634"/>
      <path id="Path_5829" data-name="Path 5829" d="M661.849,240.713a.627.627,0,0,1-.125-.134c-4.691-6.875,3.264-23.007,3.605-23.691a.612.612,0,1,1,1.1.546c-.08.161-7.978,16.172-3.689,22.454a.612.612,0,0,1-.886.825" transform="translate(715.35 22.532)" fill="#fff"/>
      <path id="Path_5830" data-name="Path 5830" d="M657.739,244.781a.609.609,0,0,1-.164-.2c-5.513-10.77-1.249-18.121-1.065-18.428a.612.612,0,0,1,1.05.627c-.048.08-4.079,7.116,1.1,17.243a.612.612,0,0,1-.925.758" transform="translate(715.994 21.438)" fill="#fff"/>
      <path id="Path_5837" data-name="Path 5837" d="M632.506,130.852c.067-1.638.1-3.275.1-4.866h1.224c0,1.608-.036,3.261-.1,4.916Zm0-9.731c-.071-1.637-.181-3.268-.326-4.851l1.219-.112c.147,1.6.258,3.254.329,4.911Zm-.9-9.677c-.236-1.621-.517-3.23-.836-4.783l1.2-.246c.323,1.576.608,3.209.847,4.854Zm-1.959-9.5c-.43-1.576-.912-3.134-1.435-4.632l1.156-.4c.531,1.525,1.023,3.11,1.459,4.713Zm-3.2-9.143c-.65-1.491-1.362-2.956-2.113-4.354l1.078-.58c.767,1.428,1.492,2.922,2.157,4.445Zm-78.361-25.91-.463-1.132c1.52-.623,3.074-1.206,4.618-1.733l.4,1.159c-1.521.519-3.052,1.093-4.55,1.707m73.776,17.4c-.887-1.352-1.841-2.669-2.834-3.915l.956-.763c1.017,1.276,1.993,2.624,2.9,4.007ZM557.286,63.755l-.324-1.181c1.588-.435,3.2-.823,4.8-1.154l.249,1.2c-1.571.326-3.16.708-4.723,1.137m58.559,12.989c-1.117-1.155-2.3-2.266-3.525-3.3l.791-.934c1.253,1.062,2.469,2.2,3.613,3.384ZM566.793,61.787l-.17-1.212c1.636-.229,3.288-.4,4.91-.521l.088,1.22c-1.594.115-3.219.287-4.828.513M608.487,70.5c-1.315-.909-2.7-1.767-4.1-2.55l.595-1.069c1.442.8,2.857,1.681,4.2,2.613Zm-32.018-9.4V59.874c1.652,0,3.313.059,4.937.178l-.09,1.22c-1.594-.117-3.224-.176-4.846-.175m23.585,4.709c-1.461-.64-2.981-1.223-4.514-1.734l.387-1.161c1.569.522,3.122,1.12,4.618,1.774Zm-13.922-3.99.185-1.21c1.638.251,3.27.57,4.853.948l-.285,1.19c-1.55-.371-3.149-.682-4.753-.928" transform="translate(711.329 354.098) rotate(-30)" fill="#f27634"/>
      <g id="Group_2639" data-name="Group 2639" transform="translate(935.275 465.187)" opacity="0.2">
        <g id="Group_2638" data-name="Group 2638">
          <g id="Group_2637" data-name="Group 2637" clip-path="url(#clip-path-3)">
            <path id="Path_5838" data-name="Path 5838" d="M603.417,486.517c0,7.581-98.985,13.727-221.089,13.727S161.238,494.1,161.238,486.517s98.985-13.727,221.089-13.727,221.089,6.146,221.089,13.727" transform="translate(-161.238 -472.791)" fill="#1a1552"/>
          </g>
        </g>
      </g>
      <g id="Group_2642" data-name="Group 2642" transform="translate(821.12 508.526)" opacity="0.2">
        <g id="Group_2641" data-name="Group 2641">
          <g id="Group_2640" data-name="Group 2640" clip-path="url(#clip-path-4)">
            <path id="Path_5839" data-name="Path 5839" d="M200.616,530.937c0,4.987-37.775,9.029-84.374,9.029s-84.373-4.042-84.373-9.029,37.775-9.03,84.373-9.03,84.374,4.042,84.374,9.03" transform="translate(-31.868 -521.907)" fill="#1a1552"/>
          </g>
        </g>
      </g>
      <g id="Group_2645" data-name="Group 2645" transform="translate(945.406 536.901)" opacity="0.2">
        <g id="Group_2644" data-name="Group 2644">
          <g id="Group_2643" data-name="Group 2643" clip-path="url(#clip-path-5)">
            <path id="Path_5840" data-name="Path 5840" d="M275.436,561.083c0,3.877-22.994,7.02-51.359,7.02s-51.358-3.143-51.358-7.02,22.993-7.02,51.358-7.02,51.359,3.143,51.359,7.02" transform="translate(-172.719 -554.063)" fill="#1a1552"/>
          </g>
        </g>
      </g>
      <g id="Group_2648" data-name="Group 2648" transform="translate(1215.65 518.573)" opacity="0.2">
        <g id="Group_2647" data-name="Group 2647">
          <g id="Group_2646" data-name="Group 2646" clip-path="url(#clip-path-6)">
            <path id="Path_5841" data-name="Path 5841" d="M850.451,543.957c0,5.89-83.157,10.665-185.735,10.665s-185.736-4.775-185.736-10.665,83.157-10.665,185.736-10.665,185.735,4.775,185.735,10.665" transform="translate(-478.982 -533.292)" fill="#1a1552"/>
          </g>
        </g>
      </g>
      <path id="Path_5842" data-name="Path 5842" d="M471.257,464.279H344.828s24.863-24.388,21.348-42.194h83.734c-3.155,29.108,21.348,42.194,21.348,42.194" transform="translate(752.445 -1.641)" fill="#18679c"/>
      <path id="Path_5843" data-name="Path 5843" d="M590.581,384.752H184.519a13.935,13.935,0,0,1-13.935-13.936V118.589a13.934,13.934,0,0,1,13.935-13.935H590.581a13.934,13.934,0,0,1,13.935,13.935V370.816a13.935,13.935,0,0,1-13.935,13.936" transform="translate(772.938 35.692)" fill="#f9f9f9" stroke="#2d4383" stroke-width="1"/>
      <path id="Path_5844" data-name="Path 5844" d="M470.886,485.664H344.456a2.787,2.787,0,0,1-2.787-2.787V472.69a2.787,2.787,0,0,1,2.787-2.787H470.886a2.787,2.787,0,0,1,2.787,2.787v10.188a2.787,2.787,0,0,1-2.787,2.787" transform="translate(752.817 -7.264)" fill="#005892"/>
      <path id="Path_5845" data-name="Path 5845" d="M588.72,367.239H190.809a1.393,1.393,0,0,1-1.393-1.393v-236.9a1.393,1.393,0,0,1,1.393-1.393H588.72a1.393,1.393,0,0,1,1.393,1.393v236.9a1.393,1.393,0,0,1-1.393,1.393" transform="translate(770.723 32.999)" fill="#2d4383"/>
      <path id="Path_5846" data-name="Path 5846" d="M565.665,162.323H218.679a2.776,2.776,0,0,1-2.776-2.776V138.939a2.776,2.776,0,0,1,2.776-2.777H565.665a2.776,2.776,0,0,1,2.776,2.777v20.608a2.776,2.776,0,0,1-2.776,2.776" transform="translate(767.608 31.986)" fill="#fff"/>
      <path id="Path_5847" data-name="Path 5847" d="M389.81,154.388H351.361a2.909,2.909,0,0,1,0-5.818H389.81a2.909,2.909,0,0,1,0,5.818" transform="translate(752.019 30.527)" fill="#dfe6f4"/>
      <path id="Path_5848" data-name="Path 5848" d="M459.252,154.52H420.8a2.909,2.909,0,0,1,0-5.818h38.448a2.909,2.909,0,0,1,0,5.818" transform="translate(743.852 30.511)" fill="#dfe6f4"/>
      <path id="Path_5849" data-name="Path 5849" d="M320.368,154.52H281.919a2.909,2.909,0,0,1,0-5.818h38.448a2.909,2.909,0,1,1,0,5.818" transform="translate(760.186 30.511)" fill="#8ec2fe"/>
      <path id="Path_5850" data-name="Path 5850" d="M528.694,154.52H490.245a2.909,2.909,0,0,1,0-5.818h38.448a2.909,2.909,0,1,1,0,5.818" transform="translate(735.685 30.511)" fill="#dfe6f4"/>
      <path id="Path_5851" data-name="Path 5851" d="M598.137,153.887H559.688a2.909,2.909,0,0,1,0-5.818h38.448a2.909,2.909,0,1,1,0,5.818" transform="translate(727.518 30.586)" fill="#dfe6f4"/>
      <path id="Path_5852" data-name="Path 5852" d="M232.219,157.924h0a8,8,0,1,1,8.005-8.005,8.005,8.005,0,0,1-8.005,8.005" transform="translate(766.631 31.31)" fill="#ff7e00"/>
      <path id="Path_5853" data-name="Path 5853" d="M323.592,376.866H218.877a3.49,3.49,0,0,1-3.49-3.491V276.76a3.49,3.49,0,0,1,3.49-3.49H323.592a3.49,3.49,0,0,1,3.491,3.49v96.616a3.491,3.491,0,0,1-3.491,3.491" transform="translate(767.669 15.861)" fill="#fff"/>
      <path id="Path_5854" data-name="Path 5854" d="M319.47,356.683h-93.6a2.189,2.189,0,0,1-2.182-2.182v-.631a2.188,2.188,0,0,1,2.182-2.181h93.6a2.188,2.188,0,0,1,2.182,2.181v.631a2.189,2.189,0,0,1-2.182,2.182" transform="translate(766.692 6.639)" fill="#dfe6f4"/>
      <path id="Path_5855" data-name="Path 5855" d="M319.47,367.805h-93.6a2.189,2.189,0,0,1-2.182-2.182v-.631a2.188,2.188,0,0,1,2.182-2.181h93.6a2.188,2.188,0,0,1,2.182,2.181v.631a2.189,2.189,0,0,1-2.182,2.182" transform="translate(766.692 5.33)" fill="#dfe6f4"/>
      <path id="Path_5856" data-name="Path 5856" d="M266.247,378.928H225.871a2.188,2.188,0,0,1-2.181-2.182v-.631a2.187,2.187,0,0,1,2.181-2.181h40.376a2.188,2.188,0,0,1,2.182,2.181v.631a2.189,2.189,0,0,1-2.182,2.182" transform="translate(766.692 4.022)" fill="#dfe6f4"/>
      <path id="Path_5857" data-name="Path 5857" d="M318.151,334.538H227.18a3.5,3.5,0,0,1-3.491-3.491V287.21a3.5,3.5,0,0,1,3.491-3.491h90.971a3.5,3.5,0,0,1,3.491,3.491v43.837a3.5,3.5,0,0,1-3.491,3.491" transform="translate(766.692 14.632)" fill="#8ec2fe"/>
      <path id="Path_5858" data-name="Path 5858" d="M459.02,376.866H355.315a4,4,0,0,1-3.995-4V277.265a4,4,0,0,1,3.995-4H459.02a4,4,0,0,1,4,4v95.605a4,4,0,0,1-4,4" transform="translate(751.682 15.861)" fill="#fff"/>
      <path id="Path_5859" data-name="Path 5859" d="M455.4,356.683H361.8a2.189,2.189,0,0,1-2.182-2.182v-.631a2.188,2.188,0,0,1,2.182-2.181h93.6a2.188,2.188,0,0,1,2.182,2.181v.631a2.189,2.189,0,0,1-2.182,2.182" transform="translate(750.706 6.639)" fill="#dfe6f4"/>
      <path id="Path_5860" data-name="Path 5860" d="M455.4,367.805H361.8a2.189,2.189,0,0,1-2.182-2.182v-.631a2.188,2.188,0,0,1,2.182-2.181h93.6a2.188,2.188,0,0,1,2.182,2.181v.631a2.189,2.189,0,0,1-2.182,2.182" transform="translate(750.706 5.33)" fill="#dfe6f4"/>
      <path id="Path_5861" data-name="Path 5861" d="M402.18,378.928H361.8a2.188,2.188,0,0,1-2.181-2.182v-.631a2.187,2.187,0,0,1,2.181-2.181H402.18a2.188,2.188,0,0,1,2.182,2.181v.631a2.189,2.189,0,0,1-2.182,2.182" transform="translate(750.706 4.022)" fill="#dfe6f4"/>
      <path id="Path_5862" data-name="Path 5862" d="M454.084,334.538H363.113a3.5,3.5,0,0,1-3.491-3.491V287.21a3.5,3.5,0,0,1,3.491-3.491h90.971a3.5,3.5,0,0,1,3.491,3.491v43.837a3.5,3.5,0,0,1-3.491,3.491" transform="translate(750.706 14.632)" fill="#ff7e00"/>
      <path id="Path_5863" data-name="Path 5863" d="M596.05,376.866H492.345a4,4,0,0,1-3.995-4V277.265a4,4,0,0,1,3.995-4H596.05a4,4,0,0,1,4,4v95.605a4,4,0,0,1-4,4" transform="translate(735.566 15.861)" fill="#fff"/>
      <path id="Path_5864" data-name="Path 5864" d="M592.433,356.683h-93.6a2.189,2.189,0,0,1-2.182-2.182v-.631a2.188,2.188,0,0,1,2.182-2.181h93.6a2.188,2.188,0,0,1,2.182,2.181v.631a2.189,2.189,0,0,1-2.182,2.182" transform="translate(734.59 6.639)" fill="#dfe6f4"/>
      <path id="Path_5865" data-name="Path 5865" d="M592.433,367.805h-93.6a2.189,2.189,0,0,1-2.182-2.182v-.631a2.188,2.188,0,0,1,2.182-2.181h93.6a2.188,2.188,0,0,1,2.182,2.181v.631a2.189,2.189,0,0,1-2.182,2.182" transform="translate(734.59 5.33)" fill="#dfe6f4"/>
      <path id="Path_5866" data-name="Path 5866" d="M539.21,378.928H498.834a2.188,2.188,0,0,1-2.181-2.182v-.631a2.187,2.187,0,0,1,2.181-2.181H539.21a2.188,2.188,0,0,1,2.182,2.181v.631a2.189,2.189,0,0,1-2.182,2.182" transform="translate(734.589 4.022)" fill="#dfe6f4"/>
      <path id="Path_5867" data-name="Path 5867" d="M591.114,334.538H500.143a3.5,3.5,0,0,1-3.491-3.491V287.21a3.5,3.5,0,0,1,3.491-3.491h90.971a3.5,3.5,0,0,1,3.491,3.491v43.837a3.5,3.5,0,0,1-3.491,3.491" transform="translate(734.59 14.632)" fill="#8ec2fe"/>
      <path id="Path_5868" data-name="Path 5868" d="M564.686,252.947H219.221a3.317,3.317,0,0,1-3.318-3.318V178.075a3.317,3.317,0,0,1,3.318-3.318H564.686A3.317,3.317,0,0,1,568,178.075V249.63a3.317,3.317,0,0,1-3.318,3.318" transform="translate(767.608 27.447)" fill="#fff"/>
      <path id="Path_5869" data-name="Path 5869" d="M580.315,215.494H449.765a1.911,1.911,0,1,1,0-3.822h130.55a1.911,1.911,0,1,1,0,3.822" transform="translate(740.329 23.106)" fill="#dfe6f4"/>
      <path id="Path_5870" data-name="Path 5870" d="M561.184,226.069H449.766a1.911,1.911,0,1,1,0-3.822H561.184a1.911,1.911,0,1,1,0,3.822" transform="translate(740.329 21.862)" fill="#dfe6f4"/>
      <path id="Path_5871" data-name="Path 5871" d="M559.567,199.755H476.354a3.671,3.671,0,0,1,0-7.342h83.213a3.671,3.671,0,0,1,0,7.342" transform="translate(737.409 25.371)" fill="#8ec2fe"/>
      <path id="Path_5872" data-name="Path 5872" d="M536.438,250.612H505.844a6.118,6.118,0,0,1,0-12.237h30.593a6.118,6.118,0,0,1,0,12.237" transform="translate(734.228 19.965)" fill="#ff7e00"/>
      <path id="Path_5873" data-name="Path 5873" d="M390.182,245.228H229.93a5.031,5.031,0,0,1-5.016-5.016V189.867a5.031,5.031,0,0,1,5.016-5.016H390.182a5.031,5.031,0,0,1,5.016,5.016v50.344a5.031,5.031,0,0,1-5.016,5.016" transform="translate(766.548 26.26)" fill="#8ec2fe"/>
      <path id="Path_5875" data-name="Path 5875" d="M183.924,504.053H44.3a6.981,6.981,0,0,1-6.981-6.981V295.787a6.981,6.981,0,0,1,6.981-6.981h139.62a6.981,6.981,0,0,1,6.981,6.981V497.073a6.981,6.981,0,0,1-6.981,6.981" transform="translate(788.395 10.576)" fill="#f9f9f9" stroke="#2d4383" stroke-width="1"/>
      <path id="Path_5876" data-name="Path 5876" d="M179.191,495.986H51.207a4.653,4.653,0,0,1-4.654-4.654V304.009a4.653,4.653,0,0,1,4.654-4.654H179.191a4.653,4.653,0,0,1,4.654,4.654V491.333a4.653,4.653,0,0,1-4.654,4.654" transform="translate(787.525 12.793)" fill="#2d4383"/>
      <path id="Path_5877" data-name="Path 5877" d="M127.022,293.979a1.745,1.745,0,1,1-1.745-1.745,1.745,1.745,0,0,1,1.745,1.745" transform="translate(778.472 13.631)" fill="#fff"/>
      <path id="Path_5878" data-name="Path 5878" d="M113.731,515.644H53.106V468.519a2.019,2.019,0,0,1,2.019-2.019h56.587a2.019,2.019,0,0,1,2.019,2.019Z" transform="translate(786.754 -6.864)" fill="#fff"/>
      <path id="Path_5879" data-name="Path 5879" d="M109.507,519.059H58.887a1.281,1.281,0,0,1-1.276-1.276v-.6a1.281,1.281,0,0,1,1.276-1.276h50.62a1.28,1.28,0,0,1,1.275,1.276v.6a1.28,1.28,0,0,1-1.275,1.276" transform="translate(786.225 -12.675)" fill="#dfe6f4"/>
      <path id="Path_5880" data-name="Path 5880" d="M106.123,505.1H62.266a4.668,4.668,0,0,1-4.654-4.654V477.738a4.667,4.667,0,0,1,4.654-4.654h43.858a4.667,4.667,0,0,1,4.654,4.654v22.713a4.668,4.668,0,0,1-4.654,4.654" transform="translate(786.225 -7.639)" fill="#8ec2fe"/>
      <path id="Path_5881" data-name="Path 5881" d="M187.511,515.644H126.886V468.519A2.019,2.019,0,0,1,128.9,466.5h56.587a2.019,2.019,0,0,1,2.019,2.019Z" transform="translate(778.077 -6.864)" fill="#fff"/>
      <path id="Path_5882" data-name="Path 5882" d="M183.287,519.059H132.668a1.28,1.28,0,0,1-1.276-1.276v-.6a1.28,1.28,0,0,1,1.276-1.276h50.619a1.28,1.28,0,0,1,1.276,1.276v.6a1.28,1.28,0,0,1-1.276,1.276" transform="translate(777.547 -12.675)" fill="#dfe6f4"/>
      <path id="Path_5883" data-name="Path 5883" d="M179.9,505.1H136.046a4.668,4.668,0,0,1-4.654-4.654V477.738a4.667,4.667,0,0,1,4.654-4.654H179.9a4.667,4.667,0,0,1,4.654,4.654v22.713A4.668,4.668,0,0,1,179.9,505.1" transform="translate(777.547 -7.639)" fill="#8ec2fe"/>
      <path id="Path_5884" data-name="Path 5884" d="M176.476,375.666h-121a2.327,2.327,0,0,1-2.327-2.327V337.58a2.327,2.327,0,0,1,2.327-2.327h121a2.327,2.327,0,0,1,2.327,2.327v35.759a2.327,2.327,0,0,1-2.327,2.327" transform="translate(786.75 8.571)" fill="#fff"/>
      <path id="Path_5885" data-name="Path 5885" d="M181.907,355.674H134a.7.7,0,0,1,0-1.4h47.91a.7.7,0,1,1,0,1.4" transform="translate(777.323 6.335)" fill="#dfe6f4"/>
      <path id="Path_5886" data-name="Path 5886" d="M174.886,359.554H134a.7.7,0,0,1,0-1.4h40.889a.7.7,0,1,1,0,1.4" transform="translate(777.323 5.878)" fill="#dfe6f4"/>
      <path id="Path_5887" data-name="Path 5887" d="M174.292,349.9H143.754a1.347,1.347,0,1,1,0-2.695h30.538a1.347,1.347,0,1,1,0,2.695" transform="translate(776.252 7.166)" fill="#8ec2fe"/>
      <path id="Path_5888" data-name="Path 5888" d="M165.8,368.561H154.577a2.245,2.245,0,0,1,0-4.49H165.8a2.245,2.245,0,1,1,0,4.49" transform="translate(775.084 5.182)" fill="#ff7e00"/>
      <path id="Path_5889" data-name="Path 5889" d="M110.86,371.557H61.894a4.3,4.3,0,0,1-4.283-4.283V345.594a4.3,4.3,0,0,1,4.283-4.283H110.86a4.3,4.3,0,0,1,4.283,4.283v21.679a4.3,4.3,0,0,1-4.283,4.283" transform="translate(786.225 7.859)" fill="#8ec2fe"/>
      <path id="Path_5890" data-name="Path 5890" d="M111.4,452.239H55.433a2.327,2.327,0,0,1-2.328-2.327V389.29a2.327,2.327,0,0,1,2.328-2.327H111.4a2.327,2.327,0,0,1,2.326,2.327v60.622a2.327,2.327,0,0,1-2.326,2.327" transform="translate(786.754 2.49)" fill="#fff"/>
      <path id="Path_5891" data-name="Path 5891" d="M109.507,439.521H58.887a1.281,1.281,0,0,1-1.276-1.276v-.6a1.281,1.281,0,0,1,1.276-1.276h50.62a1.28,1.28,0,0,1,1.275,1.276v.6a1.28,1.28,0,0,1-1.275,1.276" transform="translate(786.225 -3.321)" fill="#dfe6f4"/>
      <path id="Path_5892" data-name="Path 5892" d="M109.507,446.53H58.887a1.281,1.281,0,0,1-1.276-1.276v-.6a1.281,1.281,0,0,1,1.276-1.276h50.62a1.28,1.28,0,0,1,1.275,1.276v.6a1.28,1.28,0,0,1-1.275,1.276" transform="translate(786.225 -4.145)" fill="#dfe6f4"/>
      <path id="Path_5893" data-name="Path 5893" d="M80.618,453.538H58.887a1.28,1.28,0,0,1-1.276-1.276v-.6a1.28,1.28,0,0,1,1.276-1.276H80.618a1.28,1.28,0,0,1,1.276,1.276v.6a1.28,1.28,0,0,1-1.276,1.276" transform="translate(786.225 -4.97)" fill="#dfe6f4"/>
      <path id="Path_5894" data-name="Path 5894" d="M106.123,425.568H62.266a4.667,4.667,0,0,1-4.654-4.654V398.2a4.667,4.667,0,0,1,4.654-4.654h43.858a4.667,4.667,0,0,1,4.654,4.654v22.713a4.667,4.667,0,0,1-4.654,4.654" transform="translate(786.225 1.716)" fill="#8ec2fe"/>
      <path id="Path_5895" data-name="Path 5895" d="M185.184,452.239H129.213a2.327,2.327,0,0,1-2.327-2.327V389.29a2.327,2.327,0,0,1,2.327-2.327h55.971a2.327,2.327,0,0,1,2.327,2.327v60.622a2.327,2.327,0,0,1-2.327,2.327" transform="translate(778.077 2.49)" fill="#fff"/>
      <path id="Path_5896" data-name="Path 5896" d="M183.287,439.521H132.668a1.28,1.28,0,0,1-1.276-1.276v-.6a1.28,1.28,0,0,1,1.276-1.276h50.619a1.28,1.28,0,0,1,1.276,1.276v.6a1.28,1.28,0,0,1-1.276,1.276" transform="translate(777.547 -3.321)" fill="#dfe6f4"/>
      <path id="Path_5897" data-name="Path 5897" d="M183.287,446.53H132.668a1.28,1.28,0,0,1-1.276-1.276v-.6a1.28,1.28,0,0,1,1.276-1.276h50.619a1.28,1.28,0,0,1,1.276,1.276v.6a1.28,1.28,0,0,1-1.276,1.276" transform="translate(777.547 -4.145)" fill="#dfe6f4"/>
      <path id="Path_5898" data-name="Path 5898" d="M154.4,453.538H132.669a1.279,1.279,0,0,1-1.276-1.276v-.6a1.279,1.279,0,0,1,1.276-1.276H154.4a1.28,1.28,0,0,1,1.276,1.276v.6a1.28,1.28,0,0,1-1.276,1.276" transform="translate(777.547 -4.97)" fill="#dfe6f4"/>
      <path id="Path_5899" data-name="Path 5899" d="M179.9,425.568H136.046a4.667,4.667,0,0,1-4.654-4.654V398.2a4.667,4.667,0,0,1,4.654-4.654H179.9a4.667,4.667,0,0,1,4.654,4.654v22.713a4.667,4.667,0,0,1-4.654,4.654" transform="translate(777.547 1.716)" fill="#ff7e00"/>
      <path id="Path_5900" data-name="Path 5900" d="M176.467,327.206H55.392a2.327,2.327,0,0,1-2.327-2.327V308.736a2.327,2.327,0,0,1,2.327-2.327H176.467a2.327,2.327,0,0,1,2.327,2.327v16.143a2.327,2.327,0,0,1-2.327,2.327" transform="translate(786.759 11.964)" fill="#fff"/>
      <path id="Path_5901" data-name="Path 5901" d="M65.446,323.617h0A6.257,6.257,0,1,1,71.7,317.36a6.257,6.257,0,0,1-6.257,6.257" transform="translate(786.039 11.412)" fill="#ff7e00"/>
      <line id="Line_28" data-name="Line 28" x2="11.696" transform="translate(947.286 332.67)" fill="none" stroke="#8ec2fe" stroke-linecap="round" stroke-linejoin="round" stroke-width="2"/>
      <line id="Line_29" data-name="Line 29" x2="11.696" transform="translate(947.286 324.873)" fill="none" stroke="#8ec2fe" stroke-linecap="round" stroke-linejoin="round" stroke-width="2"/>
      <line id="Line_30" data-name="Line 30" x2="11.696" transform="translate(947.286 328.771)" fill="none" stroke="#8ec2fe" stroke-linecap="round" stroke-linejoin="round" stroke-width="2"/>
      <path id="Path_5902" data-name="Path 5902" d="M264.077,539.111H190.744a7.412,7.412,0,0,1-7.412-7.413V374.651a7.412,7.412,0,0,1,7.412-7.413h73.333a7.413,7.413,0,0,1,7.413,7.413V531.7a7.413,7.413,0,0,1-7.413,7.413" transform="translate(771.438 4.81)" fill="#f9f9f9" stroke="#2d4383" stroke-width="1"/>
      <path id="Path_5903" data-name="Path 5903" d="M263.182,530.241H193.1a3.431,3.431,0,0,1-3.432-3.432V380.857a3.431,3.431,0,0,1,3.432-3.432h70.085a3.431,3.431,0,0,1,3.432,3.432V526.81a3.431,3.431,0,0,1-3.432,3.432" transform="translate(770.694 3.612)" fill="#2d4383"/>
      <path id="Path_5904" data-name="Path 5904" d="M238.757,373.11H225.812a.9.9,0,0,1,0-1.8h12.945a.9.9,0,1,1,0,1.8" transform="translate(766.548 4.331)" fill="#fff"/>
      <path id="Path_5905" data-name="Path 5905" d="M261.336,541.736H196.221v-64.87a1.7,1.7,0,0,1,1.7-1.7h61.714a1.7,1.7,0,0,1,1.7,1.7Z" transform="translate(769.923 -7.883)" fill="#fff"/>
      <path id="Path_5906" data-name="Path 5906" d="M256.8,531.616H202.432a1.375,1.375,0,0,1-1.37-1.37v-.64a1.375,1.375,0,0,1,1.37-1.37H256.8a1.375,1.375,0,0,1,1.37,1.37v.64a1.375,1.375,0,0,1-1.37,1.37" transform="translate(769.354 -14.125)" fill="#dfe6f4"/>
      <path id="Path_5907" data-name="Path 5907" d="M256.8,539.144H202.432a1.375,1.375,0,0,1-1.37-1.37v-.64a1.375,1.375,0,0,1,1.37-1.37H256.8a1.375,1.375,0,0,1,1.37,1.37v.64a1.375,1.375,0,0,1-1.37,1.37" transform="translate(769.354 -15.01)" fill="#dfe6f4"/>
      <path id="Path_5908" data-name="Path 5908" d="M225.772,546.671h-23.34a1.375,1.375,0,0,1-1.37-1.37v-.64a1.375,1.375,0,0,1,1.37-1.37h23.34a1.375,1.375,0,0,1,1.37,1.37v.64a1.375,1.375,0,0,1-1.37,1.37" transform="translate(769.354 -15.896)" fill="#dfe6f4"/>
      <path id="Path_5909" data-name="Path 5909" d="M253.51,516.63H205.716a4.667,4.667,0,0,1-4.654-4.654V486.893a4.668,4.668,0,0,1,4.654-4.655H253.51a4.668,4.668,0,0,1,4.654,4.655v25.084a4.667,4.667,0,0,1-4.654,4.654" transform="translate(769.354 -8.715)" fill="#8ec2fe"/>
      <path id="Path_5910" data-name="Path 5910" d="M259.907,400.165H198.253a1.75,1.75,0,0,1-1.751-1.751V385.627a1.75,1.75,0,0,1,1.751-1.751h61.654a1.75,1.75,0,0,1,1.751,1.751v12.788a1.75,1.75,0,0,1-1.751,1.751" transform="translate(769.89 2.853)" fill="#fff"/>
      <path id="Path_5911" data-name="Path 5911" d="M205.686,397.643h0a5.236,5.236,0,1,1,5.236-5.236,5.236,5.236,0,0,1-5.236,5.236" transform="translate(769.425 2.465)" fill="#ff7e00"/>
      <line id="Line_31" data-name="Line 31" x2="9.944" transform="translate(1017.743 397.989)" fill="none" stroke="#8ec2fe" stroke-linecap="round" stroke-linejoin="round" stroke-width="2"/>
      <line id="Line_32" data-name="Line 32" x2="9.944" transform="translate(1017.743 391.36)" fill="none" stroke="#8ec2fe" stroke-linecap="round" stroke-linejoin="round" stroke-width="2"/>
      <line id="Line_33" data-name="Line 33" x2="9.944" transform="translate(1017.743 394.674)" fill="none" stroke="#8ec2fe" stroke-linecap="round" stroke-linejoin="round" stroke-width="2"/>
      <path id="Path_5912" data-name="Path 5912" d="M259.058,461.253H198.494a2.3,2.3,0,0,1-2.3-2.3V411.191a2.3,2.3,0,0,1,2.3-2.3h60.564a2.3,2.3,0,0,1,2.3,2.3v47.767a2.3,2.3,0,0,1-2.3,2.3" transform="translate(769.925 -0.089)" fill="#fff"/>
      <path id="Path_5913" data-name="Path 5913" d="M253.487,422.247h-47.91a.7.7,0,0,1,0-1.4h47.91a.7.7,0,0,1,0,1.4" transform="translate(768.905 -1.495)" fill="#dfe6f4"/>
      <path id="Path_5914" data-name="Path 5914" d="M246.466,426.128H205.577a.7.7,0,0,1,0-1.4h40.889a.7.7,0,0,1,0,1.4" transform="translate(768.905 -1.951)" fill="#dfe6f4"/>
      <path id="Path_5915" data-name="Path 5915" d="M245.872,416.471H215.334a1.347,1.347,0,1,1,0-2.695h30.538a1.347,1.347,0,1,1,0,2.695" transform="translate(767.833 -0.663)" fill="#8ec2fe"/>
      <path id="Path_5916" data-name="Path 5916" d="M237.384,435.135H226.157a2.245,2.245,0,0,1,0-4.491h11.228a2.245,2.245,0,1,1,0,4.491" transform="translate(766.666 -2.647)" fill="#ff7e00"/>
      <path id="Path_5917" data-name="Path 5917" d="M253.581,460.651H205.044a4.3,4.3,0,0,1-4.282-4.283v-11.68a4.3,4.3,0,0,1,4.282-4.283h48.537a4.3,4.3,0,0,1,4.283,4.283v11.68a4.3,4.3,0,0,1-4.283,4.283" transform="translate(769.389 -3.795)" fill="#8ec2fe"/>
      <path id="Path_5918" data-name="Path 5918" d="M825.928,506.482H509.176V304.1a8.144,8.144,0,0,1,8.145-8.144H817.784a8.144,8.144,0,0,1,8.144,8.144Z" transform="translate(733.117 13.193)" fill="#f9f9f9" stroke="#2d4383" stroke-width="1"/>
      <path id="Path_5919" data-name="Path 5919" d="M811.686,498.635H526.9A2.908,2.908,0,0,1,524,495.726v-182.8a2.908,2.908,0,0,1,2.908-2.908H811.686a2.908,2.908,0,0,1,2.908,2.908v182.8a2.908,2.908,0,0,1-2.908,2.908" transform="translate(731.374 11.539)" fill="#2d4383"/>
      <path id="Path_5920" data-name="Path 5920" d="M806.068,337.381H533.016a2.185,2.185,0,0,1-2.185-2.185V318.98a2.184,2.184,0,0,1,2.185-2.185H806.068a2.185,2.185,0,0,1,2.185,2.185V335.2a2.185,2.185,0,0,1-2.185,2.185" transform="translate(730.57 10.742)" fill="#fff"/>
      <path id="Path_5921" data-name="Path 5921" d="M667.682,331.137H637.426a2.289,2.289,0,0,1,0-4.578h30.256a2.289,2.289,0,0,1,0,4.578" transform="translate(718.303 9.594)" fill="#88c1ee"/>
      <path id="Path_5922" data-name="Path 5922" d="M722.328,331.241H692.072a2.289,2.289,0,0,1,0-4.578h30.256a2.289,2.289,0,0,1,0,4.578" transform="translate(711.876 9.582)" fill="#dfe6f4"/>
      <path id="Path_5923" data-name="Path 5923" d="M613.036,331.241H582.78a2.289,2.289,0,0,1,0-4.578h30.256a2.289,2.289,0,0,1,0,4.578" transform="translate(724.729 9.582)" fill="#dfe6f4"/>
      <path id="Path_5924" data-name="Path 5924" d="M776.974,331.241H746.718a2.289,2.289,0,0,1,0-4.578h30.256a2.289,2.289,0,0,1,0,4.578" transform="translate(705.449 9.582)" fill="#dfe6f4"/>
      <path id="Path_5925" data-name="Path 5925" d="M831.62,330.742H801.364a2.289,2.289,0,0,1,0-4.578H831.62a2.289,2.289,0,1,1,0,4.578" transform="translate(699.022 9.64)" fill="#dfe6f4"/>
      <path id="Path_5926" data-name="Path 5926" d="M543.67,333.92h0a6.3,6.3,0,1,1,6.3-6.3,6.3,6.3,0,0,1-6.3,6.3" transform="translate(729.801 10.21)" fill="#ff7e00"/>
      <path id="Path_5927" data-name="Path 5927" d="M615.574,506.21h-82.4a2.747,2.747,0,0,1-2.747-2.747v-76.03a2.747,2.747,0,0,1,2.747-2.747h82.4a2.747,2.747,0,0,1,2.747,2.747v76.03a2.747,2.747,0,0,1-2.747,2.747" transform="translate(730.618 -1.947)" fill="#fff"/>
      <path id="Path_5928" data-name="Path 5928" d="M612.33,490.328H538.675a1.722,1.722,0,0,1-1.717-1.717v-.5a1.722,1.722,0,0,1,1.717-1.717H612.33a1.722,1.722,0,0,1,1.717,1.717v.5a1.723,1.723,0,0,1-1.717,1.717" transform="translate(729.849 -9.204)" fill="#dfe6f4"/>
      <path id="Path_5929" data-name="Path 5929" d="M612.33,499.081H538.675a1.723,1.723,0,0,1-1.717-1.717v-.5a1.722,1.722,0,0,1,1.717-1.717H612.33a1.722,1.722,0,0,1,1.717,1.717v.5a1.723,1.723,0,0,1-1.717,1.717" transform="translate(729.849 -10.234)" fill="#dfe6f4"/>
      <path id="Path_5930" data-name="Path 5930" d="M570.447,507.833H538.675a1.722,1.722,0,0,1-1.717-1.717v-.5a1.722,1.722,0,0,1,1.717-1.716h31.772a1.722,1.722,0,0,1,1.717,1.716v.5a1.723,1.723,0,0,1-1.717,1.717" transform="translate(729.849 -11.263)" fill="#dfe6f4"/>
      <path id="Path_5931" data-name="Path 5931" d="M611.292,472.9H539.7a2.755,2.755,0,0,1-2.747-2.747v-34.5a2.755,2.755,0,0,1,2.747-2.747h71.588a2.755,2.755,0,0,1,2.747,2.747v34.5a2.755,2.755,0,0,1-2.747,2.747" transform="translate(729.849 -2.914)" fill="#8ec2fe"/>
      <path id="Path_5932" data-name="Path 5932" d="M722.146,506.21H640.537a3.144,3.144,0,0,1-3.144-3.144V427.831a3.145,3.145,0,0,1,3.144-3.144h81.609a3.144,3.144,0,0,1,3.144,3.144v75.235a3.144,3.144,0,0,1-3.144,3.144" transform="translate(718.037 -1.947)" fill="#fff"/>
      <path id="Path_5933" data-name="Path 5933" d="M719.3,490.328H645.645a1.722,1.722,0,0,1-1.717-1.717v-.5a1.721,1.721,0,0,1,1.717-1.717H719.3a1.722,1.722,0,0,1,1.717,1.717v.5a1.722,1.722,0,0,1-1.717,1.717" transform="translate(717.269 -9.204)" fill="#dfe6f4"/>
      <path id="Path_5934" data-name="Path 5934" d="M719.3,499.081H645.645a1.722,1.722,0,0,1-1.717-1.717v-.5a1.721,1.721,0,0,1,1.717-1.717H719.3a1.722,1.722,0,0,1,1.717,1.717v.5a1.723,1.723,0,0,1-1.717,1.717" transform="translate(717.269 -10.234)" fill="#dfe6f4"/>
      <path id="Path_5935" data-name="Path 5935" d="M677.416,507.833H645.644a1.723,1.723,0,0,1-1.717-1.717v-.5a1.722,1.722,0,0,1,1.717-1.716h31.772a1.722,1.722,0,0,1,1.717,1.716v.5a1.722,1.722,0,0,1-1.717,1.717" transform="translate(717.269 -11.263)" fill="#dfe6f4"/>
      <path id="Path_5936" data-name="Path 5936" d="M718.261,472.9H646.674a2.755,2.755,0,0,1-2.747-2.747v-34.5a2.755,2.755,0,0,1,2.747-2.747h71.588a2.755,2.755,0,0,1,2.747,2.747v34.5a2.755,2.755,0,0,1-2.747,2.747" transform="translate(717.269 -2.914)" fill="#ff7e00"/>
      <path id="Path_5937" data-name="Path 5937" d="M829.979,506.21H748.37a3.144,3.144,0,0,1-3.144-3.144V427.831a3.145,3.145,0,0,1,3.144-3.144h81.609a3.144,3.144,0,0,1,3.144,3.144v75.235a3.144,3.144,0,0,1-3.144,3.144" transform="translate(705.355 -1.947)" fill="#fff"/>
      <path id="Path_5938" data-name="Path 5938" d="M827.132,490.328H753.477a1.722,1.722,0,0,1-1.717-1.717v-.5a1.721,1.721,0,0,1,1.717-1.717h73.655a1.722,1.722,0,0,1,1.717,1.717v.5a1.723,1.723,0,0,1-1.717,1.717" transform="translate(704.587 -9.204)" fill="#dfe6f4"/>
      <path id="Path_5939" data-name="Path 5939" d="M827.132,499.081H753.477a1.722,1.722,0,0,1-1.717-1.717v-.5a1.721,1.721,0,0,1,1.717-1.717h73.655a1.722,1.722,0,0,1,1.717,1.717v.5a1.723,1.723,0,0,1-1.717,1.717" transform="translate(704.587 -10.234)" fill="#dfe6f4"/>
      <path id="Path_5940" data-name="Path 5940" d="M785.249,507.833H753.477a1.723,1.723,0,0,1-1.717-1.717v-.5a1.722,1.722,0,0,1,1.717-1.716h31.772a1.722,1.722,0,0,1,1.717,1.716v.5a1.722,1.722,0,0,1-1.717,1.717" transform="translate(704.587 -11.263)" fill="#dfe6f4"/>
      <path id="Path_5941" data-name="Path 5941" d="M826.094,472.9H754.507a2.755,2.755,0,0,1-2.747-2.747v-34.5a2.755,2.755,0,0,1,2.747-2.747h71.588a2.755,2.755,0,0,1,2.747,2.747v34.5a2.755,2.755,0,0,1-2.747,2.747" transform="translate(704.587 -2.914)" fill="#8ec2fe"/>
      <path id="Path_5942" data-name="Path 5942" d="M805.3,408.7H533.441a2.611,2.611,0,0,1-2.611-2.611V349.777a2.611,2.611,0,0,1,2.611-2.611H805.3a2.611,2.611,0,0,1,2.611,2.611v56.308A2.611,2.611,0,0,1,805.3,408.7" transform="translate(730.57 7.17)" fill="#fff"/>
      <path id="Path_5943" data-name="Path 5943" d="M816.038,379.767H713.8a1.5,1.5,0,1,1,0-2.993H816.038a1.5,1.5,0,0,1,0,2.993" transform="translate(709.228 3.688)" fill="#dfe6f4"/>
      <path id="Path_5944" data-name="Path 5944" d="M801.055,388.048H713.8a1.5,1.5,0,1,1,0-2.993h87.255a1.5,1.5,0,1,1,0,2.993" transform="translate(709.228 2.714)" fill="#dfe6f4"/>
      <path id="Path_5945" data-name="Path 5945" d="M799.789,367.442H734.623a2.875,2.875,0,1,1,0-5.75h65.166a2.875,2.875,0,1,1,0,5.75" transform="translate(706.94 5.462)" fill="#8ec2fe"/>
      <path id="Path_5946" data-name="Path 5946" d="M781.675,407.27H757.716a4.792,4.792,0,0,1,0-9.584h23.959a4.792,4.792,0,0,1,0,9.584" transform="translate(704.45 1.229)" fill="#ff7e00"/>
      <path id="Path_5947" data-name="Path 5947" d="M667.139,403.053H541.64a3.94,3.94,0,0,1-3.928-3.928V359.7a3.94,3.94,0,0,1,3.928-3.928h125.5a3.94,3.94,0,0,1,3.928,3.928v39.426a3.94,3.94,0,0,1-3.928,3.928" transform="translate(729.761 6.159)" fill="#8ec2fe"/>
      <path id="Path_5948" data-name="Path 5948" d="M834.631,544.958h-339.7a9.308,9.308,0,0,1-9.307-9.308v-1.392a1.164,1.164,0,0,1,1.163-1.164H842.776a1.164,1.164,0,0,1,1.164,1.164v1.392a9.308,9.308,0,0,1-9.308,9.308" transform="translate(735.886 -14.696)" fill="#18679c"/>
      <g id="Group_2654" data-name="Group 2654" transform="translate(1369.946 518.398)" opacity="0.3">
        <g id="Group_2653" data-name="Group 2653">
          <g id="Group_2652" data-name="Group 2652" clip-path="url(#clip-path-7)">
            <path id="Path_5949" data-name="Path 5949" d="M653.843,534.541a4.5,4.5,0,0,0,4.485,4.485H710.8a4.5,4.5,0,0,0,4.485-4.485,4.448,4.448,0,0,0-.245-1.447H654.088a4.448,4.448,0,0,0-.245,1.447" transform="translate(-653.843 -533.094)" fill="#e8eeff"/>
          </g>
        </g>
      </g>
      <path id="Path_5950" data-name="Path 5950" d="M690.174,302.788a1.745,1.745,0,1,1-1.745-1.745,1.746,1.746,0,0,1,1.745,1.745" transform="translate(712.24 12.595)" fill="#fff"/>
      <g id="Group_2657" data-name="Group 2657" transform="translate(1119.46 555.96)" opacity="0.2">
        <g id="Group_2656" data-name="Group 2656">
          <g id="Group_2655" data-name="Group 2655" clip-path="url(#clip-path-8)">
            <path id="Path_5951" data-name="Path 5951" d="M461.362,582.682c0,3.877-20.458,7.02-45.695,7.02s-45.695-3.143-45.695-7.02,20.458-7.02,45.695-7.02,45.695,3.143,45.695,7.02" transform="translate(-369.972 -575.663)" fill="#1a1552"/>
          </g>
        </g>
      </g>
      <path id="Path_5952" data-name="Path 5952" d="M430.5,386.109s3.729,7.209-.994,11.31-7.594-6.588-7.594-6.588L426.9,382.9Z" transform="translate(743.38 2.967)" fill="#1a1552"/>
      <path id="Path_5953" data-name="Path 5953" d="M441.82,370.384s-3.835,15.225-8.434,15.473-13.324-8.017-13.324-8.017l10.391-13.982Z" transform="translate(743.597 5.207)" fill="#f4bd9c"/>
      <path id="Path_5954" data-name="Path 5954" d="M418.3,417.2s-1.941,13.033.445,15.653,26.458-4.631,26.458-4.631l-1.157-4.325s-19.081,3.707-19.822,2.991,3.707-12.371,3.707-12.371Z" transform="translate(743.892 -0.75)" fill="#f4bd9c"/>
      <path id="Path_5955" data-name="Path 5955" d="M421.637,379.775s-6.815,10.05-8.452,10.689c-.215.084,1.309,4.735,6.065,5.717,6.621,1.368,7.387-2.83,7.387-2.83s-1.59-1.609-1.643-1.77c-.653-2,2.36-8.077,2.36-8.077Z" transform="translate(744.408 3.335)" fill="#f4bd9c"/>
      <path id="Path_5956" data-name="Path 5956" d="M412.4,391.66s4.375,5.483,8.527,5.483c2.285,0,2.674-4.165,2.674-4.165a53.014,53.014,0,0,1,3.522,3.979c3.85,4.656,7.538,11.186,2.13,14.867-1.633,1.113.064,22.42.064,22.42h-24.05s-5.431-19.371-3.556-27.545c3.038-13.245,7.333-15.039,10.689-15.039" transform="translate(745.802 1.938)" fill="#ca525c"/>
      <path id="Path_5957" data-name="Path 5957" d="M401.164,416.765s.041,13.291,3.028,15.2,24.526-10.339,24.526-10.339l-1.7-3.86s-17.735,7.492-18.637,7,1.377-13.1,1.377-13.1Z" transform="translate(745.82 -0.414)" fill="#f4bd9c"/>
      <path id="Path_5958" data-name="Path 5958" d="M408.55,392.809c3.059,1.754,2.3,8.947.687,20.879a.524.524,0,0,1-.443.448l-8.312,1.383a.339.339,0,0,1-.389-.332c-.02-2.412-.508-15.641,2.133-19.238,1.143-1.557,4.65-4.1,6.325-3.14" transform="translate(745.952 1.827)" fill="#fa7e8d"/>
      <path id="Path_5959" data-name="Path 5959" d="M437.385,361.9c-2.8.367-2.237-6.215-11-6.215-6.084,0-9.58,2-12.056,9.446-1.157,3.48-6.343,4.757-10.5,8.766-2.038,1.964-.742,6.29-2.8,7.393-11.434,6.137-8.389,17.509-2.361,18.768,1.678.35,6.823-1.573,9.908-4.9,1.925-2.08,1.373-5.886,3.827-6.406,3.29-.7,4.439-6.338,6.53-8.079,4.972-4.142,5.635-5.95,6.086-6.771,0,0,1.169-2.359,1.588-2.346a36.6,36.6,0,0,0,11.524-1.82s-.139,3.589,1.958,3.449,2.377-4.568,2.284-6.525-2.144-5.128-4.987-4.754" transform="translate(746.745 6.168)" fill="#1a1552"/>
      <path id="Path_5960" data-name="Path 5960" d="M431.007,422.71c-2.69,1.336-4.156-2.829-1.2-4.506,1.429-.811,4.055-4.9,10.29-1.97.412.193.334,2.21.326,3.067a.4.4,0,0,1-.43.394s-6.064-1.121-5.321-.018c.068.1,4.427,1.062.551,1.559-3.93.5-3.215.977-4.215,1.474" transform="translate(742.643 -0.83)" fill="#f4bd9c"/>
      <path id="Path_5961" data-name="Path 5961" d="M451.121,427.656H435.251a.324.324,0,0,1-.23-.552l19.973-19.481a.326.326,0,0,1,.231-.1H471.1a.324.324,0,0,1,.23.552L451.352,427.56a.323.323,0,0,1-.23.1" transform="translate(741.849 0.072)" fill="#1a1552"/>
      <path id="Path_5962" data-name="Path 5962" d="M458.1,425.576c.335-.642-.478-2.146-.478-2.146-.041-.122-.24-.1-.439.055a14.458,14.458,0,0,0-2.541,2.195c-.265,1.275-.019,2.793.289,2.714a9.933,9.933,0,0,0,3.17-2.817" transform="translate(739.543 -1.79)" fill="#f4bd9c"/>
      <path id="Path_5963" data-name="Path 5963" d="M423.529,576.306l.028,5.466a1.12,1.12,0,0,0,1,1.211H442.38v-.672a1.189,1.189,0,0,0-.866-1.146c-2.15-.607-7.764-2.364-10.542-4.873-4.556-4.114-7.444.015-7.444.015" transform="translate(743.189 -19.562)" fill="#1a1552"/>
      <path id="Path_5964" data-name="Path 5964" d="M379.02,566.389l-2.577,4.671a1.121,1.121,0,0,0,.29,1.543l15.606,8.61.324-.588a1.189,1.189,0,0,0-.2-1.422c-1.59-1.569-5.6-5.619-6.816-9.158-2-5.8-6.625-3.655-6.625-3.655" transform="translate(748.748 -18.566)" fill="#1a1552"/>
      <path id="Path_5965" data-name="Path 5965" d="M430.47,439.92H418.911a21.127,21.127,0,0,0-7.084,18.208c.839,9.393,10.314,102.354,10.314,102.354l7.428-.031Z" transform="translate(744.577 -3.738)" fill="#729ecf"/>
      <path id="Path_5966" data-name="Path 5966" d="M422.4,439.92c0,51.394-36.385,115.3-36.385,115.3l-6.625-3.517s25.414-71.2,19.131-91.519c-3.328-10.765,4.3-20.26,4.3-20.26" transform="translate(748.381 -3.738)" fill="#88c1ee"/>
      <path id="Path_5967" data-name="Path 5967" d="M430.821,374.377a.611.611,0,0,0-.059-.6c-.437-.613-1.562-1.859-2.893-.73-1.462,1.241-.552,3.642.686,4.591a.613.613,0,0,0,.926-.248Z" transform="translate(742.768 4.181)" fill="#f4bd9c"/>
      <path id="Path_5968" data-name="Path 5968" d="M773.715,195.773s-2.674,6.449-4.958,6.449,4.323,5.733,8.447,5.733,8.618-4.781,9-5.733-5.891-.929-5.954-5.307-6.534-1.142-6.534-1.142" transform="translate(702.643 25.111)" fill="#f4ae84"/>
      <path id="Path_5969" data-name="Path 5969" d="M767.6,178.812s1.837,18.143,9.323,18.524,12.755-21.285,12.755-21.685-15.227-4.46-15.227-4.46Z" transform="translate(702.724 27.866)" fill="#f4bd9c"/>
      <path id="Path_5970" data-name="Path 5970" d="M791.512,174.364a27.6,27.6,0,0,1-1.827,9.224s5.126-1.356,3.73-12.4Z" transform="translate(700.126 27.866)" fill="#0e0f41"/>
      <path id="Path_5971" data-name="Path 5971" d="M767.7,169.776l8.044,4.422s-2.664,3.313-8.5,4.448l.457,3.979s-3.376-3.481-3.122-6.271,3.122-6.577,3.122-6.577" transform="translate(703.081 28.033)" fill="#0e0f41"/>
      <rect id="Rectangle_2571" data-name="Rectangle 2571" width="51.752" height="7.74" transform="translate(1447.792 286.358)" fill="#63282e"/>
      <path id="Path_5972" data-name="Path 5972" d="M769.212,183.386a.749.749,0,0,0-.52-.534c-.889-.253-2.923-.583-3.332,1.52-.449,2.31,2.263,3.913,4.177,3.872a.752.752,0,0,0,.7-.948Z" transform="translate(702.993 26.517)" fill="#f4bd9c"/>
      <path id="Path_5973" data-name="Path 5973" d="M766.333,171.531A25.489,25.489,0,0,0,782.9,176.1a13.682,13.682,0,0,0,11.927-9.136s-9.309-1.549-14.385-5.963c-4.522-3.934-16.323,5.329-14.106,10.531" transform="translate(702.905 29.176)" fill="#1a1552"/>
      <path id="Path_5974" data-name="Path 5974" d="M787.928,183.386a.749.749,0,0,1,.52-.534c.889-.253,2.923-.583,3.332,1.52.449,2.31-2.263,3.913-4.177,3.872a.752.752,0,0,1-.7-.948Z" transform="translate(700.457 26.517)" fill="#f4bd9c"/>
      <path id="Path_5975" data-name="Path 5975" d="M767.506,203.163s-9.956-1.218-12.478,1.368c-3.957,4.056-1.314,14.208-2.766,28.119-2.485,23.79,2.747,29.913,3.077,30.4.994,1.478,37.792,1.05,38.421.729,1.27-.647,4.76-16.38,2.4-31.6-1.39-8.964,2.991-22.355-1.846-26.6-2.773-2.434-10.936-3.654-12.367-2.416-3.679,3.186-7.082,6.4-14.44,0" transform="translate(704.606 24.164)" fill="#88c1ee"/>
      <path id="Path_5976" data-name="Path 5976" d="M756.695,227.316l-10.742-8.122s-6.081,31.228-4.963,35.049c2.027,6.93,17.2,9.8,17.2,9.8l2.123-4.937c-1.024,1.026-8.332-6.119-8.857-7.561-.652-1.788,5.242-24.229,5.242-24.229" transform="translate(705.87 22.221)" fill="#f4bd9c"/>
      <path id="Path_5977" data-name="Path 5977" d="M744.618,223.349s3.11-16.707,9.819-18.747c9.3-2.829,4.06,21.337,4.06,21.337s-9.531-.1-13.879-2.59" transform="translate(705.427 23.964)" fill="#88c1ee"/>
      <path id="Path_5978" data-name="Path 5978" d="M794.891,228.178l10.742-8.123s6.081,31.229,4.963,35.05c-2.027,6.93-17.958,8.277-17.958,8.277l-2.123-4.936c1.024,1.025,9.094-4.6,9.619-6.039.652-1.789-5.242-24.229-5.242-24.229" transform="translate(700.029 22.12)" fill="#f4bd9c"/>
      <path id="Path_5979" data-name="Path 5979" d="M807.753,224.234s-3-17.522-9.819-18.747c-7.566-1.359-3.328,21.083-3.328,21.083s8.8.153,13.147-2.336" transform="translate(699.687 23.84)" fill="#88c1ee"/>
      <path id="Path_5980" data-name="Path 5980" d="M804.994,286.491s17.744.161,18.384,1.764,1.117,5.912-.237,6.091-17.475,2.235-20.441,1.1,2.294-8.957,2.294-8.957" transform="translate(698.703 14.306)" fill="#1a1552"/>
      <path id="Path_5981" data-name="Path 5981" d="M724.095,269.755c.793-2.547,3.589-7.068,8.918-5.818s62.048,17.872,63.064,20.156.38,9.262-2.538,9.008-66.315-12.519-68.726-15.819c-2.071-2.833-1.247-5.832-.718-7.529" transform="translate(707.913 16.984)" fill="#983e45"/>
      <path id="Path_5982" data-name="Path 5982" d="M748.177,286.491s-17.607.642-18.2,2.263-.939,5.944.42,6.081,17.534,1.711,20.464.488-2.685-8.833-2.685-8.833" transform="translate(707.21 14.306)" fill="#1a1552"/>
      <path id="Path_5983" data-name="Path 5983" d="M822.263,269.755c-.794-2.547-3.59-7.068-8.919-5.818S751.3,281.809,750.28,284.094s-.38,9.262,2.538,9.008,66.315-12.519,68.726-15.819c2.071-2.833,1.248-5.832.719-7.529" transform="translate(704.814 16.984)" fill="#ca525c"/>
      <path id="Path_5984" data-name="Path 5984" d="M794.007,268.293H753.5a1.522,1.522,0,0,1-1.523-1.523V235.611a1.523,1.523,0,0,1,1.523-1.522h40.507a1.523,1.523,0,0,1,1.523,1.522V266.77a1.522,1.522,0,0,1-1.523,1.523" transform="translate(704.562 20.469)" fill="#1a1552"/>
      <path id="Path_5985" data-name="Path 5985" d="M95.215,193.254s-2.157,15.381-6.654,16.113S74.605,202.9,74.605,202.9l8.737-14.855Z" transform="translate(784.226 25.885)" fill="#f4bd9c"/>
      <path id="Path_5986" data-name="Path 5986" d="M68.934,206.8s-5.269-1.6-7.387,1.691-3.253,9.969-7.2,11.259-6.26,8.467-4.388,13.212,2.571,6.644,1.864,9.257,7.519,6.148,11.973.5,12.395-23.517,9.894-29.908-4.76-6.016-4.76-6.016" transform="translate(787.202 23.724)" fill="#1a1552"/>
      <rect id="Rectangle_2572" data-name="Rectangle 2572" width="4.036" height="29.998" transform="matrix(0.983, -0.183, 0.183, 0.983, 870.86, 254.877)" fill="#f4ae84"/>
      <path id="Path_5987" data-name="Path 5987" d="M75.223,207.961h0a1.414,1.414,0,0,0-.565-1.918l-1.835-1a1.414,1.414,0,1,0-1.354,2.483l1.835,1a1.414,1.414,0,0,0,1.918-.565" transform="translate(784.681 23.906)" fill="#ca525c"/>
      <path id="Path_5988" data-name="Path 5988" d="M76.4,204.657s-5,9.457-6.544,10.26c-.2.105,1.153,5.668,5.936,6.13,6.659.642,6.966-3.567,6.966-3.567s-1.537-1.605-1.606-1.758c-.855-1.9,1.267-8.005,1.267-8.005Z" transform="translate(784.787 23.931)" fill="#f4bd9c"/>
      <path id="Path_5989" data-name="Path 5989" d="M132.743,347.407l-.2,5.273a1.109,1.109,0,0,0,.942,1.235l17.62.676.025-.664a1.176,1.176,0,0,0-.812-1.167c-2.1-.681-7.441-2.481-10.093-5.068-4.347-4.24-7.48-.287-7.48-.287" transform="translate(777.412 7.339)" fill="#1a1552"/>
      <path id="Path_5990" data-name="Path 5990" d="M61.143,232.9c-1.353-10.422,3.2-14.755,7.66-16.618,0,0,4.808,5.646,8.892,5.206,2.247-.243,2.4-4.4,2.4-4.4s.993.949,3.671,3.56c4.281,4.172,8.6,10.2,3.673,14.4-1.489,1.267,2.439,22.045,2.439,22.045l-23.655,2.551S62.337,242.1,61.143,232.9" transform="translate(785.838 22.563)" fill="#88c1ee"/>
      <path id="Path_5991" data-name="Path 5991" d="M91.316,262.533S117.291,270.5,126.969,275a6.42,6.42,0,0,1,3.753,4.824c1.542,11.178,2.512,58.082,2.512,58.082l-7.48-.287-5.272-43.806L73.11,264.5Z" transform="translate(784.402 17.124)" fill="#983e45"/>
      <path id="Path_5992" data-name="Path 5992" d="M67.446,238.634s4.467,14.272,7.45,16.112,24.11-10.582,24.11-10.582L97.4,240.658s-17.566,7.381-18.466,6.9-4.36-14.1-4.36-14.1Z" transform="translate(785.068 20.543)" fill="#f4bd9c"/>
      <path id="Path_5993" data-name="Path 5993" d="M66.59,219.875c3.477.281,4.894,2.548,8.474,13.909a.517.517,0,0,1-.208.587L67.6,238.33a.335.335,0,0,1-.488-.133c-1.034-2.151-4.474-9.413-3.625-13.745.368-1.874,1.2-4.731,3.106-4.577" transform="translate(785.549 22.142)" fill="#a9dbfe"/>
      <path id="Path_5994" data-name="Path 5994" d="M104.629,240.4l5,.006a.754.754,0,0,0,.644-.362l4.71-7.741a.753.753,0,0,0-.642-1.144l-5-.006a.755.755,0,0,0-.645.362l-4.709,7.741a.753.753,0,0,0,.642,1.144" transform="translate(780.783 20.815)" fill="#1a1552"/>
      <path id="Path_5995" data-name="Path 5995" d="M92.543,183.585c-2.712.657-2.922-4.415-11.54-3.485-5.985.645-7.894,3.4-10.857,10.569-4.092,9.909,3.09,14.254,5.636,13.379,6.213-2.135,5.808-5.891,5.808-5.891s1.946-3.949,2.346-3.842c4.734,1.255,10.109-1.647,10.109-1.647s.244,3.545,2.292,3.185,1.854-4.745,1.555-6.66-2.592-6.276-5.348-5.608" transform="translate(784.896 26.832)" fill="#1a1552"/>
      <path id="Path_5996" data-name="Path 5996" d="M95.67,341.851l-3.114,4.414a1.108,1.108,0,0,0,.08,1.551L106.8,358.325l.4-.534a1.177,1.177,0,0,0-.011-1.421c-1.351-1.75-4.74-6.25-5.468-9.882-1.193-5.954-6.042-4.637-6.042-4.637" transform="translate(782.147 7.81)" fill="#1a1552"/>
      <path id="Path_5997" data-name="Path 5997" d="M85.811,197.08a.606.606,0,0,0-.122-.589c-.5-.557-1.734-1.663-2.923-.41-1.307,1.376-.158,3.64,1.16,4.442a.606.606,0,0,0,.885-.341Z" transform="translate(783.333 25.007)" fill="#f4bd9c"/>
      <path id="Path_5998" data-name="Path 5998" d="M67.169,265.14a.583.583,0,0,0-.5.433c-.721,2.736-4.468,18.96,7.8,19.789a208.918,208.918,0,0,1,32.27,5.081.58.58,0,0,1,.409.76L92.673,332.227a.585.585,0,0,0,.206.666l5.177,3.78a.584.584,0,0,0,.856-.19L122.3,293.971a.548.548,0,0,0,.038-.084c.238-.672,3.007-9.042-5.186-13.5-8.156-4.437-31.288-15.93-33.349-16.953a.559.559,0,0,0-.316-.055Z" transform="translate(785.289 17.025)" fill="#ca525c"/>
      <path id="Path_5999" data-name="Path 5999" d="M101.292,241.367a3.437,3.437,0,0,1,2.938-1.879c2,.049,6.354-.035,6.757,1.205s-3.95,4.446-8.091,4.181-1.605-3.507-1.605-3.507" transform="translate(781.178 19.834)" fill="#f4bd9c"/>
      <path id="Path_6012" data-name="Path 6012" d="M377.563,36.2a3.008,3.008,0,0,1-2.866-2.022l-.545-1.532a1.373,1.373,0,0,0-1.885-.78l-1.467.7a3.042,3.042,0,0,1-4.055-4.054l.7-1.468a1.374,1.374,0,0,0-.781-1.885l-1.532-.545a3.042,3.042,0,0,1,0-5.733l1.532-.544a1.376,1.376,0,0,0,.781-1.886l-.7-1.467a3.043,3.043,0,0,1,4.055-4.055l1.467.7a1.373,1.373,0,0,0,1.885-.781L374.7,9.31a3.042,3.042,0,0,1,5.733,0l.545,1.531a1.372,1.372,0,0,0,1.884.781l1.468-.7a3.043,3.043,0,0,1,4.055,4.055l-.7,1.468a1.375,1.375,0,0,0,.781,1.885l1.531.544a3.042,3.042,0,0,1,0,5.733l-1.531.545a1.374,1.374,0,0,0-.781,1.885l.7,1.469a3.042,3.042,0,0,1-4.055,4.053l-1.468-.7a1.373,1.373,0,0,0-1.884.78l-.545,1.532a3.009,3.009,0,0,1-2.867,2.022m-4.706-5.691a2.6,2.6,0,0,1,2.448,1.728l.545,1.532a1.818,1.818,0,0,0,3.426,0l.545-1.532a2.6,2.6,0,0,1,3.563-1.476l1.468.7a1.818,1.818,0,0,0,2.423-2.423l-.7-1.469A2.6,2.6,0,0,1,388.055,24l1.532-.545a1.818,1.818,0,0,0,0-3.426l-1.532-.544a2.6,2.6,0,0,1-1.476-3.564l.7-1.468a1.818,1.818,0,0,0-2.423-2.423l-1.468.7a2.6,2.6,0,0,1-3.563-1.476l-.545-1.532a1.818,1.818,0,0,0-3.426,0l-.545,1.532a2.6,2.6,0,0,1-3.564,1.476l-1.467-.7a1.818,1.818,0,0,0-2.423,2.423l.7,1.468a2.6,2.6,0,0,1-1.476,3.564l-1.532.544a1.818,1.818,0,0,0,0,3.426l1.532.545a2.6,2.6,0,0,1,1.476,3.563l-.7,1.468a1.818,1.818,0,0,0,2.423,2.424l1.467-.7a2.6,2.6,0,0,1,1.116-.251m4.706-2.214a6.55,6.55,0,1,1,6.551-6.55,6.557,6.557,0,0,1-6.551,6.55m0-11.877a5.327,5.327,0,1,0,5.327,5.327,5.333,5.333,0,0,0-5.327-5.327" transform="translate(965.8 81.747)" fill="#8ec2fe"/>
    </g>
  </g>
</svg>
