<svg xmlns="http://www.w3.org/2000/svg" xmlns:xlink="http://www.w3.org/1999/xlink" width="768" height="680" viewBox="0 0 768 680">
  <defs>
    <clipPath id="clip-path">
      <rect id="Rectangle_2574" data-name="Rectangle 2574" width="263.178" height="196" fill="none"/>
    </clipPath>
    <clipPath id="clip-path-2">
      <rect id="Rectangle_2564" data-name="Rectangle 2564" width="356.975" height="22.163" fill="none"/>
    </clipPath>
    <clipPath id="clip-path-3">
      <rect id="Rectangle_2565" data-name="Rectangle 2565" width="136.232" height="14.579" fill="none"/>
    </clipPath>
    <clipPath id="clip-path-4">
      <rect id="Rectangle_2566" data-name="Rectangle 2566" width="82.924" height="11.334" fill="none"/>
    </clipPath>
    <clipPath id="clip-path-5">
      <rect id="Rectangle_2567" data-name="Rectangle 2567" width="299.891" height="17.219" fill="none"/>
    </clipPath>
    <clipPath id="clip-path-6">
      <rect id="Rectangle_2569" data-name="Rectangle 2569" width="49.606" height="4.789" fill="none"/>
    </clipPath>
    <clipPath id="clip-path-7">
      <rect id="Rectangle_2570" data-name="Rectangle 2570" width="73.78" height="11.334" fill="none"/>
    </clipPath>
    <clipPath id="clip-home-mobile-banner-1">
      <rect width="768" height="680"/>
    </clipPath>
  </defs>
  <g id="home-mobile-banner-1" clip-path="url(#clip-home-mobile-banner-1)">
    <rect width="768" height="680" fill="#fff"/>
    <rect id="Rectangle_2379" data-name="Rectangle 2379" width="768" height="680" fill="#fff4ee"/>
    <g id="Group_2666" data-name="Group 2666" transform="translate(-113.589 -32)" clip-path="url(#clip-path)">
      <path id="Path_6013" data-name="Path 6013" d="M224.99,3.273c-10.077-1.183-20.216-1.65-30.341-2.263C189.078.672,183.512.028,177.928,0a104.418,104.418,0,0,0-12.32.727c-8.935,1.346-17.783,3.231-26.715,4.6-5.357.824-11.047,1.866-16.515,1.432a47.575,47.575,0,0,1-9.716-1.694c-1.3.856-2.665,1.708-4.124,2.554C71.949,28.851,48.428,7.95,23.349,29.066.076,48.66-6.731,89.446,7.164,105.815c10.449,12.311,27.074,4.294,36.589,17.282,12.308,16.8-9.369,38.586,1.5,56.631,10.679,17.728,55.963,19.868,80.1,11.713,18.042-6.1,5.631-31.38,34.475-49,33.665-20.568,42.277,4.283,57.97-8.574,14.981-12.276-.269-35.176,7.708-53.857,9.944-23.29,27.734-16.692,35.775-37.041,3.933-9.952,1.384-21.756-4.207-32.9-10.78-1.584-21.325-5.058-32.082-6.8" transform="translate(0 0.001)" fill="#f89a68"/>
    </g>
    <path id="header-shape" d="M595.371,85C690.393,109.4,832.414,118.5,1026,36.8q-.2,48.75-.34,97.4H-8V34.1A664.677,664.677,0,0,1,141.855,5.9c61.985-4.3,118.249,1,209.388,18.6C476.032,48.7,552.322,73.9,595.371,85Z" transform="translate(-162 545.8)" fill="#fff"/>
    <g id="Group_2668" data-name="Group 2668" transform="translate(-732.382 199.69)">
      <path id="Path_5780" data-name="Path 5780" d="M61.154,328.658c-1.326,0-2.666-.051-3.984-.15l.075-.985c1.292.1,2.607.147,3.909.147Zm-7.945-.6c-1.311-.2-2.629-.454-3.914-.754l.224-.962c1.262.294,2.554.543,3.84.739Zm-7.76-1.807c-1.266-.4-2.53-.853-3.758-1.349l.369-.916c1.2.486,2.444.931,3.686,1.323Zm-7.4-2.981c-1.188-.589-2.366-1.231-3.5-1.908l.505-.848c1.116.664,2.273,1.294,3.439,1.872ZM31.2,319.19c-1.081-.762-2.148-1.575-3.171-2.418l.628-.762c1,.827,2.051,1.626,3.112,2.373Zm-6.149-5.071c-.955-.918-1.886-1.884-2.768-2.871l.737-.658c.865.969,1.778,1.916,2.715,2.817Zm-5.307-5.944c-.8-1.053-1.579-2.148-2.3-3.256l.829-.538c.706,1.087,1.465,2.162,2.254,3.195ZM15.4,301.5c-.635-1.163-1.232-2.364-1.775-3.569l.9-.405c.532,1.182,1.118,2.36,1.741,3.5Zm-3.269-7.261c-.45-1.248-.856-2.527-1.207-3.8l.952-.263c.345,1.25.743,2.5,1.184,3.728Zm-2.117-7.682c-.253-1.3-.457-2.625-.61-3.939l.982-.114c.15,1.289.35,2.59.6,3.865ZM9.1,278.638c-.027-.686-.041-1.386-.041-2.079,0-.632.012-1.274.035-1.908l.987.036c-.023.623-.034,1.253-.034,1.873,0,.68.014,1.367.04,2.04Zm1.269-7.853-.982-.11c.148-1.315.349-2.641.6-3.943l.971.185c-.244,1.277-.441,2.579-.586,3.867m1.465-7.677-.953-.259c.348-1.277.75-2.557,1.2-3.8l.93.332c-.437,1.224-.831,2.479-1.172,3.732m2.629-7.365-.9-.4c.541-1.212,1.136-2.416,1.766-3.578l.868.471c-.619,1.141-1.2,2.322-1.732,3.511m3.729-6.878-.829-.536c.719-1.113,1.49-2.212,2.29-3.265l.786.6c-.786,1.034-1.542,2.112-2.248,3.2m4.732-6.226-.739-.656c.879-.989,1.808-1.958,2.76-2.879l.687.71c-.934.9-1.845,1.853-2.707,2.824m5.621-5.436-.631-.761c1.019-.846,2.084-1.662,3.163-2.426l.571.806c-1.059.749-2.1,1.551-3.1,2.381m6.377-4.517-.507-.847c1.136-.682,2.312-1.326,3.494-1.916l.441.883c-1.159.579-2.312,1.212-3.428,1.88m6.99-3.491-.372-.915c1.225-.5,2.486-.956,3.749-1.359l.3.941c-1.239.4-2.475.844-3.677,1.333m7.446-2.378-.227-.962c1.287-.3,2.6-.562,3.912-.767l.153.976c-1.284.2-2.576.454-3.839.752m7.724-1.209L57,224.623c1.319-.1,2.66-.158,3.984-.162l0,.988c-1.3,0-2.614.058-3.909.16" transform="translate(786.777 -25.905)" fill="#f27634"/>
      <path id="Path_5789" data-name="Path 5789" d="M474.07,133.524c-3.564,0-8.067-1.549-13.446-4.631a78.291,78.291,0,0,1-9.753-6.687.494.494,0,1,1,.63-.762c.169.14,16.978,13.934,25.691,10.557a.494.494,0,1,1,.357.921,9.577,9.577,0,0,1-3.479.6" transform="translate(659.58 3.821)" fill="#fff"/>
      <path id="Path_5790" data-name="Path 5790" d="M475.386,143.637c-9.1,0-13.874-4.492-14.12-4.73a.494.494,0,0,1,.686-.711c.071.069,7.337,6.866,20.852,3.5a.494.494,0,0,1,.238.959,31.642,31.642,0,0,1-7.656.985" transform="translate(656.58 -0.995)" fill="#fff"/>
      <path id="Path_5796" data-name="Path 5796" d="M520.353,119.015c-10.3,0-14.878-10.062-14.926-10.169a.494.494,0,0,1,.306-.672c10.461-3.216,16.56,9.933,16.62,10.066a.494.494,0,0,1-.4.7q-.821.08-1.6.079M506.59,108.961c1.1,2.052,5.709,9.5,14.541,9.046-1.309-2.46-6.517-11.052-14.541-9.046" transform="translate(643.831 7.756)" fill="#fa7e8d"/>
      <path id="Path_5799" data-name="Path 5799" d="M812.478,381c-1.218,0-2.448-.031-3.66-.092l.05-.987c1.2.061,2.408.092,3.607.092h.314l.005.988Zm4.291-.128-.059-.986c1.3-.077,2.613-.192,3.907-.342l.114.982c-1.313.152-2.646.269-3.962.346m-11.917-.276c-1.311-.14-2.636-.319-3.941-.531l.159-.976c1.287.211,2.6.387,3.887.525Zm19.814-.638-.168-.973c1.281-.221,2.574-.482,3.845-.776l.223.963c-1.289.3-2.6.563-3.9.786m-27.662-.646c-1.29-.286-2.588-.613-3.857-.971l.268-.952c1.252.353,2.531.676,3.8.958Zm35.409-1.146-.277-.948c1.254-.366,2.51-.771,3.733-1.2l.33.931c-1.241.44-2.515.85-3.786,1.221m-43.064-1.011c-1.255-.432-2.51-.9-3.731-1.4l.373-.915c1.2.492,2.441.956,3.679,1.382Zm50.553-1.639-.382-.911c1.2-.5,2.4-1.045,3.568-1.613l.432.889c-1.185.576-2.4,1.125-3.619,1.635m-57.929-1.371c-1.2-.57-2.391-1.179-3.548-1.812l.474-.866c1.14.623,2.317,1.224,3.5,1.786Zm65.07-2.1-.481-.862c1.133-.632,2.265-1.306,3.368-2l.529.834c-1.118.707-2.267,1.391-3.416,2.031m-72.057-1.718c-1.125-.7-2.242-1.438-3.321-2.2l.568-.809c1.063.747,2.165,1.475,3.275,2.165Zm78.769-2.532-.574-.8c1.059-.756,2.11-1.552,3.125-2.367l.619.771c-1.03.826-2.1,1.633-3.17,2.4m-85.282-2.04c-1.036-.817-2.064-1.676-3.055-2.55l.654-.741c.977.863,1.99,1.709,3.013,2.516Zm91.483-2.933-.66-.735c.967-.868,1.924-1.777,2.844-2.7l.7.7c-.932.937-1.9,1.858-2.884,2.738m-97.445-2.333c-.94-.929-1.866-1.9-2.751-2.873l.732-.662c.873.963,1.785,1.916,2.713,2.832Zm103.058-3.3-.737-.657c.865-.971,1.715-1.98,2.528-3l.773.615c-.823,1.035-1.686,2.059-2.565,3.043m-108.4-2.592c-.831-1.026-1.643-2.09-2.414-3.159l.8-.578c.761,1.055,1.562,2.1,2.381,3.115Zm113.35-3.633-.806-.571c.751-1.06,1.485-2.159,2.18-3.265l.836.525c-.7,1.122-1.448,2.236-2.21,3.311m-118-2.813c-.711-1.113-1.4-2.259-2.046-3.407l.861-.486c.638,1.133,1.316,2.263,2.018,3.359Zm122.23-3.927-.864-.479c.629-1.137,1.235-2.312,1.8-3.489l.891.428c-.575,1.195-1.19,2.386-1.828,3.54M748.63,341.229c-.582-1.183-1.137-2.4-1.652-3.612l.91-.385c.507,1.2,1.055,2.395,1.628,3.561Zm129.581-4.184-.913-.377c.5-1.207.97-2.443,1.4-3.673l.933.325c-.435,1.247-.912,2.5-1.418,3.725M745.533,333.92c-.445-1.242-.861-2.514-1.238-3.78l.948-.281c.37,1.249.781,2.5,1.221,3.727Zm135.3-4.391-.95-.271c.359-1.253.687-2.532.974-3.8l.964.219c-.291,1.286-.624,2.582-.988,3.852M743.273,326.3c-.3-1.283-.573-2.594-.8-3.9l.972-.173c.228,1.284.5,2.576.794,3.842Zm139.318-4.521-.974-.164c.216-1.282.4-2.589.542-3.885l.982.109c-.147,1.314-.332,2.639-.551,3.939m-140.707-3.307c-.158-1.312-.281-2.645-.365-3.961l.986-.063c.083,1.3.2,2.612.36,3.905Zm141.586-4.6-.987-.054c.072-1.3.107-2.62.107-3.921q0-.625-.011-1.247l.988-.017q.011.63.011,1.264c0,1.319-.036,2.656-.109,3.975m-142.094-3.34c0-.211,0-.423,0-.635,0-1.116.026-2.239.078-3.342l.987.046c-.051,1.086-.076,2.2-.076,3.3,0,.209,0,.418,0,.626Zm141.027-5.8c-.093-1.294-.227-2.607-.394-3.9l.98-.127c.169,1.314.3,2.645.4,3.957Zm-139.677-2.042-.983-.1c.135-1.311.308-2.639.515-3.944l.975.155c-.2,1.287-.375,2.6-.507,3.889M881.4,296.955c-.239-1.279-.517-2.569-.827-3.833l.959-.236c.315,1.283.6,2.591.84,3.888Zm-137.44-2.01-.966-.209c.281-1.291.6-2.591.954-3.862l.952.264c-.348,1.253-.664,2.535-.94,3.808m135.571-5.6c-.381-1.244-.8-2.5-1.254-3.716l.927-.342c.457,1.239.884,2.507,1.271,3.769Zm-133.478-1.952-.935-.317c.424-1.252.89-2.51,1.385-3.738l.916.37c-.488,1.211-.947,2.451-1.366,3.685m130.767-5.4c-.518-1.192-1.076-2.386-1.661-3.547l.883-.444c.592,1.178,1.159,2.388,1.684,3.6ZM748.986,280.1l-.894-.421c.561-1.192,1.165-2.389,1.8-3.555l.869.469c-.622,1.15-1.217,2.33-1.77,3.507M873.3,275c-.647-1.126-1.337-2.25-2.048-3.341l.828-.539c.722,1.106,1.42,2.246,2.077,3.389Zm-120.58-1.8-.841-.518c.692-1.124,1.425-2.245,2.18-3.331l.811.564c-.744,1.071-1.468,2.176-2.15,3.285m116.3-4.765c-.769-1.047-1.579-2.089-2.409-3.095l.762-.628c.841,1.02,1.663,2.076,2.443,3.138ZM757.2,266.755l-.779-.609c.814-1.04,1.667-2.072,2.537-3.065l.743.65c-.858.981-1.7,2-2.5,3.025m106.835-4.373c-.881-.956-1.8-1.9-2.738-2.809l.687-.71c.949.921,1.883,1.879,2.777,2.849Zm-101.668-1.531-.707-.69c.921-.941,1.883-1.871,2.861-2.765l.667.729c-.964.881-1.913,1.8-2.821,2.725m96.039-3.932c-.984-.854-2.005-1.691-3.035-2.488l.6-.781c1.044.809,2.08,1.658,3.077,2.524Zm-90.251-1.358-.625-.765c1.021-.833,2.08-1.65,3.149-2.428l.581.8c-1.054.767-2.1,1.573-3.1,2.395m84.049-3.446c-1.071-.739-2.18-1.457-3.295-2.137l.514-.843c1.13.689,2.254,1.418,3.34,2.166Zm-77.712-1.166-.535-.83c1.107-.714,2.25-1.408,3.4-2.062l.489.858c-1.131.644-2.259,1.329-3.351,2.033m71.01-2.919c-1.151-.616-2.334-1.206-3.515-1.755l.416-.9c1.2.556,2.4,1.155,3.565,1.78Zm-64.2-.955-.44-.885c1.18-.586,2.393-1.148,3.6-1.668l.39.908c-1.195.512-2.391,1.065-3.554,1.644m57.079-2.354c-1.218-.484-2.46-.938-3.691-1.349l.312-.937c1.249.416,2.509.877,3.743,1.368Zm-49.887-.732-.338-.928c1.243-.452,2.513-.874,3.776-1.254l.284.945c-1.244.375-2.5.791-3.722,1.237m42.442-1.753c-1.256-.342-2.54-.652-3.813-.923l.206-.967c1.291.275,2.592.59,3.866.937ZM796,241.728l-.232-.961c1.286-.309,2.6-.586,3.892-.821l.176.972c-1.279.233-2.569.505-3.837.811m27.264-1.121c-1.288-.2-2.6-.363-3.892-.49l.1-.983c1.313.128,2.641.3,3.946.5Zm-19.55-.284-.123-.98c1.314-.164,2.645-.292,3.959-.381l.067.986c-1.3.088-2.608.214-3.9.375m11.745-.479c-1.306-.055-2.624-.076-3.922-.056l-.013-.987c1.316-.02,2.651,0,3.976.057Z" transform="translate(575.804 -30.049)" fill="#f27634"/>
      <path id="Path_5800" data-name="Path 5800" d="M378.223,37.518a3.146,3.146,0,0,1-3-2.115l-.57-1.6a1.436,1.436,0,0,0-1.971-.816l-1.534.729a3.181,3.181,0,0,1-4.24-4.239l.73-1.535a1.437,1.437,0,0,0-.817-1.971l-1.6-.57a3.181,3.181,0,0,1,0-5.995l1.6-.569a1.438,1.438,0,0,0,.817-1.972l-.73-1.534a3.182,3.182,0,0,1,4.24-4.24l1.534.73A1.435,1.435,0,0,0,374.656,11l.57-1.6a3.181,3.181,0,0,1,5.995,0l.57,1.6a1.435,1.435,0,0,0,1.97.817l1.535-.73a3.182,3.182,0,0,1,4.24,4.24l-.73,1.535a1.438,1.438,0,0,0,.817,1.971l1.6.569a3.181,3.181,0,0,1,0,5.995l-1.6.57a1.437,1.437,0,0,0-.817,1.971l.73,1.536a3.181,3.181,0,0,1-4.24,4.238l-1.535-.729a1.435,1.435,0,0,0-1.97.816l-.57,1.6a3.146,3.146,0,0,1-3,2.115M373.3,31.567a2.717,2.717,0,0,1,2.559,1.807l.57,1.6a1.9,1.9,0,0,0,3.583,0l.57-1.6a2.716,2.716,0,0,1,3.726-1.544l1.535.73a1.9,1.9,0,0,0,2.534-2.534l-.73-1.536a2.718,2.718,0,0,1,1.544-3.726l1.6-.57a1.9,1.9,0,0,0,0-3.583l-1.6-.569a2.719,2.719,0,0,1-1.544-3.727l.73-1.535a1.9,1.9,0,0,0-2.534-2.534l-1.535.73a2.717,2.717,0,0,1-3.726-1.544l-.57-1.6a1.9,1.9,0,0,0-3.583,0l-.57,1.6a2.717,2.717,0,0,1-3.727,1.544l-1.534-.73a1.9,1.9,0,0,0-2.534,2.534l.73,1.535a2.719,2.719,0,0,1-1.544,3.727l-1.6.569a1.9,1.9,0,0,0,0,3.583l1.6.57A2.718,2.718,0,0,1,368.8,28.49l-.73,1.535A1.9,1.9,0,0,0,370.6,32.56l1.534-.73a2.715,2.715,0,0,1,1.167-.263m4.921-2.315a6.849,6.849,0,1,1,6.85-6.849,6.857,6.857,0,0,1-6.85,6.849m0-12.419a5.57,5.57,0,1,0,5.57,5.57,5.576,5.576,0,0,0-5.57-5.57" transform="translate(720.446 32.428)" fill="#8ec2fe"/>
      <g id="Group_2658" data-name="Group 2658" transform="translate(852.907 105.816)">
        <path id="Path_5803" data-name="Path 5803" d="M54.52,109.252a.494.494,0,0,1-.369-.822,5.843,5.843,0,0,1,8.5-.254.494.494,0,0,1-.7.7,4.855,4.855,0,0,0-7.065.212.494.494,0,0,1-.37.166" transform="translate(-43.973 -93.311)" fill="#f27634"/>
        <path id="Path_5804" data-name="Path 5804" d="M47.079,102.385a.494.494,0,0,1-.357-.836,13.506,13.506,0,0,1,19.312-.215.494.494,0,0,1-.7.7,12.519,12.519,0,0,0-17.9.2.494.494,0,0,1-.357.152" transform="translate(-41.832 -90.697)" fill="#f27634"/>
        <path id="Path_5805" data-name="Path 5805" d="M40.408,95.022a.494.494,0,0,1-.355-.836,20.185,20.185,0,0,1,28.815-.272.494.494,0,0,1-.7.7,19.2,19.2,0,0,0-27.406.259.49.49,0,0,1-.355.152" transform="translate(-39.914 -88)" fill="#f27634"/>
        <path id="Path_5806" data-name="Path 5806" d="M59.24,121.414a2.57,2.57,0,1,1,2.57-2.57,2.573,2.573,0,0,1-2.57,2.57m0-4.152a1.582,1.582,0,1,0,1.582,1.582,1.584,1.584,0,0,0-1.582-1.582" transform="translate(-44.734 -96.133)" fill="#f27634"/>
      </g>
      <g id="Group_2661" data-name="Group 2661" transform="translate(958.349 62.7)">
        <path id="Path_5807" data-name="Path 5807" d="M192.382.238c-9.91.544-16.265.894-19.74,5.64-4.547,6.213-2.124,17.18,4.23,23.123,6.866,6.421,16.239,5.031,19.74,4.511,2.316-.343,17.716-2.627,20.021-13.535,1.488-7.043-3.176-14.4-8.741-17.766C203.6-.378,199.513-.154,192.382.238" transform="translate(-170.3 0)" fill="#8ec2fe"/>
        <path id="Path_5808" data-name="Path 5808" d="M191.368,22.806a2.141,2.141,0,1,1-2.141-2.141,2.141,2.141,0,0,1,2.141,2.141" transform="translate(-175.128 -5.944)" fill="#fff"/>
        <path id="Path_5809" data-name="Path 5809" d="M203.156,22.806a2.141,2.141,0,1,1-2.141-2.141,2.141,2.141,0,0,1,2.141,2.141" transform="translate(-178.519 -5.944)" fill="#fff"/>
        <path id="Path_5810" data-name="Path 5810" d="M214.944,22.806a2.141,2.141,0,1,1-2.141-2.141,2.141,2.141,0,0,1,2.141,2.141" transform="translate(-181.91 -5.944)" fill="#fff"/>
        <path id="Path_5811" data-name="Path 5811" d="M216.329,39.146s-1.96,6.334,9.83,6.668c0,0-2.868-5.186-.48-12.862Z" transform="translate(-183.504 -9.478)" fill="#8ec2fe"/>
      </g>
      <g id="Group_2662" data-name="Group 2662" transform="translate(1378.145 126.761)">
        <path id="Path_5812" data-name="Path 5812" d="M885.214,137.39h-8.729a.5.5,0,0,1-.49-.433,17.479,17.479,0,0,0-1.043-4.205c-.122-.244-.318-.594-.559-1.024-1.221-2.181-3.494-6.239-3.494-9.381a9.5,9.5,0,0,1,2.117-6.047c1.75-2.078,4.459-3.176,7.834-3.176s6.084,1.1,7.835,3.176a9.5,9.5,0,0,1,2.116,6.047c0,3.142-2.273,7.2-3.494,9.381-.241.43-.437.779-.559,1.024a17.468,17.468,0,0,0-1.043,4.205.494.494,0,0,1-.49.433m-8.3-.988h7.871a16.209,16.209,0,0,1,1.079-4.092c.127-.254.331-.618.58-1.064,1.177-2.1,3.368-6.015,3.368-8.9,0-3.8-2.347-8.236-8.963-8.236s-8.962,4.437-8.962,8.236c0,2.884,2.19,6.8,3.368,8.9.25.446.453.81.58,1.064a16.266,16.266,0,0,1,1.079,4.092" transform="translate(-856.399 -98.514)" fill="#f27634"/>
        <path id="Path_5813" data-name="Path 5813" d="M887.087,149.861H878.73a.671.671,0,1,1,0-1.342h8.357a.671.671,0,1,1,0,1.342" transform="translate(-858.459 -108.695)" fill="#f27634"/>
        <path id="Path_5814" data-name="Path 5814" d="M887.087,153.769H878.73a.671.671,0,1,1,0-1.341h8.357a.671.671,0,1,1,0,1.341" transform="translate(-858.459 -109.819)" fill="#f27634"/>
        <path id="Path_5815" data-name="Path 5815" d="M879.875,156.336a4.252,4.252,0,0,0,3.637,2.415,3.5,3.5,0,0,0,3.273-2.415Z" transform="translate(-858.981 -110.944)" fill="#f27634"/>
        <path id="Path_5816" data-name="Path 5816" d="M884.782,101.968a.494.494,0,0,1-.494-.494V93.109a.494.494,0,0,1,.987,0v8.366a.493.493,0,0,1-.494.494" transform="translate(-860.25 -92.615)" fill="#f27634"/>
        <path id="Path_5817" data-name="Path 5817" d="M868.006,107.672a.492.492,0,0,1-.379-.177l-5.377-6.408a.494.494,0,0,1,.757-.635l5.378,6.408a.494.494,0,0,1-.378.811" transform="translate(-853.878 -94.819)" fill="#f27634"/>
        <path id="Path_5818" data-name="Path 5818" d="M859.278,123.036a.591.591,0,0,1-.086-.006l-8.239-1.454a.494.494,0,1,1,.172-.973l8.238,1.454a.493.493,0,0,1-.085.979" transform="translate(-850.544 -100.663)" fill="#f27634"/>
        <path id="Path_5819" data-name="Path 5819" d="M906.536,123.538a.494.494,0,0,1-.086-.98l8.239-1.453a.494.494,0,0,1,.172.973l-8.238,1.453a.509.509,0,0,1-.086.007" transform="translate(-866.508 -100.808)" fill="#f27634"/>
        <path id="Path_5820" data-name="Path 5820" d="M899.266,108a.489.489,0,0,1-.317-.115.494.494,0,0,1-.061-.7l5.378-6.408a.494.494,0,1,1,.757.635l-5.378,6.408a.491.491,0,0,1-.378.177" transform="translate(-864.417 -94.913)" fill="#f27634"/>
        <path id="Path_5821" data-name="Path 5821" d="M882.065,140.815l-.98-.118a45.34,45.34,0,0,0,.169-8.97,4.982,4.982,0,0,1-2.3-1.251,3.955,3.955,0,0,1-1.257-2.68c0-.925.52-1.547,1.294-1.547a2.292,2.292,0,0,1,1.768.832,7.6,7.6,0,0,1,1.38,3.8,6.4,6.4,0,0,0,1.468-.014,7.8,7.8,0,0,1,1.312-4.014,1.7,1.7,0,0,1,1.289-.605,1.6,1.6,0,0,1,1.6,1.762,3.642,3.642,0,0,1-1.253,2.584,4.87,4.87,0,0,1-2.044,1.1,57.76,57.76,0,0,0,.1,9.017l-.984.09a58.629,58.629,0,0,1-.126-8.925,7.291,7.291,0,0,1-1.242.011,47.707,47.707,0,0,1-.2,8.928m-3.074-13.578c-.266,0-.306.35-.306.559a2.913,2.913,0,0,0,.957,1.971,3.907,3.907,0,0,0,1.467.887,6.1,6.1,0,0,0-1.089-2.918,1.329,1.329,0,0,0-1.029-.5m7.218,0a.722.722,0,0,0-.56.284,6.252,6.252,0,0,0-1.014,3.1,3.79,3.79,0,0,0,1.257-.752,2.662,2.662,0,0,0,.932-1.856c0-.289-.08-.774-.616-.774" transform="translate(-858.355 -102.289)" fill="#f27634"/>
      </g>
      <rect id="Rectangle_2561" data-name="Rectangle 2561" width="6.916" height="6.916" transform="translate(789.382 317.875) rotate(-56.176)" fill="#fa7e8d"/>
      <rect id="Rectangle_2562" data-name="Rectangle 2562" width="6.915" height="6.915" transform="translate(1014.878 422.189) rotate(-52.172)" fill="#f27634"/>
      <rect id="Rectangle_2563" data-name="Rectangle 2563" width="6.915" height="6.915" transform="matrix(0.613, -0.79, 0.79, 0.613, 1286.41, 111.271)" fill="#f27634"/>
      <path id="Path_5822" data-name="Path 5822" d="M260.457,420.4l-.018-.988c1.329-.024,2.649-.08,3.922-.167l.067.986c-1.289.088-2.625.145-3.97.169m-3.973-.021c-1.293-.036-2.629-.1-3.968-.194l.068-.986c1.326.092,2.647.157,3.927.192Zm11.9-.53-.122-.98c1.315-.165,2.618-.368,3.87-.6l.184.97c-1.273.241-2.6.447-3.932.615m-19.823-.014c-1.287-.138-2.612-.3-3.938-.492l.139-.979c1.314.187,2.628.351,3.9.488Zm-7.857-1.112-.447-.079.174-.972.444.078Zm35.5-.36-.25-.956c1.279-.334,2.538-.715,3.743-1.129l.321.934c-1.228.423-2.511.811-3.814,1.151m7.528-2.6-.4-.9c1.2-.53,2.377-1.113,3.5-1.733l.479.864c-1.145.635-2.348,1.232-3.577,1.773m6.973-3.877-.561-.813a38.312,38.312,0,0,0,3.09-2.371l.641.752a39.106,39.106,0,0,1-3.171,2.433m6.074-5.185-.717-.679a36.86,36.86,0,0,0,2.525-2.964l.785.6a37.762,37.762,0,0,1-2.593,3.043m4.849-6.344-.843-.514a38.591,38.591,0,0,0,1.856-3.427l.891.425a39.2,39.2,0,0,1-1.9,3.516m3.448-7.2-.928-.338c.438-1.2.83-2.459,1.164-3.727l.955.252c-.342,1.3-.742,2.579-1.191,3.813m2.04-7.713-.973-.17c.22-1.265.393-2.57.514-3.877l.984.091c-.123,1.333-.3,2.664-.524,3.956m.742-7.936-.988-.018q.009-.481.009-.964c0-.972-.026-1.965-.078-2.952l.987-.052c.053,1,.08,2.015.08,3q0,.492-.009.982m-1.394-7.838c-.152-1.279-.35-2.583-.587-3.875l.972-.179c.242,1.313.442,2.638.6,3.937Zm-1.413-7.71c-.311-1.257-.664-2.528-1.051-3.779l.944-.292c.392,1.269.751,2.559,1.066,3.835Zm-2.317-7.493c-.452-1.213-.948-2.437-1.473-3.637l.905-.4c.532,1.217,1.035,2.458,1.494,3.689Zm-3.144-7.188c-.589-1.166-1.217-2.328-1.864-3.454l.856-.493c.658,1.141,1.294,2.32,1.89,3.5Zm-3.915-6.8c-.71-1.092-1.461-2.178-2.231-3.229l.8-.584c.781,1.066,1.542,2.168,2.262,3.274Zm-4.637-6.329c-.833-1.01-1.7-2.005-2.579-2.957l.726-.67c.891.965,1.771,1.975,2.615,3Zm-5.323-5.759c-.936-.9-1.913-1.789-2.9-2.636l.641-.752c1.006.859,2,1.76,2.949,2.676Zm-5.962-5.09c-1.045-.787-2.123-1.547-3.2-2.259l.543-.825c1.1.724,2.193,1.5,3.255,2.294Z" transform="translate(720.18 -53.489)" fill="#f27634"/>
      <path id="Path_5829" data-name="Path 5829" d="M661.541,236.057a.508.508,0,0,1-.1-.108c-3.787-5.55,2.635-18.574,2.911-19.126a.494.494,0,0,1,.884.441c-.065.13-6.441,13.055-2.978,18.127a.494.494,0,0,1-.715.666" transform="translate(599.236 -23.603)" fill="#fff"/>
      <path id="Path_5830" data-name="Path 5830" d="M657.166,241.135a.494.494,0,0,1-.132-.162c-4.451-8.7-1.009-14.629-.86-14.877a.494.494,0,0,1,.848.506c-.038.065-3.293,5.744.891,13.92a.494.494,0,0,1-.747.612" transform="translate(600.815 -26.283)" fill="#fff"/>
      <path id="Path_5837" data-name="Path 5837" d="M68.522,57.3c.054-1.322.082-2.644.083-3.929h.988c0,1.3-.029,2.633-.083,3.969Zm0-7.856c-.058-1.321-.146-2.639-.263-3.917l.984-.09c.118,1.294.208,2.627.266,3.964ZM67.8,41.633c-.19-1.309-.417-2.608-.675-3.862l.968-.2c.261,1.272.491,2.591.684,3.919Zm-1.581-7.671c-.347-1.272-.737-2.53-1.158-3.739l.933-.326c.429,1.231.826,2.511,1.178,3.8ZM63.635,26.58c-.525-1.2-1.1-2.386-1.706-3.515l.87-.468c.619,1.153,1.2,2.359,1.741,3.588ZM.374,5.663,0,4.749c1.227-.5,2.482-.974,3.729-1.4l.319.935C2.819,4.7,1.584,5.167.374,5.663m59.56,14.046c-.716-1.091-1.486-2.155-2.288-3.161l.772-.616c.821,1.03,1.609,2.119,2.342,3.235ZM7.8,3.133,7.535,2.18c1.282-.351,2.585-.665,3.873-.932l.2.967c-1.268.263-2.551.571-3.813.918M55.071,13.619c-.9-.932-1.859-1.829-2.846-2.666l.639-.754c1.012.858,1.993,1.777,2.917,2.732ZM15.471,1.544,15.334.566C16.654.38,17.988.239,19.3.145l.071.985c-1.287.093-2.6.232-3.9.414M49.131,8.58c-1.061-.734-2.176-1.427-3.313-2.059l.48-.863c1.164.648,2.307,1.357,3.394,2.109ZM23.282.988V0c1.334,0,2.675.048,3.986.144l-.073.985c-1.287-.095-2.6-.142-3.912-.141m19.04,3.8c-1.18-.516-2.406-.987-3.644-1.4l.313-.937c1.267.422,2.52.9,3.728,1.433ZM31.083,1.569l.15-.977c1.322.2,2.64.46,3.918.765l-.23.961c-1.252-.3-2.542-.551-3.838-.749" transform="translate(1130.297 106.694) rotate(-30)" fill="#f27634"/>
      <g id="Group_2639" data-name="Group 2639" transform="translate(904.12 375.355)" opacity="0.2">
        <g id="Group_2638" data-name="Group 2638">
          <g id="Group_2637" data-name="Group 2637" clip-path="url(#clip-path-2)">
            <path id="Path_5838" data-name="Path 5838" d="M518.213,483.872c0,6.12-79.911,11.082-178.487,11.082s-178.488-4.962-178.488-11.082,79.911-11.082,178.488-11.082,178.487,4.962,178.487,11.082" transform="translate(-161.238 -472.791)" fill="#1a1552"/>
          </g>
        </g>
      </g>
      <g id="Group_2642" data-name="Group 2642" transform="translate(812.083 410.343)" opacity="0.2">
        <g id="Group_2641" data-name="Group 2641">
          <g id="Group_2640" data-name="Group 2640" clip-path="url(#clip-path-3)">
            <path id="Path_5839" data-name="Path 5839" d="M168.1,529.2c0,4.026-30.5,7.29-68.116,7.29s-68.115-3.263-68.115-7.29,30.5-7.29,68.115-7.29S168.1,525.17,168.1,529.2" transform="translate(-31.868 -521.907)" fill="#1a1552"/>
          </g>
        </g>
      </g>
      <g id="Group_2645" data-name="Group 2645" transform="translate(912.351 433.25)" opacity="0.2">
        <g id="Group_2644" data-name="Group 2644">
          <g id="Group_2643" data-name="Group 2643" clip-path="url(#clip-path-4)">
            <path id="Path_5840" data-name="Path 5840" d="M255.643,559.73c0,3.13-18.563,5.668-41.462,5.668s-41.462-2.537-41.462-5.668,18.563-5.667,41.462-5.667,41.462,2.537,41.462,5.667" transform="translate(-172.719 -554.063)" fill="#1a1552"/>
          </g>
        </g>
      </g>
      <g id="Group_2648" data-name="Group 2648" transform="translate(1130.259 418.453)" opacity="0.2">
        <g id="Group_2647" data-name="Group 2647">
          <g id="Group_2646" data-name="Group 2646" clip-path="url(#clip-path-5)">
            <path id="Path_5841" data-name="Path 5841" d="M778.872,541.9c0,4.755-67.133,8.61-149.945,8.61s-149.946-3.855-149.946-8.61,67.133-8.61,149.946-8.61,149.945,3.854,149.945,8.61" transform="translate(-478.982 -533.292)" fill="#1a1552"/>
          </g>
        </g>
      </g>
      <path id="Path_5842" data-name="Path 5842" d="M446.9,456.149H344.828s20.072-19.688,17.234-34.064h67.6c-2.547,23.5,17.234,34.064,17.234,34.064" transform="translate(690.053 -82.805)" fill="#18679c"/>
      <path id="Path_5843" data-name="Path 5843" d="M509.652,330.779H181.834a11.25,11.25,0,0,1-11.25-11.25V115.9a11.249,11.249,0,0,1,11.25-11.25H509.652A11.249,11.249,0,0,1,520.9,115.9V319.529a11.25,11.25,0,0,1-11.25,11.25" transform="translate(740.19 8.579)" fill="#f9f9f9" stroke="#2d4383" stroke-width="1"/>
      <path id="Path_5844" data-name="Path 5844" d="M445.987,482.627H343.919a2.25,2.25,0,0,1-2.25-2.25v-8.225a2.25,2.25,0,0,1,2.25-2.25H445.987a2.25,2.25,0,0,1,2.25,2.25v8.225a2.25,2.25,0,0,1-2.25,2.25" transform="translate(690.962 -96.606)" fill="#005892"/>
      <path id="Path_5845" data-name="Path 5845" d="M511.778,321.054H190.541a1.125,1.125,0,0,1-1.125-1.125V128.678a1.125,1.125,0,0,1,1.125-1.125H511.778a1.125,1.125,0,0,1,1.125,1.125V319.929a1.125,1.125,0,0,1-1.125,1.125" transform="translate(734.77 1.99)" fill="#2d4383"/>
      <path id="Path_5846" data-name="Path 5846" d="M498.269,157.282H218.144a2.241,2.241,0,0,1-2.241-2.241V138.4a2.241,2.241,0,0,1,2.241-2.242H498.269a2.241,2.241,0,0,1,2.241,2.242v16.637a2.241,2.241,0,0,1-2.241,2.241" transform="translate(727.148 -0.451)" fill="#fff"/>
      <path id="Path_5847" data-name="Path 5847" d="M381.841,153.267H350.8a2.348,2.348,0,0,1,0-4.7h31.04a2.348,2.348,0,0,1,0,4.7" transform="translate(689.024 -4.023)" fill="#dfe6f4"/>
      <path id="Path_5848" data-name="Path 5848" d="M451.283,153.4h-31.04a2.348,2.348,0,0,1,0-4.7h31.04a2.348,2.348,0,0,1,0,4.7" transform="translate(669.024 -4.061)" fill="#dfe6f4"/>
      <path id="Path_5849" data-name="Path 5849" d="M312.4,153.4h-31.04a2.348,2.348,0,0,1,0-4.7H312.4a2.348,2.348,0,1,1,0,4.7" transform="translate(709.024 -4.061)" fill="#8ec2fe"/>
      <path id="Path_5850" data-name="Path 5850" d="M520.725,153.4h-31.04a2.348,2.348,0,0,1,0-4.7h31.04a2.348,2.348,0,1,1,0,4.7" transform="translate(649.024 -4.061)" fill="#dfe6f4"/>
      <path id="Path_5851" data-name="Path 5851" d="M590.168,152.766h-31.04a2.348,2.348,0,0,1,0-4.7h31.04a2.348,2.348,0,1,1,0,4.7" transform="translate(629.024 -3.878)" fill="#dfe6f4"/>
      <path id="Path_5852" data-name="Path 5852" d="M230.677,154.839h0a6.462,6.462,0,1,1,6.463-6.463,6.463,6.463,0,0,1-6.463,6.463" transform="translate(724.809 -2.107)" fill="#ff7e00"/>
      <path id="Path_5853" data-name="Path 5853" d="M302.742,356.9H218.2a2.818,2.818,0,0,1-2.817-2.818v-78a2.818,2.818,0,0,1,2.817-2.817h84.538a2.818,2.818,0,0,1,2.818,2.817v78a2.818,2.818,0,0,1-2.818,2.818" transform="translate(727.341 -39.959)" fill="#fff"/>
      <path id="Path_5854" data-name="Path 5854" d="M301.014,355.721H225.451a1.767,1.767,0,0,1-1.762-1.762v-.509a1.766,1.766,0,0,1,1.762-1.761h75.563a1.766,1.766,0,0,1,1.762,1.761v.509a1.767,1.767,0,0,1-1.762,1.762" transform="translate(724.951 -62.519)" fill="#dfe6f4"/>
      <path id="Path_5855" data-name="Path 5855" d="M301.014,366.843H225.451a1.767,1.767,0,0,1-1.762-1.762v-.509a1.766,1.766,0,0,1,1.762-1.761h75.563a1.766,1.766,0,0,1,1.762,1.761v.509a1.767,1.767,0,0,1-1.762,1.762" transform="translate(724.951 -65.722)" fill="#dfe6f4"/>
      <path id="Path_5856" data-name="Path 5856" d="M258.047,377.966h-32.6a1.766,1.766,0,0,1-1.761-1.762v-.509a1.766,1.766,0,0,1,1.761-1.761h32.6a1.766,1.766,0,0,1,1.762,1.761v.509a1.767,1.767,0,0,1-1.762,1.762" transform="translate(724.957 -68.926)" fill="#dfe6f4"/>
      <path id="Path_5857" data-name="Path 5857" d="M299.949,324.745H226.507a2.826,2.826,0,0,1-2.818-2.818v-35.39a2.827,2.827,0,0,1,2.818-2.818h73.442a2.827,2.827,0,0,1,2.818,2.818v35.39a2.826,2.826,0,0,1-2.818,2.818" transform="translate(724.951 -42.955)" fill="#8ec2fe"/>
      <path id="Path_5858" data-name="Path 5858" d="M438.267,356.9H354.545a3.225,3.225,0,0,1-3.225-3.226V276.5a3.225,3.225,0,0,1,3.225-3.226h83.723a3.225,3.225,0,0,1,3.226,3.226v77.183a3.225,3.225,0,0,1-3.226,3.226" transform="translate(688.186 -39.959)" fill="#fff"/>
      <path id="Path_5859" data-name="Path 5859" d="M436.947,355.721H361.384a1.767,1.767,0,0,1-1.762-1.762v-.509a1.766,1.766,0,0,1,1.762-1.761h75.563a1.766,1.766,0,0,1,1.762,1.761v.509a1.767,1.767,0,0,1-1.762,1.762" transform="translate(685.797 -62.519)" fill="#dfe6f4"/>
      <path id="Path_5860" data-name="Path 5860" d="M436.947,366.843H361.384a1.767,1.767,0,0,1-1.762-1.762v-.509a1.766,1.766,0,0,1,1.762-1.761h75.563a1.766,1.766,0,0,1,1.762,1.761v.509a1.767,1.767,0,0,1-1.762,1.762" transform="translate(685.797 -65.722)" fill="#dfe6f4"/>
      <path id="Path_5861" data-name="Path 5861" d="M393.98,377.966h-32.6a1.766,1.766,0,0,1-1.761-1.762v-.509a1.766,1.766,0,0,1,1.761-1.761h32.6a1.766,1.766,0,0,1,1.762,1.761v.509a1.767,1.767,0,0,1-1.762,1.762" transform="translate(685.807 -68.926)" fill="#dfe6f4"/>
      <path id="Path_5862" data-name="Path 5862" d="M435.882,324.745H362.44a2.827,2.827,0,0,1-2.818-2.818v-35.39a2.827,2.827,0,0,1,2.818-2.818h73.442a2.827,2.827,0,0,1,2.818,2.818v35.39a2.826,2.826,0,0,1-2.818,2.818" transform="translate(685.797 -42.955)" fill="#ff7e00"/>
      <path id="Path_5863" data-name="Path 5863" d="M575.3,356.9H491.575a3.225,3.225,0,0,1-3.225-3.226V276.5a3.225,3.225,0,0,1,3.225-3.226H575.3a3.225,3.225,0,0,1,3.226,3.226v77.183A3.225,3.225,0,0,1,575.3,356.9" transform="translate(648.715 -39.959)" fill="#fff"/>
      <path id="Path_5864" data-name="Path 5864" d="M573.977,355.721H498.414a1.767,1.767,0,0,1-1.762-1.762v-.509a1.766,1.766,0,0,1,1.762-1.761h75.563a1.766,1.766,0,0,1,1.762,1.761v.509a1.767,1.767,0,0,1-1.762,1.762" transform="translate(646.328 -62.519)" fill="#dfe6f4"/>
      <path id="Path_5865" data-name="Path 5865" d="M573.977,366.843H498.414a1.767,1.767,0,0,1-1.762-1.762v-.509a1.766,1.766,0,0,1,1.762-1.761h75.563a1.766,1.766,0,0,1,1.762,1.761v.509a1.767,1.767,0,0,1-1.762,1.762" transform="translate(646.328 -65.722)" fill="#dfe6f4"/>
      <path id="Path_5866" data-name="Path 5866" d="M531.01,377.966h-32.6a1.766,1.766,0,0,1-1.761-1.762v-.509a1.766,1.766,0,0,1,1.761-1.761h32.6a1.766,1.766,0,0,1,1.762,1.761v.509a1.767,1.767,0,0,1-1.762,1.762" transform="translate(646.341 -68.926)" fill="#dfe6f4"/>
      <path id="Path_5867" data-name="Path 5867" d="M572.912,324.745H499.47a2.827,2.827,0,0,1-2.818-2.818v-35.39a2.827,2.827,0,0,1,2.818-2.818h73.442a2.827,2.827,0,0,1,2.818,2.818v35.39a2.826,2.826,0,0,1-2.818,2.818" transform="translate(646.328 -42.955)" fill="#8ec2fe"/>
      <path id="Path_5868" data-name="Path 5868" d="M497.479,237.881h-278.9A2.678,2.678,0,0,1,215.9,235.2V177.435a2.678,2.678,0,0,1,2.678-2.678h278.9a2.678,2.678,0,0,1,2.678,2.678V235.2a2.678,2.678,0,0,1-2.678,2.678" transform="translate(727.148 -11.575)" fill="#fff"/>
      <path id="Path_5869" data-name="Path 5869" d="M554.791,214.757H449.4a1.543,1.543,0,1,1,0-3.085H554.791a1.543,1.543,0,1,1,0,3.085" transform="translate(660.374 -22.195)" fill="#dfe6f4"/>
      <path id="Path_5870" data-name="Path 5870" d="M539.347,225.332H449.4a1.543,1.543,0,1,1,0-3.085h89.949a1.543,1.543,0,1,1,0,3.085" transform="translate(660.379 -25.241)" fill="#dfe6f4"/>
      <path id="Path_5871" data-name="Path 5871" d="M542.825,198.341H475.646a2.964,2.964,0,0,1,0-5.928h67.179a2.964,2.964,0,0,1,0,5.928" transform="translate(653.234 -16.649)" fill="#8ec2fe"/>
      <path id="Path_5872" data-name="Path 5872" d="M529.364,248.254h-24.7a4.94,4.94,0,0,1,0-9.879h24.7a4.94,4.94,0,0,1,0,9.879" transform="translate(645.456 -29.887)" fill="#ff7e00"/>
      <path id="Path_5873" data-name="Path 5873" d="M358.337,233.594H228.964a4.061,4.061,0,0,1-4.05-4.05V188.9a4.061,4.061,0,0,1,4.05-4.05H358.337a4.061,4.061,0,0,1,4.05,4.05v40.643a4.061,4.061,0,0,1-4.05,4.05" transform="translate(724.589 -14.48)" fill="#8ec2fe"/>
      <path id="Path_5875" data-name="Path 5875" d="M155.675,462.577H42.959a5.636,5.636,0,0,1-5.635-5.636v-162.5a5.636,5.636,0,0,1,5.635-5.635H155.675a5.636,5.636,0,0,1,5.635,5.635v162.5a5.636,5.636,0,0,1-5.635,5.636" transform="translate(778.472 -47.307)" fill="#f9f9f9" stroke="#2d4383" stroke-width="1"/>
      <path id="Path_5876" data-name="Path 5876" d="M153.633,458.1H50.31a3.757,3.757,0,0,1-3.757-3.757V303.112a3.757,3.757,0,0,1,3.757-3.757H153.633a3.757,3.757,0,0,1,3.757,3.757V454.34a3.757,3.757,0,0,1-3.757,3.757" transform="translate(775.991 -47.55)" fill="#2d4383"/>
      <path id="Path_5877" data-name="Path 5877" d="M126.349,293.643a1.409,1.409,0,1,1-1.409-1.409,1.409,1.409,0,0,1,1.409,1.409" transform="translate(753.85 -45.396)" fill="#fff"/>
      <path id="Path_5878" data-name="Path 5878" d="M102.049,506.174H53.106V468.13a1.63,1.63,0,0,1,1.63-1.63h45.683a1.63,1.63,0,0,1,1.63,1.63Z" transform="translate(774.107 -95.627)" fill="#fff"/>
      <path id="Path_5879" data-name="Path 5879" d="M99.507,518.452H58.641a1.034,1.034,0,0,1-1.03-1.03v-.481a1.034,1.034,0,0,1,1.03-1.03H99.507a1.033,1.033,0,0,1,1.029,1.03v.481a1.033,1.033,0,0,1-1.029,1.03" transform="translate(772.811 -109.839)" fill="#dfe6f4"/>
      <path id="Path_5880" data-name="Path 5880" d="M96.776,498.934H61.369a3.768,3.768,0,0,1-3.757-3.757V476.841a3.768,3.768,0,0,1,3.757-3.757H96.776a3.768,3.768,0,0,1,3.757,3.757v18.336a3.768,3.768,0,0,1-3.757,3.757" transform="translate(772.811 -97.521)" fill="#8ec2fe"/>
      <path id="Path_5881" data-name="Path 5881" d="M175.829,506.174H126.886V468.13a1.63,1.63,0,0,1,1.63-1.63H174.2a1.63,1.63,0,0,1,1.63,1.63Z" transform="translate(752.885 -95.627)" fill="#fff"/>
      <path id="Path_5882" data-name="Path 5882" d="M173.288,518.452H132.422a1.033,1.033,0,0,1-1.03-1.03v-.481a1.033,1.033,0,0,1,1.03-1.03h40.865a1.033,1.033,0,0,1,1.03,1.03v.481a1.033,1.033,0,0,1-1.03,1.03" transform="translate(751.589 -109.839)" fill="#dfe6f4"/>
      <path id="Path_5883" data-name="Path 5883" d="M170.556,498.934H135.149a3.768,3.768,0,0,1-3.757-3.757V476.841a3.768,3.768,0,0,1,3.757-3.757h35.407a3.768,3.768,0,0,1,3.757,3.757v18.336a3.768,3.768,0,0,1-3.757,3.757" transform="translate(751.589 -97.521)" fill="#8ec2fe"/>
      <path id="Path_5884" data-name="Path 5884" d="M152.711,367.878H55.023A1.879,1.879,0,0,1,53.145,366V337.132a1.879,1.879,0,0,1,1.878-1.879h97.688a1.879,1.879,0,0,1,1.879,1.879V366a1.879,1.879,0,0,1-1.879,1.878" transform="translate(774.095 -57.795)" fill="#fff"/>
      <path id="Path_5885" data-name="Path 5885" d="M172.54,355.4H133.862a.566.566,0,0,1,0-1.133H172.54a.566.566,0,0,1,0,1.133" transform="translate(751.041 -63.262)" fill="#dfe6f4"/>
      <path id="Path_5886" data-name="Path 5886" d="M166.872,359.284h-33.01a.566.566,0,0,1,0-1.132h33.01a.566.566,0,1,1,0,1.132" transform="translate(751.041 -64.38)" fill="#dfe6f4"/>
      <path id="Path_5887" data-name="Path 5887" d="M168.148,349.379H143.495a1.088,1.088,0,1,1,0-2.176h24.653a1.088,1.088,0,0,1,0,2.176" transform="translate(748.421 -61.227)" fill="#8ec2fe"/>
      <path id="Path_5888" data-name="Path 5888" d="M163.208,367.7h-9.064a1.813,1.813,0,0,1,0-3.625h9.064a1.813,1.813,0,1,1,0,3.625" transform="translate(745.565 -66.085)" fill="#ff7e00"/>
      <path id="Path_5889" data-name="Path 5889" d="M100.6,365.729H61.069a3.468,3.468,0,0,1-3.458-3.458v-17.5a3.468,3.468,0,0,1,3.458-3.458H100.6a3.468,3.468,0,0,1,3.458,3.458v17.5a3.468,3.468,0,0,1-3.458,3.458" transform="translate(772.811 -59.537)" fill="#8ec2fe"/>
      <path id="Path_5890" data-name="Path 5890" d="M100.17,439.661H54.984a1.879,1.879,0,0,1-1.879-1.879V388.842a1.879,1.879,0,0,1,1.879-1.879H100.17a1.879,1.879,0,0,1,1.878,1.879v48.941a1.879,1.879,0,0,1-1.878,1.879" transform="translate(774.107 -72.696)" fill="#fff"/>
      <path id="Path_5891" data-name="Path 5891" d="M99.507,438.915H58.641a1.034,1.034,0,0,1-1.03-1.03V437.4a1.034,1.034,0,0,1,1.03-1.03H99.507a1.033,1.033,0,0,1,1.029,1.03v.481a1.033,1.033,0,0,1-1.029,1.03" transform="translate(772.811 -86.908)" fill="#dfe6f4"/>
      <path id="Path_5892" data-name="Path 5892" d="M99.507,445.923H58.641a1.034,1.034,0,0,1-1.03-1.03v-.481a1.034,1.034,0,0,1,1.03-1.03H99.507a1.033,1.033,0,0,1,1.029,1.03v.481a1.033,1.033,0,0,1-1.029,1.03" transform="translate(772.811 -88.926)" fill="#dfe6f4"/>
      <path id="Path_5893" data-name="Path 5893" d="M76.185,452.932H58.641a1.033,1.033,0,0,1-1.03-1.03v-.481a1.033,1.033,0,0,1,1.03-1.03H76.185a1.033,1.033,0,0,1,1.03,1.03v.481a1.033,1.033,0,0,1-1.03,1.03" transform="translate(772.811 -90.944)" fill="#dfe6f4"/>
      <path id="Path_5894" data-name="Path 5894" d="M96.776,419.4H61.369a3.768,3.768,0,0,1-3.757-3.757V397.305a3.768,3.768,0,0,1,3.757-3.757H96.776a3.768,3.768,0,0,1,3.757,3.757v18.336a3.768,3.768,0,0,1-3.757,3.757" transform="translate(772.811 -74.582)" fill="#8ec2fe"/>
      <path id="Path_5895" data-name="Path 5895" d="M173.95,439.661H128.764a1.879,1.879,0,0,1-1.878-1.879V388.842a1.879,1.879,0,0,1,1.878-1.879H173.95a1.879,1.879,0,0,1,1.879,1.879v48.941a1.879,1.879,0,0,1-1.879,1.879" transform="translate(752.885 -72.696)" fill="#fff"/>
      <path id="Path_5896" data-name="Path 5896" d="M173.288,438.915H132.422a1.033,1.033,0,0,1-1.03-1.03V437.4a1.033,1.033,0,0,1,1.03-1.03h40.865a1.033,1.033,0,0,1,1.03,1.03v.481a1.033,1.033,0,0,1-1.03,1.03" transform="translate(751.589 -86.908)" fill="#dfe6f4"/>
      <path id="Path_5897" data-name="Path 5897" d="M173.288,445.923H132.422a1.033,1.033,0,0,1-1.03-1.03v-.481a1.033,1.033,0,0,1,1.03-1.03h40.865a1.033,1.033,0,0,1,1.03,1.03v.481a1.033,1.033,0,0,1-1.03,1.03" transform="translate(751.589 -88.926)" fill="#dfe6f4"/>
      <path id="Path_5898" data-name="Path 5898" d="M149.966,452.932H132.423a1.033,1.033,0,0,1-1.03-1.03v-.481a1.033,1.033,0,0,1,1.03-1.03h17.543a1.033,1.033,0,0,1,1.03,1.03v.481a1.033,1.033,0,0,1-1.03,1.03" transform="translate(751.588 -90.944)" fill="#dfe6f4"/>
      <path id="Path_5899" data-name="Path 5899" d="M170.556,419.4H135.149a3.768,3.768,0,0,1-3.757-3.757V397.305a3.768,3.768,0,0,1,3.757-3.757h35.407a3.768,3.768,0,0,1,3.757,3.757v18.336a3.768,3.768,0,0,1-3.757,3.757" transform="translate(751.589 -74.582)" fill="#ff7e00"/>
      <path id="Path_5900" data-name="Path 5900" d="M152.688,323.2H54.944a1.879,1.879,0,0,1-1.879-1.879V308.288a1.878,1.878,0,0,1,1.879-1.878h97.745a1.878,1.878,0,0,1,1.878,1.878V321.32a1.879,1.879,0,0,1-1.878,1.879" transform="translate(774.119 -49.483)" fill="#fff"/>
      <path id="Path_5901" data-name="Path 5901" d="M64.24,321.206h0a5.051,5.051,0,1,1,5.051-5.051,5.052,5.052,0,0,1-5.051,5.051" transform="translate(772.357 -50.833)" fill="#ff7e00"/>
      <line id="Line_28" data-name="Line 28" x2="9.442" transform="translate(913.938 268.467)" fill="none" stroke="#8ec2fe" stroke-linecap="round" stroke-linejoin="round" stroke-width="2"/>
      <line id="Line_29" data-name="Line 29" x2="9.442" transform="translate(913.938 262.176)" fill="none" stroke="#8ec2fe" stroke-linecap="round" stroke-linejoin="round" stroke-width="2"/>
      <line id="Line_30" data-name="Line 30" x2="9.442" transform="translate(913.938 265.322)" fill="none" stroke="#8ec2fe" stroke-linecap="round" stroke-linejoin="round" stroke-width="2"/>
      <path id="Path_5902" data-name="Path 5902" d="M248.518,505.993h-59.2a5.984,5.984,0,0,1-5.984-5.985V373.223a5.984,5.984,0,0,1,5.984-5.985h59.2a5.985,5.985,0,0,1,5.985,5.985V500.008a5.985,5.985,0,0,1-5.985,5.985" transform="translate(736.576 -67.075)" fill="#f9f9f9" stroke="#2d4383" stroke-width="1"/>
      <path id="Path_5903" data-name="Path 5903" d="M249.017,500.795h-56.58a2.77,2.77,0,0,1-2.77-2.77V380.2a2.77,2.77,0,0,1,2.77-2.77h56.58a2.77,2.77,0,0,1,2.77,2.77V498.024a2.77,2.77,0,0,1-2.77,2.77" transform="translate(734.753 -70.005)" fill="#2d4383"/>
      <path id="Path_5904" data-name="Path 5904" d="M236.09,372.764h-10.45a.726.726,0,0,1,0-1.451h10.45a.726.726,0,1,1,0,1.451" transform="translate(724.608 -68.17)" fill="#fff"/>
      <path id="Path_5905" data-name="Path 5905" d="M248.789,528.909H196.221v-52.37a1.373,1.373,0,0,1,1.373-1.373h49.822a1.373,1.373,0,0,1,1.373,1.373Z" transform="translate(732.866 -98.119)" fill="#fff"/>
      <path id="Path_5906" data-name="Path 5906" d="M246.06,530.965H202.168a1.11,1.11,0,0,1-1.106-1.106v-.516a1.11,1.11,0,0,1,1.106-1.106H246.06a1.11,1.11,0,0,1,1.106,1.106v.516a1.11,1.11,0,0,1-1.106,1.106" transform="translate(731.473 -113.384)" fill="#dfe6f4"/>
      <path id="Path_5907" data-name="Path 5907" d="M246.06,538.493H202.168a1.11,1.11,0,0,1-1.106-1.106v-.516a1.11,1.11,0,0,1,1.106-1.106H246.06a1.11,1.11,0,0,1,1.106,1.106v.516a1.11,1.11,0,0,1-1.106,1.106" transform="translate(731.473 -115.55)" fill="#dfe6f4"/>
      <path id="Path_5908" data-name="Path 5908" d="M221.011,546.02H202.168a1.11,1.11,0,0,1-1.106-1.106V544.4a1.11,1.11,0,0,1,1.106-1.106h18.843a1.11,1.11,0,0,1,1.106,1.106v.516a1.11,1.11,0,0,1-1.106,1.106" transform="translate(731.476 -117.715)" fill="#dfe6f4"/>
      <path id="Path_5909" data-name="Path 5909" d="M243.4,510H204.819a3.768,3.768,0,0,1-3.757-3.757V486a3.768,3.768,0,0,1,3.757-3.758H243.4A3.768,3.768,0,0,1,247.161,486v20.25A3.768,3.768,0,0,1,243.4,510" transform="translate(731.473 -100.154)" fill="#8ec2fe"/>
      <path id="Path_5910" data-name="Path 5910" d="M247.69,397.026H197.915a1.413,1.413,0,0,1-1.413-1.413V385.289a1.413,1.413,0,0,1,1.413-1.413H247.69a1.413,1.413,0,0,1,1.413,1.413v10.324a1.413,1.413,0,0,1-1.413,1.413" transform="translate(732.785 -71.792)" fill="#fff"/>
      <path id="Path_5911" data-name="Path 5911" d="M204.677,395.626h0A4.227,4.227,0,1,1,208.9,391.4a4.227,4.227,0,0,1-4.227,4.227" transform="translate(731.653 -72.74)" fill="#ff7e00"/>
      <line id="Line_31" data-name="Line 31" x2="8.028" transform="translate(970.728 321.174)" fill="none" stroke="#8ec2fe" stroke-linecap="round" stroke-linejoin="round" stroke-width="2"/>
      <line id="Line_32" data-name="Line 32" x2="8.028" transform="translate(970.728 315.825)" fill="none" stroke="#8ec2fe" stroke-linecap="round" stroke-linejoin="round" stroke-width="2"/>
      <line id="Line_33" data-name="Line 33" x2="8.028" transform="translate(970.728 318.499)" fill="none" stroke="#8ec2fe" stroke-linecap="round" stroke-linejoin="round" stroke-width="2"/>
      <path id="Path_5912" data-name="Path 5912" d="M246.945,451.164H198.052a1.854,1.854,0,0,1-1.854-1.854V410.749a1.854,1.854,0,0,1,1.854-1.854h48.894a1.854,1.854,0,0,1,1.854,1.854v38.562a1.854,1.854,0,0,1-1.854,1.854" transform="translate(732.873 -79.009)" fill="#fff"/>
      <path id="Path_5913" data-name="Path 5913" d="M244.12,421.977H205.442a.566.566,0,0,1,0-1.133H244.12a.566.566,0,0,1,0,1.133" transform="translate(730.375 -82.435)" fill="#dfe6f4"/>
      <path id="Path_5914" data-name="Path 5914" d="M238.452,425.858h-33.01a.566.566,0,0,1,0-1.133h33.01a.566.566,0,0,1,0,1.133" transform="translate(730.376 -83.552)" fill="#dfe6f4"/>
      <path id="Path_5915" data-name="Path 5915" d="M239.728,415.952H215.075a1.088,1.088,0,1,1,0-2.176h24.653a1.088,1.088,0,1,1,0,2.176" transform="translate(727.753 -80.399)" fill="#8ec2fe"/>
      <path id="Path_5916" data-name="Path 5916" d="M234.788,434.27h-9.064a1.813,1.813,0,0,1,0-3.625h9.064a1.813,1.813,0,1,1,0,3.625" transform="translate(724.896 -85.258)" fill="#ff7e00"/>
      <path id="Path_5917" data-name="Path 5917" d="M243.4,456.75H204.219a3.468,3.468,0,0,1-3.457-3.458v-9.43a3.468,3.468,0,0,1,3.457-3.458H243.4a3.468,3.468,0,0,1,3.458,3.458v9.43a3.468,3.468,0,0,1-3.458,3.458" transform="translate(731.559 -88.074)" fill="#8ec2fe"/>
      <path id="Path_5918" data-name="Path 5918" d="M764.893,465.916H509.176V302.531a6.575,6.575,0,0,1,6.575-6.575H758.318a6.575,6.575,0,0,1,6.575,6.575Z" transform="translate(642.592 -46.572)" fill="#f9f9f9" stroke="#2d4383" stroke-width="1"/>
      <path id="Path_5919" data-name="Path 5919" d="M756.251,462.29H526.344A2.348,2.348,0,0,1,524,459.942V312.368a2.347,2.347,0,0,1,2.348-2.348H756.251a2.347,2.347,0,0,1,2.348,2.348V459.942a2.348,2.348,0,0,1-2.348,2.348" transform="translate(638.329 -50.617)" fill="#2d4383"/>
      <path id="Path_5920" data-name="Path 5920" d="M753.032,333.414H532.595a1.764,1.764,0,0,1-1.764-1.764V318.559a1.763,1.763,0,0,1,1.764-1.764H753.032a1.764,1.764,0,0,1,1.764,1.764v13.092a1.764,1.764,0,0,1-1.764,1.764" transform="translate(636.363 -52.474)" fill="#fff"/>
      <path id="Path_5921" data-name="Path 5921" d="M661.411,330.255H636.985a1.848,1.848,0,0,1,0-3.7h24.426a1.848,1.848,0,1,1,0,3.7" transform="translate(606.459 -55.282)" fill="#88c1ee"/>
      <path id="Path_5922" data-name="Path 5922" d="M716.057,330.359H691.631a1.848,1.848,0,1,1,0-3.7h24.426a1.848,1.848,0,0,1,0,3.7" transform="translate(590.721 -55.312)" fill="#dfe6f4"/>
      <path id="Path_5923" data-name="Path 5923" d="M606.765,330.359H582.339a1.848,1.848,0,0,1,0-3.7h24.426a1.848,1.848,0,0,1,0,3.7" transform="translate(622.197 -55.312)" fill="#dfe6f4"/>
      <path id="Path_5924" data-name="Path 5924" d="M770.7,330.359H746.277a1.848,1.848,0,0,1,0-3.7H770.7a1.848,1.848,0,0,1,0,3.7" transform="translate(574.983 -55.312)" fill="#dfe6f4"/>
      <path id="Path_5925" data-name="Path 5925" d="M825.349,329.86H800.923a1.848,1.848,0,0,1,0-3.7h24.426a1.848,1.848,0,1,1,0,3.7" transform="translate(559.206 -55.168)" fill="#dfe6f4"/>
      <path id="Path_5926" data-name="Path 5926" d="M542.457,331.492h0a5.085,5.085,0,1,1,5.085-5.086,5.085,5.085,0,0,1-5.085,5.086" transform="translate(634.621 -53.776)" fill="#ff7e00"/>
      <path id="Path_5927" data-name="Path 5927" d="M599.166,490.5H532.642a2.218,2.218,0,0,1-2.218-2.218V426.9a2.218,2.218,0,0,1,2.218-2.218h66.525a2.218,2.218,0,0,1,2.218,2.218v61.379a2.218,2.218,0,0,1-2.218,2.218" transform="translate(636.603 -83.6)" fill="#fff"/>
      <path id="Path_5928" data-name="Path 5928" d="M597.807,489.571H538.344a1.391,1.391,0,0,1-1.386-1.386v-.4a1.39,1.39,0,0,1,1.386-1.386h59.462a1.39,1.39,0,0,1,1.386,1.386v.4a1.391,1.391,0,0,1-1.386,1.386" transform="translate(634.724 -101.35)" fill="#dfe6f4"/>
      <path id="Path_5929" data-name="Path 5929" d="M597.807,498.324H538.344a1.391,1.391,0,0,1-1.386-1.386v-.4a1.39,1.39,0,0,1,1.386-1.386h59.462a1.39,1.39,0,0,1,1.386,1.386v.4a1.391,1.391,0,0,1-1.386,1.386" transform="translate(634.724 -103.868)" fill="#dfe6f4"/>
      <path id="Path_5930" data-name="Path 5930" d="M563.994,507.076h-25.65a1.391,1.391,0,0,1-1.386-1.386v-.4a1.39,1.39,0,0,1,1.386-1.386h25.65a1.39,1.39,0,0,1,1.386,1.386v.4a1.39,1.39,0,0,1-1.386,1.386" transform="translate(634.735 -106.385)" fill="#dfe6f4"/>
      <path id="Path_5931" data-name="Path 5931" d="M596.969,465.2H539.176a2.224,2.224,0,0,1-2.218-2.218V435.129a2.224,2.224,0,0,1,2.218-2.218h57.793a2.224,2.224,0,0,1,2.218,2.218v27.849a2.224,2.224,0,0,1-2.218,2.218" transform="translate(634.724 -85.922)" fill="#8ec2fe"/>
      <path id="Path_5932" data-name="Path 5932" d="M705.815,490.5H639.931a2.538,2.538,0,0,1-2.538-2.538V427.225a2.539,2.539,0,0,1,2.538-2.538h65.884a2.538,2.538,0,0,1,2.538,2.538v60.738a2.538,2.538,0,0,1-2.538,2.538" transform="translate(605.792 -83.6)" fill="#fff"/>
      <path id="Path_5933" data-name="Path 5933" d="M704.777,489.571H645.314a1.39,1.39,0,0,1-1.386-1.386v-.4a1.39,1.39,0,0,1,1.386-1.386h59.462a1.39,1.39,0,0,1,1.386,1.386v.4a1.391,1.391,0,0,1-1.386,1.386" transform="translate(603.914 -101.35)" fill="#dfe6f4"/>
      <path id="Path_5934" data-name="Path 5934" d="M704.777,498.324H645.314a1.39,1.39,0,0,1-1.386-1.386v-.4a1.39,1.39,0,0,1,1.386-1.386h59.462a1.39,1.39,0,0,1,1.386,1.386v.4a1.391,1.391,0,0,1-1.386,1.386" transform="translate(603.914 -103.868)" fill="#dfe6f4"/>
      <path id="Path_5935" data-name="Path 5935" d="M670.963,507.076h-25.65a1.39,1.39,0,0,1-1.386-1.386v-.4a1.39,1.39,0,0,1,1.386-1.386h25.65a1.39,1.39,0,0,1,1.386,1.386v.4a1.391,1.391,0,0,1-1.386,1.386" transform="translate(603.927 -106.385)" fill="#dfe6f4"/>
      <path id="Path_5936" data-name="Path 5936" d="M703.938,465.2H646.145a2.224,2.224,0,0,1-2.218-2.218V435.129a2.224,2.224,0,0,1,2.218-2.218h57.793a2.224,2.224,0,0,1,2.218,2.218v27.849a2.224,2.224,0,0,1-2.218,2.218" transform="translate(603.914 -85.922)" fill="#ff7e00"/>
      <path id="Path_5937" data-name="Path 5937" d="M813.648,490.5H747.764a2.538,2.538,0,0,1-2.538-2.538V427.225a2.539,2.539,0,0,1,2.538-2.538h65.884a2.538,2.538,0,0,1,2.538,2.538v60.738a2.538,2.538,0,0,1-2.538,2.538" transform="translate(574.695 -83.6)" fill="#fff"/>
      <path id="Path_5938" data-name="Path 5938" d="M812.609,489.571H753.146a1.39,1.39,0,0,1-1.386-1.386v-.4a1.39,1.39,0,0,1,1.386-1.386h59.462a1.39,1.39,0,0,1,1.386,1.386v.4a1.391,1.391,0,0,1-1.386,1.386" transform="translate(572.816 -101.35)" fill="#dfe6f4"/>
      <path id="Path_5939" data-name="Path 5939" d="M812.609,498.324H753.146a1.39,1.39,0,0,1-1.386-1.386v-.4a1.39,1.39,0,0,1,1.386-1.386h59.462a1.39,1.39,0,0,1,1.386,1.386v.4a1.391,1.391,0,0,1-1.386,1.386" transform="translate(572.816 -103.868)" fill="#dfe6f4"/>
      <path id="Path_5940" data-name="Path 5940" d="M778.8,507.076h-25.65a1.391,1.391,0,0,1-1.386-1.386v-.4a1.39,1.39,0,0,1,1.386-1.386H778.8a1.39,1.39,0,0,1,1.386,1.386v.4a1.391,1.391,0,0,1-1.386,1.386" transform="translate(572.871 -106.385)" fill="#dfe6f4"/>
      <path id="Path_5941" data-name="Path 5941" d="M811.771,465.2H753.978a2.224,2.224,0,0,1-2.218-2.218V435.129a2.224,2.224,0,0,1,2.218-2.218h57.793a2.224,2.224,0,0,1,2.218,2.218v27.849a2.224,2.224,0,0,1-2.218,2.218" transform="translate(572.816 -85.922)" fill="#8ec2fe"/>
      <path id="Path_5942" data-name="Path 5942" d="M752.41,396.84H532.938a2.108,2.108,0,0,1-2.108-2.108V349.274a2.108,2.108,0,0,1,2.108-2.108H752.41a2.108,2.108,0,0,1,2.108,2.108v45.458a2.108,2.108,0,0,1-2.108,2.108" transform="translate(636.363 -61.232)" fill="#fff"/>
      <path id="Path_5943" data-name="Path 5943" d="M796.049,379.19H713.511a1.208,1.208,0,0,1,0-2.416h82.538a1.208,1.208,0,0,1,0,2.416" transform="translate(584.165 -69.743)" fill="#dfe6f4"/>
      <path id="Path_5944" data-name="Path 5944" d="M783.953,387.471H713.511a1.208,1.208,0,0,1,0-2.416h70.442a1.208,1.208,0,0,1,0,2.416" transform="translate(584.165 -72.128)" fill="#dfe6f4"/>
      <path id="Path_5945" data-name="Path 5945" d="M786.678,366.334H734.069a2.321,2.321,0,1,1,0-4.642h52.609a2.321,2.321,0,0,1,0,4.642" transform="translate(578.572 -65.4)" fill="#8ec2fe"/>
      <path id="Path_5946" data-name="Path 5946" d="M776.135,405.423H756.793a3.868,3.868,0,0,1,0-7.737h19.342a3.868,3.868,0,0,1,0,7.737" transform="translate(572.481 -75.768)" fill="#ff7e00"/>
      <path id="Path_5947" data-name="Path 5947" d="M642.2,393.942H540.883a3.181,3.181,0,0,1-3.171-3.171V358.941a3.18,3.18,0,0,1,3.171-3.171H642.2a3.18,3.18,0,0,1,3.172,3.171v31.829a3.181,3.181,0,0,1-3.172,3.171" transform="translate(634.49 -63.706)" fill="#8ec2fe"/>
      <path id="Path_5948" data-name="Path 5948" d="M767.381,542.672H493.14a7.514,7.514,0,0,1-7.514-7.515v-1.123a.939.939,0,0,1,.939-.94H773.956a.94.94,0,0,1,.94.94v1.123a7.515,7.515,0,0,1-7.515,7.515" transform="translate(649.366 -114.782)" fill="#18679c"/>
      <g id="Group_2654" data-name="Group 2654" transform="translate(1254.906 418.312)" opacity="0.3">
        <g id="Group_2653" data-name="Group 2653">
          <g id="Group_2652" data-name="Group 2652" clip-path="url(#clip-path-6)">
            <path id="Path_5949" data-name="Path 5949" d="M653.843,534.262a3.631,3.631,0,0,0,3.621,3.621h42.364a3.631,3.631,0,0,0,3.621-3.621,3.586,3.586,0,0,0-.2-1.168h-49.21a3.588,3.588,0,0,0-.2,1.168" transform="translate(-653.843 -533.094)" fill="#e8eeff"/>
          </g>
        </g>
      </g>
      <path id="Path_5950" data-name="Path 5950" d="M689.5,302.452a1.409,1.409,0,1,1-1.409-1.409,1.41,1.41,0,0,1,1.409,1.409" transform="translate(591.623 -47.933)" fill="#fff"/>
      <g id="Group_2657" data-name="Group 2657" transform="translate(1052.789 448.637)" opacity="0.2">
        <g id="Group_2656" data-name="Group 2656">
          <g id="Group_2655" data-name="Group 2655" clip-path="url(#clip-path-7)">
            <path id="Path_5951" data-name="Path 5951" d="M443.752,581.33c0,3.13-16.516,5.668-36.89,5.668s-36.89-2.537-36.89-5.668,16.516-5.668,36.89-5.668,36.89,2.537,36.89,5.668" transform="translate(-369.972 -575.663)" fill="#1a1552"/>
          </g>
        </g>
      </g>
      <path id="Path_5952" data-name="Path 5952" d="M428.84,385.492s3.01,5.82-.8,9.131-6.131-5.318-6.131-5.318l4.03-6.4Z" transform="translate(667.875 -71.512)" fill="#1a1552"/>
      <path id="Path_5953" data-name="Path 5953" d="M437.627,369.127s-3.1,12.291-6.809,12.491-10.757-6.472-10.757-6.472l8.389-11.288Z" transform="translate(668.404 -66.028)" fill="#f4bd9c"/>
      <path id="Path_5954" data-name="Path 5954" d="M418.159,416.679s-1.567,10.522.359,12.637,21.359-3.739,21.359-3.739l-.934-3.491s-15.4,2.993-16,2.415,2.993-9.987,2.993-9.987Z" transform="translate(669.124 -80.616)" fill="#f4bd9c"/>
      <path id="Path_5955" data-name="Path 5955" d="M420,379.775s-5.5,8.113-6.823,8.63c-.174.068,1.057,3.823,4.9,4.615,5.346,1.1,5.963-2.285,5.963-2.285s-1.284-1.3-1.326-1.429c-.527-1.617,1.906-6.521,1.906-6.521Z" transform="translate(670.392 -70.611)" fill="#f4bd9c"/>
      <path id="Path_5956" data-name="Path 5956" d="M410.264,391.66s3.532,4.427,6.884,4.427c1.844,0,2.159-3.362,2.159-3.362a42.808,42.808,0,0,1,2.844,3.212c3.108,3.759,6.086,9.031,1.72,12-1.319.9.051,18.1.051,18.1H404.505s-4.385-15.639-2.871-22.237c2.453-10.693,5.92-12.142,8.63-12.142" transform="translate(673.801 -74.042)" fill="#ca525c"/>
      <path id="Path_5957" data-name="Path 5957" d="M401.164,415.781s.033,10.73,2.445,12.268,19.8-8.347,19.8-8.347l-1.372-3.116s-14.318,6.049-15.046,5.648,1.111-10.576,1.111-10.576Z" transform="translate(673.846 -79.795)" fill="#f4bd9c"/>
      <path id="Path_5958" data-name="Path 5958" d="M406.911,392.768c2.47,1.416,1.858,7.223.554,16.856a.423.423,0,0,1-.358.362L400.4,411.1a.274.274,0,0,1-.314-.268c-.016-1.948-.41-12.627,1.722-15.531.923-1.257,3.754-3.31,5.106-2.535" transform="translate(674.171 -74.306)" fill="#fa7e8d"/>
      <path id="Path_5959" data-name="Path 5959" d="M428.89,360.705c-2.258.3-1.806-5.017-8.88-5.017-4.912,0-7.734,1.616-9.733,7.626-.934,2.81-5.121,3.84-8.479,7.077-1.646,1.586-.6,5.078-2.258,5.968-9.231,4.954-6.772,14.135-1.906,15.151,1.355.283,5.508-1.27,8-3.959,1.554-1.679,1.108-4.752,3.09-5.172,2.656-.562,3.584-5.117,5.272-6.522,4.014-3.344,4.549-4.8,4.913-5.466,0,0,.944-1.9,1.282-1.894a29.551,29.551,0,0,0,9.3-1.47s-.113,2.9,1.581,2.785,1.919-3.688,1.844-5.268-1.731-4.14-4.026-3.838" transform="translate(676.107 -63.682)" fill="#1a1552"/>
      <path id="Path_5960" data-name="Path 5960" d="M430.461,421.261c-2.172,1.078-3.355-2.284-.97-3.638,1.153-.655,3.274-3.956,8.307-1.59.333.156.27,1.784.263,2.476a.322.322,0,0,1-.347.318s-4.9-.9-4.3-.014c.055.081,3.574.858.444,1.259-3.173.407-2.6.789-3.4,1.19" transform="translate(666.069 -80.808)" fill="#f4bd9c"/>
      <path id="Path_5961" data-name="Path 5961" d="M448,423.777H435.188a.262.262,0,0,1-.186-.446L451.126,407.6a.263.263,0,0,1,.187-.078h12.813a.262.262,0,0,1,.186.446L448.187,423.7a.261.261,0,0,1-.186.078" transform="translate(664.121 -78.604)" fill="#1a1552"/>
      <path id="Path_5962" data-name="Path 5962" d="M457.415,425.147c.271-.518-.386-1.733-.386-1.733-.033-.1-.194-.079-.354.044a11.672,11.672,0,0,0-2.052,1.772c-.214,1.029-.015,2.255.233,2.191a8.018,8.018,0,0,0,2.559-2.275" transform="translate(658.48 -83.158)" fill="#f4bd9c"/>
      <path id="Path_5963" data-name="Path 5963" d="M423.529,575.951l.023,4.412a.9.9,0,0,0,.807.977h14.389V580.8a.96.96,0,0,0-.7-.925c-1.736-.49-6.268-1.909-8.511-3.934-3.678-3.321-6.01.012-6.01.012" transform="translate(667.406 -126.682)" fill="#1a1552"/>
      <path id="Path_5964" data-name="Path 5964" d="M378.489,566.314l-2.08,3.771a.9.9,0,0,0,.234,1.246l12.6,6.951.262-.474a.959.959,0,0,0-.164-1.148c-1.284-1.267-4.517-4.536-5.5-7.394-1.616-4.685-5.348-2.951-5.348-2.951" transform="translate(681.018 -124.247)" fill="#1a1552"/>
      <path id="Path_5965" data-name="Path 5965" d="M426.859,439.92h-9.332a17.056,17.056,0,0,0-5.719,14.7c.677,7.583,8.327,82.631,8.327,82.631l6-.025Z" transform="translate(670.804 -87.981)" fill="#729ecf"/>
      <path id="Path_5966" data-name="Path 5966" d="M414.109,439.92c0,41.491-29.374,93.079-29.374,93.079l-5.348-2.839s20.517-57.478,15.445-73.884c-2.687-8.691,3.475-16.356,3.475-16.356" transform="translate(680.115 -87.981)" fill="#88c1ee"/>
      <path id="Path_5967" data-name="Path 5967" d="M430.107,374.032a.493.493,0,0,0-.048-.488c-.353-.5-1.261-1.5-2.336-.589-1.18,1-.446,2.94.553,3.706a.5.5,0,0,0,.747-.2Z" transform="translate(666.376 -68.538)" fill="#f4bd9c"/>
      <path id="Path_5968" data-name="Path 5968" d="M772.669,195.551s-2.159,5.206-4,5.206,3.49,4.628,6.819,4.628,6.958-3.86,7.265-4.628-4.756-.75-4.807-4.284-5.275-.922-5.275-.922" transform="translate(568.062 -17.286)" fill="#f4ae84"/>
      <path id="Path_5969" data-name="Path 5969" d="M767.6,177.344s1.483,14.647,7.527,14.955,10.3-17.184,10.3-17.506-12.293-3.6-12.293-3.6Z" transform="translate(568.26 -10.54)" fill="#f4bd9c"/>
      <path id="Path_5970" data-name="Path 5970" d="M791.16,173.753a22.283,22.283,0,0,1-1.475,7.446s4.138-1.095,3.011-10.007Z" transform="translate(561.907 -10.538)" fill="#0e0f41"/>
      <path id="Path_5971" data-name="Path 5971" d="M767.093,169.776l6.494,3.57a12.058,12.058,0,0,1-6.863,3.591l.369,3.212s-2.726-2.81-2.52-5.063,2.52-5.31,2.52-5.31" transform="translate(569.133 -10.131)" fill="#0e0f41"/>
      <rect id="Rectangle_2571" data-name="Rectangle 2571" width="41.78" height="6.249" transform="translate(1317.669 231.096)" fill="#63282e"/>
      <path id="Path_5972" data-name="Path 5972" d="M768.46,183.247a.6.6,0,0,0-.42-.431c-.718-.2-2.36-.471-2.69,1.227-.363,1.865,1.827,3.159,3.372,3.126a.607.607,0,0,0,.563-.765Z" transform="translate(568.918 -13.842)" fill="#f4bd9c"/>
      <path id="Path_5973" data-name="Path 5973" d="M766.281,169.319a20.578,20.578,0,0,0,13.372,3.688,11.045,11.045,0,0,0,9.629-7.376s-7.515-1.251-11.613-4.814c-3.651-3.176-13.177,4.3-11.388,8.5" transform="translate(568.703 -7.331)" fill="#1a1552"/>
      <path id="Path_5974" data-name="Path 5974" d="M787.726,183.247a.6.6,0,0,1,.419-.431c.717-.2,2.36-.471,2.69,1.227.362,1.865-1.827,3.159-3.372,3.126a.607.607,0,0,1-.563-.765Z" transform="translate(562.714 -13.842)" fill="#f4bd9c"/>
      <path id="Path_5975" data-name="Path 5975" d="M764.44,203.068s-8.037-.983-10.073,1.1c-3.194,3.275-1.061,11.47-2.233,22.7-2.006,19.206,2.218,24.149,2.484,24.545.8,1.193,30.51.848,31.018.588,1.025-.522,3.843-13.224,1.937-25.515-1.122-7.237,2.415-18.047-1.49-21.473-2.239-1.965-8.829-2.95-9.984-1.95-2.97,2.572-5.718,5.167-11.658,0" transform="translate(572.864 -19.613)" fill="#88c1ee"/>
      <path id="Path_5976" data-name="Path 5976" d="M753.642,225.751l-8.672-6.557s-4.909,25.211-4.006,28.3c1.636,5.595,13.883,7.911,13.883,7.911l1.714-3.986c-.826.828-6.727-4.94-7.151-6.1-.526-1.443,4.232-19.56,4.232-19.56" transform="translate(576.017 -24.369)" fill="#f4bd9c"/>
      <path id="Path_5977" data-name="Path 5977" d="M744.618,219.692s2.511-13.488,7.927-15.135c7.511-2.284,3.278,17.226,3.278,17.226s-7.695-.082-11.2-2.091" transform="translate(574.935 -20.095)" fill="#88c1ee"/>
      <path id="Path_5978" data-name="Path 5978" d="M794.047,226.613l8.672-6.558s4.909,25.211,4.006,28.3c-1.636,5.595-14.5,6.682-14.5,6.682l-1.714-3.985c.827.828,7.342-3.711,7.766-4.875.526-1.444-4.232-19.56-4.232-19.56" transform="translate(561.669 -24.616)" fill="#f4bd9c"/>
      <path id="Path_5979" data-name="Path 5979" d="M804.992,220.611s-2.421-14.145-7.927-15.135c-6.108-1.1-2.686,17.02-2.686,17.02s7.1.123,10.614-1.886" transform="translate(560.832 -20.4)" fill="#88c1ee"/>
      <path id="Path_5980" data-name="Path 5980" d="M804.378,286.491s14.325.13,14.841,1.424.9,4.773-.192,4.918-14.108,1.8-16.5.89,1.852-7.231,1.852-7.231" transform="translate(558.424 -43.744)" fill="#1a1552"/>
      <path id="Path_5981" data-name="Path 5981" d="M723.976,268.593c.64-2.057,2.9-5.706,7.2-4.7s50.092,14.428,50.912,16.273.307,7.478-2.049,7.273-53.537-10.107-55.483-12.771a6.479,6.479,0,0,1-.58-6.078" transform="translate(580.951 -37.191)" fill="#983e45"/>
      <path id="Path_5982" data-name="Path 5982" d="M744.569,286.491s-14.215.519-14.693,1.827-.758,4.8.339,4.91,14.155,1.381,16.521.394-2.168-7.131-2.168-7.131" transform="translate(579.299 -43.744)" fill="#1a1552"/>
      <path id="Path_5983" data-name="Path 5983" d="M808.305,268.593c-.641-2.057-2.9-5.706-7.2-4.7s-50.092,14.428-50.912,16.273-.307,7.478,2.049,7.273,53.537-10.107,55.483-12.771a6.48,6.48,0,0,0,.581-6.078" transform="translate(573.371 -37.191)" fill="#ca525c"/>
      <path id="Path_5984" data-name="Path 5984" d="M785.908,261.7h-32.7a1.229,1.229,0,0,1-1.23-1.23V235.318a1.229,1.229,0,0,1,1.23-1.229h32.7a1.229,1.229,0,0,1,1.23,1.229v25.155a1.229,1.229,0,0,1-1.23,1.23" transform="translate(572.753 -28.657)" fill="#1a1552"/>
      <path id="Path_5985" data-name="Path 5985" d="M91.244,192.249s-1.742,12.417-5.372,13.008-11.267-5.225-11.267-5.225l7.054-11.993Z" transform="translate(767.922 -15.392)" fill="#f4bd9c"/>
      <path id="Path_5986" data-name="Path 5986" d="M65.151,206.724s-4.254-1.292-5.964,1.365-2.626,8.048-5.809,9.09-5.054,6.835-3.543,10.666,2.076,5.363,1.505,7.473,6.07,4.964,9.666.407,10.007-18.985,7.988-24.145-3.843-4.857-3.843-4.857" transform="translate(775.201 -20.686)" fill="#1a1552"/>
      <rect id="Rectangle_2572" data-name="Rectangle 2572" width="3.258" height="24.217" transform="matrix(0.983, -0.183, 0.183, 0.983, 852.239, 205.691)" fill="#f4ae84"/>
      <path id="Path_5987" data-name="Path 5987" d="M74.358,207.365h0a1.141,1.141,0,0,0-.456-1.549l-1.482-.807a1.142,1.142,0,1,0-1.093,2l1.482.807a1.141,1.141,0,0,0,1.549-.456" transform="translate(769.037 -20.236)" fill="#ca525c"/>
      <path id="Path_5988" data-name="Path 5988" d="M75.133,204.657s-4.038,7.635-5.283,8.283c-.163.085.931,4.576,4.792,4.949,5.375.519,5.623-2.879,5.623-2.879s-1.241-1.3-1.3-1.419c-.69-1.534,1.023-6.463,1.023-6.463Z" transform="translate(769.295 -20.177)" fill="#f4bd9c"/>
      <path id="Path_5989" data-name="Path 5989" d="M132.7,347.084l-.163,4.257a.9.9,0,0,0,.761,1l14.224.546.02-.536a.949.949,0,0,0-.655-.942c-1.7-.55-6.007-2-8.148-4.091-3.509-3.423-6.039-.232-6.039-.232" transform="translate(751.258 -60.805)" fill="#1a1552"/>
      <path id="Path_5990" data-name="Path 5990" d="M61.1,229.7C60,221.288,63.677,217.79,67.28,216.286c0,0,3.882,4.558,7.178,4.2,1.814-.2,1.94-3.553,1.94-3.553s.8.766,2.963,2.874c3.456,3.368,6.943,8.237,2.965,11.624-1.2,1.023,1.969,17.8,1.969,17.8L65.2,251.29S62.06,237.13,61.1,229.7" transform="translate(771.865 -23.531)" fill="#88c1ee"/>
      <path id="Path_5991" data-name="Path 5991" d="M87.808,262.533s20.97,6.428,28.782,10.067a5.183,5.183,0,0,1,3.03,3.894c1.244,9.024,2.028,46.89,2.028,46.89l-6.039-.232-4.256-35.365L73.11,264.118Z" transform="translate(768.353 -36.858)" fill="#983e45"/>
      <path id="Path_5992" data-name="Path 5992" d="M67.446,237.637s3.606,11.522,6.014,13.008S92.925,242.1,92.925,242.1l-1.3-2.831s-14.181,5.959-14.908,5.574-3.52-11.386-3.52-11.386Z" transform="translate(769.982 -28.473)" fill="#f4bd9c"/>
      <path id="Path_5993" data-name="Path 5993" d="M65.966,219.874c2.807.227,3.951,2.057,6.841,11.229a.417.417,0,0,1-.168.474l-5.86,3.2a.271.271,0,0,1-.394-.108c-.835-1.737-3.612-7.6-2.926-11.1.3-1.513.971-3.82,2.508-3.7" transform="translate(771.16 -24.558)" fill="#a9dbfe"/>
      <path id="Path_5994" data-name="Path 5994" d="M104.483,238.614l4.033,0a.608.608,0,0,0,.52-.292l3.8-6.25a.608.608,0,0,0-.519-.924l-4.033-.005a.61.61,0,0,0-.521.292l-3.8,6.25a.608.608,0,0,0,.519.924" transform="translate(759.503 -27.805)" fill="#1a1552"/>
      <path id="Path_5995" data-name="Path 5995" d="M87.99,182.892c-2.19.531-2.359-3.564-9.316-2.814-4.832.521-6.373,2.741-8.765,8.533-3.3,8,2.495,11.507,4.55,10.8,5.016-1.723,4.689-4.756,4.689-4.756s1.571-3.188,1.894-3.1c3.822,1.013,8.161-1.329,8.161-1.329s.2,2.862,1.85,2.571,1.5-3.83,1.255-5.377-2.092-5.066-4.318-4.527" transform="translate(769.56 -13.073)" fill="#1a1552"/>
      <path id="Path_5996" data-name="Path 5996" d="M95.018,341.828,92.5,345.391a.9.9,0,0,0,.065,1.252L104,355.127l.32-.431a.95.95,0,0,0-.009-1.147c-1.091-1.413-3.827-5.046-4.415-7.978-.963-4.807-4.878-3.743-4.878-3.743" transform="translate(762.838 -59.653)" fill="#1a1552"/>
      <path id="Path_5997" data-name="Path 5997" d="M85.114,196.777a.489.489,0,0,0-.1-.475c-.4-.449-1.4-1.343-2.36-.331-1.055,1.111-.128,2.939.937,3.586a.489.489,0,0,0,.715-.276Z" transform="translate(765.741 -17.54)" fill="#f4bd9c"/>
      <path id="Path_5998" data-name="Path 5998" d="M66.861,264.8a.471.471,0,0,0-.405.35c-.582,2.209-3.607,15.307,6.293,15.976a168.661,168.661,0,0,1,26.052,4.1.468.468,0,0,1,.33.613L87.45,318.96a.472.472,0,0,0,.167.538L91.8,322.55a.472.472,0,0,0,.691-.153l18.877-34.32a.442.442,0,0,0,.031-.068c.192-.543,2.428-7.3-4.187-10.9-6.584-3.582-25.259-12.86-26.923-13.687a.451.451,0,0,0-.255-.044Z" transform="translate(770.523 -37.101)" fill="#ca525c"/>
      <path id="Path_5999" data-name="Path 5999" d="M101.144,241.005a2.775,2.775,0,0,1,2.372-1.517c1.611.039,5.13-.028,5.455.973s-3.189,3.59-6.532,3.375-1.3-2.831-1.3-2.831" transform="translate(760.468 -30.206)" fill="#f4bd9c"/>
      <path id="Path_6012" data-name="Path 6012" d="M374.778,30.628a2.429,2.429,0,0,1-2.314-1.633l-.44-1.237a1.108,1.108,0,0,0-1.522-.63l-1.185.563a2.456,2.456,0,0,1-3.273-3.273l.563-1.185a1.109,1.109,0,0,0-.63-1.522l-1.237-.44a2.456,2.456,0,0,1,0-4.628l1.237-.44a1.111,1.111,0,0,0,.63-1.522l-.563-1.185a2.457,2.457,0,0,1,3.273-3.273l1.185.563a1.108,1.108,0,0,0,1.522-.63l.44-1.236a2.456,2.456,0,0,1,4.628,0l.44,1.236a1.108,1.108,0,0,0,1.521.63l1.185-.563a2.457,2.457,0,0,1,3.273,3.273l-.564,1.185a1.11,1.11,0,0,0,.63,1.522l1.236.44a2.456,2.456,0,0,1,0,4.628l-1.236.44a1.109,1.109,0,0,0-.63,1.522l.564,1.186a2.456,2.456,0,0,1-3.273,3.272l-1.185-.563a1.108,1.108,0,0,0-1.521.63l-.44,1.237a2.429,2.429,0,0,1-2.315,1.633m-3.8-4.595a2.1,2.1,0,0,1,1.976,1.395l.44,1.237a1.468,1.468,0,0,0,2.766,0l.44-1.237a2.1,2.1,0,0,1,2.877-1.192l1.185.563a1.468,1.468,0,0,0,1.956-1.956l-.563-1.186a2.1,2.1,0,0,1,1.192-2.877l1.237-.44a1.468,1.468,0,0,0,0-2.766l-1.237-.44a2.1,2.1,0,0,1-1.192-2.877l.563-1.185a1.468,1.468,0,0,0-1.956-1.956l-1.185.563a2.1,2.1,0,0,1-2.877-1.192l-.44-1.237a1.468,1.468,0,0,0-2.766,0l-.44,1.237a2.1,2.1,0,0,1-2.877,1.192l-1.185-.563a1.468,1.468,0,0,0-1.956,1.956l.563,1.185a2.1,2.1,0,0,1-1.192,2.877l-1.237.44a1.468,1.468,0,0,0,0,2.766l1.237.44a2.1,2.1,0,0,1,1.192,2.877l-.563,1.185a1.468,1.468,0,0,0,1.956,1.957l1.185-.563a2.1,2.1,0,0,1,.9-.2m3.8-1.787a5.288,5.288,0,1,1,5.289-5.288,5.294,5.294,0,0,1-5.289,5.288m0-9.588a4.3,4.3,0,1,0,4.3,4.3,4.305,4.305,0,0,0-4.3-4.3" transform="translate(858.695 64.611)" fill="#8ec2fe"/>
      <rect id="Rectangle_2800" data-name="Rectangle 2800" width="6.915" height="6.915" transform="matrix(0.613, -0.79, 0.79, 0.613, 806.092, 133.104)" fill="#f27634"/>
    </g>
  </g>
</svg>
