<svg xmlns="http://www.w3.org/2000/svg" xmlns:xlink="http://www.w3.org/1999/xlink" width="66.514" height="80" viewBox="0 0 66.514 80">
  <defs>
    <clipPath id="clip-path">
      <rect id="Rectangle_870" data-name="Rectangle 870" width="66.514" height="80" fill="none"/>
    </clipPath>
  </defs>
  <g id="icon-ssl" transform="translate(0 0)">
    <g id="Group_1004" data-name="Group 1004" transform="translate(0 0)" clip-path="url(#clip-path)">
      <path id="Path_1714" data-name="Path 1714" d="M63.54,6.769c-25.992-8.9-36.412-9.136-60.707-.046A4.125,4.125,0,0,0,0,10.5V46.922A22.962,22.962,0,0,0,9.468,65.6l21.4,13.712a4.521,4.521,0,0,0,4.784,0L57.046,65.6a22.962,22.962,0,0,0,9.468-18.68V10.594A4.157,4.157,0,0,0,63.54,6.769m-.049,39.079a21.041,21.041,0,0,1-8.608,17.086L35.431,75.477a4.092,4.092,0,0,1-4.348,0L11.63,62.934A21.041,21.041,0,0,1,3.023,45.847V12.53A3.77,3.77,0,0,1,5.6,9.077c22.087-8.314,31.559-8.1,55.19.043a3.8,3.8,0,0,1,2.7,3.5Z" transform="translate(0 0)" fill="#333"/>
      <path id="Path_1715" data-name="Path 1715" d="M43.534,23.5H42.3V19.631a12.66,12.66,0,0,0-25.32,0V23.5H15.746a4.278,4.278,0,0,0-4.275,4.274V54a4.278,4.278,0,0,0,4.275,4.274H43.534A4.277,4.277,0,0,0,47.807,54V27.77A4.277,4.277,0,0,0,43.534,23.5M20.269,19.631a9.372,9.372,0,1,1,18.744,0V23.5H20.269ZM44.52,54a.987.987,0,0,1-.986.987H15.746A.987.987,0,0,1,14.759,54V27.77a.987.987,0,0,1,.987-.986H43.534a.987.987,0,0,1,.986.986Z" transform="translate(3.617 2.198)" fill="#333"/>
      <path id="Path_1716" data-name="Path 1716" d="M37.307,32.669a9.7,9.7,0,1,1-9.7-9.7,9.7,9.7,0,0,1,9.7,9.7" transform="translate(5.648 7.244)" fill="#f9ba48"/>
      <path id="Path_1717" data-name="Path 1717" d="M25.8,38.9v7.12h2.339V38.9a7.015,7.015,0,1,0-2.339,0M26.966,27.31a4.677,4.677,0,1,1-4.677,4.677,4.682,4.682,0,0,1,4.677-4.677" transform="translate(6.291 7.874)" fill="#333"/>
    </g>
  </g>
</svg>
