<?xml version="1.0" encoding="UTF-8"?><svg xmlns="http://www.w3.org/2000/svg" viewBox="0 0 25 24"><defs><style>.e{stroke:#4e44d3;stroke-miterlimit:10;stroke-width:2px;}.e,.f{fill:none;}.g{fill:#4e44d3;}</style></defs><g id="a"/><g id="b"><g id="c"><rect id="d" class="f" width="25" height="24"/><g><path class="e" d="M15.11,14.33h4c.74,0,1.33,.6,1.33,1.33v4c0,.74-.6,1.33-1.33,1.33h-4c-.74,0-1.33-.6-1.33-1.33v-4c0-.74,.6-1.33,1.33-1.33Z"/><polygon class="g" points="15.56 9.93 17.18 14.42 18.83 13.9 17.2 9.41 15.56 9.93"/><path class="e" d="M4.93,14.33h4c.74,0,1.33,.6,1.33,1.33v4c0,.74-.6,1.33-1.33,1.33H4.93c-.74,0-1.33-.6-1.33-1.33v-4c0-.74,.6-1.33,1.33-1.33Z"/><polygon class="g" points="8.49 9.93 6.86 14.41 5.17 13.89 6.8 9.4 8.49 9.93"/><rect class="e" x="4" y="3.25" width="16" height="6" rx="1" ry="1"/></g></g></g></svg>