<svg xmlns="http://www.w3.org/2000/svg" xmlns:xlink="http://www.w3.org/1999/xlink" width="40" height="30" viewBox="0 0 40 30">
  <defs>
    <clipPath id="clip-path">
      <rect id="Rectangle_70" data-name="Rectangle 70" width="23.974" height="22.42" transform="translate(0 0)" fill="none"/>
    </clipPath>
  </defs>
  <g id="icon-format-list-zero" transform="translate(-203 -355)">
    <g id="Group_108" data-name="Group 108" transform="translate(215 359)">
      <path id="Path_75" data-name="Path 75" d="M6.974,19.92h17V17.514h-17Zm0-7.22h17V10.294h-17Zm0-7.219h17V3.073h-17Z" fill="#565757"/>
      <g id="Group_107" data-name="Group 107">
        <g id="Group_106" data-name="Group 106" clip-path="url(#clip-path)">
          <path id="Path_76" data-name="Path 76" d="M2,0A1.565,1.565,0,0,1,3.3.594a3.792,3.792,0,0,1,.558,2.332,3.8,3.8,0,0,1-.562,2.336A1.563,1.563,0,0,1,2,5.847,1.639,1.639,0,0,1,.648,5.2,3.8,3.8,0,0,1,.137,2.914,3.782,3.782,0,0,1,.7.586,1.561,1.561,0,0,1,2,0M2,.91a.544.544,0,0,0-.355.127.852.852,0,0,0-.243.455,6.316,6.316,0,0,0-.113,1.434,6.194,6.194,0,0,0,.1,1.384.968.968,0,0,0,.255.5A.551.551,0,0,0,2,4.937a.544.544,0,0,0,.355-.127.852.852,0,0,0,.243-.455,6.247,6.247,0,0,0,.113-1.429,6.2,6.2,0,0,0-.1-1.385.984.984,0,0,0-.255-.5A.542.542,0,0,0,2,.91" fill="#565757"/>
          <path id="Path_77" data-name="Path 77" d="M2.949,14.138h-1.1V10a3.769,3.769,0,0,1-1.418.832v-1A3.168,3.168,0,0,0,1.367,9.3a2.026,2.026,0,0,0,.691-.916h.891Z" fill="#565757"/>
          <path id="Path_78" data-name="Path 78" d="M3.848,21.4v1.02H0a2.658,2.658,0,0,1,.375-1.1A7.3,7.3,0,0,1,1.61,19.951a7.826,7.826,0,0,0,.91-.938,1.2,1.2,0,0,0,.226-.672.761.761,0,0,0-.2-.564A.733.733,0,0,0,2,17.58a.733.733,0,0,0-.547.207,1.063,1.063,0,0,0-.234.687L.129,18.365a1.791,1.791,0,0,1,.614-1.3,2.057,2.057,0,0,1,1.289-.394,1.862,1.862,0,0,1,1.332.457,1.5,1.5,0,0,1,.484,1.136A1.974,1.974,0,0,1,3.709,19a2.958,2.958,0,0,1-.439.732,7.149,7.149,0,0,1-.719.731q-.519.476-.658.632a1.946,1.946,0,0,0-.225.305Z" fill="#565757"/>
        </g>
      </g>
    </g>
    <rect id="Rectangle_74" data-name="Rectangle 74" width="40" height="30" transform="translate(203 355)" fill="none"/>
  </g>
</svg>
