<svg xmlns="http://www.w3.org/2000/svg" xmlns:xlink="http://www.w3.org/1999/xlink" width="40" height="30" viewBox="0 0 40 30">
  <defs>
    <clipPath id="clip-path">
      <rect id="Rectangle_69" data-name="Rectangle 69" width="23.974" height="21.848" transform="translate(0 0)" fill="none"/>
    </clipPath>
  </defs>
  <g id="icon-format-list-number" transform="translate(-203 -320)">
    <g id="Group_105" data-name="Group 105" transform="translate(215 324)">
      <path id="Path_71" data-name="Path 71" d="M6.974,19.751h17V17.465h-17Zm0-6.857h17V10.608h-17Zm0-6.857h17V3.751h-17Z" fill="#565757"/>
      <g id="Group_104" data-name="Group 104">
        <g id="Group_103" data-name="Group 103" clip-path="url(#clip-path)">
          <path id="Path_72" data-name="Path 72" d="M2.949,5.75h-1.1V1.613a3.769,3.769,0,0,1-1.418.832v-1A3.168,3.168,0,0,0,1.367.916,2.026,2.026,0,0,0,2.058,0h.891Z" fill="#565757"/>
          <path id="Path_73" data-name="Path 73" d="M3.848,12.731v1.02H0a2.658,2.658,0,0,1,.375-1.1A7.3,7.3,0,0,1,1.61,11.282a7.826,7.826,0,0,0,.91-.938,1.2,1.2,0,0,0,.226-.672.761.761,0,0,0-.2-.564A.733.733,0,0,0,2,8.911a.733.733,0,0,0-.547.207,1.063,1.063,0,0,0-.234.687L.129,9.7A1.791,1.791,0,0,1,.743,8.4,2.057,2.057,0,0,1,2.032,8a1.862,1.862,0,0,1,1.332.457,1.5,1.5,0,0,1,.484,1.136,1.974,1.974,0,0,1-.139.737,2.958,2.958,0,0,1-.439.732,7.149,7.149,0,0,1-.719.731q-.519.476-.658.632a1.946,1.946,0,0,0-.225.305Z" fill="#565757"/>
          <path id="Path_74" data-name="Path 74" d="M.1,20.231,1.164,20.1a1,1,0,0,0,.274.621.744.744,0,0,0,.539.215.739.739,0,0,0,.572-.258,1,1,0,0,0,.233-.695.933.933,0,0,0-.223-.656.712.712,0,0,0-.543-.243,1.9,1.9,0,0,0-.5.083l.121-.9a.965.965,0,0,0,.68-.193.69.69,0,0,0,.234-.545.62.62,0,0,0-.172-.461.615.615,0,0,0-.457-.172.662.662,0,0,0-.48.195.917.917,0,0,0-.242.57L.184,17.5a2.249,2.249,0,0,1,.318-.83,1.436,1.436,0,0,1,.594-.489A2,2,0,0,1,1.95,16a1.7,1.7,0,0,1,1.3.515,1.306,1.306,0,0,1-.422,2.156,1.338,1.338,0,0,1,.787.473,1.369,1.369,0,0,1,.3.887,1.721,1.721,0,0,1-.551,1.285,1.9,1.9,0,0,1-1.371.531A1.888,1.888,0,0,1,.7,21.4,1.757,1.757,0,0,1,.1,20.231" fill="#565757"/>
        </g>
      </g>
    </g>
    <rect id="Rectangle_73" data-name="Rectangle 73" width="40" height="30" transform="translate(203 320)" fill="none"/>
  </g>
</svg>
