<?xml version="1.0" encoding="UTF-8"?><svg xmlns="http://www.w3.org/2000/svg" viewBox="0 0 24 24"><defs><style>.e{fill:none;}.f{fill:#7f7f7f;}</style></defs><g id="a"/><g id="b"><g id="c"><g><path class="f" d="M12,6.18C6.23,6.18,1.56,12,1.56,12c0,0,4.68,5.82,10.44,5.82s10.44-5.82,10.44-5.82c0,0-4.68-5.82-10.44-5.82Zm0,10.14c-4.28,0-7.75-4.32-7.75-4.32,0,0,3.47-4.32,7.75-4.32s7.75,4.32,7.75,4.32c0,0-3.47,4.32-7.75,4.32Z"/><path class="f" d="M12,8.66c-1.84,0-3.34,1.49-3.34,3.34s1.49,3.34,3.34,3.34,3.34-1.5,3.34-3.34-1.49-3.34-3.34-3.34Z"/></g><rect id="d" class="e" width="24" height="24"/></g></g></svg>