<?xml version="1.0" encoding="UTF-8"?><svg xmlns="http://www.w3.org/2000/svg" viewBox="0 0 24 24"><defs><style>.e{fill:#f95319;}.f{fill:none;}</style></defs><g id="a"/><g id="b"><g id="c"><g><polygon class="e" points="17.77 17.15 14.45 17.15 14.45 20.46 6.16 20.46 6.16 5.54 16.52 5.54 18.18 3.88 4.5 3.88 4.5 22.12 15.28 22.12 19.43 17.98 19.43 11.76 17.77 13.41 17.77 17.15"/><g><path class="e" d="M21.26,7.71l-1.1-1.1c-.16-.16-.37-.24-.57-.24-.21,0-.42,.07-.58,.23h-.01l-.79,.8,2.27,2.27,.79-.79h0c.15-.17,.23-.38,.22-.59,0-.21-.08-.42-.24-.58Z"/><polygon class="e" points="11.34 18.8 11.53 18.62 9.25 16.34 9.06 16.52 9.06 18.8 11.34 18.8"/><polygon class="e" points="9.91 15.68 12.19 17.96 19.82 10.32 17.55 8.05 9.91 15.68"/></g><polygon class="e" points="17.15 7.38 17.15 7.34 7.61 7.34 7.61 8.58 15.94 8.58 17.15 7.38"/><polygon class="e" points="14.16 10.66 7.61 10.66 7.61 11.9 12.92 11.9 14.16 10.66"/><polygon class="e" points="10.85 13.98 7.61 13.98 7.61 15.22 9.6 15.22 10.85 13.98"/></g><rect id="d" class="f" width="24" height="24"/></g></g></svg>