<?xml version="1.0" encoding="UTF-8"?><svg xmlns="http://www.w3.org/2000/svg" viewBox="0 0 24 25"><defs><style>.e{fill:#fff;}.f{fill:none;}</style></defs><g id="a"/><g id="b"><g id="c"><path class="e" d="M12,2.45C6.48,2.45,2,6.93,2,12.45s4.48,10,10,10,10-4.48,10-10S17.52,2.45,12,2.45Zm0,3.48c1.69,0,3.06,1.37,3.06,3.06s-1.37,3.06-3.06,3.06-3.06-1.37-3.06-3.06,1.37-3.06,3.06-3.06Zm4.97,12.22c-1.21,.63-3.45,.83-4.97,.83s-3.76-.19-4.97-.83v-3.73c0-1.21,1.39-2.12,2.54-2.65,.65,.57,1.5,.92,2.43,.92s1.78-.35,2.43-.92c1.15,.54,2.54,1.45,2.54,2.65v3.73Z"/><rect id="d" class="f" width="24" height="25"/></g></g></svg>