<svg xmlns="http://www.w3.org/2000/svg" xmlns:xlink="http://www.w3.org/1999/xlink" width="40" height="30" viewBox="0 0 40 30">
  <defs>
    <clipPath id="clip-path">
      <rect id="Rectangle_72" data-name="Rectangle 72" width="24.366" height="18.336" transform="translate(0 0)" fill="none"/>
    </clipPath>
  </defs>
  <g id="icon-format-list-en-small" transform="translate(-203 -496)">
    <g id="Group_117" data-name="Group 117">
      <g id="Group_116" data-name="Group 116" transform="translate(215 502)">
        <path id="Path_97" data-name="Path 97" d="M7.366,17.364h17V15.078h-17Zm0-6.857h17V8.221h-17Zm0-6.856h17V1.365h-17Z" fill="#565757"/>
        <g id="Group_115" data-name="Group 115">
          <g id="Group_114" data-name="Group 114" clip-path="url(#clip-path)">
            <path id="Path_98" data-name="Path 98" d="M1.109,1.359l-1-.179A1.549,1.549,0,0,1,.691.289,2.123,2.123,0,0,1,1.91,0,2.626,2.626,0,0,1,3,.174,1.093,1.093,0,0,1,3.51.615a2.279,2.279,0,0,1,.146.983L3.644,2.879a4.465,4.465,0,0,0,.053.807,2.377,2.377,0,0,0,.2.556H2.808c-.028-.073-.063-.18-.105-.324q-.027-.1-.039-.129a1.965,1.965,0,0,1-.6.41,1.722,1.722,0,0,1-.683.137,1.413,1.413,0,0,1-1.01-.348A1.154,1.154,0,0,1,0,3.109a1.182,1.182,0,0,1,.168-.627,1.1,1.1,0,0,1,.471-.421A3.642,3.642,0,0,1,1.512,1.8a6.054,6.054,0,0,0,1.066-.27V1.426A.567.567,0,0,0,2.422.975.935.935,0,0,0,1.832.84a.784.784,0,0,0-.457.115.808.808,0,0,0-.266.4m1.469.891a6.8,6.8,0,0,1-.668.168,2.03,2.03,0,0,0-.6.191A.459.459,0,0,0,1.1,3a.544.544,0,0,0,.171.4.6.6,0,0,0,.438.167.949.949,0,0,0,.566-.195A.68.68,0,0,0,2.535,3a2.155,2.155,0,0,0,.043-.535Z" fill="#565757"/>
            <path id="Path_99" data-name="Path 99" d="M.024,11.984V6.257h1.1V8.32a1.551,1.551,0,0,1,1.2-.578,1.615,1.615,0,0,1,1.254.549,2.275,2.275,0,0,1,.5,1.576A2.4,2.4,0,0,1,3.569,11.5a1.581,1.581,0,0,1-1.228.574,1.53,1.53,0,0,1-.7-.178,1.674,1.674,0,0,1-.6-.525v.609ZM1.114,9.82a1.768,1.768,0,0,0,.2.953.868.868,0,0,0,.758.438.776.776,0,0,0,.619-.311,1.53,1.53,0,0,0,.256-.978A1.622,1.622,0,0,0,2.692,8.9a.815.815,0,0,0-.66-.314.827.827,0,0,0-.656.306,1.4,1.4,0,0,0-.262.932" fill="#565757"/>
            <path id="Path_100" data-name="Path 100" d="M3.906,15.32l-1.082.2a.786.786,0,0,0-.248-.488.751.751,0,0,0-.5-.164.821.821,0,0,0-.654.283,1.451,1.451,0,0,0-.244.947,1.673,1.673,0,0,0,.248,1.043.811.811,0,0,0,.666.305.735.735,0,0,0,.511-.178,1.067,1.067,0,0,0,.282-.611l1.078.184a1.913,1.913,0,0,1-.645,1.121,1.992,1.992,0,0,1-1.277.379,1.9,1.9,0,0,1-1.451-.575,2.223,2.223,0,0,1-.541-1.589,2.233,2.233,0,0,1,.543-1.6A1.924,1.924,0,0,1,2.058,14a2,2,0,0,1,1.2.326,1.8,1.8,0,0,1,.643.994" fill="#565757"/>
          </g>
        </g>
      </g>
      <rect id="Rectangle_78" data-name="Rectangle 78" width="40" height="30" transform="translate(203 496)" fill="none"/>
    </g>
  </g>
</svg>
