<svg xmlns="http://www.w3.org/2000/svg" xmlns:xlink="http://www.w3.org/1999/xlink" width="40" height="30" viewBox="0 0 40 30">
  <defs>
    <clipPath id="clip-path">
      <rect id="Rectangle_71" data-name="Rectangle 71" width="25.5" height="22.824" transform="translate(0 0)" fill="none"/>
    </clipPath>
  </defs>
  <g id="icon-format-list-en-big" transform="translate(-203 -461)">
    <g id="Group_113" data-name="Group 113" transform="translate(213 465)">
      <path id="Path_93" data-name="Path 93" d="M8.5,19.687h17V17.4H8.5Zm0-6.858h17V10.543H8.5Zm0-6.857h17V3.686H8.5Z" fill="#565757"/>
      <path id="Path_94" data-name="Path 94" d="M2.828,1.336l.789,2.125H2.055ZM2.23,0,0,5.727H1.227l.472-1.3H3.988l.5,1.3H5.746L3.453,0Z" fill="#565757"/>
      <g id="Group_112" data-name="Group 112">
        <g id="Group_111" data-name="Group 111" clip-path="url(#clip-path)">
          <path id="Path_95" data-name="Path 95" d="M.586,8.5H2.875a6.585,6.585,0,0,1,1.013.056,1.443,1.443,0,0,1,1.038.715,1.3,1.3,0,0,1,.175.67,1.335,1.335,0,0,1-.216.738,1.349,1.349,0,0,1-.588.5,1.5,1.5,0,0,1,.8.52,1.376,1.376,0,0,1,.282.863,1.7,1.7,0,0,1-.182.76,1.542,1.542,0,0,1-.5.59,1.642,1.642,0,0,1-.775.271q-.29.031-1.395.039H.586Zm1.156.953v1.324H2.5q.675,0,.84-.02a.757.757,0,0,0,.466-.2.6.6,0,0,0,.17-.447.628.628,0,0,0-.146-.432.67.67,0,0,0-.436-.2c-.114-.013-.444-.019-.988-.019Zm0,2.277v1.531h1.07a5.158,5.158,0,0,0,.793-.035A.715.715,0,0,0,4.025,13a.707.707,0,0,0,.162-.487.741.741,0,0,0-.125-.437.7.7,0,0,0-.361-.262,3.918,3.918,0,0,0-1.025-.082Z" fill="#565757"/>
          <path id="Path_96" data-name="Path 96" d="M4.246,20.621l1.121.355a2.517,2.517,0,0,1-.857,1.393,2.443,2.443,0,0,1-1.522.455,2.466,2.466,0,0,1-1.875-.779,2.981,2.981,0,0,1-.734-2.131,3.133,3.133,0,0,1,.738-2.221A2.532,2.532,0,0,1,3.059,16.9a2.384,2.384,0,0,1,1.707.621,2.264,2.264,0,0,1,.585,1.055l-1.144.273A1.182,1.182,0,0,0,3,17.891a1.3,1.3,0,0,0-1.033.457,2.238,2.238,0,0,0-.4,1.48,2.406,2.406,0,0,0,.391,1.547,1.265,1.265,0,0,0,1.015.461,1.158,1.158,0,0,0,.793-.293,1.7,1.7,0,0,0,.477-.922" fill="#565757"/>
        </g>
      </g>
    </g>
    <rect id="Rectangle_77" data-name="Rectangle 77" width="40" height="30" transform="translate(203 461)" fill="none"/>
  </g>
</svg>
