<?xml version="1.0" encoding="UTF-8"?><svg xmlns="http://www.w3.org/2000/svg" viewBox="0 0 13.75 18.33"><defs><style>.d{fill:#4394d6;}</style></defs><g id="a"/><g id="b"><g id="c"><g><path class="d" d="M.76,4.97v12.6c0,.42,.34,.76,.76,.76H12.22c.42,0,.76-.34,.76-.76V4.97H.76Zm3.44,11.46q0,.38-.38,.38h-.76q-.38,0-.38-.38V6.88q0-.38,.38-.38h.76q.38,0,.38,.38v9.55Zm3.44,0q0,.38-.38,.38h-.76q-.38,0-.38-.38V6.88q0-.38,.38-.38h.76q.38,0,.38,.38v9.55Zm3.44,0q0,.38-.38,.38h-.76q-.38,0-.38-.38V6.88q0-.38,.38-.38h.76q.38,0,.38,.38v9.55Z"/><path class="d" d="M12.99,1.91h-3.06V.76c0-.42-.34-.76-.76-.76H4.58c-.42,0-.76,.34-.76,.76V1.91H.76c-.42,0-.76,.34-.76,.76v1.53H13.75v-1.53c0-.42-.34-.76-.76-.76Zm-4.2,0h-3.82v-.76h3.82v.76Z"/></g></g></g></svg>