<?xml version="1.0" encoding="utf-8"?>
<!-- Generator: Adobe Illustrator 26.0.3, SVG Export Plug-In . SVG Version: 6.00 Build 0)  -->
<svg version="1.1" id="icon-html" xmlns="http://www.w3.org/2000/svg" xmlns:xlink="http://www.w3.org/1999/xlink" x="0px" y="0px"
	 viewBox="0 0 35.5 18" style="enable-background:new 0 0 35.5 18;" xml:space="preserve">
<style type="text/css">
	.st0{fill:none;}
	.st1{fill:#FFFFFF;}
</style>
<g id="Group_20">
	<rect id="Rectangle_32" x="0.4" y="0" class="st0" width="35.4" height="18"/>
</g>
<g id="Group_21" transform="translate(0 13.654)">
	<path id="Path_37" class="st1" d="M7-8.3h2V-1H7v-3H4.3v3h-2v-7.3h2v2.4H7V-8.3z M25.3-8.3h-5.9c-0.7,0-1.2,0.5-1.3,1.2v6h2v-5.4
		h1.3v4.2h2v-4.3h1.3V-1h2v-6C26.7-7.8,26-8.4,25.3-8.3z M16.8-8.3h-6.6v1.8h2.3v5.4h2v-5.4h2.3V-8.3z M33.9-1.1v-1.8h-3.4v-5.4h-2
		V-1L33.9-1.1z"/>
</g>
</svg>
