<svg xmlns="http://www.w3.org/2000/svg" width="1280" height="149.716" viewBox="0 0 1280 149.716">
  <g id="bg" transform="translate(0 -3264.784)" opacity="0.6">
    <path id="header-shape" d="M525.08,85C407.452,109.4,231.642,118.5-8,36.8c.168,32.5.253,65,.421,97.4H1272V34.1A998.516,998.516,0,0,0,1086.493,5.9c-76.732-4.3-146.382,1-259.2,18.6C672.812,48.7,578.372,73.9,525.08,85Z" transform="translate(8 3280.3)" fill="#e9e9e9"/>
    <path id="header-shape-2" data-name="header-shape" d="M525.08,85C407.452,109.4,231.642,118.5-8,36.8c.168,32.5.253,85,.421,117.4H1272V34.1A998.516,998.516,0,0,0,1086.493,5.9c-76.732-4.3-146.382,1-259.2,18.6C672.812,48.7,578.372,73.9,525.08,85Z" transform="translate(8 3260.3)" fill="#e9e9e9" opacity="0.5"/>
  </g>
</svg>
