<svg xmlns="http://www.w3.org/2000/svg" xmlns:xlink="http://www.w3.org/1999/xlink" width="370" height="120" viewBox="0 0 370 120">
  <defs>
    <clipPath id="clip-path">
      <rect id="Rectangle_2397" data-name="Rectangle 2397" width="370" height="120" transform="translate(539 4034)" fill="#fff"/>
    </clipPath>
  </defs>
  <g id="case-bg-3" transform="translate(-539 -4034)" clip-path="url(#clip-path)">
    <path id="header-shape" d="M478.665,47.87C555.307,61.018,669.858,65.921,826,21.9c-.11,17.512-.165,35.025-.275,52.484H-8V20.443a777.339,777.339,0,0,1,120.87-15.2c50-2.317,95.377.539,168.888,10.023,100.651,13.04,162.185,26.619,196.907,32.6Z" transform="translate(251 4079.748)" fill="#00c3af" opacity="0.2"/>
    <path id="header-shape-2" data-name="header-shape" d="M339.474,62.065C262.8,79.514,148.2,86.022-8,27.595q.165,34.863.275,69.655H826.333V25.664A597.778,597.778,0,0,0,705.415,5.5C655.4,2.422,610,6.212,536.46,18.8,435.769,36.1,374.211,54.127,339.474,62.065Z" transform="translate(251 4057.423)" fill="#00c3af" opacity="0.24"/>
    <path id="header-shape-3" data-name="header-shape" d="M478.859,62.145c76.673,17.474,191.27,23.991,347.474-34.518q-.165,34.912-.275,69.752H-8V25.693A597.024,597.024,0,0,1,112.918,5.5c50.016-3.079,95.415.716,168.955,13.32C382.565,36.149,444.123,54.2,478.859,62.145Z" transform="translate(230.833 4056.492)" fill="#00c3af" opacity="0.1"/>
    <path id="header-shape-4" data-name="header-shape" d="M339.474,47.79C262.8,60.913,148.2,65.808-8,21.865c.11,17.48.165,34.96.275,52.387H826.333V20.413A779.306,779.306,0,0,0,705.415,5.246C655.4,2.933,610,5.784,536.46,15.25,435.769,28.266,374.211,41.82,339.474,47.79Z" transform="translate(251 4079.748)" fill="#00c3af" opacity="0.2"/>
    <path id="header-shape-5" data-name="header-shape" d="M339.474,68.416C262.8,87.79,148.2,95.016-8,30.144q.165,38.709.275,77.338H826.333V28A544.039,544.039,0,0,0,705.415,5.608C655.4,2.194,610,6.4,536.46,20.377,435.769,39.593,374.211,59.6,339.474,68.416Z" transform="translate(132.833 4047.19)" fill="#00c3af" opacity="0.24"/>
  </g>
</svg>
