<svg xmlns="http://www.w3.org/2000/svg" width="149.54" height="66.81" viewBox="0 0 149.54 66.81">
  <g id="footer-logo" transform="translate(-100 -226)">
    <path id="Path_217" data-name="Path 217" d="M14.6,22.022h4.626v3.67H14.6ZM6,10.985a.981.981,0,0,0-1.017.6A36.552,36.552,0,0,1,2.13,16.551a1.8,1.8,0,0,0-.717-.185c-.792,0-1.19.378-1.19,1.126a1.251,1.251,0,0,0,.4.848c.59.41,1.116.821,1.577,1.2.521.449,1.214,1.069,2.034,1.891a.467.467,0,0,0,.258.126A30.252,30.252,0,0,1,2,24.443a7.887,7.887,0,0,1-.855.03C.361,24.534,0,24.915,0,25.607c0,.973.361,1.45,1.148,1.45,1.25-.131,2.525-.283,3.838-.537v12.1c0,.815.428,1.228,1.277,1.228s1.278-.413,1.278-1.228V25.985a9.713,9.713,0,0,0,1.279-.293h.236c.1.389.194.828.29,1.262.2.573.5.85.883.85.921,0,1.417-.314,1.417-.968a4.83,4.83,0,0,0-.134-.876,24.274,24.274,0,0,0-1.283-3.692,1.239,1.239,0,0,0-.883-.373c-.787,0-1.149.256-1.149.759a1.517,1.517,0,0,0,.134.592,1.919,1.919,0,0,0,.127.376,25.457,25.457,0,0,1-3.111.574,21.285,21.285,0,0,0,1.733-2.141,39.873,39.873,0,0,0,3.024-4.814,1.7,1.7,0,0,0,.26-.876,1.151,1.151,0,0,0-.326-.756,1.336,1.336,0,0,0-1.84.036c-.723,1.342-1.51,2.633-2.317,3.89A23.515,23.515,0,0,0,4.1,17.97a28.152,28.152,0,0,0,3.314-5.285,2.154,2.154,0,0,0,.13-.586,1.1,1.1,0,0,0-.461-.8A2.231,2.231,0,0,0,6,10.985M2.3,28.4a1.024,1.024,0,0,0-1.149.758C.923,32.08.622,34.817.224,37.4a2.539,2.539,0,0,0-.093.708c0,.629.422.976,1.283.976A1.348,1.348,0,0,0,2.558,38.5c.363-2.486.655-5.23.888-8.25a3.968,3.968,0,0,0,.134-.843c0-.671-.431-1.007-1.283-1.007m7.185.26c-.693,0-1.022.313-1.022.876l.063.431c.266,1.457.492,3.18.7,5.191.028.688.357,1,1.007,1,.76,0,1.149-.317,1.149-1a7.919,7.919,0,0,0-.094-.948,40.133,40.133,0,0,0-.8-4.925,1.053,1.053,0,0,0-1.009-.625m5.379-16.953c-1.809,0-2.687.828-2.687,2.447V38.972A1,1,0,0,0,13.321,40.1c.848,0,1.28-.382,1.28-1.132V27.929h2.289v4.778a2.172,2.172,0,0,0,2.462,2.455h5.38c.749,0,1.141-.4,1.141-1.223a1,1,0,0,0-1.141-1.1h-4.36c-.694,0-1.02-.343-1.02-1.1V27.929h7.93v8.594c0,.88-.384,1.343-1.141,1.343a11.072,11.072,0,0,1-2.454-.379,4.1,4.1,0,0,0-.757-.085c-.593,0-.885.422-.885,1.337a1.021,1.021,0,0,0,.744.982,16.59,16.59,0,0,0,3.613.467c2.2,0,3.314-.932,3.314-2.786V14.158c0-1.619-.85-2.447-2.556-2.447Zm6.916,10.311h5.506v3.67H21.777ZM14.6,19.82v-4.9c0-.665.26-1.014.784-1.014H26.4c.59,0,.88.349.88,1.014v4.9H23.844c.1-.148.205-.306.333-.5.361-.688.716-1.444,1.049-2.2a1.25,1.25,0,0,0,.256-.753,1.13,1.13,0,0,0-.4-.85,1.218,1.218,0,0,0-.881-.379,1.16,1.16,0,0,0-1.014.509c-.4,1.067-.792,2.08-1.208,3.048-.205.376-.368.756-.555,1.126Zm3.214-4.774c-.851,0-1.286.279-1.286.837a2.348,2.348,0,0,0,.131.733,15.836,15.836,0,0,1,.626,1.982c.229.562.557.852,1.014.852,1.024,0,1.544-.314,1.544-.987a6.992,6.992,0,0,0-.134-1.093,12.373,12.373,0,0,0-.886-1.855,1.457,1.457,0,0,0-1.009-.47" transform="translate(100 226.358)" fill="#fff"/>
    <path id="Path_218" data-name="Path 218" d="M40.245,19.555H36.406c-.526,0-.791-.287-.791-.859V14.9a.688.688,0,0,1,.791-.762h3.839A.679.679,0,0,1,41,14.9v3.8c0,.572-.271.859-.756.859m-4.992-7.737c-1.481,0-2.189.66-2.189,1.951V19.8c0,1.394.708,2.076,2.189,2.076h2.434V35.8c-.5.127-1.055.213-1.678.308V26.177c0-.715-.424-1.1-1.286-1.1a.992.992,0,0,0-1.139,1.1v10.29a1.617,1.617,0,0,1-.4.033,1.3,1.3,0,0,0-1.146,1.47c.036.849.438,1.283,1.146,1.346a57.575,57.575,0,0,0,5.679-1.064,31.189,31.189,0,0,0,4.956-1.5,1.334,1.334,0,0,0,.924-1.354c-.071-.691-.5-1.05-1.288-1.106a2.17,2.17,0,0,0-.651.134,20.906,20.906,0,0,1-2.69.805V29.139h2.819a1.118,1.118,0,0,0,1.279-1.232c0-.81-.433-1.22-1.279-1.22H40.113V21.873h1.273c1.449,0,2.2-.682,2.2-2.076V13.769c0-1.291-.748-1.951-2.2-1.951Zm23.817-.13H49.984a2.018,2.018,0,0,0-2.128,1.253,10.054,10.054,0,0,1-1.476,2.739c-.5.547-1.087,1.136-1.773,1.791a1.235,1.235,0,0,0-.526.848,1.114,1.114,0,0,0,1.279,1.237,1.045,1.045,0,0,0,.726-.259,13.5,13.5,0,0,0,2.1-2.356,13.413,13.413,0,0,0,2.46,4.024,8.069,8.069,0,0,0,.752.728,58.03,58.03,0,0,1-6.528,3.14,1.343,1.343,0,0,0-.784,1.106c0,.75.325,1.1,1.014,1.1a7.229,7.229,0,0,0,1.445-.156,45.131,45.131,0,0,0,6.827-3.583A10.315,10.315,0,0,0,55.3,24.421a24.923,24.923,0,0,0,5.053,2.229,3.317,3.317,0,0,0,1.178.281c.917,0,1.411-.433,1.411-1.347a1.489,1.489,0,0,0-.661-1.133A27.579,27.579,0,0,1,57.04,22.41a10.522,10.522,0,0,1-1.415-.793,16.806,16.806,0,0,0,4.138-4.425,7.78,7.78,0,0,0,1.377-3.767c0-1.132-.691-1.737-2.069-1.737m-9.48,2.779a1.089,1.089,0,0,1,.914-.448h7.416c.424,0,.654.087.654.251,0,.883-.875,2.238-2.618,4.048a13.23,13.23,0,0,1-2.3,1.921,6.348,6.348,0,0,1-.792-.724,14.224,14.224,0,0,1-2.881-4.4,2.394,2.394,0,0,0-.393-.647m-1.016,12.82q-2.562,0-2.558,2.447V36.75c0,1.626.85,2.445,2.558,2.445h10c1.707,0,2.565-.819,2.565-2.445V29.735c0-1.63-.858-2.447-2.565-2.447Zm8.952,9.463H49.591c-.692,0-1.016-.324-1.016-.986V30.741a.891.891,0,0,1,1.016-1.007h7.936a.918.918,0,0,1,1.048,1.007v5.023c0,.662-.366.986-1.048.986" transform="translate(101.046 226.381)" fill="#fff"/>
    <path id="Path_219" data-name="Path 219" d="M120.5,17.5h15.219a32.971,32.971,0,0,1-3.512,7.18,30.757,30.757,0,0,1-4.035,4.739,20.8,20.8,0,0,1-4-4.461A36.875,36.875,0,0,1,120.5,17.5m7.516-6.622c-.956,0-1.419.47-1.419,1.347v2.7H114.3c-.851,0-1.276.4-1.276,1.224,0,.913.425,1.348,1.276,1.348h3.481a32.459,32.459,0,0,0,3.636,8.09,22.516,22.516,0,0,0,4.663,5.558,39.717,39.717,0,0,1-3.908,2.542,47.031,47.031,0,0,1-8.534,3.592,1.011,1.011,0,0,0-.742,1.1,1.091,1.091,0,0,0,.357.848,1.243,1.243,0,0,0,.916.378,6.816,6.816,0,0,0,1.021-.123A48.955,48.955,0,0,0,124.01,35.7a40.641,40.641,0,0,0,4.232-2.835,32.492,32.492,0,0,0,4.462,2.7,61.46,61.46,0,0,0,8.332,3.707,3.544,3.544,0,0,0,.944.2A1.292,1.292,0,0,0,143.394,38c0-.566-.365-.976-1.052-1.221a39.922,39.922,0,0,1-6.887-2.8,31.165,31.165,0,0,1-5.153-2.889,29.254,29.254,0,0,0,4.074-4.88,35.244,35.244,0,0,0,3.87-8.23c.028-.16.062-.314.086-.478h3.648c.849,0,1.284-.435,1.284-1.348,0-.819-.435-1.224-1.284-1.224H129.419v-2.7a1.235,1.235,0,0,0-1.405-1.347" transform="translate(103.685 226.355)" fill="#fff"/>
    <path id="Path_220" data-name="Path 220" d="M99.293,15.071H91.666L89.132,25.785h7.624a1.382,1.382,0,0,0,.967-.354,1.858,1.858,0,0,0,.521-.834l1.95-8.251a1.037,1.037,0,0,0-.151-.885.859.859,0,0,0-.75-.389m-11.095,0H80.5a1.393,1.393,0,0,0-.993.417,1.671,1.671,0,0,0-.571.857L76.987,24.6a.937.937,0,0,0,.165.834,1.087,1.087,0,0,0,.814.354h7.693ZM99.617,41.643a1.235,1.235,0,0,1,.757,1.275,1.469,1.469,0,0,1-.385.889c-3.408,2.946-9.97,3.128-9.97,3.128A23.2,23.2,0,0,1,66.528,16.2,24.233,24.233,0,0,1,83.9.528,23.494,23.494,0,0,1,103,4.614,22.268,22.268,0,0,1,111.859,22.8a16.441,16.441,0,0,1-6.2,11.826c-7.4,6.608-14.286,4.935-14.286,4.935-8.8-2.046-6.461-10.6-6.461-10.6H75.9a2.671,2.671,0,0,1-1.991-.888,2.311,2.311,0,0,1-.443-2.188l2.561-10.868a4.007,4.007,0,0,1,1.464-2.226,3.891,3.891,0,0,1,2.437-.888h9.014l.646-2.71a2.172,2.172,0,0,1,.744-1.242,2.241,2.241,0,0,1,1.381-.476,1.375,1.375,0,0,1,1.1.453,1.324,1.324,0,0,1,.238,1.265l-.64,2.71h8.928a2.3,2.3,0,0,1,2.1.943,2.884,2.884,0,0,1,.3,2.172L101.173,25.88a4.647,4.647,0,0,1-1.413,2.144,3.866,3.866,0,0,1-2.455.932H88.384c-2.338,9.029,7.221,8.617,7.221,8.617,8.587-.845,11.671-6.857,11.671-6.857,2.822-5.271,1.3-11.5,1.3-11.5a19.905,19.905,0,0,0-8.432-12.558C88.76-.779,78.268,6.347,78.268,6.347a21.031,21.031,0,0,0-9.716,17.195A19.941,19.941,0,0,0,78.858,41.186a21.958,21.958,0,0,0,10.361,2.535c3.267.134,8.282-1.906,8.282-1.906,1.457-.586,2.117-.171,2.117-.171" transform="translate(102.13 226)" fill="#fff"/>
    <g id="Group_58" data-name="Group 58" transform="translate(100.4 282.227)">
      <path id="Path_221" data-name="Path 221" d="M2.517,54.6c.118.007.181.1.188.288a.789.789,0,0,1-.033.156,8.651,8.651,0,0,1-1.053,2.007c.073.066.139.126.2.178q.31.322.643.721l.011-.022a12.926,12.926,0,0,0,.931-2,.3.3,0,0,1,.222-.133.255.255,0,0,1,.266.278.405.405,0,0,1-.078.188,11.527,11.527,0,0,1-.776,1.653,14.818,14.818,0,0,1-1.3,1.974,5.534,5.534,0,0,0,1.9-.4c-.1-.259-.189-.481-.278-.665a.633.633,0,0,1-.089-.178.277.277,0,0,1,.255-.278.31.31,0,0,1,.233.133,13.138,13.138,0,0,1,.621,1.752.6.6,0,0,1,.044.189c-.022.14-.118.218-.288.233a.213.213,0,0,1-.2-.145q-.067-.277-.145-.51a4.181,4.181,0,0,1-1.053.288v4.315a.249.249,0,0,1-.266.266.248.248,0,0,1-.266-.266V60.381a13.882,13.882,0,0,1-1.42.066q-.389,0-.4-.255.011-.256.355-.266h.344A13,13,0,0,0,2.173,58.45l-.078-.077a9.058,9.058,0,0,0-.676-.765q-.311-.3-.81-.7a.4.4,0,0,1-.133-.244.3.3,0,0,1,.266-.244.368.368,0,0,1,.244.11c.074.06.14.115.2.166a9.365,9.365,0,0,0,.987-1.853.338.338,0,0,1,.344-.244M1.275,60.946a.258.258,0,0,1,.277.278,14.881,14.881,0,0,1-.178,1.785,6.191,6.191,0,0,1-.311,1.043.318.318,0,0,1-.321.266.3.3,0,0,1-.255-.288.616.616,0,0,1,.044-.2A5.314,5.314,0,0,0,.853,62.7a9.731,9.731,0,0,0,.166-1.531c.007-.133.093-.207.256-.222m2.174,0a.262.262,0,0,1,.278.245,8.435,8.435,0,0,1,.388,2.285c-.015.178-.1.265-.266.265-.133-.006-.208-.095-.222-.265a9.916,9.916,0,0,0-.388-2.252.128.128,0,0,1-.011-.056c.014-.148.089-.222.222-.222M5.645,55H9.594a.784.784,0,0,1,.888.887v7.853a.942.942,0,0,1-1.066,1.066,4.771,4.771,0,0,1-1.353-.222.293.293,0,0,1,.1-.577c.015,0,.049,0,.1.011a4.094,4.094,0,0,0,1.109.211A.471.471,0,0,0,9.9,63.7V56.065a.471.471,0,0,0-.533-.533h-3.5a.471.471,0,0,0-.533.533v8.541a.255.255,0,0,1-.288.289.255.255,0,0,1-.288-.289V55.888A.784.784,0,0,1,5.645,55M9.35,58.04a.244.244,0,0,1,0,.488h-1.4v1.73h1.4a.244.244,0,0,1,0,.488H6.866V62.1a.431.431,0,0,0,.487.487H9.084c.222,0,.333.089.333.266s-.11.266-.333.266H7.22a.784.784,0,0,1-.887-.887V60.746H5.845a.244.244,0,0,1,0-.488H7.376v-1.73H5.845a.244.244,0,0,1,0-.488ZM6.256,55.932a.342.342,0,0,1,.255.145,6.149,6.149,0,0,1,.665,1.175.709.709,0,0,1,.044.211c-.022.149-.126.229-.31.245a.257.257,0,0,1-.222-.156,6.006,6.006,0,0,0-.61-1.12.589.589,0,0,1-.1-.2.294.294,0,0,1,.278-.3m2.873-.044c.118.007.181.1.189.288a.368.368,0,0,1-.023.1A5.711,5.711,0,0,1,8.63,57.64a.378.378,0,0,1-.255.112.29.29,0,0,1-.266-.3.7.7,0,0,1,.089-.166,5.633,5.633,0,0,0,.588-1.154.338.338,0,0,1,.344-.244" transform="translate(-0.387 -54.445)" fill="#fff"/>
      <path id="Path_222" data-name="Path 222" d="M17.222,63.24a.3.3,0,0,1,.311.3.5.5,0,0,1-.044.178,6.717,6.717,0,0,1-1.442.709,11.68,11.68,0,0,1-1.764.378c-.156.022-.252.033-.289.033q-.31-.034-.321-.311a.34.34,0,0,1,.232-.266,10.523,10.523,0,0,0,1.709-.321,5.334,5.334,0,0,0,1.331-.555.443.443,0,0,1,.277-.145M23.7,54.987a.266.266,0,1,1,0,.532H19.142l-.411,1.11h3.35a.823.823,0,0,1,.932.931V62a.824.824,0,0,1-.932.931H15.6A.823.823,0,0,1,14.672,62V57.56a.823.823,0,0,1,.931-.931h2.54l.41-1.11H14.028a.266.266,0,1,1,0-.532Zm-8.453,3.594h7.188v-.987a.387.387,0,0,0-.443-.433h-6.3a.388.388,0,0,0-.444.433Zm0,1.908h7.188V59.113H15.248ZM21.993,62.4a.392.392,0,0,0,.443-.444v-.931H15.248v.931a.393.393,0,0,0,.444.444Zm-1.4.843a1.266,1.266,0,0,1,.244.033,13.31,13.31,0,0,1,3.085,1.065.282.282,0,0,1,.133.233c-.007.2-.1.3-.266.311a.816.816,0,0,1-.2-.044,14.063,14.063,0,0,0-2.995-1.032.29.29,0,0,1-.266-.3.266.266,0,0,1,.266-.266" transform="translate(0.047 -54.432)" fill="#fff"/>
      <path id="Path_223" data-name="Path 223" d="M30.688,56.364a.266.266,0,0,1,0,.533H27.182a.266.266,0,1,1,0-.533ZM28.137,60.89h1.6a.784.784,0,0,1,.887.887v2.042a.789.789,0,0,1-.887.9h-1.6a.789.789,0,0,1-.887-.9V61.777a.784.784,0,0,1,.887-.887m2.152-3.017a.266.266,0,1,1,0,.533H27.538a.266.266,0,0,1,0-.533Zm0,1.509a.266.266,0,0,1,0,.533H27.538a.266.266,0,0,1,0-.533ZM30.2,54.944a.266.266,0,1,1,0,.533H27.582a.266.266,0,1,1,0-.533Zm-.6,9.23a.393.393,0,0,0,.444-.444V61.877a.4.4,0,0,0-.444-.454H28.27a.4.4,0,0,0-.444.454V63.73a.393.393,0,0,0,.444.444Zm3.794-9.23H34.7a.746.746,0,0,1,.844.844V58.05a.314.314,0,0,0,.355.355h.288a.36.36,0,0,0,.311-.211,2.112,2.112,0,0,0,.11-.533l.044-.61a.283.283,0,0,1,.288-.288.308.308,0,0,1,.3.311,4.76,4.76,0,0,1-.188,1.453c-.1.244-.229.381-.378.41h-.864a.746.746,0,0,1-.844-.843v-2.33c0-.192-.118-.288-.355-.288h-1.53a.314.314,0,0,0-.355.355,6.959,6.959,0,0,1-.122,1.464,3.3,3.3,0,0,1-.488,1.119,3.184,3.184,0,0,1-.831.766.094.094,0,0,0-.067.022c-.222-.022-.34-.126-.354-.311a.313.313,0,0,1,.188-.288,2.281,2.281,0,0,0,.6-.566,2.326,2.326,0,0,0,.377-.8,6.1,6.1,0,0,0,.123-1.453A.746.746,0,0,1,33,54.944ZM31.664,59.47h4.3a.627.627,0,0,1,.709.709,1.833,1.833,0,0,1-.155.577,6.194,6.194,0,0,1-.931,1.387,9.467,9.467,0,0,1-1.153,1.076c.051.037.1.073.155.11a13.492,13.492,0,0,0,2.429,1.01.322.322,0,0,1,.233.277.312.312,0,0,1-.3.3,1.164,1.164,0,0,1-.288-.066,11.774,11.774,0,0,1-2.573-1.165c-.06-.037-.112-.07-.156-.1a19.028,19.028,0,0,1-2.44,1.254.8.8,0,0,1-.2.023c-.222-.007-.338-.1-.344-.289a.339.339,0,0,1,.188-.255,18.773,18.773,0,0,0,2.3-1.1,5.7,5.7,0,0,1-.765-.7,5.772,5.772,0,0,1-.944-1.431.5.5,0,0,1-.066-.244.276.276,0,0,1,.288-.266.346.346,0,0,1,.278.166,5.807,5.807,0,0,0,.931,1.431,5.745,5.745,0,0,0,.788.71,6.13,6.13,0,0,0,1.142-1.01,5.694,5.694,0,0,0,.854-1.2,1.1,1.1,0,0,0,.112-.411A.235.235,0,0,0,35.791,60H31.664a.248.248,0,0,1-.266-.266.257.257,0,0,1,.266-.266" transform="translate(0.479 -54.434)" fill="#fff"/>
      <path id="Path_224" data-name="Path 224" d="M44.685,56.38a.266.266,0,0,1,0,.533h-4.3a.266.266,0,1,1,0-.533Zm-3.261,4.437h2.218a.784.784,0,0,1,.887.887v2.13a.789.789,0,0,1-.887.9H41.424a.789.789,0,0,1-.888-.9V61.7a.784.784,0,0,1,.888-.887M44.2,57.844a.266.266,0,0,1,0,.533H40.87a.266.266,0,0,1,0-.533Zm0,1.42a.266.266,0,0,1,0,.533H40.87a.266.266,0,0,1,0-.533Zm-.089-4.348a.266.266,0,0,1,0,.533H40.958a.266.266,0,0,1,0-.533Zm-.6,9.274a.393.393,0,0,0,.444-.444V61.793a.392.392,0,0,0-.444-.443H41.558a.392.392,0,0,0-.444.443v1.953a.393.393,0,0,0,.444.444Zm6.678-6.079a.266.266,0,1,1,0,.533H48.124v6.09a.289.289,0,0,1-.577,0v-6.09H45.262a.266.266,0,0,1,0-.533h2.285V54.738a.289.289,0,0,1,.577,0v3.373Z" transform="translate(0.91 -54.45)" fill="#fff"/>
      <path id="Path_225" data-name="Path 225" d="M71.954,61.652c.133.007.2.1.211.288v.211a6.619,6.619,0,0,1-1.242,1.176,10.316,10.316,0,0,1-1.7,1.076.987.987,0,0,1-.245.044.3.3,0,0,1-.265-.266.359.359,0,0,1,.166-.266A10.927,10.927,0,0,0,70.5,62.905a6.941,6.941,0,0,0,1.176-1.132.357.357,0,0,1,.277-.122m6.19-6.945a.323.323,0,0,1,.334.334c-.023.155-.126.24-.311.255q-2.007.221-4.248.366v.245a6.389,6.389,0,0,1-.854,1.076,6.821,6.821,0,0,1-.977.843,11.641,11.641,0,0,1,1.6.843.828.828,0,0,1,.067.056c.066-.073.129-.148.188-.222a12.223,12.223,0,0,0,1.409-1.963.394.394,0,0,1,.289-.166.317.317,0,0,1,.333.355.506.506,0,0,1-.1.244,9.9,9.9,0,0,1-1.2,1.6,17.7,17.7,0,0,1-1.919,1.8,18.44,18.44,0,0,0,4.492-.7,8.2,8.2,0,0,0-.709-.709.592.592,0,0,1-.1-.2.3.3,0,0,1,.278-.3.342.342,0,0,1,.255.145,12.215,12.215,0,0,1,2,2.418.7.7,0,0,1,.044.211c-.022.148-.126.229-.31.244a.257.257,0,0,1-.222-.155,12.706,12.706,0,0,0-.844-1.188,13.391,13.391,0,0,1-3.483.7v3.9a.288.288,0,1,1-.576,0V60.886q-1.854.166-4.294.166-.421,0-.433-.288c.007-.185.137-.282.388-.289q1.442,0,2.663-.066a16.352,16.352,0,0,0,1.442-1.254,14.514,14.514,0,0,0-3.472-1.509.3.3,0,0,1-.266-.3.267.267,0,0,1,.266-.266.981.981,0,0,1,.244.044q.722.2,1.342.433a.85.85,0,0,1,.089-.077,8.356,8.356,0,0,0,1.065-.943,4.427,4.427,0,0,0,.632-.832q-1.808.122-3.748.189a.348.348,0,0,1-.334-.322.326.326,0,0,1,.311-.288q4.47-.1,8.674-.577M75.926,61.7a.4.4,0,0,1,.266.122q.888.556,1.453.976.589.466,1.242,1.1a.438.438,0,0,1,.077.233.3.3,0,0,1-.555.132,11.44,11.44,0,0,0-1.2-1.053,15.547,15.547,0,0,0-1.431-.987.44.44,0,0,1-.144-.255.358.358,0,0,1,.288-.266" transform="translate(1.844 -54.442)" fill="#fff"/>
      <path id="Path_226" data-name="Path 226" d="M84.048,54.515c.118.007.181.1.188.288a.862.862,0,0,1-.033.156,8.391,8.391,0,0,1-1.142,2.152c.1.073.181.139.255.2a10.192,10.192,0,0,1,.754.688,11.308,11.308,0,0,0,.954-1.886.3.3,0,0,1,.222-.133.254.254,0,0,1,.266.278.409.409,0,0,1-.078.188,11.665,11.665,0,0,1-.8,1.564A14.861,14.861,0,0,1,83.26,59.9a4.8,4.8,0,0,0,1.83-.411,4.594,4.594,0,0,0-.333-.555c-.022-.089-.037-.151-.044-.188a.317.317,0,0,1,.266-.278.276.276,0,0,1,.244.112,7.26,7.26,0,0,1,.821,1.652c.023.082.037.14.044.178,0,.185-.1.278-.311.278-.1,0-.184-.071-.244-.211a4.731,4.731,0,0,0-.211-.5,3.573,3.573,0,0,1-1.032.333V64.7a.289.289,0,1,1-.577,0V60.384a13.414,13.414,0,0,1-1.4.066q-.389,0-.4-.255c.007-.17.126-.259.355-.266h.333a13.03,13.03,0,0,0,1.153-1.464.252.252,0,0,1-.089-.089,7.93,7.93,0,0,0-.754-.688q-.356-.276-.91-.643a.4.4,0,0,1-.133-.244.3.3,0,0,1,.266-.244.368.368,0,0,1,.244.11c.082.06.152.107.211.145a.276.276,0,0,1,.034-.056,9.832,9.832,0,0,0,1.076-2,.338.338,0,0,1,.344-.244M82.76,61.3a.256.256,0,0,1,.266.266,1.153,1.153,0,0,1-.01.122,12.48,12.48,0,0,1-.178,1.254,11.232,11.232,0,0,1-.344,1.221.336.336,0,0,1-.255.155.271.271,0,0,1-.278-.266.519.519,0,0,1,.077-.2,9.276,9.276,0,0,0,.289-1.087,8.635,8.635,0,0,0,.166-1.2.264.264,0,0,1,.265-.266m2.352-.089a.221.221,0,0,1,.222.178,7,7,0,0,1,.454,1.664,4.967,4.967,0,0,1,.077.644c-.007.192-.1.3-.266.31a.284.284,0,0,1-.265-.31,9.584,9.584,0,0,0-.166-1.154,7.78,7.78,0,0,0-.278-.92.359.359,0,0,1-.044-.145.267.267,0,0,1,.266-.266m3.993-6.7a.268.268,0,0,1,.288.288V55.89h2.418a.266.266,0,0,1,0,.533H88.507L87.52,59.3a11.409,11.409,0,0,0,3.516-.521,6.118,6.118,0,0,0-.543-.966.589.589,0,0,1-.1-.2.3.3,0,0,1,.278-.3.342.342,0,0,1,.255.145,12.394,12.394,0,0,1,1.153,2.33.731.731,0,0,1,.044.211c-.023.148-.126.228-.311.244a.258.258,0,0,1-.222-.155q-.166-.445-.321-.821a6.828,6.828,0,0,1-1.12.321v4.2a.274.274,0,0,0,.311.311h.864c.112,0,.2-.082.266-.244a5.692,5.692,0,0,0,.089-1.331c0-.185.1-.282.311-.288q.266.022.288.388,0,.443-.044.953a1.188,1.188,0,0,1-.266.788.83.83,0,0,1-.643.266h-.953a.706.706,0,0,1-.8-.8V59.673q-.589.077-1.3.122a.218.218,0,0,1,.011.067v.821a7.708,7.708,0,0,1-.166,1.708,3.567,3.567,0,0,1-.865,1.564,5.839,5.839,0,0,1-.987.787.388.388,0,0,1-.266.112.348.348,0,0,1-.311-.311.332.332,0,0,1,.123-.255,4.23,4.23,0,0,0,.854-.643,3.066,3.066,0,0,0,.821-1.276,6.6,6.6,0,0,0,.221-1.685v-.821a.064.064,0,0,1,.011-.044q-.589.022-1.231.022-.389,0-.4-.266c.007-.17.126-.259.355-.265h.5l.987-2.884H86.266a.266.266,0,1,1,0-.533h2.552V54.8a.268.268,0,0,1,.288-.288" transform="translate(2.273 -54.448)" fill="#fff"/>
      <path id="Path_227" data-name="Path 227" d="M95.54,55.426h1.807q.589,0,.589.521a1.306,1.306,0,0,1-.211.6,11.278,11.278,0,0,1-1.52,2.03.229.229,0,0,0-.066.11.1.1,0,0,0,.11.112h1.043a.682.682,0,0,1,.777.765A8.408,8.408,0,0,1,97.5,62.4a2.615,2.615,0,0,1-.222.477,5.052,5.052,0,0,0,1.32.721,11.278,11.278,0,0,0,3.461.477h3.106c.207.007.317.1.333.288a.3.3,0,0,1-.333.288h-2.741a13.124,13.124,0,0,1-4.159-.543,5.01,5.01,0,0,1-1.308-.732,7.03,7.03,0,0,1-1.387,1.375.365.365,0,0,1-.222.1.332.332,0,0,1-.322-.322.448.448,0,0,1,.112-.222A6.977,6.977,0,0,0,96.516,63c-.1-.1-.185-.2-.266-.3a4.492,4.492,0,0,1-.832-2.13.3.3,0,0,1,.278-.333.293.293,0,0,1,.3.244,4.225,4.225,0,0,0,.754,1.908.955.955,0,0,1,.089.1,1.571,1.571,0,0,0,.089-.211,7.734,7.734,0,0,0,.566-2.685.275.275,0,0,0-.311-.311H95.85a.435.435,0,0,1-.443-.421.632.632,0,0,1,.155-.333,13.384,13.384,0,0,0,1.708-2.2,1.23,1.23,0,0,0,.089-.244c0-.119-.073-.178-.222-.178h-1.6c-.171-.007-.256-.089-.256-.245s.085-.244.256-.244m3.749-.066h2.063v-.622a.268.268,0,0,1,.289-.288.261.261,0,0,1,.288.288v.622h1.686a.784.784,0,0,1,.887.887V57h.743a.267.267,0,0,1,0,.533H104.5v.8a.784.784,0,0,1-.887.888h-1.686v1.065h2.6a.266.266,0,0,1,0,.533h-2.6v1.109h3.083a.266.266,0,1,1,0,.533h-3.083v.931a.261.261,0,0,1-.288.288.268.268,0,0,1-.289-.288v-.931H98.579a.266.266,0,1,1,0-.533h2.773V60.817H99.068a.266.266,0,1,1,0-.533h2.284V59.22H99.289a.266.266,0,0,1,0-.533h2.063V57.533H98.357a.266.266,0,1,1,0-.533h2.995V55.892H99.289a.266.266,0,0,1,0-.532m2.64.532V57h2v-.665a.393.393,0,0,0-.444-.444Zm0,1.642v1.153h1.553a.393.393,0,0,0,.444-.444v-.709Z" transform="translate(2.703 -54.45)" fill="#fff"/>
      <path id="Path_228" data-name="Path 228" d="M109.408,54.923h8.12a.628.628,0,0,1,.709.71V56.3a.628.628,0,0,1-.709.71h-3.816v.91h4.5a.266.266,0,1,1,0,.532h-4.5v.8h2.8a.745.745,0,0,1,.843.843v3.993h1.1a.267.267,0,0,1,0,.533h-9.994a.266.266,0,0,1,0-.533h1.086V60.092a.746.746,0,0,1,.844-.843h2.751v-.8H108.72a.266.266,0,1,1,0-.532h4.415v-.91h-3.727a.629.629,0,0,1-.71-.71v-.665a.629.629,0,0,1,.71-.71m2.263,1.6V55.411h-2.042a.313.313,0,0,0-.354.355v.4a.313.313,0,0,0,.354.355Zm-1.553,3.993h6.655v-.288a.392.392,0,0,0-.443-.444h-5.768a.393.393,0,0,0-.444.444Zm0,1.2h6.655V61h-6.655Zm0,1.2h6.655V62.2h-6.655Zm0,1.176h6.655V63.4h-6.655Zm4.571-8.674h-2.44V56.52h2.44Zm2.618,1.109a.314.314,0,0,0,.355-.355v-.4a.314.314,0,0,0-.355-.355h-2.042V56.52Z" transform="translate(3.132 -54.435)" fill="#fff"/>
      <path id="Path_229" data-name="Path 229" d="M122.96,54.9h1.531a.706.706,0,0,1,.8.8v8.164a.863.863,0,0,1-.976.976,9.385,9.385,0,0,1-.977-.221.309.309,0,0,1-.244-.266q.011-.3.333-.311c.023,0,.3.073.844.222a.392.392,0,0,0,.443-.444V60.98h-2.007a13.734,13.734,0,0,1-.244,1.908,7.571,7.571,0,0,1-.5,1.808.284.284,0,0,1-.532-.156,1.4,1.4,0,0,1,.077-.321,9.258,9.258,0,0,0,.388-1.431,17.125,17.125,0,0,0,.266-2.828V55.7a.706.706,0,0,1,.8-.8m-.232,5.536h1.985V58.229h-1.974V59.96c0,.178,0,.337-.01.477m.01-2.74h1.974V55.789a.313.313,0,0,0-.354-.355h-1.265a.314.314,0,0,0-.355.355Zm6.1-2.264h-1.708a.353.353,0,0,0-.4.4v3.017h3.95a.627.627,0,0,1,.709.709,2.9,2.9,0,0,1-.122.655,8.1,8.1,0,0,1-.709,1.553,7.535,7.535,0,0,1-.988,1.308,8.949,8.949,0,0,0,1.975,1.221c.17.067.259.159.265.278a.272.272,0,0,1-.288.3c-.029,0-.1,0-.222-.011a7.6,7.6,0,0,1-1.542-.9c-.222-.162-.421-.318-.6-.466a14.718,14.718,0,0,1-1.731,1.3.842.842,0,0,1-.2.022c-.215-.007-.329-.1-.344-.288a.335.335,0,0,1,.188-.255,13.618,13.618,0,0,0,1.665-1.188l-.122-.144a7.843,7.843,0,0,1-1.021-1.831,8.386,8.386,0,0,1-.487-1.708v-.023h-.378v5.336c0,.185-.1.278-.288.278s-.288-.093-.288-.278V55.745A.746.746,0,0,1,127,54.9h3.2a.784.784,0,0,1,.887.888l-.022,1.6a.823.823,0,0,1-.3.688,1.665,1.665,0,0,1-.9.2,4.722,4.722,0,0,1-1.331-.266.375.375,0,0,1-.2-.3.3.3,0,0,1,.311-.277.227.227,0,0,1,.122.033,4.434,4.434,0,0,0,1.066.233.67.67,0,0,0,.5-.145.467.467,0,0,0,.145-.377l.033-1.3a.393.393,0,0,0-.444-.444Zm.322,7.233a5.975,5.975,0,0,0,.921-1.176,7.414,7.414,0,0,0,.643-1.364,1.8,1.8,0,0,0,.089-.477.235.235,0,0,0-.266-.266h-2.884a8.5,8.5,0,0,0,.521,1.731,6.223,6.223,0,0,0,.976,1.553" transform="translate(3.564 -54.435)" fill="#fff"/>
      <path id="Path_230" data-name="Path 230" d="M134.92,58.531h3.727c.384,0,.577.162.577.487a1.866,1.866,0,0,1-.056.322,6.9,6.9,0,0,1-.332.987,7.957,7.957,0,0,1-.589,1.142.283.283,0,0,1-.222.1.344.344,0,0,1-.3-.266.806.806,0,0,1,.133-.244,4.713,4.713,0,0,0,.367-.666,5.588,5.588,0,0,0,.355-.909c.044-.171.066-.262.066-.278,0-.126-.082-.189-.244-.189h-.977v4.947a.784.784,0,0,1-.887.888,4.55,4.55,0,0,1-1.331-.266.819.819,0,0,1-.145-.211c.007-.207.1-.315.266-.322a.945.945,0,0,1,.112.011,2.778,2.778,0,0,0,1.009.255.393.393,0,0,0,.444-.444V59.951a9.8,9.8,0,0,1-.477,1.042,7.988,7.988,0,0,1-1.287,1.775.349.349,0,0,1-.255.133.286.286,0,0,1-.289-.266.613.613,0,0,1,.056-.178,9.406,9.406,0,0,0,1.242-1.619,10.382,10.382,0,0,0,.821-1.775c0-.029,0-.044.011-.044h-1.8a.244.244,0,1,1,0-.487m.178-3.639H138.2c.444,0,.666.162.666.488a.933.933,0,0,1-.089.277,5.224,5.224,0,0,1-.543.888,7.25,7.25,0,0,1-.966,1.02q.266.234.522.466a.389.389,0,0,1,.077.222.265.265,0,0,1-.277.255.271.271,0,0,1-.233-.133c-.3-.288-.595-.543-.877-.765-.266-.2-.617-.433-1.053-.7a.4.4,0,0,1-.133-.244.3.3,0,0,1,.266-.244.368.368,0,0,1,.244.11q.655.4,1.043.688l.033-.066a5.109,5.109,0,0,0,.622-.566,3.374,3.374,0,0,0,.576-.788,1.369,1.369,0,0,0,.122-.232c0-.127-.093-.189-.277-.189H135.1a.244.244,0,1,1,0-.488m4.637,5.658h1.808q.067-.466.1-.954c.016-.185.1-.282.266-.288a.294.294,0,0,1,.266.288c-.022.355-.052.672-.089.954h1.8a.666.666,0,0,1,.755.754,13.746,13.746,0,0,1-.255,2.718.8.8,0,0,1-.444.666,1.407,1.407,0,0,1-.744.166,3.448,3.448,0,0,1-1.242-.311.366.366,0,0,1-.178-.266.293.293,0,0,1,.322-.311h.044a2.756,2.756,0,0,0,1.043.311.7.7,0,0,0,.388-.089.4.4,0,0,0,.221-.266,3.161,3.161,0,0,0,.156-.876,10.885,10.885,0,0,0,.11-1.476.431.431,0,0,0-.487-.488h-1.564c-.037.149-.07.282-.1.4a4.812,4.812,0,0,1-.709,1.6,3.652,3.652,0,0,1-.965,1.02,4.289,4.289,0,0,1-1.4.722.306.306,0,0,1-.112.022.322.322,0,0,1-.321-.3.251.251,0,0,1,.211-.233,4.99,4.99,0,0,0,1.42-.732,3.683,3.683,0,0,0,.831-.964,4.577,4.577,0,0,0,.544-1.354,1.492,1.492,0,0,0,.033-.178h-1.708a.266.266,0,1,1,0-.532m.931-6.035c.155.007.244.1.266.278l-.011.044q-.067.3-.155.609h3.893a.266.266,0,1,1,0,.533H143.9a.423.423,0,0,1-.033.166,7.343,7.343,0,0,1-.821,1.464,3.68,3.68,0,0,1-.355.444,12.828,12.828,0,0,0,2.274,1.153.293.293,0,0,1,.178.266.329.329,0,0,1-.3.277,1.711,1.711,0,0,1-.255-.066,12.552,12.552,0,0,1-2.285-1.231,6.056,6.056,0,0,1-.721.555,6.488,6.488,0,0,1-1.875.742.294.294,0,0,1-.288-.265q.011-.223.266-.266a5.417,5.417,0,0,0,1.631-.688,5.994,5.994,0,0,0,.555-.4,5.712,5.712,0,0,1-.854-.832,4.414,4.414,0,0,1-.622-.954,3.983,3.983,0,0,1-.433.7,4.391,4.391,0,0,1-.688.744.259.259,0,0,1-.188.056.292.292,0,0,1-.289-.245.529.529,0,0,1,.1-.244,6.173,6.173,0,0,0,.533-.533,4.5,4.5,0,0,0,.555-.876,7.246,7.246,0,0,0,.41-1.2.252.252,0,0,1,.266-.233m.133,1.464a2.991,2.991,0,0,0,.61.976,5.335,5.335,0,0,0,.865.81c.118-.132.222-.258.31-.377a7.961,7.961,0,0,0,.766-1.409Z" transform="translate(3.994 -54.448)" fill="#fff"/>
      <path id="Path_231" data-name="Path 231" d="M60.8,59.65a2.065,2.065,0,1,1-2.065-2.065A2.065,2.065,0,0,1,60.8,59.65" transform="translate(1.451 -54.348)" fill="#fff"/>
    </g>
  </g>
</svg>
