<svg id="icon-iocation" xmlns="http://www.w3.org/2000/svg" width="60" height="60" viewBox="0 0 60 60">
  <path id="Path_4437" data-name="Path 4437" d="M0,0H60V60H0Z" fill="none"/>
  <path id="Path_4438" data-name="Path 4438" d="M24.375,2C13.663,2,5,10.06,5,20.025,5,33.544,24.375,53.5,24.375,53.5S43.75,33.544,43.75,20.025C43.75,10.06,35.087,2,24.375,2ZM10.536,20.025c0-7.107,6.2-12.875,13.839-12.875s13.839,5.768,13.839,12.875c0,7.416-7.971,18.514-13.839,25.441C18.618,38.591,10.536,27.364,10.536,20.025Z" transform="translate(5.625 2.25)" fill="#ff7e00"/>
  <circle id="Ellipse_190" data-name="Ellipse 190" cx="5.313" cy="5.313" r="5.313" transform="translate(24.688 16.891)" fill="#ff7e00"/>
</svg>
