<svg id="icon-twitter" xmlns="http://www.w3.org/2000/svg" width="33.459" height="33.459" viewBox="0 0 33.459 33.459">
  <rect id="Rectangle_2310" data-name="Rectangle 2310" width="33.459" height="33.459" transform="translate(0 0)" fill="#6c6f73"/>
  <path id="icons8-twitter" d="M23.842,10.7a7.424,7.424,0,0,1-2.105.576,3.657,3.657,0,0,0,1.611-2.011,7.35,7.35,0,0,1-2.326.88,3.651,3.651,0,0,0-6.235,3.311A10.433,10.433,0,0,1,7.242,9.662a3.584,3.584,0,0,0-.5,1.827,3.621,3.621,0,0,0,1.628,3.021,3.727,3.727,0,0,1-1.66-.453V14.1A3.64,3.64,0,0,0,9.65,17.659a3.641,3.641,0,0,1-.962.13A3.89,3.89,0,0,1,8,17.723a3.668,3.668,0,0,0,3.419,2.521A7.4,7.4,0,0,1,6.87,21.8,7.242,7.242,0,0,1,6,21.746a10.463,10.463,0,0,0,5.613,1.628A10.3,10.3,0,0,0,22.027,13.047c0-.157,0-.314-.012-.468a7.2,7.2,0,0,0,1.827-1.88" transform="translate(2.182 0.666)" fill="#fff"/>
</svg>
