<svg xmlns="http://www.w3.org/2000/svg" xmlns:xlink="http://www.w3.org/1999/xlink" width="330" height="62.878" viewBox="0 0 330 62.878">
  <defs>
    <clipPath id="clip-path">
      <rect id="Rectangle_1339" data-name="Rectangle 1339" width="330" height="62.878" fill="none"/>
    </clipPath>
  </defs>
  <g id="Group_392" data-name="Group 392" clip-path="url(#clip-path)">
    <path id="Path_1357" data-name="Path 1357" d="M19.536,25.751h6.189v4.91H19.536ZM8.033,10.985a1.312,1.312,0,0,0-1.361.8A48.9,48.9,0,0,1,2.85,18.432a2.409,2.409,0,0,0-.959-.247C.832,18.184.3,18.69.3,19.69a1.674,1.674,0,0,0,.532,1.134c.789.548,1.493,1.1,2.11,1.6.7.6,1.625,1.43,2.722,2.53a.624.624,0,0,0,.345.169A40.475,40.475,0,0,1,2.68,28.991a10.55,10.55,0,0,1-1.144.04C.484,29.113,0,29.623,0,30.548c0,1.3.484,1.94,1.536,1.94,1.672-.175,3.378-.379,5.135-.718V47.962c0,1.09.572,1.643,1.709,1.643s1.71-.553,1.71-1.643V31.054a12.994,12.994,0,0,0,1.712-.392h.316c.138.521.26,1.108.388,1.688.264.767.663,1.137,1.181,1.137,1.232,0,1.9-.42,1.9-1.295a6.462,6.462,0,0,0-.18-1.172,32.476,32.476,0,0,0-1.716-4.939,1.657,1.657,0,0,0-1.181-.5c-1.053,0-1.538.343-1.538,1.015a2.029,2.029,0,0,0,.18.792,2.567,2.567,0,0,0,.17.5,34.058,34.058,0,0,1-4.163.768A28.478,28.478,0,0,0,9.475,25.8a53.346,53.346,0,0,0,4.045-6.441,2.267,2.267,0,0,0,.348-1.172,1.54,1.54,0,0,0-.437-1.011,1.787,1.787,0,0,0-2.462.048c-.967,1.8-2.02,3.523-3.1,5.2a31.46,31.46,0,0,0-2.386-2.1,37.665,37.665,0,0,0,4.433-7.071,2.879,2.879,0,0,0,.174-.785,1.48,1.48,0,0,0-.616-1.067,3,3,0,0,0-1.442-.423m-4.958,23.3A1.37,1.37,0,0,0,1.536,35.3c-.3,3.9-.7,7.567-1.237,11.025a3.4,3.4,0,0,0-.124.948c0,.841.565,1.306,1.716,1.306A1.8,1.8,0,0,0,3.422,47.8c.486-3.325.876-7,1.188-11.037a5.309,5.309,0,0,0,.18-1.127c0-.9-.576-1.348-1.716-1.348m9.613.348c-.927,0-1.368.42-1.368,1.173l.084.576c.356,1.949.658,4.254.938,6.945.037.92.478,1.344,1.347,1.344,1.017,0,1.538-.424,1.538-1.344a10.594,10.594,0,0,0-.126-1.268,53.694,53.694,0,0,0-1.064-6.589,1.41,1.41,0,0,0-1.35-.837m7.2-22.68c-2.421,0-3.595,1.108-3.595,3.274v33.2a1.335,1.335,0,0,0,1.534,1.514c1.134,0,1.713-.511,1.713-1.514V33.654H22.6v6.393q0,3.287,3.294,3.284h7.2c1,0,1.527-.532,1.527-1.636a1.337,1.337,0,0,0-1.527-1.473H27.257c-.928,0-1.365-.459-1.365-1.474V33.654H36.5v11.5c0,1.177-.514,1.8-1.527,1.8a14.813,14.813,0,0,1-3.283-.507,5.489,5.489,0,0,0-1.013-.113c-.793,0-1.184.565-1.184,1.789a1.366,1.366,0,0,0,.995,1.314,22.2,22.2,0,0,0,4.834.624c2.941,0,4.433-1.248,4.433-3.728v-31.1c0-2.166-1.137-3.274-3.419-3.274Zm9.252,13.8H36.5v4.91H29.136Zm-9.6-2.946V16.249c0-.89.348-1.357,1.049-1.357h14.74c.789,0,1.177.467,1.177,1.357v6.557H31.9c.135-.2.275-.409.445-.673.484-.92.957-1.931,1.4-2.941a1.672,1.672,0,0,0,.343-1.007,1.512,1.512,0,0,0-.529-1.137,1.629,1.629,0,0,0-1.178-.507,1.552,1.552,0,0,0-1.357.681C30.49,18.649,29.968,20,29.411,21.3c-.275.5-.492,1.011-.742,1.506Zm4.3-6.387c-1.138,0-1.72.373-1.72,1.12a3.148,3.148,0,0,0,.175.981,21.188,21.188,0,0,1,.837,2.651c.307.752.745,1.14,1.357,1.14,1.371,0,2.065-.42,2.065-1.321a9.353,9.353,0,0,0-.18-1.462,16.553,16.553,0,0,0-1.185-2.481,1.949,1.949,0,0,0-1.35-.629" transform="translate(0 4.192)" fill="#e89112"/>
    <path id="Path_1358" data-name="Path 1358" d="M43.019,22.213H37.882c-.7,0-1.058-.384-1.058-1.149V15.982a.92.92,0,0,1,1.058-1.02h5.137a.908.908,0,0,1,1.011,1.02v5.081c0,.765-.362,1.149-1.011,1.149M36.341,11.862c-1.981,0-2.929.883-2.929,2.61v8.066c0,1.865.948,2.777,2.929,2.777H39.6V43.952c-.663.17-1.412.285-2.245.412V31.073c0-.956-.568-1.476-1.72-1.476a1.327,1.327,0,0,0-1.524,1.476V44.84a2.164,2.164,0,0,1-.537.044,1.736,1.736,0,0,0-1.534,1.967c.048,1.136.586,1.716,1.534,1.8a77.032,77.032,0,0,0,7.6-1.423,41.727,41.727,0,0,0,6.63-2.01,1.785,1.785,0,0,0,1.237-1.811c-.1-.924-.667-1.405-1.723-1.48a2.9,2.9,0,0,0-.87.18,27.97,27.97,0,0,1-3.6,1.078v-8.15h3.772a1.5,1.5,0,0,0,1.712-1.648c0-1.083-.579-1.632-1.712-1.632H42.842V25.315h1.7c1.938,0,2.939-.912,2.939-2.777V14.472c0-1.727-1-2.61-2.939-2.61Zm31.865-.174H56.049A2.7,2.7,0,0,0,53.2,13.364a13.452,13.452,0,0,1-1.974,3.664c-.666.732-1.455,1.52-2.372,2.4a1.652,1.652,0,0,0-.7,1.134,1.49,1.49,0,0,0,1.712,1.655,1.4,1.4,0,0,0,.971-.347,18.064,18.064,0,0,0,2.8-3.153A17.945,17.945,0,0,0,56.929,24.1a10.8,10.8,0,0,0,1.006.974,77.413,77.413,0,0,1-8.734,4.2,1.8,1.8,0,0,0-1.049,1.481c0,1,.435,1.467,1.357,1.467a9.672,9.672,0,0,0,1.933-.209,60.506,60.506,0,0,0,9.134-4.794,13.8,13.8,0,0,0,2.586,1.506,33.344,33.344,0,0,0,6.76,2.983,4.438,4.438,0,0,0,1.576.376c1.227,0,1.887-.579,1.887-1.8a1.992,1.992,0,0,0-.884-1.516,36.9,36.9,0,0,1-7.012-2.731A14.076,14.076,0,0,1,63.6,24.972a22.484,22.484,0,0,0,5.536-5.92,10.409,10.409,0,0,0,1.842-5.04c0-1.514-.924-2.324-2.769-2.324M55.522,15.406a1.457,1.457,0,0,1,1.223-.6h9.922c.568,0,.875.116.875.336,0,1.181-1.17,2.994-3.5,5.416a17.7,17.7,0,0,1-3.077,2.57,8.493,8.493,0,0,1-1.06-.968,19.031,19.031,0,0,1-3.855-5.887,3.2,3.2,0,0,0-.526-.866M54.163,32.558q-3.428,0-3.422,3.274v9.386c0,2.176,1.137,3.272,3.422,3.272H67.542c2.284,0,3.432-1.1,3.432-3.272V35.832c0-2.182-1.148-3.274-3.432-3.274ZM66.14,45.219H55.522c-.926,0-1.359-.434-1.359-1.319V37.18a1.192,1.192,0,0,1,1.359-1.347H66.14a1.228,1.228,0,0,1,1.4,1.347V43.9c0,.886-.489,1.319-1.4,1.319" transform="translate(12.225 4.46)" fill="#e89112"/>
    <path id="Path_1359" data-name="Path 1359" d="M123.068,19.734H143.43a44.127,44.127,0,0,1-4.7,9.6,41.149,41.149,0,0,1-5.4,6.34,27.833,27.833,0,0,1-5.352-5.968,49.358,49.358,0,0,1-4.913-9.976m10.055-8.861c-1.279,0-1.9.63-1.9,1.8v3.618H114.771c-1.138,0-1.708.542-1.708,1.637,0,1.221.569,1.8,1.708,1.8h4.657a43.441,43.441,0,0,0,4.865,10.822,30.125,30.125,0,0,0,6.239,7.436,53.14,53.14,0,0,1-5.228,3.4A62.925,62.925,0,0,1,113.886,46.2a1.352,1.352,0,0,0-.993,1.469,1.458,1.458,0,0,0,.478,1.134,1.663,1.663,0,0,0,1.225.506,9.119,9.119,0,0,0,1.366-.164,65.5,65.5,0,0,0,11.8-5.048,54.373,54.373,0,0,0,5.662-3.792,43.474,43.474,0,0,0,5.97,3.617,82.225,82.225,0,0,0,11.148,4.96,4.74,4.74,0,0,0,1.263.264,1.729,1.729,0,0,0,1.891-1.98c0-.757-.488-1.306-1.408-1.633a53.411,53.411,0,0,1-9.214-3.751,41.6,41.6,0,0,1-6.894-3.866,39.085,39.085,0,0,0,5.45-6.529,47.155,47.155,0,0,0,5.178-11.011c.037-.214.083-.42.115-.638h4.881c1.136,0,1.717-.583,1.717-1.8,0-1.1-.582-1.637-1.717-1.637H135V12.675a1.654,1.654,0,0,0-1.88-1.8" transform="translate(43.078 4.149)" fill="#e89112"/>
    <path id="Path_1360" data-name="Path 1360" d="M110.8,20.164h-10.2L97.2,34.5h10.2a1.85,1.85,0,0,0,1.293-.475,2.486,2.486,0,0,0,.7-1.116L112,21.869a1.387,1.387,0,0,0-.2-1.184,1.149,1.149,0,0,0-1-.521m-14.844,0h-10.3a1.863,1.863,0,0,0-1.329.558,2.236,2.236,0,0,0-.764,1.147L80.952,32.908a1.254,1.254,0,0,0,.221,1.116,1.456,1.456,0,0,0,1.089.475H92.555Zm15.278,35.551a1.653,1.653,0,0,1,1.013,1.706,1.96,1.96,0,0,1-.515,1.19C107.168,62.552,98.388,62.8,98.388,62.8c-16.56,1.2-25.877-11.015-25.877-11.015-11.94-14.921-5.551-30.11-5.551-30.11A32.421,32.421,0,0,1,90.2.706a31.433,31.433,0,0,1,25.548,5.467A29.793,29.793,0,0,1,127.608,30.5a22,22,0,0,1-8.3,15.822c-9.9,8.841-19.113,6.6-19.113,6.6-11.768-2.737-8.645-14.182-8.645-14.182H79.5a3.573,3.573,0,0,1-2.664-1.188,3.093,3.093,0,0,1-.593-2.928l3.426-14.54a5.36,5.36,0,0,1,1.959-2.979,5.206,5.206,0,0,1,3.261-1.188h12.06l.865-3.625a2.905,2.905,0,0,1,.995-1.662,3,3,0,0,1,1.847-.637,1.839,1.839,0,0,1,1.478.607,1.771,1.771,0,0,1,.318,1.692l-.857,3.625h11.945a3.082,3.082,0,0,1,2.8,1.261,3.858,3.858,0,0,1,.4,2.905l-3.432,14.54a6.217,6.217,0,0,1-1.89,2.868,5.172,5.172,0,0,1-3.284,1.248H96.2c-3.128,12.081,9.661,11.529,9.661,11.529,11.489-1.13,15.615-9.174,15.615-9.174,3.776-7.052,1.742-15.381,1.742-15.381a26.632,26.632,0,0,0-11.281-16.8C96.7-1.042,82.667,8.491,82.667,8.491a28.138,28.138,0,0,0-13,23A26.679,26.679,0,0,0,83.456,55.1c6.163,3.613,13.85,3.392,13.861,3.392,4.371.18,11.08-2.55,11.08-2.55,1.949-.783,2.832-.229,2.832-.229" transform="translate(24.899 0)" fill="#0962a8"/>
    <path id="Path_1361" data-name="Path 1361" d="M155.731,13.094c.157.01.242.138.251.385a1.056,1.056,0,0,1-.044.209,11.574,11.574,0,0,1-1.409,2.686c.1.088.187.169.267.238q.415.431.861.964l.015-.029a17.165,17.165,0,0,0,1.246-2.672.4.4,0,0,1,.3-.178.339.339,0,0,1,.356.372.542.542,0,0,1-.1.251,15.426,15.426,0,0,1-1.038,2.212,19.555,19.555,0,0,1-1.737,2.642,7.4,7.4,0,0,0,2.538-.535q-.193-.52-.372-.89a.847.847,0,0,1-.119-.238.371.371,0,0,1,.341-.372.415.415,0,0,1,.312.178,17.576,17.576,0,0,1,.83,2.345.805.805,0,0,1,.059.253c-.029.188-.158.292-.385.312a.286.286,0,0,1-.267-.193q-.089-.371-.193-.683a5.594,5.594,0,0,1-1.409.385v5.774a.356.356,0,1,1-.713,0V20.827a18.56,18.56,0,0,1-1.9.088q-.52,0-.535-.341.015-.342.475-.356h.46a17.385,17.385,0,0,0,1.455-1.974l-.1-.1a11.876,11.876,0,0,0-.9-1.024q-.415-.4-1.083-.935a.536.536,0,0,1-.178-.326.408.408,0,0,1,.356-.326.492.492,0,0,1,.326.148c.1.08.188.153.268.222a12.527,12.527,0,0,0,1.321-2.479.452.452,0,0,1,.46-.326m-1.662,8.488a.346.346,0,0,1,.37.372,19.917,19.917,0,0,1-.238,2.389,8.16,8.16,0,0,1-.416,1.4.425.425,0,0,1-.43.356.406.406,0,0,1-.341-.385.825.825,0,0,1,.059-.268,7.106,7.106,0,0,0,.43-1.513,13.013,13.013,0,0,0,.222-2.049c.01-.178.124-.276.343-.3m2.908,0a.351.351,0,0,1,.372.327,11.286,11.286,0,0,1,.519,3.057c-.021.238-.14.355-.356.355-.178-.008-.276-.127-.3-.355a13.267,13.267,0,0,0-.519-3.013.171.171,0,0,1-.015-.075c.021-.2.119-.3.3-.3m2.939-7.954H165.2a1.05,1.05,0,0,1,1.188,1.187V25.322a1.26,1.26,0,0,1-1.426,1.426,6.391,6.391,0,0,1-1.81-.3.392.392,0,0,1,.133-.772,1.349,1.349,0,0,1,.134.015,5.487,5.487,0,0,0,1.484.282.63.63,0,0,0,.713-.713V15.053a.63.63,0,0,0-.713-.713h-4.689a.63.63,0,0,0-.713.713V26.48a.385.385,0,1,1-.771,0V14.815a1.049,1.049,0,0,1,1.187-1.187m4.957,4.066a.327.327,0,0,1,0,.653H163v2.314h1.871a.327.327,0,0,1,0,.653h-3.324v1.811a.576.576,0,0,0,.652.652h2.316c.3,0,.445.119.445.356s-.148.356-.445.356h-2.494a1.049,1.049,0,0,1-1.187-1.187V21.316h-.654a.327.327,0,0,1,0-.653h2.049V18.348h-2.049a.327.327,0,0,1,0-.653Zm-4.141-2.82a.458.458,0,0,1,.341.193,8.227,8.227,0,0,1,.89,1.572.949.949,0,0,1,.059.282c-.029.2-.169.307-.414.327a.343.343,0,0,1-.3-.209,8.035,8.035,0,0,0-.817-1.5.789.789,0,0,1-.134-.267.394.394,0,0,1,.372-.4m3.844-.059c.158.01.243.14.253.385a.444.444,0,0,1-.03.134,7.642,7.642,0,0,1-.89,1.825.505.505,0,0,1-.341.149.388.388,0,0,1-.356-.4,1,1,0,0,1,.119-.222,7.536,7.536,0,0,0,.786-1.545.453.453,0,0,1,.46-.326" transform="translate(58.336 4.997)" fill="#0962a8"/>
    <path id="Path_1362" data-name="Path 1362" d="M155.731,13.094c.157.01.242.138.251.385a1.056,1.056,0,0,1-.044.209,11.574,11.574,0,0,1-1.409,2.686c.1.088.187.169.267.238q.415.431.861.964l.015-.029a17.165,17.165,0,0,0,1.246-2.672.4.4,0,0,1,.3-.178.339.339,0,0,1,.356.372.542.542,0,0,1-.1.251,15.426,15.426,0,0,1-1.038,2.212,19.555,19.555,0,0,1-1.737,2.642,7.4,7.4,0,0,0,2.538-.535q-.193-.52-.372-.89a.847.847,0,0,1-.119-.238.371.371,0,0,1,.341-.372.415.415,0,0,1,.312.178,17.576,17.576,0,0,1,.83,2.345.805.805,0,0,1,.059.253c-.029.188-.158.292-.385.312a.286.286,0,0,1-.267-.193q-.089-.371-.193-.683a5.594,5.594,0,0,1-1.409.385v5.774a.356.356,0,1,1-.713,0V20.827a18.56,18.56,0,0,1-1.9.088q-.52,0-.535-.341.015-.342.475-.356h.46a17.385,17.385,0,0,0,1.455-1.974l-.1-.1a11.876,11.876,0,0,0-.9-1.024q-.415-.4-1.083-.935a.536.536,0,0,1-.178-.326.408.408,0,0,1,.356-.326.492.492,0,0,1,.326.148c.1.08.188.153.268.222a12.527,12.527,0,0,0,1.321-2.479A.452.452,0,0,1,155.731,13.094Zm-1.662,8.488a.346.346,0,0,1,.37.372,19.917,19.917,0,0,1-.238,2.389,8.16,8.16,0,0,1-.416,1.4.425.425,0,0,1-.43.356.406.406,0,0,1-.341-.385.825.825,0,0,1,.059-.268,7.106,7.106,0,0,0,.43-1.513,13.013,13.013,0,0,0,.222-2.049C153.736,21.7,153.851,21.6,154.069,21.582Zm2.908,0a.351.351,0,0,1,.372.327,11.286,11.286,0,0,1,.519,3.057c-.021.238-.14.355-.356.355-.178-.008-.276-.127-.3-.355a13.267,13.267,0,0,0-.519-3.013.171.171,0,0,1-.015-.075C156.7,21.682,156.8,21.582,156.977,21.582Zm2.939-7.954H165.2a1.05,1.05,0,0,1,1.188,1.187V25.322a1.26,1.26,0,0,1-1.426,1.426,6.391,6.391,0,0,1-1.81-.3.392.392,0,0,1,.133-.772,1.349,1.349,0,0,1,.134.015,5.487,5.487,0,0,0,1.484.282.63.63,0,0,0,.713-.713V15.053a.63.63,0,0,0-.713-.713h-4.689a.63.63,0,0,0-.713.713V26.48a.385.385,0,1,1-.771,0V14.815A1.049,1.049,0,0,1,159.916,13.629Zm4.957,4.066a.327.327,0,0,1,0,.653H163v2.314h1.871a.327.327,0,0,1,0,.653h-3.324v1.811a.576.576,0,0,0,.652.652h2.316c.3,0,.445.119.445.356s-.148.356-.445.356h-2.494a1.049,1.049,0,0,1-1.187-1.187V21.316h-.654a.327.327,0,0,1,0-.653h2.049V18.348h-2.049a.327.327,0,0,1,0-.653Zm-4.141-2.82a.458.458,0,0,1,.341.193,8.227,8.227,0,0,1,.89,1.572.949.949,0,0,1,.059.282c-.029.2-.169.307-.414.327a.343.343,0,0,1-.3-.209,8.035,8.035,0,0,0-.817-1.5.789.789,0,0,1-.134-.267A.394.394,0,0,1,160.733,14.875Zm3.844-.059c.158.01.243.14.253.385a.444.444,0,0,1-.03.134,7.642,7.642,0,0,1-.89,1.825.505.505,0,0,1-.341.149.388.388,0,0,1-.356-.4,1,1,0,0,1,.119-.222,7.536,7.536,0,0,0,.786-1.545A.453.453,0,0,1,164.576,14.815Z" transform="translate(58.336 4.997)" fill="none" stroke="#0a5d9e" stroke-miterlimit="10" stroke-width="0.3"/>
    <path id="Path_1363" data-name="Path 1363" d="M182.916,24.523a.4.4,0,0,1,.416.4.669.669,0,0,1-.059.238,8.987,8.987,0,0,1-1.929.949,15.587,15.587,0,0,1-2.36.506c-.209.029-.336.044-.387.044q-.414-.046-.43-.416a.454.454,0,0,1,.311-.356,14.078,14.078,0,0,0,2.287-.43,7.115,7.115,0,0,0,1.781-.742.593.593,0,0,1,.37-.193m8.668-11.042a.356.356,0,1,1,0,.712h-6.1l-.55,1.485h4.482a1.1,1.1,0,0,1,1.248,1.246v5.937a1.1,1.1,0,0,1-1.248,1.246h-8.667a1.1,1.1,0,0,1-1.246-1.246V16.924a1.1,1.1,0,0,1,1.246-1.246h3.4l.548-1.485h-6.054a.356.356,0,1,1,0-.712Zm-11.31,4.808h9.617V16.968a.518.518,0,0,0-.593-.579h-8.43a.519.519,0,0,0-.594.579Zm0,2.553h9.617V19h-9.617ZM189.3,23.4a.525.525,0,0,0,.593-.594V21.555h-9.617V22.8a.526.526,0,0,0,.594.594Zm-1.871,1.127a1.693,1.693,0,0,1,.326.044,17.806,17.806,0,0,1,4.127,1.424.378.378,0,0,1,.178.312c-.01.267-.128.406-.356.416a1.092,1.092,0,0,1-.268-.059,18.815,18.815,0,0,0-4.007-1.38.39.39,0,0,1-.356-.4.357.357,0,0,1,.356-.356" transform="translate(67.985 5.144)" fill="#0962a8"/>
    <path id="Path_1364" data-name="Path 1364" d="M182.916,24.523a.4.4,0,0,1,.416.4.669.669,0,0,1-.059.238,8.987,8.987,0,0,1-1.929.949,15.587,15.587,0,0,1-2.36.506c-.209.029-.336.044-.387.044q-.414-.046-.43-.416a.454.454,0,0,1,.311-.356,14.078,14.078,0,0,0,2.287-.43,7.115,7.115,0,0,0,1.781-.742A.593.593,0,0,1,182.916,24.523Zm8.668-11.042a.356.356,0,1,1,0,.712h-6.1l-.55,1.485h4.482a1.1,1.1,0,0,1,1.248,1.246v5.937a1.1,1.1,0,0,1-1.248,1.246h-8.667a1.1,1.1,0,0,1-1.246-1.246V16.924a1.1,1.1,0,0,1,1.246-1.246h3.4l.548-1.485h-6.054a.356.356,0,1,1,0-.712Zm-11.31,4.808h9.617V16.968a.518.518,0,0,0-.593-.579h-8.43a.519.519,0,0,0-.594.579Zm0,2.553h9.617V19h-9.617ZM189.3,23.4a.525.525,0,0,0,.593-.594V21.555h-9.617V22.8a.526.526,0,0,0,.594.594Zm-1.871,1.127a1.693,1.693,0,0,1,.326.044,17.806,17.806,0,0,1,4.127,1.424.378.378,0,0,1,.178.312c-.01.267-.128.406-.356.416a1.092,1.092,0,0,1-.268-.059,18.815,18.815,0,0,0-4.007-1.38.39.39,0,0,1-.356-.4A.357.357,0,0,1,187.428,24.523Z" transform="translate(67.985 5.144)" fill="none" stroke="#0a5d9e" stroke-miterlimit="10" stroke-width="0.3"/>
    <path id="Path_1365" data-name="Path 1365" d="M208.456,15.338a.356.356,0,0,1,0,.713h-4.69a.356.356,0,1,1,0-.713Zm-3.414,6.055h2.137a1.049,1.049,0,0,1,1.187,1.187v2.731a1.056,1.056,0,0,1-1.187,1.2h-2.137a1.056,1.056,0,0,1-1.187-1.2V22.58a1.049,1.049,0,0,1,1.187-1.187m2.879-4.037a.356.356,0,1,1,0,.713h-3.681a.356.356,0,0,1,0-.713Zm0,2.018a.356.356,0,1,1,0,.713h-3.681a.356.356,0,0,1,0-.713Zm-.119-5.937a.356.356,0,1,1,0,.713h-3.5a.356.356,0,0,1,0-.713ZM207,25.787a.526.526,0,0,0,.594-.594V22.714a.531.531,0,0,0-.594-.608H205.22a.531.531,0,0,0-.594.608v2.479a.526.526,0,0,0,.594.594Zm5.076-12.349h1.75a1,1,0,0,1,1.129,1.129v3.027a.42.42,0,0,0,.475.475h.385a.482.482,0,0,0,.416-.282,2.826,2.826,0,0,0,.148-.713l.059-.817a.378.378,0,0,1,.385-.385.412.412,0,0,1,.4.416,6.367,6.367,0,0,1-.251,1.944c-.14.326-.307.51-.506.548h-1.156a1,1,0,0,1-1.129-1.127V14.536c0-.257-.158-.385-.475-.385h-2.047a.42.42,0,0,0-.475.475,9.311,9.311,0,0,1-.163,1.959,4.408,4.408,0,0,1-.653,1.5,4.26,4.26,0,0,1-1.112,1.025.125.125,0,0,0-.09.029c-.3-.029-.455-.169-.474-.416a.418.418,0,0,1,.251-.385,3.051,3.051,0,0,0,.8-.757,3.112,3.112,0,0,0,.5-1.068,8.161,8.161,0,0,0,.164-1.944,1,1,0,0,1,1.127-1.129Zm-2.316,6.055h5.758a.839.839,0,0,1,.949.949,2.451,2.451,0,0,1-.207.772,8.288,8.288,0,0,1-1.246,1.855,12.662,12.662,0,0,1-1.543,1.44c.068.05.138.1.207.148a18.052,18.052,0,0,0,3.249,1.351.431.431,0,0,1,.312.37.418.418,0,0,1-.4.4,1.557,1.557,0,0,1-.385-.088,15.752,15.752,0,0,1-3.443-1.558c-.08-.05-.149-.094-.209-.134a25.459,25.459,0,0,1-3.265,1.677,1.063,1.063,0,0,1-.267.03c-.3-.01-.452-.14-.46-.387a.453.453,0,0,1,.251-.341,25.112,25.112,0,0,0,3.073-1.469,7.628,7.628,0,0,1-1.024-.935,7.722,7.722,0,0,1-1.263-1.915.673.673,0,0,1-.088-.326.37.37,0,0,1,.385-.356.463.463,0,0,1,.372.222,7.769,7.769,0,0,0,1.246,1.915,7.685,7.685,0,0,0,1.054.951,8.2,8.2,0,0,0,1.528-1.351,7.617,7.617,0,0,0,1.143-1.6,1.467,1.467,0,0,0,.149-.55.315.315,0,0,0-.356-.355h-5.521a.332.332,0,0,1-.356-.356.344.344,0,0,1,.356-.356" transform="translate(77.617 5.128)" fill="#0962a8"/>
    <path id="Path_1366" data-name="Path 1366" d="M208.456,15.338a.356.356,0,0,1,0,.713h-4.69a.356.356,0,1,1,0-.713Zm-3.414,6.055h2.137a1.049,1.049,0,0,1,1.187,1.187v2.731a1.056,1.056,0,0,1-1.187,1.2h-2.137a1.056,1.056,0,0,1-1.187-1.2V22.58A1.049,1.049,0,0,1,205.042,21.393Zm2.879-4.037a.356.356,0,1,1,0,.713h-3.681a.356.356,0,0,1,0-.713Zm0,2.018a.356.356,0,1,1,0,.713h-3.681a.356.356,0,0,1,0-.713Zm-.119-5.937a.356.356,0,1,1,0,.713h-3.5a.356.356,0,0,1,0-.713ZM207,25.787a.526.526,0,0,0,.594-.594V22.714a.531.531,0,0,0-.594-.608H205.22a.531.531,0,0,0-.594.608v2.479a.526.526,0,0,0,.594.594Zm5.076-12.349h1.75a1,1,0,0,1,1.129,1.129v3.027a.42.42,0,0,0,.475.475h.385a.482.482,0,0,0,.416-.282,2.826,2.826,0,0,0,.148-.713l.059-.817a.378.378,0,0,1,.385-.385.412.412,0,0,1,.4.416,6.367,6.367,0,0,1-.251,1.944c-.14.326-.307.51-.506.548h-1.156a1,1,0,0,1-1.129-1.127V14.536c0-.257-.158-.385-.475-.385h-2.047a.42.42,0,0,0-.475.475,9.311,9.311,0,0,1-.163,1.959,4.408,4.408,0,0,1-.653,1.5,4.26,4.26,0,0,1-1.112,1.025.125.125,0,0,0-.09.029c-.3-.029-.455-.169-.474-.416a.418.418,0,0,1,.251-.385,3.051,3.051,0,0,0,.8-.757,3.112,3.112,0,0,0,.5-1.068,8.161,8.161,0,0,0,.164-1.944,1,1,0,0,1,1.127-1.129Zm-2.316,6.055h5.758a.839.839,0,0,1,.949.949,2.451,2.451,0,0,1-.207.772,8.288,8.288,0,0,1-1.246,1.855,12.662,12.662,0,0,1-1.543,1.44c.068.05.138.1.207.148a18.052,18.052,0,0,0,3.249,1.351.431.431,0,0,1,.312.37.418.418,0,0,1-.4.4,1.557,1.557,0,0,1-.385-.088,15.752,15.752,0,0,1-3.443-1.558c-.08-.05-.149-.094-.209-.134a25.459,25.459,0,0,1-3.265,1.677,1.063,1.063,0,0,1-.267.03c-.3-.01-.452-.14-.46-.387a.453.453,0,0,1,.251-.341,25.112,25.112,0,0,0,3.073-1.469,7.628,7.628,0,0,1-1.024-.935,7.722,7.722,0,0,1-1.263-1.915.673.673,0,0,1-.088-.326.37.37,0,0,1,.385-.356.463.463,0,0,1,.372.222,7.769,7.769,0,0,0,1.246,1.915,7.685,7.685,0,0,0,1.054.951,8.2,8.2,0,0,0,1.528-1.351,7.617,7.617,0,0,0,1.143-1.6,1.467,1.467,0,0,0,.149-.55.315.315,0,0,0-.356-.355h-5.521a.332.332,0,0,1-.356-.356A.344.344,0,0,1,209.762,19.493Z" transform="translate(77.617 5.128)" fill="none" stroke="#0a5d9e" stroke-miterlimit="10" stroke-width="0.3"/>
    <path id="Path_1367" data-name="Path 1367" d="M234.724,15.526a.356.356,0,1,1,0,.713h-5.758a.356.356,0,0,1,0-.713Zm-4.363,5.937h2.968a1.049,1.049,0,0,1,1.187,1.187V25.5a1.056,1.056,0,0,1-1.187,1.2h-2.968a1.056,1.056,0,0,1-1.188-1.2V22.65a1.049,1.049,0,0,1,1.188-1.187m3.71-3.978a.356.356,0,1,1,0,.713h-4.451a.356.356,0,1,1,0-.713Zm0,1.9a.356.356,0,1,1,0,.713h-4.451a.356.356,0,1,1,0-.713Zm-.119-5.818a.356.356,0,0,1,0,.713h-4.215a.356.356,0,0,1,0-.713Zm-.8,12.408a.526.526,0,0,0,.594-.594V22.768a.525.525,0,0,0-.594-.593h-2.611a.524.524,0,0,0-.594.593v2.613a.525.525,0,0,0,.594.594Zm8.935-8.133a.356.356,0,0,1,0,.713h-2.76V26.7a.386.386,0,0,1-.772,0V18.555h-3.057a.356.356,0,0,1,0-.713h3.057V13.329a.386.386,0,0,1,.772,0v4.512Z" transform="translate(87.233 4.939)" fill="#0962a8"/>
    <path id="Path_1368" data-name="Path 1368" d="M234.724,15.526a.356.356,0,1,1,0,.713h-5.758a.356.356,0,0,1,0-.713Zm-4.363,5.937h2.968a1.049,1.049,0,0,1,1.187,1.187V25.5a1.056,1.056,0,0,1-1.187,1.2h-2.968a1.056,1.056,0,0,1-1.188-1.2V22.65A1.049,1.049,0,0,1,230.361,21.463Zm3.71-3.978a.356.356,0,1,1,0,.713h-4.451a.356.356,0,1,1,0-.713Zm0,1.9a.356.356,0,1,1,0,.713h-4.451a.356.356,0,1,1,0-.713Zm-.119-5.818a.356.356,0,0,1,0,.713h-4.215a.356.356,0,0,1,0-.713Zm-.8,12.408a.526.526,0,0,0,.594-.594V22.768a.525.525,0,0,0-.594-.593h-2.611a.524.524,0,0,0-.594.593v2.613a.525.525,0,0,0,.594.594Zm8.935-8.133a.356.356,0,0,1,0,.713h-2.76V26.7a.386.386,0,0,1-.772,0V18.555h-3.057a.356.356,0,0,1,0-.713h3.057V13.329a.386.386,0,0,1,.772,0v4.512Z" transform="translate(87.233 4.939)" fill="none" stroke="#0a5d9e" stroke-miterlimit="10" stroke-width="0.3"/>
    <path id="Path_1369" data-name="Path 1369" d="M157.344,37.492c.178.01.274.14.282.385v.282a8.855,8.855,0,0,1-1.662,1.574,13.8,13.8,0,0,1-2.27,1.44,1.321,1.321,0,0,1-.327.059.4.4,0,0,1-.355-.356.48.48,0,0,1,.222-.356,14.619,14.619,0,0,0,2.166-1.35,9.288,9.288,0,0,0,1.574-1.514.477.477,0,0,1,.37-.163m8.281-9.291a.432.432,0,0,1,.446.446c-.03.207-.169.321-.416.341q-2.686.3-5.684.489v.327a8.548,8.548,0,0,1-1.143,1.44,9.124,9.124,0,0,1-1.307,1.127,15.573,15.573,0,0,1,2.137,1.127,1.107,1.107,0,0,1,.09.075c.088-.1.173-.2.251-.3a16.354,16.354,0,0,0,1.884-2.626.527.527,0,0,1,.387-.222.424.424,0,0,1,.445.475.677.677,0,0,1-.134.326,13.25,13.25,0,0,1-1.6,2.137,23.685,23.685,0,0,1-2.567,2.4,24.67,24.67,0,0,0,6.01-.935,10.971,10.971,0,0,0-.949-.949.791.791,0,0,1-.134-.268.4.4,0,0,1,.372-.4.458.458,0,0,1,.341.193,16.344,16.344,0,0,1,2.671,3.236.94.94,0,0,1,.059.282c-.029.2-.169.307-.414.326a.344.344,0,0,1-.3-.207,17.006,17.006,0,0,0-1.129-1.589,17.917,17.917,0,0,1-4.66.935v5.224a.385.385,0,1,1-.771,0V36.468q-2.481.222-5.745.222-.564,0-.579-.385c.01-.247.184-.377.519-.387q1.929,0,3.563-.088a21.876,21.876,0,0,0,1.929-1.677,19.419,19.419,0,0,0-4.645-2.018.4.4,0,0,1-.356-.4.357.357,0,0,1,.356-.356,1.312,1.312,0,0,1,.326.059q.966.267,1.8.579a1.141,1.141,0,0,1,.119-.1,11.181,11.181,0,0,0,1.424-1.261,5.925,5.925,0,0,0,.846-1.114q-2.418.164-5.015.253a.466.466,0,0,1-.446-.431.437.437,0,0,1,.416-.385q5.981-.133,11.605-.772m-2.968,9.351a.531.531,0,0,1,.356.163q1.187.744,1.944,1.306.787.624,1.662,1.47a.586.586,0,0,1,.1.312.4.4,0,0,1-.742.177,15.3,15.3,0,0,0-1.6-1.409,20.8,20.8,0,0,0-1.915-1.321.589.589,0,0,1-.192-.341.48.48,0,0,1,.385-.356" transform="translate(58.386 10.761)" fill="#0962a8"/>
    <path id="Path_1370" data-name="Path 1370" d="M157.344,37.492c.178.01.274.14.282.385v.282a8.855,8.855,0,0,1-1.662,1.574,13.8,13.8,0,0,1-2.27,1.44,1.321,1.321,0,0,1-.327.059.4.4,0,0,1-.355-.356.48.48,0,0,1,.222-.356,14.619,14.619,0,0,0,2.166-1.35,9.288,9.288,0,0,0,1.574-1.514A.477.477,0,0,1,157.344,37.492Zm8.281-9.291a.432.432,0,0,1,.446.446c-.03.207-.169.321-.416.341q-2.686.3-5.684.489v.327a8.548,8.548,0,0,1-1.143,1.44,9.124,9.124,0,0,1-1.307,1.127,15.573,15.573,0,0,1,2.137,1.127,1.107,1.107,0,0,1,.09.075c.088-.1.173-.2.251-.3a16.354,16.354,0,0,0,1.884-2.626.527.527,0,0,1,.387-.222.424.424,0,0,1,.445.475.677.677,0,0,1-.134.326,13.25,13.25,0,0,1-1.6,2.137,23.685,23.685,0,0,1-2.567,2.4,24.67,24.67,0,0,0,6.01-.935,10.971,10.971,0,0,0-.949-.949.791.791,0,0,1-.134-.268.4.4,0,0,1,.372-.4.458.458,0,0,1,.341.193,16.344,16.344,0,0,1,2.671,3.236.94.94,0,0,1,.059.282c-.029.2-.169.307-.414.326a.344.344,0,0,1-.3-.207,17.006,17.006,0,0,0-1.129-1.589,17.917,17.917,0,0,1-4.66.935v5.224a.385.385,0,1,1-.771,0V36.468q-2.481.222-5.745.222-.564,0-.579-.385c.01-.247.184-.377.519-.387q1.929,0,3.563-.088a21.876,21.876,0,0,0,1.929-1.677,19.419,19.419,0,0,0-4.645-2.018.4.4,0,0,1-.356-.4.357.357,0,0,1,.356-.356,1.312,1.312,0,0,1,.326.059q.966.267,1.8.579a1.141,1.141,0,0,1,.119-.1,11.181,11.181,0,0,0,1.424-1.261,5.925,5.925,0,0,0,.846-1.114q-2.418.164-5.015.253a.466.466,0,0,1-.446-.431.437.437,0,0,1,.416-.385Q160,28.841,165.625,28.2Zm-2.968,9.351a.531.531,0,0,1,.356.163q1.187.744,1.944,1.306.787.624,1.662,1.47a.586.586,0,0,1,.1.312.4.4,0,0,1-.742.177,15.3,15.3,0,0,0-1.6-1.409,20.8,20.8,0,0,0-1.915-1.321.589.589,0,0,1-.192-.341A.48.48,0,0,1,162.657,37.552Z" transform="translate(58.386 10.761)" fill="none" stroke="#0a5d9e" stroke-miterlimit="10" stroke-width="0.3"/>
    <path id="Path_1371" data-name="Path 1371" d="M171,28.008c.157.01.242.14.251.385a1.153,1.153,0,0,1-.044.209,11.228,11.228,0,0,1-1.528,2.879c.127.1.242.187.341.267a13.645,13.645,0,0,1,1.009.92,15.13,15.13,0,0,0,1.277-2.523.4.4,0,0,1,.3-.178.339.339,0,0,1,.356.372.547.547,0,0,1-.1.251,15.607,15.607,0,0,1-1.068,2.093,19.887,19.887,0,0,1-1.84,2.523,6.42,6.42,0,0,0,2.448-.55,6.144,6.144,0,0,0-.445-.742c-.029-.119-.05-.2-.059-.251a.424.424,0,0,1,.356-.372.37.37,0,0,1,.326.149,9.714,9.714,0,0,1,1.1,2.211c.03.109.05.188.059.238,0,.247-.138.372-.416.372-.138,0-.246-.1-.326-.282a6.331,6.331,0,0,0-.282-.669,4.78,4.78,0,0,1-1.38.445v5.877a.386.386,0,1,1-.772,0V35.86a17.945,17.945,0,0,1-1.869.088q-.52,0-.535-.341c.01-.228.169-.347.475-.356h.445a17.429,17.429,0,0,0,1.543-1.959.338.338,0,0,1-.119-.119,10.6,10.6,0,0,0-1.009-.92q-.477-.369-1.217-.861a.54.54,0,0,1-.178-.326.408.408,0,0,1,.356-.326.492.492,0,0,1,.326.148c.109.08.2.144.282.193a.369.369,0,0,1,.046-.075,13.156,13.156,0,0,0,1.44-2.672.452.452,0,0,1,.46-.326m-1.723,9.083a.342.342,0,0,1,.356.356,1.541,1.541,0,0,1-.014.163,16.71,16.71,0,0,1-.238,1.677,15.032,15.032,0,0,1-.46,1.633.449.449,0,0,1-.341.207.363.363,0,0,1-.372-.356.7.7,0,0,1,.1-.267,12.406,12.406,0,0,0,.387-1.455,11.554,11.554,0,0,0,.222-1.6.353.353,0,0,1,.355-.356m3.147-.119a.3.3,0,0,1,.3.238,9.367,9.367,0,0,1,.608,2.226,6.642,6.642,0,0,1,.1.862c-.01.257-.127.4-.356.414a.38.38,0,0,1-.355-.414,12.82,12.82,0,0,0-.222-1.545,10.4,10.4,0,0,0-.372-1.231.481.481,0,0,1-.059-.193.357.357,0,0,1,.356-.356m5.343-8.964a.358.358,0,0,1,.385.385v1.455h3.236a.356.356,0,1,1,0,.713h-4.422L175.641,34.4a15.265,15.265,0,0,0,4.7-.7,8.186,8.186,0,0,0-.727-1.292.788.788,0,0,1-.134-.267.4.4,0,0,1,.372-.4.458.458,0,0,1,.341.193,16.584,16.584,0,0,1,1.543,3.117.978.978,0,0,1,.059.282c-.03.2-.169.305-.416.326a.346.346,0,0,1-.3-.207q-.222-.595-.43-1.1a9.138,9.138,0,0,1-1.5.43v5.624a.367.367,0,0,0,.416.416h1.156c.149,0,.268-.109.356-.326a7.617,7.617,0,0,0,.119-1.781c0-.247.14-.377.416-.385q.356.029.385.519,0,.593-.059,1.275a1.59,1.59,0,0,1-.356,1.054,1.11,1.11,0,0,1-.861.356h-1.275a.945.945,0,0,1-1.069-1.069V34.909q-.788.1-1.737.163a.291.291,0,0,1,.015.09v1.1a10.311,10.311,0,0,1-.222,2.285,4.771,4.771,0,0,1-1.158,2.093,7.811,7.811,0,0,1-1.321,1.053.52.52,0,0,1-.356.149.465.465,0,0,1-.416-.416.445.445,0,0,1,.164-.341,5.658,5.658,0,0,0,1.143-.861,4.1,4.1,0,0,0,1.1-1.708,8.827,8.827,0,0,0,.3-2.255v-1.1a.085.085,0,0,1,.015-.059q-.787.029-1.647.029-.52,0-.535-.356c.01-.228.169-.347.475-.355h.667l1.321-3.859h-2.226a.356.356,0,1,1,0-.713h3.414V28.393a.358.358,0,0,1,.385-.385" transform="translate(64.139 10.688)" fill="#0962a8"/>
    <path id="Path_1372" data-name="Path 1372" d="M171,28.008c.157.01.242.14.251.385a1.153,1.153,0,0,1-.044.209,11.228,11.228,0,0,1-1.528,2.879c.127.1.242.187.341.267a13.645,13.645,0,0,1,1.009.92,15.13,15.13,0,0,0,1.277-2.523.4.4,0,0,1,.3-.178.339.339,0,0,1,.356.372.547.547,0,0,1-.1.251,15.607,15.607,0,0,1-1.068,2.093,19.887,19.887,0,0,1-1.84,2.523,6.42,6.42,0,0,0,2.448-.55,6.144,6.144,0,0,0-.445-.742c-.029-.119-.05-.2-.059-.251a.424.424,0,0,1,.356-.372.37.37,0,0,1,.326.149,9.714,9.714,0,0,1,1.1,2.211c.03.109.05.188.059.238,0,.247-.138.372-.416.372-.138,0-.246-.1-.326-.282a6.331,6.331,0,0,0-.282-.669,4.78,4.78,0,0,1-1.38.445v5.877a.386.386,0,1,1-.772,0V35.86a17.945,17.945,0,0,1-1.869.088q-.52,0-.535-.341c.01-.228.169-.347.475-.356h.445a17.429,17.429,0,0,0,1.543-1.959.338.338,0,0,1-.119-.119,10.6,10.6,0,0,0-1.009-.92q-.477-.369-1.217-.861a.54.54,0,0,1-.178-.326.408.408,0,0,1,.356-.326.492.492,0,0,1,.326.148c.109.08.2.144.282.193a.369.369,0,0,1,.046-.075,13.156,13.156,0,0,0,1.44-2.672A.452.452,0,0,1,171,28.008Zm-1.723,9.083a.342.342,0,0,1,.356.356,1.541,1.541,0,0,1-.014.163,16.71,16.71,0,0,1-.238,1.677,15.032,15.032,0,0,1-.46,1.633.449.449,0,0,1-.341.207.363.363,0,0,1-.372-.356.7.7,0,0,1,.1-.267,12.406,12.406,0,0,0,.387-1.455,11.554,11.554,0,0,0,.222-1.6A.353.353,0,0,1,169.274,37.091Zm3.147-.119a.3.3,0,0,1,.3.238,9.367,9.367,0,0,1,.608,2.226,6.642,6.642,0,0,1,.1.862c-.01.257-.127.4-.356.414a.38.38,0,0,1-.355-.414,12.82,12.82,0,0,0-.222-1.545,10.4,10.4,0,0,0-.372-1.231.481.481,0,0,1-.059-.193A.357.357,0,0,1,172.421,36.972Zm5.343-8.964a.358.358,0,0,1,.385.385v1.455h3.236a.356.356,0,1,1,0,.713h-4.422L175.641,34.4a15.265,15.265,0,0,0,4.7-.7,8.186,8.186,0,0,0-.727-1.292.788.788,0,0,1-.134-.267.4.4,0,0,1,.372-.4.458.458,0,0,1,.341.193,16.584,16.584,0,0,1,1.543,3.117.978.978,0,0,1,.059.282c-.03.2-.169.305-.416.326a.346.346,0,0,1-.3-.207q-.222-.595-.43-1.1a9.138,9.138,0,0,1-1.5.43v5.624a.367.367,0,0,0,.416.416h1.156c.149,0,.268-.109.356-.326a7.617,7.617,0,0,0,.119-1.781c0-.247.14-.377.416-.385q.356.029.385.519,0,.593-.059,1.275a1.59,1.59,0,0,1-.356,1.054,1.11,1.11,0,0,1-.861.356h-1.275a.945.945,0,0,1-1.069-1.069V34.909q-.788.1-1.737.163a.291.291,0,0,1,.015.09v1.1a10.311,10.311,0,0,1-.222,2.285,4.771,4.771,0,0,1-1.158,2.093,7.811,7.811,0,0,1-1.321,1.053.52.52,0,0,1-.356.149.465.465,0,0,1-.416-.416.445.445,0,0,1,.164-.341,5.658,5.658,0,0,0,1.143-.861,4.1,4.1,0,0,0,1.1-1.708,8.827,8.827,0,0,0,.3-2.255v-1.1a.085.085,0,0,1,.015-.059q-.787.029-1.647.029-.52,0-.535-.356c.01-.228.169-.347.475-.355h.667l1.321-3.859h-2.226a.356.356,0,1,1,0-.713h3.414V28.393A.358.358,0,0,1,177.764,28.008Z" transform="translate(64.139 10.688)" fill="none" stroke="#0a5d9e" stroke-miterlimit="10" stroke-width="0.3"/>
    <path id="Path_1373" data-name="Path 1373" d="M183.847,29.25h2.418q.787,0,.787.7a1.747,1.747,0,0,1-.282.8,15.091,15.091,0,0,1-2.034,2.716.306.306,0,0,0-.088.148.132.132,0,0,0,.148.149h1.4a.912.912,0,0,1,1.039,1.024,11.249,11.249,0,0,1-.757,3.8,3.5,3.5,0,0,1-.3.638,6.761,6.761,0,0,0,1.766.964,15.089,15.089,0,0,0,4.631.638h4.156c.276.01.424.138.445.385a.4.4,0,0,1-.445.385h-3.667a17.558,17.558,0,0,1-5.565-.727,6.7,6.7,0,0,1-1.75-.98,9.407,9.407,0,0,1-1.855,1.84.489.489,0,0,1-.3.134.445.445,0,0,1-.431-.431.6.6,0,0,1,.149-.3,9.334,9.334,0,0,0,1.84-1.75c-.128-.14-.247-.272-.356-.4a6.01,6.01,0,0,1-1.114-2.85.4.4,0,0,1,.372-.445.392.392,0,0,1,.4.326,5.653,5.653,0,0,0,1.009,2.553,1.28,1.28,0,0,1,.119.134,2.111,2.111,0,0,0,.119-.282,10.348,10.348,0,0,0,.757-3.592.368.368,0,0,0-.416-.416h-1.781a.583.583,0,0,1-.593-.564.846.846,0,0,1,.207-.445,17.909,17.909,0,0,0,2.285-2.939,1.645,1.645,0,0,0,.119-.326c0-.159-.1-.238-.3-.238h-2.136c-.229-.01-.343-.119-.343-.327s.113-.326.343-.326m5.015-.088h2.76v-.832a.359.359,0,0,1,.387-.385.349.349,0,0,1,.385.385v.832h2.256a1.049,1.049,0,0,1,1.187,1.187v1.009h.995a.357.357,0,0,1,0,.713h-.995v1.068a1.049,1.049,0,0,1-1.187,1.188h-2.256V35.75h3.473a.356.356,0,0,1,0,.713h-3.473v1.484h4.125a.356.356,0,1,1,0,.713h-4.125v1.246a.349.349,0,0,1-.385.385.359.359,0,0,1-.387-.385V38.66h-3.71a.356.356,0,0,1,0-.713h3.71V36.463h-3.056a.356.356,0,1,1,0-.713h3.056V34.326h-2.76a.356.356,0,0,1,0-.713h2.76V32.069h-4.007a.356.356,0,0,1,0-.713h4.007V29.873h-2.76a.356.356,0,0,1,0-.712m3.533.712v1.484h2.672v-.89a.526.526,0,0,0-.594-.594Zm0,2.2v1.543h2.078a.525.525,0,0,0,.594-.594v-.949Z" transform="translate(69.891 10.663)" fill="#0962a8"/>
    <path id="Path_1374" data-name="Path 1374" d="M183.847,29.25h2.418q.787,0,.787.7a1.747,1.747,0,0,1-.282.8,15.091,15.091,0,0,1-2.034,2.716.306.306,0,0,0-.088.148.132.132,0,0,0,.148.149h1.4a.912.912,0,0,1,1.039,1.024,11.249,11.249,0,0,1-.757,3.8,3.5,3.5,0,0,1-.3.638,6.761,6.761,0,0,0,1.766.964,15.089,15.089,0,0,0,4.631.638h4.156c.276.01.424.138.445.385a.4.4,0,0,1-.445.385h-3.667a17.558,17.558,0,0,1-5.565-.727,6.7,6.7,0,0,1-1.75-.98,9.407,9.407,0,0,1-1.855,1.84.489.489,0,0,1-.3.134.445.445,0,0,1-.431-.431.6.6,0,0,1,.149-.3,9.334,9.334,0,0,0,1.84-1.75c-.128-.14-.247-.272-.356-.4a6.01,6.01,0,0,1-1.114-2.85.4.4,0,0,1,.372-.445.392.392,0,0,1,.4.326,5.653,5.653,0,0,0,1.009,2.553,1.28,1.28,0,0,1,.119.134,2.111,2.111,0,0,0,.119-.282,10.348,10.348,0,0,0,.757-3.592.368.368,0,0,0-.416-.416h-1.781a.583.583,0,0,1-.593-.564.846.846,0,0,1,.207-.445,17.909,17.909,0,0,0,2.285-2.939,1.645,1.645,0,0,0,.119-.326c0-.159-.1-.238-.3-.238h-2.136c-.229-.01-.343-.119-.343-.327S183.618,29.25,183.847,29.25Zm5.015-.088h2.76v-.832a.359.359,0,0,1,.387-.385.349.349,0,0,1,.385.385v.832h2.256a1.049,1.049,0,0,1,1.187,1.187v1.009h.995a.357.357,0,0,1,0,.713h-.995v1.068a1.049,1.049,0,0,1-1.187,1.188h-2.256V35.75h3.473a.356.356,0,0,1,0,.713h-3.473v1.484h4.125a.356.356,0,1,1,0,.713h-4.125v1.246a.349.349,0,0,1-.385.385.359.359,0,0,1-.387-.385V38.66h-3.71a.356.356,0,0,1,0-.713h3.71V36.463h-3.056a.356.356,0,1,1,0-.713h3.056V34.326h-2.76a.356.356,0,0,1,0-.713h2.76V32.069h-4.007a.356.356,0,0,1,0-.713h4.007V29.873h-2.76a.356.356,0,0,1,0-.712Zm3.533.712v1.484h2.672v-.89a.526.526,0,0,0-.594-.594Zm0,2.2v1.543h2.078a.525.525,0,0,0,.594-.594v-.949Z" transform="translate(69.891 10.663)" fill="none" stroke="#0a5d9e" stroke-miterlimit="10" stroke-width="0.3"/>
    <path id="Path_1375" data-name="Path 1375" d="M199.874,28.416h10.863a.84.84,0,0,1,.949.951v.89a.84.84,0,0,1-.949.951h-5.1v1.217h6.025a.356.356,0,1,1,0,.712h-6.025V34.2h3.74a1,1,0,0,1,1.127,1.127v5.343h1.469a.357.357,0,0,1,0,.713H198.6a.356.356,0,0,1,0-.713h1.453V35.332A1,1,0,0,1,201.18,34.2h3.681V33.135h-5.906a.356.356,0,1,1,0-.712h5.906V31.207h-4.986a.841.841,0,0,1-.951-.951v-.89a.841.841,0,0,1,.951-.951m3.027,2.137V29.069H200.17a.419.419,0,0,0-.474.475v.533a.419.419,0,0,0,.474.475ZM200.823,35.9h8.9V35.51a.525.525,0,0,0-.593-.594h-7.718a.526.526,0,0,0-.594.594Zm0,1.6h8.9v-.949h-8.9Zm0,1.6h8.9v-.949h-8.9Zm0,1.574h8.9v-.92h-8.9Zm6.115-11.605h-3.265v1.484h3.265Zm3.5,1.484a.42.42,0,0,0,.475-.475v-.533a.42.42,0,0,0-.475-.475h-2.731v1.484Z" transform="translate(75.645 10.843)" fill="#0962a8"/>
    <path id="Path_1376" data-name="Path 1376" d="M199.874,28.416h10.863a.84.84,0,0,1,.949.951v.89a.84.84,0,0,1-.949.951h-5.1v1.217h6.025a.356.356,0,1,1,0,.712h-6.025V34.2h3.74a1,1,0,0,1,1.127,1.127v5.343h1.469a.357.357,0,0,1,0,.713H198.6a.356.356,0,0,1,0-.713h1.453V35.332A1,1,0,0,1,201.18,34.2h3.681V33.135h-5.906a.356.356,0,1,1,0-.712h5.906V31.207h-4.986a.841.841,0,0,1-.951-.951v-.89A.841.841,0,0,1,199.874,28.416Zm3.027,2.137V29.069H200.17a.419.419,0,0,0-.474.475v.533a.419.419,0,0,0,.474.475ZM200.823,35.9h8.9V35.51a.525.525,0,0,0-.593-.594h-7.718a.526.526,0,0,0-.594.594Zm0,1.6h8.9v-.949h-8.9Zm0,1.6h8.9v-.949h-8.9Zm0,1.574h8.9v-.92h-8.9Zm6.115-11.605h-3.265v1.484h3.265Zm3.5,1.484a.42.42,0,0,0,.475-.475v-.533a.42.42,0,0,0-.475-.475h-2.731v1.484Z" transform="translate(75.645 10.843)" fill="none" stroke="#0a5d9e" stroke-miterlimit="10" stroke-width="0.3"/>
    <path id="Path_1377" data-name="Path 1377" d="M215.451,28.394H217.5a.945.945,0,0,1,1.068,1.069V40.386a1.154,1.154,0,0,1-1.306,1.306,12.556,12.556,0,0,1-1.307-.3.414.414,0,0,1-.326-.356q.014-.4.445-.416c.03,0,.406.1,1.129.3a.525.525,0,0,0,.593-.594v-3.8h-2.686a18.38,18.38,0,0,1-.326,2.553,10.127,10.127,0,0,1-.669,2.419.38.38,0,0,1-.711-.209,1.88,1.88,0,0,1,.1-.43,12.393,12.393,0,0,0,.52-1.915,22.915,22.915,0,0,0,.356-3.784v-5.7a.944.944,0,0,1,1.068-1.069M215.14,35.8H217.8V32.847h-2.642v2.316c0,.238-.006.45-.014.638m.014-3.665H217.8V29.582a.419.419,0,0,0-.474-.475h-1.692a.42.42,0,0,0-.475.475Zm8.162-3.028h-2.285a.473.473,0,0,0-.535.535v4.037h5.285a.839.839,0,0,1,.949.949,3.878,3.878,0,0,1-.163.876,10.838,10.838,0,0,1-.949,2.078,10.082,10.082,0,0,1-1.322,1.75,11.973,11.973,0,0,0,2.643,1.633c.228.09.347.213.355.372a.364.364,0,0,1-.385.4c-.039,0-.138-.006-.3-.015a10.174,10.174,0,0,1-2.063-1.2c-.3-.217-.564-.426-.8-.623a19.688,19.688,0,0,1-2.316,1.737,1.126,1.126,0,0,1-.267.029c-.287-.01-.441-.14-.46-.385a.448.448,0,0,1,.251-.341,18.216,18.216,0,0,0,2.227-1.589l-.163-.192a10.493,10.493,0,0,1-1.366-2.45A11.221,11.221,0,0,1,221,34.42v-.03H220.5v7.139c0,.247-.127.372-.385.372s-.385-.124-.385-.372V29.523a1,1,0,0,1,1.127-1.129h4.275a1.05,1.05,0,0,1,1.187,1.188l-.029,2.137a1.1,1.1,0,0,1-.4.92,2.227,2.227,0,0,1-1.2.267,6.318,6.318,0,0,1-1.781-.356.5.5,0,0,1-.268-.4.4.4,0,0,1,.416-.37.3.3,0,0,1,.163.044,5.933,5.933,0,0,0,1.426.312.9.9,0,0,0,.667-.193.624.624,0,0,0,.193-.5l.044-1.737a.526.526,0,0,0-.594-.594Zm.431,9.677a7.992,7.992,0,0,0,1.232-1.574,9.92,9.92,0,0,0,.861-1.825,2.407,2.407,0,0,0,.119-.638.315.315,0,0,0-.356-.356h-3.859a11.365,11.365,0,0,0,.7,2.316,8.327,8.327,0,0,0,1.306,2.078" transform="translate(81.43 10.835)" fill="#0962a8"/>
    <path id="Path_1378" data-name="Path 1378" d="M215.451,28.394H217.5a.945.945,0,0,1,1.068,1.069V40.386a1.154,1.154,0,0,1-1.306,1.306,12.556,12.556,0,0,1-1.307-.3.414.414,0,0,1-.326-.356q.014-.4.445-.416c.03,0,.406.1,1.129.3a.525.525,0,0,0,.593-.594v-3.8h-2.686a18.38,18.38,0,0,1-.326,2.553,10.127,10.127,0,0,1-.669,2.419.38.38,0,0,1-.711-.209,1.88,1.88,0,0,1,.1-.43,12.393,12.393,0,0,0,.52-1.915,22.915,22.915,0,0,0,.356-3.784v-5.7A.944.944,0,0,1,215.451,28.394ZM215.14,35.8H217.8V32.847h-2.642v2.316C215.153,35.4,215.148,35.613,215.14,35.8Zm.014-3.665H217.8V29.582a.419.419,0,0,0-.474-.475h-1.692a.42.42,0,0,0-.475.475Zm8.162-3.028h-2.285a.473.473,0,0,0-.535.535v4.037h5.285a.839.839,0,0,1,.949.949,3.878,3.878,0,0,1-.163.876,10.838,10.838,0,0,1-.949,2.078,10.082,10.082,0,0,1-1.322,1.75,11.973,11.973,0,0,0,2.643,1.633c.228.09.347.213.355.372a.364.364,0,0,1-.385.4c-.039,0-.138-.006-.3-.015a10.174,10.174,0,0,1-2.063-1.2c-.3-.217-.564-.426-.8-.623a19.688,19.688,0,0,1-2.316,1.737,1.126,1.126,0,0,1-.267.029c-.287-.01-.441-.14-.46-.385a.448.448,0,0,1,.251-.341,18.216,18.216,0,0,0,2.227-1.589l-.163-.192a10.493,10.493,0,0,1-1.366-2.45A11.221,11.221,0,0,1,221,34.42v-.03H220.5v7.139c0,.247-.127.372-.385.372s-.385-.124-.385-.372V29.523a1,1,0,0,1,1.127-1.129h4.275a1.05,1.05,0,0,1,1.187,1.188l-.029,2.137a1.1,1.1,0,0,1-.4.92,2.227,2.227,0,0,1-1.2.267,6.318,6.318,0,0,1-1.781-.356.5.5,0,0,1-.268-.4.4.4,0,0,1,.416-.37.3.3,0,0,1,.163.044,5.933,5.933,0,0,0,1.426.312.9.9,0,0,0,.667-.193.624.624,0,0,0,.193-.5l.044-1.737a.526.526,0,0,0-.594-.594Zm.431,9.677a7.992,7.992,0,0,0,1.232-1.574,9.92,9.92,0,0,0,.861-1.825,2.407,2.407,0,0,0,.119-.638.315.315,0,0,0-.356-.356h-3.859a11.365,11.365,0,0,0,.7,2.316A8.327,8.327,0,0,0,223.747,38.783Z" transform="translate(81.43 10.835)" fill="none" stroke="#0a5d9e" stroke-miterlimit="10" stroke-width="0.3"/>
    <path id="Path_1379" data-name="Path 1379" d="M228.926,33.381h4.986c.514,0,.772.217.772.652a2.5,2.5,0,0,1-.075.431,9.229,9.229,0,0,1-.445,1.321,10.648,10.648,0,0,1-.788,1.528.378.378,0,0,1-.3.134.46.46,0,0,1-.4-.356,1.08,1.08,0,0,1,.178-.326,6.31,6.31,0,0,0,.49-.891,7.477,7.477,0,0,0,.475-1.216c.059-.229.088-.351.088-.372,0-.169-.109-.253-.326-.253h-1.307v6.619a1.049,1.049,0,0,1-1.187,1.188,6.087,6.087,0,0,1-1.781-.356,1.1,1.1,0,0,1-.193-.282c.01-.276.129-.421.356-.431a1.267,1.267,0,0,1,.149.015,3.717,3.717,0,0,0,1.35.341.525.525,0,0,0,.594-.594V35.281a13.117,13.117,0,0,1-.638,1.394,10.686,10.686,0,0,1-1.721,2.375.467.467,0,0,1-.341.178.383.383,0,0,1-.387-.356.819.819,0,0,1,.075-.238,12.578,12.578,0,0,0,1.662-2.166,13.88,13.88,0,0,0,1.1-2.375c0-.039.006-.059.015-.059h-2.4a.326.326,0,1,1,0-.652m.238-4.869h4.154c.594,0,.891.217.891.653a1.248,1.248,0,0,1-.119.37,6.988,6.988,0,0,1-.727,1.188,9.7,9.7,0,0,1-1.292,1.365q.356.313.7.623a.52.52,0,0,1,.1.3.354.354,0,0,1-.37.341.362.362,0,0,1-.312-.178c-.406-.385-.8-.727-1.173-1.024-.356-.267-.825-.579-1.409-.935a.536.536,0,0,1-.178-.326.408.408,0,0,1,.356-.326.492.492,0,0,1,.326.148q.877.535,1.4.92l.044-.088a6.832,6.832,0,0,0,.832-.757,4.514,4.514,0,0,0,.771-1.054,1.834,1.834,0,0,0,.163-.311c0-.17-.124-.253-.37-.253h-3.784a.327.327,0,1,1,0-.653m6.2,7.57h2.419q.089-.624.133-1.277c.021-.247.139-.377.356-.385a.394.394,0,0,1,.356.385c-.029.475-.069.9-.119,1.277h2.4a.892.892,0,0,1,1.01,1.009,18.385,18.385,0,0,1-.341,3.636,1.069,1.069,0,0,1-.594.891,1.882,1.882,0,0,1-.995.222,4.613,4.613,0,0,1-1.662-.416.49.49,0,0,1-.238-.356.392.392,0,0,1,.431-.416h.059a3.687,3.687,0,0,0,1.4.416.929.929,0,0,0,.519-.119.54.54,0,0,0,.3-.356,4.229,4.229,0,0,0,.209-1.172,14.561,14.561,0,0,0,.148-1.974.577.577,0,0,0-.652-.653h-2.093c-.05.2-.094.377-.134.535a6.437,6.437,0,0,1-.949,2.137,4.885,4.885,0,0,1-1.292,1.365,5.738,5.738,0,0,1-1.869.966.409.409,0,0,1-.149.029.431.431,0,0,1-.43-.4.336.336,0,0,1,.282-.312,6.677,6.677,0,0,0,1.9-.98,4.928,4.928,0,0,0,1.112-1.29,6.125,6.125,0,0,0,.728-1.811,2,2,0,0,0,.044-.238h-2.285a.356.356,0,1,1,0-.712m1.246-8.074c.207.01.326.134.356.372l-.015.059q-.089.4-.207.815h5.209a.356.356,0,0,1,0,.713h-1.009a.566.566,0,0,1-.044.222,9.824,9.824,0,0,1-1.1,1.959,4.919,4.919,0,0,1-.475.594,17.161,17.161,0,0,0,3.042,1.543.391.391,0,0,1,.238.356.44.44,0,0,1-.4.37,2.287,2.287,0,0,1-.341-.088,16.8,16.8,0,0,1-3.057-1.647,8.1,8.1,0,0,1-.964.742,8.681,8.681,0,0,1-2.509.993.394.394,0,0,1-.385-.355q.014-.3.356-.356a7.248,7.248,0,0,0,2.182-.92,8.022,8.022,0,0,0,.742-.535,7.643,7.643,0,0,1-1.143-1.114,5.9,5.9,0,0,1-.832-1.277,5.329,5.329,0,0,1-.579.935,5.876,5.876,0,0,1-.92.995.346.346,0,0,1-.251.075.391.391,0,0,1-.387-.327.708.708,0,0,1,.134-.326,8.247,8.247,0,0,0,.713-.713,6.014,6.014,0,0,0,.742-1.172,9.7,9.7,0,0,0,.548-1.6.338.338,0,0,1,.356-.312m.178,1.959a4,4,0,0,0,.817,1.306,7.133,7.133,0,0,0,1.158,1.083c.158-.177.3-.345.414-.5a10.651,10.651,0,0,0,1.025-1.884Z" transform="translate(87.183 10.688)" fill="#0962a8"/>
    <path id="Path_1380" data-name="Path 1380" d="M228.926,33.381h4.986c.514,0,.772.217.772.652a2.5,2.5,0,0,1-.075.431,9.229,9.229,0,0,1-.445,1.321,10.648,10.648,0,0,1-.788,1.528.378.378,0,0,1-.3.134.46.46,0,0,1-.4-.356,1.08,1.08,0,0,1,.178-.326,6.31,6.31,0,0,0,.49-.891,7.477,7.477,0,0,0,.475-1.216c.059-.229.088-.351.088-.372,0-.169-.109-.253-.326-.253h-1.307v6.619a1.049,1.049,0,0,1-1.187,1.188,6.087,6.087,0,0,1-1.781-.356,1.1,1.1,0,0,1-.193-.282c.01-.276.129-.421.356-.431a1.267,1.267,0,0,1,.149.015,3.717,3.717,0,0,0,1.35.341.525.525,0,0,0,.594-.594V35.281a13.117,13.117,0,0,1-.638,1.394,10.686,10.686,0,0,1-1.721,2.375.467.467,0,0,1-.341.178.383.383,0,0,1-.387-.356.819.819,0,0,1,.075-.238,12.578,12.578,0,0,0,1.662-2.166,13.88,13.88,0,0,0,1.1-2.375c0-.039.006-.059.015-.059h-2.4a.326.326,0,1,1,0-.652Zm.238-4.869h4.154c.594,0,.891.217.891.653a1.248,1.248,0,0,1-.119.37,6.988,6.988,0,0,1-.727,1.188,9.7,9.7,0,0,1-1.292,1.365q.356.313.7.623a.52.52,0,0,1,.1.3.354.354,0,0,1-.37.341.362.362,0,0,1-.312-.178c-.406-.385-.8-.727-1.173-1.024-.356-.267-.825-.579-1.409-.935a.536.536,0,0,1-.178-.326.408.408,0,0,1,.356-.326.492.492,0,0,1,.326.148q.877.535,1.4.92l.044-.088a6.832,6.832,0,0,0,.832-.757,4.514,4.514,0,0,0,.771-1.054,1.834,1.834,0,0,0,.163-.311c0-.17-.124-.253-.37-.253h-3.784a.327.327,0,1,1,0-.653Zm6.2,7.57h2.419q.089-.624.133-1.277c.021-.247.139-.377.356-.385a.394.394,0,0,1,.356.385c-.029.475-.069.9-.119,1.277h2.4a.892.892,0,0,1,1.01,1.009,18.385,18.385,0,0,1-.341,3.636,1.069,1.069,0,0,1-.594.891,1.882,1.882,0,0,1-.995.222,4.613,4.613,0,0,1-1.662-.416.49.49,0,0,1-.238-.356.392.392,0,0,1,.431-.416h.059a3.687,3.687,0,0,0,1.4.416.929.929,0,0,0,.519-.119.54.54,0,0,0,.3-.356,4.229,4.229,0,0,0,.209-1.172,14.561,14.561,0,0,0,.148-1.974.577.577,0,0,0-.652-.653h-2.093c-.05.2-.094.377-.134.535a6.437,6.437,0,0,1-.949,2.137,4.885,4.885,0,0,1-1.292,1.365,5.738,5.738,0,0,1-1.869.966.409.409,0,0,1-.149.029.431.431,0,0,1-.43-.4.336.336,0,0,1,.282-.312,6.677,6.677,0,0,0,1.9-.98,4.928,4.928,0,0,0,1.112-1.29,6.125,6.125,0,0,0,.728-1.811,2,2,0,0,0,.044-.238h-2.285a.356.356,0,1,1,0-.712Zm1.246-8.074c.207.01.326.134.356.372l-.015.059q-.089.4-.207.815h5.209a.356.356,0,0,1,0,.713h-1.009a.566.566,0,0,1-.044.222,9.824,9.824,0,0,1-1.1,1.959,4.919,4.919,0,0,1-.475.594,17.161,17.161,0,0,0,3.042,1.543.391.391,0,0,1,.238.356.44.44,0,0,1-.4.37,2.287,2.287,0,0,1-.341-.088,16.8,16.8,0,0,1-3.057-1.647,8.1,8.1,0,0,1-.964.742,8.681,8.681,0,0,1-2.509.993.394.394,0,0,1-.385-.355q.014-.3.356-.356a7.248,7.248,0,0,0,2.182-.92,8.022,8.022,0,0,0,.742-.535,7.643,7.643,0,0,1-1.143-1.114,5.9,5.9,0,0,1-.832-1.277,5.329,5.329,0,0,1-.579.935,5.876,5.876,0,0,1-.92.995.346.346,0,0,1-.251.075.391.391,0,0,1-.387-.327.708.708,0,0,1,.134-.326,8.247,8.247,0,0,0,.713-.713,6.014,6.014,0,0,0,.742-1.172,9.7,9.7,0,0,0,.548-1.6A.338.338,0,0,1,236.613,28.008Zm.178,1.959a4,4,0,0,0,.817,1.306,7.133,7.133,0,0,0,1.158,1.083c.158-.177.3-.345.414-.5a10.651,10.651,0,0,0,1.025-1.884Z" transform="translate(87.183 10.688)" fill="none" stroke="#0a5d9e" stroke-miterlimit="10" stroke-width="0.3"/>
  </g>
</svg>
