<?xml version="1.0" encoding="utf-8"?>
<!-- Generator: Adobe Illustrator 26.1.0, SVG Export Plug-In . SVG Version: 6.00 Build 0)  -->
<svg version="1.1" id="圖層_1" xmlns="http://www.w3.org/2000/svg" xmlns:xlink="http://www.w3.org/1999/xlink" x="0px" y="0px"
	 viewBox="0 0 413 350" style="enable-background:new 0 0 413 350;" xml:space="preserve">
<style type="text/css">
	.st0{fill:#E75000;}
	.st1{fill:#3F3D56;}
	.st2{fill:#FFC023;}
	.st3{opacity:0.1;enable-background:new    ;}
	.st4{fill:#F2F2F2;}
	.st5{fill:#FFFFFF;}
</style>
<g id="service-1" transform="translate(-238 -1044)">
	<g id="Group_99" transform="translate(623.738 1097.361)">
		<rect id="Rectangle_191" x="0" y="43.9" class="st0" width="17.3" height="15.7"/>
		<path id="Path_183" class="st1" d="M27.3,49.5H7.1V29.3h20.2C27.3,29.3,27.3,49.5,27.3,49.5z M8,48.6h18.4V30.2H8V48.6z"/>
	</g>
	<g id="Group_98" transform="translate(238 1044)">
		<g id="Group_97">
			<rect id="Rectangle_190" y="46.6" class="st0" width="21.3" height="21.3"/>
			<path id="Path_182" class="st1" d="M36.9,56.7H9.5V29.3h27.4V56.7z M10.7,55.5h25.1v-25H10.7V55.5z"/>
		</g>
	</g>
	<path id="Path_177" class="st1" d="M583.8,1102.1H468.1v-2.5h-52.4v2.5H299.6c-4.4,0.1-7.9,3.8-7.8,8.2l0,0v165.9
		c-0.1,4.4,3.4,8.1,7.8,8.2h284.1c4.4-0.1,7.9-3.8,7.8-8.2v-165.9C591.7,1105.9,588.2,1102.2,583.8,1102.1L583.8,1102.1z"/>
	<path id="Path_432" class="st2" d="M295.9,1116.6h292.2v164.8H295.9V1116.6z"/>
	<circle id="Ellipse_4" class="st2" cx="441.5" cy="1109.1" r="3"/>
	<path id="Path_178" class="st3" d="M507.2,1281.4H298.5v-164.8L507.2,1281.4z"/>
	<path id="Path_180" class="st1" d="M600.2,1270.9h-27.3v-2.1c0-0.2-0.2-0.4-0.4-0.4h-9.4c-0.2,0-0.4,0.2-0.4,0.4l0,0v2.1h-5.9v-2.1
		c0-0.2-0.2-0.4-0.4-0.4H547c-0.2,0-0.4,0.2-0.4,0.4l0,0v2.1h-5.9v-2.1c0-0.2-0.2-0.4-0.4-0.4h-9.4c-0.2,0-0.4,0.2-0.4,0.4l0,0v2.1
		h-5.9v-2.1c0-0.2-0.2-0.4-0.4-0.4h-9.4c-0.2,0-0.4,0.2-0.4,0.4l0,0v2.1h-5.9v-2.1c0-0.2-0.2-0.4-0.4-0.4h-9.4
		c-0.2,0-0.4,0.2-0.4,0.4l0,0v2.1h-5.9v-2.1c0-0.2-0.2-0.4-0.4-0.4h-9.4c-0.2,0-0.4,0.2-0.4,0.4l0,0v2.1h-5.9v-2.1
		c0-0.2-0.2-0.4-0.4-0.4h-73.4c-0.2,0-0.4,0.2-0.4,0.4l0,0v2.1h-5.9v-2.1c0-0.2-0.2-0.4-0.4-0.4H387c-0.2,0-0.4,0.2-0.4,0.4l0,0v2.1
		h-5.9v-2.1c0-0.2-0.2-0.4-0.4-0.4H371c-0.2,0-0.4,0.2-0.4,0.4l0,0v2.1h-5.9v-2.1c0-0.2-0.2-0.4-0.4-0.4H355c-0.2,0-0.4,0.2-0.4,0.4
		l0,0v2.1h-5.9v-2.1c0-0.2-0.2-0.4-0.4-0.4H339c-0.2,0-0.4,0.2-0.4,0.4l0,0v2.1h-5.9v-2.1c0-0.2-0.2-0.4-0.4-0.4H323
		c-0.2,0-0.4,0.2-0.4,0.4l0,0v2.1h-5.9v-2.1c0-0.2-0.2-0.4-0.4-0.4H307c-0.2,0-0.4,0.2-0.4,0.4l0,0v2.1h-18
		c-5.3,0.1-9.5,4.5-9.4,9.8v4.4c-0.1,5.3,4.1,9.7,9.4,9.8h311.5c5.3-0.1,9.5-4.5,9.4-9.8v-4.4C609.7,1275.4,605.5,1271,600.2,1270.9
		z"/>
	<g id="Group_91" transform="translate(381.419 1094.859)">
		<rect id="Rectangle_180" x="128.5" y="114.8" class="st1" width="27.3" height="5.7"/>
		<rect id="Rectangle_181" x="95.5" y="70.4" class="st1" width="93.3" height="2.4"/>
		<rect id="Rectangle_182" x="95.5" y="78.2" class="st1" width="93.3" height="2.4"/>
		<rect id="Rectangle_183" x="95.5" y="85.9" class="st1" width="93.3" height="2.4"/>
		<rect id="Rectangle_184" x="95.5" y="93.7" class="st1" width="93.3" height="2.4"/>
		<rect id="Rectangle_185" x="95.5" y="101.4" class="st1" width="93.3" height="2.4"/>
		<rect id="Rectangle_186" x="177.4" y="29.3" class="st4" width="11.4" height="11.4"/>
		<path id="Path_179" class="st1" d="M194.1,46h-13.9V32.1h13.9V46z M180.9,45.4h12.6V32.7h-12.6V45.4z"/>
		<g id="Group_88" transform="translate(0 12.254)">
			<ellipse id="Ellipse_5" class="st4" cx="28.6" cy="82.5" rx="28.1" ry="28.1"/>
			<path id="Path_181" class="st1" d="M35.4,100.1C15.8,100.1,0,84.2,0,64.7c0-19.6,15.8-35.4,35.4-35.4s35.4,15.8,35.4,35.4l0,0
				C70.8,84.2,54.9,100.1,35.4,100.1z M35.4,30.2c-19,0-34.5,15.4-34.5,34.5s15.4,34.5,34.5,34.5s34.5-15.4,34.5-34.5l0,0
				C69.9,45.6,54.4,30.2,35.4,30.2L35.4,30.2L35.4,30.2z"/>
		</g>
	</g>
	<g id="Group_89" transform="translate(576.386 1145.068)">
		<path id="Path_185" class="st1" d="M74.6,64.8h-0.8V42.3c0-7.2-5.8-13-13-13l0,0H13c-7.2,0-13,5.8-13,13l0,0l0,0v123.6
			c0,7.2,5.8,13,13,13l0,0h47.7c7.2,0,13-5.8,13-13l0,0l0,0v-85h0.8L74.6,64.8z"/>
		<path id="Path_186" class="st2" d="M71,43.1v123.4c0,5.4-4.4,9.7-9.7,9.7h-48c-5.4,0-9.7-4.4-9.7-9.7V43.1c0-5.4,4.4-9.7,9.7-9.7
			h5.8c-1,2.4,0.2,5.1,2.5,6c0.6,0.2,1.1,0.3,1.7,0.3h27.3c2.6,0,4.6-2.1,4.6-4.6c0-0.6-0.1-1.2-0.3-1.7h6.2
			C66.7,33.4,71,37.7,71,43.1z"/>
		<rect id="Rectangle_193" x="30.2" y="114.7" class="st1" width="14.3" height="4.2"/>
		<rect id="Rectangle_194" x="12.9" y="81.8" class="st1" width="48.8" height="1.8"/>
		<rect id="Rectangle_195" x="12.9" y="87.5" class="st1" width="48.8" height="1.8"/>
		<rect id="Rectangle_196" x="12.9" y="93.2" class="st1" width="48.8" height="1.8"/>
		<rect id="Rectangle_197" x="12.9" y="99" class="st1" width="48.8" height="1.8"/>
		<rect id="Rectangle_198" x="12.9" y="104.7" class="st1" width="48.8" height="1.8"/>
		<rect id="Rectangle_199" x="30.5" y="57.7" class="st4" width="8.5" height="8.5"/>
		<path id="Path_187" class="st1" d="M33.8,59.8v10.3h10.3V59.8H33.8z M43.6,69.6h-9.4v-9.4h9.4V69.6z"/>
		<path id="Path_188" class="st3" d="M71,153.3v13.2c0,5.4-4.4,9.7-9.7,9.7h-48c-5.4,0-9.7-4.4-9.7-9.7V100L44,131.9l0.7,0.5
			l7.5,5.9l0.7,0.6L71,153.3z"/>
		<ellipse id="Ellipse_6" class="st4" cx="33.2" cy="157" rx="15.2" ry="15.2"/>
		<path id="Path_190" class="st1" d="M37.6,168.7c-10.5,0-19-8.5-19-19s8.5-19,19-19s19,8.5,19,19l0,0
			C56.6,160.2,48.1,168.7,37.6,168.7z M37.6,131.4c-10.1,0-18.3,8.2-18.3,18.3S27.5,168,37.6,168s18.3-8.2,18.3-18.3l0,0
			C55.9,139.6,47.7,131.4,37.6,131.4z"/>
	</g>
	<g id="Group_94" transform="translate(238 1116.859)">
		<g id="Group_87" transform="translate(0 0)">
			<g id="Group_86">
				<path id="Rectangle_294" class="st1" d="M20.8,29.3h93.6c11,0,20,9,20,20v137.6c0,11-9,20-20,20H20.8c-11,0-20-9-20-20V49.3
					C0.8,38.2,9.8,29.3,20.8,29.3z"/>
				<rect id="Rectangle_295" x="7.6" y="46.1" class="st5" width="120" height="144"/>
				<ellipse id="Ellipse_162" class="st5" cx="67.1" cy="37.4" rx="1.6" ry="1.6"/>
				<ellipse id="Ellipse_163" class="st5" cx="67.1" cy="198.2" rx="4.9" ry="4.9"/>
				<circle id="Ellipse_164" class="st5" cx="0.5" cy="89" r="0.5"/>
			</g>
		</g>
		<rect id="Rectangle_296" x="6.6" y="46.3" class="st2" width="121.3" height="145.3"/>
		<path id="Path_431" class="st3" d="M127.9,189.8H6.6V47L127.9,189.8z"/>
		<g id="Group_92" transform="translate(30.256 51.292)">
			<rect id="Rectangle_180-2" x="25.9" y="64.2" class="st1" width="21.4" height="4.5"/>
			<rect id="Rectangle_181-2" x="0" y="29.3" class="st1" width="73.3" height="1.9"/>
			<rect id="Rectangle_182-2" x="0" y="35.4" class="st1" width="73.3" height="1.9"/>
			<rect id="Rectangle_183-2" x="0" y="41.4" class="st1" width="73.3" height="1.9"/>
			<rect id="Rectangle_184-2" x="0" y="47.5" class="st1" width="73.3" height="1.9"/>
			<rect id="Rectangle_185-2" x="0" y="53.6" class="st1" width="73.3" height="1.9"/>
		</g>
		<g id="Group_93" transform="translate(60.609 28.373)">
			<rect id="Rectangle_186-2" x="0" y="29.3" class="st4" width="9" height="9"/>
			<path id="Path_179-2" class="st1" d="M13.1,42.4H2.2V31.5h10.9C13.1,31.5,13.1,42.4,13.1,42.4z M2.7,41.9h9.9V32H2.7V41.9z"/>
		</g>
		<g id="Group_88-2" transform="translate(46.543 106.474)">
			<ellipse id="Ellipse_5-2" class="st4" cx="16.5" cy="60" rx="16.2" ry="16.2"/>
			<path id="Path_181-2" class="st1" d="M20.4,70.2C9.2,70.2,0,61,0,49.7s9.2-20.4,20.4-20.4c11.3,0,20.4,9.2,20.4,20.4l0,0
				C40.9,61,31.7,70.2,20.4,70.2z M20.4,29.8c-11,0-19.9,8.9-19.9,19.9s8.9,19.9,19.9,19.9s19.9-8.9,19.9-19.9l0,0
				C40.3,38.7,31.4,29.8,20.4,29.8L20.4,29.8L20.4,29.8z"/>
		</g>
	</g>
	<g id="Group_102" transform="translate(555.373 1276.613) rotate(90)">
		<circle id="Ellipse_2" class="st4" cx="45.4" cy="18.4" r="16.1"/>
		<circle id="Ellipse_3" class="st0" cx="48" cy="16.1" r="16.1"/>
		<path id="Path_189" class="st1" d="M65.3,54.5c-13,0-23.6-10.6-23.6-23.6S52.2,7.2,65.3,7.2s23.6,10.6,23.6,23.6l0,0
			C88.9,43.9,78.3,54.5,65.3,54.5z M65.3,7.8c-12.8,0-23.1,10.3-23.1,23s10.3,23.1,23.1,23.1s23.1-10.3,23.1-23.1l0,0
			C88.3,18.1,78,7.8,65.3,7.8z"/>
	</g>
</g>
</svg>
