<?xml version="1.0" encoding="utf-8"?>
<!-- Generator: Adobe Illustrator 26.1.0, SVG Export Plug-In . SVG Version: 6.00 Build 0)  -->
<svg version="1.1" id="service-5" xmlns="http://www.w3.org/2000/svg" xmlns:xlink="http://www.w3.org/1999/xlink" x="0px" y="0px"
	 viewBox="0 0 300 221" style="enable-background:new 0 0 300 221;" xml:space="preserve">
<style type="text/css">
	.st0{clip-path:url(#SVGID_00000067234088875982654790000010772384638758077568_);}
	.st1{fill:#F5F5F5;}
	.st2{fill:#EBEBEB;}
	.st3{clip-path:url(#SVGID_00000082334090724035863710000010702358325469843125_);}
	.st4{fill:#E0E0E0;}
	.st5{fill:#263238;}
	.st6{fill:#FFFFFF;}
	.st7{fill:#455A64;}
	.st8{fill:#FFC023;}
	.st9{fill:#F4C45B;}
	.st10{fill:#EFD8A3;}
	.st11{fill:#FAFAFA;}
	.st12{fill:#FFBE9D;}
	.st13{fill:#EB996E;}
	.st14{opacity:0.3;}
	.st15{clip-path:url(#SVGID_00000070799422192766605880000009371044476080994699_);}
	.st16{clip-path:url(#SVGID_00000005964791451260442100000007213853681829953699_);}
	.st17{clip-path:url(#SVGID_00000060005784971924299000000002023934187770497183_);}
	.st18{clip-path:url(#SVGID_00000170258488780966375300000010345794850423963038_);}
</style>
<g>
	<defs>
		<rect id="SVGID_1_" x="11" y="16.9" width="278.5" height="187.5"/>
	</defs>
	<clipPath id="SVGID_00000042007317516068118580000004934003598952452258_">
		<use xlink:href="#SVGID_1_"  style="overflow:visible;"/>
	</clipPath>
	<g id="Group_380" style="clip-path:url(#SVGID_00000042007317516068118580000004934003598952452258_);">
		<path id="Path_1210" class="st1" d="M33.3,163.3v19h-3.2v2.1h3.2v12.7h59.3v-11.6h-4.4V183h4.4v-3.8h1.9v-1.7h-2.3v-14.2H33.3z"/>
		<path id="Path_1211" class="st2" d="M76.8,163.4v33.5h15.7v-11.6h-4.4V183l4.4,0.1v-3.8h2l0-1.9l-2.3-0.1v-14L76.8,163.4z"/>
		<g id="Group_379">
			<g>
				<defs>
					<rect id="SVGID_00000102519678462779712050000000156949811849217968_" x="11" y="16.9" width="278.5" height="187.5"/>
				</defs>
				<clipPath id="SVGID_00000072991061164043399960000008977694971572552588_">
					<use xlink:href="#SVGID_00000102519678462779712050000000156949811849217968_"  style="overflow:visible;"/>
				</clipPath>
				<g id="Group_378" style="clip-path:url(#SVGID_00000072991061164043399960000008977694971572552588_);">
					<path id="Path_1212" class="st4" d="M78,184.1c0,0.1-10.7,0.2-24,0.2s-24-0.1-24-0.2c0-0.1,10.7-0.2,24-0.2S78,184,78,184.1"/>
					<path id="Path_1213" class="st4" d="M78,182.2c0,0.1-10.7,0.2-24,0.2s-24-0.1-24-0.2s10.7-0.2,24-0.2S78,182.1,78,182.2"/>
					<path id="Path_1214" class="st4" d="M81,177c0,0.1-10.7,0.2-24,0.2s-24-0.1-24-0.2s10.7-0.2,24-0.2S81,176.9,81,177"/>
					<path id="Path_1215" class="st4" d="M81.3,191.2c0,0.1-10.7,0.2-24,0.2s-24-0.1-24-0.2c0-0.1,10.7-0.2,24-0.2
						S81.3,191,81.3,191.2"/>
					<path id="Path_1216" class="st2" d="M158.3,32.6c1.3-0.8,2.8-1.4,4.3-1.9l0.9-4.2l7.2-0.1l1,4.2c1.5,0.4,3,1,4.4,1.7l3.6-2.4
						l5.2,5l-2.2,3.7c0.8,1.3,1.4,2.8,1.9,4.3l4.2,0.9l0.1,7.2l-4.2,1c-0.4,1.5-1,3-1.7,4.4l2.4,3.6l-5,5.2l-3.7-2.2
						c-1.3,0.8-2.8,1.4-4.3,1.9l-0.9,4.2l-7.2,0.1l-1-4.2c-1.5-0.4-3-1-4.4-1.7l-3.6,2.4l-5.2-5l2.2-3.7c-0.8-1.3-1.4-2.8-1.9-4.3
						l-4.2-0.9l-0.1-7.2l4.2-1c0.4-1.5,1-3,1.7-4.4l-2.4-3.6l5-5.2L158.3,32.6z M162.1,42.2c-3,3.1-2.9,7.9,0.2,10.9
						c3.1,3,7.9,2.9,10.9-0.2c3-3.1,2.9-7.9-0.2-10.9C169.9,39,165,39.1,162.1,42.2C162.1,42.2,162.1,42.2,162.1,42.2"/>
					<path id="Path_1217" class="st2" d="M198.1,24.2c0.8-0.5,1.6-0.8,2.5-1.1l0.5-2.5l4.2-0.1l0.6,2.5c0.9,0.2,1.7,0.6,2.5,1
						l2.1-1.4l3,2.9l-1.3,2.2c0.5,0.8,0.8,1.6,1.1,2.5l2.5,0.5l0.1,4.2l-2.5,0.6c-0.2,0.9-0.6,1.7-1,2.5l1.4,2.1l-2.9,3l-2.2-1.3
						c-0.8,0.5-1.6,0.8-2.5,1.1l-0.5,2.5l-4.2,0.1l-0.6-2.5c-0.9-0.2-1.7-0.6-2.5-1l-2.1,1.4l-3-2.9l1.3-2.2
						c-0.5-0.8-0.8-1.6-1.1-2.5l-2.5-0.5l-0.1-4.2l2.5-0.6c0.2-0.9,0.6-1.7,1-2.5l-1.4-2.1l2.9-3L198.1,24.2z M200.3,29.8
						c-1.7,1.8-1.7,4.6,0.1,6.4c1.8,1.7,4.6,1.7,6.4-0.1c1.7-1.8,1.7-4.6-0.1-6.4C204.9,27.9,202,28,200.3,29.8"/>
					<path id="Path_1218" class="st2" d="M260.7,88.5c1-0.6,2.2-1.1,3.3-1.4l0.7-3.3l5.6-0.1l0.8,3.3c1.2,0.3,2.3,0.7,3.4,1.3
						l2.8-1.8l4,3.9l-1.7,2.9c0.6,1,1.1,2.2,1.4,3.3l3.3,0.7l0.1,5.6l-3.3,0.8c-0.3,1.2-0.7,2.3-1.3,3.4l1.8,2.8l-3.9,4l-2.9-1.7
						c-1,0.6-2.2,1.1-3.3,1.4l-0.7,3.3l-5.6,0.1l-0.8-3.3c-1.2-0.3-2.3-0.7-3.4-1.3l-2.8,1.8l-4-3.9l1.7-2.9c-0.6-1-1.1-2.2-1.4-3.3
						l-3.3-0.7l-0.1-5.6l3.3-0.8c0.3-1.2,0.7-2.3,1.3-3.4l-1.8-2.8l3.9-4L260.7,88.5z M263.7,95.9c-2.3,2.4-2.2,6.2,0.1,8.5
						c2.4,2.3,6.2,2.2,8.5-0.1s2.2-6.2-0.1-8.5c0,0,0,0,0,0C269.8,93.4,266,93.5,263.7,95.9"/>
					<path id="Path_1219" class="st5" d="M284.4,197.4c0,0.1-61.2,0.1-136.7,0.1c-75.5,0-136.7,0-136.7-0.1s61.2-0.1,136.7-0.1
						C223.2,197.3,284.4,197.4,284.4,197.4"/>
					<rect id="Rectangle_1292" x="12.4" y="16.9" class="st6" width="149.9" height="117.3"/>
					<rect id="Rectangle_1293" x="12.5" y="16.9" class="st5" width="150.4" height="9.8"/>
					<rect id="Rectangle_1294" x="12.5" y="26.7" class="st7" width="8.4" height="107.5"/>
					<rect id="Rectangle_1295" x="12.5" y="26.7" class="st7" width="150.4" height="6.5"/>
					<path id="Path_1220" class="st6" d="M15.5,24.3c-0.1,0-0.2-0.1-0.2-0.2c0-0.1,0-0.1,0.1-0.1l4.8-4.9c0.1-0.1,0.2-0.1,0.3,0
						c0.1,0.1,0.1,0.2,0,0.3l-4.8,4.9C15.6,24.3,15.6,24.3,15.5,24.3"/>
					<path id="Path_1221" class="st6" d="M20.3,24.3c-0.1,0-0.1,0-0.1-0.1l-4.9-4.8c-0.1-0.1-0.1-0.2,0-0.3c0.1-0.1,0.2-0.1,0.3,0
						l4.9,4.8c0.1,0.1,0.1,0.2,0,0.3C20.4,24.2,20.4,24.3,20.3,24.3"/>
					<path id="Path_1222" class="st5" d="M162.1,33.1c0,0.1-33,0.1-73.8,0.1s-73.8,0-73.8-0.1s33-0.1,73.8-0.1
						S162.1,33.1,162.1,33.1"/>
					<path id="Path_1223" class="st5" d="M20.8,133.8c-0.1,0-0.1-23.7-0.1-53s0-53,0.1-53s0.1,23.7,0.1,53S20.9,133.8,20.8,133.8"/>
					<path id="Path_1224" class="st5" d="M29.4,33c-0.1-0.9-0.1-1.7-0.1-2.6c0-0.9,0-1.7,0.1-2.6c0.1,0.9,0.1,1.7,0.1,2.6
						C29.6,31.3,29.5,32.2,29.4,33"/>
					<path id="Path_1225" class="st5" d="M38,33c-0.1-0.9-0.1-1.7-0.1-2.6c0-0.9,0-1.7,0.1-2.6c0.1,0.9,0.1,1.7,0.1,2.6
						C38.2,31.3,38.1,32.2,38,33"/>
					<path id="Path_1226" class="st5" d="M46.6,33c-0.1-0.9-0.1-1.7-0.1-2.6c0-0.9,0-1.7,0.1-2.6c0.1,0.9,0.1,1.7,0.1,2.6
						C46.7,31.3,46.7,32.2,46.6,33"/>
					<path id="Path_1227" class="st5" d="M55.2,33c-0.1-0.9-0.1-1.7-0.1-2.6c0-0.9,0-1.7,0.1-2.6c0.1,0.9,0.1,1.7,0.1,2.6
						C55.3,31.3,55.3,32.2,55.2,33"/>
					<path id="Path_1228" class="st5" d="M63.8,33c-0.1-0.9-0.1-1.7-0.1-2.6c0-0.9,0-1.7,0.1-2.6c0.1,0.9,0.1,1.7,0.1,2.6
						C63.9,31.3,63.9,32.2,63.8,33"/>
					<path id="Path_1229" class="st5" d="M72.4,33c-0.1-0.9-0.1-1.7-0.1-2.6c0-0.9,0-1.7,0.1-2.6c0.1,0.9,0.1,1.7,0.1,2.6
						C72.5,31.3,72.5,32.2,72.4,33"/>
					<path id="Path_1230" class="st5" d="M81,33c-0.1-0.9-0.1-1.7-0.1-2.6c0-0.9,0-1.7,0.1-2.6c0.1,0.9,0.1,1.7,0.1,2.6
						C81.1,31.3,81.1,32.2,81,33"/>
					<path id="Path_1231" class="st5" d="M89.6,33c-0.1-0.9-0.1-1.7-0.1-2.6c0-0.9,0-1.7,0.1-2.6c0.1,0.9,0.1,1.7,0.1,2.6
						C89.7,31.3,89.7,32.2,89.6,33"/>
					<path id="Path_1232" class="st5" d="M98.1,33C98,32.2,98,31.3,98,30.4c0-0.9,0-1.7,0.1-2.6c0.1,0.9,0.1,1.7,0.1,2.6
						C98.3,31.3,98.3,32.2,98.1,33"/>
					<path id="Path_1233" class="st5" d="M106.7,33c-0.1-0.9-0.1-1.7-0.1-2.6c0-0.9,0-1.7,0.1-2.6c0.1,0.9,0.1,1.7,0.1,2.6
						C106.9,31.3,106.8,32.2,106.7,33"/>
					<path id="Path_1234" class="st5" d="M115.3,33c-0.1-0.9-0.1-1.7-0.1-2.6c0-0.9,0-1.7,0.1-2.6c0.1,0.9,0.1,1.7,0.1,2.6
						C115.5,31.3,115.4,32.2,115.3,33"/>
					<path id="Path_1235" class="st5" d="M123.9,33c-0.1-0.9-0.1-1.7-0.1-2.6c0-0.9,0-1.7,0.1-2.6c0.1,0.9,0.1,1.7,0.1,2.6
						C124.1,31.3,124,32.2,123.9,33"/>
					<path id="Path_1236" class="st5" d="M132.5,33c-0.1-0.9-0.1-1.7-0.1-2.6c0-0.9,0-1.7,0.1-2.6c0.1,0.9,0.1,1.7,0.1,2.6
						C132.7,31.3,132.6,32.2,132.5,33"/>
					<path id="Path_1237" class="st5" d="M141.1,33c-0.1-0.9-0.1-1.7-0.1-2.6c0-0.9,0-1.7,0.1-2.6c0.1,0.9,0.1,1.7,0.1,2.6
						C141.2,31.3,141.2,32.2,141.1,33"/>
					<path id="Path_1238" class="st5" d="M149.7,33c-0.1-0.9-0.1-1.7-0.1-2.6c0-0.9,0-1.7,0.1-2.6c0.1,0.9,0.1,1.7,0.1,2.6
						C149.8,31.3,149.8,32.2,149.7,33"/>
					<path id="Path_1239" class="st5" d="M158.3,33c-0.1-0.9-0.1-1.7-0.1-2.6c0-0.9,0-1.7,0.1-2.6c0.1,0.9,0.1,1.7,0.1,2.6
						C158.4,31.3,158.4,32.2,158.3,33"/>
					<path id="Path_1240" class="st5" d="M20.8,40.4c-1,0.1-2.1,0.1-3.1,0.1c-1,0-2.1,0-3.1-0.1c1-0.1,2.1-0.1,3.1-0.1
						C18.7,40.3,19.8,40.3,20.8,40.4"/>
					<path id="Path_1241" class="st5" d="M20.8,48.4c-1,0.1-2.1,0.1-3.1,0.1c-1,0-2.1,0-3.1-0.1c1-0.1,2.1-0.1,3.1-0.1
						C18.7,48.2,19.8,48.3,20.8,48.4"/>
					<path id="Path_1242" class="st5" d="M20.8,56.3c-1,0.1-2.1,0.1-3.1,0.1c-1,0-2.1,0-3.1-0.1c1-0.1,2.1-0.1,3.1-0.1
						C18.7,56.1,19.8,56.2,20.8,56.3"/>
					<path id="Path_1243" class="st5" d="M20.8,64.2c-1,0.1-2.1,0.1-3.1,0.1c-1,0-2.1,0-3.1-0.1c1-0.1,2.1-0.1,3.1-0.1
						C18.7,64,19.8,64.1,20.8,64.2"/>
					<path id="Path_1244" class="st5" d="M20.8,72.1c-1,0.1-2.1,0.1-3.1,0.1c-1,0-2.1,0-3.1-0.1c1-0.1,2.1-0.1,3.1-0.1
						C18.7,72,19.8,72,20.8,72.1"/>
					<path id="Path_1245" class="st5" d="M20.8,80c-1,0.1-2.1,0.1-3.1,0.1c-1,0-2.1,0-3.1-0.1c1-0.1,2.1-0.1,3.1-0.1
						C18.7,79.9,19.8,79.9,20.8,80"/>
					<path id="Path_1246" class="st5" d="M20.8,87.9c-1,0.1-2.1,0.1-3.1,0.1c-1,0-2.1,0-3.1-0.1c1-0.1,2.1-0.1,3.1-0.1
						C18.7,87.8,19.8,87.8,20.8,87.9"/>
					<path id="Path_1247" class="st5" d="M20.8,95.9c-1,0.1-2.1,0.1-3.1,0.1c-1,0-2.1,0-3.1-0.1c1-0.1,2.1-0.1,3.1-0.1
						C18.7,95.7,19.8,95.7,20.8,95.9"/>
					<path id="Path_1248" class="st5" d="M20.8,103.8c-1,0.1-2.1,0.1-3.1,0.1c-1,0-2.1,0-3.1-0.1c1-0.1,2.1-0.1,3.1-0.1
						C18.7,103.6,19.8,103.7,20.8,103.8"/>
					<path id="Path_1249" class="st5" d="M20.8,111.7c-1,0.1-2.1,0.1-3.1,0.1c-1,0-2.1,0-3.1-0.1c1-0.1,2.1-0.1,3.1-0.1
						C18.7,111.5,19.8,111.6,20.8,111.7"/>
					<path id="Path_1250" class="st5" d="M20.8,119.6c-1,0.1-2.1,0.1-3.1,0.1c-1,0-2.1,0-3.1-0.1c1-0.1,2.1-0.1,3.1-0.1
						C18.7,119.5,19.8,119.5,20.8,119.6"/>
					<path id="Path_1251" class="st5" d="M20.8,127.5c-1,0.1-2.1,0.1-3.1,0.1c-1,0-2.1,0-3.1-0.1c1-0.1,2.1-0.1,3.1-0.1
						C18.7,127.4,19.8,127.4,20.8,127.5"/>
					<path id="Path_1252" class="st5" d="M110.7,43.4c0,0,0,0.1,0,0.2c0,0.1-0.1,0.3-0.1,0.6c-0.2,0.7-0.4,1.4-0.7,2.1
						c-0.5,1.1-1.1,2.1-1.8,3.1c-1,1.3-2.2,2.4-3.5,3.3l0-0.1l4.1-0.6l0.1,0l0,0.1c-0.5,2.1-1.2,4.1-2.2,5.9c-0.6,1-1.3,2-2.2,2.7
						c-1,0.8-2.1,1.4-3.4,1.6l0-0.2l3.3,0.3l0.1,0l0,0.1c-0.5,4.1-1.4,8.2-2.7,12.1c-1.4,4.3-3.1,8.6-5.1,12.7
						c-0.7,1.5-1.4,3-2.2,4.4L94,92.2l0-0.6c0.7-8.5,1.6-16.4,1.1-23.3v0v0c1-4,2.3-7.9,4-11.7c0.7-1.6,1.5-3.1,2.5-4.5
						c0.8-1.2,1.7-2.4,2.6-3.5c1.3-1.6,2.9-2.9,4.6-4.1c0.3-0.2,0.6-0.4,0.8-0.5c0.2-0.1,0.4-0.3,0.6-0.3L110.7,43.4l-0.5,0.3
						c-0.3,0.2-0.8,0.5-1.4,0.9c-1.7,1.2-3.2,2.5-4.5,4.1c-0.9,1.1-1.8,2.3-2.6,3.5c-0.9,1.5-1.7,3-2.4,4.5c-1.7,3.8-3,7.7-3.9,11.7
						v0c0.6,7-0.3,14.9-1.1,23.4l-0.2-0.1c0.7-1.4,1.5-2.9,2.2-4.4c4.1-8.5,6.9-17,7.8-24.7l0.1,0.1l-3.3-0.3l-0.8-0.1l0.8-0.1
						c1.2-0.2,2.3-0.7,3.3-1.5c0.9-0.8,1.6-1.7,2.2-2.7c1-1.9,1.7-3.8,2.2-5.9l0.1,0.1l-4.1,0.6l-0.3,0l0.2-0.2
						c1.3-0.9,2.5-2,3.5-3.3c0.7-0.9,1.4-2,1.8-3.1c0.3-0.7,0.6-1.4,0.8-2.1L110.7,43.4"/>
					<path id="Path_1253" class="st5" d="M93.3,96.3c0-0.1,0.1-0.2,0.1-0.3c0.1-0.2,0.1-0.5,0.2-0.8c0.1-0.7,0.3-1.8,0.5-3.3
						c0.3-2.9,0.7-7,1.1-12.2c0.5-6.1,0.2-12.2-0.8-18.2c-0.7-3.6-1.8-7-3.3-10.3c-0.8-1.8-1.7-3.4-2.8-5c-1.1-1.7-2.3-3.2-3.7-4.7
						l0.2-0.1c-0.2,2-0.4,4.2-0.6,6.4c-0.2,2.1-0.3,4.2-0.3,6.2c0,1,0.4,2,1,2.7c0.7,0.7,1.4,1.4,2.3,1.8l0.7,0.4L87,58.8l-4-1
						l0.1-0.1c0,1.3-0.1,2.7-0.1,4c-0.1,1.3-0.1,2.6-0.3,3.9c0,0.2,0,0.3-0.1,0.5c0,0.1,0,0.3,0,0.4c0.1,0.3,0.2,0.6,0.3,0.8
						c0.3,0.5,0.7,1,1.2,1.4c0.9,0.8,1.8,1.6,2.8,2.2l0.3,0.2h-0.3h-4.4l0.1-0.1c0.1,3.8,0.9,7.6,2.3,11.2c1.1,2.7,2.4,5.4,4,7.9
						c1.3,2.1,2.4,3.7,3.1,4.7c0.4,0.5,0.7,0.9,0.9,1.2l0.2,0.3C93.3,96.3,93.3,96.3,93.3,96.3C93.3,96.3,93.3,96.3,93.3,96.3
						L93,95.9c-0.2-0.3-0.5-0.6-0.9-1.2c-0.8-1-1.9-2.6-3.2-4.7c-1.6-2.5-2.9-5.2-4-7.9c-1.5-3.6-2.3-7.4-2.4-11.2v-0.1h0.1h4.4
						L86.9,71c-1-0.7-2-1.4-2.8-2.2c-0.5-0.4-0.9-0.9-1.2-1.4c-0.2-0.3-0.3-0.6-0.4-0.9c0-0.2,0-0.3,0-0.5c0-0.2,0.1-0.3,0.1-0.5
						c0.2-1.3,0.2-2.5,0.3-3.8c0.1-1.3,0.1-2.6,0.1-4v-0.1l0.1,0l4,1L87,58.8c-0.9-0.5-1.7-1.1-2.4-1.9c-0.3-0.4-0.6-0.8-0.8-1.3
						c-0.1-0.2-0.2-0.5-0.2-0.8c0-0.3-0.1-0.5-0.1-0.8c0-1,0-2.1,0.1-3.1s0.1-2.1,0.2-3.1c0.2-2.2,0.4-4.3,0.6-6.4l0-0.2l0.2,0.2
						c1.3,1.5,2.6,3.1,3.7,4.8c1.1,1.6,2,3.3,2.8,5.1c1.5,3.3,2.6,6.8,3.3,10.4c1.1,6,1.4,12.2,0.8,18.3c-0.4,5.2-0.8,9.3-1.2,12.2
						c-0.2,1.4-0.4,2.5-0.5,3.3c-0.1,0.4-0.1,0.6-0.2,0.8C93.4,96.2,93.3,96.2,93.3,96.3"/>
					<path id="Path_1254" class="st5" d="M99.4,97.8c0-0.1,0-0.2,0-0.2c0-0.2,0-0.4,0-0.7c0.1-0.6,0.2-1.5,0.3-2.7
						c0.3-2.4,0.8-5.8,1.5-10c0.7-5,2.2-9.9,4.3-14.6c0.7-1.3,1.4-2.6,2.2-3.9l1.2-1.9c0.4-0.6,0.8-1.3,1.2-2c0.9-1.3,2-2.5,3.2-3.6
						c1.3-1.1,2.6-2.1,4-2.9l0.2-0.1l0,0.2c-0.2,1.7-0.5,3.5-0.8,5.3c-0.3,1.7-0.5,3.4-1,5.1c-0.1,0.2-0.1,0.4-0.2,0.6l-0.1,0.3
						c-0.1,0.1-0.1,0.2-0.2,0.3c-0.3,0.3-0.6,0.7-0.9,0.9c-0.7,0.5-1.5,0.8-2.3,1l0-0.2l3.4,0h0.1l0,0.1c-0.5,2.2-0.9,4.3-1.2,6.4
						c0,0.1,0,0.3,0,0.4c0,0.1,0,0.3-0.1,0.4c-0.1,0.3-0.3,0.5-0.5,0.7c-0.4,0.4-0.8,0.7-1.3,0.9c-0.9,0.5-1.8,0.9-2.7,1.3l0-0.2
						l3.5,0.9l0.1,0l0,0.1c-0.8,3.1-2.3,6-4.2,8.6c-1.5,2-3.1,3.8-4.9,5.5c-1.5,1.4-2.7,2.4-3.6,3.1c-0.4,0.3-0.8,0.6-1,0.7
						L99.4,97.8C99.4,97.8,99.3,97.8,99.4,97.8L99.4,97.8l0.3-0.3c0.2-0.2,0.6-0.4,1-0.8c0.8-0.7,2.1-1.7,3.5-3.1
						c1.8-1.7,3.4-3.5,4.8-5.5c1.9-2.6,3.3-5.5,4.1-8.5l0.1,0.1l-3.5-0.9l-0.3-0.1l0.3-0.1c0.9-0.3,1.8-0.8,2.7-1.2
						c0.4-0.2,0.9-0.5,1.2-0.9c0.2-0.2,0.3-0.4,0.4-0.6c0-0.1,0.1-0.2,0.1-0.4c0-0.1,0-0.3,0-0.4c0.3-2.1,0.7-4.2,1.2-6.4l0.1,0.1
						l-3.4,0l-0.8,0l0.8-0.2c0.8-0.2,1.6-0.5,2.2-1c0.3-0.2,0.6-0.5,0.9-0.9c0.2-0.3,0.4-0.7,0.5-1.1c0.4-1.6,0.7-3.4,1-5.1
						c0.3-1.8,0.5-3.6,0.8-5.3l0.2,0.1c-1.4,0.9-2.7,1.8-4,2.9c-1.2,1-2.3,2.2-3.2,3.5c-0.4,0.6-0.8,1.3-1.2,2l-1.2,1.9
						c-0.8,1.2-1.5,2.5-2.2,3.9c-2.1,4.6-3.6,9.5-4.3,14.5c-0.7,4.2-1.3,7.7-1.6,10c-0.2,1.2-0.3,2.1-0.3,2.7
						C99.3,97.5,99.3,97.8,99.4,97.8"/>
					<path id="Path_1255" class="st5" d="M89.8,101.6c0-0.1,0-0.3-0.1-0.8c0-0.3-0.1-0.6-0.1-1c-0.1-0.4-0.1-0.8-0.2-1.3
						c-0.6-2.7-1.5-5.4-2.6-8c-0.3-0.8-0.7-1.7-1.1-2.6c-0.4-0.9-0.9-1.8-1.4-2.7c-0.6-0.9-1.2-1.8-1.9-2.7
						c-0.7-0.9-1.4-1.8-2.2-2.7c-1.6-1.9-3.4-3.7-5.4-5.2c-2.2-1.6-4.7-2.7-7.3-3.2l0.1-0.2c1.5,2.5,3.8,4.3,6.6,5.1l0.5,0.1
						l-0.5,0.1l-3.1,0.5l0.1-0.2c0.9,1.5,2,2.9,3.3,4.1c1.2,1.1,2.9,1.6,4.5,1.4l0.8-0.1l-0.8,0.3l-2.3,1l0-0.1
						c1.4,2.7,2.9,5.3,4.8,7.8c1.6,2.2,3,4.1,4.3,5.6c1.2,1.5,2.2,2.7,2.9,3.5l0.8,0.9C89.7,101.5,89.8,101.6,89.8,101.6
						c0,0-0.1-0.1-0.3-0.3l-0.8-0.9c-0.7-0.8-1.7-2-2.9-3.5c-1.2-1.5-2.7-3.4-4.3-5.6c-1.8-2.4-3.4-5-4.8-7.8l0-0.1l0.1,0l2.3-1
						l0.1,0.2c-1.7,0.2-3.4-0.3-4.7-1.5c-1.3-1.2-2.5-2.6-3.4-4.1L71,77l0.2,0l3.1-0.5l0,0.2c-2.8-0.8-5.3-2.7-6.8-5.2l-0.1-0.2
						l0.2,0c2.7,0.5,5.2,1.6,7.4,3.3c2,1.5,3.8,3.3,5.4,5.2c0.8,0.9,1.5,1.8,2.2,2.7c0.7,0.9,1.3,1.8,1.9,2.7c0.5,0.9,1,1.8,1.4,2.7
						c0.4,0.9,0.8,1.8,1.1,2.6c1.1,2.6,2,5.3,2.6,8.1c0.1,0.5,0.2,0.9,0.2,1.3c0,0.4,0.1,0.7,0.1,1
						C89.8,101.3,89.8,101.5,89.8,101.6"/>
					<path id="Path_1256" class="st8" d="M84,106.5v4.4h2.1l2.4,14.9h13.1l2.2-14.9h2v-4.4H84z"/>
					<path id="Path_1257" class="st5" d="M84,106.5C84,106.5,84.1,106.5,84,106.5l0.4,0l1.2,0l4.4,0l15.7,0h0.1v0.1
						c0,1.4,0,2.9,0,4.4v0.1h-0.1h-2l0.1-0.1c-0.5,3.3-1,7-1.6,10.7c-0.2,1.4-0.4,2.8-0.6,4.2l0,0.1h-0.1l-13.1,0h-0.1l0-0.1
						c-1-6.1-1.7-11.3-2.3-14.9l0.1,0.1l-2.1,0h-0.1v-0.1c0-1.4,0-2.6,0-3.3c0-0.4,0-0.6,0-0.8S84,106.5,84,106.5c0,0,0,0.1,0,0.3
						s0,0.5,0,0.9c0,0.8,0,1.9,0,3.3l0,0l2.1,0h0.1l0,0.1l2.4,14.9l-0.1-0.1l13.1,0l-0.1,0.1c0.2-1.4,0.4-2.8,0.6-4.2
						c0.6-3.7,1.1-7.4,1.6-10.7l0-0.1h0.1h2l-0.1,0.1c0-1.5,0-3,0-4.4l0.1,0.1l-15.7,0l-4.5,0l-1.2,0l-0.3,0
						C84.1,106.5,84,106.5,84,106.5"/>
					<path id="Path_1258" class="st5" d="M156.3,125.8c0,0.1-28.6,0.1-63.8,0.1s-63.8,0-63.8-0.1s28.6-0.1,63.8-0.1
						S156.3,125.8,156.3,125.8"/>
					<path id="Path_1259" class="st5" d="M109.8,68.8c0,0,0,0.1,0,0.1l-0.1,0.3l-0.4,1.1c-0.3,0.9-0.8,2.3-1.5,4
						c-1.3,3.4-3.1,8-4.9,13.1c-0.9,2.6-1.8,5.1-2.5,7.3c-0.7,2.3-1.3,4.3-1.7,6.1c-0.2,0.9-0.4,1.7-0.6,2.4
						c-0.2,0.7-0.3,1.3-0.4,1.8l-0.2,1.1l-0.1,0.3c0,0,0,0.1,0,0.1c0,0,0-0.1,0-0.1l0-0.3l0.2-1.1c0.1-0.5,0.2-1.1,0.4-1.8
						s0.3-1.5,0.5-2.4c0.4-1.7,1-3.8,1.7-6.1c0.7-2.3,1.5-4.7,2.5-7.3c1.9-5.2,3.7-9.8,5-13.1l1.5-4l0.4-1.1L109.8,68.8
						C109.8,68.8,109.8,68.8,109.8,68.8"/>
					<path id="Path_1260" class="st5" d="M90.6,65.7c0.1,0,0.9,9.1,1.9,20.3c1,11.2,1.7,20.3,1.6,20.3c-0.1,0-0.9-9.1-1.9-20.3
						S90.5,65.7,90.6,65.7"/>
					<path id="Path_1261" class="st5" d="M91.1,106.6c-0.1-0.2-0.2-0.4-0.2-0.7c-0.1-0.4-0.3-1.1-0.6-1.8c-0.5-1.6-1.2-3.7-2.1-6
						c-0.9-2.3-1.9-4.3-2.7-5.8c-0.4-0.7-0.7-1.3-0.9-1.7c-0.1-0.2-0.2-0.4-0.3-0.6c0.1,0.2,0.3,0.4,0.4,0.6c0.2,0.4,0.6,1,1,1.7
						c2,3.7,3.6,7.7,4.8,11.8c0.2,0.8,0.4,1.4,0.5,1.9C91,106.1,91,106.3,91.1,106.6"/>
					<path id="Path_1262" class="st5" d="M105.7,110.8c0,0.1-4.9,0.1-10.9,0.1s-10.9,0-10.9-0.1s4.9-0.1,10.9-0.1
						S105.7,110.7,105.7,110.8"/>
					<path id="Path_1263" class="st5" d="M108.4,105.9l4.4,9.9l1.5-4.4l3.7-1.4L108.4,105.9z"/>
					<rect id="Rectangle_1296" x="116.7" y="113.4" class="st6" width="5.5" height="5.5"/>
					<path id="Path_1264" class="st5" d="M122.2,118.9c0-0.1,0-0.3,0-0.4c0-0.3,0-0.7,0-1.1c0-1,0-2.3,0-3.9l0.1,0.1l-5.5,0l0.1-0.1
						v0.7c0,0.2,0,0.5,0,0.7c0,0.5,0,1,0,1.4c0,0.9,0,1.8,0,2.6l-0.1-0.1l3.9,0l1.1,0C121.9,118.9,122.1,118.9,122.2,118.9
						c-0.1,0-0.2,0-0.4,0l-1.1,0l-4,0h-0.1v-0.1c0-0.8,0-1.7,0-2.6c0-0.5,0-0.9,0-1.4c0-0.2,0-0.5,0-0.7v-0.7l0.1-0.1l5.5,0h0.1v0.1
						c0,1.6,0,3,0,4c0,0.5,0,0.8,0,1.1C122.2,118.6,122.2,118.8,122.2,118.9"/>
					<path id="Path_1265" class="st5" d="M119.5,118.4c-0.1-1.5-0.1-3,0-4.5C119.6,115.4,119.6,116.9,119.5,118.4"/>
					<path id="Path_1266" class="st5" d="M121.7,116.1c-1.5,0.1-3,0.1-4.5,0C118.7,116,120.2,116,121.7,116.1"/>
					<rect id="Rectangle_1297" x="156.9" y="33.1" class="st7" width="6" height="101.1"/>
					<path id="Path_1267" class="st5" d="M159.9,65.7L159.9,65.7c-1.7,0-3-1.3-3-3c0,0,0,0,0,0V48c0-1.7,1.3-3,3-3c1.7,0,3,1.3,3,3
						c0,0,0,0,0,0v14.7C162.9,64.4,161.6,65.7,159.9,65.7L159.9,65.7"/>
					<path id="Path_1268" class="st5" d="M55.6,66.9c0,0,0-0.1,0-0.1c0-0.1,0-0.2,0-0.3c0-0.3,0-0.6,0-1.1c0-1,0-2.5,0-4.3
						c0-3.7,0-9,0-15.3l0.1,0.1l-21.2,0c0,0,0.2-0.2,0.1-0.1v2.9c0,1,0,1.9,0,2.8c0,1.9,0,3.7,0,5.5c0,3.6,0,6.9,0,10l-0.1-0.1
						l15.3,0l4.3,0l1.1,0l0.3,0C55.6,66.8,55.6,66.9,55.6,66.9C55.6,66.9,55.6,66.9,55.6,66.9l-0.4,0l-1.1,0l-4.3,0l-15.4,0h-0.1
						v-0.1c0-3.1,0-6.4,0-10c0-1.8,0-3.6,0-5.5c0-0.9,0-1.9,0-2.8v-2.9c-0.1,0.1,0.1-0.1,0.1-0.1l21.2,0h0.1v0.1
						c0,6.4,0,11.7,0,15.4c0,1.8,0,3.3,0,4.3c0,0.5,0,0.9,0,1.1C55.6,66.6,55.6,66.7,55.6,66.9C55.6,66.8,55.6,66.8,55.6,66.9"/>
					<path id="Path_1269" class="st5" d="M36.8,48.1C36.9,48.1,36.9,48.1,36.8,48.1l0.3,0l0.9,0l3.3,0l11.9,0h0.1v0.1
						c0,4.8,0,10.4,0,16.4c0,0-0.2,0.2-0.1,0.1h-4.4h-4.2l-7.7,0h-0.1v-0.1c0-4.9,0-9,0-11.9c0-1.4,0-2.5,0-3.3c0-0.4,0-0.7,0-0.9
						C36.8,48.3,36.8,48.2,36.8,48.1C36.8,48.1,36.8,48.1,36.8,48.1C36.8,48.1,36.8,48.1,36.8,48.1c0,0.1,0,0.2,0,0.3
						c0,0.2,0,0.5,0,0.9c0,0.8,0,1.9,0,3.3c0,2.9,0,6.9,0,11.8l-0.1-0.1l7.7,0h4.2h4.4c0.1-0.1-0.1,0.1-0.1,0.1c0-6,0-11.6,0-16.4
						l0.1,0.1l-11.8-0.1l-3.3,0l-0.9,0L36.8,48.1C36.9,48.1,36.9,48.1,36.8,48.1"/>
					<path id="Path_1270" class="st5" d="M34.4,45.7c0.5,0.3,0.9,0.7,1.3,1.1c0.4,0.4,0.8,0.8,1.2,1.3c-0.5-0.3-0.9-0.7-1.3-1.1
						C35.1,46.6,34.7,46.1,34.4,45.7"/>
					<path id="Path_1271" class="st5" d="M55.5,45.7c-0.3,0.5-0.6,0.9-1,1.3c-0.4,0.4-0.8,0.8-1.2,1.2
						C53.9,47.3,54.7,46.4,55.5,45.7"/>
					<path id="Path_1272" class="st5" d="M55.4,66.9c-0.4-0.4-0.7-0.8-1-1.2c-0.4-0.4-0.7-0.8-1-1.2C54.3,65.1,55,65.9,55.4,66.9"/>
					<path id="Path_1273" class="st5" d="M36.7,64.4c-0.3,0.5-0.7,0.9-1.1,1.3c-0.4,0.4-0.8,0.8-1.3,1.1c0.3-0.5,0.7-0.9,1.1-1.3
						C35.8,65.1,36.2,64.7,36.7,64.4"/>
					<path id="Path_1274" class="st5" d="M40.4,51.4c0.1,0,0.1,0,0.2,0l0.5,0l1.9,0l6.9,0H50v0.1c0,2.8,0,6,0,9.5
						c0,0-0.2,0.2-0.1,0.1h-2.6h-2.4l-4.5,0h-0.1v-0.1c0-2.8,0-5.2,0-6.9c0-0.8,0-1.5,0-1.9c0-0.2,0-0.4,0-0.5
						C40.4,51.5,40.4,51.4,40.4,51.4c0,0.1,0,0.1,0,0.2c0,0.1,0,0.3,0,0.5c0,0.5,0,1.1,0,1.9c0,1.7,0,4,0,6.8l-0.1-0.1l4.5,0h2.4
						h2.6c0.1-0.1-0.1,0.1-0.1,0.1c0-3.5,0-6.7,0-9.5l0.1,0.1l-6.8,0l-1.9,0l-0.5,0C40.5,51.4,40.5,51.4,40.4,51.4"/>
					<path id="Path_1275" class="st5" d="M162.9,134.3c0,0.1-33.6,0.1-75,0.1c-41.4,0-75,0-75-0.1c0-0.1,33.6-0.1,75-0.1
						C129.3,134.2,162.9,134.2,162.9,134.3"/>
					<rect id="Rectangle_1298" x="130.7" y="72.6" class="st7" width="55.1" height="32.3"/>
					<path id="Path_1276" class="st5" d="M185.8,105c0,0,0-0.2,0-0.6c0-0.4,0-1,0-1.7c0-1.5,0-3.7,0-6.5c0-5.6,0-13.7,0-23.6
						l0.1,0.1l-55.1,0l0,0l0.1-0.1c0,11.5,0,22.4,0,32.3l-0.1-0.1l39.6,0l11.4,0l3,0l0.8,0C185.7,105,185.8,105,185.8,105
						c0,0-0.1,0-0.3,0l-0.8,0l-3,0l-11.4,0l-39.7,0h-0.1V105c0-10,0-20.9,0-32.3v-0.1h0.1l55.1,0h0.1v0.1c0,9.9,0,18,0,23.6
						c0,2.8,0,5,0,6.5c0,0.7,0,1.3,0,1.7C185.8,104.8,185.8,105,185.8,105"/>
					<path id="Path_1277" class="st5" d="M141.5,87.7h-5.4v-5.4h5.4V87.7z M136.6,87.3h4.5v-4.5h-4.5L136.6,87.3z"/>
					<rect id="Rectangle_1299" x="149.2" y="72.6" class="st5" width="36.6" height="7"/>
					<path id="Path_1278" class="st5" d="M147.1,76c0,0.1-2.9,0.1-6.6,0.1s-6.6,0-6.6-0.1s2.9-0.1,6.6-0.1S147.1,76,147.1,76"/>
					<rect id="Rectangle_1300" x="134.1" y="80.3" class="st8" width="5" height="5"/>
					<rect id="Rectangle_1301" x="147" y="85.5" class="st8" width="22.6" height="1.9"/>
					<path id="Path_1279" class="st6" d="M147.4,87.7l-0.7,1.1c-0.1,0.1,0,0.2,0.1,0.3c0,0,0.1,0,0.1,0h1.4c0.1,0,0.2-0.1,0.2-0.2
						c0,0,0-0.1,0-0.1l-0.7-1.1C147.7,87.6,147.6,87.6,147.4,87.7C147.4,87.7,147.4,87.7,147.4,87.7"/>
					<rect id="Rectangle_1302" x="147" y="91.2" class="st2" width="22.6" height="1.9"/>
					<path id="Path_1280" class="st6" d="M167.9,93.4l-0.7,1.1c-0.1,0.1,0,0.2,0.1,0.3c0,0,0.1,0,0.1,0h1.4c0.1,0,0.2-0.1,0.2-0.2
						c0,0,0-0.1,0-0.1l-0.7-1.1C168.2,93.3,168.1,93.3,167.9,93.4C168,93.4,168,93.4,167.9,93.4"/>
					<rect id="Rectangle_1303" x="147" y="97.4" class="st5" width="22.6" height="1.9"/>
					<path id="Path_1281" class="st6" d="M152.8,99.6l-0.7,1.1c-0.1,0.1,0,0.2,0.1,0.3c0,0,0.1,0,0.1,0h1.4c0.1,0,0.2-0.1,0.2-0.2
						c0,0,0-0.1,0-0.1l-0.7-1.1C153.1,99.5,152.9,99.4,152.8,99.6C152.8,99.5,152.8,99.5,152.8,99.6"/>
					<rect id="Rectangle_1304" x="172.5" y="85.2" class="st5" width="8.8" height="2.6"/>
					<rect id="Rectangle_1305" x="172.5" y="90.9" class="st5" width="8.8" height="2.6"/>
					<rect id="Rectangle_1306" x="172.5" y="97.1" class="st5" width="8.8" height="2.6"/>
					<rect id="Rectangle_1307" x="27.8" y="143.4" class="st7" width="50.8" height="27.7"/>
					<path id="Path_1282" class="st5" d="M78.6,171.1c0,0,0-0.2,0-0.5s0-0.8,0-1.5c0-1.3,0-3.1,0-5.5c0-4.8,0-11.7,0-20.2l0.1,0.1
						l-50.8,0l0,0l0.1-0.1c0,9.8,0,19.2,0,27.7l-0.1-0.1l36.6,0l10.5,0l2.8,0l0.7,0C78.5,171.1,78.6,171.1,78.6,171.1
						c0,0-0.1,0-0.2,0l-0.7,0l-2.8,0l-10.5,0l-36.6,0h-0.1v-0.1c0-8.6,0-17.9,0-27.7v-0.1h0.1l50.8,0h0.1v0.1c0,8.5,0,15.5,0,20.3
						c0,2.4,0,4.3,0,5.5c0,0.6,0,1.1,0,1.4C78.6,170.9,78.6,171.1,78.6,171.1"/>
					<path id="Path_1283" class="st5" d="M38.9,157.3h-5v-5h5V157.3z M34.4,156.9h4.2v-4.2h-4.2V156.9z"/>
					<path id="Path_1284" class="st5" d="M37.3,167c0-0.1,0-0.3,0-0.4c0-0.3,0-0.6,0-1.1c0-1,0-2.3,0-3.8l0.1,0.1l-5.3,0l0.1-0.1
						v0.7c0,0.2,0,0.5,0,0.7c0,0.5,0,0.9,0,1.4c0,0.9,0,1.7,0,2.5l-0.1-0.1l3.8,0l1.1,0C37.1,167,37.2,167,37.3,167
						c-0.1,0-0.2,0-0.4,0l-1.1,0l-3.9,0h-0.1V167c0-0.8,0-1.6,0-2.5c0-0.4,0-0.9,0-1.4c0-0.2,0-0.5,0-0.7v-0.7l0.1-0.1l5.3,0h0.1
						v0.1c0,1.6,0,2.9,0,3.9c0,0.4,0,0.8,0,1.1C37.4,166.8,37.4,166.9,37.3,167"/>
					<rect id="Rectangle_1308" x="44.8" y="143.4" class="st5" width="33.8" height="6.5"/>
					<path id="Path_1285" class="st5" d="M42.8,146.5c0,0.1-2.7,0.1-6.1,0.1c-3.4,0-6.1,0-6.1-0.1s2.7-0.1,6.1-0.1
						C40.1,146.4,42.8,146.4,42.8,146.5"/>
					<rect id="Rectangle_1309" x="32.1" y="150.4" class="st8" width="4.6" height="4.6"/>
					<rect id="Rectangle_1310" x="32" y="161.7" class="st8" width="5.3" height="5.3"/>
					<path id="Path_1286" class="st6" d="M37.3,165.1v1.9h-1.9L37.3,165.1z"/>
					<path id="Path_1287" class="st5" d="M43.6,167c0-0.1,0-0.3,0-0.4c0-0.3,0-0.6,0-1.1c0-1,0-2.3,0-3.8l0.1,0.1l-5.3,0l0.1-0.1
						v0.7c0,0.2,0,0.5,0,0.7c0,0.5,0,0.9,0,1.4c0,0.9,0,1.7,0,2.5l-0.1-0.1l3.8,0l1.1,0C43.3,167,43.4,167,43.6,167
						c-0.1,0-0.2,0-0.4,0l-1.1,0l-3.9,0h-0.1V167c0-0.8,0-1.6,0-2.5c0-0.4,0-0.9,0-1.4c0-0.2,0-0.5,0-0.7v-0.7l0.1-0.1l5.3,0h0.1
						v0.1c0,1.6,0,2.9,0,3.9c0,0.4,0,0.8,0,1.1C43.6,166.8,43.6,166.9,43.6,167"/>
					<rect id="Rectangle_1311" x="38.2" y="161.7" class="st9" width="5.3" height="5.3"/>
					<path id="Path_1288" class="st6" d="M43.6,165.1v1.9h-1.9L43.6,165.1z"/>
					<path id="Path_1289" class="st5" d="M49.8,167c0-0.1,0-0.3,0-0.4c0-0.3,0-0.6,0-1.1c0-1,0-2.3,0-3.8l0.1,0.1l-5.3,0
						c0,0,0.2-0.2,0.1-0.1v0.7c0,0.2,0,0.5,0,0.7c0,0.5,0,0.9,0,1.4c0,0.9,0,1.7,0,2.5l-0.1-0.1l3.8,0l1.1,0
						C49.6,167,49.7,167,49.8,167c-0.1,0-0.2,0-0.4,0l-1.1,0l-3.9,0h-0.1V167c0-0.8,0-1.6,0-2.5c0-0.4,0-0.9,0-1.4
						c0-0.2,0-0.5,0-0.7v-0.7l0.1-0.1l5.3,0h0.1v0.1c0,1.6,0,2.9,0,3.9c0,0.4,0,0.8,0,1.1C49.9,166.8,49.8,166.9,49.8,167"/>
					<rect id="Rectangle_1312" x="44.5" y="161.7" class="st10" width="5.3" height="5.3"/>
					<path id="Path_1290" class="st6" d="M49.8,165.1v1.9h-1.9L49.8,165.1z"/>
					<path id="Path_1291" class="st5" d="M56.1,167c0-0.1,0-0.3,0-0.4c0-0.3,0-0.6,0-1.1c0-1,0-2.3,0-3.8l0.1,0.1l-5.3,0l0.1-0.1
						v0.7c0,0.2,0,0.5,0,0.7c0,0.5,0,0.9,0,1.4c0,0.9,0,1.7,0,2.5l-0.1-0.1l3.8,0l1.1,0C55.8,167,55.9,167,56.1,167
						c-0.1,0-0.2,0-0.4,0l-1.1,0l-3.9,0h-0.1V167c0-0.8,0-1.6,0-2.5c0-0.4,0-0.9,0-1.4c0-0.2,0-0.5,0-0.7v-0.7l0.1-0.1l5.3,0h0.1
						v0.1c0,1.6,0,2.9,0,3.9c0,0.4,0,0.8,0,1.1C56.1,166.8,56.1,166.9,56.1,167"/>
					<rect id="Rectangle_1313" x="50.7" y="161.7" class="st5" width="5.3" height="5.3"/>
					<path id="Path_1292" class="st6" d="M56.1,165.1v1.9h-1.9L56.1,165.1z"/>
					<path id="Path_1293" class="st5" d="M62.3,167c0-0.1,0-0.3,0-0.4c0-0.3,0-0.6,0-1.1c0-1,0-2.3,0-3.8l0.1,0.1l-5.3,0
						c0,0,0.2-0.2,0.1-0.1v0.7c0,0.2,0,0.5,0,0.7c0,0.5,0,0.9,0,1.4c0,0.9,0,1.7,0,2.5l-0.1-0.1l3.8,0l1.1,0
						C62,167,62.2,167,62.3,167c-0.1,0-0.2,0-0.4,0l-1.1,0l-3.9,0h-0.1V167c0-0.8,0-1.6,0-2.5c0-0.4,0-0.9,0-1.4c0-0.2,0-0.5,0-0.7
						v-0.7l0.1-0.1l5.3,0h0.1v0.1c0,1.6,0,2.9,0,3.9c0,0.4,0,0.8,0,1.1C62.3,166.8,62.3,166.9,62.3,167"/>
					<rect id="Rectangle_1314" x="57" y="161.7" class="st2" width="5.3" height="5.3"/>
					<path id="Path_1294" class="st6" d="M62.3,165.1v1.9h-1.9L62.3,165.1z"/>
					<path id="Path_1295" class="st5" d="M68.6,167c0-0.1,0-0.3,0-0.4c0-0.3,0-0.6,0-1.1c0-1,0-2.3,0-3.8l0.1,0.1l-5.3,0l0.1-0.1
						v0.7c0,0.2,0,0.5,0,0.7c0,0.5,0,0.9,0,1.4c0,0.9,0,1.7,0,2.5l-0.1-0.1l3.8,0l1.1,0C68.3,167,68.4,167,68.6,167
						c-0.1,0-0.2,0-0.4,0l-1.1,0l-3.9,0h-0.1V167c0-0.8,0-1.6,0-2.5c0-0.4,0-0.9,0-1.4c0-0.2,0-0.5,0-0.7v-0.7l0.1-0.1l5.3,0h0.1
						v0.1c0,1.6,0,2.9,0,3.9c0,0.4,0,0.8,0,1.1C68.6,166.8,68.6,166.9,68.6,167"/>
					<rect id="Rectangle_1315" x="63.2" y="161.7" class="st1" width="5.3" height="5.3"/>
					<path id="Path_1296" class="st6" d="M68.6,165.1v1.9h-1.9L68.6,165.1z"/>
					<path id="Path_1297" class="st5" d="M74.8,167c0-0.1,0-0.3,0-0.4c0-0.3,0-0.6,0-1.1c0-1,0-2.3,0-3.8l0.1,0.1l-5.3,0l0.1-0.1
						v0.7c0,0.2,0,0.5,0,0.7c0,0.5,0,0.9,0,1.4c0,0.9,0,1.7,0,2.5l-0.1-0.1l3.8,0l1.1,0C74.5,167,74.7,167,74.8,167
						c-0.1,0-0.2,0-0.4,0l-1.1,0l-3.9,0h-0.1V167c0-0.8,0-1.6,0-2.5c0-0.4,0-0.9,0-1.4c0-0.2,0-0.5,0-0.7v-0.7l0.1-0.1l5.3,0h0.1
						v0.1c0,1.6,0,2.9,0,3.9c0,0.4,0,0.8,0,1.1C74.8,166.8,74.8,166.9,74.8,167"/>
					<rect id="Rectangle_1316" x="69.5" y="161.7" class="st11" width="5.3" height="5.3"/>
					<path id="Path_1298" class="st6" d="M74.8,165.1v1.9h-1.9L74.8,165.1z"/>
					<rect id="Rectangle_1317" x="71.5" y="152.2" class="st5" width="1.2" height="1.2"/>
					<rect id="Rectangle_1318" x="73.1" y="152.2" class="st5" width="1.2" height="1.2"/>
					<rect id="Rectangle_1319" x="71.5" y="153.8" class="st5" width="1.2" height="1.2"/>
					<rect id="Rectangle_1320" x="73.1" y="153.8" class="st5" width="1.2" height="1.2"/>
					<path id="Path_1299" class="st12" d="M166.5,179h-5.1c0,0-11.5-4.2-13.9-3.8c-2.1,0.4-9.9,5.5-11.5,6.6
						c-0.2,0.1-0.3,0.3-0.4,0.5c-0.3,0.8,0.1,1.8,0.9,2.1l0.2,0.1l-0.1,0.2c-0.1,0.3-0.1,0.6-0.1,0.9c0,0.6,0.6,1.1,1.2,1
						c0.4,0,0.7-0.2,0.9-0.6l-0.3,0.5c-0.1,0.2-0.2,0.5-0.2,0.7l0,0.5c0,0.7,0.6,1.2,1.3,1.2c0.3,0,0.6-0.2,0.9-0.4
						c1.3-1.4,2.9-2.4,4.7-2.9c1.5-0.4,3.1-0.7,4.6-0.8c0.7,0,1.2,0.4,1.5,1c-0.9,0.1-5.3,2.1-7.4,3.2c-0.7,0.3-1.1,1-1.2,1.7
						c-0.1,0.7,0.3,1.4,1.6,1.1c2.8-0.7,6.3-1.9,6.3-1.9s2.6-0.7,4.3,0.4c2.4,1.7,3.5,2.3,5.5,1.6c1.2-0.4,2.4-1,3.6-1.7l4-0.4
						C167.9,190,171.7,180.5,166.5,179"/>
					<path id="Path_1300" class="st13" d="M165.4,188c-0.1,0.1-0.2,0.1-0.3,0.2c-0.1,0.1-0.2,0.1-0.4,0.2c-0.2,0.1-0.3,0.2-0.5,0.2
						c-1.1,0.4-2.4,0.5-3.5,0.1c-0.8-0.2-1.5-0.6-2.2-1.2l-0.2-0.2l-0.2-0.3c-0.2-0.2-0.3-0.4-0.4-0.6c-0.3-0.4-0.4-0.8-0.7-1.2
						c-0.3-0.4-0.7-0.7-1.2-0.8c-0.5-0.1-1-0.1-1.5,0c-1.1,0.1-2.2,0-3.3-0.3c-1-0.3-2-0.8-2.9-1.4c-0.4-0.3-0.8-0.6-1.2-1
						c-0.2-0.2-0.3-0.5-0.2-0.8c0.1-0.3,0.3-0.5,0.6-0.5h0l7.5-0.3l2.1-0.1l0.6,0c0.1,0,0.1,0,0.2,0c-0.1,0-0.1,0-0.2,0l-0.6,0
						l-2.1,0.1l-7.5,0.4h0c-0.2,0-0.4,0.2-0.4,0.4c-0.1,0.2,0,0.4,0.1,0.6c0.4,0.3,0.7,0.7,1.1,0.9c0.9,0.6,1.8,1,2.8,1.3
						c1.1,0.3,2.2,0.4,3.2,0.3c0.5-0.1,1.1-0.1,1.6,0c0.3,0.1,0.5,0.2,0.7,0.3c0.2,0.2,0.4,0.3,0.5,0.6c0.3,0.4,0.5,0.9,0.7,1.3
						c0.1,0.2,0.3,0.4,0.4,0.5l0.2,0.2l0.2,0.2c0.6,0.5,1.3,0.9,2.1,1.2c1.1,0.3,2.3,0.3,3.4,0C164.6,188.4,165,188.2,165.4,188"/>
					<path id="Path_1301" class="st5" d="M223,58.7c-1.1-1.6-3-2.4-4.9-1.9c-2.4-1.5-5.6-1.2-7.6,0.8c-2.8-1.3-6.1-0.2-7.4,2.5
						c-0.4,0.8-0.6,1.7-0.6,2.6c-2.6-0.2-4.8,1.7-5,4.3c-0.1,1.5,0.5,2.9,1.6,3.8c-2.3,0.9-3.4,3.5-2.4,5.8c0.8,2,2.9,3.1,5,2.7
						l21-15.3C223.8,62.5,224,60.4,223,58.7"/>
					<path id="Path_1302" class="st12" d="M201,80c0-9.9,7.6-18,17.4-18.8l1-0.1c10.6-0.2,16.7,8.6,16.6,19.2l1.3,35.2l-1.1,4.5
						l-14.2,11.8l-7.1-6.3l-2.1-10.4c0,0-10.2-0.8-11.2-10.9C201.1,99.3,201,89.1,201,80"/>
					<path id="Path_1303" class="st13" d="M212.7,115c4.7-0.4,9.2-2.1,12.9-4.9c0,0-2.5,7.5-12.7,7.4L212.7,115z"/>
					<path id="Path_1304" class="st5" d="M204.7,89.1c0.1,0.8,0.7,1.4,1.5,1.3c0.8,0,1.4-0.6,1.4-1.4c0,0,0,0,0,0
						c-0.1-0.8-0.7-1.4-1.5-1.3C205.3,87.7,204.7,88.3,204.7,89.1C204.7,89.1,204.7,89.1,204.7,89.1"/>
					<path id="Path_1305" class="st5" d="M203.5,85.3c0.2,0.2,1.2-0.7,2.8-0.8c1.6-0.1,2.8,0.6,2.9,0.4c0.1-0.1-0.1-0.4-0.7-0.7
						c-0.7-0.4-1.5-0.6-2.3-0.5c-0.8,0.1-1.6,0.4-2.2,0.9C203.6,84.8,203.4,85.2,203.5,85.3"/>
					<path id="Path_1306" class="st5" d="M218.1,88.7c0.1,0.8,0.7,1.4,1.5,1.3c0.8,0,1.4-0.6,1.4-1.4c0,0,0,0,0,0
						c-0.1-0.8-0.7-1.4-1.5-1.3C218.7,87.3,218.1,87.9,218.1,88.7C218.1,88.7,218.1,88.7,218.1,88.7"/>
					<path id="Path_1307" class="st5" d="M218.4,83.9c0.2,0.2,1.2-0.7,2.8-0.8c1.6-0.1,2.8,0.6,2.9,0.4c0.1-0.1-0.1-0.4-0.7-0.7
						c-0.7-0.4-1.5-0.6-2.3-0.5c-0.8,0.1-1.6,0.4-2.2,0.9C218.4,83.4,218.3,83.8,218.4,83.9"/>
					<path id="Path_1308" class="st5" d="M214.2,95.8c-0.8-0.2-1.7-0.3-2.6-0.3c-0.4,0-0.8-0.1-0.9-0.3c-0.1-0.4,0-0.8,0.2-1.2
						c0.3-1,0.6-2,0.9-3.1c1.3-4.4,2.2-8.1,2-8.1c-0.2-0.1-1.4,3.5-2.7,7.9c-0.3,1.1-0.6,2.1-0.9,3.1c-0.2,0.5-0.2,1.1-0.1,1.6
						c0.1,0.3,0.4,0.5,0.7,0.5c0.2,0,0.5,0.1,0.7,0C212.5,96.1,213.3,96,214.2,95.8"/>
					<path id="Path_1309" class="st5" d="M218.8,96.5c-0.3,0-0.1,1.7-1.5,3c-1.3,1.3-3.2,1.3-3.2,1.5c0,0.1,0.4,0.3,1.2,0.3
						c1-0.1,1.9-0.5,2.6-1.2c0.7-0.7,1.1-1.6,1.1-2.5C219.2,96.9,218.9,96.5,218.8,96.5"/>
					<path id="Path_1310" class="st5" d="M218,79.4c0.2,0.4,1.5-0.1,3.2-0.2c1.6-0.1,3,0.1,3.1-0.3c0.1-0.2-0.2-0.5-0.8-0.8
						c-0.8-0.4-1.6-0.5-2.5-0.4c-0.8,0.1-1.6,0.3-2.3,0.8C218.1,78.9,217.9,79.3,218,79.4"/>
					<path id="Path_1311" class="st5" d="M203.5,81c0.3,0.4,1.3,0,2.6,0c1.3-0.1,2.4,0.2,2.6-0.1c0.1-0.2-0.1-0.5-0.5-0.9
						c-1.3-0.8-3-0.8-4.3,0.1C203.6,80.5,203.4,80.8,203.5,81"/>
					<path id="Path_1312" class="st5" d="M201.6,75.3c0,0,2.2-6.5,5.1-8.3c3.6-2.1,5.5,1.8,8.9,0.6c3.4-1.3,6.8-3.3,10.7-0.8
						c4.2,2.7,2.5,4.9,3.1,9.4c2.4,18.1,6.2,23,6.4,14.4c0-0.9,2.6-1.9,2.6-5.9c0.1-5.2-0.2-11.4-1.6-15c-1.2-3-3.1-5-6.5-7.1
						c-5.3-3.3-12.1-2.8-16.7-2C209.1,61.3,200.6,67.4,201.6,75.3"/>
					<path id="Path_1313" class="st12" d="M235.2,90.3c-0.1-1.5,1.1-2.8,2.6-2.9c0,0,0.1,0,0.1,0c1.9,0,4.1,0.9,4.3,4.8
						c0.3,6.9-6.7,5.8-6.7,5.6C235.5,97.7,235.3,93.2,235.2,90.3"/>
					<path id="Path_1314" class="st13" d="M236.9,95.2c0,0,0.1,0.1,0.3,0.2c0.3,0.1,0.6,0.1,0.9,0c0.9-0.6,1.4-1.7,1.3-2.7
						c0-0.6-0.2-1.2-0.4-1.7c-0.2-0.4-0.5-0.8-1-0.9c-0.3-0.1-0.6,0.1-0.7,0.4c-0.1,0.2,0,0.3-0.1,0.3c0,0-0.2-0.1-0.1-0.4
						c0-0.2,0.1-0.3,0.3-0.4c0.2-0.2,0.4-0.2,0.7-0.2c0.6,0.1,1.1,0.5,1.3,1c0.3,0.6,0.5,1.2,0.5,1.9c0,1.4-0.6,2.7-1.6,3.1
						c-0.4,0.1-0.8,0.1-1.1-0.1C236.9,95.3,236.8,95.2,236.9,95.2"/>
					<path id="Path_1315" class="st5" d="M234,76.9c-0.8,0.8-1.8,1.3-2.8,1.6c-1.1,0.3-2.2-0.3-2.6-1.4c-0.1-0.5,0-1-0.4-1.4
						c-0.4-0.4-1.1-0.2-1.7-0.1c-2.1,0.3-4.1-0.8-4.8-2.8c-0.6,0.8-1.7,0.9-2.5,0.4c-0.8-0.5-1.5-1.2-2-1.9c-0.6-0.7-1.5-1.1-2.5-1
						c-0.5,0.2-1,0.4-1.5,0.5c-0.9,0-1.4-1-1.7-1.9s-0.4-1.9-1.2-2.4c-0.7-0.4-1.7-0.1-2.5,0.1s-1.9,0.1-2.2-0.7
						c-0.1-0.4,0-0.9,0.2-1.3c1-1.8,3.2-2.7,5.2-2.1c0.7-3.3,3.9-5.4,7.2-4.7c1.6,0.3,3,1.3,3.8,2.6c2.3-2.5,6.2-2.6,8.7-0.3
						c0.5,0.5,1,1.1,1.3,1.7c2.3-0.8,4.9,0.4,5.7,2.7c0.4,1.1,0.3,2.3-0.2,3.3c1.4,0.5,2.3,1.8,2.6,3.2c0.1,1.4-1.1,3-2.6,2.7
						c0.7,1.2,0.4,2.7-0.8,3.4c-1.1,0.7-2.5,0.4-3.3-0.6"/>
					<path id="Path_1316" class="st7" d="M238.2,73.8c0.1,0.5,0,1-0.3,1.4c-0.3,0.5-0.8,0.8-1.3,0.9c-0.7,0.2-1.4,0-2-0.4l0.3-0.1
						c-0.3,0.7-0.7,1.3-1.2,1.8c-0.3,0.4-0.7,0.7-1.2,0.9c-1.2,0.5-2.6,0.2-3.5-0.7c-0.3-0.4-0.5-0.9-0.7-1.4
						c-0.1-0.2-0.1-0.4-0.1-0.6c0,0,0.1,0.2,0.2,0.5c0.2,0.5,0.4,0.9,0.7,1.3c1.1,1.1,2.9,1.1,4-0.1c0.1-0.1,0.1-0.1,0.2-0.2
						c0.5-0.5,0.9-1.1,1.2-1.7l0.1-0.2l0.2,0.1c0.5,0.4,1.1,0.5,1.7,0.4c0.5-0.1,0.9-0.4,1.2-0.8C237.9,74.7,238.1,74.3,238.2,73.8"
						/>
					<path id="Path_1317" class="st7" d="M223.8,59.1c0,0-0.2,0.1-0.5,0.2c-0.4,0.2-0.8,0.6-1,1l-0.1,0.1l-0.1-0.1
						c-1-1.1-2.2-1.9-3.6-2.4c-0.9-0.3-1.8-0.4-2.8-0.4c-1,0.1-2,0.5-2.9,1.1c-0.7,0.5-1.2,1.1-1.6,1.8c-0.4,0.7-0.6,1.4-0.6,2.1
						v0.2l-0.2,0c-1-0.2-2,0-2.8,0.6c-0.7,0.4-1.2,1.1-1.4,1.8c-0.2,0.7-0.3,1.4-0.3,2.1c-0.1-0.2-0.1-0.4-0.1-0.6
						c-0.1-0.5,0-1.1,0.2-1.6c0.3-0.8,0.8-1.5,1.5-2c0.9-0.6,2-0.9,3.1-0.7l-0.2,0.2c0-0.8,0.2-1.6,0.6-2.3c0.4-0.8,1-1.4,1.7-1.9
						c0.9-0.7,2-1,3.1-1.1c1-0.1,2,0.1,2.9,0.4c1.4,0.5,2.7,1.4,3.6,2.6l-0.2,0c0.3-0.5,0.7-0.8,1.1-1
						C223.5,59.1,223.7,59.1,223.8,59.1"/>
					<path id="Path_1318" class="st8" d="M262.3,156.8c-0.4,0-1.2-32.5-1.2-32.5l-22.2-7.9l-17,15.3l-8.7-13.7l-7.6,3.5
						c-2.1,0.8-4.1,1.8-6,2.8c-2.4,1.8-7.5,6.3-8.9,11.7c-2.2,8.2-5.6,35.6-5.6,35.6l-20.8,7.4l0.5,13.4l20.4,3.2
						c4.9-0.2,10.9-2.3,12.8-5.7v7.2h62.6C260.5,197.1,262.7,156.8,262.3,156.8"/>
					<path id="Path_1319" class="st5" d="M198.6,144.4c0,0,0,0.1,0,0.1c0,0.1,0,0.2,0,0.4c0,0.4,0,0.9,0,1.5c0,1.3-0.1,3.2-0.2,5.6
						c-0.1,2.4-0.3,5.2-0.4,8.3c-0.1,3.1-0.2,6.5-0.2,10.1c0,7.2,0,13.7,0,18.4c0,2.3,0,4.2,0,5.6c0,0.6,0,1.2,0,1.5
						c0,0.2,0,0.3,0,0.4c0,0,0.1,0,0.1,0.1c0,0,0,0.1-0.1,0.1c0,0-0.1,0-0.1-0.1c0,0,0-0.1,0.1-0.1c0-0.1,0-0.2,0-0.4
						c0-0.4,0-0.9,0-1.5c0-1.3,0-3.2-0.1-5.6c0-4.7-0.1-11.2,0-18.4c0-3.6,0.1-7,0.2-10.1c0.1-3.1,0.3-5.9,0.4-8.3s0.2-4.3,0.3-5.6
						c0-0.6,0-1.2,0.1-1.5c0-0.2,0-0.3,0-0.4C198.6,144.5,198.6,144.5,198.6,144.4"/>
					<g id="Group_368" transform="translate(198.699 140.689)" class="st14">
						<g id="Group_367">
							<g>
								<defs>
									<rect id="SVGID_00000113353127260875348870000005133476484096575876_" x="-3.2" y="6.8" width="3.2" height="41.3"/>
								</defs>
								<clipPath id="SVGID_00000008147108815650266410000008688394841666730378_">
									<use xlink:href="#SVGID_00000113353127260875348870000005133476484096575876_"  style="overflow:visible;"/>
								</clipPath>
								<g id="Group_366" style="clip-path:url(#SVGID_00000008147108815650266410000008688394841666730378_);">
									<path id="Path_1320" d="M-0.1,6.8C-3.6,20.2-4.6,34.7-1,48.1C-0.9,33.2-1,19.3-0.1,6.8"/>
								</g>
							</g>
						</g>
					</g>
					<g id="Group_371" transform="translate(258.317 141.062)" class="st14">
						<g id="Group_370">
							<g>
								<defs>
									<rect id="SVGID_00000158021699654521895350000007070264032019871623_" x="-7.5" y="6.8" width="11.1" height="27.3"/>
								</defs>
								<clipPath id="SVGID_00000108269959146826441510000000556276550823969685_">
									<use xlink:href="#SVGID_00000158021699654521895350000007070264032019871623_"  style="overflow:visible;"/>
								</clipPath>
								<g id="Group_369" style="clip-path:url(#SVGID_00000108269959146826441510000000556276550823969685_);">
									<path id="Path_1321" d="M-7.5,7.8l3.9,25.1c0,0.3,0.1,0.6,0.3,0.8c0.4,0.5,1.2,0.4,1.9,0.2c1.6-0.5,4-0.6,4.9-2l0.2-3.6
										c-0.2-1.1-1.3-2.1-1.8-3.1L-7.3,6.8"/>
								</g>
							</g>
						</g>
					</g>
					<path id="Path_1322" class="st8" d="M261,124.2c0,0,7.2,4.1,9.9,9.8c3.3,7,17.8,32.2,18.3,38.5c0.5,6.3,0.3,13.5-10.4,15.6
						c-7.2,1.3-14.6,2-21.9,2l-4.4-13l12.3-6.4l-3.1-2.7c-0.7-0.6-1.2-1.3-1.6-2.1l-9.3-17.8"/>
					<path id="Path_1323" class="st5" d="M250.9,148.2c0,0,0.1,0.1,0.2,0.4l0.6,1.2l2.5,4.7l3.9,7.5l1.2,2.3l0.6,1.2
						c0.2,0.4,0.4,0.8,0.7,1.2c0.3,0.4,0.6,0.7,0.9,1.1c0.3,0.3,0.7,0.6,1.1,1l2.3,2l0.1,0.1l-0.1,0.1l-12.3,6.4l0-0.1l4.4,13
						l-0.1-0.1c3.6,0,7.3-0.2,11.1-0.5c1.9-0.2,3.8-0.4,5.8-0.7s3.9-0.6,5.9-1l1-0.2c0.3-0.1,0.6-0.2,0.9-0.3
						c0.3-0.1,0.6-0.2,0.9-0.3l0.9-0.4c0.1-0.1,0.3-0.1,0.4-0.2l0.4-0.3c0.3-0.2,0.6-0.3,0.8-0.5c0.5-0.4,1-0.8,1.4-1.3
						c0.9-0.9,1.6-2,2-3.2c0.4-1.2,0.7-2.4,0.8-3.7c0.1-1.2,0.1-2.5,0-3.7c0-1.2-0.2-2.4-0.6-3.6c-0.4-1.1-0.8-2.3-1.3-3.4
						c-0.5-1.1-0.9-2.2-1.4-3.2c-1.9-4.2-3.9-8.1-5.8-11.8c-1.9-3.7-3.7-7-5.3-10.1l-2.3-4.4c-0.4-0.7-0.7-1.4-1-2.1l-0.5-1
						c-0.2-0.3-0.3-0.6-0.5-0.9c-0.6-1.1-1.4-2.2-2.2-3.1c-0.7-0.8-1.5-1.6-2.3-2.3c-1.1-1-2.3-1.9-3.6-2.7c-0.4-0.3-0.8-0.5-1-0.6
						c-0.2-0.1-0.3-0.2-0.3-0.2s0.1,0.1,0.3,0.2c0.2,0.1,0.6,0.3,1,0.6c1.3,0.8,2.5,1.7,3.6,2.7c0.8,0.7,1.6,1.5,2.3,2.3
						c0.9,1,1.6,2,2.3,3.1c0.2,0.3,0.3,0.6,0.5,0.9l0.5,1c0.3,0.7,0.7,1.3,1,2l2.3,4.4c1.6,3.1,3.5,6.5,5.4,10.1
						c1.9,3.7,3.9,7.6,5.8,11.8c0.5,1.1,1,2.1,1.4,3.2s0.9,2.2,1.3,3.4c0.4,1.2,0.6,2.4,0.7,3.6c0.1,1.2,0.1,2.5,0,3.8
						c-0.1,1.3-0.3,2.5-0.8,3.7c-0.4,1.2-1.1,2.4-2,3.3c-0.5,0.5-0.9,0.9-1.5,1.3c-0.3,0.2-0.6,0.3-0.8,0.5l-0.4,0.3
						c-0.1,0.1-0.3,0.1-0.5,0.2l-0.9,0.4c-0.3,0.1-0.6,0.2-0.9,0.3c-0.3,0.1-0.6,0.2-1,0.3l-1,0.2c-2,0.5-3.9,0.8-5.9,1
						c-1.9,0.3-3.9,0.5-5.8,0.7c-3.8,0.3-7.5,0.5-11.1,0.5h-0.1l0-0.1l-4.4-13l0-0.1l0.1,0l12.3-6.3l0,0.1l-2.3-2
						c-0.4-0.3-0.7-0.6-1.1-1c-0.3-0.3-0.6-0.7-0.9-1.1c-0.3-0.4-0.5-0.8-0.7-1.2l-0.6-1.2l-1.2-2.3l-3.9-7.5l-2.4-4.8l-0.6-1.2
						C250.9,148.4,250.9,148.2,250.9,148.2"/>
					<path id="Path_1324" class="st5" d="M257.7,123.8c-0.2,0.2-0.4,0.3-0.7,0.4c-0.6,0.4-1.2,0.8-1.8,1.3c-3.8,3-6,7.6-6.1,12.4
						c0,0.7,0,1.4,0.1,2.2c0,0.3,0.1,0.5,0.1,0.8c0-0.1,0-0.1-0.1-0.2c0-0.1-0.1-0.3-0.1-0.6c-0.1-0.7-0.1-1.5-0.1-2.2
						c0-4.9,2.3-9.5,6.2-12.5c0.6-0.5,1.2-0.9,1.8-1.2c0.2-0.1,0.4-0.2,0.5-0.3C257.6,123.9,257.6,123.8,257.7,123.8"/>
					<path id="Path_1325" class="st5" d="M277.9,165.5c-0.2,0.1-0.4,0.1-0.5,0.2l-1.5,0.4c-1.6,0.4-3.2,0.9-4.8,1.5
						c-1.6,0.6-3.1,1.3-4.5,2.2c-0.6,0.3-1,0.6-1.3,0.8c-0.2,0.1-0.3,0.2-0.5,0.3c0.1-0.1,0.3-0.2,0.4-0.3c0.3-0.2,0.7-0.5,1.3-0.8
						c1.4-0.9,2.9-1.6,4.5-2.2c1.6-0.6,3.2-1.1,4.8-1.5c0.6-0.1,1.1-0.2,1.5-0.3C277.5,165.6,277.7,165.5,277.9,165.5"/>
					<g id="Group_374" transform="translate(227.318 107.961)" class="st14">
						<g id="Group_373">
							<g>
								<defs>
									<rect id="SVGID_00000138534955537188781870000010383706334577768068_" x="-5.3" y="9.2" width="19.2" height="16.1"/>
								</defs>
								<clipPath id="SVGID_00000144297137988488326210000013799644605867688074_">
									<use xlink:href="#SVGID_00000138534955537188781870000010383706334577768068_"  style="overflow:visible;"/>
								</clipPath>
								<g id="Group_372" style="clip-path:url(#SVGID_00000144297137988488326210000013799644605867688074_);">
									<path id="Path_1326" d="M11,9.2c-0.7,0.1-1.3,0.4-1.8,0.9c-5.1,3.7-9.7,8-13.9,12.8l-0.7,1.3c1.6-1,3.3-2.1,5.2-1.7
										c1.6,0.3,2.7,1.6,3.7,2.9c3.8-4.7,7.2-9.7,10.3-14.9C13.1,9.6,12.1,9.2,11,9.2"/>
								</g>
							</g>
						</g>
					</g>
					<path id="Path_1327" class="st6" d="M222,131.7l6.3-7.9l9.4-11.2l5,4.7l-8.8,13.6l-6.2-3.7L222,131.7z"/>
					<g id="Group_377" transform="translate(215.001 111.136)" class="st14">
						<g id="Group_376">
							<g>
								<defs>
									<rect id="SVGID_00000154401752318548550230000003817666513619410561_" x="-4.4" y="8.9" width="10.2" height="14"/>
								</defs>
								<clipPath id="SVGID_00000087378909740016068160000013952634189811608981_">
									<use xlink:href="#SVGID_00000154401752318548550230000003817666513619410561_"  style="overflow:visible;"/>
								</clipPath>
								<g id="Group_375" style="clip-path:url(#SVGID_00000087378909740016068160000013952634189811608981_);">
									<path id="Path_1328" d="M-4.3,10.4c0.8,4.5,2.9,8.2,3.7,12.6c1-1.3,0.8-1.9,1.8-3.2c0.4-0.6,0.9-1,1.5-1.3
										c1.1-0.4,2.3,0.2,3.2,0.8c-1.5-1.7-3.2-3.2-5-4.6l-0.1,0.4C-0.9,13-2.7,11-4.4,8.9"/>
								</g>
							</g>
						</g>
					</g>
					<path id="Path_1329" class="st6" d="M221.9,131.7l-8.8-15l-3.1,2.9l3,13.4l4.2-5.4L221.9,131.7z"/>
					<path id="Path_1330" class="st5" d="M221.5,131.1c0,0-0.1-0.1-0.2-0.2l-0.4-0.7l-1.7-2.8l-6.2-10.5l0.1,0l-3.2,2.8l0-0.1
						l3,13.5l-0.2,0l4.2-5.4l0.1-0.1l0.1,0.1l4.7,4.1l-0.1,0l0.5-0.1l-0.1,0c1.5-1.4,3.2-2.7,4.8-4.1l0.4-0.4l0.1-0.1l0.1,0
						c2.2,1.2,4.2,2.6,6.2,3.7l-0.1,0l8.8-13.6l0,0.1l-5-4.7l0.1,0l-11,13.4l-3.1,3.7l-0.8,1c-0.2,0.2-0.3,0.3-0.3,0.3
						s0.1-0.1,0.3-0.3l0.8-1l3-3.8l11-13.5l0.1-0.1l0.1,0.1l5,4.7l0.1,0.1l0,0.1l-8.8,13.6l-0.1,0.1l-0.1,0
						c-2.1-1.1-4.1-2.6-6.2-3.7l0.1,0l-0.4,0.4c-1.6,1.4-3.3,2.8-4.8,4.1l0,0l0,0l-0.5,0.1l-0.1,0l0,0l-4.7-4.1l0.2,0l-4.2,5.4
						l-0.1,0.2l0-0.2l-3-13.5l0,0l0,0l3.2-2.8l0.1-0.1l0,0.1l6.1,10.5l1.7,2.9l0.4,0.7C221.5,131,221.5,131.1,221.5,131.1"/>
					<path id="Path_1331" class="st5" d="M198.1,127.8c0.1,0,0,2.7-0.1,6.1c-0.1,3.4-0.2,6.1-0.3,6.1c-0.1,0,0-2.7,0.1-6.1
						C197.9,130.6,198,127.8,198.1,127.8"/>
					<path id="Path_1332" class="st12" d="M235.3,178.7c-0.5,0.1-1.1,0.3-1.5,0.6c-1.1,0.8-1.4,2.3-1.5,3.6c0,0.4-0.1,0.9,0.3,1.2
						c0.3,0.2,0.7,0.2,1,0c2.3-0.7,4.5-1.7,6.6-2.9c1.2-0.5,2.1-1.5,2.6-2.7l0.1-0.5C240.3,177.9,237.7,178.2,235.3,178.7"/>
					<path id="Path_1333" class="st5" d="M245.2,167.8c-4.1,4.9-19.4,23.2-19.4,23.2l-0.6,2.6c0,0.1,0,0.2,0.2,0.2c0,0,0.1,0,0.1,0
						l2.5-1l19.7-22.9c0.6-0.7,0.6-1.7-0.1-2.3C246.9,167,245.9,167.1,245.2,167.8C245.2,167.8,245.2,167.8,245.2,167.8"/>
					<path id="Path_1334" class="st7" d="M243.7,169.6l2.5,2.1l0.7-0.8l-2.5-2.1L243.7,169.6z"/>
					<path id="Path_1335" class="st7" d="M240.7,176.3c-0.2,0-0.4-0.1-0.6-0.2l0,0c-0.4-0.3-0.4-0.9-0.1-1.2l2.9-3.4
						c0.3-0.4,0.9-0.4,1.2-0.1c0.4,0.3,0.4,0.9,0.1,1.2c0,0,0,0,0,0l-2.9,3.4C241.2,176.2,241,176.3,240.7,176.3
						C240.8,176.3,240.7,176.3,240.7,176.3 M240.2,176c0.3,0.3,0.8,0.2,1.1-0.1l2.9-3.4c0.3-0.3,0.3-0.8,0-1.1
						c-0.3-0.3-0.8-0.3-1.1,0c0,0,0,0,0,0l-2.9,3.4C239.9,175.2,239.9,175.7,240.2,176C240.2,176,240.2,176,240.2,176L240.2,176z"/>
					<path id="Path_1336" class="st7" d="M242.8,174.3c0,0-0.3-0.2-0.7-0.5c-0.3-0.3-0.6-0.6-0.5-0.6c0,0,0.3,0.2,0.7,0.5
						C242.6,174,242.8,174.2,242.8,174.3"/>
					<path id="Path_1337" class="st12" d="M252.7,177.9l-3.8,1.3c0,0-3.5-0.9-5-1.2c-1-0.2-2.1-0.1-3,0.5c-1.8,1.2-4.9,3.2-6,3.9
						c-1.1,0.7-4,3.1-4,3.1s-2.1,2.4-1.4,3.7s2.5,1.2,2.5,1.2c0.3,1.1,1.1,1.9,2.2,2.1c0,0-0.5,0.7,1.3,1.2c1.8,0.5,5.9,0,5.9,0
						s7.5,0.3,8.3-0.1c1.4-1.1,2.7-2.3,3.9-3.6l2.7-1.6L252.7,177.9z"/>
					<path id="Path_1338" class="st13" d="M237.7,180.5c-0.4,0.3-0.7,0.6-1.2,0.8c-0.7,0.5-1.7,1.2-2.8,1.9
						c-0.9,0.7-1.8,1.4-2.6,2.2c-0.6,0.6-1,1-1,1c0.1-0.1,0.1-0.2,0.2-0.3c0.2-0.2,0.4-0.5,0.7-0.8c0.8-0.8,1.7-1.6,2.6-2.2
						c1.1-0.8,2.1-1.4,2.9-1.9C236.9,181,237.3,180.7,237.7,180.5"/>
					<path id="Path_1339" class="st13" d="M241.3,184.1c-0.1,0.1-0.2,0.2-0.4,0.2l-1.1,0.6c-0.9,0.5-2.2,1.2-3.5,2
						c-1.1,0.7-2.2,1.5-3.2,2.4c-0.8,0.7-1.2,1.2-1.2,1.1c0.1-0.1,0.2-0.3,0.3-0.4c0.2-0.2,0.5-0.5,0.8-0.9c1-0.9,2-1.8,3.2-2.5
						c1.1-0.7,2.3-1.4,3.5-2c0.5-0.2,0.8-0.4,1.1-0.5C241,184.2,241.1,184.1,241.3,184.1"/>
					<path id="Path_1340" class="st13" d="M245.1,186.8c-0.1,0.1-0.2,0.2-0.3,0.3c-0.2,0.2-0.6,0.5-1,0.8c-0.9,0.7-2.2,1.5-3.7,2.3
						c-1.3,0.7-2.6,1.3-4,1.7c-0.5,0.2-1,0.3-1.3,0.4c-0.2,0.1-0.3,0.1-0.5,0.1c0.1-0.1,0.3-0.1,0.4-0.2l1.2-0.4
						c1.4-0.5,2.7-1.1,3.9-1.8c1.5-0.9,2.8-1.6,3.7-2.3c0.5-0.3,0.8-0.6,1.1-0.8C244.8,187,244.9,186.9,245.1,186.8"/>
					<path id="Path_1341" class="st13" d="M246.7,190.2c-0.2,0.3-0.4,0.5-0.6,0.7c-1.1,1-2.4,1.8-3.8,2.4c-0.3,0.1-0.6,0.2-0.9,0.3
						c0-0.1,1.3-0.6,2.7-1.5S246.7,190.1,246.7,190.2"/>
					<path id="Path_1342" class="st5" d="M268,197.3h-56.9c0-2,1.6-3.7,3.7-3.7l0,0h49.6C266.4,193.7,268,195.3,268,197.3"/>
					<path id="Path_1343" class="st4" d="M199.3,194.2l-26.3-0.1l-8.9-42.2c-0.4-1.7-1.9-3-3.7-3h-55c-2.1,0-3.8,1.7-3.8,3.8
						c0,0.3,0,0.5,0.1,0.8l9.1,41.5c0.3,1.4,1.5,2.4,3,2.4h89.3C203.1,195.2,201.4,194.2,199.3,194.2"/>
					<path id="Path_1344" class="st5" d="M171.3,197.3c-0.1,0-2.5-10.8-5.5-24.2c-3-13.4-5.4-24.2-5.3-24.3c0.1,0,2.5,10.8,5.5,24.2
						C168.9,186.4,171.3,197.3,171.3,197.3"/>
					<path id="Path_1345" class="st6" d="M138.8,172.5c1,1.7,0.4,3.9-1.3,4.8c-1.7,1-3.9,0.4-4.8-1.3c-0.9-1.6-0.5-3.5,1-4.6
						C135.3,170.3,137.6,170.7,138.8,172.5"/>
					<path id="Path_1346" class="st5" d="M186.2,196.5h-2.1c-0.5,0-0.9-0.4-0.9-0.9c0-0.5,0.4-0.9,0.9-0.9h2.1
						c0.5,0,0.9,0.4,0.9,0.9C187.1,196.1,186.7,196.5,186.2,196.5"/>
					<path id="Path_1347" class="st5" d="M223.8,195.5c0,0,0.1,0.1,0.1,0.1c0.1,0.1,0.2,0.3,0.2,0.4c0.1,0.6-0.2,1.3-0.7,1.7
						c-0.4,0.3-0.8,0.4-1.3,0.5c-0.5,0-1.1,0-1.6,0c-0.6-0.1-1.2-0.1-1.8-0.1c-0.3,0-0.6,0.1-0.9,0.2c-0.3,0.1-0.6,0.3-0.7,0.6
						c-0.1,0.3,0,0.7,0.2,0.9c0.2,0.3,0.6,0.5,0.9,0.6c0.4,0.1,0.8,0.3,1.1,0.5c0.4,0.2,0.7,0.6,0.8,1c0.1,0.9-0.5,1.8-1.4,2.1
						c-0.9,0.3-1.8,0.4-2.8,0.3c-2,0-4-0.1-6-0.4c-2.1-0.2-4.2-0.5-6.4-0.7c-2.1-0.2-4.3-0.2-6.4,0c-2.1,0.2-4,0.5-5.9,0.5
						c-0.9,0-1.9,0-2.8-0.2c-0.9-0.2-1.7-0.7-2.2-1.4c-0.5-0.7-0.7-1.6-0.5-2.4c0.2-0.8,1-1.3,1.8-1.3c0.4,0,0.7,0.3,0.8,0.7
						c0.1,0.7-0.3,1.4-1,1.5c0,0,0,0,0,0c-0.3,0-0.6,0-0.9-0.1c-0.5-0.2-0.9-0.6-1.1-1.2c-0.2-0.4-0.3-0.9-0.3-1.3
						c0-0.8,0-1.4,0-1.9c0-0.2,0-0.4,0-0.5c0-0.1,0-0.1,0-0.2c0,0.1,0,0.1,0,0.2c0,0.1,0,0.3,0,0.5c0,0.4,0,1,0,1.8
						c0,0.4,0.1,0.9,0.3,1.3c0.2,0.5,0.6,0.9,1.1,1.1c0.3,0.1,0.5,0.2,0.8,0.1c0.3-0.1,0.6-0.2,0.7-0.5c0.2-0.3,0.3-0.6,0.2-0.9
						c-0.1-0.3-0.4-0.5-0.7-0.6c-0.7-0.1-1.4,0.4-1.6,1.2c-0.2,0.8,0,1.6,0.5,2.2c0.5,0.7,1.3,1.1,2.1,1.3c0.9,0.2,1.8,0.3,2.7,0.2
						c1.9,0,3.9-0.3,5.9-0.5c2.1-0.2,4.3-0.2,6.4,0c2.2,0.2,4.3,0.5,6.4,0.7c2,0.3,3.9,0.4,5.9,0.4c0.9,0,1.8-0.1,2.7-0.3
						c0.4-0.1,0.7-0.4,1-0.8c0.2-0.3,0.3-0.7,0.3-1.2c-0.1-0.4-0.3-0.7-0.7-0.9c-0.4-0.2-0.7-0.3-1.1-0.5c-0.4-0.1-0.7-0.4-1-0.7
						c-0.1-0.2-0.2-0.3-0.3-0.5c0-0.2,0-0.4,0.1-0.6c0.2-0.3,0.5-0.6,0.8-0.7c0.3-0.1,0.7-0.2,1-0.2c0.6,0,1.2,0,1.8,0.1
						c0.5,0.1,1,0.1,1.6,0.1c0.4,0,0.9-0.2,1.2-0.4c0.5-0.4,0.8-1,0.7-1.6C224.1,195.8,224,195.6,223.8,195.5"/>
					<path id="Path_1348" class="st7" d="M267.3,195.5c0,0.1-12.5,0.1-27.9,0.1s-27.9,0-27.9-0.1c0-0.1,12.5-0.1,27.9-0.1
						S267.3,195.4,267.3,195.5"/>
					<path id="Path_1349" class="st6" d="M246.4,70.6l7.3-1.1c10.3,6.8,24.2,3.9,31-6.4s3.9-24.2-6.4-31c-10.3-6.8-24.2-3.9-31,6.4
						c-5.1,7.8-4.9,17.9,0.6,25.5l0,0L246.4,70.6z"/>
					<path id="Path_1350" class="st5" d="M246.4,70.6c0,0,0-0.1,0.1-0.4l0.3-1.3l1.1-5c0,0,0,0,0.1,0c0,0,0,0,0,0l0,0l-0.1,0.1
						c-1-1.3-1.8-2.8-2.5-4.3c-0.8-1.9-1.4-3.9-1.7-5.9c-0.2-1.2-0.2-2.3-0.2-3.5c0-1.2,0.2-2.5,0.4-3.7c0.5-2.7,1.5-5.3,2.9-7.6
						c3.4-5.4,8.9-9.2,15.1-10.3c3.4-0.6,7-0.4,10.3,0.6c1.7,0.5,3.4,1.2,5,2.1l1.1,0.7l0.6,0.4c0.2,0.1,0.4,0.3,0.5,0.4l1.1,0.9
						c0.4,0.3,0.7,0.6,1,1c0.7,0.6,1.3,1.3,1.8,2l0.2,0.3l0.2,0.3l0.4,0.6c0.3,0.4,0.5,0.7,0.8,1.1l0.7,1.2c0.1,0.2,0.2,0.4,0.3,0.6
						l0.3,0.6l0.5,1.2c0.2,0.4,0.3,0.8,0.4,1.3c2.1,6.4,1.2,13.5-2.5,19.1c-3.1,4.8-8,8.3-13.6,9.6l-0.9,0.2l-0.5,0.1l-0.5,0.1
						c-0.6,0.1-1.2,0.2-1.8,0.2c-1.2,0.1-2.3,0-3.5,0c-3.7-0.3-7.3-1.6-10.4-3.6l0,0l-5.5,0.8l-1.4,0.2
						C246.6,70.6,246.4,70.6,246.4,70.6c0,0,0.2,0,0.5-0.1l1.4-0.2l5.4-0.9c0,0,0,0,0,0c3.1,2,6.7,3.3,10.4,3.6
						c1.1,0.1,2.3,0.1,3.4,0c0.6-0.1,1.2-0.1,1.8-0.2l0.5-0.1l0.5-0.1l0.9-0.2c11.9-2.9,19.3-14.8,16.4-26.8
						c-0.1-0.6-0.3-1.2-0.5-1.8c-0.1-0.4-0.3-0.8-0.4-1.2l-0.5-1.2l-0.3-0.6c-0.1-0.2-0.2-0.4-0.3-0.6l-0.7-1.2
						c-0.2-0.4-0.5-0.7-0.8-1.1l-0.4-0.5l-0.2-0.3l-0.2-0.3c-0.6-0.7-1.2-1.4-1.8-2c-0.3-0.3-0.6-0.6-1-0.9l-1.1-0.9
						c-0.2-0.1-0.4-0.3-0.5-0.4l-0.6-0.4l-1.1-0.7c-1.5-0.9-3.2-1.6-4.9-2.1c-9.6-2.8-19.9,1.1-25.2,9.6c-1.4,2.3-2.4,4.9-2.9,7.5
						c-0.2,1.2-0.4,2.5-0.4,3.7c0,1.2,0,2.3,0.2,3.5c0.3,2,0.8,4,1.6,5.9c0.6,1.5,1.5,2.9,2.4,4.3c0,0,0,0,0,0.1c0,0,0,0-0.1,0l0,0
						l0.1,0l-1.1,4.9l-0.3,1.3C246.4,70.4,246.4,70.6,246.4,70.6"/>
					<path id="Path_1351" class="st4" d="M272.4,60.1l-5.6,2.5c-2.7,1.2-5.9,0-7.1-2.7c0,0,0,0,0,0l-5.4-12l15.3-7l5.4,12
						C276.3,55.7,275.1,58.9,272.4,60.1C272.4,60.1,272.4,60.1,272.4,60.1"/>
					<path id="Path_1352" class="st5" d="M272.4,60.1c0.5-0.2,0.9-0.5,1.3-0.9c0.5-0.4,0.9-0.9,1.1-1.5c0.4-0.7,0.6-1.6,0.6-2.4
						c0-0.5-0.1-1-0.2-1.5c-0.2-0.5-0.4-1-0.6-1.5l-1.5-3.3l-3.6-7.9l0.1,0.1l-10.4,4.7l-4.9,2.2l0.1-0.1l4.5,10
						c0.3,0.8,0.7,1.5,1,2.2c1,1.9,3,3.1,5.1,2.9c1.1-0.2,2.1-0.5,3.1-1.1l2.3-1l1.4-0.6l0.4-0.2C272.3,60.2,272.4,60.1,272.4,60.1
						c0,0-0.1,0-0.1,0.1l-0.4,0.2l-1.4,0.7l-2.3,1l-1.4,0.6c-2.6,1.2-5.7,0.1-7-2.5c-0.4-0.7-0.7-1.5-1-2.2l-4.5-10l0-0.1l0.1,0
						l4.9-2.2l10.4-4.7l0.1,0l0,0.1l3.6,7.9l1.5,3.4c0.2,0.5,0.4,1,0.6,1.5c0.1,0.5,0.2,1,0.2,1.5c0,0.9-0.2,1.7-0.7,2.5
						c-0.3,0.6-0.7,1.1-1.2,1.5c-0.3,0.3-0.6,0.5-1,0.7L272.4,60.1C272.5,60.1,272.4,60.1,272.4,60.1"/>
					<path id="Path_1353" class="st8" d="M254.4,48.1c2.8,0.7,5.8,0.5,8.5-0.7c2.9-1.3,5.2-3.5,6.7-6.3L254.4,48.1z"/>
					<path id="Path_1354" class="st5" d="M270.8,43.5c0.1,0.1,0.2,0.2,0.3,0.3l0.7,0.8l2.5,3.1l1.7,2.2c0.3,0.4,0.6,0.8,1,1.2
						c0.3,0.5,0.5,1,0.5,1.6c0,0.6-0.1,1.2-0.5,1.7c-0.3,0.5-0.8,1-1.4,1.2l-3.4,1.6l-1.7,0.8c-0.6,0.3-1.2,0.5-1.8,0.7
						c-1.8,0.4-3.6-0.1-4.9-1.4c-0.4-0.4-0.7-0.8-1.1-1.1l-1.9-2l-2.7-2.9l-0.7-0.8c-0.1-0.1-0.2-0.2-0.2-0.3
						c0.1,0.1,0.2,0.2,0.3,0.2l0.8,0.8l2.8,2.8l1.9,2c0.7,0.8,1.5,1.5,2.4,2c1,0.5,2.2,0.6,3.3,0.4c0.6-0.2,1.2-0.4,1.7-0.7l1.7-0.8
						l3.4-1.6c1-0.5,1.7-1.5,1.7-2.6c0-0.5-0.2-1-0.4-1.5c-0.3-0.4-0.6-0.8-0.9-1.2l-1.7-2.2l-2.4-3.2l-0.6-0.9
						C270.9,43.7,270.8,43.6,270.8,43.5"/>
					<path id="Path_1355" class="st5" d="M258,50.1c0.2,0.5,0,1-0.5,1.2c-0.5,0.2-1,0-1.2-0.5c-0.2-0.5,0-1,0.5-1.2
						C257.3,49.4,257.8,49.6,258,50.1C258,50.1,258,50.1,258,50.1"/>
					<path id="Path_1356" class="st8" d="M269.5,41.3c0.2,0.3-0.1,0.9,0.1,1.3c0.3,0.7,0.2,1.5-0.4,2.1c0,0-0.1,0.1-0.1,0.1
						c-0.1,0.4-0.1,0.9,0,1.3c0.2,0.7,0.4,1.4,0.6,2.1c0.1,0.4,0.2,0.9,0.2,1.3c0,0.5-0.3,0.9-0.7,1c-0.6,0.1-1.3-0.2-1.6-0.8
						c-0.4-0.7-0.6-1.5-1.4-1.9c-0.4-0.2-0.8-0.2-1.1,0.1c-0.7,0.7,0.4,1.9-0.2,2.6c-0.2,0.2-0.5,0.3-0.8,0.2c-0.5-0.2-1-0.5-1.3-1
						l-1.6-2L269.5,41.3z"/>
				</g>
			</g>
		</g>
	</g>
</g>
</svg>
