<?xml version="1.0" encoding="utf-8"?>
<!-- Generator: Adobe Illustrator 26.1.0, SVG Export Plug-In . SVG Version: 6.00 Build 0)  -->
<svg version="1.1" id="service-3" xmlns="http://www.w3.org/2000/svg" xmlns:xlink="http://www.w3.org/1999/xlink" x="0px" y="0px"
	 viewBox="0 0 300 221.3" style="enable-background:new 0 0 300 221.3;" xml:space="preserve">
<style type="text/css">
	.st0{clip-path:url(#SVGID_00000078753870903524924380000001082361086104684463_);}
	.st1{fill:#EBEBEB;}
	.st2{clip-path:url(#SVGID_00000007396189740779274310000011339653719325835192_);}
	.st3{fill:none;stroke:#263238;stroke-width:3;stroke-miterlimit:10;}
	.st4{fill:none;stroke:#D6D6D6;stroke-miterlimit:10;}
	.st5{fill:#D6D6D6;}
	.st6{clip-path:url(#SVGID_00000063592566107966544160000011371426792663165109_);}
	.st7{fill:#D8D8D8;}
	.st8{clip-path:url(#SVGID_00000092426486106400645100000005558866405333629350_);}
	.st9{fill:#263238;}
	.st10{opacity:0.2;}
	.st11{clip-path:url(#SVGID_00000164473673680565014320000011349927254650252965_);}
	.st12{fill:#FFFFFF;}
	.st13{opacity:0.3;}
	.st14{clip-path:url(#SVGID_00000165219931191236591660000009773018849641656723_);}
	.st15{fill:#407BFF;}
	.st16{opacity:0.6;}
	.st17{clip-path:url(#SVGID_00000070096703916381766650000008299084713896846486_);}
	.st18{fill:#FFC023;}
	.st19{clip-path:url(#SVGID_00000039853953575006838360000014275071931403720379_);}
	.st20{opacity:0.5;}
	.st21{clip-path:url(#SVGID_00000029754759568609757870000003433898865657062570_);}
	.st22{opacity:0.1;}
	.st23{clip-path:url(#SVGID_00000150091928803379594290000002501614242993782971_);}
	.st24{clip-path:url(#SVGID_00000173875547991142049110000007242322160126367674_);}
	.st25{clip-path:url(#SVGID_00000073720132937938028460000004950983932815405485_);}
	.st26{opacity:0.8;}
	.st27{clip-path:url(#SVGID_00000000219616574083991100000011256003531131320506_);}
	.st28{clip-path:url(#SVGID_00000029019874235362664650000012208815652061052052_);}
	.st29{clip-path:url(#SVGID_00000024704887057254085770000001870057978890012816_);}
	.st30{fill:#FAB27B;}
	.st31{clip-path:url(#SVGID_00000176034532385949496990000010206271888668806072_);}
	.st32{opacity:0.4;}
	.st33{clip-path:url(#SVGID_00000044172017106879016770000018092066735719157124_);}
	.st34{clip-path:url(#SVGID_00000110452121831708793180000011199270652826536857_);}
	.st35{clip-path:url(#SVGID_00000068657258019670187380000002382376050941477518_);}
	.st36{clip-path:url(#SVGID_00000115484094454766185910000015959540073402569379_);}
	.st37{clip-path:url(#SVGID_00000083805418092607572490000006664583246621475498_);}
	.st38{clip-path:url(#SVGID_00000095332434633611083280000003566367187631372956_);}
	.st39{fill:#ED893E;}
	.st40{clip-path:url(#SVGID_00000091727883084185246880000000809068808413524615_);}
	.st41{fill:none;stroke:#263238;stroke-width:2;stroke-miterlimit:10;}
	.st42{opacity:0.7;}
	.st43{clip-path:url(#SVGID_00000155133566968217280960000010123068216953373062_);}
	.st44{clip-path:url(#SVGID_00000129896241249618992850000002508547269243535038_);}
	.st45{fill:#FF9700;}
	.st46{clip-path:url(#SVGID_00000018923688982434221120000015995631969169392033_);}
	.st47{clip-path:url(#SVGID_00000076599167018597393660000017190435741594104459_);}
	.st48{clip-path:url(#SVGID_00000170987906845090790490000006373814525710229437_);}
	.st49{clip-path:url(#SVGID_00000162325187965189138100000016231223784546048191_);}
	.st50{clip-path:url(#SVGID_00000157285352110383960370000012580797609234625689_);}
	.st51{clip-path:url(#SVGID_00000012448736948387712300000007789977927945891251_);}
	.st52{clip-path:url(#SVGID_00000026140709909980787480000004197876249401716916_);}
	.st53{clip-path:url(#SVGID_00000176741620844703689020000016156832669907443332_);}
</style>
<g>
	<defs>
		<rect id="SVGID_1_" x="12" y="8.9" width="276.7" height="204"/>
	</defs>
	<clipPath id="SVGID_00000055689114572136798850000009464187518860808090_">
		<use xlink:href="#SVGID_1_"  style="overflow:visible;"/>
	</clipPath>
	<g id="Group_348" style="clip-path:url(#SVGID_00000055689114572136798850000009464187518860808090_);">
		<rect id="Rectangle_1159" x="242.6" y="198.9" class="st1" width="18.3" height="0.1"/>
		<rect id="Rectangle_1160" x="190.5" y="200.4" class="st1" width="4.8" height="0.1"/>
		<rect id="Rectangle_1161" x="231.4" y="193.8" class="st1" width="10.6" height="0.1"/>
		<rect id="Rectangle_1162" x="41" y="194.7" class="st1" width="23.9" height="0.1"/>
		<rect id="Rectangle_1163" x="69.9" y="194.7" class="st1" width="3.5" height="0.1"/>
		<rect id="Rectangle_1164" x="84.7" y="197.1" class="st1" width="51.8" height="0.1"/>
		<g id="Group_259">
			<g>
				<defs>
					<rect id="SVGID_00000119814841557441809210000001789539583677326755_" x="12" y="8.9" width="276.7" height="204"/>
				</defs>
				<clipPath id="SVGID_00000016761996057206090460000007497245438633045648_">
					<use xlink:href="#SVGID_00000119814841557441809210000001789539583677326755_"  style="overflow:visible;"/>
				</clipPath>
				<g id="Group_258" style="clip-path:url(#SVGID_00000016761996057206090460000007497245438633045648_);">
					<path id="Path_576" class="st1" d="M143.1,165.4H36.3c-1.7,0-3.2-1.4-3.2-3.2V12c0-1.7,1.4-3.2,3.2-3.2h106.8
						c1.7,0,3.2,1.4,3.2,3.2v150.2C146.3,163.9,144.9,165.4,143.1,165.4 M36.3,9c-1.7,0-3,1.4-3,3v150.2c0,1.7,1.4,3,3,3h106.8
						c1.7,0,3-1.4,3-3V12c0-1.7-1.4-3-3-3H36.3z"/>
					<path id="Path_577" class="st1" d="M262.8,165.4H156c-1.7,0-3.2-1.4-3.2-3.2V12c0-1.7,1.4-3.2,3.2-3.2h106.8
						c1.7,0,3.2,1.4,3.2,3.2v150.2C266,163.9,264.6,165.4,262.8,165.4 M156,9c-1.7,0-3,1.4-3,3v150.2c0,1.7,1.4,3,3,3h106.8
						c1.7,0,3-1.4,3-3V12c0-1.7-1.4-3-3-3H156z"/>
					<rect id="Rectangle_1165" x="12" y="190" class="st1" width="276.7" height="0.1"/>
					<circle id="Ellipse_168" class="st3" cx="153.2" cy="130.6" r="2.4"/>
					<line id="Line_1" class="st3" x1="154.9" y1="132.3" x2="158.7" y2="136.2"/>
					<path id="Path_578" class="st4" d="M258.8,36c0,9.2-7.4,16.6-16.6,16.6c-9.2,0-16.6-7.4-16.6-16.6s7.4-16.6,16.6-16.6
						S258.8,26.9,258.8,36C258.8,36,258.8,36,258.8,36z"/>
					<path id="Path_579" class="st4" d="M242.2,53c-9.4,0-17-7.6-17-17s7.6-17,17-17v0.7c-9,0.1-16.2,7.4-16.1,16.3
						c0.1,8.9,7.2,16,16.1,16.1V53z"/>
					<path id="Path_580" class="st4" d="M242.2,53v-0.7c9,0.1,16.3-7.1,16.3-16.1c0.1-9-7.1-16.3-16.1-16.3c-0.1,0-0.2,0-0.2,0v-0.7
						c9.4,0,17,7.6,17,17S251.6,53,242.2,53C242.2,53,242.2,53,242.2,53L242.2,53z"/>
					<path id="Path_581" class="st4" d="M250.9,36h-0.7c0-5.5-2.8-12.9-8.1-16.3l0.4-0.6C248,22.7,250.9,30.3,250.9,36z"/>
					<path id="Path_582" class="st4" d="M242.4,52.4l-0.4-0.6c5.3-3.4,8.1-10.8,8.1-16.3h0.7C250.9,41.2,248,48.9,242.4,52.4z"/>
					<path id="Path_583" class="st4" d="M234.3,36h-0.7c0-5.7,2.9-13.3,8.5-16.9l0.4,0.6C237.1,23.2,234.3,30.5,234.3,36z"/>
					<path id="Path_584" class="st4" d="M242,52.4c-5.6-3.6-8.5-11.2-8.5-16.9h0.7c0,5.5,2.8,12.9,8.1,16.3L242,52.4z"/>
					<rect id="Rectangle_1166" x="241.9" y="19.4" class="st4" width="0.7" height="33.2"/>
					<rect id="Rectangle_1167" x="228.2" y="26.8" class="st4" width="28.1" height="0.7"/>
					<rect id="Rectangle_1168" x="225.7" y="35.9" class="st4" width="33.2" height="0.7"/>
					<rect id="Rectangle_1169" x="228.6" y="45.1" class="st4" width="27.3" height="0.7"/>
					<path id="Path_585" class="st5" d="M64.9,29.9c0-1.1-0.2-2.2-0.5-3.3l2.9-2.5l-1.8-3.2l-3.6,1.2c-1.5-1.6-3.5-2.8-5.7-3.3
						l-0.8-3.8h-3.6L51,18.9c-2.2,0.5-4.2,1.7-5.7,3.3l-3.6-1.2l-1.8,3.2l2.9,2.5c-0.6,2.1-0.6,4.4,0,6.6l-2.9,2.5l1.8,3.2l3.6-1.2
						c1.5,1.6,3.5,2.8,5.7,3.3l0.8,3.8h3.6l0.8-3.8c2.2-0.5,4.2-1.7,5.7-3.3l3.6,1.2l1.8-3.2l-2.9-2.5C64.7,32.1,64.9,31,64.9,29.9
						 M53.5,36c-3.3,0-5.9-2.6-5.9-5.9c0-3.3,2.6-5.9,5.9-5.9c3.3,0,5.9,2.6,5.9,5.9v0C59.4,33.4,56.8,36,53.5,36
						C53.5,36,53.5,36,53.5,36"/>
					<path id="Path_586" class="st5" d="M80.5,45.6c0-0.8-0.1-1.7-0.4-2.5l2.2-1.9l-1.4-2.4l-2.8,0.9c-1.2-1.2-2.7-2.1-4.3-2.5
						l-0.6-2.9h-2.8l-0.6,2.9c-1.7,0.4-3.2,1.3-4.3,2.5l-2.8-0.9l-1.4,2.4l2.2,1.9c-0.5,1.6-0.5,3.4,0,5L61.4,50l1.4,2.4l2.8-0.9
						c1.2,1.2,2.7,2.1,4.3,2.5l0.6,2.9h2.8l0.6-2.9c1.7-0.4,3.2-1.3,4.3-2.5l2.8,0.9l1.4-2.4l-2.2-1.9
						C80.4,47.3,80.5,46.4,80.5,45.6 M71.9,50.2c-2.5,0-4.5-2-4.5-4.5s2-4.5,4.5-4.5c2.5,0,4.5,2,4.5,4.5v0
						C76.3,48.2,74.3,50.2,71.9,50.2C71.9,50.2,71.9,50.2,71.9,50.2"/>
					<path id="Path_587" class="st5" d="M121.9,31.3l1.5-3l1.5,3l3.3,0.5l-2.4,2.3l0.6,3.3l-2.9-1.5l-2.9,1.5l0.6-3.3l-2.4-2.3
						L121.9,31.3z"/>
					<path id="Path_588" class="st5" d="M135.3,31.3l1.5-3l1.5,3l3.3,0.5l-2.4,2.3l0.6,3.3l-2.9-1.5l-2.9,1.5l0.6-3.3l-2.4-2.3
						L135.3,31.3z"/>
					<path id="Path_589" class="st5" d="M148.6,31.3l1.5-3l1.5,3l3.3,0.5l-2.4,2.3l0.6,3.3l-2.9-1.5l-2.9,1.5l0.6-3.3l-2.4-2.3
						L148.6,31.3z"/>
					<path id="Path_590" class="st5" d="M162,31.3l1.5-3l1.5,3l3.3,0.5l-2.4,2.3l0.6,3.3l-2.9-1.5l-2.9,1.5l0.6-3.3l-2.4-2.3
						L162,31.3z"/>
					<path id="Path_591" class="st5" d="M175.4,31.3l1.5-3l1.5,3l3.3,0.5l-2.4,2.3l0.6,3.3l-2.9-1.5l-2.9,1.5l0.6-3.3l-2.4-2.3
						L175.4,31.3z"/>
				</g>
			</g>
		</g>
		<g id="Group_261">
			<g>
				<defs>
					<rect id="SVGID_00000013884126475983952830000002443590441159360921_" x="12" y="8.9" width="276.7" height="204"/>
				</defs>
				<clipPath id="SVGID_00000002379766091327771250000000724836110874183558_">
					<use xlink:href="#SVGID_00000013884126475983952830000002443590441159360921_"  style="overflow:visible;"/>
				</clipPath>
				<g id="Group_260" style="clip-path:url(#SVGID_00000002379766091327771250000000724836110874183558_);">
					<path id="Path_592" class="st7" d="M254.9,206.6c0,3.5-48,6.3-107.3,6.3s-107.3-2.8-107.3-6.3c0-3.5,48-6.3,107.3-6.3
						S254.9,203.2,254.9,206.6"/>
				</g>
			</g>
		</g>
		<g id="Group_293">
			<g>
				<defs>
					<rect id="SVGID_00000095314930486647222480000013750104694968015772_" x="12" y="8.9" width="276.7" height="204"/>
				</defs>
				<clipPath id="SVGID_00000072989951784975534900000015027447780979793815_">
					<use xlink:href="#SVGID_00000095314930486647222480000013750104694968015772_"  style="overflow:visible;"/>
				</clipPath>
				<g id="Group_292" style="clip-path:url(#SVGID_00000072989951784975534900000015027447780979793815_);">
					<path id="Path_593" class="st9" d="M111.4,201.1l-0.1,1.3c0,0.2,0,0.3,0.1,0.5l0,0c0,0.1,0.1,0.1,0.1,0.2
						c0,0.1,0.1,0.1,0.1,0.2c0,0.1,0.1,0.1,0.2,0.1c0.2,0.1,0.4,0.2,0.6,0.2H158c0.1,0,0.2,0,0.3,0c0.1,0,0.1-0.1,0.2-0.1
						c0.2-0.1,0.3-0.2,0.4-0.3c0-0.1,0.1-0.1,0.1-0.2c0.1-0.1,0.1-0.3,0.1-0.4l0.1-1.2c0-0.2,0-0.4-0.1-0.6
						c-0.1-0.1-0.2-0.3-0.4-0.3c-0.1,0-0.1-0.1-0.2-0.1c-0.1,0-0.2,0-0.3,0h-11.3c-0.1,0-0.3,0-0.4,0h0c-0.1,0-0.1,0-0.2,0
						c0,0,0,0,0,0c0,0,0,0,0,0c-0.1,0-0.1,0-0.2-0.1c-0.1,0-0.1,0-0.2-0.1c-0.1,0-0.2-0.1-0.2-0.1c-0.1-0.1-0.2-0.1-0.2-0.2
						c0,0-0.1-0.1-0.1-0.1c0,0-0.1-0.1-0.1-0.1l0,0c0,0,0,0,0,0c0-0.1-0.1-0.1-0.1-0.2c0,0,0-0.1-0.1-0.1c0,0,0,0,0,0c0,0,0,0,0,0
						c0,0,0,0,0,0c0,0,0-0.1,0-0.1c0-0.1,0-0.1,0-0.2c0,0,0,0,0,0c0-0.1,0-0.1,0-0.2c0-0.1,0-0.1,0-0.2v0c0-0.1,0-0.1,0-0.2
						c0-0.1,0-0.1,0-0.2v0l4.5-17.1l0.9-3.3l0.7-2.6h-25.9l-1.4,2.6l-1.8,3.3L112,199.3c0,0.1-0.1,0.1-0.1,0.2c0,0,0,0,0,0
						c0,0.1-0.1,0.1-0.1,0.2c0,0.1-0.1,0.2-0.1,0.2c0,0.1,0,0.1-0.1,0.2C111.5,200.4,111.4,200.8,111.4,201.1"/>
					<g id="Group_264" transform="translate(107.669 179.907)" class="st10">
						<g id="Group_263">
							<g>
								<defs>
									<rect id="SVGID_00000124130593538162604090000005379504844660694453_" x="3.6" y="-5.1" width="48" height="28.8"/>
								</defs>
								<clipPath id="SVGID_00000132067302695438265180000018040654192169198770_">
									<use xlink:href="#SVGID_00000124130593538162604090000005379504844660694453_"  style="overflow:visible;"/>
								</clipPath>
								<g id="Group_262" style="clip-path:url(#SVGID_00000132067302695438265180000018040654192169198770_);">
									<path id="Path_594" class="st12" d="M51.6,21.3l-0.1,1.2c-0.1,0.6-0.6,1.1-1.2,1.1H4.7c-0.6,0-1.1-0.5-1.1-1.1
										c0,0,0-0.1,0-0.1l0.1-1.3c0-0.3,0.1-0.7,0.2-1c0.1-0.3,0.2-0.6,0.4-0.8L17.5-5.2h25.9l-6,23c0,0.1-0.1,0.3-0.1,0.4
										c-0.1,1,0.7,1.9,1.7,2c0.1,0,0.1,0,0.2,0h11.3c0.5,0,1,0.4,1,1C51.6,21.3,51.6,21.3,51.6,21.3"/>
								</g>
							</g>
						</g>
					</g>
					<path id="Path_595" class="st9" d="M110.5,199.3l13.2-24.5h1.5L112,199.3c-0.3,0.6-0.5,1.2-0.6,1.8l-0.1,1.3
						c-0.1,0.6,0.4,1.1,1,1.2c0,0,0.1,0,0.1,0h-1.5c-0.6,0-1.1-0.5-1.1-1.1c0,0,0-0.1,0-0.1l0.1-1.3
						C110,200.5,110.2,199.8,110.5,199.3"/>
					<g id="Group_267" transform="translate(119.318 179.905)" class="st13">
						<g id="Group_266">
							<g>
								<defs>
									<rect id="SVGID_00000147196302612110458200000009129679850295212946_" x="2.7" y="-5.1" width="29.1" height="5.9"/>
								</defs>
								<clipPath id="SVGID_00000088128856300431976780000000561439387909478274_">
									<use xlink:href="#SVGID_00000147196302612110458200000009129679850295212946_"  style="overflow:visible;"/>
								</clipPath>
								<g id="Group_265" style="clip-path:url(#SVGID_00000088128856300431976780000000561439387909478274_);">
									<path id="Path_596" d="M5.9-5.1h25.9l-1.5,5.9H2.7L5.9-5.1z"/>
								</g>
							</g>
						</g>
					</g>
					<path id="Path_597" class="st9" d="M81.3,93.5v71.2v8.6c0,2.2,1.8,4,4,4c0,0,0,0,0,0h110.5c2.2,0,4-1.8,4-4v-8.6V93.5
						c0-2.2-1.8-4-4-4c0,0,0,0,0,0H85.3c-0.9,0-1.8,0.3-2.5,0.8c-0.1,0.1-0.2,0.2-0.3,0.2c-0.3,0.2-0.5,0.5-0.7,0.8
						c-0.1,0.2-0.2,0.4-0.3,0.7C81.4,92.5,81.3,93,81.3,93.5"/>
					<path id="Path_598" class="st15" d="M199.8,164.7v8.6c0,2.2-1.8,4-4,4H85.3c-2.2,0-4-1.8-4-4v-8.6H199.8z"/>
					<g id="Group_270" transform="translate(75.112 168.958)" class="st16">
						<g id="Group_269">
							<g>
								<defs>
									<rect id="SVGID_00000099637510646855362800000013140629126703801518_" x="6.2" y="-4.3" width="118.5" height="12.7"/>
								</defs>
								<clipPath id="SVGID_00000173133088725828508080000006588647937137606792_">
									<use xlink:href="#SVGID_00000099637510646855362800000013140629126703801518_"  style="overflow:visible;"/>
								</clipPath>
								<g id="Group_268" style="clip-path:url(#SVGID_00000173133088725828508080000006588647937137606792_);">
									<path id="Path_599" class="st12" d="M124.7-4.3v8.6c0,2.2-1.8,4-4,4H10.2c-2.2,0-4-1.8-4-4v-8.6H124.7z"/>
								</g>
							</g>
						</g>
					</g>
					<path id="Path_600" class="st18" d="M85.4,162.2h110.3c1.2,0,2.2-1,2.2-2.2c0,0,0,0,0,0v-66c0-1.2-1-2.2-2.2-2.2H85.4
						c-1.2,0-2.2,1-2.2,2.2c0,0,0,0,0,0v66C83.2,161.2,84.2,162.2,85.4,162.2"/>
					<path id="Path_601" class="st9" d="M82.9,89.4h2.4c-2.2,0-4,1.8-4,4v79.8c0,2.2,1.8,4,4,4h-2.4c-2.2,0-4-1.8-4-4V93.5
						C78.8,91.2,80.6,89.4,82.9,89.4"/>
					<g id="Group_273" transform="translate(72.463 87.379)" class="st10">
						<g id="Group_272">
							<g>
								<defs>
									<rect id="SVGID_00000103242904390656405730000001293802502477343890_" x="6.4" y="2.1" width="6.5" height="87.9"/>
								</defs>
								<clipPath id="SVGID_00000098208218432676396100000017641899226386261403_">
									<use xlink:href="#SVGID_00000103242904390656405730000001293802502477343890_"  style="overflow:visible;"/>
								</clipPath>
								<g id="Group_271" style="clip-path:url(#SVGID_00000098208218432676396100000017641899226386261403_);">
									<path id="Path_602" class="st12" d="M10.4,2.1h2.4c-2.2,0-4,1.8-4,4v79.8c0,2.2,1.8,4,4,4h-2.4c-2.2,0-4-1.8-4-4V6.1
										C6.4,3.9,8.2,2.1,10.4,2.1"/>
								</g>
							</g>
						</g>
					</g>
					<g id="Group_276" transform="translate(77.075 97.839)" class="st20">
						<g id="Group_275">
							<g>
								<defs>
									<rect id="SVGID_00000145034847012762137430000002686271735885727935_" x="6" y="1.2" width="115.5" height="63.1"/>
								</defs>
								<clipPath id="SVGID_00000032624683449654262700000014073468060466414224_">
									<use xlink:href="#SVGID_00000145034847012762137430000002686271735885727935_"  style="overflow:visible;"/>
								</clipPath>
								<g id="Group_274" style="clip-path:url(#SVGID_00000032624683449654262700000014073468060466414224_);">
									<path id="Path_603" class="st12" d="M121.5,36c-2.8-0.5-7.3,1.3-8.2,4.1c0.2-1.7-0.6-3.4-2.1-4.3c-1.5-0.8-3.4-1.4-4.7-0.4
										c1.3-5.5-0.6-11.4-5-15c-4.3-3.5-10.6-3.9-15.6-1.4c2.7-5.2,0.7-11.7-4.5-14.5c-0.6-0.3-1.1-0.5-1.7-0.7
										c-7-2.4-14.4-3.1-21.7-2.1c-4.2,0.6-8.5,1.9-11.6,4.9c-3.1,3.2-3.8,8-1.8,12c-4.8-1.6-10.1-0.3-13.8,3.3
										c-3.5,3.7-4.7,9-3,13.7c-1.3-0.8-3-0.8-4.3-0.2c-1.4,0.7-2.3,2-2.4,3.6c-3.1-4-8.8-4.8-12.8-1.8c-0.8,0.6-1.5,1.4-2.1,2.3
										v24.8h114.8L121.5,36z"/>
								</g>
							</g>
						</g>
					</g>
					<path id="Path_604" class="st12" d="M173,133.9h-59.2c-3,0-5.4-2.5-5.4-5.5c0-3,2.4-5.3,5.4-5.4H173c3,0,5.5,2.4,5.5,5.4
						c0,3-2.4,5.5-5.4,5.5C173.1,133.9,173,133.9,173,133.9"/>
					<circle id="Ellipse_169" class="st3" cx="113.5" cy="127.3" r="2.4"/>
					<line id="Line_2" class="st3" x1="115.1" y1="129" x2="118.9" y2="132.8"/>
					<g id="Group_279" transform="translate(161.08 90.023)" class="st22">
						<g id="Group_278">
							<g>
								<defs>
									<rect id="SVGID_00000140003332448461307200000016078079740614057898_" x="-0.5" y="1.8" width="33.3" height="70.4"/>
								</defs>
								<clipPath id="SVGID_00000116919722190503808830000012192072281429195958_">
									<use xlink:href="#SVGID_00000140003332448461307200000016078079740614057898_"  style="overflow:visible;"/>
								</clipPath>
								<g id="Group_277" style="clip-path:url(#SVGID_00000116919722190503808830000012192072281429195958_);">
									<path id="Path_605" class="st12" d="M-0.5,1.8h4.2l8.8,70.4H8.3L-0.5,1.8z"/>
									<path id="Path_606" class="st12" d="M16.8,72.2L8,1.8h15.9l8.8,70.4H16.8z"/>
								</g>
							</g>
						</g>
					</g>
					<g id="Group_282" transform="translate(116.209 207.403)" class="st10">
						<g id="Group_281">
							<g>
								<defs>
									<rect id="SVGID_00000034778644310666811210000005094748385930664625_" x="3" y="-7.3" width="40.1" height="3.5"/>
								</defs>
								<clipPath id="SVGID_00000147930999093374820730000014116398352833904056_">
									<use xlink:href="#SVGID_00000034778644310666811210000005094748385930664625_"  style="overflow:visible;"/>
								</clipPath>
								<g id="Group_280" style="clip-path:url(#SVGID_00000147930999093374820730000014116398352833904056_);">
									<path id="Path_607" class="st12" d="M3.1-6.1L3-5C2.9-4.4,3.3-3.9,3.9-3.8c0,0,0.1,0,0.1,0h37.7c0.6,0,1.1-0.5,1.2-1.1
										l0.1-1.2c0.1-0.5-0.3-1-0.9-1.1c0,0-0.1,0-0.1,0H30.7c-0.1,0-0.3,0-0.4,0h-26C3.7-7.3,3.1-6.8,3.1-6.1"/>
								</g>
							</g>
						</g>
					</g>
					<g id="Group_285" transform="translate(108.016 205.253)" class="st10">
						<g id="Group_284">
							<g>
								<defs>
									<rect id="SVGID_00000094597203222231541210000004915800724829016999_" x="3.6" y="-7.1" width="34.9" height="2"/>
								</defs>
								<clipPath id="SVGID_00000053525252198149981640000006020232655901553063_">
									<use xlink:href="#SVGID_00000094597203222231541210000004915800724829016999_"  style="overflow:visible;"/>
								</clipPath>
								<g id="Group_283" style="clip-path:url(#SVGID_00000053525252198149981640000006020232655901553063_);">
									<path id="Path_608" d="M3.6-5.1h34.9c-0.9-0.2-1.6-1-1.5-2H4.7L3.6-5.1z"/>
								</g>
							</g>
						</g>
					</g>
					<path id="Path_609" class="st9" d="M129.5,116.4l0.8-1.7c0.9,0.7,2.1,1,3.2,1c1.3,0,1.9-0.4,1.9-1c0-1.8-5.7-0.6-5.7-4.2
						c0-1.7,1.3-3,4.1-3c1.2,0,2.4,0.3,3.4,0.9l-0.7,1.7c-0.8-0.5-1.7-0.7-2.7-0.8c-1.3,0-1.8,0.5-1.8,1.1c0,1.8,5.7,0.6,5.7,4.1
						c0,1.6-1.3,3-4.1,3C132,117.6,130.6,117.2,129.5,116.4"/>
					<path id="Path_610" class="st9" d="M146.6,115.6v1.8h-7.5v-9.7h7.4v1.8h-5.1v2.1h4.5v1.8h-4.5v2.3L146.6,115.6z"/>
					<path id="Path_611" class="st9" d="M147.8,112.5c-0.2-2.9,2.1-5.5,5-5.6c2.9-0.2,5.5,2.1,5.6,5c0.2,2.9-2.1,5.5-5,5.6
						c-0.1,0-0.2,0-0.3,0c-2.8,0.2-5.2-2-5.3-4.7C147.8,112.7,147.8,112.6,147.8,112.5 M156.2,112.5c0-1.7-1.4-3-3.1-3
						c-1.7,0-3,1.4-3,3.1c0,1.7,1.4,3,3,3c1.6,0,3-1.3,3-2.9C156.2,112.7,156.2,112.6,156.2,112.5"/>
					<g id="Group_288" transform="translate(111.705 143.331)" class="st26">
						<g id="Group_287">
							<g>
								<defs>
									<rect id="SVGID_00000008856853491509708330000013615676345814562178_" x="3.3" y="-2.3" width="27.6" height="9.2"/>
								</defs>
								<clipPath id="SVGID_00000004527908624260712370000015214047460042397615_">
									<use xlink:href="#SVGID_00000008856853491509708330000013615676345814562178_"  style="overflow:visible;"/>
								</clipPath>
								<g id="Group_286" style="clip-path:url(#SVGID_00000004527908624260712370000015214047460042397615_);">
									<path id="Path_612" class="st12" d="M28.8,6.9H5.4c-1.2,0-2.1-1-2.1-2.1c0,0,0,0,0,0v-4.9c0-1.2,1-2.1,2.1-2.1c0,0,0,0,0,0
										h23.3c1.2,0,2.1,1,2.1,2.1c0,0,0,0,0,0v4.9C30.9,5.9,30,6.9,28.8,6.9C28.8,6.9,28.8,6.9,28.8,6.9"/>
								</g>
							</g>
						</g>
					</g>
					<g id="Group_291" transform="translate(148.42 143.331)" class="st26">
						<g id="Group_290">
							<g>
								<defs>
									<rect id="SVGID_00000119081662245334114430000012399885923489287339_" x="0.5" y="-2.3" width="27.6" height="9.2"/>
								</defs>
								<clipPath id="SVGID_00000088122450093974412160000005580225660476737194_">
									<use xlink:href="#SVGID_00000119081662245334114430000012399885923489287339_"  style="overflow:visible;"/>
								</clipPath>
								<g id="Group_289" style="clip-path:url(#SVGID_00000088122450093974412160000005580225660476737194_);">
									<path id="Path_613" class="st12" d="M25.9,6.9H2.6c-1.2,0-2.1-1-2.1-2.1c0,0,0,0,0,0v-4.9c0-1.2,1-2.1,2.1-2.1c0,0,0,0,0,0
										h23.4c1.2,0,2.1,1,2.1,2.1c0,0,0,0,0,0v4.9C28.1,5.9,27.1,6.9,25.9,6.9"/>
								</g>
							</g>
						</g>
					</g>
				</g>
			</g>
		</g>
		<g id="Group_322">
			<g>
				<defs>
					<rect id="SVGID_00000087390263107190774820000002973475131794634426_" x="12" y="8.9" width="276.7" height="204"/>
				</defs>
				<clipPath id="SVGID_00000178200177079269896510000010797580676053230997_">
					<use xlink:href="#SVGID_00000087390263107190774820000002973475131794634426_"  style="overflow:visible;"/>
				</clipPath>
				<g id="Group_321" style="clip-path:url(#SVGID_00000178200177079269896510000010797580676053230997_);">
					<path id="Path_614" class="st30" d="M203.2,134.1l-0.6,0.1c-0.6,0.1-1,0.6-1.1,1.2l-0.1,0.4c-0.1,0.5,0.1,0.9,0.5,1.2
						c1.7,1.7,4.2,2.2,6.5,1.5l2.4-1.8l-0.4-3.2l-5-0.7c-0.3,0-0.6,0.1-0.8,0.3L203.2,134.1z"/>
					<path id="Path_615" class="st30" d="M210.8,136.8l6.6-0.3l-1-3.6l-6,0.7L210.8,136.8z"/>
					<path id="Path_616" class="st15" d="M214.7,132.9c-0.3,0.5-0.4,1.1-0.3,1.7c0.1,0.9,0.5,1.8,1.1,2.5c-1.1,0-2.2,0.3-3.2,0.8
						l-0.1,0c-3.5-2.4-1.5-5.2-1.5-5.2l0.2,0C212.2,132.9,213.5,133,214.7,132.9"/>
					<path id="Path_617" class="st15" d="M228.3,135.8c-4.5,0.9-9.2,1.3-13.8,1.3c-0.2-0.4-0.4-0.9-0.3-1.4c0-1,0.2-1.9,0.6-2.8
						c0.4-0.6,3-0.8,3-0.8c2.1-0.9,4.1-2,6.1-3.2c1-0.8,0.9-4.4,0.8-6.8c-1-12.9,1.3-13.8,3.3-14.4
						C232.2,106.5,233.7,134.6,228.3,135.8"/>
					<path id="Path_618" class="st15" d="M186.1,138.6h17.2c0.6,0,0.8-0.5,0.6-1l-4.3-9.7c-0.3-0.6-0.8-1-1.5-1h-17.2
						c-0.6,0-0.8,0.5-0.6,1l4.3,9.7C184.9,138.2,185.5,138.5,186.1,138.6"/>
					<g id="Group_296" transform="translate(182.44 127.976)" class="st10">
						<g id="Group_295">
							<g>
								<defs>
									<rect id="SVGID_00000119840088900700686940000018088635276376529087_" x="-2.2" y="-1.1" width="23.7" height="11.7"/>
								</defs>
								<clipPath id="SVGID_00000021821457171951226460000018064073448762656181_">
									<use xlink:href="#SVGID_00000119840088900700686940000018088635276376529087_"  style="overflow:visible;"/>
								</clipPath>
								<g id="Group_294" style="clip-path:url(#SVGID_00000021821457171951226460000018064073448762656181_);">
									<path id="Path_619" d="M3.7,10.6h17.2c0.6,0,0.8-0.5,0.6-1l-4.3-9.7c-0.3-0.6-0.8-1-1.5-1H-1.5c-0.6,0-0.8,0.5-0.6,1
										l4.3,9.7C2.5,10.2,3,10.6,3.7,10.6"/>
								</g>
							</g>
						</g>
					</g>
					<path id="Path_620" class="st15" d="M180.2,126.9h0.7c-0.6,0-0.8,0.5-0.6,1l4.3,9.7c0.3,0.6,0.8,1,1.5,1h-0.7
						c-0.6-0.1-1.2-0.4-1.5-1l-4.3-9.7C179.3,127.3,179.6,126.9,180.2,126.9"/>
					<g id="Group_299" transform="translate(181.634 127.976)" class="st32">
						<g id="Group_298">
							<g>
								<defs>
									<rect id="SVGID_00000145742039733598338710000013844264702447591099_" x="-2.1" y="-1.1" width="6.6" height="11.7"/>
								</defs>
								<clipPath id="SVGID_00000021832088804254472440000007864095008155749559_">
									<use xlink:href="#SVGID_00000145742039733598338710000013844264702447591099_"  style="overflow:visible;"/>
								</clipPath>
								<g id="Group_297" style="clip-path:url(#SVGID_00000021832088804254472440000007864095008155749559_);">
									<path id="Path_621" d="M-1.5-1.1h0.7c-0.6,0-0.8,0.5-0.6,1L3,9.6c0.3,0.6,0.8,1,1.5,1H3.7c-0.6-0.1-1.2-0.4-1.5-1L-2-0.1
										C-2.3-0.7-2-1.1-1.5-1.1"/>
								</g>
							</g>
						</g>
					</g>
					<path id="Path_622" class="st9" d="M186.4,137.5H202l-4.2-9.5h-15.6L186.4,137.5z"/>
					<g id="Group_302" transform="translate(184.576 129.185)" class="st26">
						<g id="Group_301">
							<g>
								<defs>
									<rect id="SVGID_00000011732014835128380470000009585964571485662899_" x="-2.4" y="-1.2" width="19.8" height="9.5"/>
								</defs>
								<clipPath id="SVGID_00000091734286111819592980000014979153727368552593_">
									<use xlink:href="#SVGID_00000011732014835128380470000009585964571485662899_"  style="overflow:visible;"/>
								</clipPath>
								<g id="Group_300" style="clip-path:url(#SVGID_00000091734286111819592980000014979153727368552593_);">
									<path id="Path_623" class="st12" d="M1.9,8.3h15.6l-4.2-9.5H-2.4L1.9,8.3z"/>
								</g>
							</g>
						</g>
					</g>
					<path id="Path_624" class="st9" d="M237.7,137.8c0,0,0.4,5.7,0.5,7.7c0.4,13.3-10.5,14.3-18.4,12.9l-28.9-8.1
						c-1.1,3.8-14.5,25-14.5,25l-7-4c0,0,7.3-17.5,12-29.6c2.7-6.9,24.6-2.1,32.6-0.7c2.4,0.7,2-3.2,2-3.2L237.7,137.8z"/>
					<path id="Path_625" class="st30" d="M174.4,174.9l-2.7,4.5l-5-2.5l2.6-5.1L174.4,174.9z"/>
					<path id="Path_626" class="st15" d="M164.1,176c-0.7-0.3-1.3-0.7-1.4-1.1c0-0.2,0.1-0.4,0.3-0.5c0.2-0.1,0.3-0.1,0.5-0.1
						c1,0.2,2.4,2.1,2.4,2.2c0,0,0,0.1,0,0.2c0,0-0.1,0.1-0.1,0.1C165.2,176.4,164.6,176.2,164.1,176 M163.7,174.5
						c-0.1,0-0.2-0.1-0.3-0.1c-0.1,0-0.2,0-0.3,0.1c-0.2,0.1-0.2,0.2-0.2,0.3c0.1,0.5,1.4,1.1,2.5,1.4
						C165,175.5,164.4,175,163.7,174.5"/>
					<path id="Path_627" class="st15" d="M165.8,176.5C165.7,176.5,165.7,176.5,165.8,176.5c-0.6-0.6-1.3-2.3-0.9-2.9
						c0.1-0.1,0.3-0.3,0.6-0.1c0.3,0.1,0.5,0.3,0.6,0.5c0.2,0.8,0.2,1.7-0.1,2.4C165.9,176.5,165.9,176.6,165.8,176.5
						C165.8,176.6,165.8,176.6,165.8,176.5 M165.4,173.8L165.4,173.8c-0.3-0.1-0.4,0-0.4,0c-0.2,0.3,0.2,1.6,0.7,2.3
						c0.2-0.6,0.2-1.3,0-2C165.7,174,165.6,173.9,165.4,173.8L165.4,173.8z"/>
					<path id="Path_628" class="st9" d="M166.7,176.1l5.8,2.7c0.2,0.1,0.3,0.3,0.3,0.6l-1.1,5.2c-0.1,0.5-0.5,0.8-1,0.7
						c-0.1,0-0.1,0-0.2-0.1c-2.1-1-3.9-2-6.5-3.1c-3.1-1.4-2.5-0.7-6.1-2.3c-2.2-1-1.5-3.6-0.5-3.3c4.5,1.4,5.5,0.3,7.8-0.4
						C165.7,175.8,166.2,175.8,166.7,176.1"/>
					<g id="Group_305" transform="translate(169.268 176.679)" class="st10">
						<g id="Group_304">
							<g>
								<defs>
									<rect id="SVGID_00000109727071069594010980000003236232770263526031_" x="-1.2" y="-4.9" width="6.3" height="5.4"/>
								</defs>
								<clipPath id="SVGID_00000032638430374699238450000000946594648877001874_">
									<use xlink:href="#SVGID_00000109727071069594010980000003236232770263526031_"  style="overflow:visible;"/>
								</clipPath>
								<g id="Group_303" style="clip-path:url(#SVGID_00000032638430374699238450000000946594648877001874_);">
									<path id="Path_629" d="M3.8,0.5l1.4-2.3L0.1-4.9l-1.3,2.5L3.8,0.5z"/>
								</g>
							</g>
						</g>
					</g>
					<path id="Path_630" class="st15" d="M177.4,174.9l-8.7-5.4c-0.8,0.5-1.2,1.4-1.1,2.3l8.4,5.3C175.9,177.1,177,177,177.4,174.9"
						/>
					<path id="Path_631" class="st30" d="M189.3,197.2l-1.1,5l-5.4-0.7l0.8-5.5L189.3,197.2z"/>
					<path id="Path_632" class="st15" d="M180.1,201.4c-0.6,0-1.2-0.2-1.6-0.6c-0.1-0.2-0.1-0.4,0.1-0.6c0.1-0.1,0.3-0.2,0.5-0.3
						c1-0.2,2.8,1.2,2.9,1.2c0,0,0.1,0.1,0.1,0.1c0,0.1-0.1,0.1-0.1,0.1C181.3,201.5,180.7,201.5,180.1,201.4 M179.3,200.2
						c-0.1,0-0.2,0-0.3,0c-0.1,0-0.2,0.1-0.3,0.2c-0.1,0.2-0.1,0.2-0.1,0.3c0.2,0.4,1.7,0.5,2.7,0.5
						C180.8,200.7,180.1,200.4,179.3,200.2"/>
					<path id="Path_633" class="st15" d="M181.8,201.4C181.8,201.4,181.8,201.4,181.8,201.4c-0.7-0.4-1.9-1.7-1.8-2.4
						c0-0.2,0.2-0.3,0.5-0.3c0.3,0,0.5,0.1,0.7,0.3c0.5,0.7,0.7,1.5,0.7,2.3C182,201.4,182,201.4,181.8,201.4
						C181.9,201.4,181.9,201.4,181.8,201.4 M180.7,199L180.7,199c-0.3,0-0.3,0.1-0.4,0.1c-0.1,0.4,0.7,1.4,1.4,1.9
						c0-0.6-0.2-1.3-0.6-1.8C181,199.1,180.8,199,180.7,199L180.7,199z"/>
					<path id="Path_634" class="st9" d="M182.5,200.7l6.2,0.6c0.2,0,0.4,0.2,0.4,0.4l0.6,5.1c0.1,0.5-0.3,0.9-0.7,0.9c0,0,0,0,0,0
						c-0.1,0-0.1,0-0.2,0c-2.2-0.3-4.2-0.6-7-0.8c-3.3-0.3-2.5,0.2-6.3-0.2c-2.3-0.2-2.5-2.9-1.5-2.9c4.6-0.1,5.1-1.4,7-2.9
						C181.5,200.7,182,200.6,182.5,200.7"/>
					<g id="Group_308" transform="translate(185.659 202.843)" class="st10">
						<g id="Group_307">
							<g>
								<defs>
									<rect id="SVGID_00000019678557955073224610000001388494750127442621_" x="-2.4" y="-6.9" width="6.1" height="3.3"/>
								</defs>
								<clipPath id="SVGID_00000097482239183913865600000004808038397067124356_">
									<use xlink:href="#SVGID_00000019678557955073224610000001388494750127442621_"  style="overflow:visible;"/>
								</clipPath>
								<g id="Group_306" style="clip-path:url(#SVGID_00000097482239183913865600000004808038397067124356_);">
									<path id="Path_635" d="M-2.4-4l5.6,0.4l0.4-2.1L-2-6.9L-2.4-4z"/>
								</g>
							</g>
						</g>
					</g>
					<path id="Path_636" class="st9" d="M190.9,195.2l-0.2,0.6l-8.3-0.7l0.1-0.6L190.9,195.2z"/>
					<path id="Path_637" class="st15" d="M191.2,197.8l-2-0.2l-5.7-0.5l-1.8-0.2c-0.5-0.7-0.6-1.7-0.1-2.5l1,0.1l8.3,0.7l0.6,0
						C192.2,197.2,191.2,197.8,191.2,197.8"/>
					<path id="Path_638" class="st9" d="M224.8,163.3c-7.5,0.7-24.7,0.9-27,0.6l-6.8,31.3l-8.3-0.7c0,0,0.9-27.1,4.6-38.3
						c3-9,50.2-7.1,50.2-7.1l0.2,2.5C237.8,160.4,233.3,162.5,224.8,163.3"/>
					<g id="Group_311" transform="translate(184.944 151.962)" class="st22">
						<g id="Group_310">
							<g>
								<defs>
									<rect id="SVGID_00000031887180743958898210000015472302001224265611_" x="-2.4" y="-3" width="55" height="46.2"/>
								</defs>
								<clipPath id="SVGID_00000060729147284891778320000002220763654402475672_">
									<use xlink:href="#SVGID_00000031887180743958898210000015472302001224265611_"  style="overflow:visible;"/>
								</clipPath>
								<g id="Group_309" style="clip-path:url(#SVGID_00000060729147284891778320000002220763654402475672_);">
									<path id="Path_639" d="M39.8,11.3c-7.5,0.7-24.7,0.9-27,0.6L5.9,43.2l-8.3-0.7c0,0,0.9-27.1,4.6-38.3
										c3-9,50.2-7.1,50.2-7.1l0.2,2.5C52.9,8.5,48.4,10.6,39.8,11.3"/>
								</g>
							</g>
						</g>
					</g>
					<path id="Path_640" class="st9" d="M187,159.5c0,0,0-0.1,0-0.2L187,159.5L187,159.5z"/>
					<path id="Path_641" class="st9" d="M187.5,155.5l-0.1,0.6C187.5,155.9,187.5,155.7,187.5,155.5"/>
					<path id="Path_642" class="st30" d="M214,106.6l2.3,3.4l5.2-4.4l-3.2-4L214,106.6z"/>
					<g id="Group_314" transform="translate(219.034 103.648)" class="st10">
						<g id="Group_313">
							<g>
								<defs>
									<rect id="SVGID_00000170256338434021166950000014102791771081102496_" x="-5" y="0.8" width="1.8" height="3.7"/>
								</defs>
								<clipPath id="SVGID_00000075866503103461977770000016584113253839068042_">
									<use xlink:href="#SVGID_00000170256338434021166950000014102791771081102496_"  style="overflow:visible;"/>
								</clipPath>
								<g id="Group_312" style="clip-path:url(#SVGID_00000075866503103461977770000016584113253839068042_);">
									<path id="Path_643" d="M-3.9,4.5c0.6-1.1,0.8-2.5,0.5-3.7l-0.9,1.2l-0.8,1L-3.9,4.5z"/>
								</g>
							</g>
						</g>
					</g>
					<path id="Path_644" class="st9" d="M205.2,99.2c0.1,0.3,0.4,0.5,0.6,0.5c0.2-0.1,0.3-0.4,0.2-0.7c-0.1-0.3-0.4-0.5-0.6-0.5
						C205.1,98.5,205.1,98.9,205.2,99.2"/>
					<path id="Path_645" class="st39" d="M206.4,99.3l-0.7,3.1c0.8,0.2,1.5-0.1,2.1-0.6L206.4,99.3z"/>
					<path id="Path_646" class="st9" d="M204.8,96.9c0.1,0,0.1,0,0.2,0c0.4,0.2,0.9,0.1,1.3-0.1c0.1-0.1,0.2,0,0.2,0c0,0,0,0,0,0
						c0.1,0.1,0,0.2,0,0.3c-0.5,0.3-1.1,0.4-1.6,0.2C204.8,97.2,204.7,97.1,204.8,96.9L204.8,96.9C204.8,97,204.8,96.9,204.8,96.9"
						/>
					<path id="Path_647" class="st30" d="M217.4,93.5c1.7,4.3,2.5,6.1,1.3,9.2c-2.2,3.7-7.4,6-10.3,2.3c-2.6-3.3-4.9-9.7-1.6-13.4
						c2.3-2.6,6.3-2.9,9-0.5C216.5,91.8,217.1,92.6,217.4,93.5"/>
					<path id="Path_648" class="st9" d="M221.5,94.8c-0.2,1.4-0.4,2.9-0.4,4.3c-0.1,2.7-1.8,5.2-4.4,6.1l0,0c0,0-6-0.1-8.6-7.7
						c-2.4,0.2-4.5-1.5-4.7-3.9c-0.1-0.6,0-1.1,0.2-1.7c0.5-1.6,2.5-2.6,4.2-2.7c1.1-1.5,2.9-2.3,4.7-2.1c1.8,0.1,3.6,0.7,5.1,1.7
						c1.4,0.7,2.6,1.8,3.4,3.1C221.5,92.9,221.7,93.8,221.5,94.8"/>
					<path id="Path_649" class="st30" d="M209.3,98.5c-0.4,0.9-0.4,1.8-0.1,2.7c0.5,1.2,1.7,1,2.4,0c0.6-0.9,1.2-2.5,0.3-3.4
						c-0.7-0.6-1.7-0.6-2.3,0.1C209.5,98.1,209.4,98.3,209.3,98.5"/>
					<path id="Path_650" class="st15" d="M221.5,103c-1.6,0.1-4.1,1.2-7.4,3.5c-0.3,0.3-0.5,0.8-0.4,1.2c0,0.4,0.5,0.9,0.9,0.7
						c0.2,0.5,0.4,1.2,0.6,1.7c1-0.5,2.1-1,3.2-1.3c1.7-0.7,3.3-1.2,5.1-1.7c-0.5-0.7-1-1.4-1.3-2.2c0.4-0.2,0.6-0.6,0.5-1
						C222.5,103.4,222,103.1,221.5,103"/>
					<path id="Path_651" class="st15" d="M221.5,103c-1.6,0.1-4.1,1.2-7.4,3.5c-0.3,0.3-0.5,0.8-0.4,1.2c0,0.4,0.5,0.9,0.9,0.7
						c0.2,0.5,0.4,1.2,0.6,1.7c1-0.5,2.1-1,3.2-1.3c1.7-0.7,3.3-1.2,5.1-1.7c-0.5-0.7-1-1.4-1.3-2.2c0.4-0.2,0.6-0.6,0.5-1
						C222.5,103.4,222,103.1,221.5,103"/>
					<path id="Path_652" class="st15" d="M216.6,145.4c-3.5-8.4-6.5-17-9-25.8c-2.6-9.6,4.8-9.7,13.6-12.1c7-1.9,10-0.2,12,3.4
						c2,3.6,5.2,33.7,5.2,33.7L216.6,145.4z"/>
					<path id="Path_653" class="st15" d="M216.6,145.4c-3.5-8.4-6.5-17-9-25.8c-2.6-9.6,4.8-9.7,13.6-12.1c7-1.9,10-0.2,12,3.4
						c2,3.6,5.2,33.7,5.2,33.7L216.6,145.4z"/>
					<g id="Group_317" transform="translate(211.638 106.118)" class="st13">
						<g id="Group_316">
							<g>
								<defs>
									<rect id="SVGID_00000032644398179554876970000012206007674604139680_" x="-4.5" y="0.6" width="31.4" height="38.7"/>
								</defs>
								<clipPath id="SVGID_00000171677805257724674820000009873410080208620162_">
									<use xlink:href="#SVGID_00000032644398179554876970000012206007674604139680_"  style="overflow:visible;"/>
								</clipPath>
								<g id="Group_315" style="clip-path:url(#SVGID_00000171677805257724674820000009873410080208620162_);">
									<path id="Path_654" d="M5,39.3c-3.5-8.4-6.5-17-9-25.8C-6.5,3.9,0.8,3.8,9.7,1.4c7-1.9,10-0.2,12,3.4s5.2,33.7,5.2,33.7
										L5,39.3z"/>
								</g>
							</g>
						</g>
					</g>
					<path id="Path_655" class="st30" d="M184.6,131.6l-0.6,0c-0.6,0-1.1,0.4-1.2,0.9l-0.1,0.4c-0.1,0.4,0,0.9,0.2,1.2
						c1.3,1.9,3.6,2.8,5.9,2.5l2.5-1.3l0.2-3.1l-4.5-1.5c-0.3,0-0.6,0-0.8,0.2L184.6,131.6z"/>
					<path id="Path_656" class="st30" d="M191.3,135.4l6.3,0.8l-0.4-3.6l-5.8-0.3L191.3,135.4z"/>
					<path id="Path_657" class="st15" d="M195.7,132.4c-0.3,0.4-0.5,1-0.5,1.5c0,0.9,0.2,1.8,0.6,2.5c-1.1-0.2-2.1-0.1-3.2,0.2
						l-0.1,0c-2.9-2.8-0.5-5.1-0.5-5.1l0.2,0.1C193.3,132,194.5,132.3,195.7,132.4"/>
					<path id="Path_658" class="st15" d="M207.9,137.4c-4.4,0.1-8.9-0.3-13.2-1.1c-0.2-0.4-0.2-0.9-0.1-1.4c0.1-0.9,0.5-1.8,1-2.6
						c0.5-0.5,3-0.2,3-0.2c2.1-0.5,4.2-1.2,6.3-2c1-0.6,1.6-4,1.8-6.3c1.2-12.3,3.5-12.8,5.5-13
						C216.5,110.4,213.3,137.2,207.9,137.4"/>
					<path id="Path_659" class="st41" d="M189.7,206.9l5.6-34.7c0.6-3.7,3.8-6.4,7.5-6.4h13.8c3.8,0,7.1,2.9,7.5,6.7l4.2,34.9"/>
					<path id="Path_660" class="st41" d="M209.1,206.9l5.6-34.7c0.6-3.7,3.8-6.4,7.5-6.4H236c3.8,0,7.1,2.9,7.5,6.7l4.2,34.9"/>
					<line id="Line_3" class="st41" x1="191.2" y1="197.8" x2="210.2" y2="197.8"/>
					<line id="Line_4" class="st41" x1="224.2" y1="172.4" x2="243.8" y2="172.4"/>
					<path id="Path_661" class="st15" d="M227.8,166.5h14.5c5.6,0,10.2-4.3,10.7-9.8l2.1-26c0.3-4-2.7-7.5-6.6-7.8
						c-0.2,0-0.4,0-0.6,0h-8c-9.3,0-17.5,6.1-20.2,15.1l-5.5,18.5c-0.9,3.1-3.8,5.2-7,5.2h-10.1c-2.6,0-4.8,2.1-4.8,4.8L227.8,166.5
						L227.8,166.5z"/>
					<g id="Group_320" transform="translate(195.268 123.685)" class="st42">
						<g id="Group_319">
							<g>
								<defs>
									<rect id="SVGID_00000053507109622536210720000002459207666899741622_" x="-3.2" y="-0.8" width="62.9" height="43.6"/>
								</defs>
								<clipPath id="SVGID_00000104671309191989236780000005314708212745721791_">
									<use xlink:href="#SVGID_00000053507109622536210720000002459207666899741622_"  style="overflow:visible;"/>
								</clipPath>
								<g id="Group_318" style="clip-path:url(#SVGID_00000104671309191989236780000005314708212745721791_);">
									<path id="Path_662" class="st12" d="M32.5,42.8H47c5.6,0,10.2-4.3,10.7-9.8l2.1-26C60,3.1,57-0.4,53-0.8
										c-0.2,0-0.4,0-0.6,0h-8c-9.3,0-17.5,6.1-20.2,15.1l-5.5,18.5c-0.9,3.1-3.8,5.2-7,5.2H1.6c-2.6,0-4.8,2.1-4.8,4.8L32.5,42.8
										L32.5,42.8z"/>
								</g>
							</g>
						</g>
					</g>
				</g>
			</g>
		</g>
		<g id="Group_345">
			<g>
				<defs>
					<rect id="SVGID_00000039126753331341447200000012574015181178132398_" x="12" y="8.9" width="276.7" height="204"/>
				</defs>
				<clipPath id="SVGID_00000160175045728023771630000016281769823165557403_">
					<use xlink:href="#SVGID_00000039126753331341447200000012574015181178132398_"  style="overflow:visible;"/>
				</clipPath>
				<g id="Group_344" style="clip-path:url(#SVGID_00000160175045728023771630000016281769823165557403_);">
					<path id="Path_663" class="st45" d="M213.5,76.9L213.5,76.9L213.5,76.9C213.5,76.9,213.5,76.9,213.5,76.9"/>
					<path id="Path_664" class="st45" d="M187.4,69.9c-1.9,1.7-3.3,4-4,6.4l-1,0c0.4-2.8,1.4-5.4,3-7.7L187.4,69.9z"/>
					<g id="Group_325" transform="translate(184.752 64.839)" class="st16">
						<g id="Group_324">
							<g>
								<defs>
									<rect id="SVGID_00000160158748102259672550000015517122927188400804_" x="-2.4" y="3.8" width="5" height="7.7"/>
								</defs>
								<clipPath id="SVGID_00000180333607601112567350000015840462376009701299_">
									<use xlink:href="#SVGID_00000160158748102259672550000015517122927188400804_"  style="overflow:visible;"/>
								</clipPath>
								<g id="Group_323" style="clip-path:url(#SVGID_00000180333607601112567350000015840462376009701299_);">
									<path id="Path_665" class="st45" d="M2.6,5.1c-1.9,1.7-3.3,4-4,6.4l-1,0C-2,8.7-1,6.1,0.6,3.8L2.6,5.1z"/>
								</g>
							</g>
						</g>
					</g>
					<path id="Path_666" class="st45" d="M193.3,66.6c-2.2,0.6-4.2,1.8-5.9,3.3l-2-1.2c1.6-2.3,3.8-4.1,6.3-5.4L193.3,66.6z"/>
					<g id="Group_328" transform="translate(188.035 58.941)" class="st20">
						<g id="Group_327">
							<g>
								<defs>
									<rect id="SVGID_00000170260337791490898800000011197193845541461160_" x="-2.6" y="4.3" width="7.9" height="6.7"/>
								</defs>
								<clipPath id="SVGID_00000150077246405019011790000016551290950424673207_">
									<use xlink:href="#SVGID_00000170260337791490898800000011197193845541461160_"  style="overflow:visible;"/>
								</clipPath>
								<g id="Group_326" style="clip-path:url(#SVGID_00000150077246405019011790000016551290950424673207_);">
									<path id="Path_667" class="st45" d="M5.2,7.6C3,8.3,1,9.4-0.6,11l-2-1.2C-1,7.4,1.1,5.6,3.6,4.3L5.2,7.6z"/>
								</g>
							</g>
						</g>
					</g>
					<path id="Path_668" class="st45" d="M199.5,61.3l-0.5,4.9c-0.7-0.1-1.4-0.2-2.1-0.2c-1.2,0-2.4,0.2-3.6,0.5l-1.6-3.4
						c2.3-1.2,4.9-1.9,7.6-1.9C199.3,61.3,199.4,61.3,199.5,61.3"/>
					<g id="Group_331" transform="translate(194.825 56.906)" class="st32">
						<g id="Group_330">
							<g>
								<defs>
									<rect id="SVGID_00000163048905287196576510000010079433997543826853_" x="-3.2" y="4.4" width="7.8" height="5.3"/>
								</defs>
								<clipPath id="SVGID_00000070113953526866961640000000402126245138419328_">
									<use xlink:href="#SVGID_00000163048905287196576510000010079433997543826853_"  style="overflow:visible;"/>
								</clipPath>
								<g id="Group_329" style="clip-path:url(#SVGID_00000070113953526866961640000000402126245138419328_);">
									<path id="Path_669" class="st45" d="M4.7,4.4L4.2,9.4C3.5,9.2,2.7,9.2,2,9.2c-1.2,0-2.4,0.2-3.6,0.5l-1.6-3.4
										c2.3-1.2,4.9-1.9,7.6-1.9C4.5,4.4,4.6,4.4,4.7,4.4"/>
								</g>
							</g>
						</g>
					</g>
					<path id="Path_670" class="st45" d="M206.9,63.4l-3.2,4.7c-1.4-1-3-1.6-4.7-1.9l0.5-4.9C202.1,61.4,204.6,62.1,206.9,63.4"/>
					<g id="Group_334" transform="translate(202.766 56.908)" class="st13">
						<g id="Group_333">
							<g>
								<defs>
									<rect id="SVGID_00000163794876946789671960000015677276423574457006_" x="-3.8" y="4.4" width="7.9" height="6.8"/>
								</defs>
								<clipPath id="SVGID_00000097490077847052746330000011700612829998474686_">
									<use xlink:href="#SVGID_00000163794876946789671960000015677276423574457006_"  style="overflow:visible;"/>
								</clipPath>
								<g id="Group_332" style="clip-path:url(#SVGID_00000097490077847052746330000011700612829998474686_);">
									<path id="Path_671" class="st45" d="M4.1,6.5l-3.2,4.7c-1.4-1-3-1.6-4.7-1.9l0.5-4.9C-0.7,4.4,1.9,5.2,4.1,6.5"/>
								</g>
							</g>
						</g>
					</g>
					<path id="Path_672" class="st45" d="M212,69l-5,2.7c-0.8-1.4-2-2.6-3.3-3.5l3.2-4.7C209.1,64.8,210.8,66.7,212,69"/>
					<g id="Group_337" transform="translate(207.829 59.185)" class="st10">
						<g id="Group_336">
							<g>
								<defs>
									<rect id="SVGID_00000080915483840176747140000004962032985387507861_" x="-4.2" y="4.2" width="8.3" height="8.3"/>
								</defs>
								<clipPath id="SVGID_00000169521165770038064180000003215866484685805989_">
									<use xlink:href="#SVGID_00000080915483840176747140000004962032985387507861_"  style="overflow:visible;"/>
								</clipPath>
								<g id="Group_335" style="clip-path:url(#SVGID_00000169521165770038064180000003215866484685805989_);">
									<path id="Path_673" class="st45" d="M4.2,9.8l-5,2.7c-0.8-1.4-2-2.6-3.3-3.5L-1,4.2C1.2,5.6,3,7.5,4.2,9.8"/>
								</g>
							</g>
						</g>
					</g>
					<path id="Path_674" class="st45" d="M213.5,76.7l-4.9-0.1c-0.2-1.7-0.7-3.4-1.6-4.9l5-2.7C213.2,71.4,213.7,74.1,213.5,76.7"/>
					<g id="Group_340" transform="translate(211.415 65.231)" class="st22">
						<g id="Group_339">
							<g>
								<defs>
									<rect id="SVGID_00000031190830706512815180000013879168487566134659_" x="-4.5" y="3.8" width="6.6" height="7.7"/>
								</defs>
								<clipPath id="SVGID_00000075158365651519652290000008658617558120900767_">
									<use xlink:href="#SVGID_00000031190830706512815180000013879168487566134659_"  style="overflow:visible;"/>
								</clipPath>
								<g id="Group_338" style="clip-path:url(#SVGID_00000075158365651519652290000008658617558120900767_);">
									<path id="Path_675" class="st45" d="M2.1,11.5l-4.9-0.1C-3,9.7-3.6,8-4.5,6.5l5-2.7C1.8,6.2,2.3,8.8,2.1,11.5"/>
								</g>
							</g>
						</g>
					</g>
					<path id="Path_676" class="st45" d="M213.5,76.8C213.5,76.9,213.5,76.9,213.5,76.8c-0.2,1.8-0.6,3.5-1.3,5.1l-4-0.9l0.3-1.5
						c0-0.2,0.1-0.4,0.1-0.6l0,0l0-0.1l0,0c0.1-0.7,0.1-1.4,0-2.2l4.9,0.1C213.5,76.7,213.5,76.8,213.5,76.8
						C213.5,76.8,213.5,76.8,213.5,76.8"/>
					<path id="Path_677" class="st45" d="M183,81.6l-0.3,0.1c-0.1-0.4-0.2-0.8-0.2-1.2c-0.2-1.2-0.2-2.4-0.1-3.6l0,0l0-0.1
						c0,0,0,0,0-0.1c0-0.2,0-0.3,0.1-0.5l1,0c-0.2,0.8-0.4,1.6-0.5,2.5c0,0,0,0,0,0.1c0,0,0,0,0,0.1c0,0.5,0,1,0,1.5
						C182.9,80.8,182.9,81.2,183,81.6"/>
					<g id="Group_343" transform="translate(184.631 73.166)" class="st42">
						<g id="Group_342">
							<g>
								<defs>
									<rect id="SVGID_00000168113668828467343260000001585234913948542608_" x="-2.4" y="3.2" width="1.1" height="5.4"/>
								</defs>
								<clipPath id="SVGID_00000169529946031963231750000016380857630602605221_">
									<use xlink:href="#SVGID_00000168113668828467343260000001585234913948542608_"  style="overflow:visible;"/>
								</clipPath>
								<g id="Group_341" style="clip-path:url(#SVGID_00000169529946031963231750000016380857630602605221_);">
									<path id="Path_678" class="st45" d="M-1.6,8.5l-0.3,0.1C-2,8.1-2.1,7.8-2.2,7.4c-0.2-1.2-0.2-2.4-0.1-3.6l0,0l0-0.1
										c0,0,0,0,0-0.1c0-0.2,0-0.3,0.1-0.5l1,0C-1.5,4-1.6,4.8-1.7,5.6c0,0,0,0,0,0.1c0,0,0,0,0,0.1c0,0.5,0,1,0,1.5
										C-1.7,7.6-1.7,8-1.6,8.5"/>
								</g>
							</g>
						</g>
					</g>
					<path id="Path_679" class="st9" d="M213.1,80.8l-0.4,1l-0.9-0.2l-7.9-1.8l-3.4-0.8c0.2-0.3,0.4-0.6,0.6-1
						c0.2-0.4,0.3-0.9,0.3-1.3l7.6,2.6l0,0L213.1,80.8z"/>
					<path id="Path_680" class="st9" d="M201.4,76.8c-0.1,0.8-0.4,1.6-0.9,2.3l-3.1-0.7l1-2.6L201.4,76.8z"/>
					<path id="Path_681" class="st45" d="M201.4,76.8c-0.1,0.8-0.4,1.6-0.9,2.3c-0.4,0.5-0.9,0.9-1.4,1.2c-1.8,1-4,0.5-5.1-1.3
						c0-0.1-0.1-0.1-0.1-0.2c-0.8-2,0-4.3,2-5.3c1.7-1.1,3.9-0.6,5,1.1C201.3,75.2,201.5,76,201.4,76.8"/>
				</g>
			</g>
		</g>
		<path id="Path_682" class="st18" d="M102.3,74.9h3.2v2.7H102l-0.5,3.9h-2.8l0.5-3.9h-3.6l-0.5,3.9h-2.7l0.5-3.9h-3.2v-2.7h3.5
			l0.5-3.9h-3.2v-2.7h3.5l0.5-3.9h2.7l-0.5,3.9h3.6l0.5-3.9h2.7l-0.5,3.9h3.2l0,2.7h-3.5L102.3,74.9z M99.5,74.9L100,71h-3.6
			L96,74.9H99.5z"/>
		<path id="Path_683" class="st18" d="M114.3,64.4v17.1h-3.9V67.6h-3.4v-3.2L114.3,64.4z"/>
		<rect id="Rectangle_1201" x="45.3" y="134.9" class="st9" width="27.3" height="18.8"/>
		<rect id="Rectangle_1202" x="45.3" y="134.9" class="st45" width="27.3" height="1.7"/>
		<g id="Group_347">
			<g>
				<defs>
					<rect id="SVGID_00000178921263187159118760000001239460664483918739_" x="12" y="8.9" width="276.7" height="204"/>
				</defs>
				<clipPath id="SVGID_00000004518363946349827890000016167161132713696128_">
					<use xlink:href="#SVGID_00000178921263187159118760000001239460664483918739_"  style="overflow:visible;"/>
				</clipPath>
				<g id="Group_346" style="clip-path:url(#SVGID_00000004518363946349827890000016167161132713696128_);">
					<path id="Path_684" class="st12" d="M50.3,145.3l4.5,2.5c0.2,0.1,0.3,0.2,0.4,0.3c0.1,0.1,0.1,0.2,0.1,0.4
						c0,0.2-0.1,0.4-0.2,0.5c-0.1,0.1-0.3,0.2-0.5,0.2c-0.2,0-0.4-0.1-0.5-0.2l-5.8-3.2c-0.3-0.2-0.4-0.5-0.2-0.8
						c0.1-0.1,0.1-0.2,0.2-0.2l5.8-3.2c0.2-0.1,0.3-0.2,0.5-0.2c0.2,0,0.4,0.1,0.5,0.2c0.1,0.1,0.2,0.3,0.2,0.5c0,0.1,0,0.3-0.1,0.4
						c-0.1,0.1-0.3,0.3-0.4,0.3L50.3,145.3z"/>
					<path id="Path_685" class="st12" d="M61.8,140.6l-4.4,9.5c-0.1,0.2-0.2,0.3-0.3,0.5c-0.1,0.1-0.3,0.1-0.4,0.1
						c-0.2,0-0.4-0.1-0.5-0.2c-0.1-0.1-0.2-0.3-0.2-0.5c0-0.2,0.1-0.4,0.2-0.5l4.4-9.5c0.1-0.2,0.2-0.3,0.3-0.5
						c0.3-0.2,0.7-0.2,0.9,0.1c0.1,0.1,0.2,0.3,0.2,0.5C61.9,140.3,61.8,140.5,61.8,140.6"/>
					<path id="Path_686" class="st12" d="M67.3,145.3l-4.5-2.5c-0.2-0.1-0.3-0.2-0.4-0.3c-0.1-0.1-0.1-0.2-0.1-0.4
						c0-0.2,0.1-0.4,0.2-0.5c0.1-0.1,0.3-0.2,0.5-0.2c0.2,0,0.4,0.1,0.5,0.2l5.8,3.2c0.3,0.2,0.4,0.5,0.2,0.8
						c-0.1,0.1-0.1,0.2-0.2,0.2l-5.8,3.2c-0.2,0.1-0.3,0.2-0.5,0.2c-0.2,0-0.4-0.1-0.5-0.2c-0.1-0.1-0.2-0.3-0.2-0.5
						c0-0.1,0-0.3,0.1-0.4c0.1-0.1,0.3-0.3,0.4-0.3L67.3,145.3z"/>
				</g>
			</g>
		</g>
	</g>
</g>
</svg>
