<?xml version="1.0" encoding="utf-8"?>
<!-- Generator: Adobe Illustrator 26.1.0, SVG Export Plug-In . SVG Version: 6.00 Build 0)  -->
<svg version="1.1" id="service-2" xmlns="http://www.w3.org/2000/svg" xmlns:xlink="http://www.w3.org/1999/xlink" x="0px" y="0px"
	 viewBox="0 0 403 350" style="enable-background:new 0 0 403 350;" xml:space="preserve">
<style type="text/css">
	.st0{clip-path:url(#SVGID_00000177448012058549663120000010273092595618322334_);}
	.st1{fill:#EBEBEB;}
	.st2{clip-path:url(#SVGID_00000057845273684605655750000012540975696567873410_);}
	.st3{fill:#E0E0E0;}
	.st4{font-family:'SegoeUI';}
	.st5{font-size:9px;}
	.st6{clip-path:url(#SVGID_00000003107234935485637930000000774462937626300064_);}
	.st7{fill:#DBDBDB;}
	.st8{fill:#808793;}
	.st9{opacity:0.1;}
	.st10{clip-path:url(#SVGID_00000072970878707796350830000002257244176246155675_);}
	.st11{fill:#FFFFFF;}
	.st12{opacity:0.2;}
	.st13{clip-path:url(#SVGID_00000038389532573330312220000007134210378795180725_);}
	.st14{clip-path:url(#SVGID_00000124124839158087550400000014537586800126804410_);}
	.st15{fill:#FFC023;}
	.st16{fill:#263238;}
	.st17{clip-path:url(#SVGID_00000012474588786902812780000005073283531337366449_);}
	.st18{fill:#407BFF;}
	.st19{clip-path:url(#SVGID_00000067958775708801168770000011949828107723637896_);}
	.st20{fill:#EBB376;}
	.st21{clip-path:url(#SVGID_00000004532312662676393640000011426639558427563441_);}
	.st22{opacity:0.6;}
	.st23{clip-path:url(#SVGID_00000113318380074629397070000012491648755830587311_);}
	.st24{clip-path:url(#SVGID_00000183217018729750610440000011415326292924474540_);}
	.st25{clip-path:url(#SVGID_00000053530720612016179670000008738092841711586999_);}
	.st26{clip-path:url(#SVGID_00000052799471536046805210000007483793709200859572_);}
	.st27{fill:#D58745;}
	.st28{fill:none;stroke:#263238;stroke-width:0.557;stroke-linecap:round;stroke-linejoin:round;}
	.st29{clip-path:url(#SVGID_00000069399654748386554490000005360519388358326441_);}
	.st30{clip-path:url(#SVGID_00000030475571050517196810000001782832509968378781_);}
	.st31{clip-path:url(#SVGID_00000079479465240285114120000013212524475462398620_);}
	.st32{clip-path:url(#SVGID_00000090278995797706773760000011889229814368406183_);}
	.st33{clip-path:url(#SVGID_00000175305137314294691660000000041757440267008421_);}
	.st34{clip-path:url(#SVGID_00000029726013809142559490000010944406508776943527_);}
	.st35{clip-path:url(#SVGID_00000061467255021954998130000003735854807181387167_);}
	.st36{clip-path:url(#SVGID_00000048473782553405725520000005544740006627006899_);}
	.st37{clip-path:url(#SVGID_00000006696473209761683900000014005202680219722381_);}
	.st38{clip-path:url(#SVGID_00000080205058099374156890000005983791907835162520_);}
	.st39{clip-path:url(#SVGID_00000154414790739584059170000007580801658787519657_);}
	.st40{clip-path:url(#SVGID_00000002385934591783593920000004430566612200859057_);}
	.st41{clip-path:url(#SVGID_00000133492060818905127400000005088646739063721146_);}
	.st42{clip-path:url(#SVGID_00000160176252285328155520000014145051441596278458_);}
	.st43{clip-path:url(#SVGID_00000129888163807780567050000015550266249299279538_);}
	.st44{clip-path:url(#SVGID_00000049223361697811719720000016535251327259029437_);}
	.st45{clip-path:url(#SVGID_00000099659152906534209370000013384594712851969681_);}
	.st46{clip-path:url(#SVGID_00000051353212425689769700000008478687469713753787_);}
</style>
<g>
	<g>
		<defs>
			<rect id="SVGID_1_" y="18.1" width="403" height="317"/>
		</defs>
		<clipPath id="SVGID_00000126304260394732684550000006933326671459563427_">
			<use xlink:href="#SVGID_1_"  style="overflow:visible;"/>
		</clipPath>
		<g id="Group_256" style="clip-path:url(#SVGID_00000126304260394732684550000006933326671459563427_);">
			<rect id="Rectangle_1099" y="307.4" class="st1" width="403" height="0.2"/>
			<rect id="Rectangle_1100" x="335.9" y="320.3" class="st1" width="26.7" height="0.2"/>
			<rect id="Rectangle_1101" x="259.9" y="322.5" class="st1" width="7" height="0.2"/>
			<rect id="Rectangle_1102" x="319.6" y="312.8" class="st1" width="15.5" height="0.2"/>
			<rect id="Rectangle_1103" x="42.3" y="314.2" class="st1" width="34.8" height="0.2"/>
			<rect id="Rectangle_1104" x="84.3" y="314.2" class="st1" width="5.1" height="0.2"/>
			<rect id="Rectangle_1105" x="106" y="317.6" class="st1" width="75.5" height="0.2"/>
			<g id="Group_169">
				<g>
					<g>
						<defs>
							<rect id="SVGID_00000072276600540662491260000006348110670861716382_" y="18.1" width="403" height="317"/>
						</defs>
						<clipPath id="SVGID_00000115513977007888375810000006072374600166838708_">
							<use xlink:href="#SVGID_00000072276600540662491260000006348110670861716382_"  style="overflow:visible;"/>
						</clipPath>
						<g id="Group_168" style="clip-path:url(#SVGID_00000115513977007888375810000006072374600166838708_);">
							<path id="Path_494" class="st1" d="M191,271.4H35.4c-2.5,0-4.6-2.1-4.6-4.6V48.1c0-2.5,2.1-4.6,4.6-4.6H191
								c2.5,0,4.6,2.1,4.6,4.6v218.8C195.6,269.4,193.6,271.4,191,271.4 M35.4,43.7c-2.4,0-4.4,2-4.4,4.4l0,0v218.7
								c0,2.4,2,4.4,4.4,4.4l0,0H191c2.4,0,4.4-2,4.4-4.4V48.1c0-2.4-2-4.4-4.4-4.4H35.4z"/>
							<path id="Path_495" class="st1" d="M365.3,271.4H209.7c-2.5,0-4.6-2.1-4.6-4.6l0,0V48.1c0-2.5,2.1-4.6,4.6-4.6h155.6
								c2.5,0,4.6,2.1,4.6,4.6v218.8C369.9,269.4,367.9,271.4,365.3,271.4 M209.7,43.7c-2.4,0-4.4,2-4.4,4.4v218.7
								c0,2.4,2,4.4,4.4,4.4l0,0h155.6c2.4,0,4.4-2,4.4-4.4V48.1c0-2.4-2-4.4-4.4-4.4H209.7z"/>
							<path id="Path_496" class="st3" d="M357.2,62.3v-3.5l-1.8-0.2c-0.2-1.1-0.7-2.2-1.3-3.2l1.1-1.4l-2.4-2.4l-1.4,1.1
								c-1-0.6-2.1-1.1-3.2-1.3l-0.2-1.8h-3.5l-0.2,1.8c-1.1,0.2-2.2,0.7-3.2,1.3l-1.4-1.1l-2.4,2.4l1.2,1.4c-0.6,1-1.1,2.1-1.3,3.2
								l-1.8,0.2v3.5l1.8,0.2c0.2,1.1,0.7,2.2,1.3,3.2l-1.1,1.4l2.4,2.4l1.4-1.1c1,0.6,2.1,1.1,3.2,1.3l0.2,1.8h3.5l0.2-1.8
								c1.1-0.2,2.2-0.7,3.2-1.3l1.4,1.1l2.4-2.4l-1.1-1.4c0.6-1,1.1-2.1,1.3-3.2L357.2,62.3z M346.3,65.3c-2.6,0-4.7-2.1-4.7-4.7
								s2.1-4.7,4.7-4.7s4.7,2.1,4.7,4.7l0,0C351,63.2,348.9,65.3,346.3,65.3"/>
							<path id="Path_497" class="st3" d="M371.2,72.1v-2.7l-1.4-0.1c-0.2-0.9-0.5-1.7-1-2.5l0.9-1.1l-1.9-1.9l-1.1,0.9
								c-0.8-0.5-1.6-0.9-2.5-1l-0.1-1.4h-2.7l-0.1,1.4c-0.9,0.2-1.7,0.5-2.5,1l-1.1-0.9l-1.9,1.9l0.9,1.1c-0.5,0.8-0.9,1.6-1,2.5
								l-1.4,0.1v2.7l1.4,0.1c0.2,0.9,0.5,1.7,1,2.5l-0.9,1.1l1.9,1.9l1.1-0.9c0.8,0.5,1.6,0.9,2.5,1l0.1,1.4h2.7l0.1-1.4
								c0.9-0.2,1.7-0.5,2.5-1l1.1,0.9l1.9-1.9l-0.9-1.1c0.5-0.8,0.9-1.6,1-2.5L371.2,72.1z M362.7,74.4c-2,0-3.7-1.6-3.7-3.7
								c0-2,1.6-3.7,3.7-3.7c2,0,3.7,1.6,3.7,3.7l0,0C366.3,72.8,364.7,74.4,362.7,74.4"/>
							<path id="Path_498" class="st3" d="M357.2,79.8v-2.3l-1.2-0.1c-0.2-0.7-0.5-1.5-0.9-2.1l0.8-0.9l-1.6-1.6l-0.9,0.8
								c-0.6-0.4-1.4-0.7-2.1-0.9l-0.1-1.2h-2.3l-0.1,1.2c-0.7,0.2-1.5,0.5-2.1,0.9l-0.9-0.8l-1.6,1.6l0.8,0.9
								c-0.4,0.6-0.7,1.4-0.9,2.1l-1.2,0.1v2.3l1.2,0.1c0.2,0.7,0.5,1.5,0.9,2.1l-0.8,0.9l1.6,1.6l0.9-0.8c0.6,0.4,1.4,0.7,2.1,0.9
								l0.1,1.2h2.3l0.1-1.2c0.7-0.2,1.5-0.5,2.1-0.9l0.9,0.8l1.6-1.6l-0.8-0.9c0.4-0.6,0.7-1.4,0.9-2.1L357.2,79.8z M350,81.8
								c-1.7,0-3.1-1.4-3.1-3.1s1.4-3.1,3.1-3.1s3.1,1.4,3.1,3.1C353.1,80.4,351.7,81.8,350,81.8"/>
						</g>
					</g>
				</g>
			</g>
			<text transform="matrix(1 0 0 1 51.669 61.8985)" class="st3 st4 st5">1011100010101000101010101010101010000000111111001011110101</text>
			<text transform="matrix(1 0 0 1 114.888 256.0325)" class="st3 st4 st5">1011100010101000101010101000111110101010000111010100000</text>
			<text transform="matrix(1 0 0 1 68.864 91.7435)" class="st3 st4 st5">01010100010101010000000111111001011110101</text>
			<text transform="matrix(1 0 0 1 131.561 290.0455)" class="st3 st4 st5">01010100010101010000000111111001011110101</text>
			<text transform="matrix(1 0 0 1 183.194 272.0475)" class="st3 st4 st5">01010100010101010000000111111001011110101</text>
			<text transform="matrix(1 0 0 1 68.864 106.7035)" class="st3 st4 st5">010101000101010101010101010000000111111001011110101</text>
			<g id="Group_255">
				<g>
					<g>
						<defs>
							<rect id="SVGID_00000122692773312204813040000005619445271221786781_" y="18.1" width="403" height="317"/>
						</defs>
						<clipPath id="SVGID_00000126287303297886003170000005341665598132553856_">
							<use xlink:href="#SVGID_00000122692773312204813040000005619445271221786781_"  style="overflow:visible;"/>
						</clipPath>
						<g id="Group_254" style="clip-path:url(#SVGID_00000126287303297886003170000005341665598132553856_);">
							<path id="Path_499" class="st7" d="M196.1,325.4c0,5-37.6,9.1-84,9.1s-84-4.1-84-9.1s37.6-9.1,84-9.1
								S196.1,320.3,196.1,325.4"/>
							<path id="Path_500" class="st8" d="M357.8,73.8V236c-0.1,4-3.3,7.2-7.3,7.4H117.2c-3.9,0-6.8-3.5-6.8-7.4V73.8
								c-0.1-3.7,2.8-6.8,6.5-6.9c0.1,0,0.2,0,0.2,0h233.4C354.5,66.8,357.7,69.9,357.8,73.8"/>
							<g id="Group_172" transform="translate(110.41 75.906)" class="st9">
								<g id="Group_171">
									<g>
										<g>
											<defs>
												<rect id="SVGID_00000087392138956488748350000000394849170110220965_" x="0" y="18.1" width="247.4" height="149.3"/>
											</defs>
											<clipPath id="SVGID_00000107589746292335697130000007049646896730113930_">
												<use xlink:href="#SVGID_00000087392138956488748350000000394849170110220965_"  style="overflow:visible;"/>
											</clipPath>
											<g id="Group_170" style="clip-path:url(#SVGID_00000107589746292335697130000007049646896730113930_);">
												<path id="Path_501" class="st11" d="M247.4,18.1v142c-0.1,4-3.3,7.2-7.3,7.4H6.8c-3.9,0-6.8-3.5-6.8-7.4v-55.3
													C20.5,65.3,69.5,58.9,126.8,82C207.9,114.7,242.5,70.4,247.4,18.1"/>
											</g>
										</g>
									</g>
								</g>
							</g>
							<g id="Group_175" transform="translate(171.659 198.625)" class="st12">
								<g id="Group_174">
									<g>
										<g>
											<defs>
												<rect id="SVGID_00000013189346522965988120000013113938730266190515_" x="0" y="18.1" width="126.5" height="8.1"/>
											</defs>
											<clipPath id="SVGID_00000005988866453153390680000002802298765304947881_">
												<use xlink:href="#SVGID_00000013189346522965988120000013113938730266190515_"  style="overflow:visible;"/>
											</clipPath>
											<g id="Group_173" style="clip-path:url(#SVGID_00000005988866453153390680000002802298765304947881_);">
												<path id="Path_502" d="M122.4,26.2H4.1c-2.2,0-4.1-1.8-4.1-4s1.8-4.1,4-4.1h0.1h118.4c2.2,0,4.1,1.8,4.1,4
													s-1.8,4.1-4,4.1C122.5,26.2,122.5,26.2,122.4,26.2"/>
											</g>
										</g>
									</g>
								</g>
							</g>
							<g id="Group_178" transform="translate(173.165 199.46)">
								<g id="Group_177">
									<g>
										<g>
											<defs>
												<rect id="SVGID_00000108287421042033199610000003547206614833508487_" x="0" y="18.1" width="76.5" height="6.4"/>
											</defs>
											<clipPath id="SVGID_00000173845012004686672040000009805854826619110028_">
												<use xlink:href="#SVGID_00000108287421042033199610000003547206614833508487_"  style="overflow:visible;"/>
											</clipPath>
											<g id="Group_176" style="clip-path:url(#SVGID_00000173845012004686672040000009805854826619110028_);">
												<path id="Path_503" class="st15" d="M3.3,24.6c-1.8,0-3.3-1.4-3.3-3.2s1.4-3.2,3.2-3.3h0.1h70c1.8,0,3.2,1.4,3.3,3.2
													c0,1.8-1.4,3.2-3.2,3.3h-0.1H3.3z"/>
											</g>
										</g>
									</g>
								</g>
							</g>
							<path id="Path_504" class="st16" d="M113.7,218c7.5,6,4.9,34.8,6.3,39.3s7.5,8.1,7.5,8.1l-8.4,9.9c0,0-7.1-1.2-12.4-12.7
								S113.7,218,113.7,218"/>
							<g id="Group_181" transform="translate(105.313 199.922)" class="st12">
								<g id="Group_180">
									<g>
										<g>
											<defs>
												<rect id="SVGID_00000152246835061962584760000003966537013992667039_" x="0" y="18.1" width="22.2" height="57.2"/>
											</defs>
											<clipPath id="SVGID_00000109747225742985252700000002201254751411369909_">
												<use xlink:href="#SVGID_00000152246835061962584760000003966537013992667039_"  style="overflow:visible;"/>
											</clipPath>
											<g id="Group_179" style="clip-path:url(#SVGID_00000109747225742985252700000002201254751411369909_);">
												<path id="Path_505" d="M8.4,18.1c7.5,6,4.9,34.8,6.3,39.3s7.5,8.1,7.5,8.1l-8.4,9.9c0,0-7.1-1.2-12.4-12.7
													S8.4,18.1,8.4,18.1"/>
											</g>
										</g>
									</g>
								</g>
							</g>
							<path id="Path_506" class="st18" d="M105.8,281.3c0,0,54-15.1,60.8,3.9s-42.2,34-69.3,35S59,302.1,67,284L105.8,281.3z"/>
							<g id="Group_184" transform="translate(64.434 257.503)" class="st12">
								<g id="Group_183">
									<g>
										<g>
											<defs>
												<rect id="SVGID_00000109016245137813432290000017549540695759318160_" x="0" y="18.1" width="102.7" height="44.6"/>
											</defs>
											<clipPath id="SVGID_00000065795422275592859380000015439420128366288302_">
												<use xlink:href="#SVGID_00000109016245137813432290000017549540695759318160_"  style="overflow:visible;"/>
											</clipPath>
											<g id="Group_182" style="clip-path:url(#SVGID_00000065795422275592859380000015439420128366288302_);">
												<path id="Path_507" d="M41.3,23.8c0,0,54-15.1,60.8,3.9s-42.2,34-69.3,35S-5.5,44.6,2.5,26.5L41.3,23.8z"/>
											</g>
										</g>
									</g>
								</g>
							</g>
							<path id="Path_508" class="st18" d="M158.7,312c-0.1,0-0.1,0-0.2,0c-0.1,0-0.1-0.1,0-0.2c0.1-0.3,1-2.9,1.9-3.2
								c0.2,0,0.4,0,0.5,0.2c0.3,0.2,0.4,0.5,0.3,0.9c-0.1,0.5-0.4,0.9-0.9,1.2C159.8,311.3,159.2,311.6,158.7,312 M158.9,311.5
								c0.8-0.4,1.5-1,1.9-1.9c0-0.2,0-0.5-0.2-0.6c-0.1-0.1-0.1-0.1-0.2-0.1c-0.1,0-0.1,0.1-0.2,0.1
								C159.6,309.8,159.2,310.6,158.9,311.5"/>
							<path id="Path_509" class="st18" d="M158.6,312c-0.1,0-0.1,0-0.2,0c-0.1-0.1-1.3-1.7-1.1-2.7c0-0.3,0.2-0.5,0.4-0.7
								s0.5-0.2,0.7-0.1c0.7,0.5,0.6,2.6,0.3,3.4L158.6,312C158.7,312,158.6,312,158.6,312 M157.9,308.9c-0.1,0.1-0.2,0.2-0.2,0.4
								c0,0.8,0.3,1.6,0.8,2.2c0.2-0.9,0.1-2.4-0.2-2.7C158.2,308.8,158.1,308.7,157.9,308.9L157.9,308.9z"/>
							<path id="Path_510" class="st18" d="M103.6,321.5c0-0.1,0.1-0.1,0.1-0.1c0.1,0,0.1,0,0.2,0.1c0.2,0.3,1.4,2.7,0.9,3.6
								c-0.1,0.2-0.3,0.3-0.5,0.3c-0.3,0-0.7-0.1-0.9-0.4c-0.2-0.4-0.3-1-0.3-1.5C103.3,322.8,103.4,322.2,103.6,321.5 M103.8,322.1
								c-0.3,0.9-0.3,1.8,0,2.7c0.1,0.2,0.4,0.3,0.6,0.3c0.1,0,0.2,0,0.2-0.1s0.1-0.2,0.1-0.2C104.5,323.8,104.3,322.9,103.8,322.1"
								/>
							<path id="Path_511" class="st20" d="M116.7,303.3l-9.6,7l-4.6,3.4l3,5.2l4.7-2.5l11.4-6.2L116.7,303.3z"/>
							<path id="Path_512" class="st16" d="M107,318.8l-2.9-6.4c-0.2-0.3-0.6-0.5-0.9-0.3l0,0l-3.1,1.5c0,0-4.3,1.7-4.9,3.2
								c-1.6,4.1,4.4,18.3,6.3,18.3c0.7,0,1.1-1.1,1.2-1.7c0.3-2.2,0.4-7.6,0.6-9.4c0.3-2.1,2.4-3.7,3.4-4.4
								C107.1,319.4,107.2,319.1,107,318.8"/>
							<path id="Path_513" class="st18" d="M103.6,321.5c0-0.1,0.1-0.1,0.2-0.1s2.1,0.2,2.7,1.1c0.2,0.2,0.2,0.5,0.2,0.8
								s-0.2,0.5-0.5,0.6c-0.8,0.1-2.2-1.4-2.6-2.2L103.6,321.5L103.6,321.5 M106.4,323.2c0-0.1,0-0.3-0.1-0.4
								c-0.6-0.5-1.3-0.9-2.1-0.9c0.5,0.8,1.6,1.8,2.1,1.7C106.2,323.5,106.3,323.5,106.4,323.2L106.4,323.2z"/>
							<g id="Group_187" transform="translate(107.162 285.194)" class="st12">
								<g id="Group_186">
									<g>
										<g>
											<defs>
												<rect id="SVGID_00000158022741833097823470000007853122808409406887_" x="0" y="18.1" width="14.4" height="13"/>
											</defs>
											<clipPath id="SVGID_00000037687171822602906740000008053008150863803834_">
												<use xlink:href="#SVGID_00000158022741833097823470000007853122808409406887_"  style="overflow:visible;"/>
											</clipPath>
											<g id="Group_185" style="clip-path:url(#SVGID_00000037687171822602906740000008053008150863803834_);">
												<path id="Path_514" d="M9.6,18.1l-9.6,7l3.1,6l11.4-6.2L9.6,18.1z"/>
											</g>
										</g>
									</g>
								</g>
							</g>
							<path id="Path_515" class="st18" d="M112.4,316.8l3.1-0.7l-5.2-10l-2.9,3L112.4,316.8z"/>
							<g id="Group_190" transform="translate(107.416 287.973)" class="st22">
								<g id="Group_189">
									<g>
										<g>
											<defs>
												<rect id="SVGID_00000034804758689905977420000004679067442891454623_" x="0" y="18.1" width="8.1" height="10.7"/>
											</defs>
											<clipPath id="SVGID_00000158724067368562118980000008010506744690470588_">
												<use xlink:href="#SVGID_00000034804758689905977420000004679067442891454623_"  style="overflow:visible;"/>
											</clipPath>
											<g id="Group_188" style="clip-path:url(#SVGID_00000158724067368562118980000008010506744690470588_);">
												<path id="Path_516" class="st11" d="M5,28.8l3.1-0.7l-5.2-10l-2.9,3L5,28.8z"/>
											</g>
										</g>
									</g>
								</g>
							</g>
							<path id="Path_517" class="st20" d="M136.5,315.4l11.7,1.9l5.6,0.9l1.6-5.8l-5.1-1.5l-12.4-3.8L136.5,315.4z"/>
							<path id="Path_518" class="st16" d="M154.3,311.5l-2.5,6.5c-0.1,0.4,0,0.8,0.4,0.9l0,0l3.3,1.2c0,0,4.3,1.9,5.7,1.3
								c4-1.7,10-16,8.7-17.3c-0.5-0.5-1.5,0-2.1,0.4c-1.8,1.3-5.7,5-7.1,6.1c-1.7,1.2-4.4,0.9-5.5,0.6
								C154.7,311,154.4,311.2,154.3,311.5"/>
							<g id="Group_193" transform="translate(136.477 288.988)" class="st12">
								<g id="Group_192">
									<g>
										<g>
											<defs>
												<rect id="SVGID_00000117669354080307179420000014060131747510828448_" x="0" y="18.1" width="13.9" height="10.2"/>
											</defs>
											<clipPath id="SVGID_00000172435301195209262120000012504247069574988942_">
												<use xlink:href="#SVGID_00000117669354080307179420000014060131747510828448_"  style="overflow:visible;"/>
											</clipPath>
											<g id="Group_191" style="clip-path:url(#SVGID_00000172435301195209262120000012504247069574988942_);">
												<path id="Path_519" d="M0,26.4l11.7,1.9l2.2-6.4L1.5,18.1L0,26.4z"/>
											</g>
										</g>
									</g>
								</g>
							</g>
							<path id="Path_520" class="st18" d="M148.3,309.7c0,0-48.6-28.7-65-27.9S65.4,298.9,72.2,308s19.3,11.3,19.3,11.3
								s-8.5-12.1-7.3-15.4s5.9,8,5.9,8s30.1,3.9,56.3,6.2L148.3,309.7z"/>
							<path id="Path_521" class="st18" d="M149.1,308.9l-2.7-1.8l-3.5,10.6h4.2L149.1,308.9z"/>
							<g id="Group_196" transform="translate(142.93 289.001)" class="st22">
								<g id="Group_195">
									<g>
										<g>
											<defs>
												<rect id="SVGID_00000027591802206869039880000010118263153927567248_" x="0" y="18.1" width="6.2" height="10.6"/>
											</defs>
											<clipPath id="SVGID_00000119808090577260728560000011523489953628194458_">
												<use xlink:href="#SVGID_00000027591802206869039880000010118263153927567248_"  style="overflow:visible;"/>
											</clipPath>
											<g id="Group_194" style="clip-path:url(#SVGID_00000119808090577260728560000011523489953628194458_);">
												<path id="Path_522" class="st11" d="M6.2,19.9l-2.7-1.8L0,28.8h4.2L6.2,19.9z"/>
											</g>
										</g>
									</g>
								</g>
							</g>
							<path id="Path_523" class="st16" d="M112.1,286.3c-8.8-16.9-6-42.7,1.6-68.3c-5.3-4.4-26.5-7.4-42.7-2.7
								c0,0-10.3,38-9.1,79.6L112.1,286.3z"/>
							<path id="Path_524" class="st20" d="M93.4,222.2c-7.1,0-11.7-7.4-11.7-7.4c9.3-3.2,9.3-13,9.3-13l3.6,3.5l5.1,5
								c-4.2,3-2.2,5.6-0.9,6.7c0.3,0.2,0.6,0.5,0.9,0.7C99.7,217.6,100.5,222.2,93.4,222.2"/>
							<g id="Group_199" transform="translate(90.732 186.839)" class="st12">
								<g id="Group_198">
									<g>
										<g>
											<defs>
												<rect id="SVGID_00000074435891952204353320000010161850989898457729_" x="0" y="18.1" width="9" height="12.1"/>
											</defs>
											<clipPath id="SVGID_00000140712265098104891370000006029514002987746458_">
												<use xlink:href="#SVGID_00000074435891952204353320000010161850989898457729_"  style="overflow:visible;"/>
											</clipPath>
											<g id="Group_197" style="clip-path:url(#SVGID_00000140712265098104891370000006029514002987746458_);">
												<path id="Path_525" d="M8.1,30.1c-8.7,1-8.1-12-8.1-12c1.3,0,2.6,0.1,3.9,0.3l5.1,5C4.7,26.4,6.7,29,8.1,30.1"/>
											</g>
										</g>
									</g>
								</g>
							</g>
							<path id="Path_526" class="st16" d="M105.6,192c-3.3,1.4-2.7,4.9,2.8,11.5c3.4-2.9,5.2-9.5,3.4-11.6S108.5,190.8,105.6,192"
								/>
							<path id="Path_527" class="st20" d="M110.4,206.6L110.4,206.6c-0.3,0.9-0.7,1.8-1.1,2.6c-3.2,6.6-12.6,7.9-16.7,1.4
								c0,0,0,0,0-0.1c-2.7-4.4-1.7-8.5-0.6-15.6c0.8-5.4,5.8-9.1,11.2-8.3c1.5,0.2,2.9,0.8,4.2,1.7
								C112.8,192,112.5,200.5,110.4,206.6"/>
							<path id="Path_528" class="st16" d="M102.1,199.1c-0.1,0.6,0.1,1.1,0.4,1.2s0.8-0.3,0.9-0.9s-0.1-1.1-0.4-1.2
								S102.3,198.5,102.1,199.1"/>
							<path id="Path_529" class="st16" d="M108.6,200.6c-0.1,0.6,0.1,1.1,0.4,1.2s0.8-0.3,0.9-0.9s-0.1-1.1-0.4-1.2
								S108.7,200,108.6,200.6"/>
							<path id="Path_530" class="st27" d="M106.4,200.4c0.3,1.9,0.8,3.7,1.6,5.5c-0.9,0.4-2,0.4-2.8-0.1L106.4,200.4z"/>
							<path id="Path_531" class="st16" d="M100.8,196.7c-0.1,0-0.1,0-0.2-0.1s-0.1-0.4,0-0.5c0.8-0.7,2-1,3-0.8
								c0.2,0,0.3,0.2,0.2,0.4l0,0c-0.1,0.2-0.2,0.3-0.4,0.2c-0.9-0.2-1.7,0-2.4,0.6C101,196.7,100.9,196.7,100.8,196.7"/>
							<path id="Path_532" class="st16" d="M112.1,199c-0.1,0-0.2-0.1-0.3-0.3c-0.2-0.9-0.7-1.6-1.5-1.9c-0.2-0.1-0.3-0.3-0.2-0.4
								s0.3-0.3,0.4-0.2c1,0.4,1.8,1.3,2,2.4c0,0.2-0.1,0.4-0.2,0.4l0,0l0,0C112.2,199,112.1,199,112.1,199"/>
							<path id="Path_533" class="st16" d="M96.3,189.2c3,1.9,1.8,5.3-4.6,10.9c-2.9-3.4-3.6-10.2-1.5-12S93.6,187.6,96.3,189.2"/>
							<path id="Path_534" class="st20" d="M87.5,199.7c0.1,1.8,0.9,3.5,2.3,4.7c1.8,1.6,3.7,0.2,4.1-2c0.3-2-0.2-5.3-2.5-6
								c-1.6-0.5-3.3,0.4-3.8,2C87.5,198.8,87.4,199.2,87.5,199.7"/>
							<path id="Path_535" class="st28" d="M99.7,205.8c0.7,1.7,2.3,3,4.2,3.2"/>
							<circle id="Ellipse_166" class="st28" cx="103.4" cy="200.4" r="2.4"/>
							<circle id="Ellipse_167" class="st28" cx="110" cy="201.8" r="2.4"/>
							<path id="Path_536" class="st28" d="M105.9,201.1c0.6-0.3,1.3-0.1,1.7,0.5"/>
							<path id="Path_537" class="st28" d="M101,199.9c0,0-7-2.9-8.3-3.2"/>
							<path id="Path_538" class="st16" d="M90.1,188.2c0,0-0.7-5.7,5.1-6.6s13.4,0.5,15.8-0.5c-0.2,1-0.8,1.9-1.7,2.5
								c0,0,4.4,1.6,7.9,0.2c0,0-1.5,4.2-3.5,5.8h1.7c0,0-3.3,3.2-7.3,3.2s-7.8-5.5-11.8-3.6S90.1,188.2,90.1,188.2"/>
							<g id="Group_202" transform="translate(74.21 253.304)" class="st12">
								<g id="Group_201">
									<g>
										<g>
											<defs>
												<rect id="SVGID_00000110430623266462538870000000028764909625508992_" x="0" y="18.1" width="84" height="29.1"/>
											</defs>
											<clipPath id="SVGID_00000031916753215167002120000004293527841359874975_">
												<use xlink:href="#SVGID_00000110430623266462538870000000028764909625508992_"  style="overflow:visible;"/>
											</clipPath>
											<g id="Group_200" style="clip-path:url(#SVGID_00000031916753215167002120000004293527841359874975_);">
												<path id="Path_539" d="M0,18.1l16.7,18.5c0,0,18.5-0.4,40.9,10.6c0,0,24.1-9.9,26.3-18.2s-50.5-2.4-50.5-2.4L0,18.1z"/>
											</g>
										</g>
									</g>
								</g>
							</g>
							<path id="Path_540" class="st20" d="M78.9,266l26.8,8.8c0,0,9.6-2.1,11.3-2.1s8.3,5.4,4.6,7.3s-14,2.1-15.1,1.5
								s-30.8-7.6-30.8-7.6L78.9,266z"/>
							<path id="Path_541" class="st16" d="M71,215.3c6.1-1.2-4.5,35.8-1.9,41.2s12.6,8.9,12.6,8.9l-4.6,10.2
								c0,0-13.7-2.6-21.2-12.1S61.1,217.2,71,215.3"/>
							<g id="Group_205" transform="translate(53.709 197.162)" class="st12">
								<g id="Group_204">
									<g>
										<g>
											<defs>
												<rect id="SVGID_00000077319863783734317540000006120132102150384274_" x="0" y="18.1" width="28" height="60.3"/>
											</defs>
											<clipPath id="SVGID_00000119119807759366793580000013079599917348947333_">
												<use xlink:href="#SVGID_00000077319863783734317540000006120132102150384274_"  style="overflow:visible;"/>
											</clipPath>
											<g id="Group_203" style="clip-path:url(#SVGID_00000119119807759366793580000013079599917348947333_);">
												<path id="Path_542" d="M17.3,18.2c6.1-1.2-4.5,35.8-1.9,41.2S28,68.2,28,68.2l-4.6,10.2c0,0-13.7-2.6-21.2-12.1
													S7.4,20.1,17.3,18.2"/>
											</g>
										</g>
									</g>
								</g>
							</g>
							<path id="Path_543" class="st16" d="M81.8,264.6l-5.6,11l4.8,1l4.4-10.2L81.8,264.6z"/>
							<g id="Group_208" transform="translate(76.113 246.454)" class="st12">
								<g id="Group_207">
									<g>
										<g>
											<defs>
												<rect id="SVGID_00000116208540610061042480000013554067848791877547_" x="0" y="18.1" width="9.3" height="12.1"/>
											</defs>
											<clipPath id="SVGID_00000047039756589325762790000014678335926381922705_">
												<use xlink:href="#SVGID_00000116208540610061042480000013554067848791877547_"  style="overflow:visible;"/>
											</clipPath>
											<g id="Group_206" style="clip-path:url(#SVGID_00000047039756589325762790000014678335926381922705_);">
												<path id="Path_544" class="st11" d="M5.6,18.1L0,29.2l4.8,1L9.2,20L5.6,18.1z"/>
											</g>
										</g>
									</g>
								</g>
							</g>
							<path id="Path_545" class="st16" d="M92.8,279.9v1.8c0,1.2,1,2.2,2.2,2.3h64.8c1.2,0,2.3-1,2.3-2.3v-1.8H92.8z"/>
							<g id="Group_211" transform="translate(92.835 261.766)" class="st12">
								<g id="Group_210">
									<g>
										<g>
											<defs>
												<rect id="SVGID_00000144336489327401863480000004049007095022689413_" x="0" y="18.1" width="69.3" height="4"/>
											</defs>
											<clipPath id="SVGID_00000066502210570437810480000015181599666672500147_">
												<use xlink:href="#SVGID_00000144336489327401863480000004049007095022689413_"  style="overflow:visible;"/>
											</clipPath>
											<g id="Group_209" style="clip-path:url(#SVGID_00000066502210570437810480000015181599666672500147_);">
												<path id="Path_546" class="st11" d="M0,18.1v1.8c0,1.2,1,2.2,2.2,2.3H67c1.2,0,2.3-1,2.3-2.3v-1.8H0z"/>
											</g>
										</g>
									</g>
								</g>
							</g>
							<g id="Group_214" transform="translate(117.012 261.766)" class="st12">
								<g id="Group_213">
									<g>
										<g>
											<defs>
												<rect id="SVGID_00000170960915388284370590000001809221573786238107_" x="0" y="18.1" width="45.1" height="4"/>
											</defs>
											<clipPath id="SVGID_00000153692683925226561820000010741271637703715972_">
												<use xlink:href="#SVGID_00000170960915388284370590000001809221573786238107_"  style="overflow:visible;"/>
											</clipPath>
											<g id="Group_212" style="clip-path:url(#SVGID_00000153692683925226561820000010741271637703715972_);">
												<path id="Path_547" class="st11" d="M0,18.1v1.8c0,1.2,1,2.2,2.2,2.3h40.6c1.2,0,2.3-1,2.3-2.3v-1.8H0z"/>
											</g>
										</g>
									</g>
								</g>
							</g>
							<path id="Path_548" class="st16" d="M119.2,282.3H162c1.4-0.1,2.6-1,3.1-2.3l9.8-30.8c0.4-0.9,0-1.9-0.9-2.2
								c-0.2-0.1-0.5-0.2-0.8-0.1h-42.8c-1.4,0.1-2.6,1-3.1,2.4l-9.8,30.8c-0.4,0.8,0,1.8,0.9,2.2
								C118.7,282.3,118.9,282.3,119.2,282.3"/>
							<g id="Group_217" transform="translate(117.444 228.724)" class="st12">
								<g id="Group_216">
									<g>
										<g>
											<defs>
												<rect id="SVGID_00000078019201173755679140000016940269040816347826_" x="0" y="18.1" width="57.6" height="35.5"/>
											</defs>
											<clipPath id="SVGID_00000034072346461344048210000010514080847672534445_">
												<use xlink:href="#SVGID_00000078019201173755679140000016940269040816347826_"  style="overflow:visible;"/>
											</clipPath>
											<g id="Group_215" style="clip-path:url(#SVGID_00000034072346461344048210000010514080847672534445_);">
												<path id="Path_549" class="st11" d="M1.8,53.6h42.8c1.4-0.1,2.6-1,3.1-2.3l9.8-30.8c0.4-0.9,0-1.9-0.9-2.2
													c-0.2-0.1-0.5-0.2-0.8-0.1H13c-1.4,0.1-2.6,1-3.1,2.4L0.1,51.2C-0.3,52,0.1,53,1,53.4C1.2,53.6,1.5,53.6,1.8,53.6"/>
											</g>
										</g>
									</g>
								</g>
							</g>
							<g id="Group_220" transform="translate(119.056 228.724)" class="st12">
								<g id="Group_219">
									<g>
										<g>
											<defs>
												<rect id="SVGID_00000036220990877025447860000003864091374795169429_" x="0" y="18.1" width="56" height="35.5"/>
											</defs>
											<clipPath id="SVGID_00000043433576655232871180000011138633349088734108_">
												<use xlink:href="#SVGID_00000036220990877025447860000003864091374795169429_"  style="overflow:visible;"/>
											</clipPath>
											<g id="Group_218" style="clip-path:url(#SVGID_00000043433576655232871180000011138633349088734108_);">
												<path id="Path_550" class="st11" d="M1.8,53.6H43c1.4-0.1,2.6-1,3.1-2.3l9.8-30.8c0.4-0.9,0-1.9-0.9-2.2
													c-0.2-0.1-0.5-0.2-0.8-0.1H13c-1.4,0.1-2.6,1-3.1,2.4L0.1,51.2C-0.3,52,0.1,53,1,53.4C1.2,53.6,1.5,53.6,1.8,53.6"/>
											</g>
										</g>
									</g>
								</g>
							</g>
							<g id="Group_223" transform="translate(144.387 243.077)" class="st12">
								<g id="Group_222">
									<g>
										<g>
											<defs>
												<rect id="SVGID_00000101089538394089522100000008160706689356852368_" x="0" y="18.1" width="8.5" height="8.4"/>
											</defs>
											<clipPath id="SVGID_00000129884392918171483270000016200551812193483964_">
												<use xlink:href="#SVGID_00000101089538394089522100000008160706689356852368_"  style="overflow:visible;"/>
											</clipPath>
											<g id="Group_221" style="clip-path:url(#SVGID_00000129884392918171483270000016200551812193483964_);">
												<path id="Path_551" class="st11" d="M5.9,18.1L0,22.3l2.6,4.2l5.9-4.2L5.9,18.1z"/>
											</g>
										</g>
									</g>
								</g>
							</g>
							<g id="Group_226" transform="translate(133.876 56.572)" class="st12">
								<g id="Group_225">
									<g>
										<g>
											<defs>
												<rect id="SVGID_00000044167471681020503420000012954391157757002894_" x="0" y="18.1" width="68.3" height="68.3"/>
											</defs>
											<clipPath id="SVGID_00000133524769418179664170000010499231331473977998_">
												<use xlink:href="#SVGID_00000044167471681020503420000012954391157757002894_"  style="overflow:visible;"/>
											</clipPath>
											<g id="Group_224" style="clip-path:url(#SVGID_00000133524769418179664170000010499231331473977998_);">
												<path id="Path_552" d="M61.2,86.4H7c-3.9,0-7-3.2-7-7V25.2c0-3.9,3.2-7,7-7h54.2c3.9,0,7,3.2,7,7l0,0v54.2
													C68.3,83.3,65.1,86.4,61.2,86.4L61.2,86.4"/>
											</g>
										</g>
									</g>
								</g>
							</g>
							<g id="Group_229" transform="translate(151.711 49.117)">
								<g id="Group_228">
									<g>
										<g>
											<defs>
												<rect id="SVGID_00000101818393036088592010000012240630184951842495_" x="0" y="18.1" width="57.2" height="57.2"/>
											</defs>
											<clipPath id="SVGID_00000098920917861008204710000014976050920071380410_">
												<use xlink:href="#SVGID_00000101818393036088592010000012240630184951842495_"  style="overflow:visible;"/>
											</clipPath>
											<g id="Group_227" style="clip-path:url(#SVGID_00000098920917861008204710000014976050920071380410_);">
												<path id="Path_553" class="st15" d="M51.3,75.3H5.9c-3.3,0-5.9-2.6-5.9-5.9V24c0-3.3,2.6-5.9,5.9-5.9h45.4
													c3.3,0,5.9,2.6,5.9,5.9v45.4C57.2,72.7,54.6,75.3,51.3,75.3"/>
											</g>
										</g>
									</g>
								</g>
							</g>
							<path id="Path_554" class="st11" d="M184.2,90.4v-3.5l-1.8-0.2c-0.2-1.1-0.7-2.2-1.3-3.2l1.1-1.4l-2.4-2.4l-1.4,1.1
								c-1-0.6-2.1-1.1-3.2-1.3l-0.2-1.8h-3.5l-0.2,1.8c-1.1,0.2-2.2,0.7-3.2,1.3l-1.4-1.1l-2.4,2.5l1.1,1.4c-0.6,1-1.1,2.1-1.3,3.2
								l-1.8,0.2v3.5l1.8,0.2c0.2,1.1,0.7,2.2,1.3,3.2l-1.1,1.4l2.4,2.4l1.4-1.1c1,0.6,2.1,1.1,3.2,1.3l0.2,1.8h3.5l0.2-1.8
								c1.1-0.2,2.2-0.7,3.2-1.3l1.4,1.1l2.4-2.4l-1.2-1.4c0.6-1,1.1-2.1,1.3-3.2L184.2,90.4z M173.3,93.4c-2.6,0-4.7-2.1-4.7-4.7
								s2.1-4.7,4.7-4.7c2.6,0,4.7,2.1,4.7,4.7l0,0C178,91.3,175.9,93.4,173.3,93.4"/>
							<path id="Path_555" class="st11" d="M198.2,100.2v-2.7l-1.4-0.1c-0.2-0.9-0.5-1.7-1-2.5l0.9-1.1l-1.9-1.9l-1.1,0.9
								c-0.8-0.5-1.6-0.9-2.5-1l-0.1-1.4h-2.7l-0.1,1.4c-0.9,0.2-1.7,0.5-2.5,1l-1.1-0.9l-1.9,1.9l0.9,1.1c-0.5,0.8-0.9,1.6-1,2.5
								l-1.4,0.1v2.7l1.4,0.1c0.2,0.9,0.5,1.7,1,2.5l-0.9,1.1l1.9,1.9l1.1-0.9c0.8,0.5,1.6,0.9,2.5,1l0.1,1.4h2.7l0.1-1.4
								c0.9-0.2,1.7-0.5,2.5-1l1.1,0.9l1.9-1.9l-0.9-1.1c0.5-0.8,0.9-1.6,1-2.5L198.2,100.2z M189.7,102.5c-2,0-3.7-1.6-3.7-3.7
								c0-2,1.6-3.7,3.7-3.7c2,0,3.7,1.6,3.7,3.7S191.7,102.5,189.7,102.5L189.7,102.5"/>
							<path id="Path_556" class="st11" d="M184.2,107.9v-2.3l-1.2-0.1c-0.2-0.8-0.5-1.5-0.9-2.1l0.8-0.9l-1.6-1.6l-0.9,0.8
								c-0.6-0.4-1.4-0.7-2.1-0.9l-0.1-1.2h-2.3l-0.1,1.2c-0.7,0.2-1.5,0.5-2.1,0.9l-0.9-0.8l-1.6,1.6l0.8,0.9
								c-0.4,0.6-0.7,1.4-0.9,2.1l-1.2,0.1v2.3l1.2,0.1c0.2,0.7,0.5,1.5,0.9,2.1l-0.8,0.9l1.6,1.6l0.9-0.8c0.6,0.4,1.4,0.7,2.1,0.9
								l0.1,1.2h2.3l0.1-1.2c0.7-0.2,1.5-0.5,2.1-0.9l0.9,0.8l1.6-1.6l-0.8-0.9c0.4-0.6,0.7-1.4,0.9-2.1L184.2,107.9z M177,109.8
								c-1.7,0-3.1-1.4-3.1-3.1c0-1.7,1.4-3.1,3.1-3.1c1.7,0,3.1,1.4,3.1,3.1l0,0C180.1,108.4,178.7,109.8,177,109.8"/>
							<g id="Group_232" transform="translate(221.336 52.474)" class="st12">
								<g id="Group_231">
									<g>
										<g>
											<defs>
												<rect id="SVGID_00000078037547561869766780000013128347830606705058_" x="0" y="18.1" width="55.4" height="55.4"/>
											</defs>
											<clipPath id="SVGID_00000163032911051522533920000011313555738400529542_">
												<use xlink:href="#SVGID_00000078037547561869766780000013128347830606705058_"  style="overflow:visible;"/>
											</clipPath>
											<g id="Group_230" style="clip-path:url(#SVGID_00000163032911051522533920000011313555738400529542_);">
												<path id="Path_557" d="M49.7,73.5h-44c-3.2,0-5.7-2.6-5.7-5.7l0,0v-44c0-3.2,2.6-5.7,5.7-5.7l0,0h44
													c3.2,0,5.7,2.6,5.7,5.7l0,0v44C55.4,71,52.8,73.5,49.7,73.5"/>
											</g>
										</g>
									</g>
								</g>
							</g>
							<g id="Group_235" transform="translate(236.205 47.593)">
								<g id="Group_234">
									<g>
										<g>
											<defs>
												<rect id="SVGID_00000020400567621373418060000015141102445591622823_" x="0" y="18.1" width="46.4" height="46.4"/>
											</defs>
											<clipPath id="SVGID_00000138571492528586881830000006078809008682401442_">
												<use xlink:href="#SVGID_00000020400567621373418060000015141102445591622823_"  style="overflow:visible;"/>
											</clipPath>
											<g id="Group_233" style="clip-path:url(#SVGID_00000138571492528586881830000006078809008682401442_);">
												<path id="Path_558" class="st15" d="M41.6,64.5H4.8c-2.6,0-4.8-2.1-4.8-4.8l0,0V22.9c0-2.6,2.1-4.8,4.8-4.8l0,0h36.8
													c2.6,0,4.8,2.1,4.8,4.8l0,0v36.8C46.4,62.4,44.3,64.5,41.6,64.5L41.6,64.5"/>
											</g>
										</g>
									</g>
								</g>
							</g>
							<path id="Path_559" class="st11" d="M272.3,77.6c0-0.8-0.7-1.5-1.5-1.5l0,0H248c-0.8,0-1.5,0.7-1.5,1.5v5
								c0,0.8,0.7,1.5,1.5,1.5l0,0h22.7c0.8,0,1.5-0.7,1.5-1.5l0,0L272.3,77.6z M264.8,80.3h-1.3V79h1.3V80.3z M268.3,80.9
								c-0.7,0-1.3-0.6-1.3-1.3c0-0.7,0.6-1.3,1.3-1.3c0.7,0,1.3,0.6,1.3,1.3C269.6,80.3,269,80.9,268.3,80.9L268.3,80.9"/>
							<path id="Path_560" class="st11" d="M272.3,86.4c0-0.8-0.7-1.5-1.5-1.5l0,0H248c-0.8,0-1.5,0.7-1.5,1.5l0,0v5
								c0,0.8,0.7,1.5,1.5,1.5h22.7c0.8,0,1.5-0.7,1.5-1.5l0,0L272.3,86.4z M264.8,89.6h-1.3v-1.3h1.3V89.6z M268.3,90.3
								c-0.7,0-1.3-0.6-1.3-1.3c0-0.7,0.6-1.3,1.3-1.3c0.7,0,1.3,0.6,1.3,1.3C269.6,89.7,269,90.3,268.3,90.3L268.3,90.3"/>
							<path id="Path_561" class="st11" d="M272.3,95.3c0-0.8-0.7-1.5-1.5-1.5l0,0H248c-0.8,0-1.5,0.7-1.5,1.5v5
								c0,0.8,0.7,1.5,1.5,1.5l0,0h22.7c0.8,0,1.5-0.7,1.5-1.5l0,0L272.3,95.3z M264.8,99h-1.3v-1.3h1.3V99z M268.3,99.7
								c-0.7,0-1.3-0.6-1.3-1.3c0-0.7,0.6-1.3,1.3-1.3c0.7,0,1.3,0.6,1.3,1.3C269.6,99.1,269,99.7,268.3,99.7L268.3,99.7"/>
							<g id="Group_238" transform="translate(164.857 121.205)" class="st12">
								<g id="Group_237">
									<g>
										<g>
											<defs>
												<rect id="SVGID_00000014636119407597315060000016262390464817645702_" x="0" y="18.1" width="68.3" height="68.3"/>
											</defs>
											<clipPath id="SVGID_00000080922722207502534620000003346126744347753135_">
												<use xlink:href="#SVGID_00000014636119407597315060000016262390464817645702_"  style="overflow:visible;"/>
											</clipPath>
											<g id="Group_236" style="clip-path:url(#SVGID_00000080922722207502534620000003346126744347753135_);">
												<path id="Path_562" d="M61.2,86.4H7c-3.9,0-7-3.2-7-7l0,0V25.2c0-3.9,3.2-7,7-7l0,0h54.2c3.9,0,7,3.2,7,7v54.2
													C68.3,83.3,65.1,86.4,61.2,86.4"/>
											</g>
										</g>
									</g>
								</g>
							</g>
							<g id="Group_241" transform="translate(180.877 116.373)">
								<g id="Group_240">
									<g>
										<g>
											<defs>
												<rect id="SVGID_00000087414207288975578310000010340466854453485465_" x="0" y="18.1" width="57.2" height="57.2"/>
											</defs>
											<clipPath id="SVGID_00000068677658910823384400000008457380720848163250_">
												<use xlink:href="#SVGID_00000087414207288975578310000010340466854453485465_"  style="overflow:visible;"/>
											</clipPath>
											<g id="Group_239" style="clip-path:url(#SVGID_00000068677658910823384400000008457380720848163250_);">
												<path id="Path_563" class="st15" d="M51.3,75.3H5.9c-3.3,0-5.9-2.6-5.9-5.9V24c0-3.3,2.6-5.9,5.9-5.9h45.4
													c3.3,0,5.9,2.6,5.9,5.9v45.4C57.2,72.7,54.6,75.3,51.3,75.3"/>
											</g>
										</g>
									</g>
								</g>
							</g>
							<path id="Path_564" class="st11" d="M193.7,178.8L193.7,178.8c-1.7-1.7-1.7-4.6,0-6.3l0,0l10.4-10.4c1-1,2.6-1,3.6,0l0,0
								l2.8,2.8c1,1,1,2.6,0,3.6l0,0L200,178.8C198.3,180.6,195.5,180.6,193.7,178.8L193.7,178.8"/>
							<path id="Path_565" class="st11" d="M213,161.6l-2.1-2.1l11.8-11.8l2.6-0.5l-0.5,2.6L213,161.6z"/>
							<path id="Path_566" class="st11" d="M211.8,164.4l-3.6-3.6c-0.3-0.3-0.3-0.8,0-1.2c0.3-0.3,0.8-0.3,1.2,0l0,0l3.6,3.6
								c0.3,0.3,0.3,0.9,0,1.2C212.6,164.7,212.1,164.7,211.8,164.4"/>
							<path id="Path_567" class="st11" d="M206.9,157.4l-5-5c0.9-2.5-0.9-5.6-3-6.4v3.8c0,0.9-0.7,1.6-1.6,1.6
								c-0.9,0-1.6-0.7-1.6-1.6l0,0V146c-1.9,0.8-3.2,2.6-3.3,4.6c0,2.4,1.9,4.5,4.3,4.8c0.8,0.1,1.6,0,2.4-0.3l5,5L206.9,157.4z"/>
							<path id="Path_568" class="st11" d="M223.5,176.3v3.8c1.9-0.8,3.2-2.6,3.3-4.6c0-2.5-1.8-4.5-4.2-4.9
								c-0.8-0.2-1.6-0.1-2.3,0.2l-5.2-5.2l-2.9,2.9l5.2,5.2c-1.5,3.1,0.8,5.7,2.9,6.5v-3.8c0-0.9,0.7-1.6,1.6-1.6
								C222.8,174.7,223.5,175.4,223.5,176.3L223.5,176.3"/>
							<g id="Group_244" transform="translate(295.11 10.957)" class="st12">
								<g id="Group_243">
									<g>
										<g>
											<defs>
												<rect id="SVGID_00000027583030859457886190000001455631989276668069_" x="0" y="18.1" width="82.3" height="82.3"/>
											</defs>
											<clipPath id="SVGID_00000161609676914065417730000006702584343211388063_">
												<use xlink:href="#SVGID_00000027583030859457886190000001455631989276668069_"  style="overflow:visible;"/>
											</clipPath>
											<g id="Group_242" style="clip-path:url(#SVGID_00000161609676914065417730000006702584343211388063_);">
												<path id="Path_569" d="M73.8,100.4H8.5c-4.7,0-8.5-3.8-8.5-8.5V26.6c0-4.7,3.8-8.5,8.5-8.5l0,0h65.3
													c4.7,0,8.5,3.8,8.5,8.5l0,0v65.3C82.3,96.6,78.5,100.4,73.8,100.4L73.8,100.4"/>
											</g>
										</g>
									</g>
								</g>
							</g>
							<g id="Group_247" transform="translate(311.024)">
								<g id="Group_246">
									<g>
										<g>
											<defs>
												<rect id="SVGID_00000052782505157079277380000012156679852088905918_" x="0" y="18.1" width="69" height="69"/>
											</defs>
											<clipPath id="SVGID_00000097479307543952416770000016168259583188228254_">
												<use xlink:href="#SVGID_00000052782505157079277380000012156679852088905918_"  style="overflow:visible;"/>
											</clipPath>
											<g id="Group_245" style="clip-path:url(#SVGID_00000097479307543952416770000016168259583188228254_);">
												<path id="Path_570" class="st15" d="M7.1,87.1h54.7c3.9,0,7.1-3.2,7.1-7.1V25.2c0-3.9-3.2-7.1-7.1-7.1H7.1
													c-3.9,0-7.1,3.2-7.1,7.1v54.7C0,83.9,3.2,87.1,7.1,87.1"/>
											</g>
										</g>
									</g>
								</g>
							</g>
							<path id="Path_571" class="st11" d="M346.6,32.8l-20.5,8.1c0,0,2.6,28.2,20.5,33.5c17.9-5.3,20.5-33.5,20.5-33.5L346.6,32.8z
								 M346.1,60.1c-0.3,0.4-0.7,0.6-1.1,0.6l0,0c-0.4,0-0.9-0.2-1.1-0.6l-7.2-9.9c-0.5-0.6-0.3-1.5,0.3-2c0.6-0.5,1.5-0.3,2,0.3
								l0,0l6.1,8.4l9.9-13.1c0.5-0.6,1.3-0.7,2-0.3l0,0c0.6,0.5,0.7,1.4,0.3,2.1L346.1,60.1z"/>
							<g id="Group_250" transform="translate(270.51 121.38)" class="st12">
								<g id="Group_249">
									<g>
										<g>
											<defs>
												<rect id="SVGID_00000063595892203947125550000000776729298707036585_" x="0" y="18.1" width="63.1" height="63.1"/>
											</defs>
											<clipPath id="SVGID_00000099656832532581605000000013922301757843772555_">
												<use xlink:href="#SVGID_00000063595892203947125550000000776729298707036585_"  style="overflow:visible;"/>
											</clipPath>
											<g id="Group_248" style="clip-path:url(#SVGID_00000099656832532581605000000013922301757843772555_);">
												<path id="Path_572" d="M56.6,81.3H6.5c-3.6,0-6.5-2.9-6.5-6.5l0,0V24.6c0-3.6,2.9-6.5,6.5-6.5l0,0h50.1
													c3.6,0,6.5,2.9,6.5,6.5l0,0v50.1C63.1,78.3,60.2,81.3,56.6,81.3L56.6,81.3"/>
											</g>
										</g>
									</g>
								</g>
							</g>
							<g id="Group_253" transform="translate(286.366 118.002)">
								<g id="Group_252">
									<g>
										<g>
											<defs>
												<rect id="SVGID_00000062911032140209826020000004188679625477845652_" x="0" y="18.1" width="52.9" height="52.9"/>
											</defs>
											<clipPath id="SVGID_00000109742904038556322430000005913813320673576355_">
												<use xlink:href="#SVGID_00000062911032140209826020000004188679625477845652_"  style="overflow:visible;"/>
											</clipPath>
											<g id="Group_251" style="clip-path:url(#SVGID_00000109742904038556322430000005913813320673576355_);">
												<path id="Path_573" class="st15" d="M47.4,71h-42c-3,0-5.4-2.4-5.4-5.4l0,0v-42c0-3,2.4-5.5,5.5-5.5l0,0h42
													c3,0,5.5,2.4,5.5,5.5l0,0v42C52.9,68.6,50.5,71,47.4,71"/>
											</g>
										</g>
									</g>
								</g>
							</g>
							<path id="Path_574" class="st11" d="M316.4,171.1c0,1.1-0.9,1.9-1.9,1.9c-1.1,0-1.9-0.9-1.9-1.9c0-1.1,0.9-1.9,1.9-1.9l0,0
								C315.5,169.2,316.4,170.1,316.4,171.1"/>
							<path id="Path_575" class="st11" d="M314.3,152.1c-10.5,0-19,8.5-19,19l0,0h15.1c-0.1-2,1.4-3.6,3.4-3.7c0.1,0,0.3,0,0.4,0
								c0.4,0,0.8,0.1,1.1,0.2l7.1-8.2l-5,9.8c0.4,0.6,0.6,1.3,0.6,2h15.1C333.3,160.6,324.8,152.1,314.3,152.1L314.3,152.1"/>
							<rect id="Rectangle_1135" x="55.7" y="124.1" class="st15" width="68.7" height="46.4"/>
							<rect id="Rectangle_1136" x="57" y="127.7" class="st16" width="66" height="41.2"/>
							<rect id="Rectangle_1137" x="60" y="134.1" class="st3" width="54.2" height="1.2"/>
							<rect id="Rectangle_1138" x="60" y="137.5" class="st3" width="46.2" height="1.2"/>
							<rect id="Rectangle_1139" x="60" y="140.9" class="st3" width="54.2" height="1.2"/>
							<rect id="Rectangle_1140" x="60" y="144.3" class="st3" width="46.2" height="1.2"/>
							<rect id="Rectangle_1141" x="60" y="147.8" class="st3" width="5.9" height="1.2"/>
							<rect id="Rectangle_1142" x="60" y="151.2" class="st3" width="30.1" height="1.2"/>
							<rect id="Rectangle_1143" x="60" y="154.6" class="st3" width="46.2" height="1.2"/>
							<rect id="Rectangle_1144" x="60" y="158" class="st3" width="5.9" height="1.2"/>
							<rect id="Rectangle_1145" x="60" y="161.5" class="st3" width="5.9" height="1.2"/>
							<rect id="Rectangle_1146" x="298.8" y="229" class="st15" width="68.7" height="46.4"/>
							<rect id="Rectangle_1147" x="300" y="232.6" class="st16" width="66" height="41.2"/>
							<rect id="Rectangle_1148" x="303.1" y="239" class="st3" width="54.2" height="1.2"/>
							<rect id="Rectangle_1149" x="303.1" y="242.4" class="st3" width="46.2" height="1.2"/>
							<rect id="Rectangle_1150" x="303.1" y="245.9" class="st3" width="54.2" height="1.2"/>
							<rect id="Rectangle_1151" x="303.1" y="249.3" class="st3" width="46.2" height="1.2"/>
							<rect id="Rectangle_1152" x="303" y="252.7" class="st3" width="5.9" height="1.2"/>
							<rect id="Rectangle_1153" x="303" y="256.1" class="st3" width="30.1" height="1.2"/>
							<rect id="Rectangle_1154" x="303.1" y="259.6" class="st3" width="46.2" height="1.2"/>
							<rect id="Rectangle_1155" x="303" y="263" class="st3" width="5.9" height="1.2"/>
							<rect id="Rectangle_1156" x="303" y="266.4" class="st3" width="5.9" height="1.2"/>
						</g>
					</g>
				</g>
			</g>
		</g>
	</g>
</g>
</svg>
