<svg id="圖層_1" data-name="圖層 1" xmlns="http://www.w3.org/2000/svg" viewBox="0 0 758.32 764.25"><defs><style>.cls-1{fill:#0068b6;}</style></defs><path class="cls-1" d="M559.38,248h-124L394.13,422.21h124a22,22,0,0,0,15.58-5.76,30,30,0,0,0,8.59-13.54l31.76-134.2c1.28-5.49.5-10.32-2.44-14.47A14.06,14.06,0,0,0,559.38,248ZM379,248H253.92c-5.46-.34-10.89,1.89-16.28,6.75-4.93,4.18-8,8.8-9.18,14l-31.79,134.2a15.37,15.37,0,0,0,2.71,13.54,17.7,17.7,0,0,0,13.32,5.76H337.77ZM564.8,680.14c14.58,7.1,12.22,20.74,12.22,20.74-1.49,10.39-6.31,14.4-6.31,14.4-55.43,48-162.16,50.83-162.16,50.83C207.23,780.76,94,632.38,94,632.38-51,450.82,26.57,266.32,26.57,266.32,103.64,47.68,309.11,11.54,309.11,11.54c187-39,310.53,66.38,310.53,66.38C777.17,198,763.88,373.66,763.88,373.66,754.87,501.8,663,566,663,566,542.5,673.39,430.6,646,430.6,646c-143-33.15-105-172.12-105-172.12H179q-20.39-1-32.4-14.5c-8.37-10.32-10.76-22.23-7.26-35.72L181.12,247c3.32-14.17,11.27-26.23,23.75-36.21q18.65-14.51,39.73-14.48H391.17l10.42-43.92c2.07-8.7,6.1-15.49,12.13-20.29a36.22,36.22,0,0,1,22.45-7.73c7.83,0,13.78,2.44,17.87,7.24q7,7.74,3.94,20.78l-10.39,43.92H592.71q23.19-.51,34.12,15.43,9.15,15,4.88,35.26L589.94,423.7q-5.73,19.73-23,34.73-18.86,15.48-39.94,15.49H381.92c-37.86,146.74,117.46,139.9,117.46,139.9,139.76-13.66,189.85-111.28,189.85-111.28,46-85.87,21.24-187.17,21.24-187.17C682.26,175.55,573.29,111.13,573.29,111.13,388.17-9.7,217.55,106,217.55,106,55.14,208.48,59.43,385.67,59.43,385.67c-.53,205,167.57,287,167.57,287,75.05,43.92,168.48,41.24,168.56,41.24C448.72,716.12,530.25,683,530.25,683,554,673.39,564.8,680.14,564.8,680.14Z" transform="translate(-5.84 -2.87)"/></svg>